%TF.GenerationSoftware,Altium Limited,Altium Designer,22.4.2 (48)*%
G04 Layer_Color=255*
%FSLAX45Y45*%
%MOMM*%
%TF.SameCoordinates,3A7B4B19-9BDF-4AC5-8A71-DEF6C9DA19E2*%
%TF.FilePolarity,Positive*%
%TF.FileFunction,Pads,Bot*%
%TF.Part,Single*%
G01*
G75*
%TA.AperFunction,SMDPad,CuDef*%
%ADD28R,1.05000X1.10000*%
%ADD49R,1.10000X1.05000*%
%ADD62R,0.90000X0.70000*%
%ADD69R,0.70000X0.90000*%
%TA.AperFunction,ComponentPad*%
%ADD85C,1.10000*%
%ADD86C,4.30000*%
%ADD87C,1.50000*%
%ADD88C,1.59000*%
%ADD89O,1.25000X1.05000*%
%ADD90O,1.90000X1.20000*%
%ADD91R,1.59000X1.59000*%
%ADD92R,1.50000X1.50000*%
%ADD93R,1.50000X1.50000*%
%TA.AperFunction,SMDPad,CuDef*%
%ADD101R,0.70000X0.85000*%
G04:AMPARAMS|DCode=102|XSize=1.1mm|YSize=1.05mm|CornerRadius=0mm|HoleSize=0mm|Usage=FLASHONLY|Rotation=315.000|XOffset=0mm|YOffset=0mm|HoleType=Round|Shape=Rectangle|*
%AMROTATEDRECTD102*
4,1,4,-0.76014,0.01768,-0.01768,0.76014,0.76014,-0.01768,0.01768,-0.76014,-0.76014,0.01768,0.0*
%
%ADD102ROTATEDRECTD102*%

%ADD103R,1.90000X4.44000*%
%TA.AperFunction,ConnectorPad*%
%ADD104R,0.70000X0.90000*%
D28*
X12260001Y2120000D02*
D03*
X12124999Y1590002D02*
D03*
X11870001Y2124999D02*
D03*
X11940001Y1590001D02*
D03*
X8850000Y4755000D02*
D03*
X9735000Y4400000D02*
D03*
X5915000Y4145000D02*
D03*
X9735000Y2905000D02*
D03*
X6055000Y4145000D02*
D03*
X11730002Y2124999D02*
D03*
X12120002Y2120000D02*
D03*
X11800002Y1590001D02*
D03*
X12264998Y1590002D02*
D03*
X8335000Y5755000D02*
D03*
X8475000D02*
D03*
X9595000Y4400000D02*
D03*
Y2905000D02*
D03*
X8990000Y4755000D02*
D03*
X9415000Y5755000D02*
D03*
X9554999D02*
D03*
X9955000D02*
D03*
X10094999D02*
D03*
X8875000D02*
D03*
X9014999D02*
D03*
X11035000D02*
D03*
X11174999D02*
D03*
X12114999D02*
D03*
X12254999D02*
D03*
X10495000D02*
D03*
X10634999D02*
D03*
X11574999D02*
D03*
X11714999D02*
D03*
D49*
X5430001Y2350000D02*
D03*
X5175001Y2350000D02*
D03*
X4920001D02*
D03*
X4665001D02*
D03*
X4410001D02*
D03*
X4155001D02*
D03*
X3900001D02*
D03*
X3645001D02*
D03*
X15157500Y5799994D02*
D03*
X15157500Y5349994D02*
D03*
Y4899994D02*
D03*
Y4449994D02*
D03*
Y3999994D02*
D03*
Y3550000D02*
D03*
Y3099995D02*
D03*
Y2649995D02*
D03*
Y2200000D02*
D03*
Y1749995D02*
D03*
X11660000Y3570000D02*
D03*
X10747500Y4637500D02*
D03*
X6625000Y5670000D02*
D03*
X10310000Y3580000D02*
D03*
X9995000D02*
D03*
X7930000Y4310000D02*
D03*
X7280000D02*
D03*
X3985000Y5105000D02*
D03*
X6430000Y4310000D02*
D03*
X10914999Y3445001D02*
D03*
X8595000Y2240000D02*
D03*
X7875000Y2660000D02*
D03*
X11055000Y1845000D02*
D03*
X10280000Y1420000D02*
D03*
X9677500D02*
D03*
X9200000Y1530000D02*
D03*
X7815000Y1440000D02*
D03*
X6475000Y2660000D02*
D03*
X5430001Y2210000D02*
D03*
X4155001D02*
D03*
X5175001D02*
D03*
X4665001D02*
D03*
X4920001D02*
D03*
X4410001D02*
D03*
X3900001D02*
D03*
X3645001D02*
D03*
X6625000Y5810000D02*
D03*
X9200000Y1390000D02*
D03*
X9677500Y1280000D02*
D03*
X10280000D02*
D03*
X15157500Y5659994D02*
D03*
X10310000Y3720000D02*
D03*
X9995000D02*
D03*
X8595000Y2380000D02*
D03*
X7815000Y1300000D02*
D03*
X10914999Y3585001D02*
D03*
X6925000Y3620000D02*
D03*
Y3760000D02*
D03*
X7225000Y3620000D02*
D03*
Y3760000D02*
D03*
X11055000Y1985000D02*
D03*
X11660000Y3430000D02*
D03*
X10747500Y4777500D02*
D03*
X3985000Y5245000D02*
D03*
X7280000Y4170000D02*
D03*
X6475000Y2800000D02*
D03*
X6430000Y4170000D02*
D03*
X7930000D02*
D03*
X7875000Y2800000D02*
D03*
X6625000Y3620000D02*
D03*
Y3760000D02*
D03*
X15157500Y2959995D02*
D03*
Y1609995D02*
D03*
Y3409995D02*
D03*
Y2509995D02*
D03*
Y4309994D02*
D03*
Y5209994D02*
D03*
Y3859995D02*
D03*
Y2059995D02*
D03*
Y4759994D02*
D03*
D62*
X6230000Y5785000D02*
D03*
Y5635000D02*
D03*
X5430001Y1915000D02*
D03*
X5175001D02*
D03*
X4920001D02*
D03*
X4665001D02*
D03*
X4410001D02*
D03*
X4155001D02*
D03*
X3900001D02*
D03*
X3645001D02*
D03*
X5430001Y2065000D02*
D03*
Y2495000D02*
D03*
X5175001Y2065000D02*
D03*
Y2495000D02*
D03*
X4920001Y2065000D02*
D03*
Y2495000D02*
D03*
X4665001Y2065000D02*
D03*
Y2495000D02*
D03*
X4410001Y2065000D02*
D03*
Y2495000D02*
D03*
X4155001Y2065000D02*
D03*
Y2495000D02*
D03*
X3900001D02*
D03*
Y2065000D02*
D03*
X3645001Y2495000D02*
D03*
Y2065000D02*
D03*
X14682500Y5804994D02*
D03*
X14682501Y5354995D02*
D03*
Y4904995D02*
D03*
Y4454995D02*
D03*
Y4004995D02*
D03*
Y3554990D02*
D03*
Y3104996D02*
D03*
Y2654996D02*
D03*
Y2204991D02*
D03*
Y1754996D02*
D03*
X5820000Y5295000D02*
D03*
X5605000D02*
D03*
X5175000D02*
D03*
X5390000D02*
D03*
X4745000D02*
D03*
X4960000D02*
D03*
X5860001Y4510000D02*
D03*
X5645001D02*
D03*
X6075001D02*
D03*
X5430001D02*
D03*
X5215000D02*
D03*
X4785000D02*
D03*
X5000000D02*
D03*
X4570000D02*
D03*
X10100000Y2175000D02*
D03*
X8055000Y1295000D02*
D03*
X6095000Y2325000D02*
D03*
X7690000Y1960000D02*
D03*
X5430001Y2645000D02*
D03*
X4920001D02*
D03*
X5175001D02*
D03*
X4155001D02*
D03*
X4410001D02*
D03*
X3900001D02*
D03*
X3645001D02*
D03*
X4665001D02*
D03*
X8663749Y4610000D02*
D03*
Y4760000D02*
D03*
X10100000Y2325000D02*
D03*
X8775000Y1375000D02*
D03*
Y1225000D02*
D03*
X9992500Y1425000D02*
D03*
Y1275000D02*
D03*
X14682500Y5654994D02*
D03*
X14889999Y5654994D02*
D03*
Y5804994D02*
D03*
X14255000Y5654994D02*
D03*
Y5804994D02*
D03*
X14460001Y5654995D02*
D03*
Y5804994D02*
D03*
X4745000Y5765000D02*
D03*
Y5615000D02*
D03*
Y5445000D02*
D03*
X5860001Y4830000D02*
D03*
X5645001D02*
D03*
X5430001D02*
D03*
X5215000D02*
D03*
X5000000D02*
D03*
X4785000D02*
D03*
X4570000D02*
D03*
X5860001Y4660000D02*
D03*
X5645001D02*
D03*
X5430001D02*
D03*
X5215000D02*
D03*
X5000000D02*
D03*
X4785000D02*
D03*
X4570000D02*
D03*
X5820000Y5615000D02*
D03*
Y5445000D02*
D03*
X5605000Y5615000D02*
D03*
Y5445000D02*
D03*
X5390000Y5615000D02*
D03*
Y5445000D02*
D03*
X5175000Y5615000D02*
D03*
Y5445000D02*
D03*
X4960000Y5615000D02*
D03*
Y5445000D02*
D03*
X5860001Y4980000D02*
D03*
X5000000D02*
D03*
X5430001D02*
D03*
X4785000D02*
D03*
X5605000Y5765000D02*
D03*
X5175000D02*
D03*
X5215000Y4980000D02*
D03*
X4570000D02*
D03*
X5820000Y5765000D02*
D03*
X5390000D02*
D03*
X5645001Y4980000D02*
D03*
X4960000Y5765000D02*
D03*
X6075001Y4980000D02*
D03*
Y4830000D02*
D03*
Y4660000D02*
D03*
X10310000Y3250000D02*
D03*
Y3400000D02*
D03*
X9995000Y3390000D02*
D03*
Y3240000D02*
D03*
X8120000Y5864999D02*
D03*
Y5715002D02*
D03*
X14460001Y5354996D02*
D03*
X14255000Y5354995D02*
D03*
X14460001Y4904996D02*
D03*
X14255000Y4904996D02*
D03*
X14460001Y4454991D02*
D03*
X14255000Y4454991D02*
D03*
X14460001Y4004996D02*
D03*
X14255000Y4004996D02*
D03*
X14460001Y3554996D02*
D03*
X14255000Y3554996D02*
D03*
X14460001Y2654996D02*
D03*
X14255000Y2654996D02*
D03*
X14460001Y2204997D02*
D03*
X14255000Y2204996D02*
D03*
X14460001Y1754992D02*
D03*
X14255000Y1754991D02*
D03*
X14460001Y3104991D02*
D03*
X14255000Y3104991D02*
D03*
X8300000Y1445000D02*
D03*
Y1295000D02*
D03*
X8055000Y1445000D02*
D03*
X7525000Y2110000D02*
D03*
Y1960000D02*
D03*
X7690000Y2110000D02*
D03*
X7425000Y2815000D02*
D03*
Y2965000D02*
D03*
X7125000Y2965000D02*
D03*
Y2815000D02*
D03*
X10810000Y1840000D02*
D03*
Y1990000D02*
D03*
X6095000Y2175000D02*
D03*
X5855000Y2170000D02*
D03*
Y2320000D02*
D03*
X9075000Y2235000D02*
D03*
Y2085000D02*
D03*
X9075000Y2385000D02*
D03*
Y2535000D02*
D03*
X9200000Y5864999D02*
D03*
Y5715002D02*
D03*
X9519999Y5114998D02*
D03*
Y5265001D02*
D03*
X9260000Y5114998D02*
D03*
Y5265001D02*
D03*
X9740000Y5864999D02*
D03*
Y5715002D02*
D03*
X10059999Y5114998D02*
D03*
Y5265001D02*
D03*
X9799999Y5114998D02*
D03*
Y5265001D02*
D03*
X8660000Y5864999D02*
D03*
Y5715002D02*
D03*
X8979999Y5114998D02*
D03*
Y5265001D02*
D03*
X8720000Y5114998D02*
D03*
Y5265001D02*
D03*
X8439999D02*
D03*
Y5114998D02*
D03*
X8180000Y5265001D02*
D03*
Y5114998D02*
D03*
X10819999Y5864999D02*
D03*
Y5715002D02*
D03*
X11139999Y5114998D02*
D03*
Y5265001D02*
D03*
X10879999Y5114998D02*
D03*
Y5265001D02*
D03*
X11899999Y5864999D02*
D03*
Y5715002D02*
D03*
X12219999Y5114998D02*
D03*
Y5265001D02*
D03*
X11959999Y5114998D02*
D03*
Y5265001D02*
D03*
X10280000Y5864999D02*
D03*
Y5715002D02*
D03*
X10599999Y5114998D02*
D03*
Y5265001D02*
D03*
X10339999Y5114998D02*
D03*
Y5265001D02*
D03*
X11359999Y5864999D02*
D03*
Y5715002D02*
D03*
X11679999Y5114998D02*
D03*
Y5265001D02*
D03*
X11419999Y5114998D02*
D03*
Y5265001D02*
D03*
X12625001Y2905000D02*
D03*
Y2755000D02*
D03*
Y3170000D02*
D03*
Y3020000D02*
D03*
X13405000Y2905000D02*
D03*
Y2755000D02*
D03*
Y3170000D02*
D03*
Y3020000D02*
D03*
X12625001Y3575000D02*
D03*
Y3425000D02*
D03*
Y3840000D02*
D03*
Y3690000D02*
D03*
X13405000Y3575000D02*
D03*
Y3425000D02*
D03*
Y3840000D02*
D03*
Y3690000D02*
D03*
X12625001Y4245000D02*
D03*
Y4095000D02*
D03*
Y4510000D02*
D03*
Y4360000D02*
D03*
X13405000Y4245000D02*
D03*
Y4095000D02*
D03*
Y4510000D02*
D03*
Y4360000D02*
D03*
X12625001Y4915000D02*
D03*
Y4765000D02*
D03*
Y5180000D02*
D03*
Y5030000D02*
D03*
X13405000Y4915000D02*
D03*
Y4765000D02*
D03*
Y5180000D02*
D03*
Y5030000D02*
D03*
X12625001Y5585000D02*
D03*
Y5435000D02*
D03*
Y5850000D02*
D03*
Y5700000D02*
D03*
X13405000Y5850000D02*
D03*
Y5700000D02*
D03*
Y5585000D02*
D03*
Y5435000D02*
D03*
X14682501Y1604999D02*
D03*
X14890001Y1604994D02*
D03*
Y1754991D02*
D03*
X14255000Y1604994D02*
D03*
X14460001Y1604995D02*
D03*
X14682501Y3404993D02*
D03*
X14890001Y3554996D02*
D03*
Y3404999D02*
D03*
X14255000D02*
D03*
X14460001Y3404999D02*
D03*
X14682501Y2504993D02*
D03*
X14890001Y2654996D02*
D03*
Y2504994D02*
D03*
X14255000D02*
D03*
X14460001Y2504994D02*
D03*
X14682501Y4304998D02*
D03*
X14890001Y4454991D02*
D03*
Y4304993D02*
D03*
X14255000D02*
D03*
X14460001Y4304994D02*
D03*
X14682501Y5204993D02*
D03*
X14890001Y5354995D02*
D03*
Y5204993D02*
D03*
X14255000D02*
D03*
X14460001Y5204993D02*
D03*
X14682501Y2954998D02*
D03*
X14890001Y3104991D02*
D03*
Y2954994D02*
D03*
X14255000D02*
D03*
X14460001Y2954994D02*
D03*
X14682501Y3854993D02*
D03*
X14890001Y4004996D02*
D03*
Y3854994D02*
D03*
X14255000D02*
D03*
X14460001Y3854994D02*
D03*
X14682501Y2054994D02*
D03*
X14890001Y2204996D02*
D03*
Y2054999D02*
D03*
X14255000D02*
D03*
X14460001Y2054999D02*
D03*
X14682501Y4754993D02*
D03*
X14890001Y4904996D02*
D03*
Y4754993D02*
D03*
X14255000D02*
D03*
X14460001Y4754994D02*
D03*
D69*
X5340000Y4080000D02*
D03*
X15630000Y5839994D02*
D03*
X15629999Y5649997D02*
D03*
X15630000Y5389996D02*
D03*
Y4939996D02*
D03*
X15630000Y5199998D02*
D03*
Y4749999D02*
D03*
X15630000Y4489996D02*
D03*
X15630000Y4299999D02*
D03*
X15630000Y4039996D02*
D03*
X15630000Y3849999D02*
D03*
X15629996Y3589996D02*
D03*
X15629996Y3399999D02*
D03*
X15630000Y3139996D02*
D03*
X15630000Y2949999D02*
D03*
X15630000Y2689996D02*
D03*
X15630000Y2499999D02*
D03*
X15629996Y2239997D02*
D03*
X15629996Y2049999D02*
D03*
X15630000Y1789997D02*
D03*
X15630000Y1600000D02*
D03*
X5190000Y4080000D02*
D03*
X7105000Y1169999D02*
D03*
X7255000D02*
D03*
X7100000Y1365000D02*
D03*
X7250000D02*
D03*
X7250000Y1559999D02*
D03*
X7100000D02*
D03*
X15480000Y5839994D02*
D03*
X15480000Y5649997D02*
D03*
X11880000Y2905000D02*
D03*
X12030000D02*
D03*
X11885000Y4015000D02*
D03*
X12035000D02*
D03*
X10747500Y4427500D02*
D03*
X10897500D02*
D03*
X10835000Y3725000D02*
D03*
X10985000D02*
D03*
X11735000Y3729997D02*
D03*
X11585000D02*
D03*
X11585000Y3269998D02*
D03*
X11735000Y3269998D02*
D03*
X2990000Y5125000D02*
D03*
X2840000D02*
D03*
X2990000Y4910000D02*
D03*
X2840000Y4910000D02*
D03*
X7300000Y3360000D02*
D03*
X7450000D02*
D03*
X7215000Y5461361D02*
D03*
X7065000Y5461361D02*
D03*
X7210000Y5656361D02*
D03*
X7060000Y5656361D02*
D03*
X15480003Y1789997D02*
D03*
X15480003Y1600000D02*
D03*
X15479999Y3589996D02*
D03*
X15479997Y3399999D02*
D03*
X15479999Y2689996D02*
D03*
X15479997Y2499999D02*
D03*
X15480003Y4489996D02*
D03*
X15480003Y4299999D02*
D03*
X15479999Y5389996D02*
D03*
X15479997Y5199998D02*
D03*
X15480003Y3139996D02*
D03*
X15480003Y2949999D02*
D03*
X15479999Y4039996D02*
D03*
X15479997Y3849999D02*
D03*
X15479999Y2239997D02*
D03*
X15479997Y2049999D02*
D03*
X15479999Y4939996D02*
D03*
X15479997Y4749999D02*
D03*
D85*
X5299999Y1630000D02*
D03*
X5050002D02*
D03*
X4924998D02*
D03*
X4675001D02*
D03*
X4550003D02*
D03*
X4300000D02*
D03*
X4175002D02*
D03*
X3925000D02*
D03*
X3800002D02*
D03*
X3800001Y1505001D02*
D03*
X16700000Y2250000D02*
D03*
X16825000D02*
D03*
X5175000Y1630000D02*
D03*
X5175000Y1505001D02*
D03*
X4800000Y1630000D02*
D03*
X4424999D02*
D03*
X4424999Y1505001D02*
D03*
X4800000D02*
D03*
X4049999Y1630000D02*
D03*
Y1505001D02*
D03*
X5299998D02*
D03*
X5050002D02*
D03*
X4924998D02*
D03*
X4675001D02*
D03*
X4550003D02*
D03*
X4300001D02*
D03*
X4175002D02*
D03*
X3925000D02*
D03*
X5690001Y1630000D02*
D03*
X3410000Y1630000D02*
D03*
X16700000Y4875000D02*
D03*
X16825000D02*
D03*
X16700000Y4625000D02*
D03*
X16825000D02*
D03*
X16700000Y4375000D02*
D03*
X16825000D02*
D03*
X16700000Y4125000D02*
D03*
X16825000D02*
D03*
X16700000Y3875000D02*
D03*
X16825000D02*
D03*
X16700000Y3625000D02*
D03*
X16825000D02*
D03*
X16700000Y3375000D02*
D03*
X16825000D02*
D03*
X16700000Y3125000D02*
D03*
X16825000D02*
D03*
X16700000Y2875000D02*
D03*
X16825000D02*
D03*
X16700000Y2625000D02*
D03*
X16825000D02*
D03*
X16700000Y2500000D02*
D03*
X16825000Y2375000D02*
D03*
Y2500000D02*
D03*
X16700000Y2125000D02*
D03*
X16825000D02*
D03*
X16700000Y2375000D02*
D03*
Y2000000D02*
D03*
X16825000D02*
D03*
X16700000Y1610000D02*
D03*
Y5390000D02*
D03*
X16825000Y2750000D02*
D03*
Y3000000D02*
D03*
Y3250000D02*
D03*
Y3500000D02*
D03*
Y3750000D02*
D03*
Y4000000D02*
D03*
Y4250000D02*
D03*
Y4500000D02*
D03*
Y4750000D02*
D03*
Y5000000D02*
D03*
X16700000Y2750000D02*
D03*
Y3000000D02*
D03*
Y3250000D02*
D03*
Y3500000D02*
D03*
Y3750000D02*
D03*
Y4000000D02*
D03*
Y4250000D02*
D03*
Y4500000D02*
D03*
Y4750000D02*
D03*
Y5000000D02*
D03*
D86*
X16220000Y2460000D02*
D03*
X16220000Y1959996D02*
D03*
D87*
X13450000Y2315000D02*
D03*
X6499999Y1744000D02*
D03*
X6245999D02*
D03*
Y1490000D02*
D03*
X6499999D02*
D03*
X6245998Y1236000D02*
D03*
X13196001Y2315000D02*
D03*
D88*
X9800000Y4199999D02*
D03*
Y2699999D02*
D03*
X10050002Y4199999D02*
D03*
X9549998D02*
D03*
X11349998Y4200002D02*
D03*
X11600000D02*
D03*
X11850002D02*
D03*
X11849999Y2700001D02*
D03*
X11599997D02*
D03*
X11350000D02*
D03*
X9549998Y2699999D02*
D03*
X10050002D02*
D03*
D89*
X2450000Y5322500D02*
D03*
Y4877497D02*
D03*
D90*
X2150001Y5517501D02*
D03*
X2150001Y4682502D02*
D03*
D91*
X10299999Y4199999D02*
D03*
X12099999Y4200001D02*
D03*
X12100001Y2700001D02*
D03*
X10299999Y2699999D02*
D03*
D92*
X6499999Y1236000D02*
D03*
D93*
X13703999Y2315000D02*
D03*
D101*
X6325000Y3767500D02*
D03*
Y3612500D02*
D03*
X7525000Y3767500D02*
D03*
Y3612500D02*
D03*
D102*
X5325502Y1185503D02*
D03*
X5424497Y1284498D02*
D03*
D103*
X16387500Y5031800D02*
D03*
X15962500Y5031800D02*
D03*
X16387500Y4521800D02*
D03*
X15962500D02*
D03*
X16387500Y4011799D02*
D03*
X15962500D02*
D03*
X16387500Y3501800D02*
D03*
X15962500D02*
D03*
X16387500Y2991799D02*
D03*
X15962500D02*
D03*
D104*
X7060000Y5851361D02*
D03*
X7210000Y5851361D02*
D03*
%TF.MD5,df5f37d5e0cd2587ebcbecd4a69fa74c*%
M02*
