%TF.GenerationSoftware,Altium Limited,Altium Designer,22.4.2 (48)*%
G04 Layer_Color=2752767*
%FSLAX45Y45*%
%MOMM*%
%TF.SameCoordinates,3A7B4B19-9BDF-4AC5-8A71-DEF6C9DA19E2*%
%TF.FilePolarity,Positive*%
%TF.FileFunction,Drawing*%
%TF.Part,Single*%
G01*
G75*
%TA.AperFunction,NonConductor*%
%ADD132C,0.12700*%
%ADD202C,0.16933*%
%ADD203C,0.10160*%
D132*
X5249199Y1579200D02*
Y1680800D01*
X5350799D01*
Y1579200D01*
X5249199D01*
X4999202D02*
Y1680800D01*
X5100802D01*
Y1579200D01*
X4999202D01*
X4874198D02*
Y1680800D01*
X4975798D01*
Y1579200D01*
X4874198D01*
X4624201D02*
Y1680800D01*
X4725801D01*
Y1579200D01*
X4624201D01*
X4499203D02*
Y1680800D01*
X4600803D01*
Y1579200D01*
X4499203D01*
X4249200D02*
Y1680800D01*
X4350800D01*
Y1579200D01*
X4249200D01*
X4124202D02*
Y1680800D01*
X4225802D01*
Y1579200D01*
X4124202D01*
X3874200D02*
Y1680800D01*
X3975800D01*
Y1579200D01*
X3874200D01*
X3749202D02*
Y1680800D01*
X3850802D01*
Y1579200D01*
X3749202D01*
X3749201Y1454201D02*
Y1555801D01*
X3850801D01*
Y1454201D01*
X3749201D01*
X16649200Y2199200D02*
Y2300800D01*
X16750800D01*
Y2199200D01*
X16649200D01*
X16774200D02*
Y2300800D01*
X16875800D01*
Y2199200D01*
X16774200D01*
X13450000Y2264200D02*
X13399200Y2365800D01*
X13500800D01*
X13450000Y2264200D01*
X9800000Y4149199D02*
X9825400Y4174599D01*
X9850800D01*
X9825400Y4199999D01*
X9850800Y4225399D01*
X9825400D01*
X9800000Y4250799D01*
X9774600Y4225399D01*
X9749200D01*
X9774600Y4199999D01*
X9749200Y4174599D01*
X9774600D01*
X9800000Y4149199D01*
X2399200Y5271700D02*
X2424600Y5322500D01*
X2399200Y5373300D01*
X2450000Y5347900D01*
X2500800Y5373300D01*
X2475400Y5322500D01*
X2500800Y5271700D01*
X2450000Y5297100D01*
X2399200Y5271700D01*
X2124601Y5492101D02*
Y5466701D01*
X2175401D01*
Y5492101D01*
X2200801D01*
Y5542901D01*
X2175401D01*
Y5568301D01*
X2124601D01*
Y5542901D01*
X2099201D01*
Y5492101D01*
X2124601D01*
X2399200Y4826697D02*
X2424600Y4877497D01*
X2399200Y4928297D01*
X2450000Y4902897D01*
X2500800Y4928297D01*
X2475400Y4877497D01*
X2500800Y4826697D01*
X2450000Y4852097D01*
X2399200Y4826697D01*
X2124601Y4657102D02*
Y4631702D01*
X2175401D01*
Y4657102D01*
X2200801D01*
Y4707902D01*
X2175401D01*
Y4733302D01*
X2124601D01*
Y4707902D01*
X2099201D01*
Y4657102D01*
X2124601D01*
X9800000Y2649199D02*
X9825400Y2674599D01*
X9850800D01*
X9825400Y2699999D01*
X9850800Y2725399D01*
X9825400D01*
X9800000Y2750799D01*
X9774600Y2725399D01*
X9749200D01*
X9774600Y2699999D01*
X9749200Y2674599D01*
X9774600D01*
X9800000Y2649199D01*
X6449199Y1693200D02*
X6474599D01*
X6499999Y1718600D01*
X6525399Y1693200D01*
X6550799D01*
Y1718600D01*
X6525399Y1744000D01*
X6550799Y1769400D01*
Y1794800D01*
X6525399D01*
X6499999Y1769400D01*
X6474599Y1794800D01*
X6449199D01*
Y1769400D01*
X6474599Y1744000D01*
X6449199Y1718600D01*
Y1693200D01*
X5124200Y1579200D02*
Y1680800D01*
X5225800D01*
Y1579200D01*
X5124200D01*
X5124200Y1454201D02*
Y1555801D01*
X5225800D01*
Y1454201D01*
X5124200D01*
X4749200Y1579200D02*
Y1680800D01*
X4850800D01*
Y1579200D01*
X4749200D01*
X4374199D02*
Y1680800D01*
X4475799D01*
Y1579200D01*
X4374199D01*
X4374199Y1454201D02*
Y1555801D01*
X4475799D01*
Y1454201D01*
X4374199D01*
X4749200D02*
Y1555801D01*
X4850800D01*
Y1454201D01*
X4749200D01*
X3999199Y1579200D02*
Y1680800D01*
X4100799D01*
Y1579200D01*
X3999199D01*
Y1454201D02*
Y1555801D01*
X4100799D01*
Y1454201D01*
X3999199D01*
X10299999Y4149199D02*
X10325399Y4174599D01*
X10350799D01*
X10325399Y4199999D01*
X10350799Y4225399D01*
X10325399D01*
X10299999Y4250799D01*
X10274599Y4225399D01*
X10249199D01*
X10274599Y4199999D01*
X10249199Y4174599D01*
X10274599D01*
X10299999Y4149199D01*
X10050002Y4149199D02*
X10075402Y4174599D01*
X10100802D01*
X10075402Y4199999D01*
X10100802Y4225399D01*
X10075402D01*
X10050002Y4250799D01*
X10024602Y4225399D01*
X9999202D01*
X10024602Y4199999D01*
X9999202Y4174599D01*
X10024602D01*
X10050002Y4149199D01*
X9549998D02*
X9575398Y4174599D01*
X9600798D01*
X9575398Y4199999D01*
X9600798Y4225399D01*
X9575398D01*
X9549998Y4250799D01*
X9524598Y4225399D01*
X9499198D01*
X9524598Y4199999D01*
X9499198Y4174599D01*
X9524598D01*
X9549998Y4149199D01*
X11349998Y4149202D02*
X11375398Y4174602D01*
X11400798D01*
X11375398Y4200002D01*
X11400798Y4225402D01*
X11375398D01*
X11349998Y4250802D01*
X11324598Y4225402D01*
X11299198D01*
X11324598Y4200002D01*
X11299198Y4174602D01*
X11324598D01*
X11349998Y4149202D01*
X11600000D02*
X11625400Y4174602D01*
X11650800D01*
X11625400Y4200002D01*
X11650800Y4225402D01*
X11625400D01*
X11600000Y4250802D01*
X11574600Y4225402D01*
X11549200D01*
X11574600Y4200002D01*
X11549200Y4174602D01*
X11574600D01*
X11600000Y4149202D01*
X11850002D02*
X11875402Y4174602D01*
X11900802D01*
X11875402Y4200002D01*
X11900802Y4225402D01*
X11875402D01*
X11850002Y4250802D01*
X11824602Y4225402D01*
X11799202D01*
X11824602Y4200002D01*
X11799202Y4174602D01*
X11824602D01*
X11850002Y4149202D01*
X12099999Y4149201D02*
X12125399Y4174601D01*
X12150799D01*
X12125399Y4200001D01*
X12150799Y4225401D01*
X12125399D01*
X12099999Y4250801D01*
X12074599Y4225401D01*
X12049199D01*
X12074599Y4200001D01*
X12049199Y4174601D01*
X12074599D01*
X12099999Y4149201D01*
X5249198Y1454201D02*
Y1555801D01*
X5350798D01*
Y1454201D01*
X5249198D01*
X4999202D02*
Y1555801D01*
X5100802D01*
Y1454201D01*
X4999202D01*
X4874198D02*
Y1555801D01*
X4975798D01*
Y1454201D01*
X4874198D01*
X4624201D02*
Y1555801D01*
X4725801D01*
Y1454201D01*
X4624201D01*
X4499203D02*
Y1555801D01*
X4600803D01*
Y1454201D01*
X4499203D01*
X4249201D02*
Y1555801D01*
X4350801D01*
Y1454201D01*
X4249201D01*
X4124202D02*
Y1555801D01*
X4225802D01*
Y1454201D01*
X4124202D01*
X3874200D02*
Y1555801D01*
X3975800D01*
Y1454201D01*
X3874200D01*
X5639201Y1630000D02*
X5690001Y1680800D01*
X5740801Y1630000D01*
X5690001Y1579200D01*
X5639201Y1630000D01*
X3359200Y1630000D02*
X3410000Y1680800D01*
X3460800Y1630000D01*
X3410000Y1579200D01*
X3359200Y1630000D01*
X6195199Y1693200D02*
X6220599D01*
X6245999Y1718600D01*
X6271399Y1693200D01*
X6296799D01*
Y1718600D01*
X6271399Y1744000D01*
X6296799Y1769400D01*
Y1794800D01*
X6271399D01*
X6245999Y1769400D01*
X6220599Y1794800D01*
X6195199D01*
Y1769400D01*
X6220599Y1744000D01*
X6195199Y1718600D01*
Y1693200D01*
Y1439200D02*
X6220599D01*
X6245999Y1464600D01*
X6271399Y1439200D01*
X6296799D01*
Y1464600D01*
X6271399Y1490000D01*
X6296799Y1515400D01*
Y1540800D01*
X6271399D01*
X6245999Y1515400D01*
X6220599Y1540800D01*
X6195199D01*
Y1515400D01*
X6220599Y1490000D01*
X6195199Y1464600D01*
Y1439200D01*
X6449199D02*
X6474599D01*
X6499999Y1464600D01*
X6525399Y1439200D01*
X6550799D01*
Y1464600D01*
X6525399Y1490000D01*
X6550799Y1515400D01*
Y1540800D01*
X6525399D01*
X6499999Y1515400D01*
X6474599Y1540800D01*
X6449199D01*
Y1515400D01*
X6474599Y1490000D01*
X6449199Y1464600D01*
Y1439200D01*
X6195198Y1185200D02*
X6220598D01*
X6245998Y1210600D01*
X6271398Y1185200D01*
X6296798D01*
Y1210600D01*
X6271398Y1236000D01*
X6296798Y1261400D01*
Y1286800D01*
X6271398D01*
X6245998Y1261400D01*
X6220598Y1286800D01*
X6195198D01*
Y1261400D01*
X6220598Y1236000D01*
X6195198Y1210600D01*
Y1185200D01*
X6449199D02*
X6474599D01*
X6499999Y1210600D01*
X6525399Y1185200D01*
X6550799D01*
Y1210600D01*
X6525399Y1236000D01*
X6550799Y1261400D01*
Y1286800D01*
X6525399D01*
X6499999Y1261400D01*
X6474599Y1286800D01*
X6449199D01*
Y1261400D01*
X6474599Y1236000D01*
X6449199Y1210600D01*
Y1185200D01*
X13703999Y2264200D02*
X13653200Y2365800D01*
X13754800D01*
X13703999Y2264200D01*
X16649200Y4824200D02*
Y4925800D01*
X16750800D01*
Y4824200D01*
X16649200D01*
X16774200D02*
Y4925800D01*
X16875800D01*
Y4824200D01*
X16774200D01*
X16649200Y4574200D02*
Y4675800D01*
X16750800D01*
Y4574200D01*
X16649200D01*
X16774200D02*
Y4675800D01*
X16875800D01*
Y4574200D01*
X16774200D01*
X16649200Y4324200D02*
Y4425800D01*
X16750800D01*
Y4324200D01*
X16649200D01*
X16774200D02*
Y4425800D01*
X16875800D01*
Y4324200D01*
X16774200D01*
X16649200Y4074200D02*
Y4175800D01*
X16750800D01*
Y4074200D01*
X16649200D01*
X16774200D02*
Y4175800D01*
X16875800D01*
Y4074200D01*
X16774200D01*
X16649200Y3824200D02*
Y3925800D01*
X16750800D01*
Y3824200D01*
X16649200D01*
X16774200D02*
Y3925800D01*
X16875800D01*
Y3824200D01*
X16774200D01*
X16649200Y3574200D02*
Y3675800D01*
X16750800D01*
Y3574200D01*
X16649200D01*
X16774200D02*
Y3675800D01*
X16875800D01*
Y3574200D01*
X16774200D01*
X16649200Y3324200D02*
Y3425800D01*
X16750800D01*
Y3324200D01*
X16649200D01*
X16774200D02*
Y3425800D01*
X16875800D01*
Y3324200D01*
X16774200D01*
X16649200Y3074200D02*
Y3175800D01*
X16750800D01*
Y3074200D01*
X16649200D01*
X16774200D02*
Y3175800D01*
X16875800D01*
Y3074200D01*
X16774200D01*
X16649200Y2824200D02*
Y2925800D01*
X16750800D01*
Y2824200D01*
X16649200D01*
X16774200D02*
Y2925800D01*
X16875800D01*
Y2824200D01*
X16774200D01*
X16649200Y2574200D02*
Y2675800D01*
X16750800D01*
Y2574200D01*
X16649200D01*
X16774200D02*
Y2675800D01*
X16875800D01*
Y2574200D01*
X16774200D01*
X16649200Y2449200D02*
Y2550800D01*
X16750800D01*
Y2449200D01*
X16649200D01*
X16774200Y2324200D02*
Y2425800D01*
X16875800D01*
Y2324200D01*
X16774200D01*
Y2449200D02*
Y2550800D01*
X16875800D01*
Y2449200D01*
X16774200D01*
X16649200Y2074200D02*
Y2175800D01*
X16750800D01*
Y2074200D01*
X16649200D01*
X16774200D02*
Y2175800D01*
X16875800D01*
Y2074200D01*
X16774200D01*
X16649200Y2324200D02*
Y2425800D01*
X16750800D01*
Y2324200D01*
X16649200D01*
Y1949200D02*
Y2050800D01*
X16750800D01*
Y1949200D01*
X16649200D01*
X16774200D02*
Y2050800D01*
X16875800D01*
Y1949200D01*
X16774200D01*
X16649200Y1610000D02*
X16700000Y1660800D01*
X16750800Y1610000D01*
X16700000Y1559200D01*
X16649200Y1610000D01*
Y5390000D02*
X16700000Y5440800D01*
X16750800Y5390000D01*
X16700000Y5339200D01*
X16649200Y5390000D01*
X16774200Y2699200D02*
Y2800800D01*
X16875800D01*
Y2699200D01*
X16774200D01*
Y2949200D02*
Y3050800D01*
X16875800D01*
Y2949200D01*
X16774200D01*
Y3199200D02*
Y3300800D01*
X16875800D01*
Y3199200D01*
X16774200D01*
Y3449200D02*
Y3550800D01*
X16875800D01*
Y3449200D01*
X16774200D01*
Y3699200D02*
Y3800800D01*
X16875800D01*
Y3699200D01*
X16774200D01*
Y3949200D02*
Y4050800D01*
X16875800D01*
Y3949200D01*
X16774200D01*
Y4199200D02*
Y4300800D01*
X16875800D01*
Y4199200D01*
X16774200D01*
Y4449200D02*
Y4550800D01*
X16875800D01*
Y4449200D01*
X16774200D01*
Y4699200D02*
Y4800800D01*
X16875800D01*
Y4699200D01*
X16774200D01*
Y4949200D02*
Y5050800D01*
X16875800D01*
Y4949200D01*
X16774200D01*
X16649200Y2699200D02*
Y2800800D01*
X16750800D01*
Y2699200D01*
X16649200D01*
Y2949200D02*
Y3050800D01*
X16750800D01*
Y2949200D01*
X16649200D01*
Y3199200D02*
Y3300800D01*
X16750800D01*
Y3199200D01*
X16649200D01*
Y3449200D02*
Y3550800D01*
X16750800D01*
Y3449200D01*
X16649200D01*
Y3699200D02*
Y3800800D01*
X16750800D01*
Y3699200D01*
X16649200D01*
Y3949200D02*
Y4050800D01*
X16750800D01*
Y3949200D01*
X16649200D01*
Y4199200D02*
Y4300800D01*
X16750800D01*
Y4199200D01*
X16649200D01*
Y4449200D02*
Y4550800D01*
X16750800D01*
Y4449200D01*
X16649200D01*
Y4699200D02*
Y4800800D01*
X16750800D01*
Y4699200D01*
X16649200D01*
Y4949200D02*
Y5050800D01*
X16750800D01*
Y4949200D01*
X16649200D01*
X13196001Y2264200D02*
X13145200Y2365800D01*
X13246800D01*
X13196001Y2264200D01*
X12100001Y2649201D02*
X12125401Y2674601D01*
X12150801D01*
X12125401Y2700001D01*
X12150801Y2725401D01*
X12125401D01*
X12100001Y2750801D01*
X12074601Y2725401D01*
X12049201D01*
X12074601Y2700001D01*
X12049201Y2674601D01*
X12074601D01*
X12100001Y2649201D01*
X11849999Y2649201D02*
X11875399Y2674601D01*
X11900799D01*
X11875399Y2700001D01*
X11900799Y2725401D01*
X11875399D01*
X11849999Y2750801D01*
X11824599Y2725401D01*
X11799199D01*
X11824599Y2700001D01*
X11799199Y2674601D01*
X11824599D01*
X11849999Y2649201D01*
X11599997D02*
X11625397Y2674601D01*
X11650797D01*
X11625397Y2700001D01*
X11650797Y2725401D01*
X11625397D01*
X11599997Y2750801D01*
X11574597Y2725401D01*
X11549197D01*
X11574597Y2700001D01*
X11549197Y2674601D01*
X11574597D01*
X11599997Y2649201D01*
X11350000D02*
X11375400Y2674601D01*
X11400800D01*
X11375400Y2700001D01*
X11400800Y2725401D01*
X11375400D01*
X11350000Y2750801D01*
X11324600Y2725401D01*
X11299200D01*
X11324600Y2700001D01*
X11299200Y2674601D01*
X11324600D01*
X11350000Y2649201D01*
X9549998Y2649199D02*
X9575398Y2674599D01*
X9600798D01*
X9575398Y2699999D01*
X9600798Y2725399D01*
X9575398D01*
X9549998Y2750799D01*
X9524598Y2725399D01*
X9499198D01*
X9524598Y2699999D01*
X9499198Y2674599D01*
X9524598D01*
X9549998Y2649199D01*
X10050002D02*
X10075402Y2674599D01*
X10100802D01*
X10075402Y2699999D01*
X10100802Y2725399D01*
X10075402D01*
X10050002Y2750799D01*
X10024602Y2725399D01*
X9999202D01*
X10024602Y2699999D01*
X9999202Y2674599D01*
X10024602D01*
X10050002Y2649199D01*
X10299999Y2649199D02*
X10325399Y2674599D01*
X10350799D01*
X10325399Y2699999D01*
X10350799Y2725399D01*
X10325399D01*
X10299999Y2750799D01*
X10274599Y2725399D01*
X10249199D01*
X10274599Y2699999D01*
X10249199Y2674599D01*
X10274599D01*
X10299999Y2649199D01*
X5359200Y3719200D02*
Y3820800D01*
X5460800D01*
Y3719200D01*
X5359200D01*
X5379520Y3739520D02*
Y3800480D01*
X5440480D01*
Y3739520D01*
X5379520D01*
X5479200Y3554200D02*
Y3655800D01*
X5580800D01*
Y3554200D01*
X5479200D01*
X5499520Y3574520D02*
Y3635480D01*
X5560480D01*
Y3574520D01*
X5499520D01*
X5479200Y3419200D02*
Y3520800D01*
X5580800D01*
Y3419200D01*
X5479200D01*
X5499520Y3439520D02*
Y3500480D01*
X5560480D01*
Y3439520D01*
X5499520D01*
X6164200Y5451701D02*
Y5553301D01*
X6265800D01*
Y5451701D01*
X6164200D01*
X6184520Y5472021D02*
Y5532981D01*
X6245480D01*
Y5472021D01*
X6184520D01*
X6449200Y4774200D02*
Y4875800D01*
X6550800D01*
Y4774200D01*
X6449200D01*
X6469520Y4794520D02*
Y4855480D01*
X6530480D01*
Y4794520D01*
X6469520D01*
X6174200Y4824200D02*
Y4925800D01*
X6275800D01*
Y4824200D01*
X6174200D01*
X6194520Y4844520D02*
Y4905480D01*
X6255480D01*
Y4844520D01*
X6194520D01*
X6649200Y4799200D02*
Y4900800D01*
X6750800D01*
Y4799200D01*
X6649200D01*
X6669520Y4819520D02*
Y4880480D01*
X6730480D01*
Y4819520D01*
X6669520D01*
X6274200Y2349200D02*
Y2450800D01*
X6375800D01*
Y2349200D01*
X6274200D01*
X6294520Y2369520D02*
Y2430480D01*
X6355480D01*
Y2369520D01*
X6294520D01*
X5314200Y4334200D02*
Y4435800D01*
X5415800D01*
Y4334200D01*
X5314200D01*
X5334520Y4354520D02*
Y4415480D01*
X5395480D01*
Y4354520D01*
X5334520D01*
X6679200Y4249200D02*
Y4350800D01*
X6780800D01*
Y4249200D01*
X6679200D01*
X6699520Y4269520D02*
Y4330480D01*
X6760480D01*
Y4269520D01*
X6699520D01*
X5709200Y4719200D02*
Y4820800D01*
X5810800D01*
Y4719200D01*
X5709200D01*
X5729520Y4739520D02*
Y4800480D01*
X5790480D01*
Y4739520D01*
X5729520D01*
X5669200Y5129200D02*
Y5230800D01*
X5770800D01*
Y5129200D01*
X5669200D01*
X5689520Y5149520D02*
Y5210480D01*
X5750480D01*
Y5149520D01*
X5689520D01*
X5669200Y5824200D02*
Y5925800D01*
X5770800D01*
Y5824200D01*
X5669200D01*
X5689520Y5844520D02*
Y5905480D01*
X5750480D01*
Y5844520D01*
X5689520D01*
X5289200Y4159200D02*
Y4260800D01*
X5390800D01*
Y4159200D01*
X5289200D01*
X5309520Y4179520D02*
Y4240480D01*
X5370480D01*
Y4179520D01*
X5309520D01*
X5399200Y4049200D02*
Y4150800D01*
X5500800D01*
Y4049200D01*
X5399200D01*
X5419520Y4069520D02*
Y4130480D01*
X5480480D01*
Y4069520D01*
X5419520D01*
X8399200Y4514200D02*
Y4615800D01*
X8500800D01*
Y4514200D01*
X8399200D01*
X8419520Y4534520D02*
Y4595480D01*
X8480480D01*
Y4534520D01*
X8419520D01*
X6189200Y4424200D02*
Y4525800D01*
X6290800D01*
Y4424200D01*
X6189200D01*
X6209520Y4444520D02*
Y4505480D01*
X6270480D01*
Y4444520D01*
X6209520D01*
X6299200Y4674200D02*
Y4775800D01*
X6400800D01*
Y4674200D01*
X6299200D01*
X6319520Y4694520D02*
Y4755480D01*
X6380480D01*
Y4694520D01*
X6319520D01*
X11829200Y3709200D02*
Y3810800D01*
X11930800D01*
Y3709200D01*
X11829200D01*
X11849520Y3729520D02*
Y3790480D01*
X11910480D01*
Y3729520D01*
X11849520D01*
X11899200Y3514200D02*
Y3615800D01*
X12000800D01*
Y3514200D01*
X11899200D01*
X11919520Y3534520D02*
Y3595480D01*
X11980480D01*
Y3534520D01*
X11919520D01*
X11974200Y3449200D02*
Y3550800D01*
X12075800D01*
Y3449200D01*
X11974200D01*
X11994520Y3469520D02*
Y3530480D01*
X12055480D01*
Y3469520D01*
X11994520D01*
X12034200Y3809200D02*
Y3910800D01*
X12135800D01*
Y3809200D01*
X12034200D01*
X12054520Y3829520D02*
Y3890480D01*
X12115480D01*
Y3829520D01*
X12054520D01*
X12249200Y3049200D02*
Y3150800D01*
X12350800D01*
Y3049200D01*
X12249200D01*
X12269520Y3069520D02*
Y3130480D01*
X12330480D01*
Y3069520D01*
X12269520D01*
X12099200Y3724200D02*
Y3825800D01*
X12200800D01*
Y3724200D01*
X12099200D01*
X12119520Y3744520D02*
Y3805480D01*
X12180480D01*
Y3744520D01*
X12119520D01*
X11109200Y4504200D02*
Y4605800D01*
X11210800D01*
Y4504200D01*
X11109200D01*
X11129520Y4524520D02*
Y4585480D01*
X11190480D01*
Y4524520D01*
X11129520D01*
X11109200Y4629198D02*
Y4730798D01*
X11210800D01*
Y4629198D01*
X11109200D01*
X11129520Y4649518D02*
Y4710478D01*
X11190480D01*
Y4649518D01*
X11129520D01*
X9164200Y1924200D02*
Y2025800D01*
X9265800D01*
Y1924200D01*
X9164200D01*
X9184520Y1944520D02*
Y2005480D01*
X9245480D01*
Y1944520D01*
X9184520D01*
X9449200Y1644200D02*
Y1745800D01*
X9550800D01*
Y1644200D01*
X9449200D01*
X9469520Y1664520D02*
Y1725480D01*
X9530480D01*
Y1664520D01*
X9469520D01*
X6011396Y1893595D02*
Y1995195D01*
X6112996D01*
Y1893595D01*
X6011396D01*
X6031716Y1913915D02*
Y1974875D01*
X6092676D01*
Y1913915D01*
X6031716D01*
X7799200Y1774200D02*
Y1875800D01*
X7900800D01*
Y1774200D01*
X7799200D01*
X7819520Y1794520D02*
Y1855480D01*
X7880480D01*
Y1794520D01*
X7819520D01*
X7799200Y1874200D02*
Y1975800D01*
X7900800D01*
Y1874200D01*
X7799200D01*
X7819520Y1894520D02*
Y1955480D01*
X7880480D01*
Y1894520D01*
X7819520D01*
X7549200Y2799200D02*
Y2900800D01*
X7650800D01*
Y2799200D01*
X7549200D01*
X7569520Y2819520D02*
Y2880480D01*
X7630480D01*
Y2819520D01*
X7569520D01*
X7274200Y2399200D02*
Y2500800D01*
X7375800D01*
Y2399200D01*
X7274200D01*
X7294520Y2419520D02*
Y2480480D01*
X7355480D01*
Y2419520D01*
X7294520D01*
X7199200Y2349200D02*
Y2450800D01*
X7300800D01*
Y2349200D01*
X7199200D01*
X7219520Y2369520D02*
Y2430480D01*
X7280480D01*
Y2369520D01*
X7219520D01*
X7159200Y2489200D02*
Y2590800D01*
X7260800D01*
Y2489200D01*
X7159200D01*
X7179520Y2509520D02*
Y2570480D01*
X7240480D01*
Y2509520D01*
X7179520D01*
X6699200Y1869200D02*
Y1970800D01*
X6800800D01*
Y1869200D01*
X6699200D01*
X6719520Y1889520D02*
Y1950480D01*
X6780480D01*
Y1889520D01*
X6719520D01*
X7549200Y2699200D02*
Y2800800D01*
X7650800D01*
Y2699200D01*
X7549200D01*
X7569520Y2719520D02*
Y2780480D01*
X7630480D01*
Y2719520D01*
X7569520D01*
X7044200Y2574200D02*
Y2675800D01*
X7145800D01*
Y2574200D01*
X7044200D01*
X7064520Y2594520D02*
Y2655480D01*
X7125480D01*
Y2594520D01*
X7064520D01*
X6924200Y3874200D02*
Y3975800D01*
X7025800D01*
Y3874200D01*
X6924200D01*
X6944520Y3894520D02*
Y3955480D01*
X7005480D01*
Y3894520D01*
X6944520D01*
X6824200Y3874494D02*
Y3976094D01*
X6925800D01*
Y3874494D01*
X6824200D01*
X6844520Y3894814D02*
Y3955774D01*
X6905480D01*
Y3894814D01*
X6844520D01*
X6374200Y4549200D02*
Y4650800D01*
X6475800D01*
Y4549200D01*
X6374200D01*
X6394520Y4569520D02*
Y4630480D01*
X6455480D01*
Y4569520D01*
X6394520D01*
X6449200Y4624200D02*
Y4725800D01*
X6550800D01*
Y4624200D01*
X6449200D01*
X6469520Y4644520D02*
Y4705480D01*
X6530480D01*
Y4644520D01*
X6469520D01*
X5664200Y3959200D02*
Y4060800D01*
X5765800D01*
Y3959200D01*
X5664200D01*
X5684520Y3979520D02*
Y4040480D01*
X5745480D01*
Y3979520D01*
X5684520D01*
X5679200Y4119200D02*
Y4220800D01*
X5780800D01*
Y4119200D01*
X5679200D01*
X5699520Y4139520D02*
Y4200480D01*
X5760480D01*
Y4139520D01*
X5699520D01*
X5674200Y4039200D02*
Y4140800D01*
X5775800D01*
Y4039200D01*
X5674200D01*
X5694520Y4059520D02*
Y4120480D01*
X5755480D01*
Y4059520D01*
X5694520D01*
X5449200Y3099200D02*
Y3200800D01*
X5550800D01*
Y3099200D01*
X5449200D01*
X5469520Y3119520D02*
Y3180480D01*
X5530480D01*
Y3119520D01*
X5469520D01*
X6499200Y3049200D02*
Y3150800D01*
X6600800D01*
Y3049200D01*
X6499200D01*
X6519520Y3069520D02*
Y3130480D01*
X6580480D01*
Y3069520D01*
X6519520D01*
X6424200Y3124200D02*
Y3225800D01*
X6525800D01*
Y3124200D01*
X6424200D01*
X6444520Y3144520D02*
Y3205480D01*
X6505480D01*
Y3144520D01*
X6444520D01*
X7924200Y3199200D02*
Y3300800D01*
X8025800D01*
Y3199200D01*
X7924200D01*
X7944520Y3219520D02*
Y3280480D01*
X8005480D01*
Y3219520D01*
X7944520D01*
X6289200Y3349200D02*
Y3450800D01*
X6390800D01*
Y3349200D01*
X6289200D01*
X6309520Y3369520D02*
Y3430480D01*
X6370480D01*
Y3369520D01*
X6309520D01*
X6074200Y2549200D02*
Y2650800D01*
X6175800D01*
Y2549200D01*
X6074200D01*
X6094520Y2569520D02*
Y2630480D01*
X6155480D01*
Y2569520D01*
X6094520D01*
X7149200Y2569200D02*
Y2670800D01*
X7250800D01*
Y2569200D01*
X7149200D01*
X7169520Y2589520D02*
Y2650480D01*
X7230480D01*
Y2589520D01*
X7169520D01*
X5449200Y2999200D02*
Y3100800D01*
X5550800D01*
Y2999200D01*
X5449200D01*
X5469520Y3019520D02*
Y3080480D01*
X5530480D01*
Y3019520D01*
X5469520D01*
X5204200Y3754200D02*
Y3855800D01*
X5305800D01*
Y3754200D01*
X5204200D01*
X5224520Y3774520D02*
Y3835480D01*
X5285480D01*
Y3774520D01*
X5224520D01*
X6234200Y2099200D02*
Y2200800D01*
X6335800D01*
Y2099200D01*
X6234200D01*
X6254520Y2119520D02*
Y2180480D01*
X6315480D01*
Y2119520D01*
X6254520D01*
X6024200Y2624200D02*
Y2725800D01*
X6125800D01*
Y2624200D01*
X6024200D01*
X6044520Y2644520D02*
Y2705480D01*
X6105480D01*
Y2644520D01*
X6044520D01*
X6924200Y4479200D02*
Y4580800D01*
X7025800D01*
Y4479200D01*
X6924200D01*
X6944520Y4499520D02*
Y4560480D01*
X7005480D01*
Y4499520D01*
X6944520D01*
X6974200Y4549200D02*
Y4650800D01*
X7075800D01*
Y4549200D01*
X6974200D01*
X6994520Y4569520D02*
Y4630480D01*
X7055480D01*
Y4569520D01*
X6994520D01*
X6399200Y3789200D02*
Y3890800D01*
X6500800D01*
Y3789200D01*
X6399200D01*
X6419520Y3809520D02*
Y3870480D01*
X6480480D01*
Y3809520D01*
X6419520D01*
X6869200Y4339200D02*
Y4440800D01*
X6970800D01*
Y4339200D01*
X6869200D01*
X6889520Y4359520D02*
Y4420480D01*
X6950480D01*
Y4359520D01*
X6889520D01*
X6809200Y4284200D02*
Y4385800D01*
X6910800D01*
Y4284200D01*
X6809200D01*
X6829520Y4304520D02*
Y4365480D01*
X6890480D01*
Y4304520D01*
X6829520D01*
X6924200Y4399200D02*
Y4500800D01*
X7025800D01*
Y4399200D01*
X6924200D01*
X6944520Y4419520D02*
Y4480480D01*
X7005480D01*
Y4419520D01*
X6944520D01*
X6749200Y4224200D02*
Y4325800D01*
X6850800D01*
Y4224200D01*
X6749200D01*
X6769520Y4244520D02*
Y4305480D01*
X6830480D01*
Y4244520D01*
X6769520D01*
X5034200Y1134703D02*
Y1236303D01*
X5135800D01*
Y1134703D01*
X5034200D01*
X5054520Y1155023D02*
Y1215983D01*
X5115480D01*
Y1155023D01*
X5054520D01*
X13549200Y5403700D02*
Y5505300D01*
X13650800D01*
Y5403700D01*
X13549200D01*
X13569521Y5424020D02*
Y5484980D01*
X13630479D01*
Y5424020D01*
X13569521D01*
X12769201Y5403700D02*
Y5505300D01*
X12870801D01*
Y5403700D01*
X12769201D01*
X12789521Y5424020D02*
Y5484980D01*
X12850481D01*
Y5424020D01*
X12789521D01*
X11149199Y5339200D02*
Y5440800D01*
X11250799D01*
Y5339200D01*
X11149199D01*
X11169519Y5359520D02*
Y5420480D01*
X11230479D01*
Y5359520D01*
X11169519D01*
X12229199Y5339200D02*
Y5440800D01*
X12330799D01*
Y5339200D01*
X12229199D01*
X12249519Y5359520D02*
Y5420480D01*
X12310479D01*
Y5359520D01*
X12249519D01*
X11689199Y5339200D02*
Y5440800D01*
X11790799D01*
Y5339200D01*
X11689199D01*
X11709519Y5359520D02*
Y5420480D01*
X11770479D01*
Y5359520D01*
X11709519D01*
X13549200Y4733700D02*
Y4835300D01*
X13650800D01*
Y4733700D01*
X13549200D01*
X13569521Y4754020D02*
Y4814980D01*
X13630479D01*
Y4754020D01*
X13569521D01*
X13549200Y4063701D02*
Y4165301D01*
X13650800D01*
Y4063701D01*
X13549200D01*
X13569521Y4084021D02*
Y4144981D01*
X13630479D01*
Y4084021D01*
X13569521D01*
X12769201Y4733700D02*
Y4835300D01*
X12870801D01*
Y4733700D01*
X12769201D01*
X12789521Y4754020D02*
Y4814980D01*
X12850481D01*
Y4754020D01*
X12789521D01*
X12769201Y4063701D02*
Y4165301D01*
X12870801D01*
Y4063701D01*
X12769201D01*
X12789521Y4084021D02*
Y4144981D01*
X12850481D01*
Y4084021D01*
X12789521D01*
X13549200Y3393701D02*
Y3495301D01*
X13650800D01*
Y3393701D01*
X13549200D01*
X13569521Y3414021D02*
Y3474981D01*
X13630479D01*
Y3414021D01*
X13569521D01*
X12769201Y3393701D02*
Y3495301D01*
X12870801D01*
Y3393701D01*
X12769201D01*
X12789521Y3414021D02*
Y3474981D01*
X12850481D01*
Y3414021D01*
X12789521D01*
X13549200Y2723701D02*
Y2825301D01*
X13650800D01*
Y2723701D01*
X13549200D01*
X13569521Y2744021D02*
Y2804981D01*
X13630479D01*
Y2744021D01*
X13569521D01*
X12769201Y2723701D02*
Y2825301D01*
X12870801D01*
Y2723701D01*
X12769201D01*
X12789521Y2744021D02*
Y2804981D01*
X12850481D01*
Y2744021D01*
X12789521D01*
X11049200Y3464200D02*
Y3565800D01*
X11150800D01*
Y3464200D01*
X11049200D01*
X11069520Y3484520D02*
Y3545480D01*
X11130480D01*
Y3484520D01*
X11069520D01*
X13450000Y1829200D02*
X13399200Y1930800D01*
X13500800D01*
X13450000Y1829200D01*
X11225000Y1794200D02*
X11174200Y1895800D01*
X11275800D01*
X11225000Y1794200D01*
Y1814520D02*
X11194520Y1875480D01*
X11255480D01*
X11225000Y1814520D01*
X10609199Y5339200D02*
Y5440800D01*
X10710799D01*
Y5339200D01*
X10609199D01*
X10629519Y5359520D02*
Y5420480D01*
X10690479D01*
Y5359520D01*
X10629519D01*
X10069199Y5339200D02*
Y5440800D01*
X10170799D01*
Y5339200D01*
X10069199D01*
X10089519Y5359520D02*
Y5420480D01*
X10150479D01*
Y5359520D01*
X10089519D01*
X9529199Y5339200D02*
Y5440800D01*
X9630799D01*
Y5339200D01*
X9529199D01*
X9549519Y5359520D02*
Y5420480D01*
X9610479D01*
Y5359520D01*
X9549519D01*
X10536700Y4566700D02*
Y4668300D01*
X10638300D01*
Y4566700D01*
X10536700D01*
X10557020Y4587020D02*
Y4647980D01*
X10617980D01*
Y4587020D01*
X10557020D01*
X8989199Y5339200D02*
Y5440800D01*
X9090799D01*
Y5339200D01*
X8989199D01*
X9009519Y5359520D02*
Y5420480D01*
X9070479D01*
Y5359520D01*
X9009519D01*
X8449199Y5339200D02*
Y5440800D01*
X8550799D01*
Y5339200D01*
X8449199D01*
X8469519Y5359520D02*
Y5420480D01*
X8530479D01*
Y5359520D01*
X8469519D01*
X8999200Y4849200D02*
Y4950800D01*
X9100800D01*
Y4849200D01*
X8999200D01*
X9019520Y4869520D02*
Y4930480D01*
X9080480D01*
Y4869520D01*
X9019520D01*
X9799200Y3679202D02*
Y3780802D01*
X9900800D01*
Y3679202D01*
X9799200D01*
X9819520Y3699522D02*
Y3760482D01*
X9880480D01*
Y3699522D01*
X9819520D01*
X10449200Y3479202D02*
Y3580802D01*
X10550800D01*
Y3479202D01*
X10449200D01*
X10469520Y3499522D02*
Y3560482D01*
X10530480D01*
Y3499522D01*
X10469520D01*
X7474200Y4299200D02*
Y4400800D01*
X7575800D01*
Y4299200D01*
X7474200D01*
X7494520Y4319520D02*
Y4380480D01*
X7555480D01*
Y4319520D01*
X7494520D01*
X6629200Y4139200D02*
Y4240800D01*
X6730800D01*
Y4139200D01*
X6629200D01*
X6649520Y4159520D02*
Y4220480D01*
X6710480D01*
Y4159520D01*
X6649520D01*
X7724200Y4049200D02*
Y4150800D01*
X7825800D01*
Y4049200D01*
X7724200D01*
X7744520Y4069520D02*
Y4130480D01*
X7805480D01*
Y4069520D01*
X7744520D01*
X6334200Y5581701D02*
Y5683301D01*
X6435800D01*
Y5581701D01*
X6334200D01*
X6354520Y5602021D02*
Y5662981D01*
X6415480D01*
Y5602021D01*
X6354520D01*
X4105916Y5049200D02*
Y5150800D01*
X4207516D01*
Y5049200D01*
X4105916D01*
X4126236Y5069520D02*
Y5130480D01*
X4187196D01*
Y5069520D01*
X4126236D01*
X3569200Y4574200D02*
Y4675800D01*
X3670800D01*
Y4574200D01*
X3569200D01*
X3589520Y4594520D02*
Y4655480D01*
X3650480D01*
Y4594520D01*
X3589520D01*
X5224200Y3424200D02*
Y3525800D01*
X5325800D01*
Y3424200D01*
X5224200D01*
X5244520Y3444520D02*
Y3505480D01*
X5305480D01*
Y3444520D01*
X5244520D01*
X4329198Y4459200D02*
Y4560800D01*
X4430798D01*
Y4459200D01*
X4329198D01*
X4349518Y4479520D02*
Y4540480D01*
X4410478D01*
Y4479520D01*
X4349518D01*
X2049200Y3499200D02*
Y3600800D01*
X2150800D01*
Y3499200D01*
X2049200D01*
X2069520Y3519520D02*
Y3580480D01*
X2130480D01*
Y3519520D01*
X2069520D01*
X9799200Y3174200D02*
Y3275800D01*
X9900800D01*
Y3174200D01*
X9799200D01*
X9819520Y3194520D02*
Y3255480D01*
X9880480D01*
Y3194520D01*
X9819520D01*
X8224200Y3349200D02*
Y3450800D01*
X8325800D01*
Y3349200D01*
X8224200D01*
X8244520Y3369520D02*
Y3430480D01*
X8305480D01*
Y3369520D01*
X8244520D01*
X7799200Y2924200D02*
Y3025800D01*
X7900800D01*
Y2924200D01*
X7799200D01*
X7819520Y2944520D02*
Y3005480D01*
X7880480D01*
Y2944520D01*
X7819520D01*
X8349200Y2124200D02*
Y2225800D01*
X8450800D01*
Y2124200D01*
X8349200D01*
X8369520Y2144520D02*
Y2205480D01*
X8430480D01*
Y2144520D01*
X8369520D01*
X10099200Y1649200D02*
Y1750800D01*
X10200800D01*
Y1649200D01*
X10099200D01*
X10119520Y1669520D02*
Y1730480D01*
X10180480D01*
Y1669520D01*
X10119520D01*
X10099200Y1449200D02*
Y1550800D01*
X10200800D01*
Y1449200D01*
X10099200D01*
X10119520Y1469520D02*
Y1530480D01*
X10180480D01*
Y1469520D01*
X10119520D01*
X9834200Y1249200D02*
Y1350800D01*
X9935800D01*
Y1249200D01*
X9834200D01*
X9854520Y1269520D02*
Y1330480D01*
X9915480D01*
Y1269520D01*
X9854520D01*
X9834200Y1349200D02*
Y1450800D01*
X9935800D01*
Y1349200D01*
X9834200D01*
X9854520Y1369520D02*
Y1430480D01*
X9915480D01*
Y1369520D01*
X9854520D01*
X9734200Y1349200D02*
Y1450800D01*
X9835800D01*
Y1349200D01*
X9734200D01*
X9754520Y1369520D02*
Y1430480D01*
X9815480D01*
Y1369520D01*
X9754520D01*
X9734200Y1249200D02*
Y1350800D01*
X9835800D01*
Y1249200D01*
X9734200D01*
X9754520Y1269520D02*
Y1330480D01*
X9815480D01*
Y1269520D01*
X9754520D01*
X7524200Y1382700D02*
Y1484300D01*
X7625800D01*
Y1382700D01*
X7524200D01*
X7544520Y1403020D02*
Y1463980D01*
X7605480D01*
Y1403020D01*
X7544520D01*
X6674200Y2824200D02*
Y2925800D01*
X6775800D01*
Y2824200D01*
X6674200D01*
X6694520Y2844520D02*
Y2905480D01*
X6755480D01*
Y2844520D01*
X6694520D01*
X7124200Y2229200D02*
Y2330800D01*
X7225800D01*
Y2229200D01*
X7124200D01*
X7144520Y2249520D02*
Y2310480D01*
X7205480D01*
Y2249520D01*
X7144520D01*
X2049200Y2769198D02*
Y2870798D01*
X2150800D01*
Y2769198D01*
X2049200D01*
X2069520Y2789518D02*
Y2850478D01*
X2130480D01*
Y2789518D01*
X2069520D01*
X5799200Y1874200D02*
Y1975800D01*
X5900800D01*
Y1874200D01*
X5799200D01*
X5819520Y1894520D02*
Y1955480D01*
X5880480D01*
Y1894520D01*
X5819520D01*
X2949200Y1849200D02*
Y1950800D01*
X3050800D01*
Y1849200D01*
X2949200D01*
X2969520Y1869520D02*
Y1930480D01*
X3030480D01*
Y1869520D01*
X2969520D01*
X8724200Y4149200D02*
Y4250800D01*
X8825800D01*
Y4149200D01*
X8724200D01*
X8744520Y4169520D02*
Y4230480D01*
X8805480D01*
Y4169520D01*
X8744520D01*
X8484200Y4849200D02*
Y4950800D01*
X8585800D01*
Y4849200D01*
X8484200D01*
X8504520Y4869520D02*
Y4930480D01*
X8565480D01*
Y4869520D01*
X8504520D01*
X7799200Y2324200D02*
Y2425800D01*
X7900800D01*
Y2324200D01*
X7799200D01*
X7819520Y2344520D02*
Y2405480D01*
X7880480D01*
Y2344520D01*
X7819520D01*
X7874200Y2299200D02*
Y2400800D01*
X7975800D01*
Y2299200D01*
X7874200D01*
X7894520Y2319520D02*
Y2380480D01*
X7955480D01*
Y2319520D01*
X7894520D01*
X7949200Y2324200D02*
Y2425800D01*
X8050800D01*
Y2324200D01*
X7949200D01*
X7969520Y2344520D02*
Y2405480D01*
X8030480D01*
Y2344520D01*
X7969520D01*
X6699200Y1359200D02*
Y1460800D01*
X6800800D01*
Y1359200D01*
X6699200D01*
X6719520Y1379520D02*
Y1440480D01*
X6780480D01*
Y1379520D01*
X6719520D01*
X11674200Y2854200D02*
Y2955800D01*
X11775800D01*
Y2854200D01*
X11674200D01*
X11694520Y2874520D02*
Y2935480D01*
X11755480D01*
Y2874520D01*
X11694520D01*
X6800000Y5789200D02*
X6749200Y5890800D01*
X6850800D01*
X6800000Y5789200D01*
Y5809520D02*
X6769520Y5870480D01*
X6830480D01*
X6800000Y5809520D01*
X6899200Y1474200D02*
Y1575800D01*
X7000800D01*
Y1474200D01*
X6899200D01*
X6919520Y1494520D02*
Y1555480D01*
X6980480D01*
Y1494520D01*
X6919520D01*
X6885000Y1174200D02*
X6834200Y1275800D01*
X6935800D01*
X6885000Y1174200D01*
Y1194520D02*
X6854520Y1255480D01*
X6915480D01*
X6885000Y1194520D01*
X7389200Y1439200D02*
Y1540800D01*
X7490800D01*
Y1439200D01*
X7389200D01*
X7409520Y1459520D02*
Y1520480D01*
X7470480D01*
Y1459520D01*
X7409520D01*
X7389200Y1189200D02*
Y1290800D01*
X7490800D01*
Y1189200D01*
X7389200D01*
X7409520Y1209520D02*
Y1270480D01*
X7470480D01*
Y1209520D01*
X7409520D01*
X7389200Y1314200D02*
Y1415800D01*
X7490800D01*
Y1314200D01*
X7389200D01*
X7409520Y1334520D02*
Y1395480D01*
X7470480D01*
Y1334520D01*
X7409520D01*
X6819200Y1474200D02*
Y1575800D01*
X6920800D01*
Y1474200D01*
X6819200D01*
X6839520Y1494520D02*
Y1555480D01*
X6900480D01*
Y1494520D01*
X6839520D01*
X6739200Y1474200D02*
Y1575800D01*
X6840800D01*
Y1474200D01*
X6739200D01*
X6759520Y1494520D02*
Y1555480D01*
X6820480D01*
Y1494520D01*
X6759520D01*
X11025000Y1159200D02*
X10974200Y1260800D01*
X11075800D01*
X11025000Y1159200D01*
Y1179520D02*
X10994520Y1240480D01*
X11055480D01*
X11025000Y1179520D01*
Y1259200D02*
X10974200Y1360800D01*
X11075800D01*
X11025000Y1259200D01*
Y1279520D02*
X10994520Y1340480D01*
X11055480D01*
X11025000Y1279520D01*
Y1364200D02*
X10974200Y1465800D01*
X11075800D01*
X11025000Y1364200D01*
Y1384520D02*
X10994520Y1445480D01*
X11055480D01*
X11025000Y1384520D01*
Y1464200D02*
X10974200Y1565800D01*
X11075800D01*
X11025000Y1464200D01*
Y1484520D02*
X10994520Y1545480D01*
X11055480D01*
X11025000Y1484520D01*
X6719200Y4139200D02*
Y4240800D01*
X6820800D01*
Y4139200D01*
X6719200D01*
X6739520Y4159520D02*
Y4220480D01*
X6800480D01*
Y4159520D01*
X6739520D01*
X4414200Y4694200D02*
Y4795800D01*
X4515800D01*
Y4694200D01*
X4414200D01*
X4434520Y4714520D02*
Y4775480D01*
X4495480D01*
Y4714520D01*
X4434520D01*
X4074200Y4974200D02*
Y5075800D01*
X4175800D01*
Y4974200D01*
X4074200D01*
X4094520Y4994520D02*
Y5055480D01*
X4155480D01*
Y4994520D01*
X4094520D01*
X4099200Y4900452D02*
Y5002052D01*
X4200800D01*
Y4900452D01*
X4099200D01*
X4119520Y4920772D02*
Y4981732D01*
X4180480D01*
Y4920772D01*
X4119520D01*
X4074200Y5230449D02*
Y5332049D01*
X4175800D01*
Y5230449D01*
X4074200D01*
X4094520Y5250769D02*
Y5311729D01*
X4155480D01*
Y5250769D01*
X4094520D01*
X4074200Y5120452D02*
Y5222052D01*
X4175800D01*
Y5120452D01*
X4074200D01*
X4094520Y5140772D02*
Y5201732D01*
X4155480D01*
Y5140772D01*
X4094520D01*
X4074200Y5340451D02*
Y5442051D01*
X4175800D01*
Y5340451D01*
X4074200D01*
X4094520Y5360771D02*
Y5421731D01*
X4155480D01*
Y5360771D01*
X4094520D01*
X4074200Y5450448D02*
Y5552048D01*
X4175800D01*
Y5450448D01*
X4074200D01*
X4094520Y5470768D02*
Y5531728D01*
X4155480D01*
Y5470768D01*
X4094520D01*
X4074200Y5560451D02*
Y5662051D01*
X4175800D01*
Y5560451D01*
X4074200D01*
X4094520Y5580771D02*
Y5641731D01*
X4155480D01*
Y5580771D01*
X4094520D01*
X7174200Y3089200D02*
Y3190800D01*
X7275800D01*
Y3089200D01*
X7174200D01*
X7194520Y3109520D02*
Y3170480D01*
X7255480D01*
Y3109520D01*
X7194520D01*
X7274200Y3089200D02*
Y3190800D01*
X7375800D01*
Y3089200D01*
X7274200D01*
X7294520Y3109520D02*
Y3170480D01*
X7355480D01*
Y3109520D01*
X7294520D01*
X6214130Y5256623D02*
Y5358223D01*
X6315730D01*
Y5256623D01*
X6214130D01*
X6234450Y5276943D02*
Y5337903D01*
X6295410D01*
Y5276943D01*
X6234450D01*
X6214200Y5386700D02*
Y5488300D01*
X6315800D01*
Y5386700D01*
X6214200D01*
X6234520Y5407020D02*
Y5467980D01*
X6295480D01*
Y5407020D01*
X6234520D01*
X6334200Y5451701D02*
Y5553301D01*
X6435800D01*
Y5451701D01*
X6334200D01*
X6354520Y5472021D02*
Y5532981D01*
X6415480D01*
Y5472021D01*
X6354520D01*
X6164200Y5321700D02*
Y5423300D01*
X6265800D01*
Y5321700D01*
X6164200D01*
X6184520Y5342020D02*
Y5402980D01*
X6245480D01*
Y5342020D01*
X6184520D01*
X8224200Y3434200D02*
Y3535800D01*
X8325800D01*
Y3434200D01*
X8224200D01*
X8244520Y3454520D02*
Y3515480D01*
X8305480D01*
Y3454520D01*
X8244520D01*
X6574200Y3399200D02*
Y3500800D01*
X6675800D01*
Y3399200D01*
X6574200D01*
X6594520Y3419520D02*
Y3480480D01*
X6655480D01*
Y3419520D01*
X6594520D01*
X6124200Y3574200D02*
Y3675800D01*
X6225800D01*
Y3574200D01*
X6124200D01*
X6144520Y3594520D02*
Y3655480D01*
X6205480D01*
Y3594520D01*
X6144520D01*
X6874200Y3414200D02*
Y3515800D01*
X6975800D01*
Y3414200D01*
X6874200D01*
X6894520Y3434520D02*
Y3495480D01*
X6955480D01*
Y3434520D01*
X6894520D01*
X7024200Y3399200D02*
Y3500800D01*
X7125800D01*
Y3399200D01*
X7024200D01*
X7044520Y3419520D02*
Y3480480D01*
X7105480D01*
Y3419520D01*
X7044520D01*
X7099200Y2304200D02*
Y2405800D01*
X7200800D01*
Y2304200D01*
X7099200D01*
X7119520Y2324520D02*
Y2385480D01*
X7180480D01*
Y2324520D01*
X7119520D01*
X6199200Y3349200D02*
Y3450800D01*
X6300800D01*
Y3349200D01*
X6199200D01*
X6219520Y3369520D02*
Y3430480D01*
X6280480D01*
Y3369520D01*
X6219520D01*
X7474200Y4174200D02*
Y4275800D01*
X7575800D01*
Y4174200D01*
X7474200D01*
X7494520Y4194520D02*
Y4255480D01*
X7555480D01*
Y4194520D01*
X7494520D01*
X7849200Y3949200D02*
Y4050800D01*
X7950800D01*
Y3949200D01*
X7849200D01*
X7869520Y3969520D02*
Y4030480D01*
X7930480D01*
Y3969520D01*
X7869520D01*
X6599200Y2874200D02*
Y2975800D01*
X6700800D01*
Y2874200D01*
X6599200D01*
X6619520Y2894520D02*
Y2955480D01*
X6680480D01*
Y2894520D01*
X6619520D01*
X9899200Y2294200D02*
Y2395800D01*
X10000800D01*
Y2294200D01*
X9899200D01*
X9919520Y2314520D02*
Y2375480D01*
X9980480D01*
Y2314520D01*
X9919520D01*
X5319200Y3234200D02*
Y3335800D01*
X5420800D01*
Y3234200D01*
X5319200D01*
X5339520Y3254520D02*
Y3315480D01*
X5400480D01*
Y3254520D01*
X5339520D01*
X8524200Y2649200D02*
Y2750800D01*
X8625800D01*
Y2649200D01*
X8524200D01*
X8544520Y2669520D02*
Y2730480D01*
X8605480D01*
Y2669520D01*
X8544520D01*
X10179200Y2874200D02*
Y2975800D01*
X10280800D01*
Y2874200D01*
X10179200D01*
X10199520Y2894520D02*
Y2955480D01*
X10260480D01*
Y2894520D01*
X10199520D01*
X10259200Y2874200D02*
Y2975800D01*
X10360800D01*
Y2874200D01*
X10259200D01*
X10279520Y2894520D02*
Y2955480D01*
X10340480D01*
Y2894520D01*
X10279520D01*
X7674200Y5049200D02*
Y5150800D01*
X7775800D01*
Y5049200D01*
X7674200D01*
X7694520Y5069520D02*
Y5130480D01*
X7755480D01*
Y5069520D01*
X7694520D01*
X7574200Y5049200D02*
Y5150800D01*
X7675800D01*
Y5049200D01*
X7574200D01*
X7594520Y5069520D02*
Y5130480D01*
X7655480D01*
Y5069520D01*
X7594520D01*
X7474200Y5049200D02*
Y5150800D01*
X7575800D01*
Y5049200D01*
X7474200D01*
X7494520Y5069520D02*
Y5130480D01*
X7555480D01*
Y5069520D01*
X7494520D01*
X7374200Y5049200D02*
Y5150800D01*
X7475800D01*
Y5049200D01*
X7374200D01*
X7394520Y5069520D02*
Y5130480D01*
X7455480D01*
Y5069520D01*
X7394520D01*
X7374200Y5134200D02*
Y5235800D01*
X7475800D01*
Y5134200D01*
X7374200D01*
X7394520Y5154520D02*
Y5215480D01*
X7455480D01*
Y5154520D01*
X7394520D01*
X7274200Y2674200D02*
Y2775800D01*
X7375800D01*
Y2674200D01*
X7274200D01*
X7294520Y2694520D02*
Y2755480D01*
X7355480D01*
Y2694520D01*
X7294520D01*
X7174200Y2674200D02*
Y2775800D01*
X7275800D01*
Y2674200D01*
X7174200D01*
X7194520Y2694520D02*
Y2755480D01*
X7255480D01*
Y2694520D01*
X7194520D01*
X9349200Y4214200D02*
Y4315800D01*
X9450800D01*
Y4214200D01*
X9349200D01*
X9369520Y4234520D02*
Y4295480D01*
X9430480D01*
Y4234520D01*
X9369520D01*
X8399200Y4154200D02*
Y4255800D01*
X8500800D01*
Y4154200D01*
X8399200D01*
X8419520Y4174520D02*
Y4235480D01*
X8480480D01*
Y4174520D01*
X8419520D01*
X9984200Y4574200D02*
Y4675800D01*
X10085800D01*
Y4574200D01*
X9984200D01*
X10004520Y4594520D02*
Y4655480D01*
X10065480D01*
Y4594520D01*
X10004520D01*
X7699200Y4799200D02*
Y4900800D01*
X7800800D01*
Y4799200D01*
X7699200D01*
X7719520Y4819520D02*
Y4880480D01*
X7780480D01*
Y4819520D01*
X7719520D01*
X7799200Y4799200D02*
Y4900800D01*
X7900800D01*
Y4799200D01*
X7799200D01*
X7819520Y4819520D02*
Y4880480D01*
X7880480D01*
Y4819520D01*
X7819520D01*
X10154200Y4574200D02*
Y4675800D01*
X10255800D01*
Y4574200D01*
X10154200D01*
X10174520Y4594520D02*
Y4655480D01*
X10235480D01*
Y4594520D01*
X10174520D01*
X10069200Y4574200D02*
Y4675800D01*
X10170800D01*
Y4574200D01*
X10069200D01*
X10089520Y4594520D02*
Y4655480D01*
X10150480D01*
Y4594520D01*
X10089520D01*
X10536700Y4379201D02*
Y4480801D01*
X10638300D01*
Y4379201D01*
X10536700D01*
X10557020Y4399521D02*
Y4460481D01*
X10617980D01*
Y4399521D01*
X10557020D01*
X11299200Y3699200D02*
Y3800800D01*
X11400800D01*
Y3699200D01*
X11299200D01*
X11319520Y3719520D02*
Y3780480D01*
X11380480D01*
Y3719520D01*
X11319520D01*
X11174200Y3699200D02*
Y3800800D01*
X11275800D01*
Y3699200D01*
X11174200D01*
X11194520Y3719520D02*
Y3780480D01*
X11255480D01*
Y3719520D01*
X11194520D01*
X9899200Y4574200D02*
Y4675800D01*
X10000800D01*
Y4574200D01*
X9899200D01*
X9919520Y4594520D02*
Y4655480D01*
X9980480D01*
Y4594520D01*
X9919520D01*
X10674200Y4099200D02*
Y4200800D01*
X10775800D01*
Y4099200D01*
X10674200D01*
X10694520Y4119520D02*
Y4180480D01*
X10755480D01*
Y4119520D01*
X10694520D01*
X10624200Y3724200D02*
Y3825800D01*
X10725800D01*
Y3724200D01*
X10624200D01*
X10644520Y3744520D02*
Y3805480D01*
X10705480D01*
Y3744520D01*
X10644520D01*
X10499200Y3549200D02*
Y3650800D01*
X10600800D01*
Y3549200D01*
X10499200D01*
X10519520Y3569520D02*
Y3630480D01*
X10580480D01*
Y3569520D01*
X10519520D01*
X10449200Y3629199D02*
Y3730799D01*
X10550800D01*
Y3629199D01*
X10449200D01*
X10469520Y3649519D02*
Y3710479D01*
X10530480D01*
Y3649519D01*
X10469520D01*
X9799200Y3324200D02*
Y3425800D01*
X9900800D01*
Y3324200D01*
X9799200D01*
X9819520Y3344520D02*
Y3405480D01*
X9880480D01*
Y3344520D01*
X9819520D01*
X9799200Y3569200D02*
Y3670800D01*
X9900800D01*
Y3569200D01*
X9799200D01*
X9819520Y3589520D02*
Y3650480D01*
X9880480D01*
Y3589520D01*
X9819520D01*
X10874200Y4099200D02*
Y4200800D01*
X10975800D01*
Y4099200D01*
X10874200D01*
X10894520Y4119520D02*
Y4180480D01*
X10955480D01*
Y4119520D01*
X10894520D01*
X10774200Y4099200D02*
Y4200800D01*
X10875800D01*
Y4099200D01*
X10774200D01*
X10794520Y4119520D02*
Y4180480D01*
X10855480D01*
Y4119520D01*
X10794520D01*
X11074200Y3649200D02*
Y3750800D01*
X11175800D01*
Y3649200D01*
X11074200D01*
X11094520Y3669520D02*
Y3730480D01*
X11155480D01*
Y3669520D01*
X11094520D01*
X11049200Y3374200D02*
Y3475800D01*
X11150800D01*
Y3374200D01*
X11049200D01*
X11069520Y3394520D02*
Y3455480D01*
X11130480D01*
Y3394520D01*
X11069520D01*
X10674200Y3349200D02*
Y3450800D01*
X10775800D01*
Y3349200D01*
X10674200D01*
X10694520Y3369520D02*
Y3430480D01*
X10755480D01*
Y3369520D01*
X10694520D01*
X7974200Y2024200D02*
Y2125800D01*
X8075800D01*
Y2024200D01*
X7974200D01*
X7994520Y2044520D02*
Y2105480D01*
X8055480D01*
Y2044520D01*
X7994520D01*
X8074200Y2024200D02*
Y2125800D01*
X8175800D01*
Y2024200D01*
X8074200D01*
X8094520Y2044520D02*
Y2105480D01*
X8155480D01*
Y2044520D01*
X8094520D01*
X8174200Y2024200D02*
Y2125800D01*
X8275800D01*
Y2024200D01*
X8174200D01*
X8194520Y2044520D02*
Y2105480D01*
X8255480D01*
Y2044520D01*
X8194520D01*
X11684200Y4384200D02*
Y4485800D01*
X11785800D01*
Y4384200D01*
X11684200D01*
X11704520Y4404520D02*
Y4465480D01*
X11765480D01*
Y4404520D01*
X11704520D01*
X10350000Y1999200D02*
X10299200Y2100800D01*
X10400800D01*
X10350000Y1999200D01*
Y2019520D02*
X10319520Y2080480D01*
X10380480D01*
X10350000Y2019520D01*
X10585002Y1999200D02*
X10534202Y2100800D01*
X10635802D01*
X10585002Y1999200D01*
Y2019520D02*
X10554522Y2080480D01*
X10615482D01*
X10585002Y2019520D01*
X10925000Y2219199D02*
X10874200Y2320799D01*
X10975800D01*
X10925000Y2219199D01*
Y2239519D02*
X10894520Y2300479D01*
X10955480D01*
X10925000Y2239519D01*
X11299200Y3549200D02*
Y3650800D01*
X11400800D01*
Y3549200D01*
X11299200D01*
X11319520Y3569520D02*
Y3630480D01*
X11380480D01*
Y3569520D01*
X11319520D01*
X11299200Y3449200D02*
Y3550800D01*
X11400800D01*
Y3449200D01*
X11299200D01*
X11319520Y3469520D02*
Y3530480D01*
X11380480D01*
Y3469520D01*
X11319520D01*
X11899200Y3384200D02*
Y3485800D01*
X12000800D01*
Y3384200D01*
X11899200D01*
X11919520Y3404520D02*
Y3465480D01*
X11980480D01*
Y3404520D01*
X11919520D01*
X8009200Y3609200D02*
Y3710800D01*
X8110800D01*
Y3609200D01*
X8009200D01*
X8029520Y3629520D02*
Y3690480D01*
X8090480D01*
Y3629520D01*
X8029520D01*
X8322197Y5339200D02*
Y5440800D01*
X8423797D01*
Y5339200D01*
X8322197D01*
X8342517Y5359520D02*
Y5420480D01*
X8403477D01*
Y5359520D01*
X8342517D01*
X8195197Y5539200D02*
Y5640800D01*
X8296797D01*
Y5539200D01*
X8195197D01*
X8215517Y5559520D02*
Y5620480D01*
X8276477D01*
Y5559520D01*
X8215517D01*
X8322197Y5539200D02*
Y5640800D01*
X8423797D01*
Y5539200D01*
X8322197D01*
X8342517Y5559520D02*
Y5620480D01*
X8403477D01*
Y5559520D01*
X8342517D01*
X7944200Y3674200D02*
Y3775800D01*
X8045800D01*
Y3674200D01*
X7944200D01*
X7964520Y3694520D02*
Y3755480D01*
X8025480D01*
Y3694520D01*
X7964520D01*
X7879200Y3739200D02*
Y3840800D01*
X7980800D01*
Y3739200D01*
X7879200D01*
X7899520Y3759520D02*
Y3820480D01*
X7960480D01*
Y3759520D01*
X7899520D01*
X8195197Y5339200D02*
Y5440800D01*
X8296797D01*
Y5339200D01*
X8195197D01*
X8215517Y5359520D02*
Y5420480D01*
X8276477D01*
Y5359520D01*
X8215517D01*
X8849200Y1279200D02*
Y1380800D01*
X8950800D01*
Y1279200D01*
X8849200D01*
X8869520Y1299520D02*
Y1360480D01*
X8930480D01*
Y1299520D01*
X8869520D01*
X8849200Y1199200D02*
Y1300800D01*
X8950800D01*
Y1199200D01*
X8849200D01*
X8869520Y1219520D02*
Y1280480D01*
X8930480D01*
Y1219520D01*
X8869520D01*
X8774200Y1699200D02*
Y1800800D01*
X8875800D01*
Y1699200D01*
X8774200D01*
X8794520Y1719520D02*
Y1780480D01*
X8855480D01*
Y1719520D01*
X8794520D01*
X8774200Y1599200D02*
Y1700800D01*
X8875800D01*
Y1599200D01*
X8774200D01*
X8794520Y1619520D02*
Y1680480D01*
X8855480D01*
Y1619520D01*
X8794520D01*
X9444200Y1459200D02*
Y1560800D01*
X9545800D01*
Y1459200D01*
X9444200D01*
X9464520Y1479520D02*
Y1540480D01*
X9525480D01*
Y1479520D01*
X9464520D01*
X8349200Y2374200D02*
Y2475800D01*
X8450800D01*
Y2374200D01*
X8349200D01*
X8369520Y2394520D02*
Y2455480D01*
X8430480D01*
Y2394520D01*
X8369520D01*
X9499200Y1399200D02*
Y1500800D01*
X9600800D01*
Y1399200D01*
X9499200D01*
X9519520Y1419520D02*
Y1480480D01*
X9580480D01*
Y1419520D01*
X9519520D01*
X9444200Y1339200D02*
Y1440800D01*
X9545800D01*
Y1339200D01*
X9444200D01*
X9464520Y1359520D02*
Y1420480D01*
X9525480D01*
Y1359520D01*
X9464520D01*
X9499200Y1279200D02*
Y1380800D01*
X9600800D01*
Y1279200D01*
X9499200D01*
X9519520Y1299520D02*
Y1360480D01*
X9580480D01*
Y1299520D01*
X9519520D01*
X9449200Y1159200D02*
Y1260800D01*
X9550800D01*
Y1159200D01*
X9449200D01*
X9469520Y1179520D02*
Y1240480D01*
X9530480D01*
Y1179520D01*
X9469520D01*
X10099200Y1149200D02*
Y1250800D01*
X10200800D01*
Y1149200D01*
X10099200D01*
X10119520Y1169520D02*
Y1230480D01*
X10180480D01*
Y1169520D01*
X10119520D01*
X10099200Y1249200D02*
Y1350800D01*
X10200800D01*
Y1249200D01*
X10099200D01*
X10119520Y1269520D02*
Y1330480D01*
X10180480D01*
Y1269520D01*
X10119520D01*
X10099200Y1349200D02*
Y1450800D01*
X10200800D01*
Y1349200D01*
X10099200D01*
X10119520Y1369520D02*
Y1430480D01*
X10180480D01*
Y1369520D01*
X10119520D01*
X8474200Y1254200D02*
Y1355800D01*
X8575800D01*
Y1254200D01*
X8474200D01*
X8494520Y1274520D02*
Y1335480D01*
X8555480D01*
Y1274520D01*
X8494520D01*
X8474200Y1384200D02*
Y1485800D01*
X8575800D01*
Y1384200D01*
X8474200D01*
X8494520Y1404520D02*
Y1465480D01*
X8555480D01*
Y1404520D01*
X8494520D01*
X8474200Y1509700D02*
Y1611300D01*
X8575800D01*
Y1509700D01*
X8474200D01*
X8494520Y1530020D02*
Y1590980D01*
X8555480D01*
Y1530020D01*
X8494520D01*
X7524200Y1255700D02*
Y1357300D01*
X7625800D01*
Y1255700D01*
X7524200D01*
X7544520Y1276020D02*
Y1336980D01*
X7605480D01*
Y1276020D01*
X7544520D01*
X6489200Y1949200D02*
Y2050800D01*
X6590800D01*
Y1949200D01*
X6489200D01*
X6509520Y1969520D02*
Y2030480D01*
X6570480D01*
Y1969520D01*
X6509520D01*
X6324200Y1924200D02*
Y2025800D01*
X6425800D01*
Y1924200D01*
X6324200D01*
X6344520Y1944520D02*
Y2005480D01*
X6405480D01*
Y1944520D01*
X6344520D01*
X7524200Y1128700D02*
Y1230300D01*
X7625800D01*
Y1128700D01*
X7524200D01*
X7544520Y1149020D02*
Y1209980D01*
X7605480D01*
Y1149020D01*
X7544520D01*
X7524200Y1509700D02*
Y1611300D01*
X7625800D01*
Y1509700D01*
X7524200D01*
X7544520Y1530020D02*
Y1590980D01*
X7605480D01*
Y1530020D01*
X7544520D01*
X6574200Y1949200D02*
Y2050800D01*
X6675800D01*
Y1949200D01*
X6574200D01*
X6594520Y1969520D02*
Y2030480D01*
X6655480D01*
Y1969520D01*
X6594520D01*
X9350000Y2069200D02*
X9299200Y2170800D01*
X9400800D01*
X9350000Y2069200D01*
Y2089520D02*
X9319520Y2150480D01*
X9380480D01*
X9350000Y2089520D01*
Y2194200D02*
X9299200Y2295800D01*
X9400800D01*
X9350000Y2194200D01*
Y2214520D02*
X9319520Y2275480D01*
X9380480D01*
X9350000Y2214520D01*
Y2324200D02*
X9299200Y2425800D01*
X9400800D01*
X9350000Y2324200D01*
Y2344520D02*
X9319520Y2405480D01*
X9380480D01*
X9350000Y2344520D01*
Y2449200D02*
X9299200Y2550800D01*
X9400800D01*
X9350000Y2449200D01*
Y2469520D02*
X9319520Y2530480D01*
X9380480D01*
X9350000Y2469520D01*
X14975000Y1399200D02*
X14924200Y1500800D01*
X15025800D01*
X14975000Y1399200D01*
Y1419520D02*
X14944521Y1480480D01*
X15005479D01*
X14975000Y1419520D01*
X14855000Y1399200D02*
X14804201Y1500800D01*
X14905800D01*
X14855000Y1399200D01*
Y1419520D02*
X14824519Y1480480D01*
X14885480D01*
X14855000Y1419520D01*
X15229201Y1454200D02*
Y1555800D01*
X15330800D01*
Y1454200D01*
X15229201D01*
X15249519Y1474520D02*
Y1535480D01*
X15310480D01*
Y1474520D01*
X15249519D01*
X16500000Y2149200D02*
X16449200Y2250800D01*
X16550800D01*
X16500000Y2149200D01*
Y2169520D02*
X16469521Y2230480D01*
X16530479D01*
X16500000Y2169520D01*
X12449200Y2579200D02*
Y2680800D01*
X12550800D01*
Y2579200D01*
X12449200D01*
X12469520Y2599520D02*
Y2660480D01*
X12530480D01*
Y2599520D01*
X12469520D01*
X8424200Y2649200D02*
Y2750800D01*
X8525800D01*
Y2649200D01*
X8424200D01*
X8444520Y2669520D02*
Y2730480D01*
X8505480D01*
Y2669520D01*
X8444520D01*
X12249200Y3349200D02*
Y3450800D01*
X12350800D01*
Y3349200D01*
X12249200D01*
X12269520Y3369520D02*
Y3430480D01*
X12330480D01*
Y3369520D01*
X12269520D01*
X8324200Y2649200D02*
Y2750800D01*
X8425800D01*
Y2649200D01*
X8324200D01*
X8344520Y2669520D02*
Y2730480D01*
X8405480D01*
Y2669520D01*
X8344520D01*
X8224200Y2649200D02*
Y2750800D01*
X8325800D01*
Y2649200D01*
X8224200D01*
X8244520Y2669520D02*
Y2730480D01*
X8305480D01*
Y2669520D01*
X8244520D01*
X7874200Y2999200D02*
Y3100800D01*
X7975800D01*
Y2999200D01*
X7874200D01*
X7894520Y3019520D02*
Y3080480D01*
X7955480D01*
Y3019520D01*
X7894520D01*
X12249200Y2949200D02*
Y3050800D01*
X12350800D01*
Y2949200D01*
X12249200D01*
X12269520Y2969520D02*
Y3030480D01*
X12330480D01*
Y2969520D01*
X12269520D01*
X12249200Y3149200D02*
Y3250800D01*
X12350800D01*
Y3149200D01*
X12249200D01*
X12269520Y3169520D02*
Y3230480D01*
X12330480D01*
Y3169520D01*
X12269520D01*
X12249200Y3249200D02*
Y3350800D01*
X12350800D01*
Y3249200D01*
X12249200D01*
X12269520Y3269520D02*
Y3330480D01*
X12330480D01*
Y3269520D01*
X12269520D01*
X12249200Y3574200D02*
Y3675800D01*
X12350800D01*
Y3574200D01*
X12249200D01*
X12269520Y3594520D02*
Y3655480D01*
X12330480D01*
Y3594520D01*
X12269520D01*
X12424200Y3714200D02*
Y3815800D01*
X12525800D01*
Y3714200D01*
X12424200D01*
X12444520Y3734520D02*
Y3795480D01*
X12505480D01*
Y3734520D01*
X12444520D01*
X12174200Y3649200D02*
Y3750800D01*
X12275800D01*
Y3649200D01*
X12174200D01*
X12194520Y3669520D02*
Y3730480D01*
X12255480D01*
Y3669520D01*
X12194520D01*
X8894200Y3369200D02*
Y3470800D01*
X8995800D01*
Y3369200D01*
X8894200D01*
X8914520Y3389520D02*
Y3450480D01*
X8975480D01*
Y3389520D01*
X8914520D01*
X8849200Y3449200D02*
Y3550800D01*
X8950800D01*
Y3449200D01*
X8849200D01*
X8869520Y3469520D02*
Y3530480D01*
X8930480D01*
Y3469520D01*
X8869520D01*
X8924200Y3509200D02*
Y3610800D01*
X9025800D01*
Y3509200D01*
X8924200D01*
X8944520Y3529520D02*
Y3590480D01*
X9005480D01*
Y3529520D01*
X8944520D01*
X8859200Y3579200D02*
Y3680800D01*
X8960800D01*
Y3579200D01*
X8859200D01*
X8879520Y3599520D02*
Y3660480D01*
X8940480D01*
Y3599520D01*
X8879520D01*
X8924200Y3649200D02*
Y3750800D01*
X9025800D01*
Y3649200D01*
X8924200D01*
X8944520Y3669520D02*
Y3730480D01*
X9005480D01*
Y3669520D01*
X8944520D01*
X12199200Y3974200D02*
Y4075800D01*
X12300800D01*
Y3974200D01*
X12199200D01*
X12219520Y3994520D02*
Y4055480D01*
X12280480D01*
Y3994520D01*
X12219520D01*
X12224200Y4874200D02*
Y4975800D01*
X12325800D01*
Y4874200D01*
X12224200D01*
X12244520Y4894520D02*
Y4955480D01*
X12305480D01*
Y4894520D01*
X12244520D01*
X12124200Y4649200D02*
Y4750800D01*
X12225800D01*
Y4649200D01*
X12124200D01*
X12144520Y4669520D02*
Y4730480D01*
X12205480D01*
Y4669520D01*
X12144520D01*
X12149200Y4949200D02*
Y5050800D01*
X12250800D01*
Y4949200D01*
X12149200D01*
X12169520Y4969520D02*
Y5030480D01*
X12230480D01*
Y4969520D01*
X12169520D01*
X12049200Y4724200D02*
Y4825800D01*
X12150800D01*
Y4724200D01*
X12049200D01*
X12069520Y4744520D02*
Y4805480D01*
X12130480D01*
Y4744520D01*
X12069520D01*
X8949200Y4174200D02*
Y4275800D01*
X9050800D01*
Y4174200D01*
X8949200D01*
X8969520Y4194520D02*
Y4255480D01*
X9030480D01*
Y4194520D01*
X8969520D01*
X9524200Y4574200D02*
Y4675800D01*
X9625800D01*
Y4574200D01*
X9524200D01*
X9544520Y4594520D02*
Y4655480D01*
X9605480D01*
Y4594520D01*
X9544520D01*
X12424200Y4684200D02*
Y4785800D01*
X12525800D01*
Y4684200D01*
X12424200D01*
X12444520Y4704520D02*
Y4765480D01*
X12505480D01*
Y4704520D01*
X12444520D01*
X13549200Y4309200D02*
Y4410800D01*
X13650800D01*
Y4309200D01*
X13549200D01*
X13569521Y4329520D02*
Y4390480D01*
X13630479D01*
Y4329520D01*
X13569521D01*
X13549200Y4444701D02*
Y4546301D01*
X13650800D01*
Y4444701D01*
X13549200D01*
X13569521Y4465021D02*
Y4525981D01*
X13630479D01*
Y4465021D01*
X13569521D01*
X9349200Y4574200D02*
Y4675800D01*
X9450800D01*
Y4574200D01*
X9349200D01*
X9369520Y4594520D02*
Y4655480D01*
X9430480D01*
Y4594520D01*
X9369520D01*
X9199200Y4849200D02*
Y4950800D01*
X9300800D01*
Y4849200D01*
X9199200D01*
X9219520Y4869520D02*
Y4930480D01*
X9280480D01*
Y4869520D01*
X9219520D01*
X12769201Y5114700D02*
Y5216300D01*
X12870801D01*
Y5114700D01*
X12769201D01*
X12789521Y5135020D02*
Y5195980D01*
X12850481D01*
Y5135020D01*
X12789521D01*
X12919202Y5114700D02*
Y5216300D01*
X13020801D01*
Y5114700D01*
X12919202D01*
X12939520Y5135020D02*
Y5195980D01*
X13000481D01*
Y5135020D01*
X12939520D01*
X13624200Y5324200D02*
Y5425800D01*
X13725800D01*
Y5324200D01*
X13624200D01*
X13644521Y5344520D02*
Y5405480D01*
X13705479D01*
Y5344520D01*
X13644521D01*
X8324200Y4814200D02*
Y4915800D01*
X8425800D01*
Y4814200D01*
X8324200D01*
X8344520Y4834520D02*
Y4895480D01*
X8405480D01*
Y4834520D01*
X8344520D01*
X8244200Y4874200D02*
Y4975800D01*
X8345800D01*
Y4874200D01*
X8244200D01*
X8264520Y4894520D02*
Y4955480D01*
X8325480D01*
Y4894520D01*
X8264520D01*
X12769201Y5784700D02*
Y5886300D01*
X12870801D01*
Y5784700D01*
X12769201D01*
X12789521Y5805020D02*
Y5865980D01*
X12850481D01*
Y5805020D01*
X12789521D01*
X11975197Y5339200D02*
Y5440800D01*
X12076797D01*
Y5339200D01*
X11975197D01*
X11995517Y5359520D02*
Y5420480D01*
X12056477D01*
Y5359520D01*
X11995517D01*
X12054200Y4334200D02*
Y4435800D01*
X12155800D01*
Y4334200D01*
X12054200D01*
X12074520Y4354520D02*
Y4415480D01*
X12135480D01*
Y4354520D01*
X12074520D01*
X12102197Y5339200D02*
Y5440800D01*
X12203797D01*
Y5339200D01*
X12102197D01*
X12122517Y5359520D02*
Y5420480D01*
X12183477D01*
Y5359520D01*
X12122517D01*
X9686699Y5339200D02*
Y5440800D01*
X9788299D01*
Y5339200D01*
X9686699D01*
X9707019Y5359520D02*
Y5420480D01*
X9767979D01*
Y5359520D01*
X9707019D01*
X11022197Y5539200D02*
Y5640800D01*
X11123797D01*
Y5539200D01*
X11022197D01*
X11042517Y5559520D02*
Y5620480D01*
X11103477D01*
Y5559520D01*
X11042517D01*
X11306699Y5339200D02*
Y5440800D01*
X11408299D01*
Y5339200D01*
X11306699D01*
X11327019Y5359520D02*
Y5420480D01*
X11387979D01*
Y5359520D01*
X11327019D01*
X11022197Y5339200D02*
Y5440800D01*
X11123797D01*
Y5339200D01*
X11022197D01*
X11042517Y5359520D02*
Y5420480D01*
X11103477D01*
Y5359520D01*
X11042517D01*
X12102197Y5539200D02*
Y5640800D01*
X12203797D01*
Y5539200D01*
X12102197D01*
X12122517Y5559520D02*
Y5620480D01*
X12183477D01*
Y5559520D01*
X12122517D01*
X9099200Y4849200D02*
Y4950800D01*
X9200800D01*
Y4849200D01*
X9099200D01*
X9119520Y4869520D02*
Y4930480D01*
X9180480D01*
Y4869520D01*
X9119520D01*
X14084200Y3804201D02*
Y3905801D01*
X14185800D01*
Y3804201D01*
X14084200D01*
X14104520Y3824521D02*
Y3885481D01*
X14165480D01*
Y3824521D01*
X14104520D01*
X14409200Y3714200D02*
Y3815800D01*
X14510800D01*
Y3714200D01*
X14409200D01*
X14429520Y3734520D02*
Y3795480D01*
X14490480D01*
Y3734520D01*
X14429520D01*
X14409200Y3594195D02*
Y3695795D01*
X14510800D01*
Y3594195D01*
X14409200D01*
X14429520Y3614515D02*
Y3675475D01*
X14490480D01*
Y3614515D01*
X14429520D01*
X14409200Y1794195D02*
Y1895795D01*
X14510800D01*
Y1794195D01*
X14409200D01*
X14429520Y1814515D02*
Y1875475D01*
X14490480D01*
Y1814515D01*
X14429520D01*
X14409200Y1914200D02*
Y2015800D01*
X14510800D01*
Y1914200D01*
X14409200D01*
X14429520Y1934520D02*
Y1995480D01*
X14490480D01*
Y1934520D01*
X14429520D01*
X12424200Y3299200D02*
Y3400800D01*
X12525800D01*
Y3299200D01*
X12424200D01*
X12444520Y3319520D02*
Y3380480D01*
X12505480D01*
Y3319520D01*
X12444520D01*
X14204201Y2249201D02*
Y2350801D01*
X14305800D01*
Y2249201D01*
X14204201D01*
X14224519Y2269521D02*
Y2330481D01*
X14285480D01*
Y2269521D01*
X14224519D01*
X14409200Y2244195D02*
Y2345795D01*
X14510800D01*
Y2244195D01*
X14409200D01*
X14429520Y2264515D02*
Y2325475D01*
X14490480D01*
Y2264515D01*
X14429520D01*
X14409200Y2364200D02*
Y2465800D01*
X14510800D01*
Y2364200D01*
X14409200D01*
X14429520Y2384520D02*
Y2445480D01*
X14490480D01*
Y2384520D01*
X14429520D01*
X14409200Y2814200D02*
Y2915800D01*
X14510800D01*
Y2814200D01*
X14409200D01*
X14429520Y2834520D02*
Y2895480D01*
X14490480D01*
Y2834520D01*
X14429520D01*
X14409200Y2694195D02*
Y2795795D01*
X14510800D01*
Y2694195D01*
X14409200D01*
X14429520Y2714515D02*
Y2775475D01*
X14490480D01*
Y2714515D01*
X14429520D01*
X14074200Y3354201D02*
Y3455801D01*
X14175800D01*
Y3354201D01*
X14074200D01*
X14094521Y3374521D02*
Y3435481D01*
X14155479D01*
Y3374521D01*
X14094521D01*
X13624200Y4654200D02*
Y4755800D01*
X13725800D01*
Y4654200D01*
X13624200D01*
X13644521Y4674520D02*
Y4735480D01*
X13705479D01*
Y4674520D01*
X13644521D01*
X12844202Y4654200D02*
Y4755800D01*
X12945801D01*
Y4654200D01*
X12844202D01*
X12864520Y4674520D02*
Y4735480D01*
X12925481D01*
Y4674520D01*
X12864520D01*
X12769201Y4444701D02*
Y4546301D01*
X12870801D01*
Y4444701D01*
X12769201D01*
X12789521Y4465021D02*
Y4525981D01*
X12850481D01*
Y4465021D01*
X12789521D01*
X14409200Y4614200D02*
Y4715800D01*
X14510800D01*
Y4614200D01*
X14409200D01*
X14429520Y4634520D02*
Y4695480D01*
X14490480D01*
Y4634520D01*
X14429520D01*
X14409200Y4494194D02*
Y4595794D01*
X14510800D01*
Y4494194D01*
X14409200D01*
X14429520Y4514514D02*
Y4575474D01*
X14490480D01*
Y4514514D01*
X14429520D01*
X14074200Y2004201D02*
Y2105801D01*
X14175800D01*
Y2004201D01*
X14074200D01*
X14094521Y2024521D02*
Y2085481D01*
X14155479D01*
Y2024521D01*
X14094521D01*
X12424200Y5174200D02*
Y5275800D01*
X12525800D01*
Y5174200D01*
X12424200D01*
X12444520Y5194520D02*
Y5255480D01*
X12505480D01*
Y5194520D01*
X12444520D01*
X12424200Y5299200D02*
Y5400800D01*
X12525800D01*
Y5299200D01*
X12424200D01*
X12444520Y5319520D02*
Y5380480D01*
X12505480D01*
Y5319520D01*
X12444520D01*
X14204201Y4949200D02*
Y5050800D01*
X14305800D01*
Y4949200D01*
X14204201D01*
X14224519Y4969520D02*
Y5030480D01*
X14285480D01*
Y4969520D01*
X14224519D01*
X14204201Y5399200D02*
Y5500800D01*
X14305800D01*
Y5399200D01*
X14204201D01*
X14224519Y5419520D02*
Y5480480D01*
X14285480D01*
Y5419520D01*
X14224519D01*
X14409200Y5514200D02*
Y5615800D01*
X14510800D01*
Y5514200D01*
X14409200D01*
X14429520Y5534520D02*
Y5595480D01*
X14490480D01*
Y5534520D01*
X14429520D01*
X14409200Y5394194D02*
Y5495794D01*
X14510800D01*
Y5394194D01*
X14409200D01*
X14429520Y5414514D02*
Y5475474D01*
X14490480D01*
Y5414514D01*
X14429520D01*
X14514200Y5054200D02*
Y5155800D01*
X14615800D01*
Y5054200D01*
X14514200D01*
X14534520Y5074520D02*
Y5135480D01*
X14595480D01*
Y5074520D01*
X14534520D01*
X14514200Y4604200D02*
Y4705800D01*
X14615800D01*
Y4604200D01*
X14514200D01*
X14534520Y4624520D02*
Y4685480D01*
X14595480D01*
Y4624520D01*
X14534520D01*
X14514200Y4154200D02*
Y4255800D01*
X14615800D01*
Y4154200D01*
X14514200D01*
X14534520Y4174520D02*
Y4235480D01*
X14595480D01*
Y4174520D01*
X14534520D01*
X14514200Y3704200D02*
Y3805800D01*
X14615800D01*
Y3704200D01*
X14514200D01*
X14534520Y3724520D02*
Y3785480D01*
X14595480D01*
Y3724520D01*
X14534520D01*
X14514200Y3254200D02*
Y3355800D01*
X14615800D01*
Y3254200D01*
X14514200D01*
X14534520Y3274520D02*
Y3335480D01*
X14595480D01*
Y3274520D01*
X14534520D01*
X14514200Y2804200D02*
Y2905800D01*
X14615800D01*
Y2804200D01*
X14514200D01*
X14534520Y2824520D02*
Y2885480D01*
X14595480D01*
Y2824520D01*
X14534520D01*
X14514200Y2354200D02*
Y2455800D01*
X14615800D01*
Y2354200D01*
X14514200D01*
X14534520Y2374520D02*
Y2435480D01*
X14595480D01*
Y2374520D01*
X14534520D01*
X14514200Y1904200D02*
Y2005800D01*
X14615800D01*
Y1904200D01*
X14514200D01*
X14534520Y1924520D02*
Y1985480D01*
X14595480D01*
Y1924520D01*
X14534520D01*
X14514200Y1454200D02*
Y1555800D01*
X14615800D01*
Y1454200D01*
X14514200D01*
X14534520Y1474520D02*
Y1535480D01*
X14595480D01*
Y1474520D01*
X14534520D01*
X14514200Y5504200D02*
Y5605800D01*
X14615800D01*
Y5504200D01*
X14514200D01*
X14534520Y5524520D02*
Y5585480D01*
X14595480D01*
Y5524520D01*
X14534520D01*
X8984200Y3734200D02*
Y3835800D01*
X9085800D01*
Y3734200D01*
X8984200D01*
X9004520Y3754520D02*
Y3815480D01*
X9065480D01*
Y3754520D01*
X9004520D01*
X8949200Y3814200D02*
Y3915800D01*
X9050800D01*
Y3814200D01*
X8949200D01*
X8969520Y3834520D02*
Y3895480D01*
X9030480D01*
Y3834520D01*
X8969520D01*
X9024200Y3874200D02*
Y3975800D01*
X9125800D01*
Y3874200D01*
X9024200D01*
X9044520Y3894520D02*
Y3955480D01*
X9105480D01*
Y3894520D01*
X9044520D01*
X8949200Y3934200D02*
Y4035800D01*
X9050800D01*
Y3934200D01*
X8949200D01*
X8969520Y3954520D02*
Y4015480D01*
X9030480D01*
Y3954520D01*
X8969520D01*
X9024200Y3994200D02*
Y4095800D01*
X9125800D01*
Y3994200D01*
X9024200D01*
X9044520Y4014520D02*
Y4075480D01*
X9105480D01*
Y4014520D01*
X9044520D01*
X8949200Y4054200D02*
Y4155800D01*
X9050800D01*
Y4054200D01*
X8949200D01*
X8969520Y4074520D02*
Y4135480D01*
X9030480D01*
Y4074520D01*
X8969520D01*
X9024200Y4114200D02*
Y4215800D01*
X9125800D01*
Y4114200D01*
X9024200D01*
X9044520Y4134520D02*
Y4195480D01*
X9105480D01*
Y4134520D01*
X9044520D01*
X8324200Y4214200D02*
Y4315800D01*
X8425800D01*
Y4214200D01*
X8324200D01*
X8344520Y4234520D02*
Y4295480D01*
X8405480D01*
Y4234520D01*
X8344520D01*
X8324200Y4334200D02*
Y4435800D01*
X8425800D01*
Y4334200D01*
X8324200D01*
X8344520Y4354520D02*
Y4415480D01*
X8405480D01*
Y4354520D01*
X8344520D01*
X8324200Y4454200D02*
Y4555800D01*
X8425800D01*
Y4454200D01*
X8324200D01*
X8344520Y4474520D02*
Y4535480D01*
X8405480D01*
Y4474520D01*
X8344520D01*
X8399200Y4634200D02*
Y4735800D01*
X8500800D01*
Y4634200D01*
X8399200D01*
X8419520Y4654520D02*
Y4715480D01*
X8480480D01*
Y4654520D01*
X8419520D01*
X8324200Y4694200D02*
Y4795800D01*
X8425800D01*
Y4694200D01*
X8324200D01*
X8344520Y4714520D02*
Y4775480D01*
X8405480D01*
Y4714520D01*
X8344520D01*
X8399200Y4274200D02*
Y4375800D01*
X8500800D01*
Y4274200D01*
X8399200D01*
X8419520Y4294520D02*
Y4355480D01*
X8480480D01*
Y4294520D01*
X8419520D01*
X8399200Y4394200D02*
Y4495800D01*
X8500800D01*
Y4394200D01*
X8399200D01*
X8419520Y4414520D02*
Y4475480D01*
X8480480D01*
Y4414520D01*
X8419520D01*
X8324200Y4574200D02*
Y4675800D01*
X8425800D01*
Y4574200D01*
X8324200D01*
X8344520Y4594520D02*
Y4655480D01*
X8405480D01*
Y4594520D01*
X8344520D01*
X8399200Y4754200D02*
Y4855800D01*
X8500800D01*
Y4754200D01*
X8399200D01*
X8419520Y4774520D02*
Y4835480D01*
X8480480D01*
Y4774520D01*
X8419520D01*
X14204201Y1799201D02*
Y1900801D01*
X14305800D01*
Y1799201D01*
X14204201D01*
X14224519Y1819521D02*
Y1880481D01*
X14285480D01*
Y1819521D01*
X14224519D01*
X13699200Y3104701D02*
Y3206301D01*
X13800800D01*
Y3104701D01*
X13699200D01*
X13719521Y3125021D02*
Y3185981D01*
X13780479D01*
Y3125021D01*
X13719521D01*
X14074200Y2454201D02*
Y2555801D01*
X14175800D01*
Y2454201D01*
X14074200D01*
X14094521Y2474521D02*
Y2535481D01*
X14155479D01*
Y2474521D01*
X14094521D01*
X14074200Y2904201D02*
Y3005801D01*
X14175800D01*
Y2904201D01*
X14074200D01*
X14094521Y2924521D02*
Y2985481D01*
X14155479D01*
Y2924521D01*
X14094521D01*
X13699200Y5403700D02*
Y5505300D01*
X13800800D01*
Y5403700D01*
X13699200D01*
X13719521Y5424020D02*
Y5484980D01*
X13780479D01*
Y5424020D01*
X13719521D01*
X12919202Y2723701D02*
Y2825301D01*
X13020801D01*
Y2723701D01*
X12919202D01*
X12939520Y2744021D02*
Y2804981D01*
X13000481D01*
Y2744021D01*
X12939520D01*
X12919202Y2850701D02*
Y2952301D01*
X13020801D01*
Y2850701D01*
X12919202D01*
X12939520Y2871021D02*
Y2931981D01*
X13000481D01*
Y2871021D01*
X12939520D01*
X12919202Y2977701D02*
Y3079301D01*
X13020801D01*
Y2977701D01*
X12919202D01*
X12939520Y2998021D02*
Y3058981D01*
X13000481D01*
Y2998021D01*
X12939520D01*
X12919202Y3104701D02*
Y3206301D01*
X13020801D01*
Y3104701D01*
X12919202D01*
X12939520Y3125021D02*
Y3185981D01*
X13000481D01*
Y3125021D01*
X12939520D01*
X12799200Y2644200D02*
Y2745800D01*
X12900800D01*
Y2644200D01*
X12799200D01*
X12819521Y2664520D02*
Y2725480D01*
X12880479D01*
Y2664520D01*
X12819521D01*
X12769201Y2850701D02*
Y2952301D01*
X12870801D01*
Y2850701D01*
X12769201D01*
X12789521Y2871021D02*
Y2931981D01*
X12850481D01*
Y2871021D01*
X12789521D01*
X12769201Y2969200D02*
Y3070800D01*
X12870801D01*
Y2969200D01*
X12769201D01*
X12789521Y2989520D02*
Y3050480D01*
X12850481D01*
Y2989520D01*
X12789521D01*
X12769201Y3104701D02*
Y3206301D01*
X12870801D01*
Y3104701D01*
X12769201D01*
X12789521Y3125021D02*
Y3185981D01*
X12850481D01*
Y3125021D01*
X12789521D01*
X13699200Y2723701D02*
Y2825301D01*
X13800800D01*
Y2723701D01*
X13699200D01*
X13719521Y2744021D02*
Y2804981D01*
X13780479D01*
Y2744021D01*
X13719521D01*
X13699200Y2850701D02*
Y2952301D01*
X13800800D01*
Y2850701D01*
X13699200D01*
X13719521Y2871021D02*
Y2931981D01*
X13780479D01*
Y2871021D01*
X13719521D01*
X13699200Y2977701D02*
Y3079301D01*
X13800800D01*
Y2977701D01*
X13699200D01*
X13719521Y2998021D02*
Y3058981D01*
X13780479D01*
Y2998021D01*
X13719521D01*
X13624200Y2644200D02*
Y2745800D01*
X13725800D01*
Y2644200D01*
X13624200D01*
X13644521Y2664520D02*
Y2725480D01*
X13705479D01*
Y2664520D01*
X13644521D01*
X13549200Y2850701D02*
Y2952301D01*
X13650800D01*
Y2850701D01*
X13549200D01*
X13569521Y2871021D02*
Y2931981D01*
X13630479D01*
Y2871021D01*
X13569521D01*
X13549200Y2969200D02*
Y3070800D01*
X13650800D01*
Y2969200D01*
X13549200D01*
X13569521Y2989520D02*
Y3050480D01*
X13630479D01*
Y2989520D01*
X13569521D01*
X13549200Y3104701D02*
Y3206301D01*
X13650800D01*
Y3104701D01*
X13549200D01*
X13569521Y3125021D02*
Y3185981D01*
X13630479D01*
Y3125021D01*
X13569521D01*
X12919202Y3393701D02*
Y3495301D01*
X13020801D01*
Y3393701D01*
X12919202D01*
X12939520Y3414021D02*
Y3474981D01*
X13000481D01*
Y3414021D01*
X12939520D01*
X12919202Y3520701D02*
Y3622301D01*
X13020801D01*
Y3520701D01*
X12919202D01*
X12939520Y3541021D02*
Y3601981D01*
X13000481D01*
Y3541021D01*
X12939520D01*
X12919202Y3647701D02*
Y3749301D01*
X13020801D01*
Y3647701D01*
X12919202D01*
X12939520Y3668021D02*
Y3728981D01*
X13000481D01*
Y3668021D01*
X12939520D01*
X12919202Y3774701D02*
Y3876301D01*
X13020801D01*
Y3774701D01*
X12919202D01*
X12939520Y3795021D02*
Y3855981D01*
X13000481D01*
Y3795021D01*
X12939520D01*
X12844202Y3314200D02*
Y3415800D01*
X12945801D01*
Y3314200D01*
X12844202D01*
X12864520Y3334520D02*
Y3395480D01*
X12925481D01*
Y3334520D01*
X12864520D01*
X12769201Y3520701D02*
Y3622301D01*
X12870801D01*
Y3520701D01*
X12769201D01*
X12789521Y3541021D02*
Y3601981D01*
X12850481D01*
Y3541021D01*
X12789521D01*
X12769201Y3639200D02*
Y3740800D01*
X12870801D01*
Y3639200D01*
X12769201D01*
X12789521Y3659520D02*
Y3720480D01*
X12850481D01*
Y3659520D01*
X12789521D01*
X12769201Y3774701D02*
Y3876301D01*
X12870801D01*
Y3774701D01*
X12769201D01*
X12789521Y3795021D02*
Y3855981D01*
X12850481D01*
Y3795021D01*
X12789521D01*
X13699200Y3393701D02*
Y3495301D01*
X13800800D01*
Y3393701D01*
X13699200D01*
X13719521Y3414021D02*
Y3474981D01*
X13780479D01*
Y3414021D01*
X13719521D01*
X13699200Y3520701D02*
Y3622301D01*
X13800800D01*
Y3520701D01*
X13699200D01*
X13719521Y3541021D02*
Y3601981D01*
X13780479D01*
Y3541021D01*
X13719521D01*
X13699200Y3647701D02*
Y3749301D01*
X13800800D01*
Y3647701D01*
X13699200D01*
X13719521Y3668021D02*
Y3728981D01*
X13780479D01*
Y3668021D01*
X13719521D01*
X13699200Y3774701D02*
Y3876301D01*
X13800800D01*
Y3774701D01*
X13699200D01*
X13719521Y3795021D02*
Y3855981D01*
X13780479D01*
Y3795021D01*
X13719521D01*
X13624200Y3314200D02*
Y3415800D01*
X13725800D01*
Y3314200D01*
X13624200D01*
X13644521Y3334520D02*
Y3395480D01*
X13705479D01*
Y3334520D01*
X13644521D01*
X13549200Y3520701D02*
Y3622301D01*
X13650800D01*
Y3520701D01*
X13549200D01*
X13569521Y3541021D02*
Y3601981D01*
X13630479D01*
Y3541021D01*
X13569521D01*
X13549200Y3639200D02*
Y3740800D01*
X13650800D01*
Y3639200D01*
X13549200D01*
X13569521Y3659520D02*
Y3720480D01*
X13630479D01*
Y3659520D01*
X13569521D01*
X13549200Y3774701D02*
Y3876301D01*
X13650800D01*
Y3774701D01*
X13549200D01*
X13569521Y3795021D02*
Y3855981D01*
X13630479D01*
Y3795021D01*
X13569521D01*
X12919202Y4063701D02*
Y4165301D01*
X13020801D01*
Y4063701D01*
X12919202D01*
X12939520Y4084021D02*
Y4144981D01*
X13000481D01*
Y4084021D01*
X12939520D01*
X12919202Y4190701D02*
Y4292301D01*
X13020801D01*
Y4190701D01*
X12919202D01*
X12939520Y4211021D02*
Y4271981D01*
X13000481D01*
Y4211021D01*
X12939520D01*
X12919202Y4317701D02*
Y4419301D01*
X13020801D01*
Y4317701D01*
X12919202D01*
X12939520Y4338021D02*
Y4398981D01*
X13000481D01*
Y4338021D01*
X12939520D01*
X12919202Y4444701D02*
Y4546301D01*
X13020801D01*
Y4444701D01*
X12919202D01*
X12939520Y4465021D02*
Y4525981D01*
X13000481D01*
Y4465021D01*
X12939520D01*
X12844202Y3984200D02*
Y4085800D01*
X12945801D01*
Y3984200D01*
X12844202D01*
X12864520Y4004520D02*
Y4065480D01*
X12925481D01*
Y4004520D01*
X12864520D01*
X12769201Y4190701D02*
Y4292301D01*
X12870801D01*
Y4190701D01*
X12769201D01*
X12789521Y4211021D02*
Y4271981D01*
X12850481D01*
Y4211021D01*
X12789521D01*
X12769201Y4309200D02*
Y4410800D01*
X12870801D01*
Y4309200D01*
X12769201D01*
X12789521Y4329520D02*
Y4390480D01*
X12850481D01*
Y4329520D01*
X12789521D01*
X13699200Y4063701D02*
Y4165301D01*
X13800800D01*
Y4063701D01*
X13699200D01*
X13719521Y4084021D02*
Y4144981D01*
X13780479D01*
Y4084021D01*
X13719521D01*
X13699200Y4190701D02*
Y4292301D01*
X13800800D01*
Y4190701D01*
X13699200D01*
X13719521Y4211021D02*
Y4271981D01*
X13780479D01*
Y4211021D01*
X13719521D01*
X13699200Y4317701D02*
Y4419301D01*
X13800800D01*
Y4317701D01*
X13699200D01*
X13719521Y4338021D02*
Y4398981D01*
X13780479D01*
Y4338021D01*
X13719521D01*
X13699200Y4444701D02*
Y4546301D01*
X13800800D01*
Y4444701D01*
X13699200D01*
X13719521Y4465021D02*
Y4525981D01*
X13780479D01*
Y4465021D01*
X13719521D01*
X13624200Y3984200D02*
Y4085800D01*
X13725800D01*
Y3984200D01*
X13624200D01*
X13644521Y4004520D02*
Y4065480D01*
X13705479D01*
Y4004520D01*
X13644521D01*
X13549200Y4190701D02*
Y4292301D01*
X13650800D01*
Y4190701D01*
X13549200D01*
X13569521Y4211021D02*
Y4271981D01*
X13630479D01*
Y4211021D01*
X13569521D01*
X12919202Y4733700D02*
Y4835300D01*
X13020801D01*
Y4733700D01*
X12919202D01*
X12939520Y4754020D02*
Y4814980D01*
X13000481D01*
Y4754020D01*
X12939520D01*
X12919202Y4860700D02*
Y4962300D01*
X13020801D01*
Y4860700D01*
X12919202D01*
X12939520Y4881020D02*
Y4941980D01*
X13000481D01*
Y4881020D01*
X12939520D01*
X12919202Y4987700D02*
Y5089300D01*
X13020801D01*
Y4987700D01*
X12919202D01*
X12939520Y5008020D02*
Y5068980D01*
X13000481D01*
Y5008020D01*
X12939520D01*
X12769201Y4860700D02*
Y4962300D01*
X12870801D01*
Y4860700D01*
X12769201D01*
X12789521Y4881020D02*
Y4941980D01*
X12850481D01*
Y4881020D01*
X12789521D01*
X12769201Y4979200D02*
Y5080800D01*
X12870801D01*
Y4979200D01*
X12769201D01*
X12789521Y4999520D02*
Y5060480D01*
X12850481D01*
Y4999520D01*
X12789521D01*
X13699200Y4733700D02*
Y4835300D01*
X13800800D01*
Y4733700D01*
X13699200D01*
X13719521Y4754020D02*
Y4814980D01*
X13780479D01*
Y4754020D01*
X13719521D01*
X13699200Y4860700D02*
Y4962300D01*
X13800800D01*
Y4860700D01*
X13699200D01*
X13719521Y4881020D02*
Y4941980D01*
X13780479D01*
Y4881020D01*
X13719521D01*
X13699200Y4987700D02*
Y5089300D01*
X13800800D01*
Y4987700D01*
X13699200D01*
X13719521Y5008020D02*
Y5068980D01*
X13780479D01*
Y5008020D01*
X13719521D01*
X13699200Y5114700D02*
Y5216300D01*
X13800800D01*
Y5114700D01*
X13699200D01*
X13719521Y5135020D02*
Y5195980D01*
X13780479D01*
Y5135020D01*
X13719521D01*
X13549200Y4860700D02*
Y4962300D01*
X13650800D01*
Y4860700D01*
X13549200D01*
X13569521Y4881020D02*
Y4941980D01*
X13630479D01*
Y4881020D01*
X13569521D01*
X13549200Y4979200D02*
Y5080800D01*
X13650800D01*
Y4979200D01*
X13549200D01*
X13569521Y4999520D02*
Y5060480D01*
X13630479D01*
Y4999520D01*
X13569521D01*
X13549200Y5114700D02*
Y5216300D01*
X13650800D01*
Y5114700D01*
X13549200D01*
X13569521Y5135020D02*
Y5195980D01*
X13630479D01*
Y5135020D01*
X13569521D01*
X12919202Y5403700D02*
Y5505300D01*
X13020801D01*
Y5403700D01*
X12919202D01*
X12939520Y5424020D02*
Y5484980D01*
X13000481D01*
Y5424020D01*
X12939520D01*
X12919202Y5530700D02*
Y5632300D01*
X13020801D01*
Y5530700D01*
X12919202D01*
X12939520Y5551020D02*
Y5611980D01*
X13000481D01*
Y5551020D01*
X12939520D01*
X12919202Y5657700D02*
Y5759300D01*
X13020801D01*
Y5657700D01*
X12919202D01*
X12939520Y5678020D02*
Y5738980D01*
X13000481D01*
Y5678020D01*
X12939520D01*
X12919202Y5784700D02*
Y5886300D01*
X13020801D01*
Y5784700D01*
X12919202D01*
X12939520Y5805020D02*
Y5865980D01*
X13000481D01*
Y5805020D01*
X12939520D01*
X12799200Y5324200D02*
Y5425800D01*
X12900800D01*
Y5324200D01*
X12799200D01*
X12819521Y5344520D02*
Y5405480D01*
X12880479D01*
Y5344520D01*
X12819521D01*
X12769201Y5530700D02*
Y5632300D01*
X12870801D01*
Y5530700D01*
X12769201D01*
X12789521Y5551020D02*
Y5611980D01*
X12850481D01*
Y5551020D01*
X12789521D01*
X12769201Y5649200D02*
Y5750800D01*
X12870801D01*
Y5649200D01*
X12769201D01*
X12789521Y5669520D02*
Y5730480D01*
X12850481D01*
Y5669520D01*
X12789521D01*
X13549200Y5649200D02*
Y5750800D01*
X13650800D01*
Y5649200D01*
X13549200D01*
X13569521Y5669520D02*
Y5730480D01*
X13630479D01*
Y5669520D01*
X13569521D01*
X14409200Y1464200D02*
Y1565800D01*
X14510800D01*
Y1464200D01*
X14409200D01*
X14429520Y1484520D02*
Y1545480D01*
X14490480D01*
Y1484520D01*
X14429520D01*
X14074200Y1554201D02*
Y1655801D01*
X14175800D01*
Y1554201D01*
X14074200D01*
X14094521Y1574521D02*
Y1635481D01*
X14155479D01*
Y1574521D01*
X14094521D01*
X15229201Y1814200D02*
Y1915800D01*
X15330800D01*
Y1814200D01*
X15229201D01*
X15249519Y1834520D02*
Y1895480D01*
X15310480D01*
Y1834520D01*
X15249519D01*
X14939200Y1709195D02*
Y1810795D01*
X15040800D01*
Y1709195D01*
X14939200D01*
X14959520Y1729515D02*
Y1790475D01*
X15020480D01*
Y1729515D01*
X14959520D01*
X15229201Y1904200D02*
Y2005800D01*
X15330800D01*
Y1904200D01*
X15229201D01*
X15249519Y1924520D02*
Y1985480D01*
X15310480D01*
Y1924520D01*
X15249519D01*
X15229201Y2264200D02*
Y2365800D01*
X15330800D01*
Y2264200D01*
X15229201D01*
X15249519Y2284520D02*
Y2345480D01*
X15310480D01*
Y2284520D01*
X15249519D01*
X14939200Y2159195D02*
Y2260795D01*
X15040800D01*
Y2159195D01*
X14939200D01*
X14959520Y2179515D02*
Y2240475D01*
X15020480D01*
Y2179515D01*
X14959520D01*
X15229201Y2354200D02*
Y2455800D01*
X15330800D01*
Y2354200D01*
X15229201D01*
X15249519Y2374520D02*
Y2435480D01*
X15310480D01*
Y2374520D01*
X15249519D01*
X15229201Y2714200D02*
Y2815800D01*
X15330800D01*
Y2714200D01*
X15229201D01*
X15249519Y2734520D02*
Y2795480D01*
X15310480D01*
Y2734520D01*
X15249519D01*
X14939200Y2609195D02*
Y2710795D01*
X15040800D01*
Y2609195D01*
X14939200D01*
X14959520Y2629515D02*
Y2690475D01*
X15020480D01*
Y2629515D01*
X14959520D01*
X14204201Y2699201D02*
Y2800801D01*
X14305800D01*
Y2699201D01*
X14204201D01*
X14224519Y2719521D02*
Y2780481D01*
X14285480D01*
Y2719521D01*
X14224519D01*
X15229201Y2804199D02*
Y2905799D01*
X15330800D01*
Y2804199D01*
X15229201D01*
X15249519Y2824519D02*
Y2885479D01*
X15310480D01*
Y2824519D01*
X15249519D01*
X15229201Y3164199D02*
Y3265799D01*
X15330800D01*
Y3164199D01*
X15229201D01*
X15249519Y3184519D02*
Y3245479D01*
X15310480D01*
Y3184519D01*
X15249519D01*
X14409200Y3144195D02*
Y3245795D01*
X14510800D01*
Y3144195D01*
X14409200D01*
X14429520Y3164515D02*
Y3225475D01*
X14490480D01*
Y3164515D01*
X14429520D01*
X14939200Y3059195D02*
Y3160795D01*
X15040800D01*
Y3059195D01*
X14939200D01*
X14959520Y3079515D02*
Y3140475D01*
X15020480D01*
Y3079515D01*
X14959520D01*
X14204201Y3149201D02*
Y3250801D01*
X14305800D01*
Y3149201D01*
X14204201D01*
X14224519Y3169521D02*
Y3230481D01*
X14285480D01*
Y3169521D01*
X14224519D01*
X14409200Y3264200D02*
Y3365800D01*
X14510800D01*
Y3264200D01*
X14409200D01*
X14429520Y3284520D02*
Y3345480D01*
X14490480D01*
Y3284520D01*
X14429520D01*
X15229201Y3254199D02*
Y3355799D01*
X15330800D01*
Y3254199D01*
X15229201D01*
X15249519Y3274519D02*
Y3335479D01*
X15310480D01*
Y3274519D01*
X15249519D01*
X15229201Y3614199D02*
Y3715799D01*
X15330800D01*
Y3614199D01*
X15229201D01*
X15249519Y3634519D02*
Y3695479D01*
X15310480D01*
Y3634519D01*
X15249519D01*
X14939200Y3509195D02*
Y3610795D01*
X15040800D01*
Y3509195D01*
X14939200D01*
X14959520Y3529515D02*
Y3590475D01*
X15020480D01*
Y3529515D01*
X14959520D01*
X14204201Y3599201D02*
Y3700801D01*
X14305800D01*
Y3599201D01*
X14204201D01*
X14224519Y3619521D02*
Y3680481D01*
X14285480D01*
Y3619521D01*
X14224519D01*
X15229201Y3704199D02*
Y3805799D01*
X15330800D01*
Y3704199D01*
X15229201D01*
X15249519Y3724519D02*
Y3785479D01*
X15310480D01*
Y3724519D01*
X15249519D01*
X15229201Y4064199D02*
Y4165799D01*
X15330800D01*
Y4064199D01*
X15229201D01*
X15249519Y4084519D02*
Y4145479D01*
X15310480D01*
Y4084519D01*
X15249519D01*
X14409200Y4044195D02*
Y4145795D01*
X14510800D01*
Y4044195D01*
X14409200D01*
X14429520Y4064515D02*
Y4125475D01*
X14490480D01*
Y4064515D01*
X14429520D01*
X14939200Y3959195D02*
Y4060795D01*
X15040800D01*
Y3959195D01*
X14939200D01*
X14959520Y3979515D02*
Y4040475D01*
X15020480D01*
Y3979515D01*
X14959520D01*
X14204201Y4049200D02*
Y4150800D01*
X14305800D01*
Y4049200D01*
X14204201D01*
X14224519Y4069520D02*
Y4130480D01*
X14285480D01*
Y4069520D01*
X14224519D01*
X14409200Y4164200D02*
Y4265800D01*
X14510800D01*
Y4164200D01*
X14409200D01*
X14429520Y4184520D02*
Y4245480D01*
X14490480D01*
Y4184520D01*
X14429520D01*
X14074200Y4254201D02*
Y4355801D01*
X14175800D01*
Y4254201D01*
X14074200D01*
X14094521Y4274521D02*
Y4335481D01*
X14155479D01*
Y4274521D01*
X14094521D01*
X15229201Y4154199D02*
Y4255799D01*
X15330800D01*
Y4154199D01*
X15229201D01*
X15249519Y4174519D02*
Y4235479D01*
X15310480D01*
Y4174519D01*
X15249519D01*
X15229201Y4514199D02*
Y4615799D01*
X15330800D01*
Y4514199D01*
X15229201D01*
X15249519Y4534519D02*
Y4595479D01*
X15310480D01*
Y4534519D01*
X15249519D01*
X14939200Y4409195D02*
Y4510795D01*
X15040800D01*
Y4409195D01*
X14939200D01*
X14959520Y4429515D02*
Y4490475D01*
X15020480D01*
Y4429515D01*
X14959520D01*
X14204201Y4499200D02*
Y4600800D01*
X14305800D01*
Y4499200D01*
X14204201D01*
X14224519Y4519520D02*
Y4580480D01*
X14285480D01*
Y4519520D01*
X14224519D01*
X14074200Y4704200D02*
Y4805800D01*
X14175800D01*
Y4704200D01*
X14074200D01*
X14094521Y4724520D02*
Y4785480D01*
X14155479D01*
Y4724520D01*
X14094521D01*
X15229201Y4604199D02*
Y4705799D01*
X15330800D01*
Y4604199D01*
X15229201D01*
X15249519Y4624519D02*
Y4685479D01*
X15310480D01*
Y4624519D01*
X15249519D01*
X15229201Y4964199D02*
Y5065799D01*
X15330800D01*
Y4964199D01*
X15229201D01*
X15249519Y4984519D02*
Y5045479D01*
X15310480D01*
Y4984519D01*
X15249519D01*
X14409200Y4944194D02*
Y5045794D01*
X14510800D01*
Y4944194D01*
X14409200D01*
X14429520Y4964514D02*
Y5025474D01*
X14490480D01*
Y4964514D01*
X14429520D01*
X14939200Y4859194D02*
Y4960794D01*
X15040800D01*
Y4859194D01*
X14939200D01*
X14959520Y4879514D02*
Y4940474D01*
X15020480D01*
Y4879514D01*
X14959520D01*
X14409200Y5064200D02*
Y5165800D01*
X14510800D01*
Y5064200D01*
X14409200D01*
X14429520Y5084520D02*
Y5145480D01*
X14490480D01*
Y5084520D01*
X14429520D01*
X14074200Y5154200D02*
Y5255800D01*
X14175800D01*
Y5154200D01*
X14074200D01*
X14094521Y5174520D02*
Y5235480D01*
X14155479D01*
Y5174520D01*
X14094521D01*
X15229201Y5054199D02*
Y5155799D01*
X15330800D01*
Y5054199D01*
X15229201D01*
X15249519Y5074519D02*
Y5135479D01*
X15310480D01*
Y5074519D01*
X15249519D01*
X15229201Y5414199D02*
Y5515799D01*
X15330800D01*
Y5414199D01*
X15229201D01*
X15249519Y5434519D02*
Y5495479D01*
X15310480D01*
Y5434519D01*
X15249519D01*
X14939200Y5309194D02*
Y5410794D01*
X15040800D01*
Y5309194D01*
X14939200D01*
X14959520Y5329514D02*
Y5390474D01*
X15020480D01*
Y5329514D01*
X14959520D01*
X14074200Y5604200D02*
Y5705800D01*
X14175800D01*
Y5604200D01*
X14074200D01*
X14094521Y5624520D02*
Y5685480D01*
X14155479D01*
Y5624520D01*
X14094521D01*
X15229201Y5504199D02*
Y5605799D01*
X15330800D01*
Y5504199D01*
X15229201D01*
X15249519Y5524519D02*
Y5585479D01*
X15310480D01*
Y5524519D01*
X15249519D01*
X15229201Y5864199D02*
Y5965799D01*
X15330800D01*
Y5864199D01*
X15229201D01*
X15249519Y5884519D02*
Y5945479D01*
X15310480D01*
Y5884519D01*
X15249519D01*
X14204201Y5849200D02*
Y5950800D01*
X14305800D01*
Y5849200D01*
X14204201D01*
X14224519Y5869520D02*
Y5930480D01*
X14285480D01*
Y5869520D01*
X14224519D01*
X14409200Y5844194D02*
Y5945794D01*
X14510800D01*
Y5844194D01*
X14409200D01*
X14429520Y5864514D02*
Y5925474D01*
X14490480D01*
Y5864514D01*
X14429520D01*
X14939200Y5759194D02*
Y5860794D01*
X15040800D01*
Y5759194D01*
X14939200D01*
X14959520Y5779514D02*
Y5840474D01*
X15020480D01*
Y5779514D01*
X14959520D01*
X13549200Y5530700D02*
Y5632300D01*
X13650800D01*
Y5530700D01*
X13549200D01*
X13569521Y5551020D02*
Y5611980D01*
X13630479D01*
Y5551020D01*
X13569521D01*
X13699200Y5530700D02*
Y5632300D01*
X13800800D01*
Y5530700D01*
X13699200D01*
X13719521Y5551020D02*
Y5611980D01*
X13780479D01*
Y5551020D01*
X13719521D01*
X13699200Y5657700D02*
Y5759300D01*
X13800800D01*
Y5657700D01*
X13699200D01*
X13719521Y5678020D02*
Y5738980D01*
X13780479D01*
Y5678020D01*
X13719521D01*
X13699200Y5784700D02*
Y5886300D01*
X13800800D01*
Y5784700D01*
X13699200D01*
X13719521Y5805020D02*
Y5865980D01*
X13780479D01*
Y5805020D01*
X13719521D01*
X13549200Y5784700D02*
Y5886300D01*
X13650800D01*
Y5784700D01*
X13549200D01*
X13569521Y5805020D02*
Y5865980D01*
X13630479D01*
Y5805020D01*
X13569521D01*
X6199200Y4674200D02*
Y4775800D01*
X6300800D01*
Y4674200D01*
X6199200D01*
X6219520Y4694520D02*
Y4755480D01*
X6280480D01*
Y4694520D01*
X6219520D01*
X6224200Y1924200D02*
Y2025800D01*
X6325800D01*
Y1924200D01*
X6224200D01*
X6244520Y1944520D02*
Y2005480D01*
X6305480D01*
Y1944520D01*
X6244520D01*
X5949200Y2549200D02*
Y2650800D01*
X6050800D01*
Y2549200D01*
X5949200D01*
X5969520Y2569520D02*
Y2630480D01*
X6030480D01*
Y2569520D01*
X5969520D01*
X6124200Y1924200D02*
Y2025800D01*
X6225800D01*
Y1924200D01*
X6124200D01*
X6144520Y1944520D02*
Y2005480D01*
X6205480D01*
Y1944520D01*
X6144520D01*
X5699200Y1874200D02*
Y1975800D01*
X5800800D01*
Y1874200D01*
X5699200D01*
X5719520Y1894520D02*
Y1955480D01*
X5780480D01*
Y1894520D01*
X5719520D01*
X4134200Y4524200D02*
Y4625800D01*
X4235800D01*
Y4524200D01*
X4134200D01*
X4154520Y4544520D02*
Y4605480D01*
X4215480D01*
Y4544520D01*
X4154520D01*
X3024200Y1774200D02*
Y1875800D01*
X3125800D01*
Y1774200D01*
X3024200D01*
X3044520Y1794520D02*
Y1855480D01*
X3105480D01*
Y1794520D01*
X3044520D01*
X2049200Y2959200D02*
Y3060800D01*
X2150800D01*
Y2959200D01*
X2049200D01*
X2069520Y2979520D02*
Y3040480D01*
X2130480D01*
Y2979520D01*
X2069520D01*
X2049200Y3149200D02*
Y3250800D01*
X2150800D01*
Y3149200D01*
X2049200D01*
X2069520Y3169520D02*
Y3230480D01*
X2130480D01*
Y3169520D01*
X2069520D01*
X2049200Y3359200D02*
Y3460800D01*
X2150800D01*
Y3359200D01*
X2049200D01*
X2069520Y3379520D02*
Y3440480D01*
X2130480D01*
Y3379520D01*
X2069520D01*
X5659200Y3879200D02*
Y3980800D01*
X5760800D01*
Y3879200D01*
X5659200D01*
X5679520Y3899520D02*
Y3960480D01*
X5740480D01*
Y3899520D01*
X5679520D01*
X5474200Y3974200D02*
Y4075800D01*
X5575800D01*
Y3974200D01*
X5474200D01*
X5494520Y3994520D02*
Y4055480D01*
X5555480D01*
Y3994520D01*
X5494520D01*
X5474200Y4124200D02*
Y4225800D01*
X5575800D01*
Y4124200D01*
X5474200D01*
X5494520Y4144520D02*
Y4205480D01*
X5555480D01*
Y4144520D01*
X5494520D01*
X5919201Y4694200D02*
Y4795800D01*
X6020801D01*
Y4694200D01*
X5919201D01*
X5939521Y4714520D02*
Y4775480D01*
X6000481D01*
Y4714520D01*
X5939521D01*
X2574200Y4999200D02*
Y5100800D01*
X2675800D01*
Y4999200D01*
X2574200D01*
X2594520Y5019520D02*
Y5080480D01*
X2655480D01*
Y5019520D01*
X2594520D01*
X2574200Y5174200D02*
Y5275800D01*
X2675800D01*
Y5174200D01*
X2574200D01*
X2594520Y5194520D02*
Y5255480D01*
X2655480D01*
Y5194520D01*
X2594520D01*
X5194200Y4694200D02*
Y4795800D01*
X5295800D01*
Y4694200D01*
X5194200D01*
X5214520Y4714520D02*
Y4775480D01*
X5275480D01*
Y4714520D01*
X5214520D01*
X5274201Y4694200D02*
Y4795800D01*
X5375801D01*
Y4694200D01*
X5274201D01*
X5294521Y4714520D02*
Y4775480D01*
X5355481D01*
Y4714520D01*
X5294521D01*
X5664201Y5479200D02*
Y5580800D01*
X5765801D01*
Y5479200D01*
X5664201D01*
X5684521Y5499520D02*
Y5560480D01*
X5745481D01*
Y5499520D01*
X5684521D01*
X5449200Y5479200D02*
Y5580800D01*
X5550800D01*
Y5479200D01*
X5449200D01*
X5469520Y5499520D02*
Y5560480D01*
X5530480D01*
Y5499520D01*
X5469520D01*
X6384200Y5516701D02*
Y5618301D01*
X6485800D01*
Y5516701D01*
X6384200D01*
X6404520Y5537021D02*
Y5597981D01*
X6465480D01*
Y5537021D01*
X6404520D01*
X6384200Y5646701D02*
Y5748301D01*
X6485800D01*
Y5646701D01*
X6384200D01*
X6404520Y5667021D02*
Y5727981D01*
X6465480D01*
Y5667021D01*
X6404520D01*
X6334200Y5711701D02*
Y5813301D01*
X6435800D01*
Y5711701D01*
X6334200D01*
X6354520Y5732021D02*
Y5792981D01*
X6415480D01*
Y5732021D01*
X6354520D01*
X6214200Y5126700D02*
Y5228300D01*
X6315800D01*
Y5126700D01*
X6214200D01*
X6234520Y5147020D02*
Y5207980D01*
X6295480D01*
Y5147020D01*
X6234520D01*
X6164200Y5191700D02*
Y5293300D01*
X6265800D01*
Y5191700D01*
X6164200D01*
X6184520Y5212020D02*
Y5272980D01*
X6245480D01*
Y5212020D01*
X6184520D01*
X7349200Y5480561D02*
Y5582161D01*
X7450800D01*
Y5480561D01*
X7349200D01*
X7369520Y5500881D02*
Y5561841D01*
X7430480D01*
Y5500881D01*
X7369520D01*
X7349200Y5730561D02*
Y5832161D01*
X7450800D01*
Y5730561D01*
X7349200D01*
X7369520Y5750881D02*
Y5811841D01*
X7430480D01*
Y5750881D01*
X7369520D01*
X7349200Y5605561D02*
Y5707161D01*
X7450800D01*
Y5605561D01*
X7349200D01*
X7369520Y5625881D02*
Y5686841D01*
X7430480D01*
Y5625881D01*
X7369520D01*
X5489201Y4694200D02*
Y4795800D01*
X5590801D01*
Y4694200D01*
X5489201D01*
X5509521Y4714520D02*
Y4775480D01*
X5570481D01*
Y4714520D01*
X5509521D01*
X5234200Y5479200D02*
Y5580800D01*
X5335800D01*
Y5479200D01*
X5234200D01*
X5254520Y5499520D02*
Y5560480D01*
X5315480D01*
Y5499520D01*
X5254520D01*
X5019200Y5479200D02*
Y5580800D01*
X5120800D01*
Y5479200D01*
X5019200D01*
X5039520Y5499520D02*
Y5560480D01*
X5100480D01*
Y5499520D01*
X5039520D01*
X4804200Y5479200D02*
Y5580800D01*
X4905800D01*
Y5479200D01*
X4804200D01*
X4824520Y5499520D02*
Y5560480D01*
X4885480D01*
Y5499520D01*
X4824520D01*
X4589200Y5479200D02*
Y5580800D01*
X4690800D01*
Y5479200D01*
X4589200D01*
X4609520Y5499520D02*
Y5560480D01*
X4670480D01*
Y5499520D01*
X4609520D01*
X4629201Y4694200D02*
Y4795800D01*
X4730801D01*
Y4694200D01*
X4629201D01*
X4649521Y4714520D02*
Y4775480D01*
X4710481D01*
Y4714520D01*
X4649521D01*
X4844201Y4694200D02*
Y4795800D01*
X4945801D01*
Y4694200D01*
X4844201D01*
X4864521Y4714520D02*
Y4775480D01*
X4925481D01*
Y4714520D01*
X4864521D01*
X10536700Y4691700D02*
Y4793300D01*
X10638300D01*
Y4691700D01*
X10536700D01*
X10557020Y4712020D02*
Y4772980D01*
X10617980D01*
Y4712020D01*
X10557020D01*
X6559200Y4799200D02*
Y4900800D01*
X6660800D01*
Y4799200D01*
X6559200D01*
X6579520Y4819520D02*
Y4880480D01*
X6640480D01*
Y4819520D01*
X6579520D01*
X6699200Y4874200D02*
Y4975800D01*
X6800800D01*
Y4874200D01*
X6699200D01*
X6719520Y4894520D02*
Y4955480D01*
X6780480D01*
Y4894520D01*
X6719520D01*
X6724200Y4974200D02*
Y5075800D01*
X6825800D01*
Y4974200D01*
X6724200D01*
X6744520Y4994520D02*
Y5055480D01*
X6805480D01*
Y4994520D01*
X6744520D01*
X6799200Y5024200D02*
Y5125800D01*
X6900800D01*
Y5024200D01*
X6799200D01*
X6819520Y5044520D02*
Y5105480D01*
X6880480D01*
Y5044520D01*
X6819520D01*
X6874200Y4974200D02*
Y5075800D01*
X6975800D01*
Y4974200D01*
X6874200D01*
X6894520Y4994520D02*
Y5055480D01*
X6955480D01*
Y4994520D01*
X6894520D01*
X12229197Y5539200D02*
Y5640800D01*
X12330797D01*
Y5539200D01*
X12229197D01*
X12249517Y5559520D02*
Y5620480D01*
X12310477D01*
Y5559520D01*
X12249517D01*
X11846699Y5339200D02*
Y5440800D01*
X11948299D01*
Y5339200D01*
X11846699D01*
X11867019Y5359520D02*
Y5420480D01*
X11927979D01*
Y5359520D01*
X11867019D01*
X11975197Y5539200D02*
Y5640800D01*
X12076797D01*
Y5539200D01*
X11975197D01*
X11995517Y5559520D02*
Y5620480D01*
X12056477D01*
Y5559520D01*
X11995517D01*
X11848197Y5539200D02*
Y5640800D01*
X11949797D01*
Y5539200D01*
X11848197D01*
X11868517Y5559520D02*
Y5620480D01*
X11929477D01*
Y5559520D01*
X11868517D01*
X11689197Y5539200D02*
Y5640800D01*
X11790797D01*
Y5539200D01*
X11689197D01*
X11709517Y5559520D02*
Y5620480D01*
X11770477D01*
Y5559520D01*
X11709517D01*
X11562197Y5539200D02*
Y5640800D01*
X11663797D01*
Y5539200D01*
X11562197D01*
X11582517Y5559520D02*
Y5620480D01*
X11643477D01*
Y5559520D01*
X11582517D01*
X11435197Y5339200D02*
Y5440800D01*
X11536797D01*
Y5339200D01*
X11435197D01*
X11455517Y5359520D02*
Y5420480D01*
X11516477D01*
Y5359520D01*
X11455517D01*
X11562197Y5339200D02*
Y5440800D01*
X11663797D01*
Y5339200D01*
X11562197D01*
X11582517Y5359520D02*
Y5420480D01*
X11643477D01*
Y5359520D01*
X11582517D01*
X11435197Y5539200D02*
Y5640800D01*
X11536797D01*
Y5539200D01*
X11435197D01*
X11455517Y5559520D02*
Y5620480D01*
X11516477D01*
Y5559520D01*
X11455517D01*
X11308197Y5539200D02*
Y5640800D01*
X11409797D01*
Y5539200D01*
X11308197D01*
X11328517Y5559520D02*
Y5620480D01*
X11389477D01*
Y5559520D01*
X11328517D01*
X11149197Y5539200D02*
Y5640800D01*
X11250797D01*
Y5539200D01*
X11149197D01*
X11169517Y5559520D02*
Y5620480D01*
X11230477D01*
Y5559520D01*
X11169517D01*
X10895197Y5339200D02*
Y5440800D01*
X10996797D01*
Y5339200D01*
X10895197D01*
X10915517Y5359520D02*
Y5420480D01*
X10976477D01*
Y5359520D01*
X10915517D01*
X10766699Y5339200D02*
Y5440800D01*
X10868299D01*
Y5339200D01*
X10766699D01*
X10787019Y5359520D02*
Y5420480D01*
X10847979D01*
Y5359520D01*
X10787019D01*
X10895197Y5539200D02*
Y5640800D01*
X10996797D01*
Y5539200D01*
X10895197D01*
X10915517Y5559520D02*
Y5620480D01*
X10976477D01*
Y5559520D01*
X10915517D01*
X10768197Y5539200D02*
Y5640800D01*
X10869797D01*
Y5539200D01*
X10768197D01*
X10788517Y5559520D02*
Y5620480D01*
X10849477D01*
Y5559520D01*
X10788517D01*
X10609197Y5539200D02*
Y5640800D01*
X10710797D01*
Y5539200D01*
X10609197D01*
X10629517Y5559520D02*
Y5620480D01*
X10690477D01*
Y5559520D01*
X10629517D01*
X10482197Y5539200D02*
Y5640800D01*
X10583797D01*
Y5539200D01*
X10482197D01*
X10502517Y5559520D02*
Y5620480D01*
X10563477D01*
Y5559520D01*
X10502517D01*
X10355197Y5339200D02*
Y5440800D01*
X10456797D01*
Y5339200D01*
X10355197D01*
X10375517Y5359520D02*
Y5420480D01*
X10436477D01*
Y5359520D01*
X10375517D01*
X10226699Y5339200D02*
Y5440800D01*
X10328299D01*
Y5339200D01*
X10226699D01*
X10247019Y5359520D02*
Y5420480D01*
X10307979D01*
Y5359520D01*
X10247019D01*
X10482197Y5339200D02*
Y5440800D01*
X10583797D01*
Y5339200D01*
X10482197D01*
X10502517Y5359520D02*
Y5420480D01*
X10563477D01*
Y5359520D01*
X10502517D01*
X10355197Y5539200D02*
Y5640800D01*
X10456797D01*
Y5539200D01*
X10355197D01*
X10375517Y5559520D02*
Y5620480D01*
X10436477D01*
Y5559520D01*
X10375517D01*
X10228197Y5539200D02*
Y5640800D01*
X10329797D01*
Y5539200D01*
X10228197D01*
X10248517Y5559520D02*
Y5620480D01*
X10309477D01*
Y5559520D01*
X10248517D01*
X10069197Y5539200D02*
Y5640800D01*
X10170797D01*
Y5539200D01*
X10069197D01*
X10089517Y5559520D02*
Y5620480D01*
X10150477D01*
Y5559520D01*
X10089517D01*
X9942197Y5539200D02*
Y5640800D01*
X10043797D01*
Y5539200D01*
X9942197D01*
X9962517Y5559520D02*
Y5620480D01*
X10023477D01*
Y5559520D01*
X9962517D01*
X9815197Y5339200D02*
Y5440800D01*
X9916797D01*
Y5339200D01*
X9815197D01*
X9835517Y5359520D02*
Y5420480D01*
X9896477D01*
Y5359520D01*
X9835517D01*
X9942197Y5339200D02*
Y5440800D01*
X10043797D01*
Y5339200D01*
X9942197D01*
X9962517Y5359520D02*
Y5420480D01*
X10023477D01*
Y5359520D01*
X9962517D01*
X9815197Y5539200D02*
Y5640800D01*
X9916797D01*
Y5539200D01*
X9815197D01*
X9835517Y5559520D02*
Y5620480D01*
X9896477D01*
Y5559520D01*
X9835517D01*
X9688197Y5539200D02*
Y5640800D01*
X9789797D01*
Y5539200D01*
X9688197D01*
X9708517Y5559520D02*
Y5620480D01*
X9769477D01*
Y5559520D01*
X9708517D01*
X9529197Y5539200D02*
Y5640800D01*
X9630797D01*
Y5539200D01*
X9529197D01*
X9549517Y5559520D02*
Y5620480D01*
X9610477D01*
Y5559520D01*
X9549517D01*
X9402197Y5539200D02*
Y5640800D01*
X9503797D01*
Y5539200D01*
X9402197D01*
X9422517Y5559520D02*
Y5620480D01*
X9483477D01*
Y5559520D01*
X9422517D01*
X9275197Y5339200D02*
Y5440800D01*
X9376797D01*
Y5339200D01*
X9275197D01*
X9295517Y5359520D02*
Y5420480D01*
X9356477D01*
Y5359520D01*
X9295517D01*
X9146700Y5339200D02*
Y5440800D01*
X9248300D01*
Y5339200D01*
X9146700D01*
X9167020Y5359520D02*
Y5420480D01*
X9227980D01*
Y5359520D01*
X9167020D01*
X9402197Y5339200D02*
Y5440800D01*
X9503797D01*
Y5339200D01*
X9402197D01*
X9422517Y5359520D02*
Y5420480D01*
X9483477D01*
Y5359520D01*
X9422517D01*
X9275197Y5539200D02*
Y5640800D01*
X9376797D01*
Y5539200D01*
X9275197D01*
X9295517Y5559520D02*
Y5620480D01*
X9356477D01*
Y5559520D01*
X9295517D01*
X9148197Y5539200D02*
Y5640800D01*
X9249797D01*
Y5539200D01*
X9148197D01*
X9168517Y5559520D02*
Y5620480D01*
X9229477D01*
Y5559520D01*
X9168517D01*
X8989197Y5539200D02*
Y5640800D01*
X9090797D01*
Y5539200D01*
X8989197D01*
X9009517Y5559520D02*
Y5620480D01*
X9070477D01*
Y5559520D01*
X9009517D01*
X8862197Y5539200D02*
Y5640800D01*
X8963797D01*
Y5539200D01*
X8862197D01*
X8882517Y5559520D02*
Y5620480D01*
X8943477D01*
Y5559520D01*
X8882517D01*
X8735197Y5339200D02*
Y5440800D01*
X8836797D01*
Y5339200D01*
X8735197D01*
X8755517Y5359520D02*
Y5420480D01*
X8816477D01*
Y5359520D01*
X8755517D01*
X8606700Y5339200D02*
Y5440800D01*
X8708300D01*
Y5339200D01*
X8606700D01*
X8627020Y5359520D02*
Y5420480D01*
X8687980D01*
Y5359520D01*
X8627020D01*
X8862197Y5339200D02*
Y5440800D01*
X8963797D01*
Y5339200D01*
X8862197D01*
X8882517Y5359520D02*
Y5420480D01*
X8943477D01*
Y5359520D01*
X8882517D01*
X8735197Y5539200D02*
Y5640800D01*
X8836797D01*
Y5539200D01*
X8735197D01*
X8755517Y5559520D02*
Y5620480D01*
X8816477D01*
Y5559520D01*
X8755517D01*
X8608197Y5539200D02*
Y5640800D01*
X8709797D01*
Y5539200D01*
X8608197D01*
X8628517Y5559520D02*
Y5620480D01*
X8689477D01*
Y5559520D01*
X8628517D01*
X8066700Y5339200D02*
Y5440800D01*
X8168300D01*
Y5339200D01*
X8066700D01*
X8087020Y5359520D02*
Y5420480D01*
X8147980D01*
Y5359520D01*
X8087020D01*
X8068197Y5539200D02*
Y5640800D01*
X8169797D01*
Y5539200D01*
X8068197D01*
X8088517Y5559520D02*
Y5620480D01*
X8149477D01*
Y5559520D01*
X8088517D01*
X8449197Y5539200D02*
Y5640800D01*
X8550797D01*
Y5539200D01*
X8449197D01*
X8469517Y5559520D02*
Y5620480D01*
X8530477D01*
Y5559520D01*
X8469517D01*
X16200000Y5649200D02*
X16225400Y5674600D01*
X16250800D01*
X16225400Y5700000D01*
X16250800Y5725400D01*
X16225400D01*
X16200000Y5750800D01*
X16174600Y5725400D01*
X16149200D01*
X16174600Y5700000D01*
X16149200Y5674600D01*
X16174600D01*
X16200000Y5649200D01*
Y5669520D02*
X16215240Y5684760D01*
X16230479D01*
X16215240Y5700000D01*
X16230479Y5715240D01*
X16215240D01*
X16200000Y5730480D01*
X16184760Y5715240D01*
X16169521D01*
X16184760Y5700000D01*
X16169521Y5684760D01*
X16184760D01*
X16200000Y5669520D01*
X9500000Y3449200D02*
X9525400Y3474600D01*
X9550800D01*
X9525400Y3500000D01*
X9550800Y3525400D01*
X9525400D01*
X9500000Y3550800D01*
X9474600Y3525400D01*
X9449200D01*
X9474600Y3500000D01*
X9449200Y3474600D01*
X9474600D01*
X9500000Y3449200D01*
Y3469520D02*
X9515240Y3484760D01*
X9530480D01*
X9515240Y3500000D01*
X9530480Y3515240D01*
X9515240D01*
X9500000Y3530480D01*
X9484760Y3515240D01*
X9469520D01*
X9484760Y3500000D01*
X9469520Y3484760D01*
X9484760D01*
X9500000Y3469520D01*
X16200000Y1249200D02*
X16225400Y1274600D01*
X16250800D01*
X16225400Y1300000D01*
X16250800Y1325400D01*
X16225400D01*
X16200000Y1350800D01*
X16174600Y1325400D01*
X16149200D01*
X16174600Y1300000D01*
X16149200Y1274600D01*
X16174600D01*
X16200000Y1249200D01*
Y1269520D02*
X16215240Y1284760D01*
X16230479D01*
X16215240Y1300000D01*
X16230479Y1315240D01*
X16215240D01*
X16200000Y1330480D01*
X16184760Y1315240D01*
X16169521D01*
X16184760Y1300000D01*
X16169521Y1284760D01*
X16184760D01*
X16200000Y1269520D01*
X2800000Y5649200D02*
X2825400Y5674600D01*
X2850800D01*
X2825400Y5700000D01*
X2850800Y5725400D01*
X2825400D01*
X2800000Y5750800D01*
X2774600Y5725400D01*
X2749200D01*
X2774600Y5700000D01*
X2749200Y5674600D01*
X2774600D01*
X2800000Y5649200D01*
Y5669520D02*
X2815240Y5684760D01*
X2830480D01*
X2815240Y5700000D01*
X2830480Y5715240D01*
X2815240D01*
X2800000Y5730480D01*
X2784760Y5715240D01*
X2769520D01*
X2784760Y5700000D01*
X2769520Y5684760D01*
X2784760D01*
X2800000Y5669520D01*
Y1249200D02*
X2825400Y1274600D01*
X2850800D01*
X2825400Y1300000D01*
X2850800Y1325400D01*
X2825400D01*
X2800000Y1350800D01*
X2774600Y1325400D01*
X2749200D01*
X2774600Y1300000D01*
X2749200Y1274600D01*
X2774600D01*
X2800000Y1249200D01*
Y1269520D02*
X2815240Y1284760D01*
X2830480D01*
X2815240Y1300000D01*
X2830480Y1315240D01*
X2815240D01*
X2800000Y1330480D01*
X2784760Y1315240D01*
X2769520D01*
X2784760Y1300000D01*
X2769520Y1284760D01*
X2784760D01*
X2800000Y1269520D01*
D202*
X16270799Y2460000D02*
G03*
X16270799Y2460000I-50800J0D01*
G01*
X16270799Y1959996D02*
G03*
X16270799Y1959996I-50800J0D01*
G01*
X15815800Y5884994D02*
G03*
X15815800Y5884994I-50800J0D01*
G01*
Y4984994D02*
G03*
X15815800Y4984994I-50800J0D01*
G01*
Y5434994D02*
G03*
X15815800Y5434994I-50800J0D01*
G01*
Y4534994D02*
G03*
X15815800Y4534994I-50800J0D01*
G01*
Y4084995D02*
G03*
X15815800Y4084995I-50800J0D01*
G01*
Y3634995D02*
G03*
X15815800Y3634995I-50800J0D01*
G01*
Y3184995D02*
G03*
X15815800Y3184995I-50800J0D01*
G01*
Y2734995D02*
G03*
X15815800Y2734995I-50800J0D01*
G01*
Y2284995D02*
G03*
X15815800Y2284995I-50800J0D01*
G01*
Y1834995D02*
G03*
X15815800Y1834995I-50800J0D01*
G01*
X12090800Y1400000D02*
G03*
X12090800Y1400000I-50800J0D01*
G01*
X11805800Y1800000D02*
G03*
X11805800Y1800000I-50800J0D01*
G01*
X10550800Y1325000D02*
G03*
X10550800Y1325000I-50800J0D01*
G01*
X10975800Y1650000D02*
G03*
X10975800Y1650000I-50800J0D01*
G01*
X3325800Y5225000D02*
G03*
X3325800Y5225000I-50800J0D01*
G01*
X12320800Y2310000D02*
G03*
X12320800Y2310000I-50800J0D01*
G01*
X11775800Y2350000D02*
G03*
X11775800Y2350000I-50800J0D01*
G01*
X12320800Y1400000D02*
G03*
X12320800Y1400000I-50800J0D01*
G01*
X11860800D02*
G03*
X11860800Y1400000I-50800J0D01*
G01*
D203*
X15795480Y5884994D02*
G03*
X15795480Y5884994I-30480J0D01*
G01*
Y4984994D02*
G03*
X15795480Y4984994I-30480J0D01*
G01*
Y5434994D02*
G03*
X15795480Y5434994I-30480J0D01*
G01*
Y4534994D02*
G03*
X15795480Y4534994I-30480J0D01*
G01*
Y4084995D02*
G03*
X15795480Y4084995I-30480J0D01*
G01*
Y3634995D02*
G03*
X15795480Y3634995I-30480J0D01*
G01*
Y3184995D02*
G03*
X15795480Y3184995I-30480J0D01*
G01*
Y2734995D02*
G03*
X15795480Y2734995I-30480J0D01*
G01*
Y2284995D02*
G03*
X15795480Y2284995I-30480J0D01*
G01*
Y1834995D02*
G03*
X15795480Y1834995I-30480J0D01*
G01*
X12070480Y1400000D02*
G03*
X12070480Y1400000I-30480J0D01*
G01*
X11785480Y1800000D02*
G03*
X11785480Y1800000I-30480J0D01*
G01*
X10530480Y1325000D02*
G03*
X10530480Y1325000I-30480J0D01*
G01*
X10955480Y1650000D02*
G03*
X10955480Y1650000I-30480J0D01*
G01*
X3305480Y5225000D02*
G03*
X3305480Y5225000I-30480J0D01*
G01*
X12300480Y2310000D02*
G03*
X12300480Y2310000I-30480J0D01*
G01*
X11755480Y2350000D02*
G03*
X11755480Y2350000I-30480J0D01*
G01*
X12300480Y1400000D02*
G03*
X12300480Y1400000I-30480J0D01*
G01*
X11840480D02*
G03*
X11840480Y1400000I-30480J0D01*
G01*
%TF.MD5,ca03cbcabecb5e19c05478465b11ee48*%
M02*
