%TF.GenerationSoftware,Altium Limited,Altium Designer,22.4.2 (48)*%
G04 Layer_Color=8421504*
%FSLAX45Y45*%
%MOMM*%
%TF.SameCoordinates,3A7B4B19-9BDF-4AC5-8A71-DEF6C9DA19E2*%
%TF.FilePolarity,Positive*%
%TF.FileFunction,Paste,Top*%
%TF.Part,Single*%
G01*
G75*
%TA.AperFunction,SMDPad,CuDef*%
G04:AMPARAMS|DCode=20|XSize=0.3mm|YSize=1.5mm|CornerRadius=0mm|HoleSize=0mm|Usage=FLASHONLY|Rotation=315.000|XOffset=0mm|YOffset=0mm|HoleType=Round|Shape=Rectangle|*
%AMROTATEDRECTD20*
4,1,4,-0.63640,-0.42426,0.42426,0.63640,0.63640,0.42426,-0.42426,-0.63640,-0.63640,-0.42426,0.0*
%
%ADD20ROTATEDRECTD20*%

G04:AMPARAMS|DCode=21|XSize=0.3mm|YSize=1.5mm|CornerRadius=0mm|HoleSize=0mm|Usage=FLASHONLY|Rotation=45.000|XOffset=0mm|YOffset=0mm|HoleType=Round|Shape=Rectangle|*
%AMROTATEDRECTD21*
4,1,4,0.42426,-0.63640,-0.63640,0.42426,-0.42426,0.63640,0.63640,-0.42426,0.42426,-0.63640,0.0*
%
%ADD21ROTATEDRECTD21*%

%ADD22R,0.28000X0.85000*%
%ADD23R,0.40640X0.68580*%
%ADD24R,1.14000X0.91000*%
%ADD25O,0.50000X2.00000*%
%ADD26R,0.67500X0.25000*%
%ADD27R,0.80000X0.80000*%
%ADD28R,1.05000X1.10000*%
%ADD29R,2.35000X2.45000*%
%ADD30R,0.90000X1.85000*%
%ADD31R,0.55000X1.30000*%
%ADD32R,0.80000X0.80000*%
%ADD33R,3.20000X1.85000*%
%ADD34R,1.10000X0.60000*%
%TA.AperFunction,ConnectorPad*%
%ADD35R,1.35000X0.40000*%
%TA.AperFunction,SMDPad,CuDef*%
%ADD36R,2.05000X2.55000*%
%ADD37R,0.85000X0.28000*%
%TA.AperFunction,SMDPad,SMDef*%
%ADD38R,0.25000X0.47500*%
%ADD39R,0.47500X0.35000*%
%TA.AperFunction,ConnectorPad*%
%ADD41R,1.35000X0.60000*%
%TA.AperFunction,SMDPad,CuDef*%
%ADD42R,2.55000X2.05000*%
%ADD43R,1.35000X1.55000*%
%ADD44R,1.10000X0.85000*%
%TA.AperFunction,ConnectorPad*%
%ADD45R,1.90000X1.80000*%
%TA.AperFunction,SMDPad,CuDef*%
%ADD46R,1.80000X1.17000*%
%ADD49R,1.10000X1.05000*%
%ADD50R,0.90000X0.80000*%
%ADD51R,1.52500X0.65000*%
%ADD52R,0.80000X0.90000*%
G04:AMPARAMS|DCode=53|XSize=0.85mm|YSize=0.25mm|CornerRadius=0.125mm|HoleSize=0mm|Usage=FLASHONLY|Rotation=0.000|XOffset=0mm|YOffset=0mm|HoleType=Round|Shape=RoundedRectangle|*
%AMROUNDEDRECTD53*
21,1,0.85000,0.00000,0,0,0.0*
21,1,0.60000,0.25000,0,0,0.0*
1,1,0.25000,0.30000,0.00000*
1,1,0.25000,-0.30000,0.00000*
1,1,0.25000,-0.30000,0.00000*
1,1,0.25000,0.30000,0.00000*
%
%ADD53ROUNDEDRECTD53*%
%ADD54R,1.50000X1.60000*%
%ADD55R,0.85000X0.35000*%
%ADD56R,1.20000X1.00000*%
%ADD57R,1.65000X4.25000*%
G04:AMPARAMS|DCode=58|XSize=2.46916mm|YSize=0.62213mm|CornerRadius=0.31107mm|HoleSize=0mm|Usage=FLASHONLY|Rotation=0.000|XOffset=0mm|YOffset=0mm|HoleType=Round|Shape=RoundedRectangle|*
%AMROUNDEDRECTD58*
21,1,2.46916,0.00000,0,0,0.0*
21,1,1.84702,0.62213,0,0,0.0*
1,1,0.62213,0.92351,0.00000*
1,1,0.62213,-0.92351,0.00000*
1,1,0.62213,-0.92351,0.00000*
1,1,0.62213,0.92351,0.00000*
%
%ADD58ROUNDEDRECTD58*%
%ADD59P,2.82843X4X180.0*%
G04:AMPARAMS|DCode=60|XSize=0.65mm|YSize=0.25mm|CornerRadius=0mm|HoleSize=0mm|Usage=FLASHONLY|Rotation=45.000|XOffset=0mm|YOffset=0mm|HoleType=Round|Shape=Rectangle|*
%AMROTATEDRECTD60*
4,1,4,-0.14142,-0.31820,-0.31820,-0.14142,0.14142,0.31820,0.31820,0.14142,-0.14142,-0.31820,0.0*
%
%ADD60ROTATEDRECTD60*%

%ADD61R,0.60000X0.40000*%
%ADD62R,0.90000X0.70000*%
%ADD63R,2.43840X0.55880*%
%ADD65R,1.78000X2.16000*%
%ADD66R,2.46916X0.62213*%
%ADD67R,0.80000X1.47500*%
%ADD68R,1.85000X3.12500*%
%ADD69R,0.70000X0.90000*%
%ADD70R,0.51535X0.47247*%
%ADD71R,0.47247X0.51535*%
%ADD72R,2.30000X2.50000*%
%ADD73R,0.50000X2.00000*%
%ADD74R,2.50000X2.50000*%
%ADD75R,1.15000X1.00000*%
%ADD76R,1.95580X3.14960*%
%ADD77R,0.25000X0.67500*%
%ADD79R,1.35000X1.90000*%
%ADD80R,1.00000X1.20000*%
%ADD81R,1.10000X0.75000*%
G04:AMPARAMS|DCode=82|XSize=0.65mm|YSize=0.25mm|CornerRadius=0mm|HoleSize=0mm|Usage=FLASHONLY|Rotation=135.000|XOffset=0mm|YOffset=0mm|HoleType=Round|Shape=Rectangle|*
%AMROTATEDRECTD82*
4,1,4,0.31820,-0.14142,0.14142,-0.31820,-0.31820,0.14142,-0.14142,0.31820,0.31820,-0.14142,0.0*
%
%ADD82ROTATEDRECTD82*%

%TA.AperFunction,Conductor*%
%ADD84R,1.89997X1.57500*%
%TA.AperFunction,NonConductor*%
%ADD133R,0.58003X0.71999*%
%ADD134R,0.57998X0.71999*%
%ADD135R,0.72004X0.57998*%
%ADD136R,0.71999X0.57998*%
%ADD137R,0.71999X0.58003*%
%ADD138R,0.72004X0.58003*%
G36*
X10851416Y3502119D02*
X10852119Y3501416D01*
X10852500Y3500497D01*
Y3500000D01*
Y3480000D01*
Y3479503D01*
X10852119Y3478584D01*
X10851416Y3477881D01*
X10850497Y3477500D01*
X10827002D01*
X10826084Y3477881D01*
X10825380Y3478584D01*
X10825000Y3479503D01*
Y3480000D01*
Y3500000D01*
Y3500497D01*
X10825380Y3501416D01*
X10826084Y3502119D01*
X10827002Y3502500D01*
X10827500D01*
Y3502500D01*
X10850000Y3502500D01*
X10850497D01*
X10851416Y3502119D01*
D02*
G37*
G36*
Y3452119D02*
X10852119Y3451416D01*
X10852500Y3450497D01*
Y3450000D01*
Y3430000D01*
Y3429503D01*
X10852119Y3428584D01*
X10851416Y3427880D01*
X10850497Y3427500D01*
X10850000D01*
Y3427500D01*
X10827500Y3427500D01*
X10827002D01*
X10826084Y3427880D01*
X10825380Y3428584D01*
X10825000Y3429503D01*
Y3430000D01*
Y3450000D01*
Y3450497D01*
X10825380Y3451416D01*
X10826084Y3452119D01*
X10827002Y3452500D01*
X10850497D01*
X10851416Y3452119D01*
D02*
G37*
G36*
X10901416D02*
X10902119Y3451416D01*
X10902500Y3450497D01*
Y3450000D01*
X10902500D01*
X10902500Y3427500D01*
Y3427003D01*
X10902119Y3426084D01*
X10901416Y3425380D01*
X10900497Y3425000D01*
X10879502D01*
X10878584Y3425380D01*
X10877880Y3426084D01*
X10877500Y3427003D01*
Y3427500D01*
Y3450000D01*
Y3450497D01*
X10877880Y3451416D01*
X10878584Y3452119D01*
X10879502Y3452500D01*
X10900497D01*
X10901416Y3452119D01*
D02*
G37*
G36*
X10850000Y3552500D02*
X10850497D01*
X10851416Y3552119D01*
X10852119Y3551416D01*
X10852500Y3550497D01*
Y3550000D01*
D01*
Y3530000D01*
Y3529503D01*
X10852119Y3528584D01*
X10851416Y3527880D01*
X10850497Y3527500D01*
X10850000D01*
Y3527500D01*
X10827500Y3527500D01*
X10827002D01*
X10826084Y3527880D01*
X10825380Y3528584D01*
X10825000Y3529503D01*
Y3530000D01*
D01*
Y3550000D01*
Y3550497D01*
X10825380Y3551416D01*
X10826084Y3552119D01*
X10827002Y3552500D01*
X10827500D01*
D01*
X10850000D01*
D02*
G37*
G36*
X10852500Y3580000D02*
Y3579503D01*
X10852119Y3578584D01*
X10851416Y3577881D01*
X10850497Y3577500D01*
X10850000D01*
D01*
X10827500D01*
X10827002D01*
X10826084Y3577881D01*
X10825380Y3578584D01*
X10825000Y3579503D01*
Y3580000D01*
D01*
Y3600000D01*
Y3600497D01*
X10825380Y3601416D01*
X10826084Y3602120D01*
X10827002Y3602500D01*
X10827500D01*
Y3602500D01*
X10850000Y3602500D01*
X10850497D01*
X10851416Y3602120D01*
X10852119Y3601416D01*
X10852500Y3600497D01*
Y3600000D01*
D01*
Y3580000D01*
D02*
G37*
G36*
X10877500D02*
Y3602500D01*
Y3602997D01*
X10877880Y3603916D01*
X10878584Y3604619D01*
X10879502Y3605000D01*
X10880000D01*
D01*
X10900000D01*
X10900497D01*
X10901416Y3604619D01*
X10902119Y3603916D01*
X10902500Y3602997D01*
Y3602500D01*
X10902500D01*
X10902500Y3580000D01*
Y3579503D01*
X10902119Y3578584D01*
X10901416Y3577881D01*
X10900497Y3577500D01*
X10900000D01*
D01*
X10880000D01*
X10879502D01*
X10878584Y3577881D01*
X10877880Y3578584D01*
X10877500Y3579503D01*
Y3580000D01*
D01*
D02*
G37*
G36*
X10927500Y3450000D02*
Y3450497D01*
X10927880Y3451416D01*
X10928583Y3452119D01*
X10929502Y3452500D01*
X10930000D01*
D01*
X10950000D01*
X10950497D01*
X10951416Y3452119D01*
X10952119Y3451416D01*
X10952500Y3450497D01*
Y3450000D01*
D01*
Y3427500D01*
Y3427003D01*
X10952119Y3426084D01*
X10951416Y3425380D01*
X10950497Y3425000D01*
X10950000D01*
D01*
X10930000D01*
X10929502D01*
X10928583Y3425380D01*
X10927880Y3426084D01*
X10927500Y3427003D01*
Y3427500D01*
X10927500D01*
X10927500Y3450000D01*
D02*
G37*
G36*
X11002500Y3452500D02*
X11002997D01*
X11003916Y3452119D01*
X11004619Y3451416D01*
X11005000Y3450497D01*
Y3450000D01*
D01*
Y3430000D01*
Y3429503D01*
X11004619Y3428584D01*
X11003916Y3427880D01*
X11002997Y3427500D01*
X11002500D01*
Y3427500D01*
X10980000Y3427500D01*
X10979503D01*
X10978584Y3427880D01*
X10977880Y3428584D01*
X10977500Y3429503D01*
Y3430000D01*
D01*
Y3450000D01*
Y3450497D01*
X10977880Y3451416D01*
X10978584Y3452119D01*
X10979503Y3452500D01*
X10980000D01*
D01*
X11002500D01*
D02*
G37*
G36*
X10977500Y3480000D02*
Y3500000D01*
Y3500497D01*
X10977880Y3501416D01*
X10978584Y3502119D01*
X10979503Y3502500D01*
X10980000D01*
Y3502500D01*
X11002500Y3502500D01*
X11002997D01*
X11003916Y3502119D01*
X11004619Y3501416D01*
X11005000Y3500497D01*
Y3500000D01*
D01*
Y3480000D01*
Y3479503D01*
X11004619Y3478584D01*
X11003916Y3477881D01*
X11002997Y3477500D01*
X11002500D01*
D01*
X10980000D01*
X10979503D01*
X10978584Y3477881D01*
X10977880Y3478584D01*
X10977500Y3479503D01*
Y3480000D01*
D01*
D02*
G37*
G36*
X11003916Y3602120D02*
X11004619Y3601416D01*
X11005000Y3600497D01*
Y3600000D01*
Y3580000D01*
Y3579503D01*
X11004619Y3578584D01*
X11003916Y3577881D01*
X11002997Y3577500D01*
X10979503D01*
X10978584Y3577881D01*
X10977880Y3578584D01*
X10977500Y3579503D01*
Y3580000D01*
Y3600000D01*
Y3600497D01*
X10977880Y3601416D01*
X10978584Y3602120D01*
X10979503Y3602500D01*
X10980000D01*
Y3602500D01*
X11002500Y3602500D01*
X11002997D01*
X11003916Y3602120D01*
D02*
G37*
G36*
X10951416Y3604619D02*
X10952119Y3603916D01*
X10952500Y3602997D01*
Y3602500D01*
Y3580000D01*
Y3579503D01*
X10952119Y3578584D01*
X10951416Y3577881D01*
X10950497Y3577500D01*
X10929502D01*
X10928583Y3577881D01*
X10927880Y3578584D01*
X10927500Y3579503D01*
Y3580000D01*
X10927500D01*
X10927500Y3602500D01*
Y3602997D01*
X10927880Y3603916D01*
X10928583Y3604619D01*
X10929502Y3605000D01*
X10950497D01*
X10951416Y3604619D01*
D02*
G37*
G36*
X11003916Y3552119D02*
X11004619Y3551416D01*
X11005000Y3550497D01*
Y3550000D01*
Y3530000D01*
Y3529503D01*
X11004619Y3528584D01*
X11003916Y3527880D01*
X11002997Y3527500D01*
X11002500D01*
Y3527500D01*
X10980000Y3527500D01*
X10979503D01*
X10978584Y3527880D01*
X10977880Y3528584D01*
X10977500Y3529503D01*
Y3530000D01*
Y3550000D01*
Y3550497D01*
X10977880Y3551416D01*
X10978584Y3552119D01*
X10979503Y3552500D01*
X11002997D01*
X11003916Y3552119D01*
D02*
G37*
D20*
X6141117Y3016168D02*
D03*
X6423959Y2733325D02*
D03*
X6530024Y2627262D02*
D03*
X6565381Y2591904D02*
D03*
X6600734Y2556551D02*
D03*
X6706802Y2450484D02*
D03*
X6671445Y2485841D02*
D03*
X6636091Y2521194D02*
D03*
X6211828Y2945457D02*
D03*
X6388602Y2768682D02*
D03*
X6105760Y3051525D02*
D03*
X6070407Y3086878D02*
D03*
X5858275Y3299010D02*
D03*
X5822918Y3334367D02*
D03*
X6176471Y2980814D02*
D03*
X7661396Y4536446D02*
D03*
X8121012Y4076829D02*
D03*
X6035050Y3122235D02*
D03*
X6494670Y2662615D02*
D03*
X6989644Y2167641D02*
D03*
X7307843Y4889999D02*
D03*
X7343196Y4854645D02*
D03*
X7378553Y4819288D02*
D03*
X7413907Y4783935D02*
D03*
X7449264Y4748578D02*
D03*
X7484617Y4713224D02*
D03*
X7519975Y4677867D02*
D03*
X7555328Y4642514D02*
D03*
X7590685Y4607157D02*
D03*
X7626039Y4571803D02*
D03*
X7696749Y4501093D02*
D03*
X7732106Y4465736D02*
D03*
X7767460Y4430382D02*
D03*
X7802817Y4395025D02*
D03*
X7838170Y4359671D02*
D03*
X7873528Y4324314D02*
D03*
X7908881Y4288961D02*
D03*
X7944238Y4253604D02*
D03*
X7979591Y4218250D02*
D03*
X8014948Y4182893D02*
D03*
X8050302Y4147540D02*
D03*
X8085659Y4112183D02*
D03*
X8156370Y4041472D02*
D03*
X8191723Y4006119D02*
D03*
X8227080Y3970762D02*
D03*
X8262434Y3935408D02*
D03*
X8297791Y3900051D02*
D03*
X8333144Y3864698D02*
D03*
X8368501Y3829341D02*
D03*
X8403854Y3793987D02*
D03*
X8439211Y3758630D02*
D03*
X8474565Y3723277D02*
D03*
X8509922Y3687920D02*
D03*
X8545276Y3652566D02*
D03*
X7024997Y2132288D02*
D03*
X6954287Y2202998D02*
D03*
X6918933Y2238352D02*
D03*
X6883576Y2273709D02*
D03*
X6848223Y2309062D02*
D03*
X6812866Y2344419D02*
D03*
X6777512Y2379773D02*
D03*
X6742155Y2415130D02*
D03*
X6459313Y2697972D02*
D03*
X6353249Y2804036D02*
D03*
X6317892Y2839393D02*
D03*
X6282538Y2874747D02*
D03*
X6247181Y2910104D02*
D03*
X5999696Y3157589D02*
D03*
X5964339Y3192946D02*
D03*
X5928986Y3228299D02*
D03*
X5893629Y3263656D02*
D03*
X5787565Y3369720D02*
D03*
D21*
X8227080Y3051528D02*
D03*
X8262434Y3086882D02*
D03*
X8297791Y3122239D02*
D03*
X8333144Y3157592D02*
D03*
X6671448Y4536446D02*
D03*
X6706805Y4571803D02*
D03*
X7626039Y2450487D02*
D03*
X7590685Y2415134D02*
D03*
X6742159Y4607157D02*
D03*
X5999700Y3864698D02*
D03*
X6035053Y3900051D02*
D03*
X6848226Y4713224D02*
D03*
X6459317Y4324315D02*
D03*
X6423963Y4288961D02*
D03*
X8509922Y3334371D02*
D03*
X8014948Y2839397D02*
D03*
X6636095Y4501093D02*
D03*
X8545276Y3369724D02*
D03*
X8474565Y3299013D02*
D03*
X8439211Y3263660D02*
D03*
X8403854Y3228303D02*
D03*
X8368501Y3192949D02*
D03*
X8191723Y3016171D02*
D03*
X8156370Y2980818D02*
D03*
X8121012Y2945461D02*
D03*
X8085659Y2910107D02*
D03*
X8050302Y2874750D02*
D03*
X7979591Y2804040D02*
D03*
X7944238Y2768686D02*
D03*
X7908881Y2733329D02*
D03*
X7873527Y2697976D02*
D03*
X7838170Y2662619D02*
D03*
X7802817Y2627265D02*
D03*
X7767460Y2591908D02*
D03*
X7732106Y2556555D02*
D03*
X7696749Y2521198D02*
D03*
X7661396Y2485844D02*
D03*
X7555328Y2379777D02*
D03*
X7519975Y2344423D02*
D03*
X7484617Y2309066D02*
D03*
X7449264Y2273712D02*
D03*
X7413907Y2238355D02*
D03*
X7378553Y2203002D02*
D03*
X7343196Y2167645D02*
D03*
X7307843Y2132291D02*
D03*
X5787568Y3652566D02*
D03*
X5822922Y3687920D02*
D03*
X5858279Y3723277D02*
D03*
X5893632Y3758630D02*
D03*
X5928989Y3793987D02*
D03*
X5964343Y3829341D02*
D03*
X6070411Y3935408D02*
D03*
X6105764Y3970762D02*
D03*
X6141121Y4006119D02*
D03*
X6176474Y4041472D02*
D03*
X6211831Y4076829D02*
D03*
X6247185Y4112183D02*
D03*
X6282542Y4147540D02*
D03*
X6317895Y4182893D02*
D03*
X6353252Y4218250D02*
D03*
X6388606Y4253604D02*
D03*
X6494674Y4359672D02*
D03*
X6530027Y4395025D02*
D03*
X6565384Y4430382D02*
D03*
X6600738Y4465736D02*
D03*
X6777516Y4642514D02*
D03*
X6812869Y4677867D02*
D03*
X6883580Y4748578D02*
D03*
X6918937Y4783935D02*
D03*
X6954290Y4819288D02*
D03*
X6989647Y4854645D02*
D03*
X7025001Y4889999D02*
D03*
D22*
X5807500Y4642500D02*
D03*
X8784999Y4412499D02*
D03*
X5907500Y4642500D02*
D03*
X6057500D02*
D03*
X6007500D02*
D03*
X5957500D02*
D03*
X5857500D02*
D03*
X5807500Y4297500D02*
D03*
X5857500D02*
D03*
X5907500Y4297500D02*
D03*
X5957500D02*
D03*
X6007500D02*
D03*
X6057500D02*
D03*
X8784999Y4807500D02*
D03*
X8935002Y4412499D02*
D03*
Y4807500D02*
D03*
D23*
X15610001Y5884997D02*
D03*
X15545001D02*
D03*
X15545004Y5434997D02*
D03*
X15480003Y5884997D02*
D03*
X15480005Y5434997D02*
D03*
X15610002D02*
D03*
X15480005Y4984997D02*
D03*
X15545004D02*
D03*
X15610002D02*
D03*
X15609998Y4534997D02*
D03*
X15545004Y4084997D02*
D03*
X15610002D02*
D03*
X15480000Y4534997D02*
D03*
X15545000D02*
D03*
X15480005Y4084997D02*
D03*
Y3634998D02*
D03*
X15610002D02*
D03*
X15545004D02*
D03*
X15609998Y3184998D02*
D03*
X15545004Y2734998D02*
D03*
X15610002D02*
D03*
X15480000Y3184998D02*
D03*
X15545000D02*
D03*
X15480005Y2734998D02*
D03*
X15609998Y2284998D02*
D03*
X15545000Y1834998D02*
D03*
X15609998D02*
D03*
X15545000Y2284998D02*
D03*
X15480000D02*
D03*
Y1834998D02*
D03*
X15415004Y5582737D02*
D03*
X15480003D02*
D03*
X15545001D02*
D03*
X15610001D02*
D03*
X15415004Y5884997D02*
D03*
X15415001Y1532738D02*
D03*
X15480000D02*
D03*
X15545000D02*
D03*
X15609998D02*
D03*
X15415001Y1834998D02*
D03*
X15415007Y3634998D02*
D03*
X15610002Y3332738D02*
D03*
X15545004D02*
D03*
X15480005D02*
D03*
X15415007D02*
D03*
Y2734998D02*
D03*
X15610002Y2432738D02*
D03*
X15545004D02*
D03*
X15480005D02*
D03*
X15415007D02*
D03*
X15415001Y4534997D02*
D03*
X15609998Y4232737D02*
D03*
X15545000D02*
D03*
X15480000D02*
D03*
X15415001D02*
D03*
X15415007Y5434997D02*
D03*
X15610002Y5132737D02*
D03*
X15545004D02*
D03*
X15480005D02*
D03*
X15415007D02*
D03*
X15415001Y3184998D02*
D03*
X15609998Y2882738D02*
D03*
X15545000D02*
D03*
X15480000D02*
D03*
X15415001D02*
D03*
X15415007Y4084997D02*
D03*
X15610002Y3782737D02*
D03*
X15545004D02*
D03*
X15480005D02*
D03*
X15415007D02*
D03*
X15415001Y2284998D02*
D03*
X15609998Y1982738D02*
D03*
X15545000D02*
D03*
X15480000D02*
D03*
X15415001D02*
D03*
X15415007Y4984997D02*
D03*
X15610002Y4682737D02*
D03*
X15545004D02*
D03*
X15480005D02*
D03*
X15415007D02*
D03*
D24*
X13406996Y5454500D02*
D03*
Y5708500D02*
D03*
Y5038500D02*
D03*
Y4784500D02*
D03*
X12626997Y5708500D02*
D03*
Y5454500D02*
D03*
Y5038500D02*
D03*
X13406996Y4368501D02*
D03*
Y4114501D02*
D03*
Y3698501D02*
D03*
X12626997Y4784500D02*
D03*
Y4368501D02*
D03*
Y4114501D02*
D03*
Y3698501D02*
D03*
X13406996Y3444501D02*
D03*
X12626997D02*
D03*
X13406996Y2774501D02*
D03*
Y3028501D02*
D03*
X12626997D02*
D03*
Y2774501D02*
D03*
X13406996Y5835500D02*
D03*
Y5581500D02*
D03*
X13952995Y5835500D02*
D03*
Y5708500D02*
D03*
Y5581500D02*
D03*
Y5454500D02*
D03*
X12626997Y3155501D02*
D03*
Y2901501D02*
D03*
X13172997Y3155501D02*
D03*
Y3028501D02*
D03*
Y2901501D02*
D03*
Y2774501D02*
D03*
X13406996Y3155501D02*
D03*
Y2901501D02*
D03*
X13952995Y3155501D02*
D03*
Y3028501D02*
D03*
Y2901501D02*
D03*
Y2774501D02*
D03*
X12626997Y3825501D02*
D03*
Y3571501D02*
D03*
X13172997Y3825501D02*
D03*
Y3698501D02*
D03*
Y3571501D02*
D03*
Y3444501D02*
D03*
X13406996Y3825501D02*
D03*
Y3571501D02*
D03*
X13952995Y3825501D02*
D03*
Y3698501D02*
D03*
Y3571501D02*
D03*
Y3444501D02*
D03*
X12626997Y4495501D02*
D03*
Y4241501D02*
D03*
X13172997Y4495501D02*
D03*
Y4368501D02*
D03*
Y4241501D02*
D03*
Y4114501D02*
D03*
X13406996Y4495501D02*
D03*
Y4241501D02*
D03*
X13952995Y4495501D02*
D03*
Y4368501D02*
D03*
Y4241501D02*
D03*
Y4114501D02*
D03*
X12626997Y5165500D02*
D03*
Y4911500D02*
D03*
X13172997Y5165500D02*
D03*
Y5038500D02*
D03*
Y4911500D02*
D03*
Y4784500D02*
D03*
X13406996Y5165500D02*
D03*
Y4911500D02*
D03*
X13952995Y5165500D02*
D03*
Y5038500D02*
D03*
Y4911500D02*
D03*
Y4784500D02*
D03*
X12626997Y5835500D02*
D03*
Y5581500D02*
D03*
X13172997Y5835500D02*
D03*
Y5708500D02*
D03*
Y5581500D02*
D03*
Y5454500D02*
D03*
D25*
X12279997Y5190000D02*
D03*
X11199997D02*
D03*
X11739997D02*
D03*
X10659997D02*
D03*
X10119997D02*
D03*
X9579997D02*
D03*
X9039997D02*
D03*
X8499997D02*
D03*
X9579997Y5789998D02*
D03*
X9452997D02*
D03*
X9325997D02*
D03*
X9198997D02*
D03*
X9452997Y5190000D02*
D03*
X9325997D02*
D03*
X10119997Y5789998D02*
D03*
X9992997D02*
D03*
X9865997D02*
D03*
X9738997D02*
D03*
X9992997Y5190000D02*
D03*
X9865997D02*
D03*
X9039997Y5789998D02*
D03*
X8912997D02*
D03*
X8785997D02*
D03*
X8658997D02*
D03*
X8912997Y5190000D02*
D03*
X8785997D02*
D03*
X8245997D02*
D03*
X8372997D02*
D03*
X8118997Y5789998D02*
D03*
X8245997D02*
D03*
X8372997D02*
D03*
X8499997D02*
D03*
X11199997D02*
D03*
X11072997D02*
D03*
X10945997D02*
D03*
X10818997D02*
D03*
X11072997Y5190000D02*
D03*
X10945997D02*
D03*
X12279997Y5789998D02*
D03*
X12152997D02*
D03*
X12025997D02*
D03*
X11898997D02*
D03*
X12152997Y5190000D02*
D03*
X12025997D02*
D03*
X10659997Y5789998D02*
D03*
X10532997D02*
D03*
X10405997D02*
D03*
X10278997D02*
D03*
X10532997Y5190000D02*
D03*
X10405997D02*
D03*
X11739997Y5789998D02*
D03*
X11612997D02*
D03*
X11485997D02*
D03*
X11358997D02*
D03*
X11612997Y5190000D02*
D03*
X11485997D02*
D03*
D26*
X11786250Y3600000D02*
D03*
Y3500000D02*
D03*
Y3400000D02*
D03*
Y3349998D02*
D03*
Y3649997D02*
D03*
Y3549997D02*
D03*
Y3449998D02*
D03*
X11533749Y3349998D02*
D03*
Y3400000D02*
D03*
Y3449998D02*
D03*
Y3500000D02*
D03*
Y3549997D02*
D03*
Y3600000D02*
D03*
Y3649997D02*
D03*
D27*
X15020001Y1195001D02*
D03*
X5180000Y2845000D02*
D03*
X5340000D02*
D03*
X15180000Y1195001D02*
D03*
D28*
X13135001Y1575001D02*
D03*
X9215000Y1830000D02*
D03*
X3650000Y2210000D02*
D03*
X4205000Y2205000D02*
D03*
X9355000Y1830000D02*
D03*
X3790000Y2210000D02*
D03*
X4065000Y2205000D02*
D03*
X12995003Y1575001D02*
D03*
D29*
X13425002Y1335002D02*
D03*
X14045000D02*
D03*
D30*
X12040000Y1180000D02*
D03*
X11810000D02*
D03*
X12270000D02*
D03*
D31*
X11800000Y2031200D02*
D03*
X12100000D02*
D03*
D32*
X11560001Y2395002D02*
D03*
Y1635000D02*
D03*
X14255000Y5809994D02*
D03*
Y5649994D02*
D03*
Y1759995D02*
D03*
Y1599995D02*
D03*
Y2209995D02*
D03*
Y2049995D02*
D03*
X14254997Y5359996D02*
D03*
Y5199992D02*
D03*
Y4909991D02*
D03*
Y4749992D02*
D03*
Y4459997D02*
D03*
Y4299997D02*
D03*
Y4009997D02*
D03*
Y3849992D02*
D03*
Y3559992D02*
D03*
Y3399992D02*
D03*
Y3109997D02*
D03*
Y2949997D02*
D03*
Y2659997D02*
D03*
Y2499992D02*
D03*
X11560001Y2234997D02*
D03*
Y1475000D02*
D03*
D33*
X12040000Y1800000D02*
D03*
D34*
X10707502Y4679998D02*
D03*
Y4555000D02*
D03*
Y4805002D02*
D03*
Y4430001D02*
D03*
X10927502D02*
D03*
Y4555000D02*
D03*
Y4679998D02*
D03*
Y4805002D02*
D03*
X5800001Y2880002D02*
D03*
Y2739997D02*
D03*
D35*
X6622500Y5632501D02*
D03*
X2417498Y4969999D02*
D03*
X6622500Y5697501D02*
D03*
Y5762501D02*
D03*
Y5567501D02*
D03*
Y5502501D02*
D03*
X6037500D02*
D03*
Y5567501D02*
D03*
Y5762501D02*
D03*
Y5697501D02*
D03*
Y5632501D02*
D03*
Y5437500D02*
D03*
Y5372500D02*
D03*
Y5307500D02*
D03*
Y5242500D02*
D03*
Y5047500D02*
D03*
Y5112500D02*
D03*
Y5177500D02*
D03*
X6622500D02*
D03*
Y5112500D02*
D03*
Y5047500D02*
D03*
Y5242500D02*
D03*
Y5307500D02*
D03*
Y5372500D02*
D03*
Y5437500D02*
D03*
X2417498Y5229998D02*
D03*
Y5034998D02*
D03*
Y5100001D02*
D03*
X2417499Y5165000D02*
D03*
D36*
X8860001Y4609999D02*
D03*
D37*
X8687499Y4585001D02*
D03*
X5735000Y4545000D02*
D03*
X8687499Y4485001D02*
D03*
X6130000Y4545000D02*
D03*
X5735000Y4395000D02*
D03*
X6130000D02*
D03*
X8687499Y4734998D02*
D03*
Y4685001D02*
D03*
Y4634998D02*
D03*
Y4534998D02*
D03*
X9032502Y4485001D02*
D03*
Y4534998D02*
D03*
X9032502Y4585001D02*
D03*
X9032502Y4634998D02*
D03*
Y4685001D02*
D03*
Y4734998D02*
D03*
D38*
X10230003Y3736250D02*
D03*
X10080000D02*
D03*
X10180000Y3273752D02*
D03*
X10129998D02*
D03*
X10230003D02*
D03*
X10080000D02*
D03*
X10129998Y3736250D02*
D03*
X10180000D02*
D03*
D39*
X9998751Y3730002D02*
D03*
X10311252Y3530002D02*
D03*
Y3730002D02*
D03*
Y3679999D02*
D03*
Y3630002D02*
D03*
Y3580000D02*
D03*
Y3480000D02*
D03*
Y3430003D02*
D03*
Y3380000D02*
D03*
Y3330003D02*
D03*
Y3280000D02*
D03*
X9998751D02*
D03*
Y3330003D02*
D03*
Y3380000D02*
D03*
Y3430003D02*
D03*
Y3480000D02*
D03*
Y3530002D02*
D03*
Y3580000D02*
D03*
Y3630002D02*
D03*
Y3679999D02*
D03*
D41*
X6037500Y4972500D02*
D03*
Y5837501D02*
D03*
X6622500Y4972500D02*
D03*
Y5837501D02*
D03*
D42*
X5932500Y4470000D02*
D03*
D43*
X4328748Y5857250D02*
D03*
D44*
X4341250Y5061249D02*
D03*
Y5611251D02*
D03*
Y5501248D02*
D03*
Y5391251D02*
D03*
X4341250Y5281249D02*
D03*
X4341250Y5171252D02*
D03*
X4341250Y4951252D02*
D03*
D45*
X2150001Y5214997D02*
D03*
X2150001Y4985000D02*
D03*
D46*
X4306249Y4725248D02*
D03*
D49*
X3000000Y3550000D02*
D03*
X9950000Y1835000D02*
D03*
Y1695000D02*
D03*
X3000000Y3410000D02*
D03*
D50*
X10104998Y2154999D02*
D03*
Y2345001D02*
D03*
X10305003Y2250000D02*
D03*
D51*
X8598800Y2120491D02*
D03*
Y2374491D02*
D03*
Y2247491D02*
D03*
X9141200Y2120491D02*
D03*
Y2247491D02*
D03*
Y2374491D02*
D03*
Y2501491D02*
D03*
X8598800D02*
D03*
D52*
X9735000Y1835000D02*
D03*
X9625000Y1695000D02*
D03*
Y1835000D02*
D03*
X9735000Y1695000D02*
D03*
D53*
X9980000Y1425000D02*
D03*
X9690000Y1375000D02*
D03*
X9980000D02*
D03*
Y1325000D02*
D03*
Y1275000D02*
D03*
X9690000D02*
D03*
Y1325000D02*
D03*
Y1425000D02*
D03*
D54*
X9835000Y1350000D02*
D03*
D55*
X9345000Y1655000D02*
D03*
Y1265000D02*
D03*
Y1330000D02*
D03*
Y1395000D02*
D03*
Y1460000D02*
D03*
Y1525000D02*
D03*
Y1590000D02*
D03*
X9055000Y1655000D02*
D03*
Y1590000D02*
D03*
Y1525000D02*
D03*
Y1460000D02*
D03*
Y1395000D02*
D03*
Y1330000D02*
D03*
Y1265000D02*
D03*
D56*
X7249999Y1825001D02*
D03*
X7080002Y1954998D02*
D03*
Y1825001D02*
D03*
X7249999Y1954998D02*
D03*
D57*
X9200000Y1460000D02*
D03*
D58*
X7813640Y1433500D02*
D03*
Y1306500D02*
D03*
Y1179500D02*
D03*
X8296360D02*
D03*
Y1306500D02*
D03*
Y1433500D02*
D03*
Y1560500D02*
D03*
D59*
X5977364Y2248432D02*
D03*
D60*
X5850085Y2156506D02*
D03*
X6033932Y2411068D02*
D03*
X6069289Y2375711D02*
D03*
X6104643Y2340357D02*
D03*
X6140000Y2305000D02*
D03*
X5920795Y2085796D02*
D03*
X5885438Y2121153D02*
D03*
X5814728Y2191863D02*
D03*
D61*
X7285000Y1284999D02*
D03*
Y1365000D02*
D03*
Y1445000D02*
D03*
X7065000D02*
D03*
Y1365000D02*
D03*
Y1284999D02*
D03*
X7025000Y5576361D02*
D03*
Y5656361D02*
D03*
Y5736361D02*
D03*
X7245000D02*
D03*
X7245000Y5656361D02*
D03*
Y5576361D02*
D03*
D62*
X14460001Y5654994D02*
D03*
Y5804994D02*
D03*
X14460001Y5354995D02*
D03*
Y4904996D02*
D03*
Y4454991D02*
D03*
Y4004996D02*
D03*
Y3554996D02*
D03*
Y2654996D02*
D03*
Y2204996D02*
D03*
Y1754991D02*
D03*
Y3104991D02*
D03*
X5340000Y3145000D02*
D03*
Y2995000D02*
D03*
X11559998Y1290001D02*
D03*
Y1139999D02*
D03*
X11560000Y2055001D02*
D03*
Y1904999D02*
D03*
X14460001Y1604994D02*
D03*
Y3404999D02*
D03*
Y2504994D02*
D03*
Y4304993D02*
D03*
Y5204993D02*
D03*
Y2954994D02*
D03*
Y3854994D02*
D03*
Y2054999D02*
D03*
Y4754993D02*
D03*
D63*
X15512502Y5658227D02*
D03*
Y1608227D02*
D03*
Y3408226D02*
D03*
Y2508227D02*
D03*
Y4308226D02*
D03*
Y5208226D02*
D03*
Y2958226D02*
D03*
Y3858226D02*
D03*
Y2058227D02*
D03*
Y4758226D02*
D03*
D65*
X15122501Y5729994D02*
D03*
X14717500D02*
D03*
X14717499Y5279996D02*
D03*
X14717503Y4829996D02*
D03*
X14717500Y4379997D02*
D03*
X14717499Y3929997D02*
D03*
X14717500Y3479997D02*
D03*
X14717499Y2579997D02*
D03*
X14717500Y2129997D02*
D03*
X14722501Y1679997D02*
D03*
X14717500Y3029997D02*
D03*
X15127498Y1679997D02*
D03*
X15122499Y3479997D02*
D03*
X15122502Y2579997D02*
D03*
X15122498Y4379997D02*
D03*
X15122502Y5279996D02*
D03*
X15122498Y3029997D02*
D03*
X15122502Y3929997D02*
D03*
X15122499Y2129997D02*
D03*
X15122501Y4829996D02*
D03*
D66*
X7813640Y1560500D02*
D03*
D67*
X11950000Y2040000D02*
D03*
D68*
Y2270000D02*
D03*
D69*
X15495001Y1195000D02*
D03*
X15345000D02*
D03*
D70*
X2962144Y3010000D02*
D03*
X3037856D02*
D03*
X5057857Y3075000D02*
D03*
X4982144D02*
D03*
X3037857Y3200000D02*
D03*
X2962144D02*
D03*
X4982144Y3275000D02*
D03*
X5057856D02*
D03*
D71*
X4185000Y4137144D02*
D03*
Y4212856D02*
D03*
D72*
X12550000Y2324999D02*
D03*
Y1895002D02*
D03*
X2910000Y4640000D02*
D03*
Y5070000D02*
D03*
D73*
X9198997Y5190000D02*
D03*
X9738997D02*
D03*
X8658997D02*
D03*
X8118997D02*
D03*
X10818997D02*
D03*
X11898997D02*
D03*
X10278997D02*
D03*
X11358997D02*
D03*
D74*
X11285001Y1570001D02*
D03*
X11285001Y2269999D02*
D03*
X10585002Y1570000D02*
D03*
Y2269999D02*
D03*
D75*
X12537499Y1579998D02*
D03*
X12772499D02*
D03*
D76*
X12604891Y1244999D02*
D03*
X13095111D02*
D03*
D77*
X11659997Y3298746D02*
D03*
Y3701249D02*
D03*
D79*
X3258748Y4927752D02*
D03*
Y5524748D02*
D03*
D80*
X3726250Y5874750D02*
D03*
X3356248D02*
D03*
D81*
X4341250Y4846248D02*
D03*
D82*
X5814728Y2305000D02*
D03*
X5850085Y2340357D02*
D03*
X5885438Y2375711D02*
D03*
X5920795Y2411068D02*
D03*
X6140000Y2191863D02*
D03*
X6104643Y2156506D02*
D03*
X6069289Y2121152D02*
D03*
X6033932Y2085795D02*
D03*
D84*
X2150000Y5438765D02*
D03*
X2149993Y4761259D02*
D03*
D133*
X3577520Y2489999D02*
D03*
Y2589998D02*
D03*
X4232520Y2489999D02*
D03*
Y2589998D02*
D03*
Y3910001D02*
D03*
Y3810001D02*
D03*
X3577520Y3910001D02*
D03*
Y3810001D02*
D03*
X3957519Y3910001D02*
D03*
Y3810001D02*
D03*
Y2489999D02*
D03*
Y2589998D02*
D03*
D134*
X3662521Y2489999D02*
D03*
Y2589998D02*
D03*
X3767520Y2489999D02*
D03*
Y2589998D02*
D03*
X3852518Y2489999D02*
D03*
Y2589998D02*
D03*
X4147519Y2489999D02*
D03*
Y2589998D02*
D03*
X4337521Y2489999D02*
D03*
Y2589998D02*
D03*
X4422519Y2489999D02*
D03*
Y2589998D02*
D03*
Y3910001D02*
D03*
Y3810001D02*
D03*
X4337521Y3910001D02*
D03*
Y3810001D02*
D03*
X4147519Y3910001D02*
D03*
Y3810001D02*
D03*
X3852518Y3910001D02*
D03*
Y3810001D02*
D03*
X3767520Y3910001D02*
D03*
Y3810001D02*
D03*
X3662521Y3910001D02*
D03*
Y3810001D02*
D03*
X4042520Y3910001D02*
D03*
Y3810001D02*
D03*
Y2489999D02*
D03*
Y2589998D02*
D03*
D135*
X4710020Y2777501D02*
D03*
X4610020D02*
D03*
X4710020Y2862500D02*
D03*
X4610020D02*
D03*
X4710020Y3537500D02*
D03*
X4610020D02*
D03*
X4710020Y3622498D02*
D03*
X4610020D02*
D03*
X4710020Y2967549D02*
D03*
X4610020D02*
D03*
X4710020Y3432450D02*
D03*
X4610020D02*
D03*
X4710020Y3242499D02*
D03*
X4610020D02*
D03*
X4710020Y3157500D02*
D03*
X4610020D02*
D03*
D136*
X3290020Y3622498D02*
D03*
X3390020D02*
D03*
X3290020Y3537500D02*
D03*
X3390020D02*
D03*
X3290020Y2862500D02*
D03*
X3390020D02*
D03*
X3290020Y2777501D02*
D03*
X3390020D02*
D03*
X3290020Y2967498D02*
D03*
X3390020D02*
D03*
X3290020Y3432450D02*
D03*
X3390020D02*
D03*
X3290020Y3242499D02*
D03*
X3390020D02*
D03*
X3290020Y3157500D02*
D03*
X3390020D02*
D03*
D137*
X3290020Y3052550D02*
D03*
X3390020D02*
D03*
X3290020Y3347449D02*
D03*
X3390020D02*
D03*
D138*
X4710020Y3052550D02*
D03*
X4610020D02*
D03*
X4710020Y3347449D02*
D03*
X4610020D02*
D03*
%TF.MD5,65f4ce80816fd57d57d1f58024738e5a*%
M02*
