%TF.GenerationSoftware,Altium Limited,Altium Designer,22.4.2 (48)*%
G04 Layer_Color=128*
%FSLAX45Y45*%
%MOMM*%
%TF.SameCoordinates,3A7B4B19-9BDF-4AC5-8A71-DEF6C9DA19E2*%
%TF.FilePolarity,Positive*%
%TF.FileFunction,Drillmap*%
%TF.Part,Single*%
G01*
G75*
%TA.AperFunction,NonConductor*%
%ADD132C,0.12700*%
D132*
X5269999Y1630000D02*
X5329998D01*
X5299999Y1600000D02*
Y1660000D01*
X5020002Y1630000D02*
X5080002D01*
X5050002Y1600000D02*
Y1660000D01*
X4894998Y1630000D02*
X4954998D01*
X4924998Y1600000D02*
Y1660000D01*
X4645001Y1630000D02*
X4705001D01*
X4675001Y1600000D02*
Y1660000D01*
X4520003Y1630000D02*
X4580003D01*
X4550003Y1600000D02*
Y1660000D01*
X4270000Y1630000D02*
X4330000D01*
X4300000Y1600000D02*
Y1660000D01*
X4145002Y1630000D02*
X4205002D01*
X4175002Y1600000D02*
Y1660000D01*
X3895000Y1630000D02*
X3955000D01*
X3925000Y1600000D02*
Y1660000D01*
X3770002Y1630000D02*
X3830001D01*
X3800002Y1600000D02*
Y1660000D01*
X3770001Y1505001D02*
X3830001D01*
X3800001Y1475001D02*
Y1535001D01*
X16085001Y2460000D02*
X16355000D01*
X16220000Y2325000D02*
Y2595000D01*
X16670000Y2250000D02*
X16730000D01*
X16700000Y2220000D02*
Y2280000D01*
X16795000Y2250000D02*
X16855000D01*
X16825000Y2220000D02*
Y2280000D01*
X13400000Y2315000D02*
X13500000D01*
X13450000Y2265000D02*
Y2365000D01*
X9747000Y4199999D02*
X9853000D01*
X9800000Y4146999D02*
Y4252999D01*
X2417500Y5322500D02*
X2482500D01*
X2450000Y5290000D02*
Y5355000D01*
X2120001Y5517501D02*
X2180001D01*
X2150001Y5487501D02*
Y5547501D01*
X2417500Y4877497D02*
X2482500D01*
X2450000Y4844997D02*
Y4909998D01*
X2120001Y4682502D02*
X2180001D01*
X2150001Y4652502D02*
Y4712502D01*
X9747000Y2699999D02*
X9853000D01*
X9800000Y2646999D02*
Y2752999D01*
X6454999Y1744000D02*
X6544999D01*
X6499999Y1699000D02*
Y1789000D01*
X5145000Y1630000D02*
X5205000D01*
X5175000Y1600000D02*
Y1660000D01*
X5145000Y1505001D02*
X5205000D01*
X5175000Y1475001D02*
Y1535001D01*
X4770000Y1630000D02*
X4829999D01*
X4800000Y1600000D02*
Y1660000D01*
X4394999Y1630000D02*
X4454999D01*
X4424999Y1600000D02*
Y1660000D01*
X4394999Y1505001D02*
X4454999D01*
X4424999Y1475001D02*
Y1535001D01*
X4770000Y1505001D02*
X4829999D01*
X4800000Y1475001D02*
Y1535001D01*
X4019999Y1630000D02*
X4079998D01*
X4049999Y1600000D02*
Y1660000D01*
X4019999Y1505001D02*
X4079998D01*
X4049999Y1475001D02*
Y1535001D01*
X10246999Y4199999D02*
X10352999D01*
X10299999Y4146999D02*
Y4252999D01*
X9997002Y4199999D02*
X10103002D01*
X10050002Y4146999D02*
Y4252999D01*
X9496998Y4199999D02*
X9602998D01*
X9549998Y4146999D02*
Y4252999D01*
X11296998Y4200002D02*
X11402998D01*
X11349998Y4147002D02*
Y4253001D01*
X11547000Y4200002D02*
X11653000D01*
X11600000Y4147002D02*
Y4253001D01*
X11797002Y4200002D02*
X11903002D01*
X11850002Y4147002D02*
Y4253001D01*
X12046999Y4200001D02*
X12152999D01*
X12099999Y4147001D02*
Y4253001D01*
X5269998Y1505001D02*
X5329998D01*
X5299998Y1475001D02*
Y1535001D01*
X5020002Y1505001D02*
X5080002D01*
X5050002Y1475001D02*
Y1535001D01*
X4894998Y1505001D02*
X4954998D01*
X4924998Y1475001D02*
Y1535001D01*
X4645001Y1505001D02*
X4705001D01*
X4675001Y1475001D02*
Y1535001D01*
X4520003Y1505001D02*
X4580003D01*
X4550003Y1475001D02*
Y1535001D01*
X4270001Y1505001D02*
X4330000D01*
X4300001Y1475001D02*
Y1535001D01*
X4145002Y1505001D02*
X4205002D01*
X4175002Y1475001D02*
Y1535001D01*
X3895000Y1505001D02*
X3955000D01*
X3925000Y1475001D02*
Y1535001D01*
X5580001Y1630000D02*
X5800001D01*
X5690001Y1519999D02*
Y1740000D01*
X3300000Y1630000D02*
X3520000D01*
X3410000Y1520000D02*
Y1740000D01*
X6200999Y1744000D02*
X6290999D01*
X6245999Y1699000D02*
Y1789000D01*
X6200999Y1490000D02*
X6290999D01*
X6245999Y1445000D02*
Y1535000D01*
X6454999Y1490000D02*
X6544999D01*
X6499999Y1445000D02*
Y1535000D01*
X6200999Y1236000D02*
X6290998D01*
X6245998Y1191000D02*
Y1281000D01*
X6454999Y1236000D02*
X6544999D01*
X6499999Y1191000D02*
Y1281000D01*
X13653999Y2315000D02*
X13753999D01*
X13703999Y2265000D02*
Y2365000D01*
X16085001Y1959996D02*
X16355000D01*
X16220000Y1824996D02*
Y2094996D01*
X16670000Y4875000D02*
X16730000D01*
X16700000Y4845000D02*
Y4905000D01*
X16795000Y4875000D02*
X16855000D01*
X16825000Y4845000D02*
Y4905000D01*
X16670000Y4625000D02*
X16730000D01*
X16700000Y4595000D02*
Y4655000D01*
X16795000Y4625000D02*
X16855000D01*
X16825000Y4595000D02*
Y4655000D01*
X16670000Y4375000D02*
X16730000D01*
X16700000Y4345000D02*
Y4405000D01*
X16795000Y4375000D02*
X16855000D01*
X16825000Y4345000D02*
Y4405000D01*
X16670000Y4125000D02*
X16730000D01*
X16700000Y4095000D02*
Y4155000D01*
X16795000Y4125000D02*
X16855000D01*
X16825000Y4095000D02*
Y4155000D01*
X16670000Y3875000D02*
X16730000D01*
X16700000Y3845000D02*
Y3905000D01*
X16795000Y3875000D02*
X16855000D01*
X16825000Y3845000D02*
Y3905000D01*
X16670000Y3625000D02*
X16730000D01*
X16700000Y3595000D02*
Y3655000D01*
X16795000Y3625000D02*
X16855000D01*
X16825000Y3595000D02*
Y3655000D01*
X16670000Y3375000D02*
X16730000D01*
X16700000Y3345000D02*
Y3405000D01*
X16795000Y3375000D02*
X16855000D01*
X16825000Y3345000D02*
Y3405000D01*
X16670000Y3125000D02*
X16730000D01*
X16700000Y3095000D02*
Y3155000D01*
X16795000Y3125000D02*
X16855000D01*
X16825000Y3095000D02*
Y3155000D01*
X16670000Y2875000D02*
X16730000D01*
X16700000Y2845000D02*
Y2905000D01*
X16795000Y2875000D02*
X16855000D01*
X16825000Y2845000D02*
Y2905000D01*
X16670000Y2625000D02*
X16730000D01*
X16700000Y2595000D02*
Y2655000D01*
X16795000Y2625000D02*
X16855000D01*
X16825000Y2595000D02*
Y2655000D01*
X16670000Y2500000D02*
X16730000D01*
X16700000Y2470000D02*
Y2530000D01*
X16795000Y2375000D02*
X16855000D01*
X16825000Y2345000D02*
Y2405000D01*
X16795000Y2500000D02*
X16855000D01*
X16825000Y2470000D02*
Y2530000D01*
X16670000Y2125000D02*
X16730000D01*
X16700000Y2095000D02*
Y2155000D01*
X16795000Y2125000D02*
X16855000D01*
X16825000Y2095000D02*
Y2155000D01*
X16670000Y2375000D02*
X16730000D01*
X16700000Y2345000D02*
Y2405000D01*
X16670000Y2000000D02*
X16730000D01*
X16700000Y1970000D02*
Y2030000D01*
X16795000Y2000000D02*
X16855000D01*
X16825000Y1970000D02*
Y2030000D01*
X16589999Y1610000D02*
X16810001D01*
X16700000Y1500000D02*
Y1720000D01*
X16589999Y5390000D02*
X16810001D01*
X16700000Y5280000D02*
Y5500000D01*
X16795000Y2750000D02*
X16855000D01*
X16825000Y2720000D02*
Y2780000D01*
X16795000Y3000000D02*
X16855000D01*
X16825000Y2970000D02*
Y3030000D01*
X16795000Y3250000D02*
X16855000D01*
X16825000Y3220000D02*
Y3280000D01*
X16795000Y3500000D02*
X16855000D01*
X16825000Y3470000D02*
Y3530000D01*
X16795000Y3750000D02*
X16855000D01*
X16825000Y3720000D02*
Y3780000D01*
X16795000Y4000000D02*
X16855000D01*
X16825000Y3970000D02*
Y4030000D01*
X16795000Y4250000D02*
X16855000D01*
X16825000Y4220000D02*
Y4280000D01*
X16795000Y4500000D02*
X16855000D01*
X16825000Y4470000D02*
Y4530000D01*
X16795000Y4750000D02*
X16855000D01*
X16825000Y4720000D02*
Y4780000D01*
X16795000Y5000000D02*
X16855000D01*
X16825000Y4970000D02*
Y5030000D01*
X16670000Y2750000D02*
X16730000D01*
X16700000Y2720000D02*
Y2780000D01*
X16670000Y3000000D02*
X16730000D01*
X16700000Y2970000D02*
Y3030000D01*
X16670000Y3250000D02*
X16730000D01*
X16700000Y3220000D02*
Y3280000D01*
X16670000Y3500000D02*
X16730000D01*
X16700000Y3470000D02*
Y3530000D01*
X16670000Y3750000D02*
X16730000D01*
X16700000Y3720000D02*
Y3780000D01*
X16670000Y4000000D02*
X16730000D01*
X16700000Y3970000D02*
Y4030000D01*
X16670000Y4250000D02*
X16730000D01*
X16700000Y4220000D02*
Y4280000D01*
X16670000Y4500000D02*
X16730000D01*
X16700000Y4470000D02*
Y4530000D01*
X16670000Y4750000D02*
X16730000D01*
X16700000Y4720000D02*
Y4780000D01*
X16670000Y5000000D02*
X16730000D01*
X16700000Y4970000D02*
Y5030000D01*
X13146001Y2315000D02*
X13246001D01*
X13196001Y2265000D02*
Y2365000D01*
X12047002Y2700001D02*
X12153001D01*
X12100001Y2647001D02*
Y2753001D01*
X11797000Y2700001D02*
X11902999D01*
X11849999Y2647002D02*
Y2753001D01*
X11546997Y2700001D02*
X11652997D01*
X11599997Y2647002D02*
Y2753001D01*
X11297001Y2700001D02*
X11403000D01*
X11350000Y2647002D02*
Y2753001D01*
X9496998Y2699999D02*
X9602998D01*
X9549998Y2646999D02*
Y2752999D01*
X9997002Y2699999D02*
X10103002D01*
X10050002Y2646999D02*
Y2752999D01*
X10246999Y2699999D02*
X10352999D01*
X10299999Y2646999D02*
Y2752999D01*
X5395000Y3770000D02*
X5425000D01*
X5410000Y3755000D02*
Y3785000D01*
X5515000Y3605000D02*
X5545000D01*
X5530000Y3590000D02*
Y3620000D01*
X5515000Y3470000D02*
X5545000D01*
X5530000Y3455000D02*
Y3485000D01*
X6200000Y5502501D02*
X6230000D01*
X6215000Y5487501D02*
Y5517501D01*
X6485000Y4825000D02*
X6515000D01*
X6500000Y4810000D02*
Y4840000D01*
X6210000Y4875000D02*
X6240000D01*
X6225000Y4860000D02*
Y4890000D01*
X6685000Y4850000D02*
X6715000D01*
X6700000Y4835000D02*
Y4865000D01*
X6310000Y2400000D02*
X6340000D01*
X6325000Y2385000D02*
Y2415000D01*
X5350000Y4385000D02*
X5380000D01*
X5365000Y4370000D02*
Y4400000D01*
X6715000Y4300000D02*
X6745000D01*
X6730000Y4285000D02*
Y4315000D01*
X5745000Y4770000D02*
X5775000D01*
X5760000Y4755000D02*
Y4785000D01*
X5705000Y5180000D02*
X5735000D01*
X5720000Y5165000D02*
Y5195000D01*
X5705000Y5875000D02*
X5735000D01*
X5720000Y5860000D02*
Y5890000D01*
X5325000Y4210000D02*
X5355000D01*
X5340000Y4195000D02*
Y4225000D01*
X5435000Y4100000D02*
X5465000D01*
X5450000Y4085000D02*
Y4115000D01*
X8435000Y4565000D02*
X8465000D01*
X8450000Y4550000D02*
Y4580000D01*
X6225000Y4475000D02*
X6255000D01*
X6240000Y4460000D02*
Y4490000D01*
X6335000Y4725000D02*
X6365000D01*
X6350000Y4710000D02*
Y4740000D01*
X11865000Y3760000D02*
X11895000D01*
X11880000Y3745000D02*
Y3775000D01*
X11935000Y3565000D02*
X11965000D01*
X11950000Y3550000D02*
Y3580000D01*
X12010000Y3500000D02*
X12040000D01*
X12025000Y3485000D02*
Y3515000D01*
X12070000Y3860000D02*
X12100000D01*
X12085000Y3845000D02*
Y3875000D01*
X12285000Y3100000D02*
X12315000D01*
X12300000Y3085000D02*
Y3115000D01*
X12135000Y3775000D02*
X12165000D01*
X12150000Y3760000D02*
Y3790000D01*
X11145000Y4555000D02*
X11175000D01*
X11160000Y4540000D02*
Y4569999D01*
X11145000Y4679998D02*
X11175000D01*
X11160000Y4664998D02*
Y4694998D01*
X9200000Y1975000D02*
X9230000D01*
X9215000Y1960000D02*
Y1990000D01*
X9485000Y1695000D02*
X9515000D01*
X9500000Y1680000D02*
Y1710000D01*
X6047196Y1944395D02*
X6077196D01*
X6062196Y1929395D02*
Y1959395D01*
X7835000Y1825000D02*
X7865000D01*
X7850000Y1810000D02*
Y1840000D01*
X7835000Y1925000D02*
X7865000D01*
X7850000Y1910000D02*
Y1940000D01*
X7585000Y2850000D02*
X7615000D01*
X7600000Y2835000D02*
Y2865000D01*
X7310000Y2450000D02*
X7340000D01*
X7325000Y2435000D02*
Y2465000D01*
X7235000Y2400000D02*
X7265000D01*
X7250000Y2385000D02*
Y2415000D01*
X7195000Y2540000D02*
X7225000D01*
X7210000Y2525000D02*
Y2555000D01*
X6735000Y1920000D02*
X6765000D01*
X6750000Y1905000D02*
Y1935000D01*
X7585000Y2750000D02*
X7615000D01*
X7600000Y2735000D02*
Y2765000D01*
X7080000Y2625000D02*
X7110000D01*
X7095000Y2610000D02*
Y2640000D01*
X6960000Y3925000D02*
X6990000D01*
X6975000Y3910000D02*
Y3940000D01*
X6860000Y3925294D02*
X6890000D01*
X6875000Y3910294D02*
Y3940294D01*
X6410000Y4600000D02*
X6440000D01*
X6425000Y4585000D02*
Y4615000D01*
X6485000Y4675000D02*
X6515000D01*
X6500000Y4660000D02*
Y4690000D01*
X5700000Y4010000D02*
X5730000D01*
X5715000Y3995000D02*
Y4025000D01*
Y4170000D02*
X5745000D01*
X5730000Y4155000D02*
Y4185000D01*
X5710000Y4090000D02*
X5740000D01*
X5725000Y4075000D02*
Y4105000D01*
X5485000Y3150000D02*
X5515000D01*
X5500000Y3135000D02*
Y3165000D01*
X6535000Y3100000D02*
X6565000D01*
X6550000Y3085000D02*
Y3115000D01*
X6460000Y3175000D02*
X6490000D01*
X6475000Y3160000D02*
Y3190000D01*
X7960000Y3250000D02*
X7990000D01*
X7975000Y3235000D02*
Y3265000D01*
X6325000Y3400000D02*
X6355000D01*
X6340000Y3385000D02*
Y3415000D01*
X6110000Y2600000D02*
X6140000D01*
X6125000Y2585000D02*
Y2615000D01*
X7185000Y2620000D02*
X7215000D01*
X7200000Y2605000D02*
Y2635000D01*
X5485000Y3050000D02*
X5515000D01*
X5500000Y3035000D02*
Y3065000D01*
X5240000Y3805000D02*
X5270000D01*
X5255000Y3790000D02*
Y3820000D01*
X6270000Y2150000D02*
X6300000D01*
X6285000Y2135000D02*
Y2165000D01*
X6060000Y2675000D02*
X6090000D01*
X6075000Y2660000D02*
Y2690000D01*
X6960000Y4530000D02*
X6990000D01*
X6975000Y4515000D02*
Y4545000D01*
X7010000Y4600000D02*
X7040000D01*
X7025000Y4585000D02*
Y4615000D01*
X6435000Y3840000D02*
X6465000D01*
X6450000Y3825000D02*
Y3855000D01*
X6905000Y4390000D02*
X6935000D01*
X6920000Y4375000D02*
Y4405000D01*
X6845000Y4335000D02*
X6875000D01*
X6860000Y4320000D02*
Y4350000D01*
X6960000Y4450000D02*
X6990000D01*
X6975000Y4435000D02*
Y4465000D01*
X6785000Y4275000D02*
X6815000D01*
X6800000Y4260000D02*
Y4290000D01*
X5070000Y1185503D02*
X5100000D01*
X5085000Y1170503D02*
Y1200503D01*
X15739999Y5884994D02*
X15789999D01*
X15764999Y5859994D02*
Y5909994D01*
X15739999Y4984994D02*
X15789999D01*
X15764999Y4959994D02*
Y5009994D01*
X15739999Y5434994D02*
X15789999D01*
X15764999Y5409994D02*
Y5459994D01*
X15739999Y4534994D02*
X15789999D01*
X15764999Y4509995D02*
Y4559994D01*
X15739999Y4084995D02*
X15789999D01*
X15764999Y4059995D02*
Y4109995D01*
X15739999Y3634995D02*
X15789999D01*
X15764999Y3609995D02*
Y3659995D01*
X13585001Y5454500D02*
X13614999D01*
X13600000Y5439500D02*
Y5469500D01*
X12805000Y5454500D02*
X12835001D01*
X12820001Y5439500D02*
Y5469500D01*
X11184999Y5390000D02*
X11214999D01*
X11199999Y5375000D02*
Y5405000D01*
X12264999Y5390000D02*
X12294999D01*
X12279999Y5375000D02*
Y5405000D01*
X11724999Y5390000D02*
X11754999D01*
X11739999Y5375000D02*
Y5405000D01*
X13585001Y4784500D02*
X13614999D01*
X13600000Y4769500D02*
Y4799500D01*
X13585001Y4114501D02*
X13614999D01*
X13600000Y4099501D02*
Y4129501D01*
X12805000Y4784500D02*
X12835001D01*
X12820001Y4769500D02*
Y4799500D01*
X12805000Y4114501D02*
X12835001D01*
X12820001Y4099501D02*
Y4129501D01*
X15739999Y3184995D02*
X15789999D01*
X15764999Y3159995D02*
Y3209995D01*
X15739999Y2734995D02*
X15789999D01*
X15764999Y2709995D02*
Y2759995D01*
X15739999Y2284995D02*
X15789999D01*
X15764999Y2259995D02*
Y2309995D01*
X15739999Y1834995D02*
X15789999D01*
X15764999Y1809995D02*
Y1859995D01*
X13585001Y3444501D02*
X13614999D01*
X13600000Y3429501D02*
Y3459501D01*
X12805000Y3444501D02*
X12835001D01*
X12820001Y3429501D02*
Y3459501D01*
X13585001Y2774501D02*
X13614999D01*
X13600000Y2759501D02*
Y2789501D01*
X12805000Y2774501D02*
X12835001D01*
X12820001Y2759501D02*
Y2789501D01*
X11085000Y3515000D02*
X11115000D01*
X11100000Y3500000D02*
Y3530000D01*
X13400000Y1880000D02*
X13500000D01*
X13450000Y1830000D02*
Y1930000D01*
X12015000Y1400000D02*
X12065000D01*
X12040000Y1375000D02*
Y1425000D01*
X11205000Y1845000D02*
X11245000D01*
X11225000Y1825000D02*
Y1865000D01*
X11730000Y1800000D02*
X11780000D01*
X11755000Y1775000D02*
Y1825000D01*
X10644999Y5390000D02*
X10674999D01*
X10659999Y5375000D02*
Y5405000D01*
X10104999Y5390000D02*
X10134999D01*
X10119999Y5375000D02*
Y5405000D01*
X9564999Y5390000D02*
X9594999D01*
X9579999Y5375000D02*
Y5405000D01*
X10572500Y4617500D02*
X10602500D01*
X10587500Y4602500D02*
Y4632500D01*
X9024999Y5390000D02*
X9054999D01*
X9039999Y5375000D02*
Y5405000D01*
X8484999Y5390000D02*
X8514999D01*
X8499999Y5375000D02*
Y5405000D01*
X9035000Y4900000D02*
X9065000D01*
X9050000Y4885000D02*
Y4915000D01*
X9835000Y3730002D02*
X9865000D01*
X9850000Y3715002D02*
Y3745002D01*
X10485000Y3530002D02*
X10515000D01*
X10500000Y3515002D02*
Y3545002D01*
X7510000Y4350000D02*
X7540000D01*
X7525000Y4335000D02*
Y4365000D01*
X6665000Y4190000D02*
X6695000D01*
X6680000Y4175000D02*
Y4205000D01*
X7760000Y4100000D02*
X7790000D01*
X7775000Y4085000D02*
Y4115000D01*
X6370000Y5632501D02*
X6400000D01*
X6385000Y5617501D02*
Y5647501D01*
X4141716Y5100000D02*
X4171716D01*
X4156716Y5085000D02*
Y5115000D01*
X3605000Y4625000D02*
X3635000D01*
X3620000Y4610000D02*
Y4640000D01*
X5260000Y3475000D02*
X5290000D01*
X5275000Y3460000D02*
Y3490000D01*
X4364998Y4510000D02*
X4394998D01*
X4379998Y4495000D02*
Y4525000D01*
X2085000Y3550000D02*
X2115000D01*
X2100000Y3535000D02*
Y3565000D01*
X9835000Y3225000D02*
X9865000D01*
X9850000Y3210000D02*
Y3240000D01*
X8260000Y3400000D02*
X8290000D01*
X8275000Y3385000D02*
Y3415000D01*
X7835000Y2975000D02*
X7865000D01*
X7850000Y2960000D02*
Y2990000D01*
X8385000Y2175000D02*
X8415000D01*
X8400000Y2160000D02*
Y2190000D01*
X10135000Y1700000D02*
X10165000D01*
X10150000Y1685000D02*
Y1715000D01*
X10135000Y1500000D02*
X10165000D01*
X10150000Y1485000D02*
Y1515000D01*
X9870000Y1300000D02*
X9900000D01*
X9885000Y1285000D02*
Y1315000D01*
X9870000Y1400000D02*
X9900000D01*
X9885000Y1385000D02*
Y1415000D01*
X9770000Y1400000D02*
X9800000D01*
X9785000Y1385000D02*
Y1415000D01*
X9770000Y1300000D02*
X9800000D01*
X9785000Y1285000D02*
Y1315000D01*
X7560000Y1433500D02*
X7590000D01*
X7575000Y1418500D02*
Y1448500D01*
X6710000Y2875000D02*
X6740000D01*
X6725000Y2860000D02*
Y2890000D01*
X7160000Y2280000D02*
X7190000D01*
X7175000Y2265000D02*
Y2295000D01*
X2085000Y2819998D02*
X2115000D01*
X2100000Y2804998D02*
Y2834998D01*
X5835000Y1925000D02*
X5865000D01*
X5850000Y1910000D02*
Y1940000D01*
X2985000Y1900000D02*
X3015000D01*
X3000000Y1885000D02*
Y1915000D01*
X8760000Y4200000D02*
X8790000D01*
X8775000Y4185000D02*
Y4215000D01*
X8520000Y4900000D02*
X8550000D01*
X8535000Y4885000D02*
Y4915000D01*
X7835000Y2375000D02*
X7865000D01*
X7850000Y2360000D02*
Y2390000D01*
X7910000Y2350000D02*
X7940000D01*
X7925000Y2335000D02*
Y2365000D01*
X7985000Y2375000D02*
X8015000D01*
X8000000Y2360000D02*
Y2390000D01*
X6735000Y1410000D02*
X6765000D01*
X6750000Y1395000D02*
Y1425000D01*
X11710000Y2905000D02*
X11740000D01*
X11725000Y2890000D02*
Y2920000D01*
X6780000Y5840000D02*
X6820000D01*
X6800000Y5820000D02*
Y5860000D01*
X6935000Y1525000D02*
X6965000D01*
X6950000Y1510000D02*
Y1540000D01*
X6865000Y1225000D02*
X6905000D01*
X6885000Y1205000D02*
Y1245000D01*
X7425000Y1490000D02*
X7455000D01*
X7440000Y1475000D02*
Y1505000D01*
X7425000Y1240000D02*
X7455000D01*
X7440000Y1225000D02*
Y1255000D01*
X7425000Y1365000D02*
X7455000D01*
X7440000Y1350000D02*
Y1380000D01*
X6855000Y1525000D02*
X6885000D01*
X6870000Y1510000D02*
Y1540000D01*
X6775000Y1525000D02*
X6805000D01*
X6790000Y1510000D02*
Y1540000D01*
X10475000Y1325000D02*
X10525000D01*
X10500000Y1300000D02*
Y1350000D01*
X10900000Y1650000D02*
X10950000D01*
X10925000Y1625000D02*
Y1675000D01*
X11005000Y1210000D02*
X11045000D01*
X11025000Y1190000D02*
Y1230000D01*
X11005000Y1310000D02*
X11045000D01*
X11025000Y1290000D02*
Y1330000D01*
X11005000Y1415000D02*
X11045000D01*
X11025000Y1395000D02*
Y1435000D01*
X11005000Y1515000D02*
X11045000D01*
X11025000Y1495000D02*
Y1535000D01*
X6755000Y4190000D02*
X6785000D01*
X6770000Y4175000D02*
Y4205000D01*
X4450000Y4745000D02*
X4480000D01*
X4465000Y4730000D02*
Y4760000D01*
X4110000Y5025000D02*
X4140000D01*
X4125000Y5010000D02*
Y5040000D01*
X4135000Y4951252D02*
X4165000D01*
X4150000Y4936252D02*
Y4966252D01*
X4110000Y5281249D02*
X4140000D01*
X4125000Y5266249D02*
Y5296249D01*
X4110000Y5171252D02*
X4140000D01*
X4125000Y5156252D02*
Y5186252D01*
X4110000Y5391251D02*
X4140000D01*
X4125000Y5376251D02*
Y5406251D01*
X4110000Y5501248D02*
X4140000D01*
X4125000Y5486248D02*
Y5516248D01*
X4110000Y5611251D02*
X4140000D01*
X4125000Y5596251D02*
Y5626251D01*
X7210000Y3140000D02*
X7240000D01*
X7225000Y3125000D02*
Y3155000D01*
X7310000Y3140000D02*
X7340000D01*
X7325000Y3125000D02*
Y3155000D01*
X6249930Y5307423D02*
X6279930D01*
X6264930Y5292423D02*
Y5322423D01*
X6250000Y5437500D02*
X6280000D01*
X6265000Y5422500D02*
Y5452500D01*
X6370000Y5502501D02*
X6400000D01*
X6385000Y5487501D02*
Y5517501D01*
X6200000Y5372500D02*
X6230000D01*
X6215000Y5357500D02*
Y5387500D01*
X8260000Y3485000D02*
X8290000D01*
X8275000Y3470000D02*
Y3500000D01*
X6610000Y3450000D02*
X6640000D01*
X6625000Y3435000D02*
Y3465000D01*
X6160000Y3625000D02*
X6190000D01*
X6175000Y3610000D02*
Y3640000D01*
X6910000Y3465000D02*
X6940000D01*
X6925000Y3450000D02*
Y3480000D01*
X7060000Y3450000D02*
X7090000D01*
X7075000Y3435000D02*
Y3465000D01*
X7135000Y2355000D02*
X7165000D01*
X7150000Y2340000D02*
Y2370000D01*
X6235000Y3400000D02*
X6265000D01*
X6250000Y3385000D02*
Y3415000D01*
X7510000Y4225000D02*
X7540000D01*
X7525000Y4210000D02*
Y4240000D01*
X7885000Y4000000D02*
X7915000D01*
X7900000Y3985000D02*
Y4015000D01*
X6635000Y2925000D02*
X6665000D01*
X6650000Y2910000D02*
Y2940000D01*
X9935000Y2345000D02*
X9965000D01*
X9950000Y2330000D02*
Y2360000D01*
X5355000Y3285000D02*
X5385000D01*
X5370000Y3270000D02*
Y3300000D01*
X8560000Y2700000D02*
X8590000D01*
X8575000Y2685000D02*
Y2715000D01*
X10215000Y2925000D02*
X10245000D01*
X10230000Y2910000D02*
Y2940000D01*
X10295000Y2925000D02*
X10325000D01*
X10310000Y2910000D02*
Y2940000D01*
X7710000Y5100000D02*
X7740000D01*
X7725000Y5085000D02*
Y5115000D01*
X7610000Y5100000D02*
X7640000D01*
X7625000Y5085000D02*
Y5115000D01*
X7510000Y5100000D02*
X7540000D01*
X7525000Y5085000D02*
Y5115000D01*
X7410000Y5100000D02*
X7440000D01*
X7425000Y5085000D02*
Y5115000D01*
X7410000Y5185000D02*
X7440000D01*
X7425000Y5170000D02*
Y5200000D01*
X7310000Y2725000D02*
X7340000D01*
X7325000Y2710000D02*
Y2740000D01*
X7210000Y2725000D02*
X7240000D01*
X7225000Y2710000D02*
Y2740000D01*
X9385000Y4265000D02*
X9415000D01*
X9400000Y4250000D02*
Y4280000D01*
X8435000Y4205000D02*
X8465000D01*
X8450000Y4190000D02*
Y4220000D01*
X10020000Y4625000D02*
X10050000D01*
X10035000Y4610000D02*
Y4640000D01*
X7735000Y4850000D02*
X7765000D01*
X7750000Y4835000D02*
Y4865000D01*
X7835000Y4850000D02*
X7865000D01*
X7850000Y4835000D02*
Y4865000D01*
X10190000Y4625000D02*
X10220000D01*
X10205000Y4610000D02*
Y4640000D01*
X10105000Y4625000D02*
X10135000D01*
X10120000Y4610000D02*
Y4640000D01*
X10572500Y4430001D02*
X10602500D01*
X10587500Y4415001D02*
Y4445001D01*
X11335000Y3750000D02*
X11365000D01*
X11350000Y3735000D02*
Y3765000D01*
X11210000Y3750000D02*
X11240000D01*
X11225000Y3735000D02*
Y3765000D01*
X9935000Y4625000D02*
X9965000D01*
X9950000Y4610000D02*
Y4640000D01*
X10710000Y4150000D02*
X10740000D01*
X10725000Y4135000D02*
Y4165000D01*
X10660000Y3775000D02*
X10690000D01*
X10675000Y3760000D02*
Y3790000D01*
X10535000Y3600000D02*
X10565000D01*
X10550000Y3585000D02*
Y3615000D01*
X10485000Y3679999D02*
X10515000D01*
X10500000Y3665000D02*
Y3694999D01*
X9835000Y3375000D02*
X9865000D01*
X9850000Y3360000D02*
Y3390000D01*
X9835000Y3620000D02*
X9865000D01*
X9850000Y3605000D02*
Y3635000D01*
X10910000Y4150000D02*
X10940000D01*
X10925000Y4135000D02*
Y4165000D01*
X10810000Y4150000D02*
X10840000D01*
X10825000Y4135000D02*
Y4165000D01*
X11110000Y3700000D02*
X11140000D01*
X11125000Y3685000D02*
Y3715000D01*
X11085000Y3425000D02*
X11115000D01*
X11100000Y3410000D02*
Y3440000D01*
X10710000Y3400000D02*
X10740000D01*
X10725000Y3385000D02*
Y3415000D01*
X8010000Y2075000D02*
X8040000D01*
X8025000Y2060000D02*
Y2090000D01*
X8110000Y2075000D02*
X8140000D01*
X8125000Y2060000D02*
Y2090000D01*
X8210000Y2075000D02*
X8240000D01*
X8225000Y2060000D02*
Y2090000D01*
X11720000Y4435000D02*
X11750000D01*
X11735000Y4420000D02*
Y4450000D01*
X10330000Y2050000D02*
X10370000D01*
X10350000Y2030000D02*
Y2070000D01*
X10565002Y2050000D02*
X10605002D01*
X10585002Y2030000D02*
Y2070000D01*
X10905000Y2269999D02*
X10945000D01*
X10925000Y2249999D02*
Y2289999D01*
X11335000Y3600000D02*
X11365000D01*
X11350000Y3585000D02*
Y3615000D01*
X11335000Y3500000D02*
X11365000D01*
X11350000Y3485000D02*
Y3515000D01*
X11935000Y3435000D02*
X11965000D01*
X11950000Y3420000D02*
Y3450000D01*
X8045000Y3660000D02*
X8075000D01*
X8060000Y3645000D02*
Y3675000D01*
X8357998Y5390000D02*
X8387997D01*
X8372997Y5375000D02*
Y5405000D01*
X8230998Y5590000D02*
X8260997D01*
X8245997Y5575000D02*
Y5605000D01*
X8357998Y5590000D02*
X8387997D01*
X8372997Y5575000D02*
Y5605000D01*
X7980000Y3725000D02*
X8010000D01*
X7995000Y3710000D02*
Y3740000D01*
X7915000Y3790000D02*
X7945000D01*
X7930000Y3775000D02*
Y3805000D01*
X8230998Y5390000D02*
X8260997D01*
X8245997Y5375000D02*
Y5405000D01*
X8885000Y1330000D02*
X8915000D01*
X8900000Y1315000D02*
Y1345000D01*
X8885000Y1250000D02*
X8915000D01*
X8900000Y1235000D02*
Y1265000D01*
X8810000Y1750000D02*
X8840000D01*
X8825000Y1735000D02*
Y1765000D01*
X8810000Y1650000D02*
X8840000D01*
X8825000Y1635000D02*
Y1665000D01*
X9480000Y1510000D02*
X9510000D01*
X9495000Y1495000D02*
Y1525000D01*
X8385000Y2425000D02*
X8415000D01*
X8400000Y2410000D02*
Y2440000D01*
X9535000Y1450000D02*
X9565000D01*
X9550000Y1435000D02*
Y1465000D01*
X9480000Y1390000D02*
X9510000D01*
X9495000Y1375000D02*
Y1405000D01*
X9535000Y1330000D02*
X9565000D01*
X9550000Y1315000D02*
Y1345000D01*
X9485000Y1210000D02*
X9515000D01*
X9500000Y1195000D02*
Y1225000D01*
X10135000Y1200000D02*
X10165000D01*
X10150000Y1185000D02*
Y1215000D01*
X10135000Y1300000D02*
X10165000D01*
X10150000Y1285000D02*
Y1315000D01*
X10135000Y1400000D02*
X10165000D01*
X10150000Y1385000D02*
Y1415000D01*
X8510000Y1305000D02*
X8540000D01*
X8525000Y1290000D02*
Y1320000D01*
X8510000Y1435000D02*
X8540000D01*
X8525000Y1420000D02*
Y1450000D01*
X8510000Y1560500D02*
X8540000D01*
X8525000Y1545500D02*
Y1575500D01*
X7560000Y1306500D02*
X7590000D01*
X7575000Y1291500D02*
Y1321500D01*
X6525000Y2000000D02*
X6555000D01*
X6540000Y1985000D02*
Y2015000D01*
X6360000Y1975000D02*
X6390000D01*
X6375000Y1960000D02*
Y1990000D01*
X7560000Y1179500D02*
X7590000D01*
X7575000Y1164500D02*
Y1194500D01*
X7560000Y1560500D02*
X7590000D01*
X7575000Y1545500D02*
Y1575500D01*
X6610000Y2000000D02*
X6640000D01*
X6625000Y1985000D02*
Y2015000D01*
X9330000Y2120000D02*
X9370000D01*
X9350000Y2100000D02*
Y2140000D01*
X9330000Y2245000D02*
X9370000D01*
X9350000Y2225000D02*
Y2265000D01*
X9330000Y2375000D02*
X9370000D01*
X9350000Y2355000D02*
Y2395000D01*
X9330000Y2500000D02*
X9370000D01*
X9350000Y2480000D02*
Y2520000D01*
X14955000Y1450000D02*
X14995000D01*
X14975000Y1430000D02*
Y1470000D01*
X14835001Y1450000D02*
X14875000D01*
X14855000Y1430000D02*
Y1470000D01*
X15264999Y1505000D02*
X15295000D01*
X15280000Y1490000D02*
Y1520000D01*
X16480000Y2200000D02*
X16520000D01*
X16500000Y2180000D02*
Y2220000D01*
X12485000Y2630000D02*
X12515000D01*
X12500000Y2615000D02*
Y2645000D01*
X8460000Y2700000D02*
X8490000D01*
X8475000Y2685000D02*
Y2715000D01*
X12285000Y3400000D02*
X12315000D01*
X12300000Y3385000D02*
Y3415000D01*
X8360000Y2700000D02*
X8390000D01*
X8375000Y2685000D02*
Y2715000D01*
X8260000Y2700000D02*
X8290000D01*
X8275000Y2685000D02*
Y2715000D01*
X7910000Y3050000D02*
X7940000D01*
X7925000Y3035000D02*
Y3065000D01*
X12285000Y3000000D02*
X12315000D01*
X12300000Y2985000D02*
Y3015000D01*
X12285000Y3200000D02*
X12315000D01*
X12300000Y3185000D02*
Y3215000D01*
X12285000Y3300000D02*
X12315000D01*
X12300000Y3285000D02*
Y3315000D01*
X12285000Y3625000D02*
X12315000D01*
X12300000Y3610000D02*
Y3640000D01*
X12460000Y3765000D02*
X12490000D01*
X12475000Y3750000D02*
Y3780000D01*
X12210000Y3700000D02*
X12240000D01*
X12225000Y3685000D02*
Y3715000D01*
X8930000Y3420000D02*
X8960000D01*
X8945000Y3405000D02*
Y3435000D01*
X8885000Y3500000D02*
X8915000D01*
X8900000Y3485000D02*
Y3515000D01*
X8960000Y3560000D02*
X8990000D01*
X8975000Y3545000D02*
Y3575000D01*
X8895000Y3630000D02*
X8925000D01*
X8910000Y3615000D02*
Y3645000D01*
X8960000Y3700000D02*
X8990000D01*
X8975000Y3685000D02*
Y3715000D01*
X12235000Y4025000D02*
X12265000D01*
X12250000Y4010000D02*
Y4040000D01*
X12260000Y4925000D02*
X12290000D01*
X12275000Y4910000D02*
Y4940000D01*
X12160000Y4700000D02*
X12190000D01*
X12175000Y4685000D02*
Y4715000D01*
X12185000Y5000000D02*
X12215000D01*
X12200000Y4985000D02*
Y5015000D01*
X12085000Y4775000D02*
X12115000D01*
X12100000Y4760000D02*
Y4790000D01*
X8985000Y4225000D02*
X9015000D01*
X9000000Y4210000D02*
Y4240000D01*
X9560000Y4625000D02*
X9590000D01*
X9575000Y4610000D02*
Y4640000D01*
X12460000Y4735000D02*
X12490000D01*
X12475000Y4720000D02*
Y4750000D01*
X13585001Y4360000D02*
X13614999D01*
X13600000Y4345000D02*
Y4375000D01*
X13585001Y4495501D02*
X13614999D01*
X13600000Y4480501D02*
Y4510501D01*
X9385000Y4625000D02*
X9415000D01*
X9400000Y4610000D02*
Y4640000D01*
X9235000Y4900000D02*
X9265000D01*
X9250000Y4885000D02*
Y4915000D01*
X12805000Y5165500D02*
X12835001D01*
X12820001Y5150500D02*
Y5180500D01*
X12955000Y5165500D02*
X12985001D01*
X12970001Y5150500D02*
Y5180500D01*
X13660001Y5375000D02*
X13689999D01*
X13675000Y5360000D02*
Y5390000D01*
X8360000Y4865000D02*
X8390000D01*
X8375000Y4850000D02*
Y4880000D01*
X8280000Y4925000D02*
X8310000D01*
X8295000Y4910000D02*
Y4940000D01*
X12805000Y5835500D02*
X12835001D01*
X12820001Y5820500D02*
Y5850500D01*
X12010997Y5390000D02*
X12040997D01*
X12025997Y5375000D02*
Y5405000D01*
X12090000Y4385000D02*
X12120000D01*
X12105000Y4370000D02*
Y4400000D01*
X12137997Y5390000D02*
X12167997D01*
X12152997Y5375000D02*
Y5405000D01*
X9722499Y5390000D02*
X9752499D01*
X9737499Y5375000D02*
Y5405000D01*
X11057997Y5590000D02*
X11087997D01*
X11072997Y5575000D02*
Y5605000D01*
X11342499Y5390000D02*
X11372499D01*
X11357499Y5375000D02*
Y5405000D01*
X11057997Y5390000D02*
X11087997D01*
X11072997Y5375000D02*
Y5405000D01*
X12137997Y5590000D02*
X12167997D01*
X12152997Y5575000D02*
Y5605000D01*
X9135000Y4900000D02*
X9165000D01*
X9150000Y4885000D02*
Y4915000D01*
X14120000Y3855001D02*
X14150000D01*
X14135001Y3840001D02*
Y3870001D01*
X14445000Y3765000D02*
X14475000D01*
X14460001Y3750000D02*
Y3780000D01*
X14445000Y3644995D02*
X14475000D01*
X14460001Y3629995D02*
Y3659995D01*
X14445000Y1844995D02*
X14475000D01*
X14460001Y1829995D02*
Y1859995D01*
X14445000Y1965000D02*
X14475000D01*
X14460001Y1950000D02*
Y1980000D01*
X12460000Y3350000D02*
X12490000D01*
X12475000Y3335000D02*
Y3365000D01*
X14239999Y2300001D02*
X14270000D01*
X14255000Y2285001D02*
Y2315001D01*
X14445000Y2294995D02*
X14475000D01*
X14460001Y2279995D02*
Y2309995D01*
X14445000Y2415000D02*
X14475000D01*
X14460001Y2400000D02*
Y2430000D01*
X14445000Y2865000D02*
X14475000D01*
X14460001Y2850000D02*
Y2880000D01*
X14445000Y2744995D02*
X14475000D01*
X14460001Y2729995D02*
Y2759995D01*
X14110001Y3405001D02*
X14139999D01*
X14125000Y3390001D02*
Y3420001D01*
X13660001Y4705000D02*
X13689999D01*
X13675000Y4690000D02*
Y4720000D01*
X12880000Y4705000D02*
X12910001D01*
X12895001Y4690000D02*
Y4720000D01*
X12805000Y4495501D02*
X12835001D01*
X12820001Y4480501D02*
Y4510501D01*
X14445000Y4665000D02*
X14475000D01*
X14460001Y4650000D02*
Y4680000D01*
X14445000Y4544994D02*
X14475000D01*
X14460001Y4529994D02*
Y4559994D01*
X14110001Y2055001D02*
X14139999D01*
X14125000Y2040001D02*
Y2070001D01*
X12460000Y5225000D02*
X12490000D01*
X12475000Y5210000D02*
Y5240000D01*
X12460000Y5350000D02*
X12490000D01*
X12475000Y5335000D02*
Y5365000D01*
X14239999Y5000000D02*
X14270000D01*
X14255000Y4985000D02*
Y5015000D01*
X14239999Y5450000D02*
X14270000D01*
X14255000Y5435000D02*
Y5465000D01*
X14445000Y5565000D02*
X14475000D01*
X14460001Y5550000D02*
Y5580000D01*
X14445000Y5444994D02*
X14475000D01*
X14460001Y5429994D02*
Y5459994D01*
X3250000Y5225000D02*
X3300000D01*
X3275000Y5200000D02*
Y5250000D01*
X14550000Y5105000D02*
X14580000D01*
X14564999Y5090000D02*
Y5120000D01*
X14550000Y4655000D02*
X14580000D01*
X14564999Y4640000D02*
Y4670000D01*
X14550000Y4205000D02*
X14580000D01*
X14564999Y4190000D02*
Y4220000D01*
X14550000Y3755000D02*
X14580000D01*
X14564999Y3740000D02*
Y3770000D01*
X14550000Y3305000D02*
X14580000D01*
X14564999Y3290000D02*
Y3320000D01*
X14550000Y2855000D02*
X14580000D01*
X14564999Y2840000D02*
Y2870000D01*
X14550000Y2405000D02*
X14580000D01*
X14564999Y2390000D02*
Y2420000D01*
X14550000Y1955000D02*
X14580000D01*
X14564999Y1940000D02*
Y1970000D01*
X14550000Y1505000D02*
X14580000D01*
X14564999Y1490000D02*
Y1520000D01*
X14550000Y5555000D02*
X14580000D01*
X14564999Y5540000D02*
Y5570000D01*
X9020000Y3785000D02*
X9050000D01*
X9035000Y3770000D02*
Y3800000D01*
X8985000Y3865000D02*
X9015000D01*
X9000000Y3850000D02*
Y3880000D01*
X9060000Y3925000D02*
X9090000D01*
X9075000Y3910000D02*
Y3940000D01*
X8985000Y3985000D02*
X9015000D01*
X9000000Y3970000D02*
Y4000000D01*
X9060000Y4045000D02*
X9090000D01*
X9075000Y4030000D02*
Y4060000D01*
X8985000Y4105000D02*
X9015000D01*
X9000000Y4090000D02*
Y4120000D01*
X9060000Y4165000D02*
X9090000D01*
X9075000Y4150000D02*
Y4180000D01*
X8360000Y4265000D02*
X8390000D01*
X8375000Y4250000D02*
Y4280000D01*
X8360000Y4385000D02*
X8390000D01*
X8375000Y4370000D02*
Y4400000D01*
X8360000Y4505000D02*
X8390000D01*
X8375000Y4490000D02*
Y4520000D01*
X8435000Y4685000D02*
X8465000D01*
X8450000Y4670000D02*
Y4700000D01*
X8360000Y4745000D02*
X8390000D01*
X8375000Y4730000D02*
Y4760000D01*
X8435000Y4325000D02*
X8465000D01*
X8450000Y4310000D02*
Y4340000D01*
X8435000Y4445000D02*
X8465000D01*
X8450000Y4430000D02*
Y4460000D01*
X8360000Y4625000D02*
X8390000D01*
X8375000Y4610000D02*
Y4640000D01*
X8435000Y4805000D02*
X8465000D01*
X8450000Y4790000D02*
Y4820000D01*
X12245000Y2310000D02*
X12295000D01*
X12270000Y2285000D02*
Y2335000D01*
X11700000Y2350000D02*
X11750000D01*
X11725000Y2325000D02*
Y2375000D01*
X12245000Y1400000D02*
X12295000D01*
X12270000Y1375000D02*
Y1425000D01*
X11785000Y1400000D02*
X11835000D01*
X11810000Y1375000D02*
Y1425000D01*
X14239999Y1850001D02*
X14270000D01*
X14255000Y1835001D02*
Y1865001D01*
X13735001Y3155501D02*
X13764999D01*
X13750000Y3140501D02*
Y3170501D01*
X14110001Y2505001D02*
X14139999D01*
X14125000Y2490001D02*
Y2520001D01*
X14110001Y2955001D02*
X14139999D01*
X14125000Y2940001D02*
Y2970001D01*
X13735001Y5454500D02*
X13764999D01*
X13750000Y5439500D02*
Y5469500D01*
X12955000Y2774501D02*
X12985001D01*
X12970001Y2759501D02*
Y2789501D01*
X12955000Y2901501D02*
X12985001D01*
X12970001Y2886501D02*
Y2916501D01*
X12955000Y3028501D02*
X12985001D01*
X12970001Y3013501D02*
Y3043501D01*
X12955000Y3155501D02*
X12985001D01*
X12970001Y3140501D02*
Y3170501D01*
X12835001Y2695000D02*
X12864999D01*
X12850000Y2680000D02*
Y2710000D01*
X12805000Y2901501D02*
X12835001D01*
X12820001Y2886501D02*
Y2916501D01*
X12805000Y3020000D02*
X12835001D01*
X12820001Y3005000D02*
Y3035000D01*
X12805000Y3155501D02*
X12835001D01*
X12820001Y3140501D02*
Y3170501D01*
X13735001Y2774501D02*
X13764999D01*
X13750000Y2759501D02*
Y2789501D01*
X13735001Y2901501D02*
X13764999D01*
X13750000Y2886501D02*
Y2916501D01*
X13735001Y3028501D02*
X13764999D01*
X13750000Y3013501D02*
Y3043501D01*
X13660001Y2695000D02*
X13689999D01*
X13675000Y2680000D02*
Y2710000D01*
X13585001Y2901501D02*
X13614999D01*
X13600000Y2886501D02*
Y2916501D01*
X13585001Y3020000D02*
X13614999D01*
X13600000Y3005000D02*
Y3035000D01*
X13585001Y3155501D02*
X13614999D01*
X13600000Y3140501D02*
Y3170501D01*
X12955000Y3444501D02*
X12985001D01*
X12970001Y3429501D02*
Y3459501D01*
X12955000Y3571501D02*
X12985001D01*
X12970001Y3556501D02*
Y3586501D01*
X12955000Y3698501D02*
X12985001D01*
X12970001Y3683501D02*
Y3713501D01*
X12955000Y3825501D02*
X12985001D01*
X12970001Y3810501D02*
Y3840501D01*
X12880000Y3365000D02*
X12910001D01*
X12895001Y3350000D02*
Y3380000D01*
X12805000Y3571501D02*
X12835001D01*
X12820001Y3556501D02*
Y3586501D01*
X12805000Y3690000D02*
X12835001D01*
X12820001Y3675000D02*
Y3705000D01*
X12805000Y3825501D02*
X12835001D01*
X12820001Y3810501D02*
Y3840501D01*
X13735001Y3444501D02*
X13764999D01*
X13750000Y3429501D02*
Y3459501D01*
X13735001Y3571501D02*
X13764999D01*
X13750000Y3556501D02*
Y3586501D01*
X13735001Y3698501D02*
X13764999D01*
X13750000Y3683501D02*
Y3713501D01*
X13735001Y3825501D02*
X13764999D01*
X13750000Y3810501D02*
Y3840501D01*
X13660001Y3365000D02*
X13689999D01*
X13675000Y3350000D02*
Y3380000D01*
X13585001Y3571501D02*
X13614999D01*
X13600000Y3556501D02*
Y3586501D01*
X13585001Y3690000D02*
X13614999D01*
X13600000Y3675000D02*
Y3705000D01*
X13585001Y3825501D02*
X13614999D01*
X13600000Y3810501D02*
Y3840501D01*
X12955000Y4114501D02*
X12985001D01*
X12970001Y4099501D02*
Y4129501D01*
X12955000Y4241501D02*
X12985001D01*
X12970001Y4226501D02*
Y4256501D01*
X12955000Y4368501D02*
X12985001D01*
X12970001Y4353501D02*
Y4383501D01*
X12955000Y4495501D02*
X12985001D01*
X12970001Y4480501D02*
Y4510501D01*
X12880000Y4035000D02*
X12910001D01*
X12895001Y4020000D02*
Y4050000D01*
X12805000Y4241501D02*
X12835001D01*
X12820001Y4226501D02*
Y4256501D01*
X12805000Y4360000D02*
X12835001D01*
X12820001Y4345000D02*
Y4375000D01*
X13735001Y4114501D02*
X13764999D01*
X13750000Y4099501D02*
Y4129501D01*
X13735001Y4241501D02*
X13764999D01*
X13750000Y4226501D02*
Y4256501D01*
X13735001Y4368501D02*
X13764999D01*
X13750000Y4353501D02*
Y4383501D01*
X13735001Y4495501D02*
X13764999D01*
X13750000Y4480501D02*
Y4510501D01*
X13660001Y4035000D02*
X13689999D01*
X13675000Y4020000D02*
Y4050000D01*
X13585001Y4241501D02*
X13614999D01*
X13600000Y4226501D02*
Y4256501D01*
X12955000Y4784500D02*
X12985001D01*
X12970001Y4769500D02*
Y4799500D01*
X12955000Y4911500D02*
X12985001D01*
X12970001Y4896500D02*
Y4926500D01*
X12955000Y5038500D02*
X12985001D01*
X12970001Y5023500D02*
Y5053500D01*
X12805000Y4911500D02*
X12835001D01*
X12820001Y4896500D02*
Y4926500D01*
X12805000Y5030000D02*
X12835001D01*
X12820001Y5015000D02*
Y5045000D01*
X13735001Y4784500D02*
X13764999D01*
X13750000Y4769500D02*
Y4799500D01*
X13735001Y4911500D02*
X13764999D01*
X13750000Y4896500D02*
Y4926500D01*
X13735001Y5038500D02*
X13764999D01*
X13750000Y5023500D02*
Y5053500D01*
X13735001Y5165500D02*
X13764999D01*
X13750000Y5150500D02*
Y5180500D01*
X13585001Y4911500D02*
X13614999D01*
X13600000Y4896500D02*
Y4926500D01*
X13585001Y5030000D02*
X13614999D01*
X13600000Y5015000D02*
Y5045000D01*
X13585001Y5165500D02*
X13614999D01*
X13600000Y5150500D02*
Y5180500D01*
X12955000Y5454500D02*
X12985001D01*
X12970001Y5439500D02*
Y5469500D01*
X12955000Y5581500D02*
X12985001D01*
X12970001Y5566500D02*
Y5596500D01*
X12955000Y5708500D02*
X12985001D01*
X12970001Y5693500D02*
Y5723500D01*
X12955000Y5835500D02*
X12985001D01*
X12970001Y5820500D02*
Y5850500D01*
X12835001Y5375000D02*
X12864999D01*
X12850000Y5360000D02*
Y5390000D01*
X12805000Y5581500D02*
X12835001D01*
X12820001Y5566500D02*
Y5596500D01*
X12805000Y5700000D02*
X12835001D01*
X12820001Y5685000D02*
Y5715000D01*
X13585001Y5700000D02*
X13614999D01*
X13600000Y5685000D02*
Y5715000D01*
X14445000Y1515000D02*
X14475000D01*
X14460001Y1500000D02*
Y1530000D01*
X14110001Y1605001D02*
X14139999D01*
X14125000Y1590001D02*
Y1620001D01*
X15264999Y1865000D02*
X15295000D01*
X15280000Y1850000D02*
Y1880000D01*
X14975000Y1759995D02*
X15005000D01*
X14989999Y1744995D02*
Y1774995D01*
X15264999Y1955000D02*
X15295000D01*
X15280000Y1940000D02*
Y1970000D01*
X15264999Y2315000D02*
X15295000D01*
X15280000Y2300000D02*
Y2330000D01*
X14975000Y2209995D02*
X15005000D01*
X14989999Y2194995D02*
Y2224995D01*
X15264999Y2405000D02*
X15295000D01*
X15280000Y2390000D02*
Y2419999D01*
X15264999Y2765000D02*
X15295000D01*
X15280000Y2750000D02*
Y2780000D01*
X14975000Y2659995D02*
X15005000D01*
X14989999Y2644995D02*
Y2674995D01*
X14239999Y2750001D02*
X14270000D01*
X14255000Y2735001D02*
Y2765001D01*
X15264999Y2854999D02*
X15295000D01*
X15280000Y2839999D02*
Y2869999D01*
X15264999Y3214999D02*
X15295000D01*
X15280000Y3199999D02*
Y3229999D01*
X14445000Y3194995D02*
X14475000D01*
X14460001Y3179995D02*
Y3209995D01*
X14975000Y3109995D02*
X15005000D01*
X14989999Y3094995D02*
Y3124995D01*
X14239999Y3200001D02*
X14270000D01*
X14255000Y3185001D02*
Y3215001D01*
X14445000Y3315000D02*
X14475000D01*
X14460001Y3300000D02*
Y3330000D01*
X15264999Y3304999D02*
X15295000D01*
X15280000Y3289999D02*
Y3319999D01*
X15264999Y3664999D02*
X15295000D01*
X15280000Y3649999D02*
Y3679999D01*
X14975000Y3559995D02*
X15005000D01*
X14989999Y3544995D02*
Y3574995D01*
X14239999Y3650001D02*
X14270000D01*
X14255000Y3635001D02*
Y3665001D01*
X15264999Y3754999D02*
X15295000D01*
X15280000Y3739999D02*
Y3769999D01*
X15264999Y4114999D02*
X15295000D01*
X15280000Y4099999D02*
Y4129999D01*
X14445000Y4094995D02*
X14475000D01*
X14460001Y4079995D02*
Y4109995D01*
X14975000Y4009995D02*
X15005000D01*
X14989999Y3994995D02*
Y4024995D01*
X14239999Y4100000D02*
X14270000D01*
X14255000Y4085000D02*
Y4115000D01*
X14445000Y4215000D02*
X14475000D01*
X14460001Y4200000D02*
Y4230000D01*
X14110001Y4305001D02*
X14139999D01*
X14125000Y4290001D02*
Y4320001D01*
X15264999Y4204999D02*
X15295000D01*
X15280000Y4189999D02*
Y4219999D01*
X15264999Y4564999D02*
X15295000D01*
X15280000Y4549999D02*
Y4579999D01*
X14975000Y4459995D02*
X15005000D01*
X14989999Y4444995D02*
Y4474995D01*
X14239999Y4550000D02*
X14270000D01*
X14255000Y4535000D02*
Y4565000D01*
X14110001Y4755000D02*
X14139999D01*
X14125000Y4740000D02*
Y4770000D01*
X15264999Y4654999D02*
X15295000D01*
X15280000Y4639999D02*
Y4669999D01*
X15264999Y5014999D02*
X15295000D01*
X15280000Y4999999D02*
Y5029999D01*
X14445000Y4994994D02*
X14475000D01*
X14460001Y4979994D02*
Y5009994D01*
X14975000Y4909994D02*
X15005000D01*
X14989999Y4894995D02*
Y4924994D01*
X14445000Y5115000D02*
X14475000D01*
X14460001Y5100000D02*
Y5130000D01*
X14110001Y5205000D02*
X14139999D01*
X14125000Y5190000D02*
Y5220000D01*
X15264999Y5104999D02*
X15295000D01*
X15280000Y5089999D02*
Y5119999D01*
X15264999Y5464999D02*
X15295000D01*
X15280000Y5449999D02*
Y5479999D01*
X14975000Y5359994D02*
X15005000D01*
X14989999Y5344994D02*
Y5374994D01*
X14110001Y5655000D02*
X14139999D01*
X14125000Y5640000D02*
Y5670000D01*
X15264999Y5554999D02*
X15295000D01*
X15280000Y5539999D02*
Y5569999D01*
X15264999Y5914999D02*
X15295000D01*
X15280000Y5899999D02*
Y5929999D01*
X14239999Y5900000D02*
X14270000D01*
X14255000Y5885000D02*
Y5915000D01*
X14445000Y5894994D02*
X14475000D01*
X14460001Y5879994D02*
Y5909994D01*
X14975000Y5809994D02*
X15005000D01*
X14989999Y5794994D02*
Y5824994D01*
X13585001Y5581500D02*
X13614999D01*
X13600000Y5566500D02*
Y5596500D01*
X13735001Y5581500D02*
X13764999D01*
X13750000Y5566500D02*
Y5596500D01*
X13735001Y5708500D02*
X13764999D01*
X13750000Y5693500D02*
Y5723500D01*
X13735001Y5835500D02*
X13764999D01*
X13750000Y5820500D02*
Y5850500D01*
X13585001Y5835500D02*
X13614999D01*
X13600000Y5820500D02*
Y5850500D01*
X6235000Y4725000D02*
X6265000D01*
X6250000Y4710000D02*
Y4740000D01*
X6260000Y1975000D02*
X6290000D01*
X6275000Y1960000D02*
Y1990000D01*
X5985000Y2600000D02*
X6015000D01*
X6000000Y2585000D02*
Y2615000D01*
X6160000Y1975000D02*
X6190000D01*
X6175000Y1960000D02*
Y1990000D01*
X5735000Y1925000D02*
X5765000D01*
X5750000Y1910000D02*
Y1940000D01*
X4170000Y4575000D02*
X4200000D01*
X4185000Y4560000D02*
Y4590000D01*
X3060000Y1825000D02*
X3090000D01*
X3075000Y1810000D02*
Y1840000D01*
X2085000Y3010000D02*
X2115000D01*
X2100000Y2995000D02*
Y3025000D01*
X2085000Y3200000D02*
X2115000D01*
X2100000Y3185000D02*
Y3215000D01*
X2085000Y3410000D02*
X2115000D01*
X2100000Y3395000D02*
Y3425000D01*
X5695000Y3930000D02*
X5725000D01*
X5710000Y3915000D02*
Y3945000D01*
X5510000Y4025000D02*
X5540000D01*
X5525000Y4010000D02*
Y4040000D01*
X5510000Y4175000D02*
X5540000D01*
X5525000Y4160000D02*
Y4190000D01*
X5955001Y4745000D02*
X5985001D01*
X5970001Y4730000D02*
Y4760000D01*
X2610000Y5050000D02*
X2640000D01*
X2625000Y5035000D02*
Y5065000D01*
X2610000Y5225000D02*
X2640000D01*
X2625000Y5210000D02*
Y5240000D01*
X5230000Y4745000D02*
X5260000D01*
X5245000Y4730000D02*
Y4760000D01*
X5310001Y4745000D02*
X5340001D01*
X5325001Y4730000D02*
Y4760000D01*
X5700001Y5530000D02*
X5730000D01*
X5715001Y5515000D02*
Y5545000D01*
X5485000Y5530000D02*
X5515000D01*
X5500000Y5515000D02*
Y5545000D01*
X6420000Y5567501D02*
X6450000D01*
X6435000Y5552501D02*
Y5582501D01*
X6420000Y5697501D02*
X6450000D01*
X6435000Y5682501D02*
Y5712501D01*
X6370000Y5762501D02*
X6400000D01*
X6385000Y5747501D02*
Y5777501D01*
X6250000Y5177500D02*
X6280000D01*
X6265000Y5162500D02*
Y5192500D01*
X6200000Y5242500D02*
X6230000D01*
X6215000Y5227500D02*
Y5257500D01*
X7385000Y5531361D02*
X7415000D01*
X7400000Y5516361D02*
Y5546361D01*
X7385000Y5781361D02*
X7415000D01*
X7400000Y5766361D02*
Y5796361D01*
X7385000Y5656361D02*
X7415000D01*
X7400000Y5641361D02*
Y5671361D01*
X5525001Y4745000D02*
X5555001D01*
X5540001Y4730000D02*
Y4760000D01*
X5270000Y5530000D02*
X5300000D01*
X5285000Y5515000D02*
Y5545000D01*
X5055000Y5530000D02*
X5085000D01*
X5070000Y5515000D02*
Y5545000D01*
X4840000Y5530000D02*
X4870000D01*
X4855000Y5515000D02*
Y5545000D01*
X4625000Y5530000D02*
X4655000D01*
X4640000Y5515000D02*
Y5545000D01*
X4665001Y4745000D02*
X4695001D01*
X4680001Y4730000D02*
Y4760000D01*
X4880001Y4745000D02*
X4910001D01*
X4895001Y4730000D02*
Y4760000D01*
X10572500Y4742500D02*
X10602500D01*
X10587500Y4727500D02*
Y4757500D01*
X6595000Y4850000D02*
X6625000D01*
X6610000Y4835000D02*
Y4865000D01*
X6735000Y4925000D02*
X6765000D01*
X6750000Y4910000D02*
Y4940000D01*
X6760000Y5025000D02*
X6790000D01*
X6775000Y5010000D02*
Y5040000D01*
X6835000Y5075000D02*
X6865000D01*
X6850000Y5060000D02*
Y5090000D01*
X6910000Y5025000D02*
X6940000D01*
X6925000Y5010000D02*
Y5040000D01*
X12264997Y5590000D02*
X12294997D01*
X12279997Y5575000D02*
Y5605000D01*
X11882499Y5390000D02*
X11912499D01*
X11897499Y5375000D02*
Y5405000D01*
X12010997Y5590000D02*
X12040997D01*
X12025997Y5575000D02*
Y5605000D01*
X11883997Y5590000D02*
X11913997D01*
X11898997Y5575000D02*
Y5605000D01*
X11724997Y5590000D02*
X11754997D01*
X11739997Y5575000D02*
Y5605000D01*
X11597997Y5590000D02*
X11627997D01*
X11612997Y5575000D02*
Y5605000D01*
X11470997Y5390000D02*
X11500997D01*
X11485997Y5375000D02*
Y5405000D01*
X11597997Y5390000D02*
X11627997D01*
X11612997Y5375000D02*
Y5405000D01*
X11470997Y5590000D02*
X11500997D01*
X11485997Y5575000D02*
Y5605000D01*
X11343997Y5590000D02*
X11373997D01*
X11358997Y5575000D02*
Y5605000D01*
X11184997Y5590000D02*
X11214997D01*
X11199997Y5575000D02*
Y5605000D01*
X10930997Y5390000D02*
X10960997D01*
X10945997Y5375000D02*
Y5405000D01*
X10802499Y5390000D02*
X10832499D01*
X10817499Y5375000D02*
Y5405000D01*
X10930997Y5590000D02*
X10960997D01*
X10945997Y5575000D02*
Y5605000D01*
X10803997Y5590000D02*
X10833997D01*
X10818997Y5575000D02*
Y5605000D01*
X10644997Y5590000D02*
X10674997D01*
X10659997Y5575000D02*
Y5605000D01*
X10517997Y5590000D02*
X10547997D01*
X10532997Y5575000D02*
Y5605000D01*
X10390997Y5390000D02*
X10420997D01*
X10405997Y5375000D02*
Y5405000D01*
X10262499Y5390000D02*
X10292499D01*
X10277499Y5375000D02*
Y5405000D01*
X10517997Y5390000D02*
X10547997D01*
X10532997Y5375000D02*
Y5405000D01*
X10390997Y5590000D02*
X10420997D01*
X10405997Y5575000D02*
Y5605000D01*
X10263997Y5590000D02*
X10293997D01*
X10278997Y5575000D02*
Y5605000D01*
X10104997Y5590000D02*
X10134997D01*
X10119997Y5575000D02*
Y5605000D01*
X9977997Y5590000D02*
X10007997D01*
X9992997Y5575000D02*
Y5605000D01*
X9850997Y5390000D02*
X9880997D01*
X9865997Y5375000D02*
Y5405000D01*
X9977997Y5390000D02*
X10007997D01*
X9992997Y5375000D02*
Y5405000D01*
X9850997Y5590000D02*
X9880997D01*
X9865997Y5575000D02*
Y5605000D01*
X9723997Y5590000D02*
X9753997D01*
X9738997Y5575000D02*
Y5605000D01*
X9564997Y5590000D02*
X9594997D01*
X9579997Y5575000D02*
Y5605000D01*
X9437997Y5590000D02*
X9467997D01*
X9452997Y5575000D02*
Y5605000D01*
X9310997Y5390000D02*
X9340997D01*
X9325997Y5375000D02*
Y5405000D01*
X9182500Y5390000D02*
X9212499D01*
X9197500Y5375000D02*
Y5405000D01*
X9437997Y5390000D02*
X9467997D01*
X9452997Y5375000D02*
Y5405000D01*
X9310997Y5590000D02*
X9340997D01*
X9325997Y5575000D02*
Y5605000D01*
X9183997Y5590000D02*
X9213997D01*
X9198997Y5575000D02*
Y5605000D01*
X9024997Y5590000D02*
X9054997D01*
X9039997Y5575000D02*
Y5605000D01*
X8897997Y5590000D02*
X8927997D01*
X8912997Y5575000D02*
Y5605000D01*
X8770997Y5390000D02*
X8800997D01*
X8785997Y5375000D02*
Y5405000D01*
X8642500Y5390000D02*
X8672500D01*
X8657500Y5375000D02*
Y5405000D01*
X8897997Y5390000D02*
X8927997D01*
X8912997Y5375000D02*
Y5405000D01*
X8770997Y5590000D02*
X8800997D01*
X8785997Y5575000D02*
Y5605000D01*
X8643997Y5590000D02*
X8673997D01*
X8658997Y5575000D02*
Y5605000D01*
X8102500Y5390000D02*
X8132500D01*
X8117500Y5375000D02*
Y5405000D01*
X8103998Y5590000D02*
X8133997D01*
X8118997Y5575000D02*
Y5605000D01*
X8484998Y5590000D02*
X8514997D01*
X8499997Y5575000D02*
Y5605000D01*
X16039999Y5700000D02*
X16360001D01*
X16200000Y5540000D02*
Y5860000D01*
X9340000Y3500000D02*
X9660000D01*
X9500000Y3340000D02*
Y3660000D01*
X16039999Y1300000D02*
X16360001D01*
X16200000Y1140000D02*
Y1460000D01*
X2640000Y5700000D02*
X2960000D01*
X2800000Y5540000D02*
Y5860000D01*
X2640000Y1300000D02*
X2960000D01*
X2800000Y1140000D02*
Y1460000D01*
%TF.MD5,4fe4e48e32f478913f28ae79261170a3*%
M02*
