%TF.GenerationSoftware,Altium Limited,Altium Designer,22.4.2 (48)*%
G04 Layer_Color=16711935*
%FSLAX45Y45*%
%MOMM*%
%TF.SameCoordinates,3A7B4B19-9BDF-4AC5-8A71-DEF6C9DA19E2*%
%TF.FilePolarity,Negative*%
%TF.FileFunction,Soldermask,Bot*%
%TF.Part,Single*%
G01*
G75*
%TA.AperFunction,ViaPad*%
%ADD98C,0.50000*%
%TA.AperFunction,SMDPad,CuDef*%
%ADD105R,1.00000X0.80000*%
%ADD106R,0.80000X1.00000*%
%ADD107R,1.20000X1.15000*%
%ADD108R,1.15000X1.20000*%
%ADD109R,0.80000X0.95000*%
G04:AMPARAMS|DCode=110|XSize=1.2mm|YSize=1.15mm|CornerRadius=0mm|HoleSize=0mm|Usage=FLASHONLY|Rotation=315.000|XOffset=0mm|YOffset=0mm|HoleType=Round|Shape=Rectangle|*
%AMROTATEDRECTD110*
4,1,4,-0.83085,0.01768,-0.01768,0.83085,0.83085,-0.01768,0.01768,-0.83085,-0.83085,0.01768,0.0*
%
%ADD110ROTATEDRECTD110*%

%ADD111R,2.00000X4.54000*%
%TA.AperFunction,ConnectorPad*%
%ADD112R,0.80000X1.00000*%
%TA.AperFunction,ComponentPad*%
%ADD113C,1.20000*%
%ADD114C,4.40000*%
%ADD115C,1.60000*%
%ADD116C,1.69000*%
%ADD117O,1.35000X1.15000*%
%ADD118O,2.00000X1.30000*%
%ADD119R,1.69000X1.69000*%
%ADD120R,1.60000X1.60000*%
%ADD121R,1.60000X1.60000*%
%TA.AperFunction,ViaPad*%
%ADD122C,0.70000*%
%ADD123C,1.10000*%
%ADD124C,2.10000*%
%ADD125C,0.90000*%
%ADD126C,6.10000*%
D98*
X9885000Y1300000D02*
D03*
Y1400000D02*
D03*
X9785000D02*
D03*
Y1300000D02*
D03*
D105*
X6230000Y5785000D02*
D03*
Y5635000D02*
D03*
X5430001Y1915000D02*
D03*
X5175001D02*
D03*
X4920001D02*
D03*
X4665001D02*
D03*
X4410001D02*
D03*
X4155001D02*
D03*
X3900001D02*
D03*
X3645001D02*
D03*
X5430001Y2065000D02*
D03*
Y2495000D02*
D03*
X5175001Y2065000D02*
D03*
Y2495000D02*
D03*
X4920001Y2065000D02*
D03*
Y2495000D02*
D03*
X4665001Y2065000D02*
D03*
Y2495000D02*
D03*
X4410001Y2065000D02*
D03*
Y2495000D02*
D03*
X4155001Y2065000D02*
D03*
Y2495000D02*
D03*
X3900001D02*
D03*
Y2065000D02*
D03*
X3645001Y2495000D02*
D03*
Y2065000D02*
D03*
X14682500Y5804994D02*
D03*
X14682501Y5354995D02*
D03*
Y4904995D02*
D03*
Y4454995D02*
D03*
Y4004995D02*
D03*
Y3554990D02*
D03*
Y3104996D02*
D03*
Y2654996D02*
D03*
Y2204991D02*
D03*
Y1754996D02*
D03*
X5820000Y5295000D02*
D03*
X5605000D02*
D03*
X5175000D02*
D03*
X5390000D02*
D03*
X4745000D02*
D03*
X4960000D02*
D03*
X5860001Y4510000D02*
D03*
X5645001D02*
D03*
X6075001D02*
D03*
X5430001D02*
D03*
X5215000D02*
D03*
X4785000D02*
D03*
X5000000D02*
D03*
X4570000D02*
D03*
X10100000Y2175000D02*
D03*
X8055000Y1295000D02*
D03*
X6095000Y2325000D02*
D03*
X7690000Y1960000D02*
D03*
X5430001Y2645000D02*
D03*
X4920001D02*
D03*
X5175001D02*
D03*
X4155001D02*
D03*
X4410001D02*
D03*
X3900001D02*
D03*
X3645001D02*
D03*
X4665001D02*
D03*
X8663749Y4610000D02*
D03*
Y4760000D02*
D03*
X10100000Y2325000D02*
D03*
X8775000Y1375000D02*
D03*
Y1225000D02*
D03*
X9992500Y1425000D02*
D03*
Y1275000D02*
D03*
X14682500Y5654994D02*
D03*
X14889999Y5654994D02*
D03*
Y5804994D02*
D03*
X14255000Y5654994D02*
D03*
Y5804994D02*
D03*
X14460001Y5654995D02*
D03*
Y5804994D02*
D03*
X4745000Y5765000D02*
D03*
Y5615000D02*
D03*
Y5445000D02*
D03*
X5860001Y4830000D02*
D03*
X5645001D02*
D03*
X5430001D02*
D03*
X5215000D02*
D03*
X5000000D02*
D03*
X4785000D02*
D03*
X4570000D02*
D03*
X5860001Y4660000D02*
D03*
X5645001D02*
D03*
X5430001D02*
D03*
X5215000D02*
D03*
X5000000D02*
D03*
X4785000D02*
D03*
X4570000D02*
D03*
X5820000Y5615000D02*
D03*
Y5445000D02*
D03*
X5605000Y5615000D02*
D03*
Y5445000D02*
D03*
X5390000Y5615000D02*
D03*
Y5445000D02*
D03*
X5175000Y5615000D02*
D03*
Y5445000D02*
D03*
X4960000Y5615000D02*
D03*
Y5445000D02*
D03*
X5860001Y4980000D02*
D03*
X5000000D02*
D03*
X5430001D02*
D03*
X4785000D02*
D03*
X5605000Y5765000D02*
D03*
X5175000D02*
D03*
X5215000Y4980000D02*
D03*
X4570000D02*
D03*
X5820000Y5765000D02*
D03*
X5390000D02*
D03*
X5645001Y4980000D02*
D03*
X4960000Y5765000D02*
D03*
X6075001Y4980000D02*
D03*
Y4830000D02*
D03*
Y4660000D02*
D03*
X10310000Y3250000D02*
D03*
Y3400000D02*
D03*
X9995000Y3390000D02*
D03*
Y3240000D02*
D03*
X8120000Y5864999D02*
D03*
Y5715002D02*
D03*
X14460001Y5354996D02*
D03*
X14255000Y5354995D02*
D03*
X14460001Y4904996D02*
D03*
X14255000Y4904996D02*
D03*
X14460001Y4454991D02*
D03*
X14255000Y4454991D02*
D03*
X14460001Y4004996D02*
D03*
X14255000Y4004996D02*
D03*
X14460001Y3554996D02*
D03*
X14255000Y3554996D02*
D03*
X14460001Y2654996D02*
D03*
X14255000Y2654996D02*
D03*
X14460001Y2204997D02*
D03*
X14255000Y2204996D02*
D03*
X14460001Y1754992D02*
D03*
X14255000Y1754991D02*
D03*
X14460001Y3104991D02*
D03*
X14255000Y3104991D02*
D03*
X8300000Y1445000D02*
D03*
Y1295000D02*
D03*
X8055000Y1445000D02*
D03*
X7525000Y2110000D02*
D03*
Y1960000D02*
D03*
X7690000Y2110000D02*
D03*
X7425000Y2815000D02*
D03*
Y2965000D02*
D03*
X7125000Y2965000D02*
D03*
Y2815000D02*
D03*
X10810000Y1840000D02*
D03*
Y1990000D02*
D03*
X6095000Y2175000D02*
D03*
X5855000Y2170000D02*
D03*
Y2320000D02*
D03*
X9075000Y2235000D02*
D03*
Y2085000D02*
D03*
X9075000Y2385000D02*
D03*
Y2535000D02*
D03*
X9200000Y5864999D02*
D03*
Y5715002D02*
D03*
X9519999Y5114998D02*
D03*
Y5265001D02*
D03*
X9260000Y5114998D02*
D03*
Y5265001D02*
D03*
X9740000Y5864999D02*
D03*
Y5715002D02*
D03*
X10059999Y5114998D02*
D03*
Y5265001D02*
D03*
X9799999Y5114998D02*
D03*
Y5265001D02*
D03*
X8660000Y5864999D02*
D03*
Y5715002D02*
D03*
X8979999Y5114998D02*
D03*
Y5265001D02*
D03*
X8720000Y5114998D02*
D03*
Y5265001D02*
D03*
X8439999D02*
D03*
Y5114998D02*
D03*
X8180000Y5265001D02*
D03*
Y5114998D02*
D03*
X10819999Y5864999D02*
D03*
Y5715002D02*
D03*
X11139999Y5114998D02*
D03*
Y5265001D02*
D03*
X10879999Y5114998D02*
D03*
Y5265001D02*
D03*
X11899999Y5864999D02*
D03*
Y5715002D02*
D03*
X12219999Y5114998D02*
D03*
Y5265001D02*
D03*
X11959999Y5114998D02*
D03*
Y5265001D02*
D03*
X10280000Y5864999D02*
D03*
Y5715002D02*
D03*
X10599999Y5114998D02*
D03*
Y5265001D02*
D03*
X10339999Y5114998D02*
D03*
Y5265001D02*
D03*
X11359999Y5864999D02*
D03*
Y5715002D02*
D03*
X11679999Y5114998D02*
D03*
Y5265001D02*
D03*
X11419999Y5114998D02*
D03*
Y5265001D02*
D03*
X12625001Y2905000D02*
D03*
Y2755000D02*
D03*
Y3170000D02*
D03*
Y3020000D02*
D03*
X13405000Y2905000D02*
D03*
Y2755000D02*
D03*
Y3170000D02*
D03*
Y3020000D02*
D03*
X12625001Y3575000D02*
D03*
Y3425000D02*
D03*
Y3840000D02*
D03*
Y3690000D02*
D03*
X13405000Y3575000D02*
D03*
Y3425000D02*
D03*
Y3840000D02*
D03*
Y3690000D02*
D03*
X12625001Y4245000D02*
D03*
Y4095000D02*
D03*
Y4510000D02*
D03*
Y4360000D02*
D03*
X13405000Y4245000D02*
D03*
Y4095000D02*
D03*
Y4510000D02*
D03*
Y4360000D02*
D03*
X12625001Y4915000D02*
D03*
Y4765000D02*
D03*
Y5180000D02*
D03*
Y5030000D02*
D03*
X13405000Y4915000D02*
D03*
Y4765000D02*
D03*
Y5180000D02*
D03*
Y5030000D02*
D03*
X12625001Y5585000D02*
D03*
Y5435000D02*
D03*
Y5850000D02*
D03*
Y5700000D02*
D03*
X13405000Y5850000D02*
D03*
Y5700000D02*
D03*
Y5585000D02*
D03*
Y5435000D02*
D03*
X14682501Y1604999D02*
D03*
X14890001Y1604994D02*
D03*
Y1754991D02*
D03*
X14255000Y1604994D02*
D03*
X14460001Y1604995D02*
D03*
X14682501Y3404993D02*
D03*
X14890001Y3554996D02*
D03*
Y3404999D02*
D03*
X14255000D02*
D03*
X14460001Y3404999D02*
D03*
X14682501Y2504993D02*
D03*
X14890001Y2654996D02*
D03*
Y2504994D02*
D03*
X14255000D02*
D03*
X14460001Y2504994D02*
D03*
X14682501Y4304998D02*
D03*
X14890001Y4454991D02*
D03*
Y4304993D02*
D03*
X14255000D02*
D03*
X14460001Y4304994D02*
D03*
X14682501Y5204993D02*
D03*
X14890001Y5354995D02*
D03*
Y5204993D02*
D03*
X14255000D02*
D03*
X14460001Y5204993D02*
D03*
X14682501Y2954998D02*
D03*
X14890001Y3104991D02*
D03*
Y2954994D02*
D03*
X14255000D02*
D03*
X14460001Y2954994D02*
D03*
X14682501Y3854993D02*
D03*
X14890001Y4004996D02*
D03*
Y3854994D02*
D03*
X14255000D02*
D03*
X14460001Y3854994D02*
D03*
X14682501Y2054994D02*
D03*
X14890001Y2204996D02*
D03*
Y2054999D02*
D03*
X14255000D02*
D03*
X14460001Y2054999D02*
D03*
X14682501Y4754993D02*
D03*
X14890001Y4904996D02*
D03*
Y4754993D02*
D03*
X14255000D02*
D03*
X14460001Y4754994D02*
D03*
D106*
X5340000Y4080000D02*
D03*
X15630000Y5839994D02*
D03*
X15629999Y5649997D02*
D03*
X15630000Y5389996D02*
D03*
Y4939996D02*
D03*
X15630000Y5199998D02*
D03*
Y4749999D02*
D03*
X15630000Y4489996D02*
D03*
X15630000Y4299999D02*
D03*
X15630000Y4039996D02*
D03*
X15630000Y3849999D02*
D03*
X15629996Y3589996D02*
D03*
X15629996Y3399999D02*
D03*
X15630000Y3139996D02*
D03*
X15630000Y2949999D02*
D03*
X15630000Y2689996D02*
D03*
X15630000Y2499999D02*
D03*
X15629996Y2239997D02*
D03*
X15629996Y2049999D02*
D03*
X15630000Y1789997D02*
D03*
X15630000Y1600000D02*
D03*
X5190000Y4080000D02*
D03*
X7105000Y1169999D02*
D03*
X7255000D02*
D03*
X7100000Y1365000D02*
D03*
X7250000D02*
D03*
X7250000Y1559999D02*
D03*
X7100000D02*
D03*
X15480000Y5839994D02*
D03*
X15480000Y5649997D02*
D03*
X11880000Y2905000D02*
D03*
X12030000D02*
D03*
X11885000Y4015000D02*
D03*
X12035000D02*
D03*
X10747500Y4427500D02*
D03*
X10897500D02*
D03*
X10835000Y3725000D02*
D03*
X10985000D02*
D03*
X11735000Y3729997D02*
D03*
X11585000D02*
D03*
X11585000Y3269998D02*
D03*
X11735000Y3269998D02*
D03*
X2990000Y5125000D02*
D03*
X2840000D02*
D03*
X2990000Y4910000D02*
D03*
X2840000Y4910000D02*
D03*
X7300000Y3360000D02*
D03*
X7450000D02*
D03*
X7215000Y5461361D02*
D03*
X7065000Y5461361D02*
D03*
X7210000Y5656361D02*
D03*
X7060000Y5656361D02*
D03*
X15480003Y1789997D02*
D03*
X15480003Y1600000D02*
D03*
X15479999Y3589996D02*
D03*
X15479997Y3399999D02*
D03*
X15479999Y2689996D02*
D03*
X15479997Y2499999D02*
D03*
X15480003Y4489996D02*
D03*
X15480003Y4299999D02*
D03*
X15479999Y5389996D02*
D03*
X15479997Y5199998D02*
D03*
X15480003Y3139996D02*
D03*
X15480003Y2949999D02*
D03*
X15479999Y4039996D02*
D03*
X15479997Y3849999D02*
D03*
X15479999Y2239997D02*
D03*
X15479997Y2049999D02*
D03*
X15479999Y4939996D02*
D03*
X15479997Y4749999D02*
D03*
D107*
X5430001Y2350000D02*
D03*
X5175001Y2350000D02*
D03*
X4920001D02*
D03*
X4665001D02*
D03*
X4410001D02*
D03*
X4155001D02*
D03*
X3900001D02*
D03*
X3645001D02*
D03*
X15157500Y5799994D02*
D03*
X15157500Y5349994D02*
D03*
Y4899994D02*
D03*
Y4449994D02*
D03*
Y3999994D02*
D03*
Y3550000D02*
D03*
Y3099995D02*
D03*
Y2649995D02*
D03*
Y2200000D02*
D03*
Y1749995D02*
D03*
X11660000Y3570000D02*
D03*
X10747500Y4637500D02*
D03*
X6625000Y5670000D02*
D03*
X10310000Y3580000D02*
D03*
X9995000D02*
D03*
X7930000Y4310000D02*
D03*
X7280000D02*
D03*
X3985000Y5105000D02*
D03*
X6430000Y4310000D02*
D03*
X10914999Y3445001D02*
D03*
X8595000Y2240000D02*
D03*
X7875000Y2660000D02*
D03*
X11055000Y1845000D02*
D03*
X10280000Y1420000D02*
D03*
X9677500D02*
D03*
X9200000Y1530000D02*
D03*
X7815000Y1440000D02*
D03*
X6475000Y2660000D02*
D03*
X5430001Y2210000D02*
D03*
X4155001D02*
D03*
X5175001D02*
D03*
X4665001D02*
D03*
X4920001D02*
D03*
X4410001D02*
D03*
X3900001D02*
D03*
X3645001D02*
D03*
X6625000Y5810000D02*
D03*
X9200000Y1390000D02*
D03*
X9677500Y1280000D02*
D03*
X10280000D02*
D03*
X15157500Y5659994D02*
D03*
X10310000Y3720000D02*
D03*
X9995000D02*
D03*
X8595000Y2380000D02*
D03*
X7815000Y1300000D02*
D03*
X10914999Y3585001D02*
D03*
X6925000Y3620000D02*
D03*
Y3760000D02*
D03*
X7225000Y3620000D02*
D03*
Y3760000D02*
D03*
X11055000Y1985000D02*
D03*
X11660000Y3430000D02*
D03*
X10747500Y4777500D02*
D03*
X3985000Y5245000D02*
D03*
X7280000Y4170000D02*
D03*
X6475000Y2800000D02*
D03*
X6430000Y4170000D02*
D03*
X7930000D02*
D03*
X7875000Y2800000D02*
D03*
X6625000Y3620000D02*
D03*
Y3760000D02*
D03*
X15157500Y2959995D02*
D03*
Y1609995D02*
D03*
Y3409995D02*
D03*
Y2509995D02*
D03*
Y4309994D02*
D03*
Y5209994D02*
D03*
Y3859995D02*
D03*
Y2059995D02*
D03*
Y4759994D02*
D03*
D108*
X12260001Y2120000D02*
D03*
X12124999Y1590002D02*
D03*
X11870001Y2124999D02*
D03*
X11940001Y1590001D02*
D03*
X8850000Y4755000D02*
D03*
X9735000Y4400000D02*
D03*
X5915000Y4145000D02*
D03*
X9735000Y2905000D02*
D03*
X6055000Y4145000D02*
D03*
X11730002Y2124999D02*
D03*
X12120002Y2120000D02*
D03*
X11800002Y1590001D02*
D03*
X12264998Y1590002D02*
D03*
X8335000Y5755000D02*
D03*
X8475000D02*
D03*
X9595000Y4400000D02*
D03*
Y2905000D02*
D03*
X8990000Y4755000D02*
D03*
X9415000Y5755000D02*
D03*
X9554999D02*
D03*
X9955000D02*
D03*
X10094999D02*
D03*
X8875000D02*
D03*
X9014999D02*
D03*
X11035000D02*
D03*
X11174999D02*
D03*
X12114999D02*
D03*
X12254999D02*
D03*
X10495000D02*
D03*
X10634999D02*
D03*
X11574999D02*
D03*
X11714999D02*
D03*
D109*
X6325000Y3767500D02*
D03*
Y3612500D02*
D03*
X7525000Y3767500D02*
D03*
Y3612500D02*
D03*
D110*
X5325502Y1185503D02*
D03*
X5424497Y1284498D02*
D03*
D111*
X16387500Y5031800D02*
D03*
X15962500Y5031800D02*
D03*
X16387500Y4521800D02*
D03*
X15962500D02*
D03*
X16387500Y4011799D02*
D03*
X15962500D02*
D03*
X16387500Y3501800D02*
D03*
X15962500D02*
D03*
X16387500Y2991799D02*
D03*
X15962500D02*
D03*
D112*
X7060000Y5851361D02*
D03*
X7210000Y5851361D02*
D03*
D113*
X5299999Y1630000D02*
D03*
X5050002D02*
D03*
X4924998D02*
D03*
X4675001D02*
D03*
X4550003D02*
D03*
X4300000D02*
D03*
X4175002D02*
D03*
X3925000D02*
D03*
X3800002D02*
D03*
X3800001Y1505001D02*
D03*
X16700000Y2250000D02*
D03*
X16825000D02*
D03*
X5175000Y1630000D02*
D03*
X5175000Y1505001D02*
D03*
X4800000Y1630000D02*
D03*
X4424999D02*
D03*
X4424999Y1505001D02*
D03*
X4800000D02*
D03*
X4049999Y1630000D02*
D03*
Y1505001D02*
D03*
X5299998D02*
D03*
X5050002D02*
D03*
X4924998D02*
D03*
X4675001D02*
D03*
X4550003D02*
D03*
X4300001D02*
D03*
X4175002D02*
D03*
X3925000D02*
D03*
X5690001Y1630000D02*
D03*
X3410000Y1630000D02*
D03*
X16700000Y4875000D02*
D03*
X16825000D02*
D03*
X16700000Y4625000D02*
D03*
X16825000D02*
D03*
X16700000Y4375000D02*
D03*
X16825000D02*
D03*
X16700000Y4125000D02*
D03*
X16825000D02*
D03*
X16700000Y3875000D02*
D03*
X16825000D02*
D03*
X16700000Y3625000D02*
D03*
X16825000D02*
D03*
X16700000Y3375000D02*
D03*
X16825000D02*
D03*
X16700000Y3125000D02*
D03*
X16825000D02*
D03*
X16700000Y2875000D02*
D03*
X16825000D02*
D03*
X16700000Y2625000D02*
D03*
X16825000D02*
D03*
X16700000Y2500000D02*
D03*
X16825000Y2375000D02*
D03*
Y2500000D02*
D03*
X16700000Y2125000D02*
D03*
X16825000D02*
D03*
X16700000Y2375000D02*
D03*
Y2000000D02*
D03*
X16825000D02*
D03*
X16700000Y1610000D02*
D03*
Y5390000D02*
D03*
X16825000Y2750000D02*
D03*
Y3000000D02*
D03*
Y3250000D02*
D03*
Y3500000D02*
D03*
Y3750000D02*
D03*
Y4000000D02*
D03*
Y4250000D02*
D03*
Y4500000D02*
D03*
Y4750000D02*
D03*
Y5000000D02*
D03*
X16700000Y2750000D02*
D03*
Y3000000D02*
D03*
Y3250000D02*
D03*
Y3500000D02*
D03*
Y3750000D02*
D03*
Y4000000D02*
D03*
Y4250000D02*
D03*
Y4500000D02*
D03*
Y4750000D02*
D03*
Y5000000D02*
D03*
D114*
X16220000Y2460000D02*
D03*
X16220000Y1959996D02*
D03*
D115*
X13450000Y2315000D02*
D03*
X6499999Y1744000D02*
D03*
X6245999D02*
D03*
Y1490000D02*
D03*
X6499999D02*
D03*
X6245998Y1236000D02*
D03*
X13196001Y2315000D02*
D03*
D116*
X9800000Y4199999D02*
D03*
Y2699999D02*
D03*
X10050002Y4199999D02*
D03*
X9549998D02*
D03*
X11349998Y4200002D02*
D03*
X11600000D02*
D03*
X11850002D02*
D03*
X11849999Y2700001D02*
D03*
X11599997D02*
D03*
X11350000D02*
D03*
X9549998Y2699999D02*
D03*
X10050002D02*
D03*
D117*
X2450000Y5322500D02*
D03*
Y4877497D02*
D03*
D118*
X2150001Y5517501D02*
D03*
X2150001Y4682502D02*
D03*
D119*
X10299999Y4199999D02*
D03*
X12099999Y4200001D02*
D03*
X12100001Y2700001D02*
D03*
X10299999Y2699999D02*
D03*
D120*
X6499999Y1236000D02*
D03*
D121*
X13703999Y2315000D02*
D03*
D122*
X5410000Y3770000D02*
D03*
X5530000Y3605000D02*
D03*
Y3470000D02*
D03*
X6215000Y5502501D02*
D03*
X6500000Y4825000D02*
D03*
X6225000Y4875000D02*
D03*
X6700000Y4850000D02*
D03*
X6325000Y2400000D02*
D03*
X5365000Y4385000D02*
D03*
X6730000Y4300000D02*
D03*
X5760000Y4770000D02*
D03*
X5720000Y5180000D02*
D03*
Y5875000D02*
D03*
X5340000Y4210000D02*
D03*
X5450000Y4100000D02*
D03*
X8450000Y4565000D02*
D03*
X6240000Y4475000D02*
D03*
X6350000Y4725000D02*
D03*
X11880000Y3760000D02*
D03*
X11950000Y3565000D02*
D03*
X12025000Y3500000D02*
D03*
X12085000Y3860000D02*
D03*
X12300000Y3100000D02*
D03*
X12150000Y3775000D02*
D03*
X11160000Y4555000D02*
D03*
Y4679998D02*
D03*
X9215000Y1975000D02*
D03*
X9500000Y1695000D02*
D03*
X6062196Y1944395D02*
D03*
X7850000Y1825000D02*
D03*
Y1925000D02*
D03*
X7600000Y2850000D02*
D03*
X7325000Y2450000D02*
D03*
X7250000Y2400000D02*
D03*
X7210000Y2540000D02*
D03*
X6750000Y1920000D02*
D03*
X7600000Y2750000D02*
D03*
X7095000Y2625000D02*
D03*
X6975000Y3925000D02*
D03*
X6875000Y3925294D02*
D03*
X6425000Y4600000D02*
D03*
X6500000Y4675000D02*
D03*
X5715000Y4010000D02*
D03*
X5730000Y4170000D02*
D03*
X5725000Y4090000D02*
D03*
X5500000Y3150000D02*
D03*
X6550000Y3100000D02*
D03*
X6475000Y3175000D02*
D03*
X7975000Y3250000D02*
D03*
X6340000Y3400000D02*
D03*
X6125000Y2600000D02*
D03*
X7200000Y2620000D02*
D03*
X5500000Y3050000D02*
D03*
X5255000Y3805000D02*
D03*
X6285000Y2150000D02*
D03*
X6075000Y2675000D02*
D03*
X6975000Y4530000D02*
D03*
X7025000Y4600000D02*
D03*
X6450000Y3840000D02*
D03*
X6920000Y4390000D02*
D03*
X6860000Y4335000D02*
D03*
X6975000Y4450000D02*
D03*
X6800000Y4275000D02*
D03*
X5085000Y1185503D02*
D03*
X13600000Y5454500D02*
D03*
X12820001D02*
D03*
X11199999Y5390000D02*
D03*
X12279999D02*
D03*
X11739999D02*
D03*
X13600000Y4784500D02*
D03*
Y4114501D02*
D03*
X12820001Y4784500D02*
D03*
Y4114501D02*
D03*
X13600000Y3444501D02*
D03*
X12820001D02*
D03*
X13600000Y2774501D02*
D03*
X12820001D02*
D03*
X11100000Y3515000D02*
D03*
X10659999Y5390000D02*
D03*
X10119999D02*
D03*
X9579999D02*
D03*
X10587500Y4617500D02*
D03*
X9039999Y5390000D02*
D03*
X8499999D02*
D03*
X9050000Y4900000D02*
D03*
X9850000Y3730002D02*
D03*
X10500000Y3530002D02*
D03*
X7525000Y4350000D02*
D03*
X6680000Y4190000D02*
D03*
X7775000Y4100000D02*
D03*
X6385000Y5632501D02*
D03*
X4156716Y5100000D02*
D03*
X3620000Y4625000D02*
D03*
X5275000Y3475000D02*
D03*
X4379998Y4510000D02*
D03*
X2100000Y3550000D02*
D03*
X9850000Y3225000D02*
D03*
X8275000Y3400000D02*
D03*
X7850000Y2975000D02*
D03*
X8400000Y2175000D02*
D03*
X10150000Y1700000D02*
D03*
Y1500000D02*
D03*
X7575000Y1433500D02*
D03*
X6725000Y2875000D02*
D03*
X7175000Y2280000D02*
D03*
X2100000Y2819998D02*
D03*
X5850000Y1925000D02*
D03*
X3000000Y1900000D02*
D03*
X8775000Y4200000D02*
D03*
X8535000Y4900000D02*
D03*
X7850000Y2375000D02*
D03*
X7925000Y2350000D02*
D03*
X8000000Y2375000D02*
D03*
X6750000Y1410000D02*
D03*
X11725000Y2905000D02*
D03*
X6950000Y1525000D02*
D03*
X7440000Y1490000D02*
D03*
Y1240000D02*
D03*
Y1365000D02*
D03*
X6870000Y1525000D02*
D03*
X6790000D02*
D03*
X6770000Y4190000D02*
D03*
X4465000Y4745000D02*
D03*
X4125000Y5025000D02*
D03*
X4150000Y4951252D02*
D03*
X4125000Y5281249D02*
D03*
Y5171252D02*
D03*
Y5391251D02*
D03*
Y5501248D02*
D03*
Y5611251D02*
D03*
X7225000Y3140000D02*
D03*
X7325000D02*
D03*
X6264930Y5307423D02*
D03*
X6265000Y5437500D02*
D03*
X6385000Y5502501D02*
D03*
X6215000Y5372500D02*
D03*
X8275000Y3485000D02*
D03*
X6625000Y3450000D02*
D03*
X6175000Y3625000D02*
D03*
X6925000Y3465000D02*
D03*
X7075000Y3450000D02*
D03*
X7150000Y2355000D02*
D03*
X6250000Y3400000D02*
D03*
X7525000Y4225000D02*
D03*
X7900000Y4000000D02*
D03*
X6650000Y2925000D02*
D03*
X9950000Y2345000D02*
D03*
X5370000Y3285000D02*
D03*
X8575000Y2700000D02*
D03*
X10230000Y2925000D02*
D03*
X10310000D02*
D03*
X7725000Y5100000D02*
D03*
X7625000D02*
D03*
X7525000D02*
D03*
X7425000D02*
D03*
Y5185000D02*
D03*
X7325000Y2725000D02*
D03*
X7225000D02*
D03*
X9400000Y4265000D02*
D03*
X8450000Y4205000D02*
D03*
X10035000Y4625000D02*
D03*
X7750000Y4850000D02*
D03*
X7850000D02*
D03*
X10205000Y4625000D02*
D03*
X10120000D02*
D03*
X10587500Y4430001D02*
D03*
X11350000Y3750000D02*
D03*
X11225000D02*
D03*
X9950000Y4625000D02*
D03*
X10725000Y4150000D02*
D03*
X10675000Y3775000D02*
D03*
X10550000Y3600000D02*
D03*
X10500000Y3679999D02*
D03*
X9850000Y3375000D02*
D03*
Y3620000D02*
D03*
X10925000Y4150000D02*
D03*
X10825000D02*
D03*
X11125000Y3700000D02*
D03*
X11100000Y3425000D02*
D03*
X10725000Y3400000D02*
D03*
X8025000Y2075000D02*
D03*
X8125000D02*
D03*
X8225000D02*
D03*
X11735000Y4435000D02*
D03*
X11350000Y3600000D02*
D03*
Y3500000D02*
D03*
X11950000Y3435000D02*
D03*
X8060000Y3660000D02*
D03*
X8372997Y5390000D02*
D03*
X8245997Y5590000D02*
D03*
X8372997D02*
D03*
X7995000Y3725000D02*
D03*
X7930000Y3790000D02*
D03*
X8245997Y5390000D02*
D03*
X8900000Y1330000D02*
D03*
Y1250000D02*
D03*
X8825000Y1750000D02*
D03*
Y1650000D02*
D03*
X9495000Y1510000D02*
D03*
X8400000Y2425000D02*
D03*
X9550000Y1450000D02*
D03*
X9495000Y1390000D02*
D03*
X9550000Y1330000D02*
D03*
X9500000Y1210000D02*
D03*
X10150000Y1200000D02*
D03*
Y1300000D02*
D03*
Y1400000D02*
D03*
X8525000Y1305000D02*
D03*
Y1435000D02*
D03*
Y1560500D02*
D03*
X7575000Y1306500D02*
D03*
X6540000Y2000000D02*
D03*
X6375000Y1975000D02*
D03*
X7575000Y1179500D02*
D03*
Y1560500D02*
D03*
X6625000Y2000000D02*
D03*
X15280000Y1505000D02*
D03*
X12500000Y2630000D02*
D03*
X8475000Y2700000D02*
D03*
X12300000Y3400000D02*
D03*
X8375000Y2700000D02*
D03*
X8275000D02*
D03*
X7925000Y3050000D02*
D03*
X12300000Y3000000D02*
D03*
Y3200000D02*
D03*
Y3300000D02*
D03*
Y3625000D02*
D03*
X12475000Y3765000D02*
D03*
X12225000Y3700000D02*
D03*
X8945000Y3420000D02*
D03*
X8900000Y3500000D02*
D03*
X8975000Y3560000D02*
D03*
X8910000Y3630000D02*
D03*
X8975000Y3700000D02*
D03*
X12250000Y4025000D02*
D03*
X12275000Y4925000D02*
D03*
X12175000Y4700000D02*
D03*
X12200000Y5000000D02*
D03*
X12100000Y4775000D02*
D03*
X9000000Y4225000D02*
D03*
X9575000Y4625000D02*
D03*
X12475000Y4735000D02*
D03*
X13600000Y4360000D02*
D03*
Y4495501D02*
D03*
X9400000Y4625000D02*
D03*
X9250000Y4900000D02*
D03*
X12820001Y5165500D02*
D03*
X12970001D02*
D03*
X13675000Y5375000D02*
D03*
X8375000Y4865000D02*
D03*
X8295000Y4925000D02*
D03*
X12820001Y5835500D02*
D03*
X12025997Y5390000D02*
D03*
X12105000Y4385000D02*
D03*
X12152997Y5390000D02*
D03*
X9737499D02*
D03*
X11072997Y5590000D02*
D03*
X11357499Y5390000D02*
D03*
X11072997D02*
D03*
X12152997Y5590000D02*
D03*
X9150000Y4900000D02*
D03*
X14135001Y3855001D02*
D03*
X14460001Y3765000D02*
D03*
X14460001Y3644995D02*
D03*
Y1844995D02*
D03*
X14460001Y1965000D02*
D03*
X12475000Y3350000D02*
D03*
X14255000Y2300001D02*
D03*
X14460001Y2294995D02*
D03*
X14460001Y2415000D02*
D03*
Y2865000D02*
D03*
X14460001Y2744995D02*
D03*
X14125000Y3405001D02*
D03*
X13675000Y4705000D02*
D03*
X12895001D02*
D03*
X12820001Y4495501D02*
D03*
X14460001Y4665000D02*
D03*
X14460001Y4544994D02*
D03*
X14125000Y2055001D02*
D03*
X12475000Y5225000D02*
D03*
Y5350000D02*
D03*
X14255000Y5000000D02*
D03*
Y5450000D02*
D03*
X14460001Y5565000D02*
D03*
X14460001Y5444994D02*
D03*
X14564999Y5105000D02*
D03*
Y4655000D02*
D03*
Y4205000D02*
D03*
Y3755000D02*
D03*
Y3305000D02*
D03*
Y2855000D02*
D03*
Y2405000D02*
D03*
Y1955000D02*
D03*
Y1505000D02*
D03*
Y5555000D02*
D03*
X9035000Y3785000D02*
D03*
X9000000Y3865000D02*
D03*
X9075000Y3925000D02*
D03*
X9000000Y3985000D02*
D03*
X9075000Y4045000D02*
D03*
X9000000Y4105000D02*
D03*
X9075000Y4165000D02*
D03*
X8375000Y4265000D02*
D03*
Y4385000D02*
D03*
Y4505000D02*
D03*
X8450000Y4685000D02*
D03*
X8375000Y4745000D02*
D03*
X8450000Y4325000D02*
D03*
Y4445000D02*
D03*
X8375000Y4625000D02*
D03*
X8450000Y4805000D02*
D03*
X14255000Y1850001D02*
D03*
X13750000Y3155501D02*
D03*
X14125000Y2505001D02*
D03*
Y2955001D02*
D03*
X13750000Y5454500D02*
D03*
X12970001Y2774501D02*
D03*
Y2901501D02*
D03*
Y3028501D02*
D03*
Y3155501D02*
D03*
X12850000Y2695000D02*
D03*
X12820001Y2901501D02*
D03*
Y3020000D02*
D03*
Y3155501D02*
D03*
X13750000Y2774501D02*
D03*
Y2901501D02*
D03*
Y3028501D02*
D03*
X13675000Y2695000D02*
D03*
X13600000Y2901501D02*
D03*
Y3020000D02*
D03*
Y3155501D02*
D03*
X12970001Y3444501D02*
D03*
Y3571501D02*
D03*
Y3698501D02*
D03*
Y3825501D02*
D03*
X12895001Y3365000D02*
D03*
X12820001Y3571501D02*
D03*
Y3690000D02*
D03*
Y3825501D02*
D03*
X13750000Y3444501D02*
D03*
Y3571501D02*
D03*
Y3698501D02*
D03*
Y3825501D02*
D03*
X13675000Y3365000D02*
D03*
X13600000Y3571501D02*
D03*
Y3690000D02*
D03*
Y3825501D02*
D03*
X12970001Y4114501D02*
D03*
Y4241501D02*
D03*
Y4368501D02*
D03*
Y4495501D02*
D03*
X12895001Y4035000D02*
D03*
X12820001Y4241501D02*
D03*
Y4360000D02*
D03*
X13750000Y4114501D02*
D03*
Y4241501D02*
D03*
Y4368501D02*
D03*
Y4495501D02*
D03*
X13675000Y4035000D02*
D03*
X13600000Y4241501D02*
D03*
X12970001Y4784500D02*
D03*
Y4911500D02*
D03*
Y5038500D02*
D03*
X12820001Y4911500D02*
D03*
Y5030000D02*
D03*
X13750000Y4784500D02*
D03*
Y4911500D02*
D03*
Y5038500D02*
D03*
Y5165500D02*
D03*
X13600000Y4911500D02*
D03*
Y5030000D02*
D03*
Y5165500D02*
D03*
X12970001Y5454500D02*
D03*
Y5581500D02*
D03*
Y5708500D02*
D03*
Y5835500D02*
D03*
X12850000Y5375000D02*
D03*
X12820001Y5581500D02*
D03*
Y5700000D02*
D03*
X13600000D02*
D03*
X14460001Y1515000D02*
D03*
X14125000Y1605001D02*
D03*
X15280000Y1865000D02*
D03*
X14989999Y1759995D02*
D03*
X15280000Y1955000D02*
D03*
Y2315000D02*
D03*
X14989999Y2209995D02*
D03*
X15280000Y2405000D02*
D03*
Y2765000D02*
D03*
X14989999Y2659995D02*
D03*
X14255000Y2750001D02*
D03*
X15280000Y2854999D02*
D03*
Y3214999D02*
D03*
X14460001Y3194995D02*
D03*
X14989999Y3109995D02*
D03*
X14255000Y3200001D02*
D03*
X14460001Y3315000D02*
D03*
X15280000Y3304999D02*
D03*
Y3664999D02*
D03*
X14989999Y3559995D02*
D03*
X14255000Y3650001D02*
D03*
X15280000Y3754999D02*
D03*
Y4114999D02*
D03*
X14460001Y4094995D02*
D03*
X14989999Y4009995D02*
D03*
X14255000Y4100000D02*
D03*
X14460001Y4215000D02*
D03*
X14125000Y4305001D02*
D03*
X15280000Y4204999D02*
D03*
Y4564999D02*
D03*
X14989999Y4459995D02*
D03*
X14255000Y4550000D02*
D03*
X14125000Y4755000D02*
D03*
X15280000Y4654999D02*
D03*
Y5014999D02*
D03*
X14460001Y4994994D02*
D03*
X14989999Y4909994D02*
D03*
X14460001Y5115000D02*
D03*
X14125000Y5205000D02*
D03*
X15280000Y5104999D02*
D03*
Y5464999D02*
D03*
X14989999Y5359994D02*
D03*
X14125000Y5655000D02*
D03*
X15280000Y5554999D02*
D03*
Y5914999D02*
D03*
X14255000Y5900000D02*
D03*
X14460001Y5894994D02*
D03*
X14989999Y5809994D02*
D03*
X13600000Y5581500D02*
D03*
X13750000D02*
D03*
Y5708500D02*
D03*
Y5835500D02*
D03*
X13600000D02*
D03*
X6250000Y4725000D02*
D03*
X6275000Y1975000D02*
D03*
X6000000Y2600000D02*
D03*
X6175000Y1975000D02*
D03*
X5750000Y1925000D02*
D03*
X4185000Y4575000D02*
D03*
X3075000Y1825000D02*
D03*
X2100000Y3010000D02*
D03*
Y3200000D02*
D03*
Y3410000D02*
D03*
X5710000Y3930000D02*
D03*
X5525000Y4025000D02*
D03*
Y4175000D02*
D03*
X5970001Y4745000D02*
D03*
X2625000Y5050000D02*
D03*
Y5225000D02*
D03*
X5245000Y4745000D02*
D03*
X5325001Y4745000D02*
D03*
X5715001Y5530000D02*
D03*
X5500000D02*
D03*
X6435000Y5567501D02*
D03*
Y5697501D02*
D03*
X6385000Y5762501D02*
D03*
X6265000Y5177500D02*
D03*
X6215000Y5242500D02*
D03*
X7400000Y5531361D02*
D03*
Y5781361D02*
D03*
Y5656361D02*
D03*
X5540001Y4745000D02*
D03*
X5285000Y5530000D02*
D03*
X5070000D02*
D03*
X4855000D02*
D03*
X4640000D02*
D03*
X4680001Y4745000D02*
D03*
X4895001D02*
D03*
X10587500Y4742500D02*
D03*
X6610000Y4850000D02*
D03*
X6750000Y4925000D02*
D03*
X6775000Y5025000D02*
D03*
X6850000Y5075000D02*
D03*
X6925000Y5025000D02*
D03*
X12279997Y5590000D02*
D03*
X11897499Y5390000D02*
D03*
X12025997Y5590000D02*
D03*
X11898997D02*
D03*
X11739997D02*
D03*
X11612997D02*
D03*
X11485997Y5390000D02*
D03*
X11612997D02*
D03*
X11485997Y5590000D02*
D03*
X11358997D02*
D03*
X11199997D02*
D03*
X10945997Y5390000D02*
D03*
X10817499D02*
D03*
X10945997Y5590000D02*
D03*
X10818997D02*
D03*
X10659997D02*
D03*
X10532997D02*
D03*
X10405997Y5390000D02*
D03*
X10277499D02*
D03*
X10532997D02*
D03*
X10405997Y5590000D02*
D03*
X10278997D02*
D03*
X10119997D02*
D03*
X9992997D02*
D03*
X9865997Y5390000D02*
D03*
X9992997D02*
D03*
X9865997Y5590000D02*
D03*
X9738997D02*
D03*
X9579997D02*
D03*
X9452997D02*
D03*
X9325997Y5390000D02*
D03*
X9197500D02*
D03*
X9452997D02*
D03*
X9325997Y5590000D02*
D03*
X9198997D02*
D03*
X9039997D02*
D03*
X8912997D02*
D03*
X8785997Y5390000D02*
D03*
X8657500D02*
D03*
X8912997D02*
D03*
X8785997Y5590000D02*
D03*
X8658997D02*
D03*
X8117500Y5390000D02*
D03*
X8118997Y5590000D02*
D03*
X8499997D02*
D03*
D123*
X15764999Y5884994D02*
D03*
Y4984994D02*
D03*
Y5434994D02*
D03*
Y4534994D02*
D03*
Y4084995D02*
D03*
Y3634995D02*
D03*
Y3184995D02*
D03*
Y2734995D02*
D03*
Y2284995D02*
D03*
Y1834995D02*
D03*
X12040000Y1400000D02*
D03*
X11755000Y1800000D02*
D03*
X10500000Y1325000D02*
D03*
X10925000Y1650000D02*
D03*
X3275000Y5225000D02*
D03*
X12270000Y2310000D02*
D03*
X11725000Y2350000D02*
D03*
X12270000Y1400000D02*
D03*
X11810000D02*
D03*
D124*
X13450000Y1880000D02*
D03*
D125*
X11225000Y1845000D02*
D03*
X6800000Y5840000D02*
D03*
X6885000Y1225000D02*
D03*
X11025000Y1210000D02*
D03*
Y1310000D02*
D03*
Y1415000D02*
D03*
Y1515000D02*
D03*
X10350000Y2050000D02*
D03*
X10585002D02*
D03*
X10925000Y2269999D02*
D03*
X9350000Y2120000D02*
D03*
Y2245000D02*
D03*
Y2375000D02*
D03*
Y2500000D02*
D03*
X14975000Y1450000D02*
D03*
X14855000D02*
D03*
X16500000Y2200000D02*
D03*
D126*
X16200000Y5700000D02*
D03*
X9500000Y3500000D02*
D03*
X16200000Y1300000D02*
D03*
X2800000Y5700000D02*
D03*
Y1300000D02*
D03*
%TF.MD5,3d8ee3344e3fe57c528217aa386e097b*%
M02*
