%TF.GenerationSoftware,Altium Limited,Altium Designer,22.4.2 (48)*%
G04 Layer_Color=8388736*
%FSLAX45Y45*%
%MOMM*%
%TF.SameCoordinates,1579B7B8-C0FA-446B-BA7A-E71437B095E0*%
%TF.FilePolarity,Negative*%
%TF.FileFunction,Soldermask,Top*%
%TF.Part,Single*%
G01*
G75*
%TA.AperFunction,SMDPad,CuDef*%
%ADD17R,1.10000X0.60000*%
%ADD22R,1.78000X2.16000*%
%ADD23R,0.51535X0.47247*%
%ADD24R,0.60000X0.40000*%
%ADD26R,0.47247X0.51535*%
%ADD29R,0.80000X0.90000*%
%ADD30R,1.50000X1.60000*%
G04:AMPARAMS|DCode=31|XSize=0.85mm|YSize=0.25mm|CornerRadius=0.125mm|HoleSize=0mm|Usage=FLASHONLY|Rotation=0.000|XOffset=0mm|YOffset=0mm|HoleType=Round|Shape=RoundedRectangle|*
%AMROUNDEDRECTD31*
21,1,0.85000,0.00000,0,0,0.0*
21,1,0.60000,0.25000,0,0,0.0*
1,1,0.25000,0.30000,0.00000*
1,1,0.25000,-0.30000,0.00000*
1,1,0.25000,-0.30000,0.00000*
1,1,0.25000,0.30000,0.00000*
%
%ADD31ROUNDEDRECTD31*%
%ADD35R,2.50000X2.30000*%
%ADD41R,0.90000X0.80000*%
%ADD42R,2.50000X2.50000*%
%ADD45R,1.95580X3.14960*%
%ADD51R,1.50000X1.80000*%
%ADD52R,1.80000X1.50000*%
%ADD54R,1.20000X1.00000*%
%ADD55R,0.67500X0.25000*%
%ADD56R,0.25000X0.67500*%
%ADD60R,0.25000X0.27500*%
%ADD61R,0.27500X0.25000*%
%TA.AperFunction,ViaPad*%
%ADD87C,0.50000*%
%TA.AperFunction,SMDPad,CuDef*%
%ADD94R,0.90320X1.10320*%
%ADD95R,1.10320X0.90320*%
%ADD96R,1.30320X1.25320*%
%ADD98R,1.25320X1.30320*%
%TA.AperFunction,ComponentPad*%
%ADD101C,1.79320*%
%ADD102R,1.79320X1.79320*%
%ADD103C,1.30320*%
%ADD104C,4.50320*%
%ADD105C,1.70320*%
%ADD106R,1.70320X1.70320*%
%ADD107O,1.45320X1.25320*%
%ADD108O,2.10320X1.40320*%
%ADD109R,1.70320X1.70320*%
%TA.AperFunction,ViaPad*%
%ADD110C,0.80320*%
%ADD111C,1.00320*%
%ADD112C,1.20320*%
%ADD113C,6.20320*%
%ADD114C,1.60320*%
%TA.AperFunction,NonConductor*%
%ADD127R,0.52497X0.40000*%
%ADD128R,0.52497X0.40005*%
%ADD129R,0.52502X0.40000*%
%ADD130R,0.52502X0.40005*%
%ADD131R,0.29997X0.52497*%
%ADD132R,0.30002X0.52497*%
%ADD133R,0.30002X0.52502*%
%ADD134R,0.29997X0.52502*%
%TA.AperFunction,SMDPad,CuDef*%
G04:AMPARAMS|DCode=135|XSize=0.5032mm|YSize=1.7032mm|CornerRadius=0mm|HoleSize=0mm|Usage=FLASHONLY|Rotation=315.000|XOffset=0mm|YOffset=0mm|HoleType=Round|Shape=Rectangle|*
%AMROTATEDRECTD135*
4,1,4,-0.78008,-0.42426,0.42426,0.78008,0.78008,0.42426,-0.42426,-0.78008,-0.78008,-0.42426,0.0*
%
%ADD135ROTATEDRECTD135*%

%ADD136R,1.30320X0.80320*%
%ADD137R,1.00320X1.00320*%
%ADD138R,1.72820X0.85320*%
%ADD139R,1.05320X0.55320*%
%ADD140R,1.85320X4.45320*%
%ADD141R,1.10320X2.05320*%
%ADD142R,3.40320X2.05320*%
%ADD143R,2.65320X2.55320*%
%ADD144R,1.00320X1.00320*%
%ADD145O,0.70320X2.20320*%
%ADD146R,0.70320X2.20320*%
%ADD147R,1.20320X1.35320*%
%ADD148R,1.34320X1.11320*%
%ADD149R,0.60960X0.88900*%
%ADD150R,2.64160X0.76200*%
%ADD151R,2.64160X1.24460*%
%TA.AperFunction,ConnectorPad*%
%ADD152R,1.55320X0.60320*%
%TA.AperFunction,SMDPad,CuDef*%
G04:AMPARAMS|DCode=153|XSize=0.5032mm|YSize=1.7032mm|CornerRadius=0mm|HoleSize=0mm|Usage=FLASHONLY|Rotation=45.000|XOffset=0mm|YOffset=0mm|HoleType=Round|Shape=Rectangle|*
%AMROTATEDRECTD153*
4,1,4,0.42426,-0.78008,-0.78008,0.42426,-0.42426,0.78008,0.78008,-0.42426,0.42426,-0.78008,0.0*
%
%ADD153ROTATEDRECTD153*%

%ADD154R,1.05320X0.48320*%
%ADD155R,0.48320X1.05320*%
%ADD156R,2.75320X2.25320*%
%TA.AperFunction,ConnectorPad*%
%ADD157R,1.55320X2.10320*%
%ADD158R,1.20320X1.40320*%
%ADD159R,1.55320X1.75320*%
%ADD160R,1.30320X1.05320*%
%ADD161R,1.30320X0.95320*%
%ADD162R,2.00320X1.37320*%
%ADD163R,2.10320X2.00320*%
%TA.AperFunction,SMDPad,CuDef*%
%ADD164P,3.11580X4X180.0*%
G04:AMPARAMS|DCode=165|XSize=0.8532mm|YSize=0.4532mm|CornerRadius=0mm|HoleSize=0mm|Usage=FLASHONLY|Rotation=135.000|XOffset=0mm|YOffset=0mm|HoleType=Round|Shape=Rectangle|*
%AMROTATEDRECTD165*
4,1,4,0.46188,-0.14142,0.14142,-0.46188,-0.46188,0.14142,-0.14142,0.46188,0.46188,-0.14142,0.0*
%
%ADD165ROTATEDRECTD165*%

G04:AMPARAMS|DCode=166|XSize=0.8532mm|YSize=0.4532mm|CornerRadius=0mm|HoleSize=0mm|Usage=FLASHONLY|Rotation=45.000|XOffset=0mm|YOffset=0mm|HoleType=Round|Shape=Rectangle|*
%AMROTATEDRECTD166*
4,1,4,-0.14142,-0.46188,-0.46188,-0.14142,0.14142,0.46188,0.46188,0.14142,-0.14142,-0.46188,0.0*
%
%ADD166ROTATEDRECTD166*%

%TA.AperFunction,Conductor*%
%ADD167R,2.10317X1.77820*%
D17*
X4830001Y3115002D02*
D03*
Y2974997D02*
D03*
D22*
X13422501Y3010002D02*
D03*
X13827498D02*
D03*
X14647501Y5690000D02*
D03*
X15052499D02*
D03*
X13422501Y4350002D02*
D03*
X13827499D02*
D03*
X13422499Y3680002D02*
D03*
X13827502D02*
D03*
X13422501Y5020002D02*
D03*
X13827498D02*
D03*
X13422499Y5690002D02*
D03*
X13827502D02*
D03*
X14647501Y3680002D02*
D03*
X15052498D02*
D03*
X14647499Y4350002D02*
D03*
X15052502D02*
D03*
X14647501Y3010002D02*
D03*
X15052499D02*
D03*
X14647502Y5020002D02*
D03*
X15052499D02*
D03*
D23*
X2022144Y3110000D02*
D03*
X2097856D02*
D03*
X3977856D02*
D03*
X3902144D02*
D03*
X2097856Y3300000D02*
D03*
X2022144D02*
D03*
X3905000Y3490000D02*
D03*
X3980713D02*
D03*
D24*
X6235000Y1315000D02*
D03*
Y1395000D02*
D03*
Y1475000D02*
D03*
X6455000D02*
D03*
Y1395000D02*
D03*
Y1315000D02*
D03*
X6210000Y5565000D02*
D03*
Y5645000D02*
D03*
X6210000Y5725000D02*
D03*
X6430000D02*
D03*
Y5645000D02*
D03*
Y5565000D02*
D03*
D26*
X3190000Y4202143D02*
D03*
Y4277856D02*
D03*
D29*
X9520002Y1680001D02*
D03*
Y1820001D02*
D03*
X9630002D02*
D03*
Y1680001D02*
D03*
D30*
X9730002Y1335001D02*
D03*
D31*
X9875002Y1410001D02*
D03*
Y1360001D02*
D03*
Y1310001D02*
D03*
Y1260001D02*
D03*
X9585002D02*
D03*
Y1310001D02*
D03*
Y1360001D02*
D03*
Y1410001D02*
D03*
D35*
X13485001Y1350000D02*
D03*
X13914998D02*
D03*
X1730000Y4990000D02*
D03*
X2160000D02*
D03*
D41*
X10154998Y1930001D02*
D03*
Y1739999D02*
D03*
X10355003Y1835000D02*
D03*
D42*
X11310001Y1345001D02*
D03*
X11310001Y2044999D02*
D03*
X10610002Y1345001D02*
D03*
Y2044999D02*
D03*
D45*
X14454892Y1349999D02*
D03*
X14945113D02*
D03*
D51*
X2620000Y2639999D02*
D03*
X2810002D02*
D03*
X2999999D02*
D03*
X3190001D02*
D03*
X3379998D02*
D03*
Y3960001D02*
D03*
X3190001D02*
D03*
X2999999D02*
D03*
X2810002D02*
D03*
X2620000D02*
D03*
D52*
X3659998Y2919998D02*
D03*
Y3110001D02*
D03*
Y3299998D02*
D03*
Y3490000D02*
D03*
Y3680002D02*
D03*
X2340000D02*
D03*
Y3490000D02*
D03*
Y3299998D02*
D03*
Y3110001D02*
D03*
Y2919998D02*
D03*
D54*
X6255002Y1835001D02*
D03*
X6424999D02*
D03*
Y1964998D02*
D03*
X6255002D02*
D03*
D55*
X10426251Y3650000D02*
D03*
Y3600002D02*
D03*
Y3550000D02*
D03*
Y3500002D02*
D03*
Y3450000D02*
D03*
Y3400003D02*
D03*
Y3350000D02*
D03*
X10173750D02*
D03*
Y3400003D02*
D03*
Y3450000D02*
D03*
Y3500002D02*
D03*
Y3550000D02*
D03*
Y3600002D02*
D03*
Y3650000D02*
D03*
D56*
X10299998Y3298748D02*
D03*
Y3701252D02*
D03*
D60*
X9575000Y3576249D02*
D03*
X9624998D02*
D03*
Y3423748D02*
D03*
X9575000D02*
D03*
D61*
X9676250Y3575000D02*
D03*
Y3525002D02*
D03*
Y3475000D02*
D03*
Y3425003D02*
D03*
X9523748D02*
D03*
Y3475000D02*
D03*
Y3525002D02*
D03*
Y3575000D02*
D03*
D87*
X9780002Y1285001D02*
D03*
X9680002D02*
D03*
X9780002Y1385001D02*
D03*
X9680002D02*
D03*
D94*
X16145000Y1845000D02*
D03*
X16295001D02*
D03*
X13495001Y2775001D02*
D03*
X13345004D02*
D03*
X14570000Y5455000D02*
D03*
X14720000D02*
D03*
X13344998Y4115001D02*
D03*
X13494997D02*
D03*
X13344998Y3445001D02*
D03*
X13495001D02*
D03*
X13345004Y4785001D02*
D03*
X13495001D02*
D03*
X13344998Y5455001D02*
D03*
X13495001D02*
D03*
X14570003Y3445001D02*
D03*
X14720001D02*
D03*
X14569998Y4115001D02*
D03*
X14720001D02*
D03*
X14569998Y2775001D02*
D03*
X14719995D02*
D03*
X14569998Y4785001D02*
D03*
X14720001D02*
D03*
D95*
X4135000Y3185000D02*
D03*
Y3035000D02*
D03*
X13499998Y1875001D02*
D03*
Y1724999D02*
D03*
X12500000Y1875001D02*
D03*
Y1724999D02*
D03*
D96*
X2035000Y3510000D02*
D03*
Y3650000D02*
D03*
X9845002Y1680001D02*
D03*
Y1820001D02*
D03*
X15200002Y1419998D02*
D03*
Y1279999D02*
D03*
D98*
X2785000Y2320000D02*
D03*
X2645000D02*
D03*
X4280000Y1935000D02*
D03*
X4420000D02*
D03*
X9250002Y1815001D02*
D03*
X9110002D02*
D03*
X11730002Y1350000D02*
D03*
X12630002Y1349999D02*
D03*
X13169998Y1349999D02*
D03*
X13029999D02*
D03*
X11870001Y1350000D02*
D03*
X12269998Y1349999D02*
D03*
X12129999D02*
D03*
X12770001Y1349999D02*
D03*
D101*
X8949998Y4299999D02*
D03*
X9200000D02*
D03*
X9450002D02*
D03*
X10949999Y2600001D02*
D03*
X10699997D02*
D03*
X10450000D02*
D03*
X10950002Y4300002D02*
D03*
X10700000D02*
D03*
X10449998D02*
D03*
X8949998Y2599999D02*
D03*
X9200000D02*
D03*
X9450002D02*
D03*
D102*
X9699999Y4299999D02*
D03*
X11200001Y2600001D02*
D03*
X11199999Y4300001D02*
D03*
X9699999Y2599999D02*
D03*
D103*
X2660000Y1625000D02*
D03*
X4940001Y1625000D02*
D03*
X3050001Y1500001D02*
D03*
X3175000D02*
D03*
X3299998D02*
D03*
X3425002D02*
D03*
X3550001D02*
D03*
X3674999D02*
D03*
X3800003D02*
D03*
X3925001D02*
D03*
X4050000D02*
D03*
X4174998D02*
D03*
X4300002D02*
D03*
X4425000D02*
D03*
X4549998D02*
D03*
X3050002Y1625000D02*
D03*
X3175000D02*
D03*
X3299998D02*
D03*
X3425002D02*
D03*
X3550000D02*
D03*
X3674999D02*
D03*
X3800003D02*
D03*
X3925001D02*
D03*
X4050000D02*
D03*
X4174998D02*
D03*
X4300002D02*
D03*
X4425000D02*
D03*
X4549999D02*
D03*
X16700000Y2500000D02*
D03*
X16825000Y2375000D02*
D03*
Y2500000D02*
D03*
X16700000Y2250000D02*
D03*
X16825000D02*
D03*
X16700000Y2125000D02*
D03*
X16825000D02*
D03*
X16700000Y2375000D02*
D03*
Y2000000D02*
D03*
X16825000D02*
D03*
X16700000Y1610000D02*
D03*
Y5390000D02*
D03*
X16825000Y2625000D02*
D03*
Y2750000D02*
D03*
Y2875000D02*
D03*
Y3000000D02*
D03*
Y3125000D02*
D03*
Y3250000D02*
D03*
Y3375000D02*
D03*
Y3500000D02*
D03*
Y3625000D02*
D03*
Y3750000D02*
D03*
Y3875000D02*
D03*
Y4000000D02*
D03*
Y4125000D02*
D03*
Y4250000D02*
D03*
Y4375000D02*
D03*
Y4500000D02*
D03*
Y4625000D02*
D03*
Y4750000D02*
D03*
Y4875000D02*
D03*
Y5000000D02*
D03*
X16700000Y2625000D02*
D03*
Y2750000D02*
D03*
Y2875000D02*
D03*
Y3000000D02*
D03*
Y3125000D02*
D03*
Y3250000D02*
D03*
Y3375000D02*
D03*
Y3500000D02*
D03*
Y3625000D02*
D03*
Y3750000D02*
D03*
Y3875000D02*
D03*
Y4000000D02*
D03*
Y4125000D02*
D03*
Y4250000D02*
D03*
Y4375000D02*
D03*
Y4500000D02*
D03*
Y4625000D02*
D03*
Y4750000D02*
D03*
Y4875000D02*
D03*
Y5000000D02*
D03*
D104*
X16005000Y2740000D02*
D03*
X16005000Y2239996D02*
D03*
D105*
X14175999Y2305000D02*
D03*
X14430000D02*
D03*
X5451000Y1251000D02*
D03*
X5705000Y1505000D02*
D03*
X5451000D02*
D03*
X5705000Y1759000D02*
D03*
X5451000D02*
D03*
D106*
X14684000Y2305000D02*
D03*
D107*
X1450000Y5322500D02*
D03*
Y4877497D02*
D03*
D108*
X1150001Y4682502D02*
D03*
X1150001Y5517501D02*
D03*
D109*
X5705000Y1251000D02*
D03*
D110*
X4050000Y5775000D02*
D03*
X3975000Y5700000D02*
D03*
X4050000Y5625000D02*
D03*
X7300000Y3650000D02*
D03*
X6050000Y2675000D02*
D03*
X9920000Y3370000D02*
D03*
X11475000Y3687501D02*
D03*
Y3562498D02*
D03*
Y3437499D02*
D03*
X10580000Y3450000D02*
D03*
X10920000Y3500000D02*
D03*
Y3640000D02*
D03*
X10020000Y3570000D02*
D03*
Y3470000D02*
D03*
X3350000Y5750000D02*
D03*
X9425000Y3350000D02*
D03*
X8150000Y2625000D02*
D03*
X8050000D02*
D03*
X5950000Y2675000D02*
D03*
X2235000Y1815000D02*
D03*
X2375000D02*
D03*
X5925000Y2900000D02*
D03*
X10050000Y2050000D02*
D03*
X7550000Y1950000D02*
D03*
X7195000Y2278661D02*
D03*
X6925000Y4025000D02*
D03*
Y4150000D02*
D03*
X5575000Y3075000D02*
D03*
Y3175000D02*
D03*
X7000000Y1650000D02*
D03*
X6700000Y1700000D02*
D03*
X6850000Y1200000D02*
D03*
X5922791Y2077209D02*
D03*
X7375000Y4325000D02*
D03*
X7450000Y4400000D02*
D03*
X7550000D02*
D03*
X7650000D02*
D03*
X4495000Y5025000D02*
D03*
X4180000Y4670000D02*
D03*
X4390000D02*
D03*
X4600000D02*
D03*
X4810000D02*
D03*
X11595000Y3915000D02*
D03*
X12209999Y5570000D02*
D03*
X5925000Y3025000D02*
D03*
X4715000Y2840000D02*
D03*
X4390000Y2875000D02*
D03*
X4200000Y2890000D02*
D03*
X4110000Y3370000D02*
D03*
X4045000Y3850000D02*
D03*
X5125000Y2875000D02*
D03*
X5220000Y3315000D02*
D03*
X5000000Y3950000D02*
D03*
X5075000Y4025000D02*
D03*
X5300000Y3425000D02*
D03*
X5190000Y3465000D02*
D03*
X5525000Y3275000D02*
D03*
X5425000D02*
D03*
X6800000Y2975000D02*
D03*
X6875000Y2900000D02*
D03*
X7390000Y2830000D02*
D03*
X7085000Y3020000D02*
D03*
X5625000Y4675000D02*
D03*
X5550000Y4750000D02*
D03*
X6265000Y2320000D02*
D03*
X11600000Y4300001D02*
D03*
X8245000Y3000000D02*
D03*
X8350000D02*
D03*
X7400000Y2550000D02*
D03*
X8425000Y2650000D02*
D03*
X8525000D02*
D03*
X6570000Y2487300D02*
D03*
X6475000Y2485000D02*
D03*
X6420000Y2275000D02*
D03*
X6118446Y2485000D02*
D03*
X5575000Y2525000D02*
D03*
X5475000D02*
D03*
X7750000Y4150000D02*
D03*
Y4050000D02*
D03*
Y4250000D02*
D03*
X7900000Y2955000D02*
D03*
X7800000D02*
D03*
X12839998Y2890000D02*
D03*
X11600000Y3245000D02*
D03*
X7175000Y3525000D02*
D03*
X7075000D02*
D03*
X7275000D02*
D03*
X7375000D02*
D03*
X8475000Y1725000D02*
D03*
X8825000D02*
D03*
X8700000D02*
D03*
X8880002Y1520002D02*
D03*
X15170000Y3170000D02*
D03*
X7992997Y4930001D02*
D03*
X7865997D02*
D03*
X8119997D02*
D03*
X7475000Y4650000D02*
D03*
X7225000Y4750000D02*
D03*
X7125000D02*
D03*
X7178998Y4930001D02*
D03*
X11960059Y5154931D02*
D03*
X12209999Y5155000D02*
D03*
X11959999Y5825000D02*
D03*
X12209999D02*
D03*
Y5700000D02*
D03*
X6800000Y2750000D02*
D03*
X7750000Y3575000D02*
D03*
Y3475000D02*
D03*
X12209999Y3145000D02*
D03*
Y3020000D02*
D03*
X7700000Y4500000D02*
D03*
X7625000Y4550000D02*
D03*
X7550000Y4600000D02*
D03*
X7400000Y4700000D02*
D03*
X7325000Y4750000D02*
D03*
X7750000Y4350000D02*
D03*
X7025000Y4750000D02*
D03*
X7050000Y5050000D02*
D03*
X9395000Y1755000D02*
D03*
X7050000Y5150000D02*
D03*
X7460000Y5385000D02*
D03*
X9140000D02*
D03*
X7050000Y5250000D02*
D03*
X11600000Y4585000D02*
D03*
X7050000Y5350000D02*
D03*
Y5450000D02*
D03*
X11098997Y4930001D02*
D03*
X7050000Y5550000D02*
D03*
Y5650000D02*
D03*
Y5750000D02*
D03*
X1200000Y3510000D02*
D03*
X7559998Y5854998D02*
D03*
X7305998D02*
D03*
X8030000Y3880000D02*
D03*
X8035000Y3470000D02*
D03*
X8985997Y5854998D02*
D03*
X7050000Y5850000D02*
D03*
X12989998Y5570000D02*
D03*
X12989999Y5460000D02*
D03*
X12739998Y5825000D02*
D03*
X11600000Y3345000D02*
D03*
X12989998Y3145000D02*
D03*
X6025000Y5565000D02*
D03*
Y5645000D02*
D03*
Y5725000D02*
D03*
X5545000Y4960000D02*
D03*
X5485000Y5020000D02*
D03*
X5425000Y5080000D02*
D03*
X7865997Y5854998D02*
D03*
X11225997D02*
D03*
X7992997D02*
D03*
X11352997D02*
D03*
Y4930001D02*
D03*
X9545997Y5854998D02*
D03*
X10919997D02*
D03*
X10105997D02*
D03*
X10665997D02*
D03*
X11595000Y2570000D02*
D03*
Y2670000D02*
D03*
Y4015000D02*
D03*
X11600000Y4685000D02*
D03*
X13935001Y2690000D02*
D03*
X13939999Y3365000D02*
D03*
X13935001Y4035000D02*
D03*
X13939999Y4705000D02*
D03*
X11600000Y5250000D02*
D03*
Y5350000D02*
D03*
X14510001Y5240000D02*
D03*
X13939999Y5370000D02*
D03*
X7124491Y3913275D02*
D03*
X7610000Y3570000D02*
D03*
X7550000Y3630000D02*
D03*
X7580000Y3490000D02*
D03*
X8460000Y4270000D02*
D03*
X7490000Y3690000D02*
D03*
X8440000Y4190000D02*
D03*
X5400000Y2300000D02*
D03*
X10575000Y3350000D02*
D03*
Y3550000D02*
D03*
X10580000Y3650000D02*
D03*
X9780000Y3675000D02*
D03*
X9425000Y3575000D02*
D03*
X9775000Y3525000D02*
D03*
X9425000Y3475000D02*
D03*
X9775000Y3425000D02*
D03*
X10025002Y1310001D02*
D03*
Y1405002D02*
D03*
X8255000Y1621491D02*
D03*
Y1494491D02*
D03*
X9135002Y1199050D02*
D03*
X8800002Y1325001D02*
D03*
Y1455001D02*
D03*
X8255000Y1240491D02*
D03*
Y1367491D02*
D03*
X9380002Y1205001D02*
D03*
X1650000Y5250000D02*
D03*
X3975000Y5215000D02*
D03*
X4250000Y5220000D02*
D03*
Y5305000D02*
D03*
X6725000Y2825000D02*
D03*
X8300000Y3390000D02*
D03*
X8274998Y3900000D02*
D03*
X3325000Y5111249D02*
D03*
Y5331249D02*
D03*
X3975000Y4896248D02*
D03*
Y5105000D02*
D03*
Y5330000D02*
D03*
Y5550000D02*
D03*
Y5001252D02*
D03*
Y5850000D02*
D03*
X5305000Y3280000D02*
D03*
X5325000Y2575000D02*
D03*
Y2200000D02*
D03*
X5250000Y2100000D02*
D03*
X5100000D02*
D03*
X5250000Y2750000D02*
D03*
X5200000Y2825000D02*
D03*
X5175000Y2675000D02*
D03*
X5100000Y2775000D02*
D03*
X6425000Y2825000D02*
D03*
X4725000Y3325000D02*
D03*
Y3480000D02*
D03*
Y3675000D02*
D03*
X3379998Y4675000D02*
D03*
X3190000D02*
D03*
X2620000D02*
D03*
X1200000Y3650000D02*
D03*
Y3300000D02*
D03*
Y3110000D02*
D03*
Y2925000D02*
D03*
X6600000Y4450000D02*
D03*
X6345000Y3360000D02*
D03*
X6100000Y3475000D02*
D03*
X5250000Y3550000D02*
D03*
X5155000Y3650000D02*
D03*
X6160000Y4620000D02*
D03*
X5740000Y4200000D02*
D03*
X6669950Y4380000D02*
D03*
X5830000Y2810000D02*
D03*
X5770000Y2870000D02*
D03*
X5800000Y4260000D02*
D03*
X6220000Y4680000D02*
D03*
X7065000Y3975000D02*
D03*
X14924805Y5835195D02*
D03*
X12989998Y5700000D02*
D03*
X15170000Y5850000D02*
D03*
X15130000Y5455000D02*
D03*
X12989998Y5825000D02*
D03*
X14510001Y5910000D02*
D03*
X14814999Y5350000D02*
D03*
X13700000Y5835000D02*
D03*
X13945000Y5850000D02*
D03*
X12210000Y5460000D02*
D03*
X13905000Y5455000D02*
D03*
X13285001Y5910000D02*
D03*
X13590096Y5350394D02*
D03*
X14925000Y5165000D02*
D03*
X12989998Y5030000D02*
D03*
X15170000Y5180000D02*
D03*
X12989999Y4790000D02*
D03*
X15130000Y4785000D02*
D03*
X12989998Y5155000D02*
D03*
Y4900000D02*
D03*
X14814999Y4680000D02*
D03*
X13700000Y5165000D02*
D03*
X12209999Y5030000D02*
D03*
X13945000Y5180000D02*
D03*
X12210000Y4790000D02*
D03*
X13905000Y4785000D02*
D03*
X13285001Y5240000D02*
D03*
X12209999Y4900000D02*
D03*
X13590096Y4680394D02*
D03*
X14925000Y4495000D02*
D03*
X12989998Y4360000D02*
D03*
X15170000Y4510000D02*
D03*
X12989999Y4120000D02*
D03*
X15130000Y4115000D02*
D03*
X12989998Y4485000D02*
D03*
X14510001Y4570000D02*
D03*
X12989998Y4230000D02*
D03*
X14814999Y4010000D02*
D03*
X13700000Y4495000D02*
D03*
X12209999Y4360000D02*
D03*
X13945000Y4510000D02*
D03*
X12210000Y4120000D02*
D03*
X13905000Y4115000D02*
D03*
X12209999Y4485000D02*
D03*
X13285001Y4570000D02*
D03*
X12209999Y4230000D02*
D03*
X13590096Y4010394D02*
D03*
X14925000Y3825000D02*
D03*
X12989998Y3690000D02*
D03*
X15170000Y3840000D02*
D03*
X12989999Y3450000D02*
D03*
X15130000Y3445000D02*
D03*
X12989998Y3815000D02*
D03*
X14510001Y3900000D02*
D03*
X12989998Y3560000D02*
D03*
X14814999Y3340000D02*
D03*
X13700000Y3825000D02*
D03*
X12209999Y3690000D02*
D03*
X13945000Y3840000D02*
D03*
X12210000Y3450000D02*
D03*
X13905000Y3445000D02*
D03*
X12209999Y3815000D02*
D03*
X13285001Y3900000D02*
D03*
X12209999Y3560000D02*
D03*
X13589999Y3340000D02*
D03*
X6590000Y1395000D02*
D03*
X6590000Y1190000D02*
D03*
X6590000Y1595000D02*
D03*
X6565000Y5844999D02*
D03*
Y5645000D02*
D03*
Y5440000D02*
D03*
X7380000Y1621491D02*
D03*
Y1240491D02*
D03*
X6565000Y1835001D02*
D03*
X6340000Y2100000D02*
D03*
X9727502Y1822502D02*
D03*
X8880002Y1390002D02*
D03*
X9470002Y1330001D02*
D03*
X9385002Y1380001D02*
D03*
X9485002Y1410001D02*
D03*
X9385002Y1460001D02*
D03*
X11479997Y4930001D02*
D03*
X8858997D02*
D03*
X8985997D02*
D03*
X8425997D02*
D03*
X8552997D02*
D03*
X8679997D02*
D03*
X10538997D02*
D03*
X9112997Y5854998D02*
D03*
X10232997D02*
D03*
X10359997D02*
D03*
X8679997D02*
D03*
X11225997Y4930001D02*
D03*
X11479997Y5854998D02*
D03*
X11379999Y5385000D02*
D03*
X10665997Y4930001D02*
D03*
X10919997D02*
D03*
X10792997Y5854998D02*
D03*
X10819999Y5385000D02*
D03*
X10792997Y4930001D02*
D03*
X10105997D02*
D03*
X10359997D02*
D03*
X9978997D02*
D03*
X10260000Y5385000D02*
D03*
X10232997Y4930001D02*
D03*
X9545997D02*
D03*
X9799997D02*
D03*
X9672997Y5854998D02*
D03*
X9799997D02*
D03*
X9418997Y4930001D02*
D03*
X9700000Y5385000D02*
D03*
X9672997Y4930001D02*
D03*
X9239997D02*
D03*
Y5854998D02*
D03*
X9112997Y4930001D02*
D03*
X8552997Y5854998D02*
D03*
X8298997Y4930001D02*
D03*
X8580000Y5385000D02*
D03*
X8425997Y5854998D02*
D03*
X8119997D02*
D03*
X7738997Y4930001D02*
D03*
X8020000Y5385000D02*
D03*
X11200001Y3312501D02*
D03*
X7432998Y5854998D02*
D03*
X1650000Y5350000D02*
D03*
X14925000Y3155000D02*
D03*
X7432998Y4930001D02*
D03*
X7559998D02*
D03*
X7305998D02*
D03*
X13589925Y2670135D02*
D03*
X12739998Y3145000D02*
D03*
X12059999Y2890000D02*
D03*
X12209999D02*
D03*
X12210000Y2780000D02*
D03*
X11959999Y2890000D02*
D03*
X12135000Y2830000D02*
D03*
X11959999Y3145000D02*
D03*
X12134999Y2950000D02*
D03*
X12989998Y3020000D02*
D03*
Y2890000D02*
D03*
X12989999Y2780000D02*
D03*
X12739998Y2890000D02*
D03*
X12914999Y2830000D02*
D03*
X12914998Y2950000D02*
D03*
X12059999Y3560000D02*
D03*
X11959999D02*
D03*
X12135000Y3500000D02*
D03*
X11959999Y3815000D02*
D03*
X12134999Y3620000D02*
D03*
X12839998Y3560000D02*
D03*
X12739998D02*
D03*
X12914999Y3500000D02*
D03*
X12739998Y3815000D02*
D03*
X12914998Y3620000D02*
D03*
X12059999Y4230000D02*
D03*
X11959999D02*
D03*
X12135000Y4170000D02*
D03*
X11959999Y4485000D02*
D03*
X12134999Y4290000D02*
D03*
X12839998Y4230000D02*
D03*
X12739998D02*
D03*
X12914999Y4170000D02*
D03*
X12739998Y4485000D02*
D03*
X12914998Y4290000D02*
D03*
X12059999Y4900000D02*
D03*
X11959999D02*
D03*
X12135000Y4840000D02*
D03*
X12134999Y4960000D02*
D03*
X12839998Y4900000D02*
D03*
X12739998D02*
D03*
X12914999Y4840000D02*
D03*
X12739998Y5155000D02*
D03*
X12914998Y4960000D02*
D03*
X12059999Y5570000D02*
D03*
X11959999D02*
D03*
X12135000Y5510000D02*
D03*
X12134999Y5630000D02*
D03*
X12914999Y5510000D02*
D03*
X12914998Y5630000D02*
D03*
X12839998Y5570000D02*
D03*
X12739998D02*
D03*
X13285001Y3230000D02*
D03*
X13905000Y2775000D02*
D03*
X13945000Y3170000D02*
D03*
X13700000Y3155000D02*
D03*
X14814999Y2670000D02*
D03*
X14510001Y3230000D02*
D03*
X15130000Y2775000D02*
D03*
D111*
X10345000Y1510000D02*
D03*
X8455000Y3890000D02*
D03*
X10610000Y1765000D02*
D03*
X10600000Y1615000D02*
D03*
X11310000Y1760000D02*
D03*
X10025002Y1210001D02*
D03*
X8870002Y1235001D02*
D03*
X8290403Y3525002D02*
D03*
D112*
X6395000Y4100000D02*
D03*
X12900000Y1349999D02*
D03*
X11999999Y1350000D02*
D03*
X15420000Y1410000D02*
D03*
X14770000Y5835000D02*
D03*
X15600000Y5780000D02*
D03*
X13545000Y5835000D02*
D03*
X14375000Y5780000D02*
D03*
X14770000Y5165000D02*
D03*
X15600000Y5110000D02*
D03*
X13545000Y5165000D02*
D03*
X14375000Y5110000D02*
D03*
X14770000Y4495000D02*
D03*
X15600000Y4440000D02*
D03*
X13545000Y4495000D02*
D03*
X14375000Y4440000D02*
D03*
X14770000Y3825000D02*
D03*
X15600000Y3770000D02*
D03*
X13545000Y3825000D02*
D03*
X14375000Y3770000D02*
D03*
X3750000Y5900000D02*
D03*
X2265000Y5250000D02*
D03*
X13544904Y3154606D02*
D03*
X14375000Y3100000D02*
D03*
X15600000D02*
D03*
X14770000Y3155000D02*
D03*
D113*
X16000000Y5650000D02*
D03*
X9000000Y3500000D02*
D03*
X16000000Y1350000D02*
D03*
X2000000Y5650000D02*
D03*
Y1350000D02*
D03*
D114*
X13230000Y2050000D02*
D03*
X12230000D02*
D03*
D127*
X8143751Y3725002D02*
D03*
Y3675000D02*
D03*
Y3625002D02*
D03*
Y3575000D02*
D03*
Y3525002D02*
D03*
Y3475000D02*
D03*
Y3425003D02*
D03*
Y3375000D02*
D03*
Y3275000D02*
D03*
D128*
Y3325000D02*
D03*
D129*
X8456249Y3725002D02*
D03*
Y3675000D02*
D03*
Y3625002D02*
D03*
Y3575000D02*
D03*
Y3525002D02*
D03*
Y3475000D02*
D03*
Y3425003D02*
D03*
Y3375000D02*
D03*
Y3275000D02*
D03*
D130*
Y3325000D02*
D03*
D131*
X8375000Y3731250D02*
D03*
X8275000D02*
D03*
D132*
X8325000D02*
D03*
X8225000D02*
D03*
D133*
Y3268749D02*
D03*
X8325000D02*
D03*
D134*
X8275000D02*
D03*
X8375000D02*
D03*
D135*
X6482843Y4899999D02*
D03*
X6518197Y4864645D02*
D03*
X6553554Y4829288D02*
D03*
X6588907Y4793935D02*
D03*
X6624264Y4758578D02*
D03*
X6659618Y4723224D02*
D03*
X6694975Y4687867D02*
D03*
X6730328Y4652514D02*
D03*
X6765685Y4617157D02*
D03*
X6801039Y4581803D02*
D03*
X6836396Y4546446D02*
D03*
X6871749Y4511093D02*
D03*
X6907106Y4475736D02*
D03*
X6942460Y4440382D02*
D03*
X6977817Y4405025D02*
D03*
X7013170Y4369671D02*
D03*
X7048528Y4334314D02*
D03*
X7083881Y4298961D02*
D03*
X7119238Y4263604D02*
D03*
X7154591Y4228250D02*
D03*
X7189949Y4192893D02*
D03*
X7225302Y4157540D02*
D03*
X7260659Y4122183D02*
D03*
X7296013Y4086829D02*
D03*
X7331370Y4051472D02*
D03*
X7366723Y4016119D02*
D03*
X7402080Y3980762D02*
D03*
X7437434Y3945408D02*
D03*
X7472791Y3910051D02*
D03*
X7508144Y3874698D02*
D03*
X7543501Y3839341D02*
D03*
X7578855Y3803987D02*
D03*
X7614212Y3768630D02*
D03*
X7649565Y3733277D02*
D03*
X7684922Y3697920D02*
D03*
X7720276Y3662566D02*
D03*
X6199998Y2142288D02*
D03*
X6164644Y2177641D02*
D03*
X6129287Y2212998D02*
D03*
X6093933Y2248352D02*
D03*
X6058576Y2283709D02*
D03*
X6023223Y2319062D02*
D03*
X5987866Y2354419D02*
D03*
X5952512Y2389773D02*
D03*
X5917155Y2425130D02*
D03*
X5881802Y2460484D02*
D03*
X5846445Y2495841D02*
D03*
X5811091Y2531194D02*
D03*
X5775734Y2566551D02*
D03*
X5740381Y2601904D02*
D03*
X5705024Y2637262D02*
D03*
X5669670Y2672615D02*
D03*
X5634313Y2707972D02*
D03*
X5598960Y2743325D02*
D03*
X5563603Y2778682D02*
D03*
X5528249Y2814036D02*
D03*
X5492892Y2849393D02*
D03*
X5457538Y2884747D02*
D03*
X5422181Y2920104D02*
D03*
X5386828Y2955457D02*
D03*
X5351471Y2990814D02*
D03*
X5316117Y3026168D02*
D03*
X5280760Y3061525D02*
D03*
X5245407Y3096878D02*
D03*
X5210050Y3132235D02*
D03*
X5174696Y3167589D02*
D03*
X5139339Y3202946D02*
D03*
X5103986Y3238299D02*
D03*
X5068629Y3273656D02*
D03*
X5033275Y3309010D02*
D03*
X4997918Y3344367D02*
D03*
X4962565Y3379720D02*
D03*
D136*
X11090002Y3687501D02*
D03*
Y3562498D02*
D03*
Y3437499D02*
D03*
Y3312501D02*
D03*
X11310001D02*
D03*
Y3437499D02*
D03*
Y3562498D02*
D03*
Y3687501D02*
D03*
D137*
X4345000Y3190000D02*
D03*
Y3030000D02*
D03*
X12500001Y2380002D02*
D03*
Y2219997D02*
D03*
X13500002Y2380000D02*
D03*
Y2220000D02*
D03*
D138*
X8096200Y1621491D02*
D03*
Y1494491D02*
D03*
Y1367491D02*
D03*
Y1240491D02*
D03*
X7553800D02*
D03*
Y1367491D02*
D03*
Y1494491D02*
D03*
Y1621491D02*
D03*
D139*
X9280002Y1260001D02*
D03*
Y1325001D02*
D03*
Y1390001D02*
D03*
Y1455001D02*
D03*
Y1520001D02*
D03*
Y1585001D02*
D03*
Y1650001D02*
D03*
X8990002D02*
D03*
Y1585001D02*
D03*
Y1520001D02*
D03*
Y1455001D02*
D03*
Y1390001D02*
D03*
Y1325001D02*
D03*
Y1260001D02*
D03*
D140*
X9135002Y1455001D02*
D03*
D141*
X12770000Y1740000D02*
D03*
X11770000D02*
D03*
X12000000D02*
D03*
X12230000D02*
D03*
X13000000D02*
D03*
X13230000D02*
D03*
D142*
X12000000Y2360000D02*
D03*
X13000000D02*
D03*
D143*
X15414999Y2314999D02*
D03*
Y1695001D02*
D03*
D144*
X14855000Y5442500D02*
D03*
X15014999D02*
D03*
X13790002Y5442502D02*
D03*
X13629997D02*
D03*
X15014996Y4772502D02*
D03*
X14854997D02*
D03*
X13790002D02*
D03*
X13630002D02*
D03*
X15015002Y4102502D02*
D03*
X14854997D02*
D03*
X13789996D02*
D03*
X13629997D02*
D03*
X15015002Y3432502D02*
D03*
X14855002D02*
D03*
X13790002D02*
D03*
X13629997D02*
D03*
X15820003Y1845001D02*
D03*
X15980000D02*
D03*
X13790002Y2769998D02*
D03*
X13630002D02*
D03*
X14854997Y2770003D02*
D03*
X15014996D02*
D03*
D145*
X8679997Y5694998D02*
D03*
X8552997D02*
D03*
X8425997D02*
D03*
X8298997D02*
D03*
X8679997Y5094999D02*
D03*
X8552997D02*
D03*
X8425997D02*
D03*
X9239997Y5694998D02*
D03*
X9112997D02*
D03*
X8985997D02*
D03*
X8858997D02*
D03*
X9239997Y5094999D02*
D03*
X9112997D02*
D03*
X8985997D02*
D03*
X8119997Y5694998D02*
D03*
X7992997D02*
D03*
X7865997D02*
D03*
X7738997D02*
D03*
X8119997Y5094999D02*
D03*
X7992997D02*
D03*
X7865997D02*
D03*
X7305998D02*
D03*
X7432998D02*
D03*
X7559998D02*
D03*
X7178998Y5694998D02*
D03*
X7305998D02*
D03*
X7432998D02*
D03*
X7559998D02*
D03*
X10359997D02*
D03*
X10232997D02*
D03*
X10105997D02*
D03*
X9978997D02*
D03*
X10359997Y5094999D02*
D03*
X10232997D02*
D03*
X10105997D02*
D03*
X11479997Y5694998D02*
D03*
X11352997D02*
D03*
X11225997D02*
D03*
X11098997D02*
D03*
X11479997Y5094999D02*
D03*
X11352997D02*
D03*
X11225997D02*
D03*
X9799997Y5694998D02*
D03*
X9672997D02*
D03*
X9545997D02*
D03*
X9418997D02*
D03*
X9799997Y5094999D02*
D03*
X9672997D02*
D03*
X9545997D02*
D03*
X10919997Y5694998D02*
D03*
X10792997D02*
D03*
X10665997D02*
D03*
X10538997D02*
D03*
X10919997Y5094999D02*
D03*
X10792997D02*
D03*
X10665997D02*
D03*
D146*
X8298997D02*
D03*
X8858997D02*
D03*
X7738997D02*
D03*
X7178998D02*
D03*
X9978997D02*
D03*
X11098997D02*
D03*
X9418997D02*
D03*
X10538997D02*
D03*
D147*
X14200002Y1232499D02*
D03*
Y1467499D02*
D03*
D148*
X12591996Y5825500D02*
D03*
Y5698500D02*
D03*
Y5571500D02*
D03*
Y5444500D02*
D03*
X13137996Y5825500D02*
D03*
Y5698500D02*
D03*
Y5571500D02*
D03*
Y5444500D02*
D03*
X11811997Y3145500D02*
D03*
Y3018500D02*
D03*
Y2891500D02*
D03*
Y2764500D02*
D03*
X12357997Y3145500D02*
D03*
Y3018500D02*
D03*
Y2891500D02*
D03*
Y2764500D02*
D03*
X12591996Y3145500D02*
D03*
Y3018500D02*
D03*
Y2891500D02*
D03*
Y2764500D02*
D03*
X13137996Y3145500D02*
D03*
Y3018500D02*
D03*
Y2891500D02*
D03*
Y2764500D02*
D03*
X11811997Y3815500D02*
D03*
Y3688500D02*
D03*
Y3561500D02*
D03*
Y3434500D02*
D03*
X12357997Y3815500D02*
D03*
Y3688500D02*
D03*
Y3561500D02*
D03*
Y3434500D02*
D03*
X12591996Y3815500D02*
D03*
Y3688500D02*
D03*
Y3561500D02*
D03*
Y3434500D02*
D03*
X13137996Y3815500D02*
D03*
Y3688500D02*
D03*
Y3561500D02*
D03*
Y3434500D02*
D03*
X11811997Y4485500D02*
D03*
Y4358500D02*
D03*
Y4231500D02*
D03*
Y4104500D02*
D03*
X12357997Y4485500D02*
D03*
Y4358500D02*
D03*
Y4231500D02*
D03*
Y4104500D02*
D03*
X12591996Y4485500D02*
D03*
Y4358500D02*
D03*
Y4231500D02*
D03*
Y4104500D02*
D03*
X13137996Y4485500D02*
D03*
Y4358500D02*
D03*
Y4231500D02*
D03*
Y4104500D02*
D03*
X11811997Y5155500D02*
D03*
Y5028500D02*
D03*
Y4901500D02*
D03*
Y4774500D02*
D03*
X12357997Y5155500D02*
D03*
Y5028500D02*
D03*
Y4901500D02*
D03*
Y4774500D02*
D03*
X12591996Y5155500D02*
D03*
Y5028500D02*
D03*
Y4901500D02*
D03*
Y4774500D02*
D03*
X13137996Y5155500D02*
D03*
Y5028500D02*
D03*
Y4901500D02*
D03*
Y4774500D02*
D03*
X11811997Y5825500D02*
D03*
Y5698500D02*
D03*
Y5571500D02*
D03*
Y5444500D02*
D03*
X12357997Y5825500D02*
D03*
Y5698500D02*
D03*
Y5571500D02*
D03*
Y5444500D02*
D03*
D149*
X14045003Y2797740D02*
D03*
X14110001D02*
D03*
X14174998D02*
D03*
X14239998D02*
D03*
Y3100000D02*
D03*
X14174998D02*
D03*
X14110001D02*
D03*
X14045003D02*
D03*
X15270004Y5780000D02*
D03*
X15335004D02*
D03*
X15400002D02*
D03*
X15464999D02*
D03*
Y5477740D02*
D03*
X15400002D02*
D03*
X15335004D02*
D03*
X15270004D02*
D03*
X14045007Y4440000D02*
D03*
X14110007D02*
D03*
X14175005D02*
D03*
X14240002D02*
D03*
Y4137740D02*
D03*
X14175005D02*
D03*
X14110007D02*
D03*
X14045007D02*
D03*
Y3770000D02*
D03*
X14110007D02*
D03*
X14175005D02*
D03*
X14240002D02*
D03*
Y3467740D02*
D03*
X14175005D02*
D03*
X14110007D02*
D03*
X14045007D02*
D03*
X14045003Y5110000D02*
D03*
X14110001D02*
D03*
X14174998D02*
D03*
X14239998D02*
D03*
Y4807740D02*
D03*
X14174998D02*
D03*
X14110001D02*
D03*
X14045003D02*
D03*
X14045007Y5780000D02*
D03*
X14110007D02*
D03*
X14175005D02*
D03*
X14240002D02*
D03*
Y5477740D02*
D03*
X14175005D02*
D03*
X14110007D02*
D03*
X14045007D02*
D03*
X15270003Y3770000D02*
D03*
X15335001D02*
D03*
X15399998D02*
D03*
X15464998D02*
D03*
Y3467740D02*
D03*
X15399998D02*
D03*
X15335001D02*
D03*
X15270003D02*
D03*
X15270007Y4440000D02*
D03*
X15335005D02*
D03*
X15400005D02*
D03*
X15465002D02*
D03*
Y4137740D02*
D03*
X15400005D02*
D03*
X15335005D02*
D03*
X15270007D02*
D03*
X15270003Y3100000D02*
D03*
X15335001D02*
D03*
X15399998D02*
D03*
X15464998D02*
D03*
Y2797740D02*
D03*
X15399998D02*
D03*
X15335001D02*
D03*
X15270003D02*
D03*
X15270007Y5110000D02*
D03*
X15335005D02*
D03*
X15400005D02*
D03*
X15465002D02*
D03*
Y4807740D02*
D03*
X15400005D02*
D03*
X15335005D02*
D03*
X15270007D02*
D03*
D150*
X14142502Y2873229D02*
D03*
X15367502Y5553230D02*
D03*
X14142502Y4213229D02*
D03*
Y3543229D02*
D03*
Y4883228D02*
D03*
Y5553228D02*
D03*
X15367502Y3543229D02*
D03*
Y4213229D02*
D03*
Y2873229D02*
D03*
Y4883228D02*
D03*
D151*
X14142502Y2988240D02*
D03*
X15367502Y5668240D02*
D03*
X14142502Y4328240D02*
D03*
Y3658240D02*
D03*
Y4998240D02*
D03*
Y5668240D02*
D03*
X15367502Y3658240D02*
D03*
Y4328240D02*
D03*
Y2988240D02*
D03*
Y4998240D02*
D03*
D152*
X1417498Y5229998D02*
D03*
Y5034998D02*
D03*
Y5100001D02*
D03*
Y4969999D02*
D03*
X1417499Y5165000D02*
D03*
D153*
X7720276Y3379724D02*
D03*
X7684922Y3344371D02*
D03*
X7649565Y3309013D02*
D03*
X7614212Y3273660D02*
D03*
X7578855Y3238303D02*
D03*
X7543501Y3202949D02*
D03*
X7508144Y3167592D02*
D03*
X7472791Y3132239D02*
D03*
X7437434Y3096882D02*
D03*
X7402080Y3061528D02*
D03*
X7366723Y3026171D02*
D03*
X7331370Y2990818D02*
D03*
X7296013Y2955461D02*
D03*
X7260659Y2920107D02*
D03*
X7225302Y2884750D02*
D03*
X7189949Y2849397D02*
D03*
X7154591Y2814040D02*
D03*
X7119238Y2778686D02*
D03*
X7083881Y2743329D02*
D03*
X7048527Y2707976D02*
D03*
X7013170Y2672619D02*
D03*
X6977817Y2637265D02*
D03*
X6942460Y2601908D02*
D03*
X6907106Y2566555D02*
D03*
X6871749Y2531198D02*
D03*
X6836396Y2495844D02*
D03*
X6801039Y2460487D02*
D03*
X6765685Y2425134D02*
D03*
X6730328Y2389777D02*
D03*
X6694975Y2354423D02*
D03*
X6659618Y2319066D02*
D03*
X6624264Y2283712D02*
D03*
X6588907Y2248355D02*
D03*
X6553554Y2213002D02*
D03*
X6518197Y2177645D02*
D03*
X6482843Y2142291D02*
D03*
X4962568Y3662566D02*
D03*
X4997922Y3697920D02*
D03*
X5033279Y3733277D02*
D03*
X5068632Y3768630D02*
D03*
X5103990Y3803987D02*
D03*
X5139343Y3839341D02*
D03*
X5174700Y3874698D02*
D03*
X5210054Y3910051D02*
D03*
X5245411Y3945408D02*
D03*
X5280764Y3980762D02*
D03*
X5316121Y4016119D02*
D03*
X5351474Y4051472D02*
D03*
X5386831Y4086829D02*
D03*
X5422185Y4122183D02*
D03*
X5457542Y4157540D02*
D03*
X5492895Y4192893D02*
D03*
X5528252Y4228250D02*
D03*
X5563606Y4263604D02*
D03*
X5598963Y4298961D02*
D03*
X5634317Y4334315D02*
D03*
X5669674Y4369672D02*
D03*
X5705027Y4405025D02*
D03*
X5740384Y4440382D02*
D03*
X5775738Y4475736D02*
D03*
X5811095Y4511093D02*
D03*
X5846448Y4546446D02*
D03*
X5881805Y4581803D02*
D03*
X5917159Y4617157D02*
D03*
X5952516Y4652514D02*
D03*
X5987869Y4687867D02*
D03*
X6023226Y4723224D02*
D03*
X6058580Y4758578D02*
D03*
X6093937Y4793935D02*
D03*
X6129291Y4829288D02*
D03*
X6164648Y4864645D02*
D03*
X6200001Y4899999D02*
D03*
D154*
X8297500Y4475000D02*
D03*
X7902500D02*
D03*
Y4324998D02*
D03*
X8297500D02*
D03*
D155*
X8224998Y4572501D02*
D03*
X8175001D02*
D03*
X8124998D02*
D03*
X8075001Y4572500D02*
D03*
X8024998Y4572501D02*
D03*
X7975002D02*
D03*
Y4227498D02*
D03*
X8024998D02*
D03*
X8075001Y4227497D02*
D03*
X8124998Y4227498D02*
D03*
X8175001D02*
D03*
X8224998D02*
D03*
D156*
X8100000Y4399999D02*
D03*
D157*
X2458748Y4977752D02*
D03*
Y5574748D02*
D03*
D158*
X2926250Y5924750D02*
D03*
X2556248D02*
D03*
D159*
X3528748Y5907250D02*
D03*
D160*
X3541250Y5661251D02*
D03*
Y5551248D02*
D03*
Y5441251D02*
D03*
X3541250Y5331249D02*
D03*
X3541250Y5221251D02*
D03*
Y5111249D02*
D03*
X3541250Y5001252D02*
D03*
D161*
Y4896248D02*
D03*
D162*
X3506249Y4775248D02*
D03*
D163*
X1150001Y5214997D02*
D03*
X1150001Y4985000D02*
D03*
D164*
X4904999Y2395000D02*
D03*
D165*
X4742363Y2451568D02*
D03*
X4777720Y2486925D02*
D03*
X4813073Y2522279D02*
D03*
X4848430Y2557636D02*
D03*
X5067635Y2338432D02*
D03*
X5032278Y2303075D02*
D03*
X4996924Y2267721D02*
D03*
X4961567Y2232364D02*
D03*
D166*
Y2557636D02*
D03*
X4996924Y2522279D02*
D03*
X5032278Y2486925D02*
D03*
X5067635Y2451568D02*
D03*
X4848430Y2232364D02*
D03*
X4813073Y2267721D02*
D03*
X4777720Y2303075D02*
D03*
X4742363Y2338432D02*
D03*
D167*
X1149985Y4761259D02*
D03*
X1150000Y5438772D02*
D03*
%TF.MD5,447e1185a7c1783e6c868665755fea4f*%
M02*
