%TF.GenerationSoftware,Altium Limited,Altium Designer,22.4.2 (48)*%
G04 Layer_Physical_Order=3*
G04 Layer_Color=36540*
%FSLAX45Y45*%
%MOMM*%
%TF.SameCoordinates,1579B7B8-C0FA-446B-BA7A-E71437B095E0*%
%TF.FilePolarity,Positive*%
%TF.FileFunction,Copper,L3,Inr,Signal*%
%TF.Part,Single*%
G01*
G75*
%TA.AperFunction,Conductor*%
%ADD10C,0.25400*%
%ADD14C,0.38100*%
%TA.AperFunction,ComponentPad*%
%ADD74C,1.59000*%
%ADD75R,1.59000X1.59000*%
%ADD76C,1.10000*%
%ADD77C,4.30000*%
%ADD78C,1.50000*%
%ADD79R,1.50000X1.50000*%
%ADD80O,1.25000X1.05000*%
%ADD81O,1.90000X1.20000*%
%ADD82R,1.50000X1.50000*%
%TA.AperFunction,ViaPad*%
%ADD83C,0.60000*%
%ADD84C,0.80000*%
%ADD85C,1.00000*%
%ADD86C,6.00000*%
%ADD87C,0.50000*%
%ADD88C,1.40000*%
%TA.AperFunction,Conductor*%
%ADD89C,1.00000*%
%ADD90C,0.60000*%
D10*
X3975000Y5625000D02*
G03*
X3900000Y5550000I0J-75000D01*
G01*
X3975000Y5700000D02*
G03*
X3850000Y5575000I0J-125000D01*
G01*
X3975000Y5775000D02*
G03*
X3800000Y5600000I0J-175000D01*
G01*
X10409394Y4340605D02*
G03*
X10229789Y4415000I-179605J-179605D01*
G01*
X8505210D02*
G03*
X8325605Y4340605I0J-254000D01*
G01*
X7648891Y3663891D02*
G03*
X7610000Y3570000I93891J-93891D01*
G01*
X10613996Y4386005D02*
G03*
X10434391Y4460400I-179605J-179605D01*
G01*
X10469788Y4175000D02*
G03*
X10649393Y4249395I0J254000D01*
G01*
X10015210Y4175000D02*
G03*
X9835605Y4100605I0J-254000D01*
G01*
X9495000Y3760000D02*
G03*
X9425000Y3591005I168995J-168995D01*
G01*
X8505210Y4460400D02*
G03*
X8312088Y4389789I0J-299400D01*
G01*
X8312085Y4389786D02*
G03*
X8312088Y4389789I-16294J19486D01*
G01*
X8311732Y4389496D02*
G03*
X8312085Y4389786I-15941J19775D01*
G01*
X8311729Y4389494D02*
G03*
X8290605Y4370605I158481J-198494D01*
G01*
X10818598Y4431405D02*
G03*
X10638993Y4505800I-179605J-179605D01*
G01*
X8505210D02*
G03*
X8283221Y4424833I0J-344800D01*
G01*
X8085000Y4230000D02*
G03*
X8089064Y4233269I-13807J21320D01*
G01*
X7490000Y3690000D02*
G03*
X7583891Y3728891I0J132782D01*
G01*
X8050000Y2625000D02*
G03*
X7929289Y2675000I-120710J-120710D01*
G01*
X8150000Y2625000D02*
G03*
X8090000Y2685000I-60000J0D01*
G01*
X8045857Y2699142D02*
G03*
X8080000Y2685000I34143J34143D01*
G01*
X8040000Y2705000D02*
G03*
X8002821Y2720400I-37179J-37179D01*
G01*
X7930605Y2824395D02*
G03*
X8110210Y2750000I179605J179605D01*
G01*
X7780413Y2720432D02*
G03*
X7781578Y2720400I1279J25368D01*
G01*
X7615605Y2794395D02*
G03*
X7780413Y2720431I179605J179605D01*
G01*
X7399395Y3010605D02*
G03*
X7219790Y3085000I-179605J-179605D01*
G01*
X6465210D02*
G03*
X6285605Y3010605I0J-254000D01*
G01*
X9844790Y1950000D02*
G03*
X10024395Y2024395I0J254000D01*
G01*
X9460000Y1205000D02*
G03*
X9551645Y1296645I0J91645D01*
G01*
Y1310001D02*
G03*
X9528057Y1366946I-80532J0D01*
G01*
X11727782Y3970000D02*
G03*
X11595000Y3915000I0J-187782D01*
G01*
X5209497Y2910000D02*
G03*
X5125000Y2875000I0J-119497D01*
G01*
X2195210Y4000000D02*
G03*
X2015605Y3925605I0J-254000D01*
G01*
X4844789Y4000000D02*
G03*
X5024395Y4074395I0J254000D01*
G01*
X2090210Y4085000D02*
G03*
X1910605Y4010605I0J-254000D01*
G01*
X4779790Y4085000D02*
G03*
X4959395Y4159395I0J254000D01*
G01*
X5509395Y2835605D02*
G03*
X5329790Y2910000I-179605J-179605D01*
G01*
X5870605Y2474395D02*
G03*
X6050210Y2400000I179605J179605D01*
G01*
X6366389Y2385000D02*
G03*
X6330176Y2400000I-36213J-36213D01*
G01*
X6366389Y2385000D02*
G03*
X6391497Y2374600I25108J25108D01*
G01*
X6395000Y2455000D02*
G03*
X6479498Y2420000I84498J84498D01*
G01*
X6395000Y2455000D02*
G03*
X6322573Y2485000I-72427J-72427D01*
G01*
X9414790Y2420000D02*
G03*
X9594395Y2494395I0J254000D01*
G01*
X9414790Y2374600D02*
G03*
X9429543Y2374964I0J299400D01*
G01*
X9430792Y2375000D02*
G03*
X9429543Y2374964I114J-25400D01*
G01*
X10869860Y2375000D02*
G03*
X11049395Y2449395I-70J254000D01*
G01*
X7975605Y2879395D02*
G03*
X8155210Y2805000I179605J179605D01*
G01*
X8090000Y2985000D02*
G03*
X8222782Y2930000I132782J132782D01*
G01*
X8105605Y3219395D02*
G03*
X8285210Y3145000I179605J179605D01*
G01*
X12655502Y3504497D02*
G03*
X12775000Y3455000I119498J119498D01*
G01*
X8090000Y2985000D02*
G03*
X7993432Y3025000I-96568J-96568D01*
G01*
X8204790Y2535000D02*
G03*
X8384395Y2609395I0J254000D01*
G01*
X7495000Y2575000D02*
G03*
X7591568Y2535000I96568J96568D01*
G01*
X6710210Y2615000D02*
G03*
X6530605Y2540605I0J-254000D01*
G01*
X7495000Y2575000D02*
G03*
X7398431Y2615000I-96569J-96569D01*
G01*
X8257090Y2487300D02*
G03*
X8436695Y2561695I0J254000D01*
G01*
X12145000Y2730000D02*
G03*
X12096715Y2750000I-48285J-48285D01*
G01*
X12145000Y2730000D02*
G03*
X12193284Y2710000I48284J48284D01*
G01*
X12210000D02*
G03*
X12329497Y2759497I0J168995D01*
G01*
X12413284Y2815000D02*
G03*
X12365000Y2795000I0J-68284D01*
G01*
X12878786Y2815000D02*
G03*
X12914999Y2830000I0J51214D01*
G01*
X12074644Y2805000D02*
G03*
X12135000Y2830000I0J85356D01*
G01*
X10395210Y3239999D02*
G03*
X10215604Y3165604I0J-254000D01*
G01*
X9874790Y2930000D02*
G03*
X10054395Y3004395I0J254000D01*
G01*
X7600605Y3099395D02*
G03*
X7780210Y3025000I179605J179605D01*
G01*
X11264789Y3239999D02*
G03*
X11444394Y3314394I0J254000D01*
G01*
X11710210Y3475000D02*
G03*
X11530605Y3400605I0J-254000D01*
G01*
X12074644Y3475000D02*
G03*
X12135000Y3500000I0J85356D01*
G01*
X9759789Y3075000D02*
G03*
X9939395Y3149395I0J254000D01*
G01*
X10670210Y3775000D02*
G03*
X10490605Y3700605I0J-254000D01*
G01*
X7750605Y3149395D02*
G03*
X7930210Y3075000I179605J179605D01*
G01*
X11720147Y3775000D02*
G03*
X11865000Y3835000I0J204853D01*
G01*
X11985711Y3885000D02*
G03*
X11865000Y3835000I0J-170711D01*
G01*
X12320962Y3839038D02*
G03*
X12210000Y3885000I-110962J-110962D01*
G01*
X12806358Y3455000D02*
G03*
X12914999Y3500000I0J153640D01*
G01*
X11732782Y3300000D02*
G03*
X11600000Y3245000I0J-187782D01*
G01*
X9014395Y1650605D02*
G03*
X8834790Y1725000I-179605J-179605D01*
G01*
X9214286Y1450714D02*
G03*
X9385002Y1380001I170716J170716D01*
G01*
X9114398Y1730605D02*
G03*
X8934793Y1805000I-179605J-179605D01*
G01*
X8825000D02*
G03*
X8748180Y1773180I0J-108639D01*
G01*
X8475000Y1725000D02*
G03*
X8528031Y1596972I181058J0D01*
G01*
X12002218Y4115000D02*
G03*
X12135000Y4170000I0J187782D01*
G01*
X10865210Y4115000D02*
G03*
X10685605Y4040605I0J-254000D01*
G01*
X9684790Y3145000D02*
G03*
X9864395Y3219395I0J254000D01*
G01*
X11727782Y2625000D02*
G03*
X11595000Y2570000I0J-187782D01*
G01*
X12824998Y5460000D02*
G03*
X12893285Y5488284I0J96570D01*
G01*
X12312427Y5847574D02*
G03*
X12312402Y5847598I-102427J-102427D01*
G01*
D02*
G03*
X12210000Y5890000I-102402J-102452D01*
G01*
X11732782Y4640000D02*
G03*
X11600000Y4585000I0J-187782D01*
G01*
X7543887Y4759600D02*
G03*
X7400000Y4700000I0J-203488D01*
G01*
X7457782Y4805000D02*
G03*
X7325000Y4750000I0J-187782D01*
G01*
X7330000Y4855000D02*
G03*
X7225000Y4750000I0J-105000D01*
G01*
X11732782Y5305000D02*
G03*
X11600000Y5250000I0J-187782D01*
G01*
X12877654Y4154531D02*
G03*
X12914999Y4170000I0J52814D01*
G01*
X12682037Y4177963D02*
G03*
X12738606Y4154531I56569J56569D01*
G01*
X12343640Y4516360D02*
G03*
X12190000Y4580000I-153640J-153640D01*
G01*
X11966568D02*
G03*
X11870000Y4540000I0J-136568D01*
G01*
X11809645Y4515000D02*
G03*
X11870000Y4540000I0J85355D01*
G01*
X11410195Y4639805D02*
G03*
X11230589Y4714200I-179605J-179605D01*
G01*
X7750990D02*
G03*
X7749107Y4714122I114J-25400D01*
G01*
X11489038Y4560962D02*
G03*
X11600000Y4515000I110962J110962D01*
G01*
X7749107Y4714122D02*
G03*
X7590605Y4640605I21103J-253122D01*
G01*
X11425786Y4760000D02*
G03*
X11424537Y4759964I114J-25400D01*
G01*
X11409790Y4759600D02*
G03*
X11424537Y4759964I0J299400D01*
G01*
X11949978Y4760000D02*
G03*
X12129395Y4834395I-188J254000D01*
G01*
X11919269Y5205609D02*
G03*
X11919260Y5205601I19652J-22668D01*
G01*
X11409790Y4805000D02*
G03*
X11589395Y4879395I0J254000D01*
G01*
X11951904Y5219494D02*
G03*
X11920514Y5206632I8094J-64494D01*
G01*
X11920515Y5206631D02*
G03*
X11919269Y5205609I18406J-23690D01*
G01*
X11993639Y5225000D02*
G03*
X11955343Y5220151I0J-153639D01*
G01*
X12346569Y5168431D02*
G03*
X12210000Y5225000I-136569J-136569D01*
G01*
X12644040Y4870960D02*
G03*
X12754998Y4825000I110958J110958D01*
G01*
X12878786D02*
G03*
X12914999Y4840000I0J51214D01*
G01*
X10950000Y4855000D02*
G03*
X11025000Y4930000I0J75000D01*
G01*
X11951904Y5219494D02*
G03*
X11955343Y5220151I-3899J29746D01*
G01*
X11065000Y5055000D02*
G03*
X11025000Y4958432I96568J-96568D01*
G01*
X11149497Y5090000D02*
G03*
X11065000Y5055000I0J-119497D01*
G01*
X11170000Y5090000D02*
G03*
X11238285Y5118284I0J96569D01*
G01*
X11596569Y5420000D02*
G03*
X11500000Y5380000I0J-136569D01*
G01*
X12045000Y5420000D02*
G03*
X12135000Y5510000I0J90000D01*
G01*
X10824790Y5050000D02*
G03*
X11004395Y5124395I0J254000D01*
G01*
X11875210Y5890000D02*
G03*
X11695605Y5815605I0J-254000D01*
G01*
X12625605Y5534395D02*
G03*
X12805211Y5460000I179605J179605D01*
G01*
X8282974Y4424630D02*
G03*
X8283221Y4424833I-15996J19730D01*
G01*
X8282974Y4424630D02*
G03*
X8258988Y4403192I187236J-233630D01*
G01*
X8373328Y3801670D02*
G03*
X8274998Y3900000I-98330J0D01*
G01*
X13785001Y2595000D02*
G03*
X13878891Y2633891I0J132782D01*
G01*
X13350000Y2605000D02*
G03*
X13374142Y2595000I24142J24142D01*
G01*
X13350000Y2605000D02*
G03*
X13301717Y2625000I-48284J-48284D01*
G01*
X13789999Y3270000D02*
G03*
X13883891Y3308891I0J132782D01*
G01*
X13355000Y3280000D02*
G03*
X13379143Y3270000I24142J24142D01*
G01*
X13355000Y3280000D02*
G03*
X13306715Y3300000I-48284J-48284D01*
G01*
X13785001Y3940000D02*
G03*
X13878891Y3978891I0J132782D01*
G01*
X13350000Y3950000D02*
G03*
X13374142Y3940000I24142J24142D01*
G01*
X13350000Y3950000D02*
G03*
X13301717Y3970000I-48284J-48284D01*
G01*
X13789999Y4610000D02*
G03*
X13883891Y4648891I0J132782D01*
G01*
X13355000Y4620000D02*
G03*
X13379143Y4610000I24142J24142D01*
G01*
X13355000Y4620000D02*
G03*
X13306715Y4640000I-48284J-48284D01*
G01*
X13355000Y5285000D02*
G03*
X13306715Y5305000I-48284J-48284D01*
G01*
X13355000Y5285000D02*
G03*
X13379143Y5275000I24142J24142D01*
G01*
X13789999D02*
G03*
X13883891Y5313891I0J132782D01*
G01*
X3900000Y5290000D02*
G03*
X3975000Y5215000I75000J0D01*
G01*
X8300000Y3390000D02*
G03*
X8373328Y3463328I0J73328D01*
G01*
X3850000Y5230000D02*
G03*
X3975000Y5105000I125000J0D01*
G01*
X3800000Y5176252D02*
G03*
X3975000Y5001252I175000J0D01*
G01*
X3750000Y5121248D02*
G03*
X3975000Y4896248I225000J0D01*
G01*
Y5850000D02*
G03*
X3750000Y5625000I0J-225000D01*
G01*
X5325000Y1482210D02*
G03*
X5399395Y1302605I254000J0D01*
G01*
X3975000Y5775000D02*
X4050000D01*
X3975000Y5625000D02*
X4050000D01*
X6050000Y2675000D02*
X7929289D01*
X10409394Y4340605D02*
X10449998Y4300002D01*
X8505210Y4415000D02*
X10229789D01*
X7648891Y3663891D02*
X8325605Y4340605D01*
X10649393Y4249395D02*
X10700000Y4300002D01*
X10613996Y4386005D02*
X10700000Y4300002D01*
X10015210Y4175000D02*
X10469788D01*
X9495000Y3760000D02*
X9835605Y4100605D01*
X9425000Y3575000D02*
Y3591005D01*
X8505210Y4460400D02*
X10434391D01*
X7550000Y3630000D02*
X8290605Y4370605D01*
X10818598Y4431405D02*
X10950002Y4300002D01*
X8505210Y4505800D02*
X10638993D01*
X8089064Y4233270D02*
X8258988Y4403192D01*
X8089064Y4233269D02*
X8089064Y4233270D01*
X8085000Y4230000D02*
X8085000D01*
X7583891Y3728891D02*
X8085000Y4230000D01*
X8080000Y2685000D02*
X8090000D01*
X8040000Y2705000D02*
X8045858Y2699142D01*
X7781579Y2720400D02*
X8002821D01*
X7800000Y2955000D02*
X7930605Y2824395D01*
X7780413Y2720431D02*
Y2720432D01*
X7781578Y2720400D02*
X7781579D01*
X7399395Y3010605D02*
X7615605Y2794395D01*
X6465210Y3085000D02*
X7219790D01*
X5950000Y2675000D02*
X6285605Y3010605D01*
X10024395Y2024395D02*
X10050000Y2050000D01*
X7550000Y1950000D02*
X9844790D01*
X9380002Y1205000D02*
X9460000D01*
X9551645Y1296645D02*
Y1310001D01*
X9485002Y1410001D02*
X9528057Y1366946D01*
X9380002Y1205000D02*
Y1205001D01*
X1200000Y3110000D02*
X2015605Y3925605D01*
X2195210Y4000000D02*
X4844789D01*
X5024395Y4074395D02*
X5625000Y4675000D01*
X1200000Y3300000D02*
X1910605Y4010605D01*
X2090210Y4085000D02*
X4779790D01*
X4959395Y4159395D02*
X5550000Y4750000D01*
X5209497Y2910000D02*
X5329790D01*
X5509395Y2835605D02*
X5870605Y2474395D01*
X6050210Y2400000D02*
X6330176D01*
X6391497Y2374600D02*
X9414790D01*
X6118446Y2485000D02*
X6322573D01*
X6479498Y2420000D02*
X6490000D01*
X9414790Y2420000D01*
X9594395Y2494395D02*
X9699999Y2599999D01*
X9430792Y2375000D02*
X10869860D01*
X9430792D02*
X9430792D01*
X11049395Y2449395D02*
X11200001Y2600001D01*
X8384395Y2609395D02*
X8425000Y2650000D01*
X8436695Y2561695D02*
X8525000Y2650000D01*
X11199999Y4300001D02*
X11600000D01*
X8110210Y2750000D02*
X12035502D01*
X8222782Y2930000D02*
X9874790D01*
X8155210Y2805000D02*
X12074644D01*
X8285210Y3145000D02*
X9684790D01*
X7930210Y3075000D02*
X9759789D01*
X7900000Y2955000D02*
X7975605Y2879395D01*
X12320962Y3839038D02*
X12655503Y3504497D01*
X7750000Y3575000D02*
X8105605Y3219395D01*
X6710210Y2615000D02*
X7398431D01*
X7591568Y2535000D02*
X8204790D01*
X6570000Y2487300D02*
X8257090D01*
X6475000Y2485000D02*
X6530605Y2540605D01*
X7175000Y3525000D02*
X7600605Y3099395D01*
X7375000Y3525000D02*
X7750605Y3149395D01*
X12035502Y2750000D02*
X12096715D01*
X12193284Y2710000D02*
X12210000D01*
X12329497Y2759497D02*
X12365000Y2795000D01*
X12413284Y2815000D02*
X12878786D01*
X11727782Y2625000D02*
X13301717D01*
X10054395Y3004395D02*
X10215604Y3165604D01*
X7780210Y3025000D02*
X7993432D01*
X10395210Y3239999D02*
X11264789D01*
X11444394Y3314394D02*
X11530605Y3400605D01*
X11710210Y3475000D02*
X12074644D01*
X9939395Y3149395D02*
X10490605Y3700605D01*
X10670210Y3775000D02*
X11720147D01*
X11985711Y3885000D02*
X12210000D01*
X12775000Y3455000D02*
X12806358D01*
X11727782Y3970000D02*
X13301717D01*
X11732782Y3300000D02*
X13306715D01*
X9014395Y1650605D02*
X9214286Y1450714D01*
X8825000Y1725000D02*
X8834790D01*
X9114398Y1730605D02*
X9385002Y1460001D01*
X8825000Y1805000D02*
X8934793D01*
X8700000Y1725000D02*
X8748180Y1773180D01*
X8528031Y1596973D02*
X8800002Y1325001D01*
X10865210Y4115000D02*
X12002218D01*
X9864395Y3219395D02*
X10685605Y4040605D01*
X12312402Y5847598D02*
X12312426Y5847574D01*
X7050000Y5050000D02*
X10824790D01*
X12893285Y5488284D02*
X12914999Y5510000D01*
X12312426Y5847574D02*
X12625605Y5534395D01*
X12738606Y4154531D02*
X12877654D01*
X11966568Y4580000D02*
X12190000D01*
X12343640Y4516360D02*
X12682037Y4177963D01*
X7750990Y4714200D02*
X11230589D01*
X7750990D02*
X7750990D01*
X11410195Y4639805D02*
X11489038Y4560962D01*
X11600000Y4515000D02*
X11809645D01*
X7550000Y4600000D02*
X7590605Y4640605D01*
X7543887Y4759600D02*
X11409790D01*
X11424537Y4759963D02*
Y4759964D01*
X11425787Y4760000D02*
X11949978D01*
X11425786D02*
X11425787D01*
X7457782Y4805000D02*
X11409790D01*
X12129395Y4834395D02*
X12135000Y4840000D01*
X11589395Y4879395D02*
X11890000Y5180000D01*
X11919260Y5205601D02*
X11919269Y5205609D01*
X11890000Y5180000D02*
X11919260Y5205601D01*
X11920514Y5206632D02*
X11920515Y5206631D01*
X11993639Y5225000D02*
X12210000D01*
X12346569Y5168431D02*
X12644040Y4870960D01*
X12754998Y4825000D02*
X12878786D01*
X7330000Y4855000D02*
X10950000D01*
X11732782Y5305000D02*
X13306715D01*
X11025000Y4930000D02*
Y4958432D01*
X11149497Y5090000D02*
X11170000D01*
X11238285Y5118284D02*
X11500000Y5380000D01*
X11596569Y5420000D02*
X12045000D01*
X11004395Y5124395D02*
X11695605Y5815605D01*
X11875210Y5890000D02*
X12210000D01*
X12805211Y5460000D02*
X12824998D01*
X10700000Y4300002D02*
X10750607Y4249395D01*
X11732782Y4640000D02*
X13306715D01*
X13878891Y2633891D02*
X13935001Y2690000D01*
X13374142Y2595000D02*
X13785001D01*
X13883891Y3308891D02*
X13939999Y3365000D01*
X13379143Y3270000D02*
X13789999D01*
X13878891Y3978891D02*
X13935001Y4035000D01*
X13374142Y3940000D02*
X13785001D01*
X13883891Y4648891D02*
X13939999Y4705000D01*
X13379143Y4610000D02*
X13789999D01*
X13379143Y5275000D02*
X13789999D01*
X13883891Y5313891D02*
X13939999Y5370000D01*
X8373328Y3463328D02*
Y3801670D01*
X3750000Y5121248D02*
Y5625000D01*
X3800000Y5176252D02*
Y5600000D01*
X3850000Y5230000D02*
Y5575000D01*
X3900000Y5290000D02*
Y5550000D01*
X3975000Y5330000D02*
Y5550000D01*
X5399395Y1302605D02*
X5451000Y1251000D01*
X5325000Y1482210D02*
Y2200000D01*
D14*
X16429790Y1695000D02*
G03*
X16609395Y1769395I0J254000D01*
G01*
X16755708Y1830000D02*
G03*
X16609395Y1769395I0J-206919D01*
G01*
X16810001Y1830000D02*
G03*
X16920000Y1940000I0J110000D01*
G01*
Y2070000D02*
G03*
X16864999Y2125000I-55000J0D01*
G01*
X16353290Y1758500D02*
G03*
X16532895Y1832895I0J254000D01*
G01*
X16664999Y2125000D02*
G03*
X16605000Y2065000I0J-60000D01*
G01*
X16532895Y1832895D02*
G03*
X16605000Y2006972I-174078J174078D01*
G01*
X8672096Y1204395D02*
G03*
X8851701Y1130000I179605J179605D01*
G01*
X15903500Y1758500D02*
G03*
X15750198Y1695000I0J-216801D01*
G01*
X15214040Y1129250D02*
G03*
X15393646Y1203645I0J254000D01*
G01*
X8610096Y1139395D02*
G03*
X8789701Y1065000I179605J179605D01*
G01*
X15903500Y1695000D02*
G03*
X15795099Y1650099I0J-153301D01*
G01*
X15214040Y1065750D02*
G03*
X15438547Y1158744I0J317500D01*
G01*
X15677426Y1532426D02*
G03*
X15635001Y1430000I102425J-102425D01*
G01*
X15632524Y1577327D02*
G03*
X15571500Y1430000I147327J-147327D01*
G01*
X15537206Y1347204D02*
G03*
X15571500Y1430000I-82797J82797D01*
G01*
X15582106Y1302302D02*
G03*
X15635001Y1430000I-127698J127698D01*
G01*
X15903500Y1695000D02*
X16429790D01*
X16755708Y1830000D02*
X16810001D01*
X16920000Y1940000D02*
Y2070000D01*
X16825000Y2125000D02*
X16864999D01*
X15903500Y1758500D02*
X16353290D01*
X16605000Y2006972D02*
Y2065000D01*
X16664999Y2125000D02*
X16700000D01*
X8851701Y1130000D02*
X8925000D01*
X8255000Y1621491D02*
X8672096Y1204395D01*
X8925750Y1129250D02*
X15214040D01*
X8789701Y1065000D02*
X8930000D01*
X8255000Y1494491D02*
X8610096Y1139395D01*
X15438547Y1158744D02*
X15582106Y1302303D01*
X8930750Y1065750D02*
X15214040D01*
X8925000Y1130000D02*
X8925750Y1129250D01*
X8930000Y1065000D02*
X8930750Y1065750D01*
X15677426Y1532425D02*
X15795099Y1650099D01*
X15632524Y1577327D02*
X15750198Y1695000D01*
X15393646Y1203645D02*
X15537206Y1347204D01*
D74*
X8949998Y4299999D02*
D03*
X9200000D02*
D03*
X9450002D02*
D03*
X10949999Y2600001D02*
D03*
X10699997D02*
D03*
X10450000D02*
D03*
X10950002Y4300002D02*
D03*
X10700000D02*
D03*
X10449998D02*
D03*
X8949998Y2599999D02*
D03*
X9200000D02*
D03*
X9450002D02*
D03*
D75*
X9699999Y4299999D02*
D03*
X11200001Y2600001D02*
D03*
X11199999Y4300001D02*
D03*
X9699999Y2599999D02*
D03*
D76*
X2660000Y1625000D02*
D03*
X4940001Y1625000D02*
D03*
X3050001Y1500001D02*
D03*
X3175000D02*
D03*
X3299998D02*
D03*
X3425002D02*
D03*
X3550001D02*
D03*
X3674999D02*
D03*
X3800003D02*
D03*
X3925001D02*
D03*
X4050000D02*
D03*
X4174998D02*
D03*
X4300002D02*
D03*
X4425000D02*
D03*
X4549998D02*
D03*
X3050002Y1625000D02*
D03*
X3175000D02*
D03*
X3299998D02*
D03*
X3425002D02*
D03*
X3550000D02*
D03*
X3674999D02*
D03*
X3800003D02*
D03*
X3925001D02*
D03*
X4050000D02*
D03*
X4174998D02*
D03*
X4300002D02*
D03*
X4425000D02*
D03*
X4549999D02*
D03*
X16700000Y2500000D02*
D03*
X16825000Y2375000D02*
D03*
Y2500000D02*
D03*
X16700000Y2250000D02*
D03*
X16825000D02*
D03*
X16700000Y2125000D02*
D03*
X16825000D02*
D03*
X16700000Y2375000D02*
D03*
Y2000000D02*
D03*
X16825000D02*
D03*
X16700000Y1610000D02*
D03*
Y5390000D02*
D03*
X16825000Y2625000D02*
D03*
Y2750000D02*
D03*
Y2875000D02*
D03*
Y3000000D02*
D03*
Y3125000D02*
D03*
Y3250000D02*
D03*
Y3375000D02*
D03*
Y3500000D02*
D03*
Y3625000D02*
D03*
Y3750000D02*
D03*
Y3875000D02*
D03*
Y4000000D02*
D03*
Y4125000D02*
D03*
Y4250000D02*
D03*
Y4375000D02*
D03*
Y4500000D02*
D03*
Y4625000D02*
D03*
Y4750000D02*
D03*
Y4875000D02*
D03*
Y5000000D02*
D03*
X16700000Y2625000D02*
D03*
Y2750000D02*
D03*
Y2875000D02*
D03*
Y3000000D02*
D03*
Y3125000D02*
D03*
Y3250000D02*
D03*
Y3375000D02*
D03*
Y3500000D02*
D03*
Y3625000D02*
D03*
Y3750000D02*
D03*
Y3875000D02*
D03*
Y4000000D02*
D03*
Y4125000D02*
D03*
Y4250000D02*
D03*
Y4375000D02*
D03*
Y4500000D02*
D03*
Y4625000D02*
D03*
Y4750000D02*
D03*
Y4875000D02*
D03*
Y5000000D02*
D03*
D77*
X16005000Y2740000D02*
D03*
X16005000Y2239996D02*
D03*
D78*
X14175999Y2305000D02*
D03*
X14430000D02*
D03*
X5451000Y1251000D02*
D03*
X5705000Y1505000D02*
D03*
X5451000D02*
D03*
X5705000Y1759000D02*
D03*
X5451000D02*
D03*
D79*
X14684000Y2305000D02*
D03*
D80*
X1450000Y5322500D02*
D03*
Y4877497D02*
D03*
D81*
X1150001Y4682502D02*
D03*
X1150001Y5517501D02*
D03*
D82*
X5705000Y1251000D02*
D03*
D83*
X4050000Y5775000D02*
D03*
X3975000Y5700000D02*
D03*
X4050000Y5625000D02*
D03*
X7300000Y3650000D02*
D03*
X6050000Y2675000D02*
D03*
X9920000Y3370000D02*
D03*
X11475000Y3687501D02*
D03*
Y3562498D02*
D03*
Y3437499D02*
D03*
X10580000Y3450000D02*
D03*
X10920000Y3500000D02*
D03*
Y3640000D02*
D03*
X10020000Y3570000D02*
D03*
Y3470000D02*
D03*
X3350000Y5750000D02*
D03*
X9425000Y3350000D02*
D03*
X8150000Y2625000D02*
D03*
X8050000D02*
D03*
X5950000Y2675000D02*
D03*
X2235000Y1815000D02*
D03*
X2375000D02*
D03*
X5925000Y2900000D02*
D03*
X10050000Y2050000D02*
D03*
X7550000Y1950000D02*
D03*
X7195000Y2278661D02*
D03*
X6925000Y4025000D02*
D03*
Y4150000D02*
D03*
X5575000Y3075000D02*
D03*
Y3175000D02*
D03*
X7000000Y1650000D02*
D03*
X6700000Y1700000D02*
D03*
X6850000Y1200000D02*
D03*
X5922791Y2077209D02*
D03*
X7375000Y4325000D02*
D03*
X7450000Y4400000D02*
D03*
X7550000D02*
D03*
X7650000D02*
D03*
X4495000Y5025000D02*
D03*
X4180000Y4670000D02*
D03*
X4390000D02*
D03*
X4600000D02*
D03*
X4810000D02*
D03*
X11595000Y3915000D02*
D03*
X12209999Y5570000D02*
D03*
X5925000Y3025000D02*
D03*
X4715000Y2840000D02*
D03*
X4390000Y2875000D02*
D03*
X4200000Y2890000D02*
D03*
X4110000Y3370000D02*
D03*
X4045000Y3850000D02*
D03*
X5125000Y2875000D02*
D03*
X5220000Y3315000D02*
D03*
X5000000Y3950000D02*
D03*
X5075000Y4025000D02*
D03*
X5300000Y3425000D02*
D03*
X5190000Y3465000D02*
D03*
X5525000Y3275000D02*
D03*
X5425000D02*
D03*
X6800000Y2975000D02*
D03*
X6875000Y2900000D02*
D03*
X7390000Y2830000D02*
D03*
X7085000Y3020000D02*
D03*
X5625000Y4675000D02*
D03*
X5550000Y4750000D02*
D03*
X6265000Y2320000D02*
D03*
X11600000Y4300001D02*
D03*
X8245000Y3000000D02*
D03*
X8350000D02*
D03*
X7400000Y2550000D02*
D03*
X8425000Y2650000D02*
D03*
X8525000D02*
D03*
X6570000Y2487300D02*
D03*
X6475000Y2485000D02*
D03*
X6420000Y2275000D02*
D03*
X6118446Y2485000D02*
D03*
X5575000Y2525000D02*
D03*
X5475000D02*
D03*
X7750000Y4150000D02*
D03*
Y4050000D02*
D03*
Y4250000D02*
D03*
X7900000Y2955000D02*
D03*
X7800000D02*
D03*
X12839998Y2890000D02*
D03*
X11600000Y3245000D02*
D03*
X7175000Y3525000D02*
D03*
X7075000D02*
D03*
X7275000D02*
D03*
X7375000D02*
D03*
X8475000Y1725000D02*
D03*
X8825000D02*
D03*
X8700000D02*
D03*
X8880002Y1520002D02*
D03*
X15170000Y3170000D02*
D03*
X7992997Y4930001D02*
D03*
X7865997D02*
D03*
X8119997D02*
D03*
X7475000Y4650000D02*
D03*
X7225000Y4750000D02*
D03*
X7125000D02*
D03*
X7178998Y4930001D02*
D03*
X11960059Y5154931D02*
D03*
X12209999Y5155000D02*
D03*
X11959999Y5825000D02*
D03*
X12209999D02*
D03*
Y5700000D02*
D03*
X6800000Y2750000D02*
D03*
X7750000Y3575000D02*
D03*
Y3475000D02*
D03*
X12209999Y3145000D02*
D03*
Y3020000D02*
D03*
X7700000Y4500000D02*
D03*
X7625000Y4550000D02*
D03*
X7550000Y4600000D02*
D03*
X7400000Y4700000D02*
D03*
X7325000Y4750000D02*
D03*
X7750000Y4350000D02*
D03*
X7025000Y4750000D02*
D03*
X7050000Y5050000D02*
D03*
X9395000Y1755000D02*
D03*
X7050000Y5150000D02*
D03*
X7460000Y5385000D02*
D03*
X9140000D02*
D03*
X7050000Y5250000D02*
D03*
X11600000Y4585000D02*
D03*
X7050000Y5350000D02*
D03*
Y5450000D02*
D03*
X11098997Y4930001D02*
D03*
X7050000Y5550000D02*
D03*
Y5650000D02*
D03*
Y5750000D02*
D03*
X1200000Y3510000D02*
D03*
X7559998Y5854998D02*
D03*
X7305998D02*
D03*
X8030000Y3880000D02*
D03*
X8035000Y3470000D02*
D03*
X8985997Y5854998D02*
D03*
X7050000Y5850000D02*
D03*
X12989998Y5570000D02*
D03*
X12989999Y5460000D02*
D03*
X12739998Y5825000D02*
D03*
X11600000Y3345000D02*
D03*
X12989998Y3145000D02*
D03*
X6025000Y5565000D02*
D03*
Y5645000D02*
D03*
Y5725000D02*
D03*
X5545000Y4960000D02*
D03*
X5485000Y5020000D02*
D03*
X5425000Y5080000D02*
D03*
X7865997Y5854998D02*
D03*
X11225997D02*
D03*
X7992997D02*
D03*
X11352997D02*
D03*
Y4930001D02*
D03*
X9545997Y5854998D02*
D03*
X10919997D02*
D03*
X10105997D02*
D03*
X10665997D02*
D03*
X11595000Y2570000D02*
D03*
Y2670000D02*
D03*
Y4015000D02*
D03*
X11600000Y4685000D02*
D03*
X13935001Y2690000D02*
D03*
X13939999Y3365000D02*
D03*
X13935001Y4035000D02*
D03*
X13939999Y4705000D02*
D03*
X11600000Y5250000D02*
D03*
Y5350000D02*
D03*
X14510001Y5240000D02*
D03*
X13939999Y5370000D02*
D03*
X7124491Y3913275D02*
D03*
X7610000Y3570000D02*
D03*
X7550000Y3630000D02*
D03*
X7580000Y3490000D02*
D03*
X8460000Y4270000D02*
D03*
X7490000Y3690000D02*
D03*
X8440000Y4190000D02*
D03*
X5400000Y2300000D02*
D03*
X10575000Y3350000D02*
D03*
Y3550000D02*
D03*
X10580000Y3650000D02*
D03*
X9780000Y3675000D02*
D03*
X9425000Y3575000D02*
D03*
X9775000Y3525000D02*
D03*
X9425000Y3475000D02*
D03*
X9775000Y3425000D02*
D03*
X10025002Y1310001D02*
D03*
Y1405002D02*
D03*
X8255000Y1621491D02*
D03*
Y1494491D02*
D03*
X9135002Y1199050D02*
D03*
X8800002Y1325001D02*
D03*
Y1455001D02*
D03*
X8255000Y1240491D02*
D03*
Y1367491D02*
D03*
X9380002Y1205001D02*
D03*
X1650000Y5250000D02*
D03*
X3975000Y5215000D02*
D03*
X4250000Y5220000D02*
D03*
Y5305000D02*
D03*
X6725000Y2825000D02*
D03*
X8300000Y3390000D02*
D03*
X8274998Y3900000D02*
D03*
X3325000Y5111249D02*
D03*
Y5331249D02*
D03*
X3975000Y4896248D02*
D03*
Y5105000D02*
D03*
Y5330000D02*
D03*
Y5550000D02*
D03*
Y5001252D02*
D03*
Y5850000D02*
D03*
X5305000Y3280000D02*
D03*
X5325000Y2575000D02*
D03*
Y2200000D02*
D03*
X5250000Y2100000D02*
D03*
X5100000D02*
D03*
X5250000Y2750000D02*
D03*
X5200000Y2825000D02*
D03*
X5175000Y2675000D02*
D03*
X5100000Y2775000D02*
D03*
X6425000Y2825000D02*
D03*
X4725000Y3325000D02*
D03*
Y3480000D02*
D03*
Y3675000D02*
D03*
X3379998Y4675000D02*
D03*
X3190000D02*
D03*
X2620000D02*
D03*
X1200000Y3650000D02*
D03*
Y3300000D02*
D03*
Y3110000D02*
D03*
Y2925000D02*
D03*
X6600000Y4450000D02*
D03*
X6345000Y3360000D02*
D03*
X6100000Y3475000D02*
D03*
X5250000Y3550000D02*
D03*
X5155000Y3650000D02*
D03*
X6160000Y4620000D02*
D03*
X5740000Y4200000D02*
D03*
X6669950Y4380000D02*
D03*
X5830000Y2810000D02*
D03*
X5770000Y2870000D02*
D03*
X5800000Y4260000D02*
D03*
X6220000Y4680000D02*
D03*
X7065000Y3975000D02*
D03*
X14924805Y5835195D02*
D03*
X12989998Y5700000D02*
D03*
X15170000Y5850000D02*
D03*
X15130000Y5455000D02*
D03*
X12989998Y5825000D02*
D03*
X14510001Y5910000D02*
D03*
X14814999Y5350000D02*
D03*
X13700000Y5835000D02*
D03*
X13945000Y5850000D02*
D03*
X12210000Y5460000D02*
D03*
X13905000Y5455000D02*
D03*
X13285001Y5910000D02*
D03*
X13590096Y5350394D02*
D03*
X14925000Y5165000D02*
D03*
X12989998Y5030000D02*
D03*
X15170000Y5180000D02*
D03*
X12989999Y4790000D02*
D03*
X15130000Y4785000D02*
D03*
X12989998Y5155000D02*
D03*
Y4900000D02*
D03*
X14814999Y4680000D02*
D03*
X13700000Y5165000D02*
D03*
X12209999Y5030000D02*
D03*
X13945000Y5180000D02*
D03*
X12210000Y4790000D02*
D03*
X13905000Y4785000D02*
D03*
X13285001Y5240000D02*
D03*
X12209999Y4900000D02*
D03*
X13590096Y4680394D02*
D03*
X14925000Y4495000D02*
D03*
X12989998Y4360000D02*
D03*
X15170000Y4510000D02*
D03*
X12989999Y4120000D02*
D03*
X15130000Y4115000D02*
D03*
X12989998Y4485000D02*
D03*
X14510001Y4570000D02*
D03*
X12989998Y4230000D02*
D03*
X14814999Y4010000D02*
D03*
X13700000Y4495000D02*
D03*
X12209999Y4360000D02*
D03*
X13945000Y4510000D02*
D03*
X12210000Y4120000D02*
D03*
X13905000Y4115000D02*
D03*
X12209999Y4485000D02*
D03*
X13285001Y4570000D02*
D03*
X12209999Y4230000D02*
D03*
X13590096Y4010394D02*
D03*
X14925000Y3825000D02*
D03*
X12989998Y3690000D02*
D03*
X15170000Y3840000D02*
D03*
X12989999Y3450000D02*
D03*
X15130000Y3445000D02*
D03*
X12989998Y3815000D02*
D03*
X14510001Y3900000D02*
D03*
X12989998Y3560000D02*
D03*
X14814999Y3340000D02*
D03*
X13700000Y3825000D02*
D03*
X12209999Y3690000D02*
D03*
X13945000Y3840000D02*
D03*
X12210000Y3450000D02*
D03*
X13905000Y3445000D02*
D03*
X12209999Y3815000D02*
D03*
X13285001Y3900000D02*
D03*
X12209999Y3560000D02*
D03*
X13589999Y3340000D02*
D03*
X6590000Y1395000D02*
D03*
X6590000Y1190000D02*
D03*
X6590000Y1595000D02*
D03*
X6565000Y5844999D02*
D03*
Y5645000D02*
D03*
Y5440000D02*
D03*
X7380000Y1621491D02*
D03*
Y1240491D02*
D03*
X6565000Y1835001D02*
D03*
X6340000Y2100000D02*
D03*
X9727502Y1822502D02*
D03*
X8880002Y1390002D02*
D03*
X9470002Y1330001D02*
D03*
X9385002Y1380001D02*
D03*
X9485002Y1410001D02*
D03*
X9385002Y1460001D02*
D03*
X11479997Y4930001D02*
D03*
X8858997D02*
D03*
X8985997D02*
D03*
X8425997D02*
D03*
X8552997D02*
D03*
X8679997D02*
D03*
X10538997D02*
D03*
X9112997Y5854998D02*
D03*
X10232997D02*
D03*
X10359997D02*
D03*
X8679997D02*
D03*
X11225997Y4930001D02*
D03*
X11479997Y5854998D02*
D03*
X11379999Y5385000D02*
D03*
X10665997Y4930001D02*
D03*
X10919997D02*
D03*
X10792997Y5854998D02*
D03*
X10819999Y5385000D02*
D03*
X10792997Y4930001D02*
D03*
X10105997D02*
D03*
X10359997D02*
D03*
X9978997D02*
D03*
X10260000Y5385000D02*
D03*
X10232997Y4930001D02*
D03*
X9545997D02*
D03*
X9799997D02*
D03*
X9672997Y5854998D02*
D03*
X9799997D02*
D03*
X9418997Y4930001D02*
D03*
X9700000Y5385000D02*
D03*
X9672997Y4930001D02*
D03*
X9239997D02*
D03*
Y5854998D02*
D03*
X9112997Y4930001D02*
D03*
X8552997Y5854998D02*
D03*
X8298997Y4930001D02*
D03*
X8580000Y5385000D02*
D03*
X8425997Y5854998D02*
D03*
X8119997D02*
D03*
X7738997Y4930001D02*
D03*
X8020000Y5385000D02*
D03*
X11200001Y3312501D02*
D03*
X7432998Y5854998D02*
D03*
X1650000Y5350000D02*
D03*
X14925000Y3155000D02*
D03*
X7432998Y4930001D02*
D03*
X7559998D02*
D03*
X7305998D02*
D03*
X13589925Y2670135D02*
D03*
X12739998Y3145000D02*
D03*
X12059999Y2890000D02*
D03*
X12209999D02*
D03*
X12210000Y2780000D02*
D03*
X11959999Y2890000D02*
D03*
X12135000Y2830000D02*
D03*
X11959999Y3145000D02*
D03*
X12134999Y2950000D02*
D03*
X12989998Y3020000D02*
D03*
Y2890000D02*
D03*
X12989999Y2780000D02*
D03*
X12739998Y2890000D02*
D03*
X12914999Y2830000D02*
D03*
X12914998Y2950000D02*
D03*
X12059999Y3560000D02*
D03*
X11959999D02*
D03*
X12135000Y3500000D02*
D03*
X11959999Y3815000D02*
D03*
X12134999Y3620000D02*
D03*
X12839998Y3560000D02*
D03*
X12739998D02*
D03*
X12914999Y3500000D02*
D03*
X12739998Y3815000D02*
D03*
X12914998Y3620000D02*
D03*
X12059999Y4230000D02*
D03*
X11959999D02*
D03*
X12135000Y4170000D02*
D03*
X11959999Y4485000D02*
D03*
X12134999Y4290000D02*
D03*
X12839998Y4230000D02*
D03*
X12739998D02*
D03*
X12914999Y4170000D02*
D03*
X12739998Y4485000D02*
D03*
X12914998Y4290000D02*
D03*
X12059999Y4900000D02*
D03*
X11959999D02*
D03*
X12135000Y4840000D02*
D03*
X12134999Y4960000D02*
D03*
X12839998Y4900000D02*
D03*
X12739998D02*
D03*
X12914999Y4840000D02*
D03*
X12739998Y5155000D02*
D03*
X12914998Y4960000D02*
D03*
X12059999Y5570000D02*
D03*
X11959999D02*
D03*
X12135000Y5510000D02*
D03*
X12134999Y5630000D02*
D03*
X12914999Y5510000D02*
D03*
X12914998Y5630000D02*
D03*
X12839998Y5570000D02*
D03*
X12739998D02*
D03*
X13285001Y3230000D02*
D03*
X13905000Y2775000D02*
D03*
X13945000Y3170000D02*
D03*
X13700000Y3155000D02*
D03*
X14814999Y2670000D02*
D03*
X14510001Y3230000D02*
D03*
X15130000Y2775000D02*
D03*
D84*
X10345000Y1510000D02*
D03*
X8455000Y3890000D02*
D03*
X10610000Y1765000D02*
D03*
X10600000Y1615000D02*
D03*
X11310000Y1760000D02*
D03*
X10025002Y1210001D02*
D03*
X8870002Y1235001D02*
D03*
X8290403Y3525002D02*
D03*
D85*
X6395000Y4100000D02*
D03*
X12900000Y1349999D02*
D03*
X11999999Y1350000D02*
D03*
X15420000Y1410000D02*
D03*
X14770000Y5835000D02*
D03*
X15600000Y5780000D02*
D03*
X13545000Y5835000D02*
D03*
X14375000Y5780000D02*
D03*
X14770000Y5165000D02*
D03*
X15600000Y5110000D02*
D03*
X13545000Y5165000D02*
D03*
X14375000Y5110000D02*
D03*
X14770000Y4495000D02*
D03*
X15600000Y4440000D02*
D03*
X13545000Y4495000D02*
D03*
X14375000Y4440000D02*
D03*
X14770000Y3825000D02*
D03*
X15600000Y3770000D02*
D03*
X13545000Y3825000D02*
D03*
X14375000Y3770000D02*
D03*
X3750000Y5900000D02*
D03*
X2265000Y5250000D02*
D03*
X13544904Y3154606D02*
D03*
X14375000Y3100000D02*
D03*
X15600000D02*
D03*
X14770000Y3155000D02*
D03*
D86*
X16000000Y5650000D02*
D03*
X9000000Y3500000D02*
D03*
X16000000Y1350000D02*
D03*
X2000000Y5650000D02*
D03*
Y1350000D02*
D03*
D87*
X9780002Y1285001D02*
D03*
X9680002D02*
D03*
X9780002Y1385001D02*
D03*
X9680002D02*
D03*
D88*
X13230000Y2050000D02*
D03*
X12230000D02*
D03*
D89*
X15335001Y3015206D02*
G03*
X15409395Y2835601I254000J0D01*
G01*
X16005000Y2239996D01*
X15335001Y3015206D02*
Y3655000D01*
Y4330000D01*
Y4985000D01*
D90*
X14835399Y3089601D02*
G03*
X15015004Y3015206I179605J179605D01*
G01*
X14865605Y3729395D02*
G03*
X15045210Y3655000I179605J179605D01*
G01*
X14860605Y4404395D02*
G03*
X15040210Y4330000I179605J179605D01*
G01*
X14866109Y5738891D02*
G03*
X14960001Y5700000I93892J93892D01*
G01*
X15335001Y5446000D02*
G03*
X15081000Y5700000I-254000J0D01*
G01*
X14875604Y5059395D02*
G03*
X15055209Y4985000I179605J179605D01*
G01*
X14494791Y5665000D02*
G03*
X14674396Y5739395I0J254000D01*
G01*
X14494791Y4995000D02*
G03*
X14674396Y5069395I0J254000D01*
G01*
X13640605Y5739395D02*
G03*
X13820210Y5665000I179605J179605D01*
G01*
X13640605Y5069395D02*
G03*
X13820210Y4995000I179605J179605D01*
G01*
X14484790Y4315000D02*
G03*
X14664395Y4389395I0J254000D01*
G01*
X13650604D02*
G03*
X13830209Y4315000I179605J179605D01*
G01*
X14469791Y3630000D02*
G03*
X14649396Y3704395I0J254000D01*
G01*
X13665605D02*
G03*
X13845210Y3630000I179605J179605D01*
G01*
X14479790Y2970000D02*
G03*
X14659395Y3044395I0J254000D01*
G01*
X13655682Y3044318D02*
G03*
X13835211Y2970000I179528J179682D01*
G01*
X15015004Y3015206D02*
X15335001D01*
X14659395Y3044395D02*
X14770000Y3155000D01*
X14835399Y3089601D01*
X15045210Y3655000D02*
X15335001D01*
X14649396Y3704395D02*
X14770000Y3825000D01*
X14865605Y3729395D01*
X15040210Y4330000D02*
X15335001D01*
X14664395Y4389395D02*
X14770000Y4495000D01*
X14860605Y4404395D01*
X14674396Y5739395D02*
X14770000Y5835000D01*
X14960001Y5700000D02*
X15081000D01*
X15055209Y4985000D02*
X15335001D01*
Y5446000D01*
X14770000Y5835000D02*
X14866109Y5738891D01*
X14674396Y5069395D02*
X14770000Y5165000D01*
X14875604Y5059395D01*
X13820210Y5665000D02*
X14494791D01*
X13545000Y5835000D02*
X13640605Y5739395D01*
X13545000Y5165000D02*
X13640605Y5069395D01*
X13820210Y4995000D02*
X14494791D01*
X13545000Y4495000D02*
X13650604Y4389395D01*
X13830209Y4315000D02*
X14484790D01*
X13545000Y3825000D02*
X13665605Y3704395D01*
X13845210Y3630000D02*
X14469791D01*
X13835211Y2970000D02*
X14479790D01*
X13544904Y3154606D02*
X13655682Y3044318D01*
%TF.MD5,c4a083cdf36ae823cdd7e5b575998f84*%
M02*
