%TF.GenerationSoftware,Altium Limited,Altium Designer,22.4.2 (48)*%
G04 Layer_Color=8421504*
%FSLAX45Y45*%
%MOMM*%
%TF.SameCoordinates,1579B7B8-C0FA-446B-BA7A-E71437B095E0*%
%TF.FilePolarity,Positive*%
%TF.FileFunction,Paste,Top*%
%TF.Part,Single*%
G01*
G75*
%TA.AperFunction,SMDPad,CuDef*%
G04:AMPARAMS|DCode=16|XSize=0.3mm|YSize=1.5mm|CornerRadius=0mm|HoleSize=0mm|Usage=FLASHONLY|Rotation=315.000|XOffset=0mm|YOffset=0mm|HoleType=Round|Shape=Rectangle|*
%AMROTATEDRECTD16*
4,1,4,-0.63640,-0.42426,0.42426,0.63640,0.63640,0.42426,-0.42426,-0.63640,-0.63640,-0.42426,0.0*
%
%ADD16ROTATEDRECTD16*%

%ADD17R,1.10000X0.60000*%
%TA.AperFunction,SMDPad,SMDef*%
%ADD18R,0.47500X0.35000*%
%ADD19R,0.25000X0.47500*%
%TA.AperFunction,SMDPad,CuDef*%
%ADD20R,1.10000X1.05000*%
%ADD21R,1.05000X1.10000*%
%ADD22R,1.78000X2.16000*%
%ADD23R,0.51535X0.47247*%
%ADD24R,0.60000X0.40000*%
%ADD25R,0.90000X0.70000*%
%ADD26R,0.47247X0.51535*%
%ADD27R,0.80000X0.80000*%
%ADD28R,1.52500X0.65000*%
%ADD29R,0.80000X0.90000*%
%ADD30R,1.50000X1.60000*%
G04:AMPARAMS|DCode=31|XSize=0.85mm|YSize=0.25mm|CornerRadius=0.125mm|HoleSize=0mm|Usage=FLASHONLY|Rotation=0.000|XOffset=0mm|YOffset=0mm|HoleType=Round|Shape=RoundedRectangle|*
%AMROUNDEDRECTD31*
21,1,0.85000,0.00000,0,0,0.0*
21,1,0.60000,0.25000,0,0,0.0*
1,1,0.25000,0.30000,0.00000*
1,1,0.25000,-0.30000,0.00000*
1,1,0.25000,-0.30000,0.00000*
1,1,0.25000,0.30000,0.00000*
%
%ADD31ROUNDEDRECTD31*%
%ADD32R,0.85000X0.35000*%
%ADD33R,1.65000X4.25000*%
%ADD34R,0.90000X1.85000*%
%ADD35R,2.50000X2.30000*%
%ADD36R,3.20000X1.85000*%
%ADD37R,2.45000X2.35000*%
%ADD38R,0.80000X0.80000*%
%ADD39O,0.50000X2.00000*%
%ADD40R,0.50000X2.00000*%
%ADD41R,0.90000X0.80000*%
%ADD42R,2.50000X2.50000*%
%ADD43R,0.70000X0.90000*%
%ADD44R,1.00000X1.15000*%
%ADD45R,1.95580X3.14960*%
%ADD46R,1.14000X0.91000*%
%ADD47R,0.40640X0.68580*%
%ADD48R,2.43840X0.55880*%
%TA.AperFunction,ConnectorPad*%
%ADD50R,1.35000X0.40000*%
%TA.AperFunction,SMDPad,CuDef*%
G04:AMPARAMS|DCode=53|XSize=0.3mm|YSize=1.5mm|CornerRadius=0mm|HoleSize=0mm|Usage=FLASHONLY|Rotation=45.000|XOffset=0mm|YOffset=0mm|HoleType=Round|Shape=Rectangle|*
%AMROTATEDRECTD53*
4,1,4,0.42426,-0.63640,-0.63640,0.42426,-0.42426,0.63640,0.63640,-0.42426,0.42426,-0.63640,0.0*
%
%ADD53ROTATEDRECTD53*%

%ADD54R,1.20000X1.00000*%
%ADD55R,0.67500X0.25000*%
%ADD56R,0.25000X0.67500*%
%ADD57R,0.85000X0.28000*%
%ADD58R,0.28000X0.85000*%
%ADD59R,2.55000X2.05000*%
%TA.AperFunction,ConnectorPad*%
%ADD62R,1.35000X1.90000*%
%ADD63R,1.00000X1.20000*%
%ADD64R,1.35000X1.55000*%
%ADD65R,1.10000X0.85000*%
%ADD66R,1.10000X0.75000*%
%ADD67R,1.80000X1.17000*%
%ADD68R,1.90000X1.80000*%
%TA.AperFunction,SMDPad,CuDef*%
%ADD69P,2.82843X4X180.0*%
G04:AMPARAMS|DCode=70|XSize=0.65mm|YSize=0.25mm|CornerRadius=0mm|HoleSize=0mm|Usage=FLASHONLY|Rotation=135.000|XOffset=0mm|YOffset=0mm|HoleType=Round|Shape=Rectangle|*
%AMROTATEDRECTD70*
4,1,4,0.31820,-0.14142,0.14142,-0.31820,-0.31820,0.14142,-0.14142,0.31820,0.31820,-0.14142,0.0*
%
%ADD70ROTATEDRECTD70*%

G04:AMPARAMS|DCode=71|XSize=0.65mm|YSize=0.25mm|CornerRadius=0mm|HoleSize=0mm|Usage=FLASHONLY|Rotation=45.000|XOffset=0mm|YOffset=0mm|HoleType=Round|Shape=Rectangle|*
%AMROTATEDRECTD71*
4,1,4,-0.14142,-0.31820,-0.31820,-0.14142,0.14142,0.31820,0.31820,0.14142,-0.14142,-0.31820,0.0*
%
%ADD71ROTATEDRECTD71*%

%TA.AperFunction,Conductor*%
%ADD73R,1.89997X1.57500*%
%TA.AperFunction,NonConductor*%
%ADD121R,0.58003X0.71999*%
%ADD122R,0.57998X0.71999*%
%ADD123R,0.72004X0.57998*%
%ADD124R,0.71999X0.57998*%
%ADD125R,0.71999X0.58003*%
%ADD126R,0.72004X0.58003*%
G36*
X9536416Y3487120D02*
X9537119Y3486416D01*
X9537500Y3485497D01*
Y3485000D01*
Y3465000D01*
Y3464503D01*
X9537119Y3463584D01*
X9536416Y3462881D01*
X9535497Y3462500D01*
X9512003D01*
X9511084Y3462881D01*
X9510381Y3463584D01*
X9510000Y3464503D01*
Y3465000D01*
Y3485000D01*
Y3485497D01*
X9510381Y3486416D01*
X9511084Y3487120D01*
X9512003Y3487500D01*
X9512500D01*
Y3487500D01*
X9535000Y3487500D01*
X9535497D01*
X9536416Y3487120D01*
D02*
G37*
G36*
Y3437119D02*
X9537119Y3436416D01*
X9537500Y3435497D01*
Y3435000D01*
Y3415000D01*
Y3414503D01*
X9537119Y3413584D01*
X9536416Y3412880D01*
X9535497Y3412500D01*
X9535000D01*
Y3412500D01*
X9512500Y3412500D01*
X9512003D01*
X9511084Y3412880D01*
X9510381Y3413584D01*
X9510000Y3414503D01*
Y3415000D01*
Y3435000D01*
Y3435497D01*
X9510381Y3436416D01*
X9511084Y3437119D01*
X9512003Y3437500D01*
X9535497D01*
X9536416Y3437119D01*
D02*
G37*
G36*
X9586416D02*
X9587120Y3436416D01*
X9587500Y3435497D01*
Y3435000D01*
X9587500D01*
X9587500Y3412500D01*
Y3412003D01*
X9587120Y3411084D01*
X9586416Y3410381D01*
X9585497Y3410000D01*
X9564503D01*
X9563584Y3410381D01*
X9562881Y3411084D01*
X9562500Y3412003D01*
Y3412500D01*
Y3435000D01*
Y3435497D01*
X9562881Y3436416D01*
X9563584Y3437119D01*
X9564503Y3437500D01*
X9585497D01*
X9586416Y3437119D01*
D02*
G37*
G36*
X9535000Y3537500D02*
X9535497D01*
X9536416Y3537119D01*
X9537119Y3536416D01*
X9537500Y3535497D01*
Y3535000D01*
D01*
Y3515000D01*
Y3514503D01*
X9537119Y3513584D01*
X9536416Y3512880D01*
X9535497Y3512500D01*
X9535000D01*
Y3512500D01*
X9512500Y3512500D01*
X9512003D01*
X9511084Y3512880D01*
X9510381Y3513584D01*
X9510000Y3514503D01*
Y3515000D01*
D01*
Y3535000D01*
Y3535497D01*
X9510381Y3536416D01*
X9511084Y3537119D01*
X9512003Y3537500D01*
X9512500D01*
D01*
X9535000D01*
D02*
G37*
G36*
X9537500Y3565000D02*
Y3564503D01*
X9537119Y3563584D01*
X9536416Y3562881D01*
X9535497Y3562500D01*
X9535000D01*
D01*
X9512500D01*
X9512003D01*
X9511084Y3562881D01*
X9510381Y3563584D01*
X9510000Y3564503D01*
Y3565000D01*
D01*
Y3585000D01*
Y3585497D01*
X9510381Y3586416D01*
X9511084Y3587120D01*
X9512003Y3587500D01*
X9512500D01*
Y3587500D01*
X9535000Y3587500D01*
X9535497D01*
X9536416Y3587120D01*
X9537119Y3586416D01*
X9537500Y3585497D01*
Y3585000D01*
D01*
Y3565000D01*
D02*
G37*
G36*
X9562500D02*
Y3587500D01*
Y3587997D01*
X9562881Y3588916D01*
X9563584Y3589619D01*
X9564503Y3590000D01*
X9565000D01*
D01*
X9585000D01*
X9585497D01*
X9586416Y3589619D01*
X9587120Y3588916D01*
X9587500Y3587997D01*
Y3587500D01*
X9587500D01*
X9587500Y3565000D01*
Y3564503D01*
X9587120Y3563584D01*
X9586416Y3562881D01*
X9585497Y3562500D01*
X9585000D01*
D01*
X9565000D01*
X9564503D01*
X9563584Y3562881D01*
X9562881Y3563584D01*
X9562500Y3564503D01*
Y3565000D01*
D01*
D02*
G37*
G36*
X9612500Y3435000D02*
Y3435497D01*
X9612880Y3436416D01*
X9613584Y3437119D01*
X9614503Y3437500D01*
X9615000D01*
D01*
X9635000D01*
X9635497D01*
X9636416Y3437119D01*
X9637119Y3436416D01*
X9637500Y3435497D01*
Y3435000D01*
D01*
Y3412500D01*
Y3412003D01*
X9637119Y3411084D01*
X9636416Y3410381D01*
X9635497Y3410000D01*
X9635000D01*
D01*
X9615000D01*
X9614503D01*
X9613584Y3410381D01*
X9612880Y3411084D01*
X9612500Y3412003D01*
Y3412500D01*
X9612500D01*
X9612500Y3435000D01*
D02*
G37*
G36*
X9687500Y3437500D02*
X9687997D01*
X9688916Y3437119D01*
X9689619Y3436416D01*
X9690000Y3435497D01*
Y3435000D01*
D01*
Y3415000D01*
Y3414503D01*
X9689619Y3413584D01*
X9688916Y3412880D01*
X9687997Y3412500D01*
X9687500D01*
Y3412500D01*
X9665000Y3412500D01*
X9664503D01*
X9663584Y3412880D01*
X9662881Y3413584D01*
X9662500Y3414503D01*
Y3415000D01*
D01*
Y3435000D01*
Y3435497D01*
X9662881Y3436416D01*
X9663584Y3437119D01*
X9664503Y3437500D01*
X9665000D01*
D01*
X9687500D01*
D02*
G37*
G36*
X9662500Y3465000D02*
Y3485000D01*
Y3485497D01*
X9662881Y3486416D01*
X9663584Y3487120D01*
X9664503Y3487500D01*
X9665000D01*
Y3487500D01*
X9687500Y3487500D01*
X9687997D01*
X9688916Y3487120D01*
X9689619Y3486416D01*
X9690000Y3485497D01*
Y3485000D01*
D01*
Y3465000D01*
Y3464503D01*
X9689619Y3463584D01*
X9688916Y3462881D01*
X9687997Y3462500D01*
X9687500D01*
D01*
X9665000D01*
X9664503D01*
X9663584Y3462881D01*
X9662881Y3463584D01*
X9662500Y3464503D01*
Y3465000D01*
D01*
D02*
G37*
G36*
X9688916Y3587120D02*
X9689619Y3586416D01*
X9690000Y3585497D01*
Y3585000D01*
Y3565000D01*
Y3564503D01*
X9689619Y3563584D01*
X9688916Y3562881D01*
X9687997Y3562500D01*
X9664503D01*
X9663584Y3562881D01*
X9662881Y3563584D01*
X9662500Y3564503D01*
Y3565000D01*
Y3585000D01*
Y3585497D01*
X9662881Y3586416D01*
X9663584Y3587120D01*
X9664503Y3587500D01*
X9665000D01*
Y3587500D01*
X9687500Y3587500D01*
X9687997D01*
X9688916Y3587120D01*
D02*
G37*
G36*
X9636416Y3589619D02*
X9637119Y3588916D01*
X9637500Y3587997D01*
Y3587500D01*
Y3565000D01*
Y3564503D01*
X9637119Y3563584D01*
X9636416Y3562881D01*
X9635497Y3562500D01*
X9614503D01*
X9613584Y3562881D01*
X9612880Y3563584D01*
X9612500Y3564503D01*
Y3565000D01*
X9612500D01*
X9612500Y3587500D01*
Y3587997D01*
X9612880Y3588916D01*
X9613584Y3589619D01*
X9614503Y3590000D01*
X9635497D01*
X9636416Y3589619D01*
D02*
G37*
G36*
X9688916Y3537119D02*
X9689619Y3536416D01*
X9690000Y3535497D01*
Y3535000D01*
Y3515000D01*
Y3514503D01*
X9689619Y3513584D01*
X9688916Y3512880D01*
X9687997Y3512500D01*
X9687500D01*
Y3512500D01*
X9665000Y3512500D01*
X9664503D01*
X9663584Y3512880D01*
X9662881Y3513584D01*
X9662500Y3514503D01*
Y3515000D01*
Y3535000D01*
Y3535497D01*
X9662881Y3536416D01*
X9663584Y3537119D01*
X9664503Y3537500D01*
X9687997D01*
X9688916Y3537119D01*
D02*
G37*
D16*
X6482843Y4899999D02*
D03*
X6518197Y4864645D02*
D03*
X6553554Y4829288D02*
D03*
X6588907Y4793935D02*
D03*
X6624264Y4758578D02*
D03*
X6659618Y4723224D02*
D03*
X6694975Y4687867D02*
D03*
X6730328Y4652514D02*
D03*
X6765685Y4617157D02*
D03*
X6801039Y4581803D02*
D03*
X6836396Y4546446D02*
D03*
X6871749Y4511093D02*
D03*
X6907106Y4475736D02*
D03*
X6942460Y4440382D02*
D03*
X6977817Y4405025D02*
D03*
X7013170Y4369671D02*
D03*
X7048528Y4334314D02*
D03*
X7083881Y4298961D02*
D03*
X7119238Y4263604D02*
D03*
X7154591Y4228250D02*
D03*
X7189949Y4192893D02*
D03*
X7225302Y4157540D02*
D03*
X7260659Y4122183D02*
D03*
X7296013Y4086829D02*
D03*
X7331370Y4051472D02*
D03*
X7366723Y4016119D02*
D03*
X7402080Y3980762D02*
D03*
X7437434Y3945408D02*
D03*
X7472791Y3910051D02*
D03*
X7508144Y3874698D02*
D03*
X7543501Y3839341D02*
D03*
X7578855Y3803987D02*
D03*
X7614212Y3768630D02*
D03*
X7649565Y3733277D02*
D03*
X7684922Y3697920D02*
D03*
X7720276Y3662566D02*
D03*
X6199998Y2142288D02*
D03*
X6164644Y2177641D02*
D03*
X6129287Y2212998D02*
D03*
X6093933Y2248352D02*
D03*
X6058576Y2283709D02*
D03*
X6023223Y2319062D02*
D03*
X5987866Y2354419D02*
D03*
X5952512Y2389773D02*
D03*
X5917155Y2425130D02*
D03*
X5881802Y2460484D02*
D03*
X5846445Y2495841D02*
D03*
X5811091Y2531194D02*
D03*
X5775734Y2566551D02*
D03*
X5740381Y2601904D02*
D03*
X5705024Y2637262D02*
D03*
X5669670Y2672615D02*
D03*
X5634313Y2707972D02*
D03*
X5598960Y2743325D02*
D03*
X5563603Y2778682D02*
D03*
X5528249Y2814036D02*
D03*
X5492892Y2849393D02*
D03*
X5457538Y2884747D02*
D03*
X5422181Y2920104D02*
D03*
X5386828Y2955457D02*
D03*
X5351471Y2990814D02*
D03*
X5316117Y3026168D02*
D03*
X5280760Y3061525D02*
D03*
X5245407Y3096878D02*
D03*
X5210050Y3132235D02*
D03*
X5174696Y3167589D02*
D03*
X5139339Y3202946D02*
D03*
X5103986Y3238299D02*
D03*
X5068629Y3273656D02*
D03*
X5033275Y3309010D02*
D03*
X4997918Y3344367D02*
D03*
X4962565Y3379720D02*
D03*
D17*
X11090002Y3687501D02*
D03*
Y3562498D02*
D03*
Y3437499D02*
D03*
Y3312501D02*
D03*
X11310001D02*
D03*
Y3437499D02*
D03*
Y3562498D02*
D03*
Y3687501D02*
D03*
X4830001Y3115002D02*
D03*
Y2974997D02*
D03*
D18*
X8143751Y3725002D02*
D03*
Y3675000D02*
D03*
Y3625002D02*
D03*
Y3575000D02*
D03*
Y3525002D02*
D03*
Y3475000D02*
D03*
Y3425003D02*
D03*
Y3375000D02*
D03*
Y3325003D02*
D03*
Y3275000D02*
D03*
X8456252D02*
D03*
Y3325003D02*
D03*
Y3375000D02*
D03*
Y3425003D02*
D03*
Y3475000D02*
D03*
Y3525002D02*
D03*
Y3575000D02*
D03*
Y3625002D02*
D03*
Y3675000D02*
D03*
Y3725002D02*
D03*
D19*
X8375003Y3731250D02*
D03*
X8325000D02*
D03*
X8274998D02*
D03*
X8225000D02*
D03*
Y3268752D02*
D03*
X8274998D02*
D03*
X8325000D02*
D03*
X8375003D02*
D03*
D20*
X2035000Y3510000D02*
D03*
Y3650000D02*
D03*
X9845002Y1680001D02*
D03*
Y1820001D02*
D03*
X15200002Y1419998D02*
D03*
Y1279999D02*
D03*
D21*
X2785000Y2320000D02*
D03*
X2645000D02*
D03*
X4280000Y1935000D02*
D03*
X4420000D02*
D03*
X9250002Y1815001D02*
D03*
X9110002D02*
D03*
X11730002Y1350000D02*
D03*
X12630002Y1349999D02*
D03*
X13169998Y1349999D02*
D03*
X13029999D02*
D03*
X11870001Y1350000D02*
D03*
X12269998Y1349999D02*
D03*
X12129999D02*
D03*
X12770001Y1349999D02*
D03*
D22*
X13422501Y3010002D02*
D03*
X13827498D02*
D03*
X14647501Y5690000D02*
D03*
X15052499D02*
D03*
X13422501Y4350002D02*
D03*
X13827499D02*
D03*
X13422499Y3680002D02*
D03*
X13827502D02*
D03*
X13422501Y5020002D02*
D03*
X13827498D02*
D03*
X13422499Y5690002D02*
D03*
X13827502D02*
D03*
X14647501Y3680002D02*
D03*
X15052498D02*
D03*
X14647499Y4350002D02*
D03*
X15052502D02*
D03*
X14647501Y3010002D02*
D03*
X15052499D02*
D03*
X14647502Y5020002D02*
D03*
X15052499D02*
D03*
D23*
X2022144Y3110000D02*
D03*
X2097856D02*
D03*
X3977856D02*
D03*
X3902144D02*
D03*
X2097856Y3300000D02*
D03*
X2022144D02*
D03*
X3905000Y3490000D02*
D03*
X3980713D02*
D03*
D24*
X6235000Y1315000D02*
D03*
Y1395000D02*
D03*
Y1475000D02*
D03*
X6455000D02*
D03*
Y1395000D02*
D03*
Y1315000D02*
D03*
X6210000Y5565000D02*
D03*
Y5645000D02*
D03*
X6210000Y5725000D02*
D03*
X6430000D02*
D03*
Y5645000D02*
D03*
Y5565000D02*
D03*
D25*
X4135000Y3185000D02*
D03*
Y3035000D02*
D03*
X13499998Y1875001D02*
D03*
Y1724999D02*
D03*
X12500000Y1875001D02*
D03*
Y1724999D02*
D03*
D26*
X3190000Y4202143D02*
D03*
Y4277856D02*
D03*
D27*
X4345000Y3190000D02*
D03*
Y3030000D02*
D03*
X12500001Y2380002D02*
D03*
Y2219997D02*
D03*
X13500002Y2380000D02*
D03*
Y2220000D02*
D03*
D28*
X8096200Y1621491D02*
D03*
Y1494491D02*
D03*
Y1367491D02*
D03*
Y1240491D02*
D03*
X7553800D02*
D03*
Y1367491D02*
D03*
Y1494491D02*
D03*
Y1621491D02*
D03*
D29*
X9520002Y1680001D02*
D03*
Y1820001D02*
D03*
X9630002D02*
D03*
Y1680001D02*
D03*
D30*
X9730002Y1335001D02*
D03*
D31*
X9875002Y1410001D02*
D03*
Y1360001D02*
D03*
Y1310001D02*
D03*
Y1260001D02*
D03*
X9585002D02*
D03*
Y1310001D02*
D03*
Y1360001D02*
D03*
Y1410001D02*
D03*
D32*
X9280002Y1260001D02*
D03*
Y1325001D02*
D03*
Y1390001D02*
D03*
Y1455001D02*
D03*
Y1520001D02*
D03*
Y1585001D02*
D03*
Y1650001D02*
D03*
X8990002D02*
D03*
Y1585001D02*
D03*
Y1520001D02*
D03*
Y1455001D02*
D03*
Y1390001D02*
D03*
Y1325001D02*
D03*
Y1260001D02*
D03*
D33*
X9135002Y1455001D02*
D03*
D34*
X12770000Y1740000D02*
D03*
X11770000D02*
D03*
X12000000D02*
D03*
X12230000D02*
D03*
X13000000D02*
D03*
X13230000D02*
D03*
D35*
X13485001Y1350000D02*
D03*
X13914998D02*
D03*
X1730000Y4990000D02*
D03*
X2160000D02*
D03*
D36*
X12000000Y2360000D02*
D03*
X13000000D02*
D03*
D37*
X15414999Y2314999D02*
D03*
Y1695001D02*
D03*
D38*
X14855000Y5442500D02*
D03*
X15014999D02*
D03*
X13790002Y5442502D02*
D03*
X13629997D02*
D03*
X15014996Y4772502D02*
D03*
X14854997D02*
D03*
X13790002D02*
D03*
X13630002D02*
D03*
X15015002Y4102502D02*
D03*
X14854997D02*
D03*
X13789996D02*
D03*
X13629997D02*
D03*
X15015002Y3432502D02*
D03*
X14855002D02*
D03*
X13790002D02*
D03*
X13629997D02*
D03*
X15820003Y1845001D02*
D03*
X15980000D02*
D03*
X13790002Y2769998D02*
D03*
X13630002D02*
D03*
X14854997Y2770003D02*
D03*
X15014996D02*
D03*
D39*
X8679997Y5694998D02*
D03*
X8552997D02*
D03*
X8425997D02*
D03*
X8298997D02*
D03*
X8679997Y5094999D02*
D03*
X8552997D02*
D03*
X8425997D02*
D03*
X9239997Y5694998D02*
D03*
X9112997D02*
D03*
X8985997D02*
D03*
X8858997D02*
D03*
X9239997Y5094999D02*
D03*
X9112997D02*
D03*
X8985997D02*
D03*
X8119997Y5694998D02*
D03*
X7992997D02*
D03*
X7865997D02*
D03*
X7738997D02*
D03*
X8119997Y5094999D02*
D03*
X7992997D02*
D03*
X7865997D02*
D03*
X7305998D02*
D03*
X7432998D02*
D03*
X7559998D02*
D03*
X7178998Y5694998D02*
D03*
X7305998D02*
D03*
X7432998D02*
D03*
X7559998D02*
D03*
X10359997D02*
D03*
X10232997D02*
D03*
X10105997D02*
D03*
X9978997D02*
D03*
X10359997Y5094999D02*
D03*
X10232997D02*
D03*
X10105997D02*
D03*
X11479997Y5694998D02*
D03*
X11352997D02*
D03*
X11225997D02*
D03*
X11098997D02*
D03*
X11479997Y5094999D02*
D03*
X11352997D02*
D03*
X11225997D02*
D03*
X9799997Y5694998D02*
D03*
X9672997D02*
D03*
X9545997D02*
D03*
X9418997D02*
D03*
X9799997Y5094999D02*
D03*
X9672997D02*
D03*
X9545997D02*
D03*
X10919997Y5694998D02*
D03*
X10792997D02*
D03*
X10665997D02*
D03*
X10538997D02*
D03*
X10919997Y5094999D02*
D03*
X10792997D02*
D03*
X10665997D02*
D03*
D40*
X8298997D02*
D03*
X8858997D02*
D03*
X7738997D02*
D03*
X7178998D02*
D03*
X9978997D02*
D03*
X11098997D02*
D03*
X9418997D02*
D03*
X10538997D02*
D03*
D41*
X10154998Y1930001D02*
D03*
Y1739999D02*
D03*
X10355003Y1835000D02*
D03*
D42*
X11310001Y1345001D02*
D03*
X11310001Y2044999D02*
D03*
X10610002Y1345001D02*
D03*
Y2044999D02*
D03*
D43*
X16145000Y1845000D02*
D03*
X16295001D02*
D03*
X13495001Y2775001D02*
D03*
X13345004D02*
D03*
X14570000Y5455000D02*
D03*
X14720000D02*
D03*
X13344998Y4115001D02*
D03*
X13494997D02*
D03*
X13344998Y3445001D02*
D03*
X13495001D02*
D03*
X13345004Y4785001D02*
D03*
X13495001D02*
D03*
X13344998Y5455001D02*
D03*
X13495001D02*
D03*
X14570003Y3445001D02*
D03*
X14720001D02*
D03*
X14569998Y4115001D02*
D03*
X14720001D02*
D03*
X14569998Y2775001D02*
D03*
X14719995D02*
D03*
X14569998Y4785001D02*
D03*
X14720001D02*
D03*
D44*
X14200002Y1232499D02*
D03*
Y1467499D02*
D03*
D45*
X14454892Y1349999D02*
D03*
X14945113D02*
D03*
D46*
X12591996Y5825500D02*
D03*
Y5698500D02*
D03*
Y5571500D02*
D03*
Y5444500D02*
D03*
X13137996Y5825500D02*
D03*
Y5698500D02*
D03*
Y5571500D02*
D03*
Y5444500D02*
D03*
X11811997Y3145500D02*
D03*
Y3018500D02*
D03*
Y2891500D02*
D03*
Y2764500D02*
D03*
X12357997Y3145500D02*
D03*
Y3018500D02*
D03*
Y2891500D02*
D03*
Y2764500D02*
D03*
X12591996Y3145500D02*
D03*
Y3018500D02*
D03*
Y2891500D02*
D03*
Y2764500D02*
D03*
X13137996Y3145500D02*
D03*
Y3018500D02*
D03*
Y2891500D02*
D03*
Y2764500D02*
D03*
X11811997Y3815500D02*
D03*
Y3688500D02*
D03*
Y3561500D02*
D03*
Y3434500D02*
D03*
X12357997Y3815500D02*
D03*
Y3688500D02*
D03*
Y3561500D02*
D03*
Y3434500D02*
D03*
X12591996Y3815500D02*
D03*
Y3688500D02*
D03*
Y3561500D02*
D03*
Y3434500D02*
D03*
X13137996Y3815500D02*
D03*
Y3688500D02*
D03*
Y3561500D02*
D03*
Y3434500D02*
D03*
X11811997Y4485500D02*
D03*
Y4358500D02*
D03*
Y4231500D02*
D03*
Y4104500D02*
D03*
X12357997Y4485500D02*
D03*
Y4358500D02*
D03*
Y4231500D02*
D03*
Y4104500D02*
D03*
X12591996Y4485500D02*
D03*
Y4358500D02*
D03*
Y4231500D02*
D03*
Y4104500D02*
D03*
X13137996Y4485500D02*
D03*
Y4358500D02*
D03*
Y4231500D02*
D03*
Y4104500D02*
D03*
X11811997Y5155500D02*
D03*
Y5028500D02*
D03*
Y4901500D02*
D03*
Y4774500D02*
D03*
X12357997Y5155500D02*
D03*
Y5028500D02*
D03*
Y4901500D02*
D03*
Y4774500D02*
D03*
X12591996Y5155500D02*
D03*
Y5028500D02*
D03*
Y4901500D02*
D03*
Y4774500D02*
D03*
X13137996Y5155500D02*
D03*
Y5028500D02*
D03*
Y4901500D02*
D03*
Y4774500D02*
D03*
X11811997Y5825500D02*
D03*
Y5698500D02*
D03*
Y5571500D02*
D03*
Y5444500D02*
D03*
X12357997Y5825500D02*
D03*
Y5698500D02*
D03*
Y5571500D02*
D03*
Y5444500D02*
D03*
D47*
X14045003Y2797740D02*
D03*
X14110001D02*
D03*
X14174998D02*
D03*
X14239998D02*
D03*
Y3100000D02*
D03*
X14174998D02*
D03*
X14110001D02*
D03*
X14045003D02*
D03*
X15270004Y5780000D02*
D03*
X15335004D02*
D03*
X15400002D02*
D03*
X15464999D02*
D03*
Y5477740D02*
D03*
X15400002D02*
D03*
X15335004D02*
D03*
X15270004D02*
D03*
X14045007Y4440000D02*
D03*
X14110007D02*
D03*
X14175005D02*
D03*
X14240002D02*
D03*
Y4137740D02*
D03*
X14175005D02*
D03*
X14110007D02*
D03*
X14045007D02*
D03*
Y3770000D02*
D03*
X14110007D02*
D03*
X14175005D02*
D03*
X14240002D02*
D03*
Y3467740D02*
D03*
X14175005D02*
D03*
X14110007D02*
D03*
X14045007D02*
D03*
X14045003Y5110000D02*
D03*
X14110001D02*
D03*
X14174998D02*
D03*
X14239998D02*
D03*
Y4807740D02*
D03*
X14174998D02*
D03*
X14110001D02*
D03*
X14045003D02*
D03*
X14045007Y5780000D02*
D03*
X14110007D02*
D03*
X14175005D02*
D03*
X14240002D02*
D03*
Y5477740D02*
D03*
X14175005D02*
D03*
X14110007D02*
D03*
X14045007D02*
D03*
X15270003Y3770000D02*
D03*
X15335001D02*
D03*
X15399998D02*
D03*
X15464998D02*
D03*
Y3467740D02*
D03*
X15399998D02*
D03*
X15335001D02*
D03*
X15270003D02*
D03*
X15270007Y4440000D02*
D03*
X15335005D02*
D03*
X15400005D02*
D03*
X15465002D02*
D03*
Y4137740D02*
D03*
X15400005D02*
D03*
X15335005D02*
D03*
X15270007D02*
D03*
X15270003Y3100000D02*
D03*
X15335001D02*
D03*
X15399998D02*
D03*
X15464998D02*
D03*
Y2797740D02*
D03*
X15399998D02*
D03*
X15335001D02*
D03*
X15270003D02*
D03*
X15270007Y5110000D02*
D03*
X15335005D02*
D03*
X15400005D02*
D03*
X15465002D02*
D03*
Y4807740D02*
D03*
X15400005D02*
D03*
X15335005D02*
D03*
X15270007D02*
D03*
D48*
X14142502Y2873229D02*
D03*
X15367502Y5553230D02*
D03*
X14142502Y4213229D02*
D03*
Y3543229D02*
D03*
Y4883228D02*
D03*
Y5553228D02*
D03*
X15367502Y3543229D02*
D03*
Y4213229D02*
D03*
Y2873229D02*
D03*
Y4883228D02*
D03*
D50*
X1417498Y5229998D02*
D03*
Y5034998D02*
D03*
Y5100001D02*
D03*
Y4969999D02*
D03*
X1417499Y5165000D02*
D03*
D53*
X7720276Y3379724D02*
D03*
X7684922Y3344371D02*
D03*
X7649565Y3309013D02*
D03*
X7614212Y3273660D02*
D03*
X7578855Y3238303D02*
D03*
X7543501Y3202949D02*
D03*
X7508144Y3167592D02*
D03*
X7472791Y3132239D02*
D03*
X7437434Y3096882D02*
D03*
X7402080Y3061528D02*
D03*
X7366723Y3026171D02*
D03*
X7331370Y2990818D02*
D03*
X7296013Y2955461D02*
D03*
X7260659Y2920107D02*
D03*
X7225302Y2884750D02*
D03*
X7189949Y2849397D02*
D03*
X7154591Y2814040D02*
D03*
X7119238Y2778686D02*
D03*
X7083881Y2743329D02*
D03*
X7048527Y2707976D02*
D03*
X7013170Y2672619D02*
D03*
X6977817Y2637265D02*
D03*
X6942460Y2601908D02*
D03*
X6907106Y2566555D02*
D03*
X6871749Y2531198D02*
D03*
X6836396Y2495844D02*
D03*
X6801039Y2460487D02*
D03*
X6765685Y2425134D02*
D03*
X6730328Y2389777D02*
D03*
X6694975Y2354423D02*
D03*
X6659618Y2319066D02*
D03*
X6624264Y2283712D02*
D03*
X6588907Y2248355D02*
D03*
X6553554Y2213002D02*
D03*
X6518197Y2177645D02*
D03*
X6482843Y2142291D02*
D03*
X4962568Y3662566D02*
D03*
X4997922Y3697920D02*
D03*
X5033279Y3733277D02*
D03*
X5068632Y3768630D02*
D03*
X5103990Y3803987D02*
D03*
X5139343Y3839341D02*
D03*
X5174700Y3874698D02*
D03*
X5210054Y3910051D02*
D03*
X5245411Y3945408D02*
D03*
X5280764Y3980762D02*
D03*
X5316121Y4016119D02*
D03*
X5351474Y4051472D02*
D03*
X5386831Y4086829D02*
D03*
X5422185Y4122183D02*
D03*
X5457542Y4157540D02*
D03*
X5492895Y4192893D02*
D03*
X5528252Y4228250D02*
D03*
X5563606Y4263604D02*
D03*
X5598963Y4298961D02*
D03*
X5634317Y4334315D02*
D03*
X5669674Y4369672D02*
D03*
X5705027Y4405025D02*
D03*
X5740384Y4440382D02*
D03*
X5775738Y4475736D02*
D03*
X5811095Y4511093D02*
D03*
X5846448Y4546446D02*
D03*
X5881805Y4581803D02*
D03*
X5917159Y4617157D02*
D03*
X5952516Y4652514D02*
D03*
X5987869Y4687867D02*
D03*
X6023226Y4723224D02*
D03*
X6058580Y4758578D02*
D03*
X6093937Y4793935D02*
D03*
X6129291Y4829288D02*
D03*
X6164648Y4864645D02*
D03*
X6200001Y4899999D02*
D03*
D54*
X6255002Y1835001D02*
D03*
X6424999D02*
D03*
Y1964998D02*
D03*
X6255002D02*
D03*
D55*
X10426251Y3650000D02*
D03*
Y3600002D02*
D03*
Y3550000D02*
D03*
Y3500002D02*
D03*
Y3450000D02*
D03*
Y3400003D02*
D03*
Y3350000D02*
D03*
X10173750D02*
D03*
Y3400003D02*
D03*
Y3450000D02*
D03*
Y3500002D02*
D03*
Y3550000D02*
D03*
Y3600002D02*
D03*
Y3650000D02*
D03*
D56*
X10299998Y3298748D02*
D03*
Y3701252D02*
D03*
D57*
X8297500Y4475000D02*
D03*
X7902500D02*
D03*
Y4324998D02*
D03*
X8297500D02*
D03*
D58*
X8224998Y4572501D02*
D03*
X8175001D02*
D03*
X8124998D02*
D03*
X8075001Y4572500D02*
D03*
X8024998Y4572501D02*
D03*
X7975002D02*
D03*
Y4227498D02*
D03*
X8024998D02*
D03*
X8075001Y4227497D02*
D03*
X8124998Y4227498D02*
D03*
X8175001D02*
D03*
X8224998D02*
D03*
D59*
X8100000Y4399999D02*
D03*
D62*
X2458748Y4977752D02*
D03*
Y5574748D02*
D03*
D63*
X2926250Y5924750D02*
D03*
X2556248D02*
D03*
D64*
X3528748Y5907250D02*
D03*
D65*
X3541250Y5661251D02*
D03*
Y5551248D02*
D03*
Y5441251D02*
D03*
X3541250Y5331249D02*
D03*
X3541250Y5221251D02*
D03*
Y5111249D02*
D03*
X3541250Y5001252D02*
D03*
D66*
Y4896248D02*
D03*
D67*
X3506249Y4775248D02*
D03*
D68*
X1150001Y5214997D02*
D03*
X1150001Y4985000D02*
D03*
D69*
X4904999Y2395000D02*
D03*
D70*
X4742363Y2451568D02*
D03*
X4777720Y2486925D02*
D03*
X4813073Y2522279D02*
D03*
X4848430Y2557636D02*
D03*
X5067635Y2338432D02*
D03*
X5032278Y2303075D02*
D03*
X4996924Y2267721D02*
D03*
X4961567Y2232364D02*
D03*
D71*
Y2557636D02*
D03*
X4996924Y2522279D02*
D03*
X5032278Y2486925D02*
D03*
X5067635Y2451568D02*
D03*
X4848430Y2232364D02*
D03*
X4813073Y2267721D02*
D03*
X4777720Y2303075D02*
D03*
X4742363Y2338432D02*
D03*
D73*
X1149985Y4761259D02*
D03*
X1150000Y5438772D02*
D03*
D121*
X2577501Y2589999D02*
D03*
Y2689999D02*
D03*
X3232501Y2589999D02*
D03*
Y2689999D02*
D03*
Y4010001D02*
D03*
Y3910001D02*
D03*
X2577501Y4010001D02*
D03*
Y3910001D02*
D03*
X2957500Y4010001D02*
D03*
Y3910001D02*
D03*
Y2589999D02*
D03*
Y2689999D02*
D03*
D122*
X2662502Y2589999D02*
D03*
Y2689999D02*
D03*
X2767500Y2589999D02*
D03*
Y2689999D02*
D03*
X2852499Y2589999D02*
D03*
Y2689999D02*
D03*
X3147499Y2589999D02*
D03*
Y2689999D02*
D03*
X3337502Y2589999D02*
D03*
Y2689999D02*
D03*
X3422500Y2589999D02*
D03*
Y2689999D02*
D03*
Y4010001D02*
D03*
Y3910001D02*
D03*
X3337502Y4010001D02*
D03*
Y3910001D02*
D03*
X3147499Y4010001D02*
D03*
Y3910001D02*
D03*
X2852499Y4010001D02*
D03*
Y3910001D02*
D03*
X2767500Y4010001D02*
D03*
Y3910001D02*
D03*
X2662502Y4010001D02*
D03*
Y3910001D02*
D03*
X3042501Y4010001D02*
D03*
Y3910001D02*
D03*
Y2589999D02*
D03*
Y2689999D02*
D03*
D123*
X3710000Y2877501D02*
D03*
X3610000D02*
D03*
X3710000Y2962500D02*
D03*
X3610000D02*
D03*
X3710000Y3637500D02*
D03*
X3610000D02*
D03*
X3710000Y3722499D02*
D03*
X3610000D02*
D03*
X3710000Y3067549D02*
D03*
X3610000D02*
D03*
X3710000Y3532451D02*
D03*
X3610000D02*
D03*
X3710000Y3342499D02*
D03*
X3610000D02*
D03*
X3710000Y3257501D02*
D03*
X3610000D02*
D03*
D124*
X2290001Y3722499D02*
D03*
X2390000D02*
D03*
X2290001Y3637500D02*
D03*
X2390000D02*
D03*
X2290001Y2962500D02*
D03*
X2390000D02*
D03*
X2290001Y2877501D02*
D03*
X2390000D02*
D03*
X2290001Y3067499D02*
D03*
X2390000D02*
D03*
X2290001Y3532451D02*
D03*
X2390000D02*
D03*
X2290001Y3342499D02*
D03*
X2390000D02*
D03*
X2290001Y3257501D02*
D03*
X2390000D02*
D03*
D125*
X2290001Y3152550D02*
D03*
X2390000D02*
D03*
X2290001Y3447450D02*
D03*
X2390000D02*
D03*
D126*
X3710000Y3152550D02*
D03*
X3610000D02*
D03*
X3710000Y3447450D02*
D03*
X3610000D02*
D03*
%TF.MD5,510f5ef10c3cc69b32db07563c6874a2*%
M02*
