%TF.GenerationSoftware,Altium Limited,Altium Designer,22.4.2 (48)*%
G04 Layer_Physical_Order=1*
G04 Layer_Color=255*
%FSLAX45Y45*%
%MOMM*%
%TF.SameCoordinates,DD45EC1B-027E-4741-A071-7A00BA1CB46E*%
%TF.FilePolarity,Positive*%
%TF.FileFunction,Copper,L1,Top,Signal*%
%TF.Part,Single*%
G01*
G75*
%TA.AperFunction,Conductor*%
%ADD10C,0.30000*%
%ADD11C,0.25400*%
%ADD12C,0.60000*%
%ADD13C,0.50000*%
%ADD14C,0.40000*%
%ADD15C,0.70000*%
%ADD16C,0.38100*%
%TA.AperFunction,SMDPad,CuDef*%
%ADD17R,1.52500X0.65000*%
%ADD18R,1.78000X2.16000*%
%ADD19R,0.70000X0.90000*%
%ADD20R,2.45000X2.35000*%
%ADD21R,0.80000X0.90000*%
G04:AMPARAMS|DCode=22|XSize=0.85mm|YSize=0.25mm|CornerRadius=0.125mm|HoleSize=0mm|Usage=FLASHONLY|Rotation=0.000|XOffset=0mm|YOffset=0mm|HoleType=Round|Shape=RoundedRectangle|*
%AMROUNDEDRECTD22*
21,1,0.85000,0.00000,0,0,0.0*
21,1,0.60000,0.25000,0,0,0.0*
1,1,0.25000,0.30000,0.00000*
1,1,0.25000,-0.30000,0.00000*
1,1,0.25000,-0.30000,0.00000*
1,1,0.25000,0.30000,0.00000*
%
%ADD22ROUNDEDRECTD22*%
%ADD23R,1.50000X1.60000*%
%ADD24R,1.65000X4.25000*%
%ADD25R,0.85000X0.35000*%
%ADD26R,1.05000X1.10000*%
%ADD27R,1.10000X1.05000*%
G04:AMPARAMS|DCode=28|XSize=2.46916mm|YSize=0.62213mm|CornerRadius=0.31107mm|HoleSize=0mm|Usage=FLASHONLY|Rotation=0.000|XOffset=0mm|YOffset=0mm|HoleType=Round|Shape=RoundedRectangle|*
%AMROUNDEDRECTD28*
21,1,2.46916,0.00000,0,0,0.0*
21,1,1.84702,0.62213,0,0,0.0*
1,1,0.62213,0.92351,0.00000*
1,1,0.62213,-0.92351,0.00000*
1,1,0.62213,-0.92351,0.00000*
1,1,0.62213,0.92351,0.00000*
%
%ADD28ROUNDEDRECTD28*%
%ADD29R,2.46916X0.62213*%
G04:AMPARAMS|DCode=30|XSize=0.3mm|YSize=1.5mm|CornerRadius=0mm|HoleSize=0mm|Usage=FLASHONLY|Rotation=315.000|XOffset=0mm|YOffset=0mm|HoleType=Round|Shape=Rectangle|*
%AMROTATEDRECTD30*
4,1,4,-0.63640,-0.42426,0.42426,0.63640,0.63640,0.42426,-0.42426,-0.63640,-0.63640,-0.42426,0.0*
%
%ADD30ROTATEDRECTD30*%

%ADD31R,1.10000X0.60000*%
%TA.AperFunction,SMDPad,SMDef*%
%ADD32R,0.47500X0.35000*%
%ADD33R,0.25000X0.47500*%
%TA.AperFunction,SMDPad,CuDef*%
%ADD34R,0.51535X0.47247*%
%ADD35R,0.60000X0.40000*%
%ADD36R,0.90000X0.70000*%
%ADD37R,0.47247X0.51535*%
%ADD38R,0.80000X0.80000*%
%ADD39R,0.90000X1.85000*%
%ADD40R,2.50000X2.30000*%
%ADD41R,3.20000X1.85000*%
%ADD42R,0.80000X0.80000*%
%ADD43O,0.50000X2.00000*%
%ADD44R,0.50000X2.00000*%
%ADD45R,0.90000X0.80000*%
%ADD46R,2.50000X2.50000*%
%ADD47R,1.00000X1.15000*%
%ADD48R,1.95580X3.14960*%
%ADD49R,1.14000X0.91000*%
%ADD50R,0.40640X0.68580*%
%ADD51R,2.43840X0.55880*%
%ADD52R,2.43840X1.04140*%
%TA.AperFunction,ConnectorPad*%
%ADD53R,1.35000X0.40000*%
%TA.AperFunction,SMDPad,CuDef*%
%ADD54R,1.50000X1.80000*%
%ADD55R,1.80000X1.50000*%
G04:AMPARAMS|DCode=56|XSize=0.3mm|YSize=1.5mm|CornerRadius=0mm|HoleSize=0mm|Usage=FLASHONLY|Rotation=45.000|XOffset=0mm|YOffset=0mm|HoleType=Round|Shape=Rectangle|*
%AMROTATEDRECTD56*
4,1,4,0.42426,-0.63640,-0.63640,0.42426,-0.42426,0.63640,0.63640,-0.42426,0.42426,-0.63640,0.0*
%
%ADD56ROTATEDRECTD56*%

%ADD57R,1.20000X1.00000*%
%ADD58R,0.67500X0.25000*%
%ADD59R,0.25000X0.67500*%
%ADD60R,0.85000X0.28000*%
%ADD61R,0.28000X0.85000*%
%ADD62R,2.55000X2.05000*%
%ADD63R,0.25000X0.27500*%
%ADD64R,0.27500X0.25000*%
%TA.AperFunction,ConnectorPad*%
%ADD65R,1.35000X1.90000*%
%ADD66R,1.00000X1.20000*%
%ADD67R,1.35000X1.55000*%
%ADD68R,1.10000X0.85000*%
%ADD69R,1.10000X0.75000*%
%ADD70R,1.80000X1.17000*%
%ADD71R,1.90000X1.80000*%
%TA.AperFunction,SMDPad,CuDef*%
%ADD72P,2.82843X4X180.0*%
G04:AMPARAMS|DCode=73|XSize=0.65mm|YSize=0.25mm|CornerRadius=0mm|HoleSize=0mm|Usage=FLASHONLY|Rotation=135.000|XOffset=0mm|YOffset=0mm|HoleType=Round|Shape=Rectangle|*
%AMROTATEDRECTD73*
4,1,4,0.31820,-0.14142,0.14142,-0.31820,-0.31820,0.14142,-0.14142,0.31820,0.31820,-0.14142,0.0*
%
%ADD73ROTATEDRECTD73*%

G04:AMPARAMS|DCode=74|XSize=0.65mm|YSize=0.25mm|CornerRadius=0mm|HoleSize=0mm|Usage=FLASHONLY|Rotation=45.000|XOffset=0mm|YOffset=0mm|HoleType=Round|Shape=Rectangle|*
%AMROTATEDRECTD74*
4,1,4,-0.14142,-0.31820,-0.31820,-0.14142,0.14142,0.31820,0.31820,0.14142,-0.14142,-0.31820,0.0*
%
%ADD74ROTATEDRECTD74*%

%TA.AperFunction,Conductor*%
%ADD75C,0.35000*%
%ADD76R,1.89997X1.57500*%
%TA.AperFunction,ComponentPad*%
%ADD77R,1.50000X1.50000*%
%ADD78C,4.30000*%
%ADD79C,1.10000*%
%ADD80C,1.59000*%
%ADD81R,1.59000X1.59000*%
%ADD82C,1.50000*%
%ADD83O,1.25000X1.05000*%
%ADD84O,1.90000X1.20000*%
%ADD85R,1.50000X1.50000*%
%TA.AperFunction,ViaPad*%
%ADD86C,0.60000*%
%ADD87C,1.00000*%
%ADD88C,0.80000*%
%ADD89C,0.50000*%
%ADD90C,6.00000*%
%ADD91C,1.40000*%
D10*
X15767680Y2192320D02*
G03*
X15724995Y2210000I-42685J-42685D01*
G01*
X16000002Y1924643D02*
G03*
X15975000Y1985000I-85358J0D01*
G01*
X10005000Y1770000D02*
G03*
X9884286Y1820001I-120714J-120714D01*
G01*
X10005000Y1770000D02*
G03*
X10077430Y1739999I72430J72430D01*
G01*
X3120000Y1870000D02*
G03*
X3130000Y1860000I10000J0D01*
G01*
X3190001Y1840207D02*
G03*
X3264396Y1660602I254000J0D01*
G01*
X3305603Y1630605D02*
G03*
X3379998Y1810210I-179605J179605D01*
G01*
X11550000Y3690000D02*
G03*
X11380000Y3860000I-170000J0D01*
G01*
X11512875Y3600374D02*
G03*
X11550000Y3690000I-89626J89626D01*
G01*
X11480000Y3730000D02*
G03*
X11418819Y3791181I-61181J0D01*
G01*
X11475000Y3687501D02*
G03*
X11480000Y3692501I0J5000D01*
G01*
X10884423Y3865576D02*
G03*
X11064029Y3791181I179605J179605D01*
G01*
X11065607Y3934395D02*
G03*
X11245212Y3860000I179605J179605D01*
G01*
X10920000Y3500000D02*
G03*
X11070890Y3437499I150890J150890D01*
G01*
X11070883Y3562498D02*
G03*
X10920000Y3500000I0J-213381D01*
G01*
X15218784Y3121216D02*
G03*
X15270004Y3100000I51221J51221D01*
G01*
X11870082Y5155000D02*
G03*
X11870059Y5155000I-23J-30001D01*
G01*
X2180000Y3500000D02*
G03*
X2155858Y3510000I-24142J-24142D01*
G01*
X2180000Y3500000D02*
G03*
X2204143Y3490000I24143J24143D01*
G01*
X14720000Y5455000D02*
G03*
X14725000Y5450000I5000J0D01*
G01*
X15218784Y5801216D02*
G03*
X15270004Y5780000I51221J51221D01*
G01*
X13495000Y5455000D02*
G03*
X13500000Y5450000I5000J0D01*
G01*
X13993784Y5801216D02*
G03*
X14045004Y5780000I51221J51221D01*
G01*
X14720000Y4785000D02*
G03*
X14725000Y4780000I5000J0D01*
G01*
X15218784Y5131216D02*
G03*
X15270004Y5110000I51221J51221D01*
G01*
X13495000Y4785000D02*
G03*
X13500000Y4780000I5000J0D01*
G01*
X13993784Y5131216D02*
G03*
X14045004Y5110000I51221J51221D01*
G01*
X14720000Y4115000D02*
G03*
X14725000Y4110000I5000J0D01*
G01*
X15218784Y4461216D02*
G03*
X15270004Y4440000I51221J51221D01*
G01*
X13495000Y4115000D02*
G03*
X13500000Y4110000I5000J0D01*
G01*
X13993784Y4461216D02*
G03*
X14045004Y4440000I51221J51221D01*
G01*
X14720000Y3445000D02*
G03*
X14725000Y3440000I5000J0D01*
G01*
X15218784Y3791216D02*
G03*
X15270004Y3770000I51221J51221D01*
G01*
X13495000Y3445000D02*
G03*
X13500000Y3440000I5000J0D01*
G01*
X13993784Y3791216D02*
G03*
X14045004Y3770000I51221J51221D01*
G01*
X13993784Y3121216D02*
G03*
X14045004Y3100000I51221J51221D01*
G01*
X13495000Y2775000D02*
G03*
X13500000Y2770000I5000J0D01*
G01*
X14720000Y2775000D02*
G03*
X14725000Y2770000I5000J0D01*
G01*
X15685001Y1865001D02*
X15685002Y1865000D01*
X15849998D01*
X16000002D02*
Y1924643D01*
X15767680Y2192320D02*
X15975000Y1985000D01*
X14647501Y5690000D02*
Y5709000D01*
Y5020000D02*
Y5039000D01*
Y4350000D02*
Y4369000D01*
Y3680000D02*
Y3699000D01*
Y3010000D02*
Y3029000D01*
X13422501Y5690000D02*
Y5709000D01*
Y5020000D02*
Y5039000D01*
Y4350000D02*
Y4369000D01*
Y3680000D02*
Y3699000D01*
Y3010000D02*
Y3029000D01*
X7380000Y1240491D02*
X7553800D01*
X7380000Y1621491D02*
X7553800D01*
X14770000Y5831500D02*
Y5835000D01*
X13545000Y5831500D02*
Y5835000D01*
X14770000Y5161500D02*
Y5165000D01*
Y4491500D02*
Y4495000D01*
Y3821500D02*
Y3825000D01*
Y3151500D02*
Y3155000D01*
X13545000Y5161500D02*
Y5165000D01*
Y4491500D02*
Y4495000D01*
Y3821500D02*
Y3825000D01*
X10050000Y2050000D02*
X10144390Y1955609D01*
X9632502Y1822502D02*
X9727502D01*
X9110002Y1480002D02*
Y1815001D01*
X9630002Y1680001D02*
X9845002D01*
X9727502Y1822502D02*
X9842502D01*
X10077430Y1739999D02*
X10154998D01*
X7976500Y2323500D02*
X8130000Y2170000D01*
X7983500Y2196500D02*
X8130000Y2050000D01*
X3190001Y1860000D02*
Y2639999D01*
Y1840207D02*
Y1860000D01*
X3130000D02*
X3190001D01*
X3299998Y1625000D02*
X3305603Y1630605D01*
X3264396Y1660602D02*
X3299998Y1625000D01*
X11475000Y3562498D02*
X11512875Y3600373D01*
X11480000Y3692501D02*
Y3730000D01*
X11245212Y3860000D02*
X11380000D01*
X11310001Y3687501D02*
X11475000D01*
X11064029Y3791181D02*
X11418819D01*
X10449998Y4300002D02*
X10884423Y3865576D01*
X10700000Y4300002D02*
X11065607Y3934395D01*
X11310001Y3562498D02*
X11475000D01*
X11070890Y3437499D02*
X11090002D01*
X11070883Y3562498D02*
X11090002D01*
X11200001Y3285351D02*
Y3312501D01*
X3379998Y1850000D02*
Y2639999D01*
Y1810210D02*
Y1850000D01*
X3500000D01*
X3300000D02*
X3379998D01*
X12209999Y5570000D02*
X12356497D01*
X11200001Y3312501D02*
X11310001D01*
X11090002D02*
X11200001D01*
X15170000Y3170000D02*
X15218784Y3121216D01*
X11870082Y5155000D02*
X11960059Y5154931D01*
X11812498Y5155000D02*
X11870059D01*
X12209999D02*
X12357497D01*
X12357997Y5155500D01*
X11812498Y5825000D02*
X11959999D01*
X12209999D02*
X12357497D01*
X12209999Y5700000D02*
X12356498D01*
X12209999Y3145000D02*
X12357497D01*
X12209999Y3020000D02*
X12356498D01*
X1200000Y3510000D02*
X2155858D01*
X13136496Y5570000D02*
X13137996Y5571500D01*
X12989998Y5570000D02*
X13136496D01*
X12989999Y5460000D02*
X13122496D01*
X12592497Y5825000D02*
X12739998D01*
X12591996Y5825500D02*
X12592497Y5825000D01*
X11811997Y5825500D02*
X11812498Y5825000D01*
X12989998Y3145000D02*
X13137495D01*
X13137996Y3145500D01*
X2204143Y3490000D02*
X2340000D01*
X1150001Y5214997D02*
Y5517501D01*
Y4682502D02*
Y5214997D01*
Y5517501D02*
X1150001Y5517501D01*
X8096200Y1621491D02*
X8255000D01*
X8096200Y1494491D02*
X8255000D01*
X8096200Y1240491D02*
X8255000D01*
X8096200Y1367491D02*
X8255000D01*
X3325000Y5111249D02*
X3541250D01*
X3325000Y5331249D02*
X3541250D01*
X2339998Y3300000D02*
X2340000Y3299998D01*
X2097856Y3300000D02*
X2339998D01*
X2340000Y3110000D02*
X2340000Y3110001D01*
X2097856Y3110000D02*
X2340000D01*
X13048283Y2380000D02*
X13500002D01*
X12048290Y2380002D02*
X12500001D01*
X13136496Y5700000D02*
X13137996Y5698500D01*
X12989998Y5700000D02*
X13136496D01*
X15170000Y5850000D02*
X15218784Y5801216D01*
X13122496Y5460000D02*
X13137996Y5444500D01*
X12989998Y5825000D02*
X13137495D01*
X13137996Y5825500D01*
X12356498Y5700000D02*
X12357997Y5698500D01*
X13945000Y5850000D02*
X13993784Y5801216D01*
X12342497Y5460000D02*
X12357997Y5444500D01*
X12210000Y5460000D02*
X12342497D01*
X12357497Y5825000D02*
X12357997Y5825500D01*
X12356497Y5570000D02*
X12357997Y5571500D01*
X13136496Y5030000D02*
X13137996Y5028500D01*
X12989998Y5030000D02*
X13136496D01*
X15170000Y5180000D02*
X15218784Y5131216D01*
X13122496Y4790000D02*
X13137996Y4774500D01*
X12989999Y4790000D02*
X13122496D01*
X12989998Y5155000D02*
X13137495D01*
X13137996Y5155500D01*
X12989998Y4900000D02*
X13136496D01*
X13137996Y4901500D01*
X12209999Y5030000D02*
X12356498D01*
X12357997Y5028500D01*
X13945000Y5180000D02*
X13993784Y5131216D01*
X12210000Y4790000D02*
X12342497D01*
X12357997Y4774500D01*
X12209999Y4900000D02*
X12356497D01*
X12357997Y4901500D01*
X13136496Y4360000D02*
X13137996Y4358500D01*
X12989998Y4360000D02*
X13136496D01*
X15170000Y4510000D02*
X15218784Y4461216D01*
X13122496Y4120000D02*
X13137996Y4104500D01*
X12989999Y4120000D02*
X13122496D01*
X12989998Y4485000D02*
X13137495D01*
X13137996Y4485500D01*
X12989998Y4230000D02*
X13136496D01*
X13137996Y4231500D01*
X12209999Y4360000D02*
X12356498D01*
X12357997Y4358500D01*
X13945000Y4510000D02*
X13993784Y4461216D01*
X12210000Y4120000D02*
X12342497D01*
X12357997Y4104500D01*
X12357497Y4485000D02*
X12357997Y4485500D01*
X12209999Y4485000D02*
X12357497D01*
X12209999Y4230000D02*
X12356497D01*
X12357997Y4231500D01*
X13136496Y3690000D02*
X13137996Y3688500D01*
X12989998Y3690000D02*
X13136496D01*
X15170000Y3840000D02*
X15218784Y3791216D01*
X13122496Y3450000D02*
X13137996Y3434500D01*
X12989999Y3450000D02*
X13122496D01*
X12989998Y3815000D02*
X13137495D01*
X13137996Y3815500D01*
X12989998Y3560000D02*
X13136496D01*
X13137996Y3561500D01*
X12209999Y3690000D02*
X12356498D01*
X12357997Y3688500D01*
X13945000Y3840000D02*
X13993784Y3791216D01*
X12342497Y3450000D02*
X12357997Y3434500D01*
X12210000Y3450000D02*
X12342497D01*
X12209999Y3815000D02*
X12357497D01*
X12357997Y3815500D01*
X12209999Y3560000D02*
X12356497D01*
X12357997Y3561500D01*
X13266216Y1724999D02*
X13499998D01*
X12266215D02*
X12500000D01*
Y1875001D02*
Y2219996D01*
X13499998Y1875001D02*
Y2219997D01*
X12592497Y3145000D02*
X12739998D01*
X12591996Y3145500D02*
X12592497Y3145000D01*
X12357497D02*
X12357997Y3145500D01*
X12356498Y3020000D02*
X12357997Y3018500D01*
X12356497Y2890000D02*
X12357997Y2891500D01*
X12209999Y2890000D02*
X12356497D01*
X12210000Y2780000D02*
X12342497D01*
X12357997Y2764500D01*
X11812498Y3145000D02*
X11959999D01*
X11811997Y3145500D02*
X11812498Y3145000D01*
X12989998Y3020000D02*
X13136496D01*
X13137996Y3018500D01*
X13136496Y2890000D02*
X13137996Y2891500D01*
X12989998Y2890000D02*
X13136496D01*
X12989999Y2780000D02*
X13122496D01*
X13137996Y2764500D01*
X11812498Y3815000D02*
X11959999D01*
X11811997Y3815500D02*
X11812498Y3815000D01*
X12592497D02*
X12739998D01*
X12591996Y3815500D02*
X12592497Y3815000D01*
X11812498Y4485000D02*
X11959999D01*
X11811997Y4485500D02*
X11812498Y4485000D01*
X12592497D02*
X12739998D01*
X12591996Y4485500D02*
X12592497Y4485000D01*
X11811997Y5155500D02*
X11812498Y5155000D01*
X12592497D02*
X12739998D01*
X12591996Y5155500D02*
X12592497Y5155000D01*
X13945000Y3170000D02*
X13993784Y3121216D01*
D11*
X11034678Y3687501D02*
G03*
X10920000Y3640000I0J-162180D01*
G01*
X5751374Y2825033D02*
G03*
X5770000Y2870000I-44967J44967D01*
G01*
X6013838Y2097549D02*
G03*
X5990000Y2040000I57549J-57549D01*
G01*
X5830000Y2810000D02*
G03*
X5790831Y2793776I0J-55393D01*
G01*
X6836214Y2990000D02*
G03*
X6800000Y2975000I0J-51214D01*
G01*
X6998876Y2969755D02*
G03*
X6950000Y2990000I-48876J-48876D01*
G01*
X9911719Y1360001D02*
G03*
X9960000Y1380000I0J68280D01*
G01*
X9971719Y1310001D02*
G03*
X10020000Y1330000I0J68280D01*
G01*
X10616790Y2516794D02*
G03*
X10616813Y2516817I-76790J76837D01*
G01*
X10540000Y2485000D02*
G03*
X10616790Y2516794I0J108630D01*
G01*
X10256004Y2513995D02*
G03*
X10435609Y2439600I179605J179605D01*
G01*
X10684388D02*
G03*
X10863993Y2513995I0J254000D01*
G01*
X10025002Y1210001D02*
G03*
X9904292Y1260001I-120710J-120710D01*
G01*
X8640895Y2249105D02*
G03*
X8461290Y2323500I-179605J-179605D01*
G01*
X8700000Y2160000D02*
G03*
X8678787Y2211213I-72426J0D01*
G01*
X8637895Y2122105D02*
G03*
X8458290Y2196500I-179605J-179605D01*
G01*
X8500496Y2450500D02*
G03*
X8620000Y2500000I0J169004D01*
G01*
X8930357Y1260001D02*
G03*
X8870002Y1235001I0J-85355D01*
G01*
X8580604Y1724396D02*
G03*
X8760209Y1650001I179605J179605D01*
G01*
X9349191Y1320669D02*
G03*
X9335002Y1325001I-14189J-21068D01*
G01*
X9380002Y1205001D02*
G03*
X9325002Y1260001I-55000J0D01*
G01*
X9419977Y1272996D02*
G03*
X9453897Y1262311I35025J52005D01*
G01*
X9470002Y1330001D02*
G03*
X9518287Y1310001I48285J48285D01*
G01*
X9110002Y1480002D02*
G03*
X9135002Y1455001I25000J0D01*
G01*
X9258532Y1811468D02*
G03*
X9250002Y1815001I-8530J-8530D01*
G01*
X9262073Y1820001D02*
G03*
X9250002Y1815001I0J-17071D01*
G01*
X9355000Y1665502D02*
G03*
X9320000Y1750000I-119498J0D01*
G01*
X9325001Y1585001D02*
G03*
X9355000Y1615000I0J29999D01*
G01*
X9353789Y1520002D02*
G03*
X9390002Y1535002I0J51213D01*
G01*
X9462428Y1565001D02*
G03*
X9390002Y1535002I0J-102426D01*
G01*
X9434641Y1715359D02*
G03*
X9520002Y1680001I85361J85361D01*
G01*
X9575002Y1565001D02*
G03*
X9630002Y1620001I0J55000D01*
G01*
X9730002Y1335001D02*
G03*
X9705002Y1360001I-25000J0D01*
G01*
X9805002Y1410001D02*
G03*
X9780002Y1385001I0J-25000D01*
G01*
X10154998Y1930001D02*
G03*
X10144390Y1955609I-36216J0D01*
G01*
X7642402Y2402402D02*
G03*
X7600000Y2300000I102452J-102402D01*
G01*
X7642426Y2402427D02*
G03*
X7642402Y2402402I102427J-102427D01*
G01*
X7747776Y2450500D02*
G03*
X7650000Y2410000I0J-138276D01*
G01*
X7606105Y2143895D02*
G03*
X7785710Y2069500I179605J179605D01*
G01*
X5899276Y2336537D02*
G03*
X5880000Y2290000I46537J-46537D01*
G01*
X5874395Y2382370D02*
G03*
X5800000Y2202764I179605J-179605D01*
G01*
X5880000Y2040000D02*
G03*
X5889528Y2043947I0J13475D01*
G01*
X6265000Y2250000D02*
G03*
X6217206Y2230203I0J-67591D01*
G01*
X6341422Y2182595D02*
G03*
X6274017Y2250000I-67405J0D01*
G01*
X7615687Y1999395D02*
G03*
X7795293Y1925000I179605J179605D01*
G01*
X11200001Y3285351D02*
G03*
X11225000Y3225000I85350J0D01*
G01*
X11370000Y2974789D02*
G03*
X11295605Y3154395I-254000J0D01*
G01*
X11310000Y2410000D02*
G03*
X11370000Y2554853I-144853J144853D01*
G01*
X11141005Y2340000D02*
G03*
X11310000Y2410000I0J238995D01*
G01*
X10201605Y2414395D02*
G03*
X10381210Y2340000I179605J179605D01*
G01*
X9870395Y2745605D02*
G03*
X9690789Y2820000I-179605J-179605D01*
G01*
X8115210D02*
G03*
X7935605Y2745605I0J-254000D01*
G01*
X7644790Y2560000D02*
G03*
X7824395Y2634395I0J254000D01*
G01*
X7051394D02*
G03*
X7231000Y2560000I179605J179605D01*
G01*
X11270000Y2440000D02*
G03*
X11320000Y2560710I-120710J120710D01*
G01*
X11149290Y2390000D02*
G03*
X11270000Y2440000I0J170710D01*
G01*
X7072108Y2684395D02*
G03*
X7251713Y2610000I179605J179605D01*
G01*
X10597071Y3442929D02*
G03*
X10580000Y3450000I-17071J-17071D01*
G01*
X11320000Y2649290D02*
G03*
X11270000Y2770000I-170710J0D01*
G01*
X10235605Y2464395D02*
G03*
X10415210Y2390000I179605J179605D01*
G01*
X9904395Y2795605D02*
G03*
X9724790Y2870000I-179605J-179605D01*
G01*
X8095210D02*
G03*
X7915605Y2795605I0J-254000D01*
G01*
X7624790Y2610000D02*
G03*
X7804395Y2684395I0J254000D01*
G01*
X8065210Y2920000D02*
G03*
X7885605Y2845605I0J-254000D01*
G01*
X7180271Y2671937D02*
G03*
X7190000Y2670000I9729J23464D01*
G01*
X7134048Y2693162D02*
G03*
X7142228Y2687711I17909J18013D01*
G01*
X7604790Y2670000D02*
G03*
X7784395Y2744395I0J254000D01*
G01*
X9364789Y2920000D02*
G03*
X9544395Y2994395I0J254000D01*
G01*
X5520000Y2640000D02*
G03*
X5562426Y2537574I144853J0D01*
G01*
X5470000Y2537071D02*
G03*
X5475000Y2525000I17071J0D01*
G01*
X6050000Y2675000D02*
G03*
X5980000Y2745000I-70000J0D01*
G01*
X9270605Y3280605D02*
G03*
X9345000Y3460211I-179605J179605D01*
G01*
X8884790Y3000000D02*
G03*
X9064395Y3074395I0J254000D01*
G01*
X5950000Y2675000D02*
G03*
X5901716Y2695000I-48284J-48284D01*
G01*
X5890000Y2630000D02*
G03*
X5865858Y2640000I-24142J-24142D01*
G01*
X5898787Y2621213D02*
G03*
X5950000Y2600000I51213J51213D01*
G01*
X5841559Y2632375D02*
G03*
X5841534Y2632351I18441J-18490D01*
G01*
X7179604Y4929395D02*
G03*
X7359209Y4855000I179605J179605D01*
G01*
X4754396Y2279751D02*
G03*
X4680001Y2100145I179605J-179605D01*
G01*
X4904999Y2395000D02*
G03*
X4844646Y2370001I0J-85351D01*
G01*
X4784500Y2239147D02*
G03*
X4760000Y2180000I59147J-59147D01*
G01*
D02*
G03*
X4784748Y2120252I84497J0D01*
G01*
X4557501Y1935000D02*
G03*
X4680001Y2057500I0J122500D01*
G01*
X4420000Y1637070D02*
G03*
X4425000Y1625000I17070J0D01*
G01*
X3659998Y1661216D02*
G03*
X3674999Y1625000I51217J0D01*
G01*
X7135211Y3650000D02*
G03*
X6955605Y3575605I0J-254000D01*
G01*
X6179497Y2799497D02*
G03*
X6130000Y2680000I119497J-119497D01*
G01*
X6050000Y2600000D02*
G03*
X6130000Y2680000I0J80000D01*
G01*
X5860000Y2640000D02*
G03*
X5841559Y2632375I0J-26114D01*
G01*
X10092432Y3600002D02*
G03*
X10020000Y3570000I0J-102434D01*
G01*
X11525605Y3488105D02*
G03*
X11600000Y3667710I-179605J179605D01*
G01*
X11286115Y3963888D02*
G03*
X11380000Y3925000I93885J93885D01*
G01*
X11600000Y3719289D02*
G03*
X11550000Y3840000I-170710J0D01*
G01*
X11525104Y3864896D02*
G03*
X11380000Y3925000I-145104J-145104D01*
G01*
X10260212Y4300002D02*
G03*
X10080607Y4225607I0J-254000D01*
G01*
X10299998Y2855215D02*
G03*
X10374393Y2675609I254000J0D01*
G01*
X9605000Y3750000D02*
G03*
X9575000Y3677575I72426J-72426D01*
G01*
X7622726Y3635724D02*
G03*
X7622711Y3635709I30724J-30724D01*
G01*
D02*
G03*
X7610000Y3605000I30739J-30709D01*
G01*
X10173750Y2811461D02*
G03*
X10248144Y2631856I254000J0D01*
G01*
X10360000Y2520000D02*
G03*
X10444498Y2485000I84497J84497D01*
G01*
X9455000Y3545000D02*
G03*
X9503278Y3525002I48279J48279D01*
G01*
X7552624Y3636336D02*
G03*
X7550000Y3630000I6336J-6336D01*
G01*
X10868646Y4381358D02*
G03*
X10715000Y4445000I-153646J-153646D01*
G01*
X10335210D02*
G03*
X10155605Y4370605I0J-254000D01*
G01*
X10010000Y3650000D02*
G03*
X9940000Y3580000I0J-70000D01*
G01*
Y3470000D02*
G03*
X10010000Y3400000I70000J0D01*
G01*
X10091875D02*
G03*
X10090000Y3398125I0J-1875D01*
G01*
X9575000Y3790000D02*
G03*
X9523748Y3666268I123732J-123732D01*
G01*
X7490000Y3690000D02*
G03*
X7567812Y3722231I0J110043D01*
G01*
X10020000Y3470000D02*
G03*
X10068284Y3450000I48284J48284D01*
G01*
X9762426Y3675000D02*
G03*
X9690000Y3645000I0J-102426D01*
G01*
X9442678Y3392678D02*
G03*
X9425000Y3350000I42678J-42678D01*
G01*
X9517432Y3425003D02*
G03*
X9445000Y3395000I0J-102435D01*
G01*
X9690000Y3645000D02*
G03*
X9676250Y3611805I33196J-33196D01*
G01*
X5870000Y2745000D02*
G03*
X5772289Y2704527I0J-138184D01*
G01*
X5870000Y2695000D02*
G03*
X5807650Y2669174I0J-88176D01*
G01*
X2717825Y2157825D02*
G03*
X2785000Y2320000I-162175J162175D01*
G01*
X2577824Y2157824D02*
G03*
X2645000Y2320000I-162176J162176D01*
G01*
Y2438787D02*
G03*
X2630000Y2475000I-51212J0D01*
G01*
X7166424Y2024395D02*
G03*
X7346029Y1950000I179605J179605D01*
G01*
X7170710Y1949395D02*
G03*
X7350315Y1875000I179605J179605D01*
G01*
X6985355Y4050000D02*
G03*
X6925000Y4025000I0J-85355D01*
G01*
Y4150000D02*
G03*
X7033640Y4105000I108640J108640D01*
G01*
X7060000D02*
G03*
X7131793Y4134737I0J101530D01*
G01*
X5575000Y3075000D02*
G03*
X5457842Y3026471I0J-165686D01*
G01*
X5575000Y3175000D02*
G03*
X5507836Y3147180I0J-94984D01*
G01*
X7025000Y4050000D02*
G03*
X7183355Y4115593I0J223948D01*
G01*
X5455000Y3200000D02*
G03*
X5525000Y3270000I0J70000D01*
G01*
X5455000Y3200000D02*
G03*
X5393946Y3174710I0J-86344D01*
G01*
X6115000Y1900000D02*
G03*
X6180000Y1835000I65000J0D01*
G01*
X6137833Y2080123D02*
G03*
X6115000Y2025000I55123J-55123D01*
G01*
X7450000Y4400000D02*
G03*
X7440000Y4375858I24142J-24142D01*
G01*
X7525000Y4320000D02*
G03*
X7550000Y4380355I-60355J60355D01*
G01*
X7457248Y4035929D02*
G03*
X7490000Y4115000I-79070J79070D01*
G01*
X7525000Y4320000D02*
G03*
X7490000Y4235503I84497J-84497D01*
G01*
X7642929Y4382929D02*
G03*
X7650000Y4400000I-17071J17071D01*
G01*
X7600000Y4340000D02*
G03*
X7540000Y4195147I144853J-144853D01*
G01*
X7394600Y4277681D02*
G03*
X7375000Y4325000I-66919J0D01*
G01*
X7387201Y4107303D02*
G03*
X7394600Y4125224I-18001J17920D01*
G01*
X7425431Y4074826D02*
G03*
X7440000Y4110000I-35174J35174D01*
G01*
X7496141Y4004116D02*
G03*
X7540000Y4110000I-105884J105884D01*
G01*
X7750000Y4350000D02*
G03*
X7590000Y4190000I0J-160000D01*
G01*
X7589952Y4145626D02*
G03*
X7589600Y4135000I160048J-10626D01*
G01*
X7589952Y4145626D02*
G03*
X7590000Y4147072I-25352J1560D01*
G01*
X7516669Y3953930D02*
G03*
X7589600Y4130000I-176071J176071D01*
G01*
X7565388Y3931942D02*
G03*
X7635000Y4100000I-168058J168058D01*
G01*
X7636096Y3931935D02*
G03*
X7685000Y4050000I-118065J118065D01*
G01*
X7750000Y4250000D02*
G03*
X7635000Y4135000I0J-115000D01*
G01*
X7750000Y4150000D02*
G03*
X7685000Y4085000I0J-65000D01*
G01*
X7050000Y5250000D02*
G03*
X6920000Y5120000I0J-130000D01*
G01*
X6845605Y4838498D02*
G03*
X6920000Y5018103I-179605J179605D01*
G01*
X6825891Y5245000D02*
G03*
X6825800Y5242964I25309J-2150D01*
G01*
X6751405Y4886405D02*
G03*
X6825800Y5066010I-179605J179605D01*
G01*
X6941700Y5750000D02*
G03*
X6687700Y5496000I0J-254000D01*
G01*
X6684317Y5117315D02*
G03*
X6687700Y5162366I-298317J45051D01*
G01*
X6684317Y5117315D02*
G03*
X6684145Y5115840I25133J-3676D01*
G01*
X6610605Y4957054D02*
G03*
X6684145Y5115840I-179605J179605D01*
G01*
X7050000Y5350000D02*
G03*
X6871381Y5192259I0J-180000D01*
G01*
X6796805Y4860412D02*
G03*
X6871200Y5040017I-179605J179605D01*
G01*
X7072319Y2825605D02*
G03*
X6892714Y2900000I-179605J-179605D01*
G01*
X5125000Y2875000D02*
G03*
X5193199Y2903249I0J96448D01*
G01*
X5425000Y3275000D02*
G03*
X5422499Y3273971I0J-3552D01*
G01*
D02*
G03*
X5422488Y3273960I2501J-2523D01*
G01*
X5145000Y3390000D02*
G03*
X5092533Y3368268I0J-74200D01*
G01*
X5215503Y3390000D02*
G03*
X5300000Y3425000I0J119497D01*
G01*
X5059119Y3122726D02*
G03*
X5000000Y2980000I142726J-142726D01*
G01*
X5197801Y3261408D02*
G03*
X5220000Y3315000I-53592J53592D01*
G01*
X5109321Y4010784D02*
G03*
X5109296Y4010809I-34321J-34321D01*
G01*
D02*
G03*
X5075000Y4025000I-34296J-34345D01*
G01*
X5113114Y3936284D02*
G03*
X5080000Y3950000I-33114J-33114D01*
G01*
X5190000Y3465000D02*
G03*
X5068029Y3414478I0J-172492D01*
G01*
X6725000Y2783157D02*
G03*
X6799395Y2603552I254000J0D01*
G01*
X7290000Y2780000D02*
G03*
X7375355Y2815356I0J120711D01*
G01*
X7237669Y2801676D02*
G03*
X7290000Y2780000I52331J52331D01*
G01*
X4906399Y2174395D02*
G03*
X5086005Y2100000I179605J179605D01*
G01*
X4331569Y2211569D02*
G03*
X4280000Y2087070I124498J-124498D01*
G01*
X2885000Y2320000D02*
G03*
X2999999Y2434999I0J114999D01*
G01*
X2795000Y2490000D02*
G03*
X2785000Y2465858I24142J-24142D01*
G01*
X2795000Y2490000D02*
G03*
X2810002Y2526218I-36218J36218D01*
G01*
X5764741Y4274605D02*
G03*
X5800000Y4260000I35260J35260D01*
G01*
X5805264Y4254736D02*
G03*
X5805251Y4254749I-59762J-59736D01*
G01*
X5830000Y4195000D02*
G03*
X5805264Y4254736I-84498J0D01*
G01*
X5754037Y4120000D02*
G03*
X5806894Y4141894I0J74750D01*
G01*
X5541598Y4144191D02*
G03*
X5600000Y4120000I58402J58402D01*
G01*
X5808787Y4143787D02*
G03*
X5830000Y4195000I-51213J51213D01*
G01*
X5550000Y4735977D02*
G03*
X5624395Y4556372I254000J0D01*
G01*
X5625000Y4675000D02*
G03*
X5659314Y4592160I117154J0D01*
G01*
X8300608Y3055608D02*
G03*
X8375003Y3235213I-179605J179605D01*
G01*
X8381857Y3031857D02*
G03*
X8456252Y3211462I-179605J179605D01*
G01*
X6354289Y2435000D02*
G03*
X6475000Y2485000I0J170711D01*
G01*
X6467700Y2385000D02*
G03*
X6570000Y2487300I0J102300D01*
G01*
X6244371Y2435000D02*
G03*
X6064766Y2360605I0J-254000D01*
G01*
X6265078Y2385000D02*
G03*
X6085473Y2310605I0J-254000D01*
G01*
X8540000Y3805000D02*
G03*
X8455000Y3890000I-85000J0D01*
G01*
X8439498D02*
G03*
X8355000Y3855000I0J-119498D01*
G01*
X5537229Y2681594D02*
G03*
X5520000Y2640000I41594J-41594D01*
G01*
X5501876Y2716956D02*
G03*
X5470000Y2640000I76956J-76956D01*
G01*
X7732416Y3957549D02*
G03*
X7750000Y4000000I-42451J42451D01*
G01*
X9419395Y4019395D02*
G03*
X9345000Y3839790I179605J-179605D01*
G01*
X7167825Y3432175D02*
G03*
X7330000Y3365000I162175J162175D01*
G01*
X7417832Y3328619D02*
G03*
X7330000Y3365000I-87832J-87832D01*
G01*
X7242598Y3457402D02*
G03*
X7345000Y3415000I102402J102452D01*
G01*
X7242573Y3457426D02*
G03*
X7242598Y3457402I102427J102427D01*
G01*
X7442574Y3374584D02*
G03*
X7345000Y3415000I-97574J-97574D01*
G01*
X7315251Y3484749D02*
G03*
X7375000Y3460000I59749J59749D01*
G01*
X7465257Y3422614D02*
G03*
X7375000Y3460000I-90257J-90257D01*
G01*
X7475000Y3483579D02*
G03*
X7375000Y3525000I-100000J-100000D01*
G01*
X7580000Y3490000D02*
G03*
X7608763Y3420530I98276J0D01*
G01*
D02*
G03*
X7608784Y3420508I69513J69470D01*
G01*
X7679289Y2905000D02*
G03*
X7800000Y2955000I0J170710D01*
G01*
X7694790Y2855000D02*
G03*
X7874395Y2929395I0J254000D01*
G01*
X7392793D02*
G03*
X7572398Y2855000I179605J179605D01*
G01*
X7413500Y2979395D02*
G03*
X7593105Y2905000I179605J179605D01*
G01*
X7547787Y1365000D02*
G03*
X7553800Y1367491I0J8504D01*
G01*
X7367299Y1399256D02*
G03*
X7449850Y1365000I82701J82701D01*
G01*
X7269616Y1567647D02*
G03*
X7445000Y1495000I175384J175384D01*
G01*
X8475000Y1725000D02*
G03*
X8354290Y1775000I-120710J-120710D01*
G01*
X8554395Y1750605D02*
G03*
X8374790Y1825000I-179605J-179605D01*
G01*
X8699395Y1850605D02*
G03*
X8519790Y1925000I-179605J-179605D01*
G01*
X8624395Y1800605D02*
G03*
X8444790Y1875000I-179605J-179605D01*
G01*
X8440605Y1659395D02*
G03*
X8620210Y1585000I179605J179605D01*
G01*
X8425000Y1675000D02*
G03*
X8304289Y1725000I-120711J-120711D01*
G01*
X7150003Y1899395D02*
G03*
X7329608Y1825000I179605J179605D01*
G01*
X7129289Y1849395D02*
G03*
X7308894Y1775000I179605J179605D01*
G01*
X7108582Y1799395D02*
G03*
X7288187Y1725000I179605J179605D01*
G01*
X10090000Y2830210D02*
G03*
X10196214Y2573786I362639J-1D01*
G01*
X6803968Y2740400D02*
G03*
X6803983Y2740385I9630J9600D01*
G01*
X6800000Y2750000D02*
G03*
X6803968Y2740400I13597J0D01*
G01*
X7438786Y4635000D02*
G03*
X7475000Y4650000I0J51214D01*
G01*
X6964432Y4603775D02*
G03*
X7025000Y4750000I-146225J146225D01*
G01*
X7085140Y4653769D02*
G03*
X7125000Y4750000I-96231J96231D01*
G01*
X7663787Y4485000D02*
G03*
X7700000Y4500000I0J51213D01*
G01*
X7516551Y4485000D02*
G03*
X7336946Y4410605I0J-254000D01*
G01*
X7588787Y4535000D02*
G03*
X7625000Y4550000I0J51213D01*
G01*
X7470000Y4535000D02*
G03*
X7334514Y4478880I0J-191606D01*
G01*
X7513787Y4585000D02*
G03*
X7550000Y4600000I0J51213D01*
G01*
X7425000Y4585000D02*
G03*
X7330973Y4546053I0J-132975D01*
G01*
X7400000Y4635000D02*
G03*
X7313302Y4599088I0J-122610D01*
G01*
X7400000Y4700000D02*
G03*
X7303546Y4660048I0J-136406D01*
G01*
X7325000Y4750000D02*
G03*
X7321230Y4748438I0J-5331D01*
G01*
X7205854Y4703776D02*
G03*
X7225000Y4750000I-46224J46224D01*
G01*
X7735492Y3394940D02*
G03*
X7750000Y3430000I-35108J35060D01*
G01*
X7735468Y3394916D02*
G03*
X7735492Y3394940I-35084J35084D01*
G01*
X7750000Y3610000D02*
G03*
X7733848Y3648994I-55145J0D01*
G01*
X7755000Y4825000D02*
G03*
X7682574Y4855000I-72426J-72426D01*
G01*
X7755000Y4825000D02*
G03*
X7792179Y4809600I37179J37179D01*
G01*
X8064214Y4809391D02*
G03*
X8061074Y4809600I-3254J-25191D01*
G01*
X8124998Y4740002D02*
G03*
X8064214Y4809391I-69998J0D01*
G01*
X7739604Y4929395D02*
G03*
X7919209Y4855000I179605J179605D01*
G01*
X8175001Y4769999D02*
G03*
X8090000Y4855000I-85001J0D01*
G01*
X8250000Y4760000D02*
G03*
X8224998Y4699640I60360J-60360D01*
G01*
X8250000Y4760000D02*
G03*
X8298997Y4878290I-118290J118290D01*
G01*
X6975605Y4827077D02*
G03*
X7050000Y5006682I-179605J179605D01*
G01*
X6895605Y4817791D02*
G03*
X6970000Y4997396I-179605J179605D01*
G01*
X6998284Y5098284D02*
G03*
X6970000Y5030000I68284J-68284D01*
G01*
X6706005Y4911033D02*
G03*
X6780400Y5090638I-179605J179605D01*
G01*
X6660605Y4936340D02*
G03*
X6735000Y5115945I-179605J179605D01*
G01*
X7050000Y5450000D02*
G03*
X6825891Y5245000I0J-225000D01*
G01*
X7034000Y5550000D02*
G03*
X6780437Y5310899I0J-254000D01*
G01*
D02*
G03*
X6780400Y5309632I25363J-1381D01*
G01*
X6565605Y4982761D02*
G03*
X6640000Y5162366I-179605J179605D01*
G01*
X6894000Y5850000D02*
G03*
X6640000Y5596000I0J-254000D01*
G01*
X6989000Y5650000D02*
G03*
X6735000Y5396000I0J-254000D01*
G01*
X7065000Y3975000D02*
G03*
X7147754Y4009278I0J117032D01*
G01*
X8504999Y3675000D02*
G03*
X8540000Y3710000I0J35000D01*
G01*
X8450000Y3975000D02*
G03*
X8675000Y4200000I0J225000D01*
G01*
X8450000Y4025000D02*
G03*
X8625000Y4200000I0J175000D01*
G01*
X8450000Y4075000D02*
G03*
X8575000Y4200000I0J125000D01*
G01*
X8355000Y3855000D02*
G03*
X8325000Y3782574I72426J-72426D01*
G01*
X8030000Y3665000D02*
G03*
X8120000Y3575000I90000J0D01*
G01*
X8120001Y3473203D02*
G03*
X8109708Y3471426I0J-30700D01*
G01*
X8101430Y3470000D02*
G03*
X8109708Y3471426I-114J25400D01*
G01*
X7995000Y4040000D02*
G03*
X7965400Y3968539I71461J-71461D01*
G01*
X7965026Y3355250D02*
G03*
X7965000Y3354213I25374J-1151D01*
G01*
X7965026Y3355253D02*
G03*
X7965400Y3370210I-299026J14957D01*
G01*
X7890605Y3165605D02*
G03*
X7965000Y3345210I-179605J179605D01*
G01*
X7995000Y4040000D02*
G03*
X8024998Y4112423I-72423J72423D01*
G01*
X7950000Y4060000D02*
G03*
X7920000Y3987573I72427J-72427D01*
G01*
X7950000Y4060000D02*
G03*
X7975002Y4120359I-60359J60359D01*
G01*
X7590000Y3005000D02*
G03*
X7709498Y3054498I0J168995D01*
G01*
X7845605Y3190605D02*
G03*
X7920000Y3370210I-179605J179605D01*
G01*
X7590000Y2955000D02*
G03*
X7743639Y3018639I0J217279D01*
G01*
X7451056Y3012553D02*
G03*
X7590000Y2955000I138944J138944D01*
G01*
X7813432Y3223431D02*
G03*
X7870000Y3360000I-136568J136568D01*
G01*
X7486405Y3047911D02*
G03*
X7590000Y3005000I103595J103595D01*
G01*
X7791716Y3271716D02*
G03*
X7791737Y3271737I-68284J68284D01*
G01*
D02*
G03*
X7820000Y3340000I-68305J68262D01*
G01*
X7600000Y3105000D02*
G03*
X7642677Y3122677I0J60355D01*
G01*
X7585000Y3055000D02*
G03*
X7687426Y3097426I0J144853D01*
G01*
X7885000Y4155000D02*
G03*
X7870000Y4118787I36213J-36213D01*
G01*
X7525302Y3079728D02*
G03*
X7585000Y3055000I59698J59698D01*
G01*
X7885000Y4155000D02*
G03*
X7902500Y4197248I-42248J42248D01*
G01*
X7586481Y3106305D02*
G03*
X7600000Y3105000I13519J69343D01*
G01*
X7565680Y3113632D02*
G03*
X7583555Y3106696I20248J25677D01*
G01*
X7586481Y3106305D02*
G03*
X7583555Y3106696I-4817J-24939D01*
G01*
X7923463Y4572501D02*
G03*
X7845000Y4540000I0J-110964D01*
G01*
D02*
G03*
X7820000Y4479645I60355J-60355D01*
G01*
X7552386Y3123455D02*
G03*
X7563335Y3115259I47614J52193D01*
G01*
X7565680Y3113632D02*
G03*
X7563335Y3115259I-15626J-20025D01*
G01*
X5565000Y2092426D02*
G03*
X5595000Y2020000I102426J0D01*
G01*
X5601243Y2179925D02*
G03*
X5565000Y2092426I87498J-87498D01*
G01*
X5595000Y2020000D02*
G03*
X5679497Y1985000I84497J84497D01*
G01*
X5930000Y1765000D02*
G03*
X5710000Y1985000I-220000J0D01*
G01*
X5555535Y2204930D02*
G03*
X5510000Y2095000I109930J-109930D01*
G01*
Y2079498D02*
G03*
X5545000Y1995000I119498J0D01*
G01*
X5880000Y1765000D02*
G03*
X5710000Y1935000I-170000J0D01*
G01*
X5545000Y1995000D02*
G03*
X5689853Y1935000I144853J144853D01*
G01*
X5493964Y2214066D02*
G03*
X5455000Y2120000I94066J-94066D01*
G01*
X5500605Y1959395D02*
G03*
X5680211Y1885000I179605J179605D01*
G01*
X5455000Y2068640D02*
G03*
X5500000Y1960000I153640J0D01*
G01*
X5820000Y1775000D02*
G03*
X5710000Y1885000I-110000J0D01*
G01*
X5400000Y2080210D02*
G03*
X5474395Y1900605I254000J0D01*
G01*
X5524796Y1578795D02*
G03*
X5575000Y1700000I-121204J121204D01*
G01*
Y1708076D02*
G03*
X5510000Y1865000I-221924J0D01*
G01*
X5820000Y1470000D02*
G03*
X5975000Y1315000I155000J0D01*
G01*
X5880000Y1505000D02*
G03*
X5990000Y1395000I110000J0D01*
G01*
X5930000Y1575000D02*
G03*
X6030000Y1475000I100000J0D01*
G01*
X5425000Y5080000D02*
G03*
X5410000Y5043787I36213J-36213D01*
G01*
X5485000Y5020000D02*
G03*
X5465000Y4971716I48284J-48284D01*
G01*
X5478787Y4861213D02*
G03*
X5530000Y4840000I51214J51214D01*
G01*
X5569083Y4823811D02*
G03*
X5530000Y4840000I-39083J-39083D01*
G01*
X5495251Y4914749D02*
G03*
X5555000Y4890000I59749J59749D01*
G01*
X5586767Y4876842D02*
G03*
X5555000Y4890000I-31767J-31767D01*
G01*
X5482666Y4927334D02*
G03*
X5482678Y4927322I42689J42666D01*
G01*
X5410000Y4960000D02*
G03*
X5431213Y4908786I72427J0D01*
G01*
X5465000Y4970000D02*
G03*
X5482666Y4927334I60355J0D01*
G01*
X5595045Y4939271D02*
G03*
X5545000Y4960000I-50045J-50045D01*
G01*
X8460000Y4270000D02*
G03*
X8330001Y4399999I-129999J0D01*
G01*
X8297500Y4282500D02*
G03*
X8390000Y4190000I92500J0D01*
G01*
X6112470Y4704688D02*
G03*
X6160000Y4685000I47530J47530D01*
G01*
X6220000Y4680000D02*
G03*
X6207929Y4685000I-12071J-12071D01*
G01*
X4929289Y2809289D02*
G03*
X5000000Y2980000I-170711J170711D01*
G01*
X5071605Y1833395D02*
G03*
X5251210Y1759000I179605J179605D01*
G01*
X5250000Y2825000D02*
G03*
X5381580Y2879502I0J186082D01*
G01*
X5082072Y2323995D02*
G03*
X5140000Y2300000I57928J57928D01*
G01*
X10330000Y3395000D02*
G03*
X10375000Y3350000I45000J0D01*
G01*
X10459294Y3600002D02*
G03*
X10580000Y3650000I0J170703D01*
G01*
X10380002Y3600002D02*
G03*
X10330000Y3550000I0J-50002D01*
G01*
X4245000Y5385000D02*
G03*
X4160000Y5300000I0J-85000D01*
G01*
D02*
G03*
X4240000Y5220000I80000J0D01*
G01*
X4516605Y5310605D02*
G03*
X4337000Y5385000I-179605J-179605D01*
G01*
X4525897Y5230605D02*
G03*
X4346292Y5305000I-179605J-179605D01*
G01*
X3864038Y5260962D02*
G03*
X3975000Y5215000I110962J110962D01*
G01*
X8274998Y3298792D02*
G03*
X8260000Y3335000I-51205J0D01*
G01*
X8230000Y3385000D02*
G03*
X8244142Y3350857I48285J0D01*
G01*
X8290356Y3525050D02*
G03*
X8290334Y3525002I155361J-70767D01*
G01*
X8225000Y3682899D02*
G03*
X8290356Y3525050I223300J0D01*
G01*
X8325000Y3575000D02*
G03*
X8290356Y3525050I120717J-120717D01*
G01*
X8290334Y3525002D02*
G03*
X8230000Y3464599I70J-60403D01*
G01*
X8290403Y3525002D02*
G03*
X8290334Y3525002I0J-60403D01*
G01*
X5244424Y5360605D02*
G03*
X5064819Y5435000I-179605J-179605D01*
G01*
X3897574Y5477426D02*
G03*
X4000000Y5435000I102426J102426D01*
G01*
X3788144Y5586856D02*
G03*
X3608539Y5661251I-179605J-179605D01*
G01*
X3775000Y5480000D02*
G03*
X3602992Y5551248I-172009J-172009D01*
G01*
X3889668Y5365332D02*
G03*
X3975000Y5330000I85332J85379D01*
G01*
X3889645Y5365355D02*
G03*
X3889668Y5365332I85355J85355D01*
G01*
X3758144Y5366856D02*
G03*
X3578539Y5441251I-179605J-179605D01*
G01*
X3775000Y5175000D02*
G03*
X3663339Y5221251I-111661J-111661D01*
G01*
X3775000Y5175000D02*
G03*
X3943995Y5105000I168995J168995D01*
G01*
X5200131Y5475605D02*
G03*
X5020526Y5550000I-179605J-179605D01*
G01*
X5337267Y5550605D02*
G03*
X5157662Y5625000I-179605J-179605D01*
G01*
X5332974Y5625605D02*
G03*
X5153368Y5700000I-179605J-179605D01*
G01*
X5328688Y5700605D02*
G03*
X5149083Y5775000I-179605J-179605D01*
G01*
X5324395Y5775605D02*
G03*
X5144790Y5850000I-179605J-179605D01*
G01*
X5267655Y3189840D02*
G03*
X5305000Y3280000I-90160J90160D01*
G01*
X5350305Y2636092D02*
G03*
X5325000Y2575000I61092J-61092D01*
G01*
X5060958Y2274395D02*
G03*
X5240563Y2200000I179605J179605D01*
G01*
X5220355Y2129644D02*
G03*
X5135000Y2165000I-85355J-85355D01*
G01*
X5074646Y2189999D02*
G03*
X5135000Y2165000I60354J60354D01*
G01*
X5363022Y2719523D02*
G03*
X5363044Y2719545I-23022J23067D01*
G01*
X5340000Y2710000D02*
G03*
X5316214Y2700147I0J-33639D01*
G01*
X5250000Y2750000D02*
G03*
X5374263Y2801472I0J175735D01*
G01*
X5340000Y2710000D02*
G03*
X5363022Y2719523I0J32590D01*
G01*
X5142931Y2597579D02*
G03*
X5175000Y2675000I-77421J77421D01*
G01*
X5100000Y2775000D02*
G03*
X5041607Y2750813I0J-82580D01*
G01*
X6565393Y2766848D02*
G03*
X6425000Y2825000I-140392J-140392D01*
G01*
X4585210Y3325000D02*
G03*
X4405605Y3250605I0J-254000D01*
G01*
X4345000Y3030000D02*
G03*
X4332929Y3035000I-12071J-12071D01*
G01*
X4117946Y3177946D02*
G03*
X4117928Y3177928I17055J-17090D01*
G01*
X4135000Y3185000D02*
G03*
X4117946Y3177946I0J-24144D01*
G01*
X4014644Y3110000D02*
G03*
X4075000Y3135000I0J85356D01*
G01*
X2620000Y2499143D02*
G03*
X2630000Y2475000I34143J0D01*
G01*
X2138787Y3650000D02*
G03*
X2175000Y3665000I0J51213D01*
G01*
X2211218Y3680002D02*
G03*
X2175000Y3665000I0J-51220D01*
G01*
X6600000Y4450000D02*
G03*
X6718193Y4498957I0J167150D01*
G01*
X5473582Y3434395D02*
G03*
X5653187Y3360000I179605J179605D01*
G01*
X5429289Y3549395D02*
G03*
X5608894Y3475000I179605J179605D01*
G01*
X5238055Y3550000D02*
G03*
X5058450Y3475605I0J-254000D01*
G01*
X5089371Y3677184D02*
G03*
X5155000Y3650000I65629J65629D01*
G01*
X6102738Y4643713D02*
G03*
X6160000Y4620000I57263J57282D01*
G01*
X5719764Y4248867D02*
G03*
X5719755Y4248877I-48887J-48867D01*
G01*
X5740000Y4200000D02*
G03*
X5719764Y4248867I-69122J0D01*
G01*
X6340000Y2100000D02*
G03*
X6255002Y2015002I0J-84998D01*
G01*
X8209915Y3725002D02*
G03*
X8225000Y3731250I0J21333D01*
G01*
X4809999Y3200000D02*
G03*
X4770000Y3160001I0J-39999D01*
G01*
D02*
G03*
X4814999Y3115002I44999J0D01*
G01*
X4950000Y3200000D02*
G03*
X5026767Y3231795I0J108573D01*
G01*
X4830001Y2974997D02*
G03*
X4848238Y2982551I0J25791D01*
G01*
X6540000Y1945000D02*
G03*
X6565000Y1920000I25000J0D01*
G01*
X6590000Y1975000D02*
G03*
X6547479Y2077656I-145177J0D01*
G01*
X6540000Y1950000D02*
G03*
X6515000Y1975000I-25000J0D01*
G01*
X6565000Y1920000D02*
G03*
X6590000Y1945000I0J25000D01*
G01*
X6435001Y1975000D02*
G03*
X6424999Y1964998I0J-10002D01*
G01*
X8325000Y3575000D02*
G03*
X8375003Y3695717I-120717J120717D01*
G01*
X8400000Y4475000D02*
G03*
X8475000Y4550000I0J75000D01*
G01*
X8729000Y4850000D02*
G03*
X8475000Y4596000I0J-254000D01*
G01*
X8779000Y4795000D02*
G03*
X8525000Y4541000I0J-254000D01*
G01*
X8800000Y4850000D02*
G03*
X8858997Y4908997I0J58997D01*
G01*
X8879000Y4700000D02*
G03*
X8625000Y4446000I0J-254000D01*
G01*
X8814120Y4749564D02*
G03*
X8575000Y4496000I14880J-253564D01*
G01*
X10844997Y4650000D02*
G03*
X11098997Y4904000I0J254000D01*
G01*
X8929000Y4650000D02*
G03*
X8675000Y4396000I0J-254000D01*
G01*
X10308996Y4700000D02*
G03*
X10538997Y4930001I0J230001D01*
G01*
X9798596Y4749600D02*
G03*
X9978997Y4930001I0J180401D01*
G01*
X8815372Y4749600D02*
G03*
X8814120Y4749564I114J-25400D01*
G01*
X9283996Y4795000D02*
G03*
X9418997Y4930001I0J135001D01*
G01*
X8450000Y4125000D02*
G03*
X8525000Y4200000I0J75000D01*
G01*
X8224998Y4175002D02*
G03*
X8275000Y4125000I50002J0D01*
G01*
X8175001Y4174999D02*
G03*
X8275000Y4075000I99999J0D01*
G01*
X8124998Y4175002D02*
G03*
X8275000Y4025000I150002J0D01*
G01*
X8075001Y4174999D02*
G03*
X8275000Y3975000I199999J0D01*
G01*
X15174998Y1865001D02*
X15525002D01*
X15174998Y1785001D02*
Y1865001D01*
X6013838Y2097549D02*
X6129287Y2212998D01*
X5830000Y2810000D02*
X5925858D01*
X5669670Y2672615D02*
X5790831Y2793776D01*
X6836214Y2990000D02*
X6950000D01*
X6998876Y2969755D02*
X7154591Y2814040D01*
X10020000Y1440000D02*
X10020000D01*
X9960000Y1380000D02*
X10020000Y1440000D01*
X9875002Y1310001D02*
X9971719D01*
X10374393Y2675609D02*
X10450000Y2600001D01*
X10616813Y2516817D02*
X10699997Y2600001D01*
X10616790Y2516794D02*
X10616813Y2516817D01*
X10249403Y2520595D02*
X10256004Y2513995D01*
X10435609Y2439600D02*
X10684388D01*
X10863993Y2513995D02*
X10949999Y2600001D01*
X9875002Y1360001D02*
X9911719D01*
X8637895Y2122105D02*
X8700000Y2060000D01*
X8371360Y2323500D02*
X8461290D01*
X8640895Y2249105D02*
X8678787Y2211213D01*
X8371360Y2196500D02*
X8458290D01*
X8371360Y2450500D02*
X8500496D01*
X9875002Y1260001D02*
X9904292D01*
X8620210Y1585000D02*
X8990001D01*
X8880002Y1390002D02*
X8880002Y1390001D01*
X8800002Y1325001D02*
X8990002D01*
X8800002Y1455001D02*
X8990002D01*
X8880002Y1520002D02*
X8990002D01*
X8554395Y1750605D02*
X8580604Y1724396D01*
X8760209Y1650001D02*
X8990002D01*
X8624395Y1800605D02*
X8700000Y1725000D01*
X8699395Y1850605D02*
X8825000Y1725000D01*
X8880002Y1390001D02*
X8990002D01*
X8930357Y1260001D02*
X8990002D01*
X9135002Y1199050D02*
Y1650002D01*
X9280002Y1260001D02*
X9325002D01*
X9280002Y1325001D02*
X9335002D01*
X9280002Y1390001D02*
X9365639D01*
X9280002Y1455001D02*
X9380002D01*
X9365639Y1390001D02*
X9375639Y1380001D01*
X9385002D01*
X9380002Y1455001D02*
X9385002Y1460001D01*
X9349191Y1320669D02*
X9419977Y1272996D01*
X9485002Y1410001D02*
Y1410001D01*
X9453897Y1262311D02*
X9585002Y1260001D01*
X8990001Y1585000D02*
X8990002Y1585001D01*
X9135002Y1650002D02*
X9280002D01*
X9258532Y1811468D02*
X9320000Y1750000D01*
X9280002Y1585001D02*
X9325001D01*
X9280002Y1520002D02*
X9353789D01*
X9355000Y1615000D02*
Y1665502D01*
X9262073Y1820001D02*
X9520002D01*
X9395000Y1755000D02*
X9434641Y1715359D01*
X9462428Y1565001D02*
X9575002D01*
X9485002Y1410001D02*
X9585002D01*
X9518287Y1310001D02*
X9585002D01*
Y1360001D02*
X9705002D01*
X9805002Y1410001D02*
X9875002D01*
X9520002Y1680001D02*
X9547302Y1712301D01*
X9602702Y1787701D02*
X9630002Y1820001D01*
Y1680001D02*
X9630002D01*
Y1620001D02*
Y1680001D01*
X9630002Y1820001D02*
X9632502Y1822502D01*
X9842502D02*
X9845002Y1820001D01*
X9884286D01*
X7642426Y2402426D02*
X7650000Y2410000D01*
X7642402Y2402402D02*
X7642426Y2402426D01*
X7747776Y2450500D02*
X7888640D01*
X7600000Y2150000D02*
X7606105Y2143895D01*
X7785710Y2069500D02*
X7888640D01*
X5899276Y2336537D02*
X5952512Y2389773D01*
X5880000Y2220000D02*
Y2290000D01*
X5874395Y2382370D02*
X5917155Y2425130D01*
X5800000Y2150000D02*
Y2202764D01*
X6907106Y2566555D02*
X7195000Y2278661D01*
X5889528Y2043947D02*
X6093933Y2248352D01*
X6265000Y2250000D02*
X6274017D01*
X6164644Y2177641D02*
X6217206Y2230203D01*
X5987866Y2354419D02*
X6118446Y2485000D01*
X7888640Y2323500D02*
X7976500D01*
X7888640Y2196500D02*
X7983500D01*
X6977817Y2637265D02*
X7615687Y1999395D01*
X11225000Y3225000D02*
X11295605Y3154395D01*
X11370000Y2554853D02*
Y2974789D01*
X10381210Y2340000D02*
X11141005D01*
X9870395Y2745605D02*
X10201605Y2414395D01*
X8115210Y2820000D02*
X9690789D01*
X7824395Y2634395D02*
X7935605Y2745605D01*
X7231000Y2560000D02*
X7644790D01*
X7013170Y2672619D02*
X7051394Y2634395D01*
X11320000Y2560710D02*
Y2649290D01*
X10415210Y2390000D02*
X11149290D01*
X7048527Y2707976D02*
X7072108Y2684395D01*
X7251713Y2610000D02*
X7624790D01*
X10426251Y3450000D02*
X10580000D01*
X10597072Y3442929D02*
X11270000Y2770000D01*
X9904395Y2795605D02*
X10235605Y2464395D01*
X8095210Y2870000D02*
X9724790D01*
X7804395Y2684395D02*
X7915605Y2795605D01*
X10444497Y2439600D02*
X10444498D01*
X10010000Y3400000D02*
X10091875D01*
X7784395Y2744395D02*
X7885605Y2845605D01*
X8065210Y2920000D02*
X9364789D01*
X7142228Y2687711D02*
X7180271Y2671937D01*
X7190000Y2670000D02*
X7604790D01*
X7134048Y2693161D02*
X7134048Y2693162D01*
X7134024Y2693186D02*
X7134048Y2693162D01*
X7083881Y2743329D02*
X7134024Y2693186D01*
X9544395Y2994395D02*
X9920000Y3370000D01*
X5470000Y2537071D02*
Y2640000D01*
X8650000Y3000000D02*
X8884790D01*
X5562426Y2537574D02*
X5575000Y2525000D01*
X9064395Y3074395D02*
X9270605Y3280605D01*
X5890000Y2630000D02*
X5898787Y2621213D01*
X5860000Y2640000D02*
X5865858D01*
X5950000Y2600000D02*
X6050000D01*
X5870000Y2695000D02*
X5901716D01*
X1200000Y2925000D02*
X2334999D01*
X1200000Y3650000D02*
X2035000D01*
X4160000Y3675000D02*
X4725000D01*
X3737298D02*
X4160000D01*
Y3620000D02*
Y3675000D01*
X7178998Y4930001D02*
X7179604Y4929395D01*
X7178998Y4930001D02*
Y5094999D01*
X5634313Y2707972D02*
X5751374Y2825033D01*
X4754396Y2279751D02*
X4777720Y2303075D01*
X4844646Y2370001D01*
X4784500Y2239148D02*
X4813073Y2267721D01*
X4784748Y2120252D02*
X5071605Y1833395D01*
X4680001Y2057500D02*
Y2100145D01*
X4420000Y1935000D02*
X4557501D01*
X4420000Y1637070D02*
Y1935000D01*
X3659998Y1661216D02*
Y2919998D01*
X4050000Y5775000D02*
X5149083D01*
X3975000Y5700000D02*
X5153368D01*
X4050000Y5625000D02*
X5157662D01*
X8035000Y3470000D02*
X8101430D01*
X7135211Y3650000D02*
X7300000D01*
X6179497Y2799497D02*
X6955605Y3575605D01*
X5841534Y2632351D02*
X5841559Y2632375D01*
X5775734Y2566551D02*
X5841534Y2632351D01*
X10092432Y3600002D02*
X10173750D01*
X11475000Y3437499D02*
X11525605Y3488105D01*
X11600000Y3667710D02*
Y3719289D01*
X11525104Y3864896D02*
X11550000Y3840000D01*
X10260212Y4300002D02*
X10449998D01*
X10299998Y2855215D02*
Y3298748D01*
X9605000Y3750000D02*
X10080607Y4225607D01*
X9575000Y3576249D02*
Y3677575D01*
X7622726Y3635724D02*
X7684922Y3697920D01*
X7622711Y3635709D02*
X7622726Y3635724D01*
X7610000Y3570000D02*
Y3605000D01*
X10248144Y2631856D02*
X10360000Y2520000D01*
X10173750Y2811461D02*
Y3350000D01*
X10444498Y2485000D02*
X10540000D01*
X9503278Y3525002D02*
X9523748D01*
X7552624Y3636336D02*
X7649565Y3733277D01*
X10335210Y4445000D02*
X10715000D01*
X11310001Y3437499D02*
X11475000D01*
X10950002Y4300002D02*
X11286115Y3963888D01*
X10010000Y3650000D02*
X10173750D01*
X9575000Y3790000D02*
X10155605Y4370605D01*
X9940000Y3470000D02*
Y3580000D01*
X10091875Y3400000D02*
X10173750D01*
X10090000Y2830210D02*
Y3398125D01*
X9523748Y3575000D02*
Y3666268D01*
X7567812Y3722231D02*
X7614212Y3768630D01*
X11034678Y3687501D02*
X11090002D01*
X10068284Y3450000D02*
X10173750D01*
Y3400000D02*
Y3400003D01*
X9762426Y3675000D02*
X9780000D01*
X8030000Y3665000D02*
Y3880000D01*
X3473948Y5842450D02*
X3528748Y5907250D01*
X3350000Y5750000D02*
X3473948Y5842450D01*
X9442678Y3392678D02*
X9445000Y3395000D01*
X5870000Y2745000D02*
X5980000D01*
X9676250Y3575000D02*
Y3611805D01*
X5705024Y2637262D02*
X5772289Y2704527D01*
X5740381Y2601904D02*
X5807650Y2669174D01*
X2375000Y1815000D02*
X2717825Y2157825D01*
X2785000Y2320000D02*
X2885000D01*
X2785000D02*
Y2465858D01*
X2645000Y2320000D02*
Y2438787D01*
X2235000Y1815000D02*
X2577824Y2157824D01*
X7346029Y1950000D02*
X7550000D01*
X6765685Y2425134D02*
X7166424Y2024395D01*
X6730328Y2389777D02*
X7170710Y1949395D01*
X7033640Y4105000D02*
X7060000D01*
X5351471Y2990814D02*
X5507836Y3147180D01*
X7131792Y4134737D02*
X7189949Y4192893D01*
X6985355Y4050000D02*
X7025000D01*
X7183355Y4115593D02*
X7225302Y4157540D01*
X5386828Y2955457D02*
X5457842Y3026471D01*
X5280760Y3061525D02*
X5393946Y3174710D01*
X6137833Y2080123D02*
X6199998Y2142288D01*
X6115000Y1900000D02*
Y2025000D01*
X6255002Y1835000D02*
Y1835001D01*
X6180000Y1835000D02*
X6255002D01*
X7440000Y4110000D02*
Y4375858D01*
X7402080Y3980762D02*
X7457248Y4035929D01*
X7490000Y4115000D02*
Y4235503D01*
X7600000Y4340000D02*
X7642929Y4382928D01*
X7540000Y4110000D02*
Y4195147D01*
X7394600Y4125224D02*
Y4277681D01*
X7331370Y4051472D02*
X7387201Y4107303D01*
X7366723Y4016119D02*
X7425431Y4074826D01*
X7550000Y4380355D02*
Y4400000D01*
X7437434Y3945408D02*
X7496141Y4004116D01*
X7590000Y4147072D02*
Y4190000D01*
Y4147072D02*
Y4147072D01*
X7589600Y4130000D02*
Y4135000D01*
X7685000Y4050000D02*
Y4085000D01*
X7543501Y3839341D02*
X7636096Y3931935D01*
X7635000Y4100000D02*
Y4135000D01*
X7508144Y3874698D02*
X7565388Y3931942D01*
X7472791Y3910051D02*
X7516669Y3953930D01*
X7050000Y5250000D02*
X7050000D01*
X6920000Y5018103D02*
Y5120000D01*
X6694975Y4687867D02*
X6845605Y4838498D01*
X6825800Y5066010D02*
Y5242964D01*
X6667974Y4802974D02*
X6751405Y4886405D01*
X6941700Y5750000D02*
X7050000D01*
X6687700Y5162366D02*
Y5496000D01*
X6518197Y4864645D02*
X6610605Y4957054D01*
X6871200Y5190749D02*
X6871381Y5192259D01*
X6659618Y4723224D02*
X6796805Y4860412D01*
X6875000Y2900000D02*
X6892714D01*
X7072319Y2825605D02*
X7119238Y2778686D01*
X5193199Y2903249D02*
X5316117Y3026168D01*
X5422488Y3273960D02*
X5422499Y3273971D01*
X5245407Y3096878D02*
X5422488Y3273960D01*
X5145000Y3390000D02*
X5215503D01*
X5213874Y3308874D02*
X5220000Y3315000D01*
X5059119Y3122725D02*
X5139339Y3202946D01*
X5197801Y3261408D01*
X5000000Y3950000D02*
X5080000D01*
X5109296Y4010809D02*
X5109321Y4010784D01*
X5210054Y3910051D01*
X5113114Y3936284D02*
X5174700Y3874698D01*
X4997918Y3344367D02*
X5068029Y3414478D01*
X5033275Y3309010D02*
X5092533Y3368268D01*
X6725000Y2783157D02*
Y2825000D01*
X5525000Y3270000D02*
Y3275000D01*
X7375356Y2815356D02*
X7390000Y2830000D01*
X7189949Y2849397D02*
X7237669Y2801676D01*
X7090052Y3020000D02*
X7225302Y2884750D01*
X7085000Y3020000D02*
X7090052D01*
X4848430Y2232364D02*
X4906399Y2174395D01*
X4600000Y2480000D02*
X4929289Y2809289D01*
X4331569Y2211569D02*
X4600000Y2480000D01*
X4742363Y2338432D01*
X4280000Y1935000D02*
Y2087070D01*
X2999999Y2434999D02*
Y2639999D01*
X2810002Y2526218D02*
Y2639999D01*
X5805251Y4254749D02*
X5805264Y4254736D01*
X5800000Y4260000D02*
X5805251Y4254749D01*
X5806894Y4141894D02*
X5808787Y4143787D01*
X5600000Y4120000D02*
X5754037D01*
X5492895Y4192893D02*
X5541598Y4144191D01*
X5550000Y4735977D02*
Y4750000D01*
X5624395Y4556372D02*
X5740384Y4440382D01*
X5659314Y4592160D02*
X5775738Y4475736D01*
X8350000Y3000000D02*
X8381857Y3031857D01*
X8245000Y3000000D02*
X8300608Y3055608D01*
X6562300Y2487300D02*
X6570000D01*
X6517776Y2177645D02*
X6518197D01*
X6420421Y2275000D02*
X6517776Y2177645D01*
X6420000Y2275000D02*
X6420421D01*
X6244371Y2435000D02*
X6354289D01*
X6023223Y2319062D02*
X6064766Y2360605D01*
X6265078Y2385000D02*
X6467700D01*
X6058576Y2283709D02*
X6085473Y2310605D01*
X6799395Y2603552D02*
X6871749Y2531198D01*
X8540000Y3710000D02*
Y3805000D01*
X8439498Y3890000D02*
X8455000D01*
X5537229Y2681595D02*
X5598960Y2743325D01*
X5501876Y2716956D02*
X5563603Y2778682D01*
X7750000Y4000000D02*
Y4050000D01*
X9419395Y4019395D02*
X9699999Y4299999D01*
X9345000Y3460211D02*
Y3839790D01*
X7075000Y3525000D02*
X7167825Y3432175D01*
X7417832Y3328619D02*
X7543501Y3202949D01*
X7242574Y3457426D02*
X7242598Y3457402D01*
X7175000Y3525000D02*
X7242574Y3457426D01*
X7442574Y3374584D02*
X7578855Y3238303D01*
X7275000Y3525000D02*
X7315251Y3484749D01*
X7465258Y3422614D02*
X7614212Y3273660D01*
X7475000Y3483579D02*
X7649565Y3309013D01*
X7608784Y3420508D02*
X7684922Y3344371D01*
X7608763Y3420530D02*
X7608784Y3420508D01*
X7874395Y2929395D02*
X7900000Y2955000D01*
X7572398Y2855000D02*
X7694790D01*
X7331370Y2990818D02*
X7392793Y2929395D01*
X7593105Y2905000D02*
X7679289D01*
X7366723Y3026171D02*
X7413500Y2979395D01*
X7900000Y2950000D02*
Y2955000D01*
X7449850Y1365000D02*
X7547787D01*
X7445000Y1495000D02*
X7553291D01*
X7553800Y1494491D01*
X7795293Y1925000D02*
X8519790D01*
X7350315Y1875000D02*
X8444790D01*
X8425000Y1675000D02*
X8440605Y1659395D01*
X7329608Y1825000D02*
X8374790D01*
X6694975Y2354423D02*
X7150003Y1899395D01*
X7308894Y1775000D02*
X8354290D01*
X6659618Y2319066D02*
X7129289Y1849395D01*
X7288187Y1725000D02*
X8304289D01*
X6624264Y2283712D02*
X7108582Y1799395D01*
X5086005Y2100000D02*
X5100000D01*
X10249403Y2520595D02*
Y2520597D01*
X10196214Y2573786D02*
X10249403Y2520597D01*
X7360169Y1406386D02*
X7367299Y1399256D01*
X6588907Y2248355D02*
X7269616Y1567647D01*
X6597606Y2168949D02*
X7360169Y1406386D01*
X6553554Y2213002D02*
X6597606Y2168949D01*
X7750000Y3575000D02*
Y3610000D01*
X6803983Y2740385D02*
X6942460Y2601908D01*
X6803968Y2740400D02*
X6803983Y2740385D01*
X7865997Y4930001D02*
Y5094999D01*
X7992997Y4930001D02*
Y5094999D01*
X7994008Y5093994D01*
X7865002Y5094004D02*
X7865997Y5094999D01*
X8119997Y4930001D02*
Y5094999D01*
X6871749Y4511093D02*
X6964432Y4603775D01*
X6907106Y4475736D02*
X7085140Y4653769D01*
X7516551Y4485000D02*
X7663787D01*
X7154591Y4228250D02*
X7336946Y4410605D01*
X7470000Y4535000D02*
X7588787D01*
X7119238Y4263604D02*
X7334514Y4478880D01*
X7425000Y4585000D02*
X7513787D01*
X7083881Y4298961D02*
X7330973Y4546053D01*
X7400000Y4635000D02*
X7438786D01*
X7048528Y4334314D02*
X7313301Y4599088D01*
X7013170Y4369671D02*
X7303547Y4660048D01*
X6977817Y4405025D02*
X7321230Y4748438D01*
X6942460Y4440382D02*
X7205854Y4703776D01*
X7225000Y4750000D02*
Y4750000D01*
X7735468Y3394916D02*
X7735492Y3394940D01*
X7720276Y3379724D02*
X7735468Y3394916D01*
X7750000Y3430000D02*
Y3475000D01*
X7720276Y3662566D02*
X7733848Y3648993D01*
X7578855Y3803987D02*
X7732416Y3957549D01*
X7359209Y4855000D02*
X7682574D01*
X7792179Y4809600D02*
X8061074D01*
X8124998Y4572501D02*
Y4740002D01*
X7919209Y4855000D02*
X8090000D01*
X7738997Y4930001D02*
X7739604Y4929395D01*
X8175001Y4572501D02*
Y4769999D01*
X8224998Y4572501D02*
Y4699640D01*
X6765685Y4617157D02*
X6975605Y4827077D01*
X7050000Y5006682D02*
Y5050000D01*
X6730328Y4652514D02*
X6895605Y4817791D01*
X6970000Y4997396D02*
Y5030000D01*
X6998284Y5098284D02*
X7050000Y5150000D01*
X6871200Y5040017D02*
Y5190749D01*
X6588907Y4793935D02*
X6706005Y4911033D01*
X6780400Y5090638D02*
Y5309632D01*
X6553554Y4829288D02*
X6660605Y4936340D01*
X6624264Y4758578D02*
X6667974Y4802974D01*
X7034000Y5550000D02*
X7050000D01*
X6588907Y4793935D02*
X6632974Y4837974D01*
X6735000Y5115945D02*
Y5396000D01*
X6640000Y5162366D02*
Y5596000D01*
X6894000Y5850000D02*
X7050000D01*
X6989000Y5650000D02*
X7050000D01*
X8456252Y3675000D02*
X8504999D01*
X8675000Y4200000D02*
Y4396000D01*
X8275000Y3975000D02*
X8450000D01*
X8325000Y3731250D02*
Y3782574D01*
X7559998Y5694998D02*
Y5854998D01*
X7305998Y5694998D02*
Y5854998D01*
X8120000Y3575000D02*
X8143751D01*
X8120001Y3473203D02*
X8132701D01*
X8143751Y3475000D01*
X7965000Y3345210D02*
Y3354213D01*
X7743639Y3018639D02*
X7890605Y3165605D01*
X8024998Y4112423D02*
Y4227498D01*
X7709498Y3054498D02*
X7845605Y3190605D01*
X7965400Y3370210D02*
Y3968539D01*
X7402080Y3061528D02*
X7451056Y3012553D01*
X7870000Y3360000D02*
Y4118787D01*
X7920000Y3370210D02*
Y3987573D01*
X7687426Y3097426D02*
X7813432Y3223432D01*
X7437434Y3096882D02*
X7486405Y3047911D01*
X7975002Y4120359D02*
Y4227498D01*
X7642677Y3122677D02*
X7791716Y3271716D01*
X7791737Y3271737D01*
X7902500Y4197248D02*
Y4324998D01*
X7820000Y3340000D02*
Y4479645D01*
X7472791Y3132239D02*
X7525302Y3079728D01*
X7923463Y4572501D02*
X7975002D01*
X7552249Y3123592D02*
X7552386Y3123455D01*
X7508144Y3167592D02*
X7552249Y3123592D01*
X8985997Y5694998D02*
Y5854998D01*
X6482843Y4899999D02*
X6565605Y4982761D01*
X5601243Y2179925D02*
X5881802Y2460484D01*
X5679497Y1985000D02*
X5710000D01*
X5555535Y2204931D02*
X5846445Y2495841D01*
X5510000Y2079498D02*
Y2095000D01*
X5689853Y1935000D02*
X5710000D01*
X5493964Y2214066D02*
X5811091Y2531194D01*
X5500000Y1960000D02*
X5500605Y1959395D01*
X5930000Y1575000D02*
Y1765000D01*
X5880000Y1505000D02*
Y1765000D01*
X5680211Y1885000D02*
X5710000D01*
X5820000Y1470000D02*
Y1775000D01*
X5455000Y2068640D02*
Y2120000D01*
X5474395Y1900605D02*
X5510000Y1865000D01*
X5451000Y1505000D02*
X5524796Y1578796D01*
X5975000Y1315000D02*
X6235000D01*
X5990000Y1395000D02*
X6235000D01*
X6030000Y1475000D02*
X6235000D01*
X6025000Y5565000D02*
X6210000D01*
X6025000Y5645000D02*
X6210000D01*
X6025000Y5725000D02*
X6210000D01*
X5431213Y4908786D02*
X5478787Y4861213D01*
X5569083Y4823811D02*
X5846448Y4546446D01*
X5586766Y4876842D02*
X5881805Y4581803D01*
X5410000Y4960000D02*
Y5043787D01*
X5482678Y4927322D02*
X5495251Y4914749D01*
X5482666Y4927334D02*
X5482678Y4927322D01*
X5595045Y4939271D02*
X5917159Y4617157D01*
X5465000Y4970000D02*
Y4971716D01*
X8390000Y4190000D02*
X8440000D01*
X7865997Y5694998D02*
Y5854998D01*
X11225997Y5694998D02*
Y5854998D01*
X7992997Y5694998D02*
Y5854998D01*
X11352997Y5694998D02*
Y5854998D01*
Y5094999D02*
X11354008Y5093994D01*
X11352997Y4930001D02*
Y5094999D01*
X9545997Y5694998D02*
Y5854998D01*
X10919997Y5694998D02*
Y5854998D01*
X10105997Y5694998D02*
Y5854998D01*
X10665997Y5694998D02*
Y5854998D01*
X7124491Y3914292D02*
X7296013Y4085813D01*
X7124491Y3913275D02*
Y3914292D01*
X8100000Y4399999D02*
X8330001D01*
X8297500Y4282500D02*
Y4324998D01*
X7147754Y4009278D02*
X7260659Y4122183D01*
X6058580Y4758578D02*
X6112470Y4704688D01*
X6160000Y4685000D02*
X6207929D01*
X8100000Y4399999D02*
Y4475000D01*
X8075001D02*
Y4572500D01*
Y4475000D02*
X8100000D01*
X7902500D02*
X8075001D01*
X1417498Y4969999D02*
X1450000Y4962699D01*
Y4877497D02*
Y4962699D01*
X5575000Y1700000D02*
Y1708076D01*
X5140000Y2300000D02*
X5400000D01*
Y2080210D02*
Y2300000D01*
X5200000Y2825000D02*
X5250000D01*
X5067635Y2338432D02*
X5082072Y2323995D01*
X10868646Y4381358D02*
X10950002Y4300002D01*
X10299998Y3298748D02*
X10299999Y3298747D01*
X10330000Y3395000D02*
Y3500002D01*
X10375000Y3350000D02*
X10426251D01*
X10380002Y3600002D02*
X10426251D01*
X10459294D01*
X10426251Y3550000D02*
X10575000D01*
X10426251Y3350000D02*
X10575000D01*
X10330000Y3500002D02*
Y3550000D01*
Y3500002D02*
X10426251D01*
Y3350000D02*
Y3400003D01*
Y3350000D02*
Y3350000D01*
X9517432Y3425003D02*
X9523748D01*
X9425000Y3575000D02*
X9455000Y3545000D01*
X9676250Y3525002D02*
X9775000Y3525000D01*
X9676250Y3475000D02*
Y3525002D01*
Y3425003D02*
X9775000Y3425000D01*
X9425000Y3475000D02*
X9523748D01*
X4240000Y5220000D02*
X4250000D01*
X4245000Y5385000D02*
X4337000D01*
X4516605Y5310605D02*
X5563606Y4263604D01*
X4250000Y5305000D02*
X4346292D01*
X4525897Y5230605D02*
X5528252Y4228250D01*
X8375003Y3235213D02*
Y3268752D01*
X8456252Y3211462D02*
Y3275000D01*
X8274998Y3268752D02*
Y3298792D01*
X8244142Y3350858D02*
X8260000Y3335000D01*
X8230000Y3385000D02*
Y3464599D01*
X8290403Y3525002D02*
X8456252D01*
X8274998Y3731250D02*
Y3900000D01*
X5244424Y5360605D02*
X5952516Y4652514D01*
X4000000Y5435000D02*
X5064819D01*
X3541250Y5661251D02*
X3608539D01*
X5200131Y5475605D02*
X5987869Y4687867D01*
X3788144Y5586856D02*
X3897574Y5477426D01*
X3541250Y5551248D02*
X3602992D01*
X3889645Y5365355D02*
X3889668Y5365332D01*
X3775000Y5480000D02*
X3889645Y5365355D01*
X3541250Y5441251D02*
X3578539D01*
X3758144Y5366856D02*
X3864038Y5260962D01*
X3541250Y5221251D02*
X3663339D01*
X3943995Y5105000D02*
X3975000D01*
X3541250Y5001252D02*
X3975000D01*
X3541250Y4896248D02*
X3975000D01*
Y5850000D02*
X5144790D01*
X3975000Y5550000D02*
X5020526D01*
X5337267Y5550605D02*
X6093937Y4793935D01*
X5332974Y5625605D02*
X6129291Y4829288D01*
X5328688Y5700605D02*
X6164648Y4864645D01*
X5324395Y5775605D02*
X6200001Y4899999D01*
X5210050Y3132235D02*
X5267655Y3189840D01*
X5240563Y2200000D02*
X5325000D01*
X5350305Y2636092D02*
X5528249Y2814036D01*
X5032278Y2303075D02*
X5060958Y2274395D01*
X5220356Y2129644D02*
X5250000Y2100000D01*
X4996924Y2267721D02*
X5074646Y2189999D01*
X5067635Y2451568D02*
X5316214Y2700147D01*
X5363044Y2719545D02*
X5492892Y2849393D01*
X5363022Y2719523D02*
X5363044Y2719545D01*
X5032278Y2486925D02*
X5142931Y2597579D01*
X5374263Y2801472D02*
X5457538Y2884747D01*
X5381580Y2879502D02*
X5422181Y2920104D01*
X4848430Y2557636D02*
X5041607Y2750813D01*
X5251210Y1759000D02*
X5451000D01*
X6565392Y2766848D02*
X6836396Y2495844D01*
X4585210Y3325000D02*
X4725000D01*
X4345000Y3190000D02*
X4405605Y3250605D01*
X4135000Y3035000D02*
X4332929D01*
X4117928Y3177928D02*
X4117946Y3177946D01*
X4075000Y3135000D02*
X4117928Y3177928D01*
X3977856Y3110000D02*
X4014644D01*
X3737298D02*
X3902144D01*
X3980713Y3490000D02*
X3993780Y3480000D01*
X4725000D01*
X3659998Y3490000D02*
X3905000D01*
X3379998Y4675000D02*
X3428949Y4729448D01*
X3506249Y4775248D01*
X3379998Y3960001D02*
Y4675000D01*
X3190000Y4277856D02*
Y4675000D01*
Y3960001D02*
Y4202143D01*
Y3960001D02*
X3190001D01*
X2620000D02*
Y4675000D01*
X2035000Y3650000D02*
X2138787D01*
X1200000Y3300000D02*
X2022144D01*
X1200000Y3110000D02*
X2022144D01*
X2620000Y2499143D02*
Y2639999D01*
X2211218Y3680002D02*
X2340000D01*
X2334999Y2925000D02*
X2340000Y2919998D01*
X5653187Y3360000D02*
X6345000D01*
X5608894Y3475000D02*
X6100000D01*
X5103990Y3803987D02*
X5473582Y3434395D01*
X5139343Y3839341D02*
X5429289Y3549395D01*
X5238055Y3550000D02*
X5250000D01*
X4962565Y3379720D02*
X5058450Y3475605D01*
X5033279Y3733277D02*
X5089371Y3677184D01*
X5033279Y3733277D02*
Y3733277D01*
X5068632Y3768630D01*
X6023226Y4723224D02*
X6102738Y4643713D01*
X5719755Y4248877D02*
X5719764Y4248867D01*
X5634317Y4334315D02*
X5719755Y4248877D01*
X6669950Y4380000D02*
X6836396Y4546446D01*
X6340000Y2100000D02*
X6341422D01*
Y2182595D01*
X5598963Y4298961D02*
X5634317Y4334315D01*
X5139339Y3202946D02*
X5174696Y3167589D01*
X5669674Y4369672D02*
X5764741Y4274605D01*
X8225000Y3682899D02*
Y3731250D01*
X8143751Y3725002D02*
X8209915D01*
X6255002Y1964998D02*
Y2015002D01*
X7296013Y4085813D02*
Y4086829D01*
X6718193Y4498957D02*
X6801039Y4581803D01*
X4814999Y3115002D02*
X4830001D01*
X5026767Y3231795D02*
X5068629Y3273656D01*
X4809999Y3200000D02*
X4950000D01*
X4848238Y2982551D02*
X5103986Y3238299D01*
X6590000Y1945000D02*
Y1975000D01*
X6435001D02*
X6515000D01*
X6540000Y1950000D02*
Y1950000D01*
Y1945000D02*
Y1950000D01*
X6424999Y1835001D02*
X6565000D01*
X6482843Y2142291D02*
X6547479Y2077656D01*
X8274998Y3268752D02*
X8325000D01*
X8375003Y3695717D02*
Y3731250D01*
X11479997Y4930001D02*
Y5094999D01*
X7738997Y4930001D02*
Y5094999D01*
X8298997Y4878290D02*
Y4930001D01*
X8297500Y4475000D02*
X8400000D01*
X8475000Y4550000D02*
Y4596000D01*
X8729000Y4850000D02*
X8800000D01*
X8525000Y4200000D02*
Y4541000D01*
X8575000Y4200000D02*
Y4496000D01*
X8858997Y4908997D02*
Y4930001D01*
X8929000Y4650000D02*
X10844997D01*
X11098997Y4904000D02*
Y4930001D01*
X8879000Y4700000D02*
X10308996D01*
X8625000Y4200000D02*
Y4446000D01*
X8815373Y4749600D02*
X9798596D01*
X8815372D02*
X8815373D01*
X8779000Y4795000D02*
X9283996D01*
X8275000Y4125000D02*
X8450000D01*
X8275000Y4075000D02*
X8450000D01*
X8275000Y4025000D02*
X8450000D01*
X8075001Y4174999D02*
Y4227497D01*
X8124998Y4175002D02*
Y4227498D01*
X8175001Y4174999D02*
Y4227498D01*
X8224998Y4175002D02*
Y4227498D01*
X8858997Y4930001D02*
Y5094999D01*
X8985002Y5094004D02*
X8985997Y5094999D01*
Y4930001D02*
Y5094999D01*
X8425997Y4930001D02*
Y5094999D01*
X8425002Y5094004D02*
X8425997Y5094999D01*
X8552997D02*
X8554008Y5093994D01*
X8552997Y4930001D02*
Y5094999D01*
X8679997Y4930001D02*
Y5094999D01*
X10538997Y4930001D02*
Y5094999D01*
X11098997Y4930001D02*
Y5094999D01*
X9112997Y5694998D02*
Y5854998D01*
X10232997Y5694998D02*
Y5854998D01*
X10359997Y5694998D02*
Y5854998D01*
X8679997Y5694998D02*
Y5854998D01*
X11225997Y4930001D02*
Y5094999D01*
X11225001Y5094004D02*
X11225997Y5094999D01*
X11479997Y5694998D02*
Y5854998D01*
X10665997Y4930001D02*
Y5094999D01*
X10665001Y5094004D02*
X10665997Y5094999D01*
X10792997D02*
X10794008Y5093994D01*
X10919997Y4930001D02*
Y5094999D01*
X10792997Y5694998D02*
Y5854998D01*
Y4930001D02*
Y5094999D01*
X10105997Y4930001D02*
Y5094999D01*
X10105001Y5094004D02*
X10105997Y5094999D01*
X10232997D02*
X10234008Y5093994D01*
X10359997Y4930001D02*
Y5094999D01*
X9978997Y4930001D02*
Y5094999D01*
X10232997Y4930001D02*
Y5094999D01*
X9545997Y4930001D02*
Y5094999D01*
X9545001Y5094004D02*
X9545997Y5094999D01*
X9672997D02*
X9674008Y5093994D01*
X9799997Y4930001D02*
Y5094999D01*
X9672997Y5694998D02*
Y5854998D01*
X9799997Y5694998D02*
Y5854998D01*
X9418997Y4930001D02*
Y5094999D01*
X9672997Y4930001D02*
Y5094999D01*
X9112997D02*
X9114008Y5093994D01*
X9239997Y4930001D02*
Y5094999D01*
Y5694998D02*
Y5854998D01*
X9112997Y4930001D02*
Y5094999D01*
X8552997Y5694998D02*
Y5854998D01*
X8298997Y4930001D02*
Y5094999D01*
X8425997Y5694998D02*
Y5854998D01*
X8119997Y5694998D02*
Y5854998D01*
X7432998Y5694998D02*
Y5854998D01*
X7305998Y4930001D02*
Y5094999D01*
X7432998Y4930001D02*
Y5094999D01*
X7559998Y4930001D02*
Y5094999D01*
X7432998D02*
X7434009Y5093994D01*
X7305002Y5094004D02*
X7305998Y5094999D01*
D12*
X15289999Y1279999D02*
G03*
X15420000Y1410000I0J130001D01*
G01*
Y1434789D02*
G03*
X15345605Y1614394I-254000J0D01*
G01*
X14690210Y2405000D02*
G03*
X14510605Y2330605I0J-254000D01*
G01*
X15295602Y2284395D02*
G03*
X15475208Y2210000I179605J179605D01*
G01*
X15174998Y1785001D02*
X15345605Y1614394D01*
X15475208Y2210000D02*
X15724995D01*
X15420000Y1410000D02*
Y1434789D01*
X14480000Y2300000D02*
X14510605Y2330605D01*
X15174998Y2405000D02*
X15295602Y2284395D01*
X14690210Y2405000D02*
X15174998D01*
X15200002Y1279999D02*
X15289999D01*
D13*
X15015111Y1419998D02*
G03*
X14945113Y1349999I0J-69999D01*
G01*
X14699998Y1517482D02*
G03*
X14867482Y1349999I167483J0D01*
G01*
X14699998Y1517482D02*
G03*
X14661449Y1610552I-131621J0D01*
G01*
X13796394Y2475605D02*
G03*
X13616789Y2550000I-179605J-179605D01*
G01*
X11690000Y2695026D02*
G03*
X11835026Y2550000I145026J0D01*
G01*
X3846569Y5940000D02*
G03*
X3750000Y5900000I0J-136569D01*
G01*
X11690000Y5730000D02*
G03*
X11480000Y5940000I-210000J0D01*
G01*
X15870210Y2750000D02*
G03*
X15690605Y2675605I0J-254000D01*
G01*
X15525146Y2595000D02*
G03*
X15670000Y2655000I0J204853D01*
G01*
X15452121Y2873169D02*
G03*
X15447365Y2873229I-5560J-253939D01*
G01*
X15493800D02*
G03*
X15655000Y2940000I0J227971D01*
G01*
X15799854Y3000000D02*
G03*
X15655000Y2940000I0J-204853D01*
G01*
X14647501Y5690000D02*
G03*
X14570000Y5612500I0J-77500D01*
G01*
X14647501Y5020000D02*
G03*
X14570000Y4942500I0J-77500D01*
G01*
X14647501Y4350000D02*
G03*
X14570000Y4272500I0J-77500D01*
G01*
X13422501Y5690000D02*
G03*
X13345000Y5612500I0J-77500D01*
G01*
X13422501Y5020000D02*
G03*
X13345000Y4942500I0J-77500D01*
G01*
X13422501Y4350000D02*
G03*
X13345000Y4272500I0J-77500D01*
G01*
X14647501Y3680000D02*
G03*
X14570000Y3602500I0J-77500D01*
G01*
X14647501Y3010000D02*
G03*
X14570000Y2932500I0J-77500D01*
G01*
X13422501Y3680000D02*
G03*
X13345000Y3602500I0J-77500D01*
G01*
X13440439Y3046939D02*
G03*
X13441010Y3047518I-35315J35396D01*
G01*
X13422501Y3010000D02*
G03*
X13345000Y2932500I0J-77500D01*
G01*
X11730002Y1274998D02*
G03*
X11770000Y1235000I39998J0D01*
G01*
X12660000Y1480000D02*
G03*
X12630002Y1407578I72423J-72423D01*
G01*
X13264790Y1235000D02*
G03*
X13444397Y1309395I0J254000D01*
G01*
X13048283Y2380000D02*
G03*
X13000000Y2360000I0J-68283D01*
G01*
X13029999Y1480862D02*
G03*
X13020000Y1505000I-34137J0D01*
G01*
X13000000Y1553285D02*
G03*
X13020000Y1505000I68285J0D01*
G01*
X12048290Y2380002D02*
G03*
X12000000Y2360000I0J-68292D01*
G01*
X12129999Y1401364D02*
G03*
X12085000Y1510000I-153635J0D01*
G01*
X12000000Y1700210D02*
G03*
X12074395Y1520605I254000J0D01*
G01*
X15052499Y5690000D02*
G03*
X15189270Y5553230I136770J0D01*
G01*
X16010606Y5074395D02*
G03*
X16190211Y5000000I179605J179605D01*
G01*
X15452121Y5553169D02*
G03*
X15446561Y5553230I-5560J-253939D01*
G01*
X15560001Y5525000D02*
G03*
X15491849Y5553230I-68152J-68152D01*
G01*
X15052499Y5690000D02*
G03*
X15014999Y5652499I0J-37500D01*
G01*
X13827499Y5690000D02*
G03*
X13964272Y5553230I136770J0D01*
G01*
X15664395Y5195605D02*
G03*
X15484790Y5270000I-179605J-179605D01*
G01*
X14510605Y5344395D02*
G03*
X14690210Y5270000I179605J179605D01*
G01*
X16035605Y4824395D02*
G03*
X16215210Y4750000I179605J179605D01*
G01*
X14227121Y5553169D02*
G03*
X14222365Y5553228I-5560J-253939D01*
G01*
X14335001Y5520000D02*
G03*
X14254779Y5553228I-80221J-80221D01*
G01*
X13827499Y5690000D02*
G03*
X13789999Y5652499I0J-37500D01*
G01*
X15052499Y5020000D02*
G03*
X15189270Y4883230I136770J0D01*
G01*
X15975604Y4574395D02*
G03*
X16155209Y4500000I179605J179605D01*
G01*
X15741167Y4808834D02*
G03*
X15561562Y4883228I-179605J-179605D01*
G01*
X15052499Y5020000D02*
G03*
X15014999Y4982500I0J-37500D01*
G01*
X13827499Y5020000D02*
G03*
X13964272Y4883230I136770J0D01*
G01*
X15674396Y4530605D02*
G03*
X15494791Y4605000I-179605J-179605D01*
G01*
X14505605Y4679395D02*
G03*
X14685210Y4605000I179605J179605D01*
G01*
X15880605Y4324395D02*
G03*
X16060210Y4250000I179605J179605D01*
G01*
X14227121Y4883169D02*
G03*
X14222365Y4883228I-5560J-253939D01*
G01*
X14335001Y4850000D02*
G03*
X14254779Y4883228I-80221J-80221D01*
G01*
X13827499Y5020000D02*
G03*
X13789999Y4982500I0J-37500D01*
G01*
X15052499Y4350000D02*
G03*
X15189270Y4213230I136770J0D01*
G01*
X15765605Y4074395D02*
G03*
X15945210Y4000000I179605J179605D01*
G01*
X15701166Y4138834D02*
G03*
X15521561Y4213229I-179605J-179605D01*
G01*
X15052499Y4350000D02*
G03*
X15014999Y4312500I0J-37500D01*
G01*
X13827499Y4350000D02*
G03*
X13964272Y4213230I136770J0D01*
G01*
X15679395Y3855605D02*
G03*
X15499789Y3930000I-179605J-179605D01*
G01*
X14510605Y4004395D02*
G03*
X14690210Y3930000I179605J179605D01*
G01*
X15710605Y3824395D02*
G03*
X15890211Y3750000I179605J179605D01*
G01*
X14227121Y4213169D02*
G03*
X14222365Y4213229I-5560J-253939D01*
G01*
X14335001Y4180000D02*
G03*
X14254779Y4213229I-80221J-80221D01*
G01*
X13827499Y4350000D02*
G03*
X13789999Y4312500I0J-37500D01*
G01*
X15052499Y3680000D02*
G03*
X15189270Y3543230I136770J0D01*
G01*
X15452121Y3543169D02*
G03*
X15447365Y3543229I-5560J-253939D01*
G01*
X15550000Y3520000D02*
G03*
X15598285Y3500000I48285J48285D01*
G01*
X15550000Y3520000D02*
G03*
X15493921Y3543229I-56079J-56079D01*
G01*
X15052499Y3680000D02*
G03*
X15014999Y3642500I0J-37500D01*
G01*
X13827499Y3680000D02*
G03*
X13964272Y3543230I136770J0D01*
G01*
X14520605Y3324395D02*
G03*
X14700211Y3250000I179605J179605D01*
G01*
X14227121Y3543169D02*
G03*
X14222365Y3543229I-5560J-253939D01*
G01*
X14335001Y3510000D02*
G03*
X14254779Y3543229I-80221J-80221D01*
G01*
X13827499Y3680000D02*
G03*
X13789999Y3642500I0J-37500D01*
G01*
X12695605Y1515605D02*
G03*
X12770000Y1695210I-179605J179605D01*
G01*
X11750000Y1515000D02*
G03*
X11770000Y1563284I-48284J48284D01*
G01*
X11750000Y1515000D02*
G03*
X11730002Y1466719I48281J-48281D01*
G01*
X14137708Y1467499D02*
G03*
X13958102Y1393105I0J-254000D01*
G01*
X14422713Y1349999D02*
G03*
X14243108Y1275604I0J-254000D01*
G01*
X14505605Y2669395D02*
G03*
X14685210Y2595000I179605J179605D01*
G01*
X14335001Y2840000D02*
G03*
X14254779Y2873229I-80221J-80221D01*
G01*
X14227121Y2873169D02*
G03*
X14222365Y2873229I-5560J-253939D01*
G01*
X13827499Y3010000D02*
G03*
X13789999Y2972500I0J-37500D01*
G01*
X13827499Y3010000D02*
G03*
X13964272Y2873230I136770J0D01*
G01*
X15052499Y3010000D02*
G03*
X15014999Y2972500I0J-37500D01*
G01*
X15052499Y3010000D02*
G03*
X15189270Y2873230I136770J0D01*
G01*
X14867482Y1349999D02*
X14945113D01*
X13796394Y2475605D02*
X13972000Y2300000D01*
X14661449Y1610552D01*
X11835026Y2550000D02*
X13616789D01*
X11690000Y2695026D02*
Y5730000D01*
X3846569Y5940000D02*
X11480000D01*
X15015111Y1419998D02*
X15200002D01*
X2165000Y4892500D02*
Y4990000D01*
X15870210Y2750000D02*
X16700000D01*
X15670000Y2655000D02*
X15690605Y2675605D01*
X14685210Y2595000D02*
X15525146D01*
X15189270Y2873230D02*
X15347943D01*
X15452121Y2873169D02*
X15464999Y2860290D01*
X15447365Y2873229D02*
X15493800D01*
X15387064D02*
X15447365D01*
X15367502D02*
X15387064D01*
X15799854Y3000000D02*
X16700000D01*
X14570000Y5455000D02*
Y5612500D01*
Y4785000D02*
Y4942500D01*
X13345000Y5455000D02*
Y5612500D01*
Y4785000D02*
Y4942500D01*
X14570000Y4115000D02*
Y4272500D01*
Y3445000D02*
Y3602500D01*
Y2775000D02*
Y2932500D01*
X13345000Y4115000D02*
Y4272500D01*
Y3445000D02*
Y3602500D01*
X13422501Y3029000D02*
X13440439Y3046939D01*
X13345000Y2775000D02*
Y2932500D01*
X14647501Y3029000D02*
X14770000Y3151500D01*
X13441010Y3047518D02*
X13544904Y3154606D01*
X13422501Y3699000D02*
X13545000Y3821500D01*
X14647501Y3699000D02*
X14770000Y3821500D01*
X13422501Y4369000D02*
X13545000Y4491500D01*
X14647501Y4369000D02*
X14770000Y4491500D01*
X13422501Y5039000D02*
X13545000Y5161500D01*
X14647501Y5039000D02*
X14770000Y5161500D01*
X13422501Y5709000D02*
X13545000Y5831500D01*
X14647501Y5709000D02*
X14770000Y5831500D01*
X11770000Y1235000D02*
X12630000D01*
X11730002Y1274998D02*
Y1350000D01*
X12630000Y1235000D02*
X13264790D01*
X12630002Y1349999D02*
Y1407578D01*
X12630000Y1235000D02*
X12630002Y1235002D01*
Y1349999D01*
X13444397Y1309395D02*
X13485001Y1350000D01*
X11730002Y1350000D02*
Y1466719D01*
X13029999Y1349999D02*
Y1480862D01*
X13000000Y1553285D02*
Y1740000D01*
X12129999Y1349999D02*
Y1401364D01*
X12000000Y1700210D02*
Y1740000D01*
X12074395Y1520605D02*
X12085000Y1510000D01*
X14924805Y5835195D02*
X14925122Y5834878D01*
X14977000Y5783000D02*
X14978500D01*
X15052499Y5709000D01*
X14925122Y5834878D02*
X14977000Y5783000D01*
X14725000Y5450000D02*
X14855000D01*
X15335004Y5477740D02*
Y5540290D01*
X15347943Y5553230D01*
X15387061D02*
X15446561D01*
X15347943D02*
X15367502D01*
X15387061D01*
X15189270D02*
X15347943D01*
X15560001Y5525000D02*
X16010606Y5074395D01*
X16190211Y5000000D02*
X16700000D01*
X15400002Y5477740D02*
Y5540290D01*
X15387061Y5553230D02*
X15400002Y5540290D01*
X15452121Y5553169D02*
X15464999Y5540290D01*
Y5477740D02*
Y5540290D01*
X15446561Y5553230D02*
X15491849D01*
X15345000Y5780000D02*
X15400002D01*
X15464999D01*
X15600000D01*
X15014999Y5450000D02*
Y5652499D01*
X15052499Y5690000D02*
Y5709000D01*
X13700000Y5835000D02*
X13700002D01*
X13752000Y5783000D01*
X13753500D02*
X13827499Y5709000D01*
X13500000Y5450000D02*
X13630000D01*
X14110004Y5477740D02*
Y5540290D01*
X14122943Y5553230D01*
X14162064Y5553228D02*
X14222365D01*
X14122943Y5553230D02*
X14142502D01*
Y5553228D02*
X14162064D01*
X13964272Y5553230D02*
X14122943D01*
X15664395Y5195605D02*
X16035605Y4824395D01*
X14690210Y5270000D02*
X15484790D01*
X16215210Y4750000D02*
X16700000D01*
X14175002Y5477740D02*
Y5540290D01*
X14227121Y5553169D02*
X14239999Y5540290D01*
X14162064Y5553228D02*
X14175002Y5540290D01*
X14335001Y5520000D02*
X14510605Y5344395D01*
X14222365Y5553228D02*
X14254779D01*
X14239999Y5477740D02*
Y5540290D01*
X14120000Y5780000D02*
X14175005D01*
X14240002D01*
X14375000D01*
X13789999Y5450000D02*
Y5652499D01*
X13827499Y5690000D02*
Y5709000D01*
X13752000Y5783000D02*
X13753500D01*
X14925000Y5165000D02*
X14925000D01*
X14978500Y5113000D02*
X15052499Y5039000D01*
X14925000Y5165000D02*
X14977000Y5113000D01*
X14725000Y4780000D02*
X14855000D01*
X15335004Y4807740D02*
Y4870290D01*
X15347943Y4883230D01*
X15367502Y4883228D02*
X15367545Y4883230D01*
X15189270D02*
X15347943D01*
X15367502D01*
X15741167Y4808834D02*
X15975604Y4574395D01*
X16155209Y4500000D02*
X16700000D01*
X15387064Y4883228D02*
X15400002Y4870290D01*
Y4807740D02*
Y4870290D01*
X15367502Y4883230D02*
X15367545D01*
X15367502Y4883228D02*
X15387064D01*
X15464999Y4807740D02*
Y4870290D01*
X15367545Y4883230D02*
X15464423Y4886169D01*
X15387064Y4883228D02*
X15561562D01*
X15345000Y5110000D02*
X15400005D01*
X15465002D01*
X15600000D01*
X15014999Y4780000D02*
Y4982500D01*
X15052499Y5020000D02*
Y5039000D01*
X14977000Y5113000D02*
X14978500D01*
X13700000Y5165000D02*
X13700002D01*
X13752000Y5113000D01*
X13753500D02*
X13827499Y5039000D01*
X13500000Y4780000D02*
X13630000D01*
X14110004Y4807740D02*
Y4870290D01*
X14122943Y4883230D01*
X14162064Y4883228D02*
X14222365D01*
X14122943Y4883230D02*
X14142502D01*
Y4883228D02*
X14162064D01*
X13964272Y4883230D02*
X14122943D01*
X15674396Y4530605D02*
X15880605Y4324395D01*
X14685210Y4605000D02*
X15494791D01*
X16060210Y4250000D02*
X16700000D01*
X14175002Y4807740D02*
Y4870290D01*
X14227121Y4883169D02*
X14239999Y4870290D01*
X14162064Y4883228D02*
X14175002Y4870290D01*
X14335001Y4850000D02*
X14505605Y4679395D01*
X14222365Y4883228D02*
X14254779D01*
X14239999Y4807740D02*
Y4870290D01*
X14120000Y5110000D02*
X14174998D01*
X14239998D01*
X14375000D01*
X13789999Y4780000D02*
Y4982500D01*
X13827499Y5020000D02*
Y5039000D01*
X13752000Y5113000D02*
X13753500D01*
X14925000Y4495000D02*
X14925000D01*
X14978500Y4443000D02*
X15052499Y4369000D01*
X14925000Y4495000D02*
X14977000Y4443000D01*
X14725000Y4110000D02*
X14855000D01*
X15335004Y4137740D02*
Y4200290D01*
X15347943Y4213230D01*
X15189270D02*
X15347943D01*
X15367502D01*
X15701166Y4138834D02*
X15765605Y4074395D01*
X15945210Y4000000D02*
X16700000D01*
X15400002Y4137740D02*
Y4200290D01*
X15367502Y4213229D02*
X15387064D01*
X15400002Y4200290D01*
X15464999Y4137740D02*
Y4200290D01*
X15387064Y4213229D02*
X15521561D01*
X15345000Y4440000D02*
X15400005D01*
X15465002D01*
X15600000D01*
X15014999Y4110000D02*
Y4312500D01*
X15052499Y4350000D02*
Y4369000D01*
X14977000Y4443000D02*
X14978500D01*
X13700000Y4495000D02*
X13700002D01*
X13752000Y4443000D01*
X13753500D02*
X13827499Y4369000D01*
X13500000Y4110000D02*
X13630000D01*
X14110004Y4137740D02*
Y4200290D01*
X14122943Y4213230D01*
X14162064Y4213229D02*
X14222365D01*
X14122943Y4213230D02*
X14142502D01*
Y4213229D02*
X14162064D01*
X13964272Y4213230D02*
X14122943D01*
X15679395Y3855605D02*
X15710605Y3824395D01*
X14690210Y3930000D02*
X15499789D01*
X15890211Y3750000D02*
X16700000D01*
X14175002Y4137740D02*
Y4200290D01*
X14227121Y4213169D02*
X14239999Y4200290D01*
X14162064Y4213229D02*
X14175002Y4200290D01*
X14335001Y4180000D02*
X14510605Y4004395D01*
X14222365Y4213229D02*
X14254779D01*
X14239999Y4137740D02*
Y4200290D01*
X14120000Y4440000D02*
X14175005D01*
X14240002D01*
X14375000D01*
X13789999Y4110000D02*
Y4312500D01*
X13827499Y4350000D02*
Y4369000D01*
X13752000Y4443000D02*
X13753500D01*
X14925000Y3825000D02*
X14925000D01*
X14978500Y3773000D02*
X15052499Y3699000D01*
X14925000Y3825000D02*
X14977000Y3773000D01*
X14725000Y3440000D02*
X14855000D01*
X15335004Y3467740D02*
Y3530290D01*
X15347943Y3543230D01*
X15367502Y3543229D02*
X15387064D01*
X15189270Y3543230D02*
X15347943D01*
X15367502D01*
X15400002Y3467740D02*
Y3530290D01*
X15464999Y3467740D02*
Y3530290D01*
X15387064Y3543229D02*
X15400002Y3530290D01*
X15452121Y3543169D02*
X15464999Y3530290D01*
X15387064Y3543229D02*
X15447365D01*
X15598285Y3500000D02*
X16700000D01*
X15447365Y3543229D02*
X15493921D01*
X15345000Y3770000D02*
X15399998D01*
X15464998D01*
X15600000D01*
X15014999Y3440000D02*
Y3642500D01*
X15052499Y3680000D02*
Y3699000D01*
X14977000Y3773000D02*
X14978500D01*
X13700000Y3825000D02*
X13700002D01*
X13753500Y3773000D02*
X13827499Y3699000D01*
X13700002Y3825000D02*
X13752000Y3773000D01*
X13500000Y3440000D02*
X13630000D01*
X14110004Y3467740D02*
Y3530290D01*
X14122943Y3543230D01*
X14142502Y3543229D02*
X14162064D01*
X13964272Y3543230D02*
X14122943D01*
X14142502D01*
X14335001Y3510000D02*
X14520605Y3324395D01*
X14700211Y3250000D02*
X16700000D01*
X14162064Y3543229D02*
X14175002Y3530290D01*
Y3467740D02*
Y3530290D01*
X14162064Y3543229D02*
X14222365D01*
X14227121Y3543169D02*
X14239999Y3530290D01*
Y3467740D02*
Y3530290D01*
X14222365Y3543229D02*
X14254779D01*
X14120000Y3770000D02*
X14175005D01*
X14240002D01*
X14375000D01*
X13789999Y3440000D02*
Y3642500D01*
X13827499Y3680000D02*
Y3699000D01*
X13752000Y3773000D02*
X13753500D01*
X12770000Y1695210D02*
Y1740000D01*
X12660000Y1480000D02*
X12695605Y1515605D01*
X11770000Y1563284D02*
Y1740000D01*
X16700000Y4500000D02*
X16825000D01*
X16700000Y4250000D02*
X16825000D01*
X16700000Y4000000D02*
X16825000D01*
X16700000Y3750000D02*
X16825000D01*
X16700000Y3500000D02*
X16825000D01*
X16700000Y3000000D02*
X16825000D01*
X16700000Y3250000D02*
X16825000D01*
X16700000Y2750000D02*
X16825000D01*
X16700000Y4750000D02*
X16825000D01*
X16700000Y5000000D02*
X16825000D01*
X12500000Y2219996D02*
X12500001Y2219997D01*
X13499998D02*
X13500002Y2220000D01*
X12129997Y1350000D02*
X12129999Y1349999D01*
X11870001Y1350000D02*
X12129997D01*
X12770001Y1349999D02*
X13029997D01*
X13914998Y1350000D02*
X13958102Y1393105D01*
X14137708Y1467499D02*
X14200002D01*
Y1232499D02*
X14243108Y1275604D01*
X14422713Y1349999D02*
X14454892D01*
X2165000Y4990000D02*
X2170000D01*
X2260000Y5080000D01*
Y5245000D02*
X2265000Y5250000D01*
X2260000Y5080000D02*
Y5245000D01*
X14925000Y3155000D02*
X14977000Y3103000D01*
X14925000Y3155000D02*
X14925000D01*
X14978500Y3103000D02*
X15052499Y3029000D01*
X14977000Y3103000D02*
X14978500D01*
X15464998Y3100000D02*
X15600000D01*
X15399998D02*
X15464998D01*
X15345000D02*
X15399998D01*
X14239998D02*
X14375000D01*
X14174998D02*
X14239998D01*
X14120000D02*
X14174998D01*
X15387064Y2873229D02*
X15400002Y2860290D01*
X14335001Y2840000D02*
X14505605Y2669395D01*
X14227121Y2873169D02*
X14239999Y2860290D01*
X14162064Y2873229D02*
X14175002Y2860290D01*
X13964272Y2873230D02*
X14122943D01*
X14222365Y2873229D02*
X14254779D01*
X14162064D02*
X14222365D01*
X14142502D02*
X14162064D01*
X13752000Y3103000D02*
X13753500D01*
X13827499Y3010000D02*
Y3029000D01*
X13789999Y2770000D02*
Y2972500D01*
X14110004Y2860290D02*
X14122943Y2873230D01*
X14142502D01*
X14239999Y2797740D02*
Y2860290D01*
X14175002Y2797740D02*
Y2860290D01*
X14110004Y2797740D02*
Y2860290D01*
X13500000Y2770000D02*
X13630000D01*
X13700002Y3155000D02*
X13752000Y3103000D01*
X13753500D02*
X13827499Y3029000D01*
X13700000Y3155000D02*
X13700002D01*
X15052499Y3010000D02*
Y3029000D01*
X15014999Y2770000D02*
Y2972500D01*
X15335004Y2860290D02*
X15347943Y2873230D01*
X15367502D01*
X15464999Y2797740D02*
Y2860290D01*
X15400002Y2797740D02*
Y2860290D01*
X15335004Y2797740D02*
Y2860290D01*
X14725000Y2770000D02*
X14855000D01*
D14*
X12839998Y2890000D02*
G03*
X12711498Y3018500I-128500J0D01*
G01*
X12714498Y2764500D02*
G03*
X12839998Y2890000I0J125500D01*
G01*
X7178998Y5639000D02*
G03*
X7432998Y5385000I254000J0D01*
G01*
X8858997Y5639000D02*
G03*
X9112997Y5385000I254000J0D01*
G01*
X11098997Y5639000D02*
G03*
X11352997Y5385000I254000J0D01*
G01*
X10538997Y5639000D02*
G03*
X10792997Y5385000I254000J0D01*
G01*
X9978997Y5639000D02*
G03*
X10232997Y5385000I254000J0D01*
G01*
X9418997Y5639000D02*
G03*
X9672997Y5385000I254000J0D01*
G01*
X8298997Y5639000D02*
G03*
X8552997Y5385000I254000J0D01*
G01*
X7738997Y5639000D02*
G03*
X7992997Y5385000I254000J0D01*
G01*
X1434999Y4752499D02*
G03*
X1533158Y4793158I0J138817D01*
G01*
X1300000Y4887498D02*
G03*
X1434999Y4752499I134999J0D01*
G01*
X1349998Y5229998D02*
G03*
X1300000Y5180000I0J-49998D01*
G01*
X1648000Y5250000D02*
G03*
X1595000Y5197000I0J-53000D01*
G01*
X1650000Y5350000D02*
G03*
X1535000Y5235000I0J-115000D01*
G01*
X1503491Y5106565D02*
G03*
X1589262Y5179937I-18491J108435D01*
G01*
X1485000Y5165000D02*
G03*
X1535000Y5215000I0J50000D01*
G01*
X10557326Y1632676D02*
G03*
X10600000Y1615000I42674J42674D01*
G01*
X12839998Y5570000D02*
G03*
X12711498Y5698500I-128500J0D01*
G01*
X12714498Y5444500D02*
G03*
X12839998Y5570000I0J125500D01*
G01*
Y4900000D02*
G03*
X12711498Y5028500I-128500J0D01*
G01*
X12059999Y5570000D02*
G03*
X11931499Y5698500I-128500J0D01*
G01*
X11934499Y5444500D02*
G03*
X12059999Y5570000I0J125500D01*
G01*
Y4900000D02*
G03*
X11931499Y5028500I-128500J0D01*
G01*
X12714498Y4774500D02*
G03*
X12839998Y4900000I0J125500D01*
G01*
Y4230000D02*
G03*
X12711498Y4358500I-128500J0D01*
G01*
X12714498Y4104500D02*
G03*
X12839998Y4230000I0J125500D01*
G01*
X11934499Y4774500D02*
G03*
X12059999Y4900000I0J125500D01*
G01*
Y4230000D02*
G03*
X11931499Y4358500I-128500J0D01*
G01*
X11934499Y4104500D02*
G03*
X12059999Y4230000I0J125500D01*
G01*
X12839998Y3560000D02*
G03*
X12711498Y3688500I-128500J0D01*
G01*
X12714498Y3434500D02*
G03*
X12839998Y3560000I0J125500D01*
G01*
X11934499Y3434500D02*
G03*
X12059999Y3560000I0J125500D01*
G01*
Y2890000D02*
G03*
X11931499Y3018500I-128500J0D01*
G01*
X12059999Y3560000D02*
G03*
X11931499Y3688500I-128500J0D01*
G01*
X11934499Y2764500D02*
G03*
X12059999Y2890000I0J125500D01*
G01*
X15184898Y5477740D02*
G03*
X15130000Y5455000I0J-77639D01*
G01*
X13959898Y5477740D02*
G03*
X13905000Y5455000I0J-77639D01*
G01*
X15184898Y4807740D02*
G03*
X15130000Y4785000I0J-77639D01*
G01*
X13959898Y4807740D02*
G03*
X13905000Y4785000I0J-77639D01*
G01*
X15184898Y4137740D02*
G03*
X15130000Y4115000I0J-77639D01*
G01*
X13959898Y4137740D02*
G03*
X13905000Y4115000I0J-77639D01*
G01*
X15184898Y3467740D02*
G03*
X15130000Y3445000I0J-77639D01*
G01*
X13959898Y3467740D02*
G03*
X13905000Y3445000I0J-77639D01*
G01*
X15184898Y2797740D02*
G03*
X15130000Y2775000I0J-77639D01*
G01*
X13959898Y2797740D02*
G03*
X13905000Y2775000I0J-77639D01*
G01*
X7432998Y5385000D02*
X7460000D01*
X9112997D02*
X9140000D01*
X11098997Y5639000D02*
Y5694998D01*
X10538997Y5639000D02*
Y5694998D01*
X9978997Y5639000D02*
Y5694998D01*
X11352997Y5385000D02*
X11379999D01*
X10792997D02*
X10819999D01*
X10232997D02*
X10260000D01*
X9418997Y5639000D02*
Y5694998D01*
X8858997Y5639000D02*
Y5694998D01*
X8298997Y5639000D02*
Y5694998D01*
X9672997Y5385000D02*
X9700000D01*
X8552997D02*
X8580000D01*
X7992997D02*
X8020000D01*
X7738997Y5639000D02*
Y5694998D01*
X7178998Y5639000D02*
Y5694998D01*
X1300000Y4887498D02*
Y5180000D01*
X1349998Y5229998D02*
X1417498D01*
X1533158Y4793158D02*
X1730000Y4990000D01*
X1648000Y5250000D02*
X1650000D01*
X1589262Y5179937D02*
X1595000Y5197000D01*
X1464998Y5100001D02*
X1503491Y5106565D01*
X1417498Y5100001D02*
X1464998D01*
X1417499Y5165000D02*
X1485000D01*
X1535000Y5215000D02*
Y5235000D01*
X10610000Y1765000D02*
X10610002Y1765002D01*
Y2044999D01*
X10355003Y1835000D02*
X10557326Y1632676D01*
X11310000Y1760000D02*
X11310001D01*
Y2044999D01*
X12591996Y5698500D02*
X12711498D01*
X12591996Y5444500D02*
X12714498D01*
X11811997Y5698500D02*
X11931499D01*
X11811997Y5444500D02*
X11934499D01*
X12591996Y5028500D02*
X12711498D01*
X12591996Y4774500D02*
X12714498D01*
X12591996Y4358500D02*
X12711498D01*
X12591996Y4104500D02*
X12714498D01*
X11811997Y4358500D02*
X11931499D01*
X11811997Y4774500D02*
X11934499D01*
X11811997Y5028500D02*
X11931499D01*
X11811997Y4104500D02*
X11934499D01*
X12591996Y3434500D02*
X12714498D01*
X12591996Y3688500D02*
X12711498D01*
X12591996Y3018500D02*
X12711498D01*
X11811997Y3688500D02*
X11931499D01*
X11811997Y3434500D02*
X11934499D01*
X11811997Y3018500D02*
X11931499D01*
X12591996Y2764500D02*
X12714498D01*
X11811997D02*
X11934499D01*
X15184898Y5477740D02*
X15270004D01*
X13959898D02*
X14045004D01*
X15184898Y4807740D02*
X15270004D01*
X13959898D02*
X14045004D01*
X15184898Y4137740D02*
X15270004D01*
X13959898D02*
X14045004D01*
X15184898Y3467740D02*
X15270004D01*
X13959898D02*
X14045004D01*
X11959249Y2890750D02*
X11959999Y2890000D01*
X11812748Y2890750D02*
X11959249D01*
X11811997Y2891500D02*
X11812748Y2890750D01*
X12739248D02*
X12739998Y2890000D01*
X12592746Y2890750D02*
X12739248D01*
X12591996Y2891500D02*
X12592746Y2890750D01*
X11959249Y3560750D02*
X11959999Y3560000D01*
X11812748Y3560750D02*
X11959249D01*
X11811997Y3561500D02*
X11812748Y3560750D01*
X12739248D02*
X12739998Y3560000D01*
X12592746Y3560750D02*
X12739248D01*
X12591996Y3561500D02*
X12592746Y3560750D01*
X11959249Y4230750D02*
X11959999Y4230000D01*
X11812748Y4230750D02*
X11959249D01*
X11811997Y4231500D02*
X11812748Y4230750D01*
X12739248D02*
X12739998Y4230000D01*
X12592746Y4230750D02*
X12739248D01*
X12591996Y4231500D02*
X12592746Y4230750D01*
X11959249Y4900750D02*
X11959999Y4900000D01*
X11812748Y4900750D02*
X11959249D01*
X11811997Y4901500D02*
X11812748Y4900750D01*
X12739248D02*
X12739998Y4900000D01*
X12592746Y4900750D02*
X12739248D01*
X12591996Y4901500D02*
X12592746Y4900750D01*
X11959249Y5570750D02*
X11959999Y5570000D01*
X11812748Y5570750D02*
X11959249D01*
X11811997Y5571500D02*
X11812748Y5570750D01*
X12591996Y5571500D02*
X12592746Y5570750D01*
X12739248D01*
X12739998Y5570000D01*
X13959898Y2797740D02*
X14045004D01*
X15184898D02*
X15270004D01*
D15*
X12269998Y1473791D02*
G03*
X12255000Y1510000I-51208J0D01*
G01*
X12230000Y1570355D02*
G03*
X12255000Y1510000I85355J0D01*
G01*
X13189999D02*
G03*
X13230000Y1606568I-96568J96568D01*
G01*
X13189999Y1510000D02*
G03*
X13169998Y1461712I48288J-48288D01*
G01*
X12269998Y1349999D02*
Y1473791D01*
X12230000Y1570355D02*
Y1740000D01*
X13230000Y1606568D02*
Y1740000D01*
X13169998Y1349999D02*
Y1461712D01*
X13000000Y1740000D02*
Y2360000D01*
X12000000Y1740000D02*
Y2360000D01*
X13230000Y1740000D02*
Y2050000D01*
X12230000Y1740000D02*
Y2050000D01*
D16*
X16814394Y1974393D02*
G03*
X16825000Y2000000I-25607J25607D01*
G01*
X16429790Y1695000D02*
G03*
X16609395Y1769395I0J254000D01*
G01*
X15903500Y1695000D02*
G03*
X15795099Y1650099I0J-153302D01*
G01*
X8553144Y1069642D02*
G03*
X8597701Y1066500I44557J314358D01*
G01*
X8553144Y1069642D02*
G03*
X8548072Y1070000I-5211J-37742D01*
G01*
X8351237Y1144253D02*
G03*
X8530701Y1070000I179464J179746D01*
G01*
X15214790Y1066500D02*
G03*
X15439296Y1159494I0J317500D01*
G01*
X16353290Y1758500D02*
G03*
X16532895Y1832895I0J254000D01*
G01*
X15903500Y1758500D02*
G03*
X15750198Y1695000I0J-216802D01*
G01*
X8418096Y1204395D02*
G03*
X8597701Y1130000I179605J179605D01*
G01*
X15214790D02*
G03*
X15394395Y1204395I0J254000D01*
G01*
X15677426Y1532426D02*
G03*
X15635001Y1430000I102426J-102426D01*
G01*
X15632526Y1577328D02*
G03*
X15571500Y1430000I147327J-147327D01*
G01*
X15537206Y1347205D02*
G03*
X15571500Y1430000I-82796J82796D01*
G01*
X15582106Y1302303D02*
G03*
X15635001Y1430000I-127697J127697D01*
G01*
X6470000Y1475000D02*
G03*
X6590000Y1595000I0J120000D01*
G01*
Y1190000D02*
G03*
X6465000Y1315000I-125000J0D01*
G01*
X6445001Y5725000D02*
G03*
X6565000Y5844999I0J120000D01*
G01*
Y5440000D02*
G03*
X6440000Y5565000I-125000J0D01*
G01*
X16609395Y1769395D02*
X16814394Y1974393D01*
X15903500Y1695000D02*
X16429790D01*
X15677426Y1532426D02*
X15795097Y1650099D01*
X8548072Y1070000D02*
X8548072D01*
X8530701D02*
X8548072D01*
X8255000Y1240491D02*
X8351237Y1144253D01*
X15439297Y1159494D02*
X15582106Y1302303D01*
X8597701Y1066500D02*
X15214790D01*
X16532895Y1832895D02*
X16700000Y2000000D01*
X15903500Y1758500D02*
X16353290D01*
X15632526Y1577328D02*
X15750197Y1695000D01*
X8597701Y1130000D02*
X15214790D01*
X8255000Y1367491D02*
X8418096Y1204395D01*
X15394395D02*
X15537206Y1347205D01*
X6455000Y1475000D02*
X6470000D01*
X6455000Y1315000D02*
X6465000D01*
X6455000Y1395000D02*
X6590000D01*
X6430000Y5645000D02*
X6565000Y5645000D01*
X6430000Y5725000D02*
X6445001D01*
X6430000Y5565000D02*
X6440000Y5565000D01*
D17*
X7553800Y1240491D02*
D03*
Y1621491D02*
D03*
X8096200D02*
D03*
Y1494491D02*
D03*
Y1367491D02*
D03*
Y1240491D02*
D03*
X7553800Y1367491D02*
D03*
Y1494491D02*
D03*
D18*
X14647501Y5690000D02*
D03*
X13422499Y5690002D02*
D03*
X14647502Y5020002D02*
D03*
X13422501D02*
D03*
X14647499Y4350002D02*
D03*
X13422501D02*
D03*
X13422499Y3680002D02*
D03*
X14647501Y3010002D02*
D03*
X13422501D02*
D03*
X14647501Y3680002D02*
D03*
X13827498Y3010002D02*
D03*
X15052499Y5690000D02*
D03*
X13827499Y4350002D02*
D03*
X13827502Y3680002D02*
D03*
X13827498Y5020002D02*
D03*
X13827502Y5690002D02*
D03*
X15052498Y3680002D02*
D03*
X15052502Y4350002D02*
D03*
X15052499Y3010002D02*
D03*
X15052499Y5020002D02*
D03*
D19*
X14570000Y5455000D02*
D03*
X13344998Y5455001D02*
D03*
X14569998Y4785001D02*
D03*
X13345004D02*
D03*
X14569998Y4115001D02*
D03*
X13344998D02*
D03*
Y3445001D02*
D03*
X14569998Y2775001D02*
D03*
X13345004D02*
D03*
X16000002Y1865000D02*
D03*
X14570003Y3445001D02*
D03*
X15849998Y1865000D02*
D03*
X13495001Y2775001D02*
D03*
X14720000Y5455000D02*
D03*
X13494997Y4115001D02*
D03*
X13495001Y3445001D02*
D03*
Y4785001D02*
D03*
Y5455001D02*
D03*
X14720001Y3445001D02*
D03*
Y4115001D02*
D03*
X14719995Y2775001D02*
D03*
X14720001Y4785001D02*
D03*
D20*
X15174998Y2405000D02*
D03*
Y1785001D02*
D03*
D21*
X9630002Y1680001D02*
D03*
Y1820001D02*
D03*
X9520002D02*
D03*
Y1680001D02*
D03*
D22*
X9585002Y1410001D02*
D03*
Y1360001D02*
D03*
Y1310001D02*
D03*
Y1260001D02*
D03*
X9875002D02*
D03*
Y1310001D02*
D03*
Y1360001D02*
D03*
Y1410001D02*
D03*
D23*
X9730002Y1335001D02*
D03*
D24*
X9135002Y1455001D02*
D03*
D25*
X8990002Y1260001D02*
D03*
Y1325001D02*
D03*
Y1390001D02*
D03*
Y1455001D02*
D03*
Y1520001D02*
D03*
Y1585001D02*
D03*
Y1650001D02*
D03*
X9280002D02*
D03*
Y1585001D02*
D03*
Y1520001D02*
D03*
Y1455001D02*
D03*
Y1390001D02*
D03*
Y1325001D02*
D03*
Y1260001D02*
D03*
D26*
X9110002Y1815001D02*
D03*
X9250002D02*
D03*
X2785000Y2320000D02*
D03*
X2645000D02*
D03*
X4280000Y1935000D02*
D03*
X4420000D02*
D03*
X11730002Y1350000D02*
D03*
X12630002Y1349999D02*
D03*
X13169998Y1349999D02*
D03*
X13029999D02*
D03*
X11870001Y1350000D02*
D03*
X12269998Y1349999D02*
D03*
X12129999D02*
D03*
X12770001Y1349999D02*
D03*
D27*
X9845002Y1820001D02*
D03*
Y1680001D02*
D03*
X2035000Y3510000D02*
D03*
Y3650000D02*
D03*
X15200002Y1419998D02*
D03*
Y1279999D02*
D03*
D28*
X8371360Y2450500D02*
D03*
Y2323500D02*
D03*
Y2196500D02*
D03*
Y2069500D02*
D03*
X7888640D02*
D03*
Y2196500D02*
D03*
Y2323500D02*
D03*
D29*
Y2450500D02*
D03*
D30*
X6482843Y4899999D02*
D03*
X6518197Y4864645D02*
D03*
X6553554Y4829288D02*
D03*
X6588907Y4793935D02*
D03*
X6624264Y4758578D02*
D03*
X6659618Y4723224D02*
D03*
X6694975Y4687867D02*
D03*
X6730328Y4652514D02*
D03*
X6765685Y4617157D02*
D03*
X6801039Y4581803D02*
D03*
X6836396Y4546446D02*
D03*
X6871749Y4511093D02*
D03*
X6907106Y4475736D02*
D03*
X6942460Y4440382D02*
D03*
X6977817Y4405025D02*
D03*
X7013170Y4369671D02*
D03*
X7048528Y4334314D02*
D03*
X7083881Y4298961D02*
D03*
X7119238Y4263604D02*
D03*
X7154591Y4228250D02*
D03*
X7189949Y4192893D02*
D03*
X7225302Y4157540D02*
D03*
X7260659Y4122183D02*
D03*
X7296013Y4086829D02*
D03*
X7331370Y4051472D02*
D03*
X7366723Y4016119D02*
D03*
X7402080Y3980762D02*
D03*
X7437434Y3945408D02*
D03*
X7472791Y3910051D02*
D03*
X7508144Y3874698D02*
D03*
X7543501Y3839341D02*
D03*
X7578855Y3803987D02*
D03*
X7614212Y3768630D02*
D03*
X7649565Y3733277D02*
D03*
X7684922Y3697920D02*
D03*
X7720276Y3662566D02*
D03*
X6199998Y2142288D02*
D03*
X6164644Y2177641D02*
D03*
X6129287Y2212998D02*
D03*
X6093933Y2248352D02*
D03*
X6058576Y2283709D02*
D03*
X6023223Y2319062D02*
D03*
X5987866Y2354419D02*
D03*
X5952512Y2389773D02*
D03*
X5917155Y2425130D02*
D03*
X5881802Y2460484D02*
D03*
X5846445Y2495841D02*
D03*
X5811091Y2531194D02*
D03*
X5775734Y2566551D02*
D03*
X5740381Y2601904D02*
D03*
X5705024Y2637262D02*
D03*
X5669670Y2672615D02*
D03*
X5634313Y2707972D02*
D03*
X5598960Y2743325D02*
D03*
X5563603Y2778682D02*
D03*
X5528249Y2814036D02*
D03*
X5492892Y2849393D02*
D03*
X5457538Y2884747D02*
D03*
X5422181Y2920104D02*
D03*
X5386828Y2955457D02*
D03*
X5351471Y2990814D02*
D03*
X5316117Y3026168D02*
D03*
X5280760Y3061525D02*
D03*
X5245407Y3096878D02*
D03*
X5210050Y3132235D02*
D03*
X5174696Y3167589D02*
D03*
X5139339Y3202946D02*
D03*
X5103986Y3238299D02*
D03*
X5068629Y3273656D02*
D03*
X5033275Y3309010D02*
D03*
X4997918Y3344367D02*
D03*
X4962565Y3379720D02*
D03*
D31*
X11090002Y3687501D02*
D03*
Y3562498D02*
D03*
Y3437499D02*
D03*
Y3312501D02*
D03*
X11310001D02*
D03*
Y3437499D02*
D03*
Y3562498D02*
D03*
Y3687501D02*
D03*
X4830001Y3115002D02*
D03*
Y2974997D02*
D03*
D32*
X8143751Y3725002D02*
D03*
Y3675000D02*
D03*
Y3625002D02*
D03*
Y3575000D02*
D03*
Y3525002D02*
D03*
Y3475000D02*
D03*
Y3425003D02*
D03*
Y3375000D02*
D03*
Y3325003D02*
D03*
Y3275000D02*
D03*
X8456252D02*
D03*
Y3325003D02*
D03*
Y3375000D02*
D03*
Y3425003D02*
D03*
Y3475000D02*
D03*
Y3525002D02*
D03*
Y3575000D02*
D03*
Y3625002D02*
D03*
Y3675000D02*
D03*
Y3725002D02*
D03*
D33*
X8375003Y3731250D02*
D03*
X8325000D02*
D03*
X8274998D02*
D03*
X8225000D02*
D03*
Y3268752D02*
D03*
X8274998D02*
D03*
X8325000D02*
D03*
X8375003D02*
D03*
D34*
X2022144Y3110000D02*
D03*
X2097856D02*
D03*
X3977856D02*
D03*
X3902144D02*
D03*
X2097856Y3300000D02*
D03*
X2022144D02*
D03*
X3905000Y3490000D02*
D03*
X3980713D02*
D03*
D35*
X6235000Y1315000D02*
D03*
Y1395000D02*
D03*
Y1475000D02*
D03*
X6455000D02*
D03*
Y1395000D02*
D03*
Y1315000D02*
D03*
X6210000Y5565000D02*
D03*
Y5645000D02*
D03*
X6210000Y5725000D02*
D03*
X6430000D02*
D03*
Y5645000D02*
D03*
Y5565000D02*
D03*
D36*
X4135000Y3185000D02*
D03*
Y3035000D02*
D03*
X13499998Y1875001D02*
D03*
Y1724999D02*
D03*
X12500000Y1875001D02*
D03*
Y1724999D02*
D03*
D37*
X3190000Y4202143D02*
D03*
Y4277856D02*
D03*
D38*
X4345000Y3190000D02*
D03*
Y3030000D02*
D03*
X12500001Y2380002D02*
D03*
Y2219997D02*
D03*
X13500002Y2380000D02*
D03*
Y2220000D02*
D03*
D39*
X12770000Y1740000D02*
D03*
X11770000D02*
D03*
X12000000D02*
D03*
X12230000D02*
D03*
X13000000D02*
D03*
X13230000D02*
D03*
D40*
X13485001Y1350000D02*
D03*
X13914998D02*
D03*
X1730000Y4990000D02*
D03*
X2160000D02*
D03*
D41*
X12000000Y2360000D02*
D03*
X13000000D02*
D03*
D42*
X14855000Y5442500D02*
D03*
X15014999D02*
D03*
X13790002Y5442502D02*
D03*
X13629997D02*
D03*
X15014996Y4772502D02*
D03*
X14854997D02*
D03*
X13790002D02*
D03*
X13630002D02*
D03*
X15015002Y4102502D02*
D03*
X14854997D02*
D03*
X13789996D02*
D03*
X13629997D02*
D03*
X15015002Y3432502D02*
D03*
X14855002D02*
D03*
X13790002D02*
D03*
X13629997D02*
D03*
X15525002Y1865001D02*
D03*
X15685001D02*
D03*
X13790002Y2769998D02*
D03*
X13630002D02*
D03*
X14854997Y2770003D02*
D03*
X15014996D02*
D03*
D43*
X8679997Y5694998D02*
D03*
X8552997D02*
D03*
X8425997D02*
D03*
X8298997D02*
D03*
X8679997Y5094999D02*
D03*
X8552997D02*
D03*
X8425997D02*
D03*
X9239997Y5694998D02*
D03*
X9112997D02*
D03*
X8985997D02*
D03*
X8858997D02*
D03*
X9239997Y5094999D02*
D03*
X9112997D02*
D03*
X8985997D02*
D03*
X8119997Y5694998D02*
D03*
X7992997D02*
D03*
X7865997D02*
D03*
X7738997D02*
D03*
X8119997Y5094999D02*
D03*
X7992997D02*
D03*
X7865997D02*
D03*
X7305998D02*
D03*
X7432998D02*
D03*
X7559998D02*
D03*
X7178998Y5694998D02*
D03*
X7305998D02*
D03*
X7432998D02*
D03*
X7559998D02*
D03*
X10359997D02*
D03*
X10232997D02*
D03*
X10105997D02*
D03*
X9978997D02*
D03*
X10359997Y5094999D02*
D03*
X10232997D02*
D03*
X10105997D02*
D03*
X11479997Y5694998D02*
D03*
X11352997D02*
D03*
X11225997D02*
D03*
X11098997D02*
D03*
X11479997Y5094999D02*
D03*
X11352997D02*
D03*
X11225997D02*
D03*
X9799997Y5694998D02*
D03*
X9672997D02*
D03*
X9545997D02*
D03*
X9418997D02*
D03*
X9799997Y5094999D02*
D03*
X9672997D02*
D03*
X9545997D02*
D03*
X10919997Y5694998D02*
D03*
X10792997D02*
D03*
X10665997D02*
D03*
X10538997D02*
D03*
X10919997Y5094999D02*
D03*
X10792997D02*
D03*
X10665997D02*
D03*
D44*
X8298997D02*
D03*
X8858997D02*
D03*
X7738997D02*
D03*
X7178998D02*
D03*
X9978997D02*
D03*
X11098997D02*
D03*
X9418997D02*
D03*
X10538997D02*
D03*
D45*
X10154998Y1930001D02*
D03*
Y1739999D02*
D03*
X10355003Y1835000D02*
D03*
D46*
X11310001Y1345001D02*
D03*
X11310001Y2044999D02*
D03*
X10610002Y1345001D02*
D03*
Y2044999D02*
D03*
D47*
X14200002Y1232499D02*
D03*
Y1467499D02*
D03*
D48*
X14454892Y1349999D02*
D03*
X14945113D02*
D03*
D49*
X12591996Y5825500D02*
D03*
Y5698500D02*
D03*
Y5571500D02*
D03*
Y5444500D02*
D03*
X13137996Y5825500D02*
D03*
Y5698500D02*
D03*
Y5571500D02*
D03*
Y5444500D02*
D03*
X11811997Y3145500D02*
D03*
Y3018500D02*
D03*
Y2891500D02*
D03*
Y2764500D02*
D03*
X12357997Y3145500D02*
D03*
Y3018500D02*
D03*
Y2891500D02*
D03*
Y2764500D02*
D03*
X12591996Y3145500D02*
D03*
Y3018500D02*
D03*
Y2891500D02*
D03*
Y2764500D02*
D03*
X13137996Y3145500D02*
D03*
Y3018500D02*
D03*
Y2891500D02*
D03*
Y2764500D02*
D03*
X11811997Y3815500D02*
D03*
Y3688500D02*
D03*
Y3561500D02*
D03*
Y3434500D02*
D03*
X12357997Y3815500D02*
D03*
Y3688500D02*
D03*
Y3561500D02*
D03*
Y3434500D02*
D03*
X12591996Y3815500D02*
D03*
Y3688500D02*
D03*
Y3561500D02*
D03*
Y3434500D02*
D03*
X13137996Y3815500D02*
D03*
Y3688500D02*
D03*
Y3561500D02*
D03*
Y3434500D02*
D03*
X11811997Y4485500D02*
D03*
Y4358500D02*
D03*
Y4231500D02*
D03*
Y4104500D02*
D03*
X12357997Y4485500D02*
D03*
Y4358500D02*
D03*
Y4231500D02*
D03*
Y4104500D02*
D03*
X12591996Y4485500D02*
D03*
Y4358500D02*
D03*
Y4231500D02*
D03*
Y4104500D02*
D03*
X13137996Y4485500D02*
D03*
Y4358500D02*
D03*
Y4231500D02*
D03*
Y4104500D02*
D03*
X11811997Y5155500D02*
D03*
Y5028500D02*
D03*
Y4901500D02*
D03*
Y4774500D02*
D03*
X12357997Y5155500D02*
D03*
Y5028500D02*
D03*
Y4901500D02*
D03*
Y4774500D02*
D03*
X12591996Y5155500D02*
D03*
Y5028500D02*
D03*
Y4901500D02*
D03*
Y4774500D02*
D03*
X13137996Y5155500D02*
D03*
Y5028500D02*
D03*
Y4901500D02*
D03*
Y4774500D02*
D03*
X11811997Y5825500D02*
D03*
Y5698500D02*
D03*
Y5571500D02*
D03*
Y5444500D02*
D03*
X12357997Y5825500D02*
D03*
Y5698500D02*
D03*
Y5571500D02*
D03*
Y5444500D02*
D03*
D50*
X14045003Y2797740D02*
D03*
X14110001D02*
D03*
X14174998D02*
D03*
X14239998D02*
D03*
Y3100000D02*
D03*
X14174998D02*
D03*
X14110001D02*
D03*
X14045003D02*
D03*
X15270004Y5780000D02*
D03*
X15335004D02*
D03*
X15400002D02*
D03*
X15464999D02*
D03*
Y5477740D02*
D03*
X15400002D02*
D03*
X15335004D02*
D03*
X15270004D02*
D03*
X14045007Y4440000D02*
D03*
X14110007D02*
D03*
X14175005D02*
D03*
X14240002D02*
D03*
Y4137740D02*
D03*
X14175005D02*
D03*
X14110007D02*
D03*
X14045007D02*
D03*
Y3770000D02*
D03*
X14110007D02*
D03*
X14175005D02*
D03*
X14240002D02*
D03*
Y3467740D02*
D03*
X14175005D02*
D03*
X14110007D02*
D03*
X14045007D02*
D03*
X14045003Y5110000D02*
D03*
X14110001D02*
D03*
X14174998D02*
D03*
X14239998D02*
D03*
Y4807740D02*
D03*
X14174998D02*
D03*
X14110001D02*
D03*
X14045003D02*
D03*
X14045007Y5780000D02*
D03*
X14110007D02*
D03*
X14175005D02*
D03*
X14240002D02*
D03*
Y5477740D02*
D03*
X14175005D02*
D03*
X14110007D02*
D03*
X14045007D02*
D03*
X15270003Y3770000D02*
D03*
X15335001D02*
D03*
X15399998D02*
D03*
X15464998D02*
D03*
Y3467740D02*
D03*
X15399998D02*
D03*
X15335001D02*
D03*
X15270003D02*
D03*
X15270007Y4440000D02*
D03*
X15335005D02*
D03*
X15400005D02*
D03*
X15465002D02*
D03*
Y4137740D02*
D03*
X15400005D02*
D03*
X15335005D02*
D03*
X15270007D02*
D03*
X15270003Y3100000D02*
D03*
X15335001D02*
D03*
X15399998D02*
D03*
X15464998D02*
D03*
Y2797740D02*
D03*
X15399998D02*
D03*
X15335001D02*
D03*
X15270003D02*
D03*
X15270007Y5110000D02*
D03*
X15335005D02*
D03*
X15400005D02*
D03*
X15465002D02*
D03*
Y4807740D02*
D03*
X15400005D02*
D03*
X15335005D02*
D03*
X15270007D02*
D03*
D51*
X14142502Y2873229D02*
D03*
X15367502Y5553230D02*
D03*
X14142502Y4213229D02*
D03*
Y3543229D02*
D03*
Y4883228D02*
D03*
Y5553228D02*
D03*
X15367502Y3543229D02*
D03*
Y4213229D02*
D03*
Y2873229D02*
D03*
Y4883228D02*
D03*
D52*
X14142502Y2988240D02*
D03*
X15367502Y5668240D02*
D03*
X14142502Y4328240D02*
D03*
Y3658240D02*
D03*
Y4998240D02*
D03*
Y5668240D02*
D03*
X15367502Y3658240D02*
D03*
Y4328240D02*
D03*
Y2988240D02*
D03*
Y4998240D02*
D03*
D53*
X1417498Y5229998D02*
D03*
Y5034998D02*
D03*
Y5100001D02*
D03*
Y4969999D02*
D03*
X1417499Y5165000D02*
D03*
D54*
X2620000Y2639999D02*
D03*
X2810002D02*
D03*
X2999999D02*
D03*
X3190001D02*
D03*
X3379998D02*
D03*
Y3960001D02*
D03*
X3190001D02*
D03*
X2999999D02*
D03*
X2810002D02*
D03*
X2620000D02*
D03*
D55*
X3659998Y2919998D02*
D03*
Y3110001D02*
D03*
Y3299998D02*
D03*
Y3490000D02*
D03*
Y3680002D02*
D03*
X2340000D02*
D03*
Y3490000D02*
D03*
Y3299998D02*
D03*
Y3110001D02*
D03*
Y2919998D02*
D03*
D56*
X7720276Y3379724D02*
D03*
X7684922Y3344371D02*
D03*
X7649565Y3309013D02*
D03*
X7614212Y3273660D02*
D03*
X7578855Y3238303D02*
D03*
X7543501Y3202949D02*
D03*
X7508144Y3167592D02*
D03*
X7472791Y3132239D02*
D03*
X7437434Y3096882D02*
D03*
X7402080Y3061528D02*
D03*
X7366723Y3026171D02*
D03*
X7331370Y2990818D02*
D03*
X7296013Y2955461D02*
D03*
X7260659Y2920107D02*
D03*
X7225302Y2884750D02*
D03*
X7189949Y2849397D02*
D03*
X7154591Y2814040D02*
D03*
X7119238Y2778686D02*
D03*
X7083881Y2743329D02*
D03*
X7048527Y2707976D02*
D03*
X7013170Y2672619D02*
D03*
X6977817Y2637265D02*
D03*
X6942460Y2601908D02*
D03*
X6907106Y2566555D02*
D03*
X6871749Y2531198D02*
D03*
X6836396Y2495844D02*
D03*
X6801039Y2460487D02*
D03*
X6765685Y2425134D02*
D03*
X6730328Y2389777D02*
D03*
X6694975Y2354423D02*
D03*
X6659618Y2319066D02*
D03*
X6624264Y2283712D02*
D03*
X6588907Y2248355D02*
D03*
X6553554Y2213002D02*
D03*
X6518197Y2177645D02*
D03*
X6482843Y2142291D02*
D03*
X4962568Y3662566D02*
D03*
X4997922Y3697920D02*
D03*
X5033279Y3733277D02*
D03*
X5068632Y3768630D02*
D03*
X5103990Y3803987D02*
D03*
X5139343Y3839341D02*
D03*
X5174700Y3874698D02*
D03*
X5210054Y3910051D02*
D03*
X5245411Y3945408D02*
D03*
X5280764Y3980762D02*
D03*
X5316121Y4016119D02*
D03*
X5351474Y4051472D02*
D03*
X5386831Y4086829D02*
D03*
X5422185Y4122183D02*
D03*
X5457542Y4157540D02*
D03*
X5492895Y4192893D02*
D03*
X5528252Y4228250D02*
D03*
X5563606Y4263604D02*
D03*
X5598963Y4298961D02*
D03*
X5634317Y4334315D02*
D03*
X5669674Y4369672D02*
D03*
X5705027Y4405025D02*
D03*
X5740384Y4440382D02*
D03*
X5775738Y4475736D02*
D03*
X5811095Y4511093D02*
D03*
X5846448Y4546446D02*
D03*
X5881805Y4581803D02*
D03*
X5917159Y4617157D02*
D03*
X5952516Y4652514D02*
D03*
X5987869Y4687867D02*
D03*
X6023226Y4723224D02*
D03*
X6058580Y4758578D02*
D03*
X6093937Y4793935D02*
D03*
X6129291Y4829288D02*
D03*
X6164648Y4864645D02*
D03*
X6200001Y4899999D02*
D03*
D57*
X6255002Y1835001D02*
D03*
X6424999D02*
D03*
Y1964998D02*
D03*
X6255002D02*
D03*
D58*
X10426251Y3650000D02*
D03*
Y3600002D02*
D03*
Y3550000D02*
D03*
Y3500002D02*
D03*
Y3450000D02*
D03*
Y3400003D02*
D03*
Y3350000D02*
D03*
X10173750D02*
D03*
Y3400003D02*
D03*
Y3450000D02*
D03*
Y3500002D02*
D03*
Y3550000D02*
D03*
Y3600002D02*
D03*
Y3650000D02*
D03*
D59*
X10299998Y3298748D02*
D03*
Y3701252D02*
D03*
D60*
X8297500Y4475000D02*
D03*
X7902500D02*
D03*
Y4324998D02*
D03*
X8297500D02*
D03*
D61*
X8224998Y4572501D02*
D03*
X8175001D02*
D03*
X8124998D02*
D03*
X8075001Y4572500D02*
D03*
X8024998Y4572501D02*
D03*
X7975002D02*
D03*
Y4227498D02*
D03*
X8024998D02*
D03*
X8075001Y4227497D02*
D03*
X8124998Y4227498D02*
D03*
X8175001D02*
D03*
X8224998D02*
D03*
D62*
X8100000Y4399999D02*
D03*
D63*
X9575000Y3576249D02*
D03*
X9624998D02*
D03*
Y3423748D02*
D03*
X9575000D02*
D03*
D64*
X9676250Y3575000D02*
D03*
Y3525002D02*
D03*
Y3475000D02*
D03*
Y3425003D02*
D03*
X9523748D02*
D03*
Y3475000D02*
D03*
Y3525002D02*
D03*
Y3575000D02*
D03*
D65*
X2458748Y4977752D02*
D03*
Y5574748D02*
D03*
D66*
X2926250Y5924750D02*
D03*
X2556248D02*
D03*
D67*
X3528748Y5907250D02*
D03*
D68*
X3541250Y5661251D02*
D03*
Y5551248D02*
D03*
Y5441251D02*
D03*
X3541250Y5331249D02*
D03*
X3541250Y5221251D02*
D03*
Y5111249D02*
D03*
X3541250Y5001252D02*
D03*
D69*
Y4896248D02*
D03*
D70*
X3506249Y4775248D02*
D03*
D71*
X1150001Y5214997D02*
D03*
X1150001Y4985000D02*
D03*
D72*
X4904999Y2395000D02*
D03*
D73*
X4742363Y2451568D02*
D03*
X4777720Y2486925D02*
D03*
X4813073Y2522279D02*
D03*
X4848430Y2557636D02*
D03*
X5067635Y2338432D02*
D03*
X5032278Y2303075D02*
D03*
X4996924Y2267721D02*
D03*
X4961567Y2232364D02*
D03*
D74*
Y2557636D02*
D03*
X4996924Y2522279D02*
D03*
X5032278Y2486925D02*
D03*
X5067635Y2451568D02*
D03*
X4848430Y2232364D02*
D03*
X4813073Y2267721D02*
D03*
X4777720Y2303075D02*
D03*
X4742363Y2338432D02*
D03*
D75*
X2160000Y4990000D02*
X2165000Y4892500D01*
D76*
X1149985Y4761259D02*
D03*
X1150000Y5438772D02*
D03*
D77*
X14480000Y2300000D02*
D03*
D78*
X15724995Y2210000D02*
D03*
X16225000Y2210000D02*
D03*
D79*
X16700000Y4875000D02*
D03*
X16825000D02*
D03*
X16700000Y4625000D02*
D03*
X16825000D02*
D03*
X16700000Y4375000D02*
D03*
X16825000D02*
D03*
X16700000Y4125000D02*
D03*
X16825000D02*
D03*
X16700000Y3875000D02*
D03*
X16825000D02*
D03*
X16700000Y3625000D02*
D03*
X16825000D02*
D03*
X16700000Y3375000D02*
D03*
X16825000D02*
D03*
X16700000Y3125000D02*
D03*
X16825000D02*
D03*
X16700000Y2875000D02*
D03*
X16825000D02*
D03*
X16700000Y2625000D02*
D03*
X16825000D02*
D03*
X2660000Y1625000D02*
D03*
X4940001Y1625000D02*
D03*
X3050001Y1500001D02*
D03*
X3175000D02*
D03*
X3299998D02*
D03*
X3425002D02*
D03*
X3550001D02*
D03*
X3674999D02*
D03*
X3800003D02*
D03*
X3925001D02*
D03*
X4050000D02*
D03*
X4174998D02*
D03*
X4300002D02*
D03*
X4425000D02*
D03*
X4549998D02*
D03*
X3050002Y1625000D02*
D03*
X3175000D02*
D03*
X3299998D02*
D03*
X3425002D02*
D03*
X3550000D02*
D03*
X3674999D02*
D03*
X3800003D02*
D03*
X3925001D02*
D03*
X4050000D02*
D03*
X4174998D02*
D03*
X4300002D02*
D03*
X4425000D02*
D03*
X4549999D02*
D03*
X16700000Y2500000D02*
D03*
X16825000Y2375000D02*
D03*
Y2500000D02*
D03*
X16700000Y2250000D02*
D03*
X16825000D02*
D03*
X16700000Y2125000D02*
D03*
X16825000D02*
D03*
X16700000Y2375000D02*
D03*
Y2000000D02*
D03*
X16825000D02*
D03*
X16700000Y1610000D02*
D03*
Y5390000D02*
D03*
X16825000Y2750000D02*
D03*
Y3000000D02*
D03*
Y3250000D02*
D03*
Y3500000D02*
D03*
Y3750000D02*
D03*
Y4000000D02*
D03*
Y4250000D02*
D03*
Y4500000D02*
D03*
Y4750000D02*
D03*
Y5000000D02*
D03*
X16700000Y2750000D02*
D03*
Y3000000D02*
D03*
Y3250000D02*
D03*
Y3500000D02*
D03*
Y3750000D02*
D03*
Y4000000D02*
D03*
Y4250000D02*
D03*
Y4500000D02*
D03*
Y4750000D02*
D03*
Y5000000D02*
D03*
D80*
X8949998Y4299999D02*
D03*
X9200000D02*
D03*
X9450002D02*
D03*
X10949999Y2600001D02*
D03*
X10699997D02*
D03*
X10450000D02*
D03*
X10950002Y4300002D02*
D03*
X10700000D02*
D03*
X10449998D02*
D03*
X8949998Y2599999D02*
D03*
X9200000D02*
D03*
X9450002D02*
D03*
D81*
X9699999Y4299999D02*
D03*
X11200001Y2600001D02*
D03*
X11199999Y4300001D02*
D03*
X9699999Y2599999D02*
D03*
D82*
X13972000Y2300000D02*
D03*
X14225999D02*
D03*
X5451000Y1251000D02*
D03*
X5705000Y1505000D02*
D03*
X5451000D02*
D03*
X5705000Y1759000D02*
D03*
X5451000D02*
D03*
D83*
X1450000Y5322500D02*
D03*
Y4877497D02*
D03*
D84*
X1150001Y4682502D02*
D03*
X1150001Y5517501D02*
D03*
D85*
X5705000Y1251000D02*
D03*
D86*
X7380000Y1240491D02*
D03*
Y1621491D02*
D03*
X5990000Y2940000D02*
D03*
X5925858Y2810000D02*
D03*
X10050000Y2050000D02*
D03*
X10020000Y1440000D02*
D03*
Y1330000D02*
D03*
X9727502Y1822502D02*
D03*
X8620000Y2500000D02*
D03*
X8700000Y2160000D02*
D03*
Y2060000D02*
D03*
X9135002Y1199050D02*
D03*
X9380002Y1205001D02*
D03*
X9385002Y1460001D02*
D03*
Y1380001D02*
D03*
X9395000Y1755000D02*
D03*
X9470002Y1330001D02*
D03*
X9485002Y1410001D02*
D03*
X8800002Y1325001D02*
D03*
X8880002Y1390002D02*
D03*
X8800002Y1455001D02*
D03*
X8880002Y1520002D02*
D03*
X8700000Y1725000D02*
D03*
X8825000D02*
D03*
X7600000Y2150000D02*
D03*
Y2300000D02*
D03*
X7195000Y2278661D02*
D03*
X6700000Y1700000D02*
D03*
X5880000Y2040000D02*
D03*
X5990000D02*
D03*
X6118446Y2485000D02*
D03*
X5800000Y2150000D02*
D03*
X5880000Y2220000D02*
D03*
X8130000Y2050000D02*
D03*
Y2170000D02*
D03*
X5475000Y2525000D02*
D03*
X5575000D02*
D03*
X8050000Y2625000D02*
D03*
X6050000Y2675000D02*
D03*
X8650000Y3000000D02*
D03*
X5950000Y2675000D02*
D03*
X5770000Y2870000D02*
D03*
X4050000Y5775000D02*
D03*
X3975000Y5700000D02*
D03*
X4050000Y5625000D02*
D03*
X7300000Y3650000D02*
D03*
X9920000Y3370000D02*
D03*
X11475000Y3687501D02*
D03*
Y3562498D02*
D03*
Y3437499D02*
D03*
X10580000Y3450000D02*
D03*
X10920000Y3500000D02*
D03*
Y3640000D02*
D03*
X10020000Y3570000D02*
D03*
Y3470000D02*
D03*
X3350000Y5750000D02*
D03*
X9425000Y3350000D02*
D03*
X8150000Y2625000D02*
D03*
X2235000Y1815000D02*
D03*
X2375000D02*
D03*
X7550000Y1950000D02*
D03*
X6925000Y4025000D02*
D03*
Y4150000D02*
D03*
X5575000Y3075000D02*
D03*
Y3175000D02*
D03*
X7000000Y1650000D02*
D03*
X6850000Y1200000D02*
D03*
X7375000Y4325000D02*
D03*
X7450000Y4400000D02*
D03*
X7550000D02*
D03*
X7650000D02*
D03*
X4495000Y5025000D02*
D03*
X4180000Y4670000D02*
D03*
X4390000D02*
D03*
X4600000D02*
D03*
X4810000D02*
D03*
X11595000Y3915000D02*
D03*
X12209999Y5570000D02*
D03*
X5925000Y3025000D02*
D03*
X4715000Y2840000D02*
D03*
X4390000Y2875000D02*
D03*
X4200000Y2890000D02*
D03*
X4110000Y3370000D02*
D03*
X4045000Y3850000D02*
D03*
X5125000Y2875000D02*
D03*
X5220000Y3315000D02*
D03*
X5000000Y3950000D02*
D03*
X5075000Y4025000D02*
D03*
X5300000Y3425000D02*
D03*
X5190000Y3465000D02*
D03*
X5525000Y3275000D02*
D03*
X5425000D02*
D03*
X6800000Y2975000D02*
D03*
X6875000Y2900000D02*
D03*
X7390000Y2830000D02*
D03*
X7085000Y3020000D02*
D03*
X5625000Y4675000D02*
D03*
X5550000Y4750000D02*
D03*
X11600000Y4300001D02*
D03*
X8245000Y3000000D02*
D03*
X8350000D02*
D03*
X8425000Y2650000D02*
D03*
X8525000D02*
D03*
X6570000Y2487300D02*
D03*
X6475000Y2485000D02*
D03*
X6420000Y2275000D02*
D03*
X7750000Y4150000D02*
D03*
Y4050000D02*
D03*
Y4250000D02*
D03*
X7900000Y2955000D02*
D03*
X7800000D02*
D03*
X12839998Y2890000D02*
D03*
X11600000Y3245000D02*
D03*
X7175000Y3525000D02*
D03*
X7075000D02*
D03*
X7275000D02*
D03*
X7375000D02*
D03*
X8475000Y1725000D02*
D03*
X15170000Y3170000D02*
D03*
X7992997Y4930001D02*
D03*
X7865997D02*
D03*
X8119997D02*
D03*
X7475000Y4650000D02*
D03*
X7225000Y4750000D02*
D03*
X7125000D02*
D03*
X7178998Y4930001D02*
D03*
X11960059Y5154931D02*
D03*
X12209999Y5155000D02*
D03*
X11959999Y5825000D02*
D03*
X12209999D02*
D03*
Y5700000D02*
D03*
X6800000Y2750000D02*
D03*
X7750000Y3575000D02*
D03*
Y3475000D02*
D03*
X12209999Y3145000D02*
D03*
Y3020000D02*
D03*
X7700000Y4500000D02*
D03*
X7625000Y4550000D02*
D03*
X7550000Y4600000D02*
D03*
X7400000Y4700000D02*
D03*
X7325000Y4750000D02*
D03*
X7750000Y4350000D02*
D03*
X7025000Y4750000D02*
D03*
X7050000Y5050000D02*
D03*
Y5150000D02*
D03*
X7460000Y5385000D02*
D03*
X9140000D02*
D03*
X7050000Y5250000D02*
D03*
X11600000Y4585000D02*
D03*
X7050000Y5350000D02*
D03*
Y5450000D02*
D03*
X11098997Y4930001D02*
D03*
X7050000Y5550000D02*
D03*
Y5650000D02*
D03*
Y5750000D02*
D03*
X1200000Y3510000D02*
D03*
X7559998Y5854998D02*
D03*
X7305998D02*
D03*
X8030000Y3880000D02*
D03*
X8035000Y3470000D02*
D03*
X8985997Y5854998D02*
D03*
X7050000Y5850000D02*
D03*
X12989998Y5570000D02*
D03*
X12989999Y5460000D02*
D03*
X12739998Y5825000D02*
D03*
X11600000Y3345000D02*
D03*
X12989998Y3145000D02*
D03*
X6025000Y5565000D02*
D03*
Y5645000D02*
D03*
Y5725000D02*
D03*
X5545000Y4960000D02*
D03*
X5485000Y5020000D02*
D03*
X5425000Y5080000D02*
D03*
X7865997Y5854998D02*
D03*
X11225997D02*
D03*
X7992997D02*
D03*
X11352997D02*
D03*
Y4930001D02*
D03*
X9545997Y5854998D02*
D03*
X10919997D02*
D03*
X10105997D02*
D03*
X10665997D02*
D03*
X11595000Y2570000D02*
D03*
Y2670000D02*
D03*
Y4015000D02*
D03*
X11600000Y4685000D02*
D03*
X13935001Y2690000D02*
D03*
X13939999Y3365000D02*
D03*
X13935001Y4035000D02*
D03*
X13939999Y4705000D02*
D03*
X11600000Y5250000D02*
D03*
Y5350000D02*
D03*
X14510001Y5240000D02*
D03*
X13939999Y5370000D02*
D03*
X7124491Y3913275D02*
D03*
X7610000Y3570000D02*
D03*
X7550000Y3630000D02*
D03*
X7580000Y3490000D02*
D03*
X8460000Y4270000D02*
D03*
X7490000Y3690000D02*
D03*
X8440000Y4190000D02*
D03*
X5400000Y2300000D02*
D03*
X10575000Y3350000D02*
D03*
Y3550000D02*
D03*
X10580000Y3650000D02*
D03*
X9780000Y3675000D02*
D03*
X9425000Y3575000D02*
D03*
X9775000Y3525000D02*
D03*
X9425000Y3475000D02*
D03*
X9775000Y3425000D02*
D03*
X8255000Y1621491D02*
D03*
Y1494491D02*
D03*
Y1240491D02*
D03*
Y1367491D02*
D03*
X1650000Y5250000D02*
D03*
X3975000Y5215000D02*
D03*
X4250000Y5220000D02*
D03*
Y5305000D02*
D03*
X6725000Y2825000D02*
D03*
X8300000Y3390000D02*
D03*
X8274998Y3900000D02*
D03*
X3325000Y5111249D02*
D03*
Y5331249D02*
D03*
X3975000Y4896248D02*
D03*
Y5105000D02*
D03*
Y5330000D02*
D03*
Y5550000D02*
D03*
Y5001252D02*
D03*
Y5850000D02*
D03*
X5305000Y3280000D02*
D03*
X5325000Y2575000D02*
D03*
Y2200000D02*
D03*
X5250000Y2100000D02*
D03*
X5100000D02*
D03*
X5250000Y2750000D02*
D03*
X5200000Y2825000D02*
D03*
X5175000Y2675000D02*
D03*
X5100000Y2775000D02*
D03*
X6425000Y2825000D02*
D03*
X4725000Y3325000D02*
D03*
Y3480000D02*
D03*
Y3675000D02*
D03*
X3379998Y4675000D02*
D03*
X3190000D02*
D03*
X2620000D02*
D03*
X1200000Y3650000D02*
D03*
Y3300000D02*
D03*
Y3110000D02*
D03*
Y2925000D02*
D03*
X6600000Y4450000D02*
D03*
X6345000Y3360000D02*
D03*
X6100000Y3475000D02*
D03*
X5250000Y3550000D02*
D03*
X5155000Y3650000D02*
D03*
X6160000Y4620000D02*
D03*
X5740000Y4200000D02*
D03*
X6669950Y4380000D02*
D03*
X5800000Y4260000D02*
D03*
X6220000Y4680000D02*
D03*
X7065000Y3975000D02*
D03*
X14924805Y5835195D02*
D03*
X12989998Y5700000D02*
D03*
X15170000Y5850000D02*
D03*
X15130000Y5455000D02*
D03*
X12989998Y5825000D02*
D03*
X14510001Y5910000D02*
D03*
X14814999Y5350000D02*
D03*
X13700000Y5835000D02*
D03*
X13945000Y5850000D02*
D03*
X12210000Y5460000D02*
D03*
X13905000Y5455000D02*
D03*
X13285001Y5910000D02*
D03*
X13590096Y5350394D02*
D03*
X14925000Y5165000D02*
D03*
X12989998Y5030000D02*
D03*
X15170000Y5180000D02*
D03*
X12989999Y4790000D02*
D03*
X15130000Y4785000D02*
D03*
X12989998Y5155000D02*
D03*
Y4900000D02*
D03*
X14814999Y4680000D02*
D03*
X13700000Y5165000D02*
D03*
X12209999Y5030000D02*
D03*
X13945000Y5180000D02*
D03*
X12210000Y4790000D02*
D03*
X13905000Y4785000D02*
D03*
X13285001Y5240000D02*
D03*
X12209999Y4900000D02*
D03*
X13590096Y4680394D02*
D03*
X14925000Y4495000D02*
D03*
X12989998Y4360000D02*
D03*
X15170000Y4510000D02*
D03*
X12989999Y4120000D02*
D03*
X15130000Y4115000D02*
D03*
X12989998Y4485000D02*
D03*
X14510001Y4570000D02*
D03*
X12989998Y4230000D02*
D03*
X14814999Y4010000D02*
D03*
X13700000Y4495000D02*
D03*
X12209999Y4360000D02*
D03*
X13945000Y4510000D02*
D03*
X12210000Y4120000D02*
D03*
X13905000Y4115000D02*
D03*
X12209999Y4485000D02*
D03*
X13285001Y4570000D02*
D03*
X12209999Y4230000D02*
D03*
X13590096Y4010394D02*
D03*
X14925000Y3825000D02*
D03*
X12989998Y3690000D02*
D03*
X15170000Y3840000D02*
D03*
X12989999Y3450000D02*
D03*
X15130000Y3445000D02*
D03*
X12989998Y3815000D02*
D03*
X14510001Y3900000D02*
D03*
X12989998Y3560000D02*
D03*
X14814999Y3340000D02*
D03*
X13700000Y3825000D02*
D03*
X12209999Y3690000D02*
D03*
X13945000Y3840000D02*
D03*
X12210000Y3450000D02*
D03*
X13905000Y3445000D02*
D03*
X12209999Y3815000D02*
D03*
X13285001Y3900000D02*
D03*
X12209999Y3560000D02*
D03*
X13589999Y3340000D02*
D03*
X6590000Y1395000D02*
D03*
X6590000Y1190000D02*
D03*
X6590000Y1595000D02*
D03*
X6565000Y5844999D02*
D03*
Y5645000D02*
D03*
Y5440000D02*
D03*
Y1835001D02*
D03*
X6340000Y2100000D02*
D03*
X11479997Y4930001D02*
D03*
X8858997D02*
D03*
X8985997D02*
D03*
X8425997D02*
D03*
X8552997D02*
D03*
X8679997D02*
D03*
X10538997D02*
D03*
X9112997Y5854998D02*
D03*
X10232997D02*
D03*
X10359997D02*
D03*
X8679997D02*
D03*
X11225997Y4930001D02*
D03*
X11479997Y5854998D02*
D03*
X11379999Y5385000D02*
D03*
X10665997Y4930001D02*
D03*
X10919997D02*
D03*
X10792997Y5854998D02*
D03*
X10819999Y5385000D02*
D03*
X10792997Y4930001D02*
D03*
X10105997D02*
D03*
X10359997D02*
D03*
X9978997D02*
D03*
X10260000Y5385000D02*
D03*
X10232997Y4930001D02*
D03*
X9545997D02*
D03*
X9799997D02*
D03*
X9672997Y5854998D02*
D03*
X9799997D02*
D03*
X9418997Y4930001D02*
D03*
X9700000Y5385000D02*
D03*
X9672997Y4930001D02*
D03*
X9239997D02*
D03*
Y5854998D02*
D03*
X9112997Y4930001D02*
D03*
X8552997Y5854998D02*
D03*
X8298997Y4930001D02*
D03*
X8580000Y5385000D02*
D03*
X8425997Y5854998D02*
D03*
X8119997D02*
D03*
X7738997Y4930001D02*
D03*
X8020000Y5385000D02*
D03*
X11200001Y3312501D02*
D03*
X7432998Y5854998D02*
D03*
X1650000Y5350000D02*
D03*
X14925000Y3155000D02*
D03*
X7432998Y4930001D02*
D03*
X7559998D02*
D03*
X7305998D02*
D03*
X13589925Y2670135D02*
D03*
X12739998Y3145000D02*
D03*
X12059999Y2890000D02*
D03*
X12209999D02*
D03*
X12210000Y2780000D02*
D03*
X11959999Y2890000D02*
D03*
X12135000Y2830000D02*
D03*
X11959999Y3145000D02*
D03*
X12134999Y2950000D02*
D03*
X12989998Y3020000D02*
D03*
Y2890000D02*
D03*
X12989999Y2780000D02*
D03*
X12739998Y2890000D02*
D03*
X12914999Y2830000D02*
D03*
X12914998Y2950000D02*
D03*
X12059999Y3560000D02*
D03*
X11959999D02*
D03*
X12135000Y3500000D02*
D03*
X11959999Y3815000D02*
D03*
X12134999Y3620000D02*
D03*
X12839998Y3560000D02*
D03*
X12739998D02*
D03*
X12914999Y3500000D02*
D03*
X12739998Y3815000D02*
D03*
X12914998Y3620000D02*
D03*
X12059999Y4230000D02*
D03*
X11959999D02*
D03*
X12135000Y4170000D02*
D03*
X11959999Y4485000D02*
D03*
X12134999Y4290000D02*
D03*
X12839998Y4230000D02*
D03*
X12739998D02*
D03*
X12914999Y4170000D02*
D03*
X12739998Y4485000D02*
D03*
X12914998Y4290000D02*
D03*
X12059999Y4900000D02*
D03*
X11959999D02*
D03*
X12135000Y4840000D02*
D03*
X12134999Y4960000D02*
D03*
X12839998Y4900000D02*
D03*
X12739998D02*
D03*
X12914999Y4840000D02*
D03*
X12739998Y5155000D02*
D03*
X12914998Y4960000D02*
D03*
X12059999Y5570000D02*
D03*
X11959999D02*
D03*
X12135000Y5510000D02*
D03*
X12134999Y5630000D02*
D03*
X12914999Y5510000D02*
D03*
X12914998Y5630000D02*
D03*
X12839998Y5570000D02*
D03*
X12739998D02*
D03*
X13285001Y3230000D02*
D03*
X13905000Y2775000D02*
D03*
X13945000Y3170000D02*
D03*
X13700000Y3155000D02*
D03*
X14814999Y2670000D02*
D03*
X14510001Y3230000D02*
D03*
X15130000Y2775000D02*
D03*
D87*
X14770000Y3155000D02*
D03*
X13544904Y3154606D02*
D03*
X13545000Y3825000D02*
D03*
X14770000D02*
D03*
X13545000Y4495000D02*
D03*
X14770000D02*
D03*
X13545000Y5165000D02*
D03*
X14770000D02*
D03*
X13545000Y5835000D02*
D03*
X14770000D02*
D03*
X6395000Y4100000D02*
D03*
X12900000Y1349999D02*
D03*
X11999999Y1350000D02*
D03*
X15420000Y1410000D02*
D03*
X15600000Y5780000D02*
D03*
X14375000D02*
D03*
X15600000Y5110000D02*
D03*
X14375000D02*
D03*
X15600000Y4440000D02*
D03*
X14375000D02*
D03*
X15600000Y3770000D02*
D03*
X14375000D02*
D03*
X3750000Y5900000D02*
D03*
X2265000Y5250000D02*
D03*
X14375000Y3100000D02*
D03*
X15600000D02*
D03*
D88*
X9400000Y2040000D02*
D03*
Y2140000D02*
D03*
X10210000Y1600000D02*
D03*
X10090000D02*
D03*
X10025002Y1210001D02*
D03*
X8870002Y1235001D02*
D03*
X10345000Y1510000D02*
D03*
X8455000Y3890000D02*
D03*
X10610000Y1765000D02*
D03*
X10600000Y1615000D02*
D03*
X11310000Y1760000D02*
D03*
X8290403Y3525002D02*
D03*
D89*
X9680002Y1385001D02*
D03*
X9780002D02*
D03*
X9680002Y1285001D02*
D03*
X9780002D02*
D03*
D90*
X16000000Y5650000D02*
D03*
X9000000Y3500000D02*
D03*
X16000000Y1350000D02*
D03*
X2000000Y5650000D02*
D03*
Y1350000D02*
D03*
D91*
X13230000Y2050000D02*
D03*
X12230000D02*
D03*
%TF.MD5,2e2086ebd85e2d250b66c0b057be8e22*%
M02*
