%TF.GenerationSoftware,Altium Limited,Altium Designer,22.4.2 (48)*%
G04 Layer_Color=255*
%FSLAX45Y45*%
%MOMM*%
%TF.SameCoordinates,DD45EC1B-027E-4741-A071-7A00BA1CB46E*%
%TF.FilePolarity,Positive*%
%TF.FileFunction,Pads,Bot*%
%TF.Part,Single*%
G01*
G75*
%TA.AperFunction,SMDPad,CuDef*%
%ADD19R,0.70000X0.90000*%
%ADD26R,1.05000X1.10000*%
%ADD27R,1.10000X1.05000*%
%ADD36R,0.90000X0.70000*%
%TA.AperFunction,ComponentPad*%
%ADD77R,1.50000X1.50000*%
%ADD78C,4.30000*%
%ADD79C,1.10000*%
%ADD80C,1.59000*%
%ADD81R,1.59000X1.59000*%
%ADD82C,1.50000*%
%ADD83O,1.25000X1.05000*%
%ADD84O,1.90000X1.20000*%
%ADD85R,1.50000X1.50000*%
%TA.AperFunction,SMDPad,CuDef*%
%ADD94R,1.90000X4.44000*%
%ADD95R,0.70000X0.85000*%
G04:AMPARAMS|DCode=96|XSize=1.1mm|YSize=1.05mm|CornerRadius=0mm|HoleSize=0mm|Usage=FLASHONLY|Rotation=315.000|XOffset=0mm|YOffset=0mm|HoleType=Round|Shape=Rectangle|*
%AMROTATEDRECTD96*
4,1,4,-0.76014,0.01768,-0.01768,0.76014,0.76014,-0.01768,0.01768,-0.76014,-0.76014,0.01768,0.0*
%
%ADD96ROTATEDRECTD96*%

D19*
X11050000Y2370000D02*
D03*
X11200000D02*
D03*
X11055000Y4065000D02*
D03*
X11205000D02*
D03*
X9545000Y2210000D02*
D03*
X9695000D02*
D03*
X9095000Y2205000D02*
D03*
X9245000D02*
D03*
X9695000Y2060000D02*
D03*
X9545000D02*
D03*
X9095000Y2055000D02*
D03*
X9245000Y2055000D02*
D03*
X11125000Y3170000D02*
D03*
X11275000D02*
D03*
X9525000Y3250000D02*
D03*
X9675000D02*
D03*
X10365000Y3810000D02*
D03*
X10215000D02*
D03*
X10220000Y3190000D02*
D03*
X10370000Y3190000D02*
D03*
X2060000Y5105000D02*
D03*
X1910000D02*
D03*
X2060000Y4890001D02*
D03*
X1910000Y4890000D02*
D03*
X6475000Y3370000D02*
D03*
X6625000D02*
D03*
X6420000Y1190000D02*
D03*
X6270000D02*
D03*
X6420000Y1395000D02*
D03*
X6270000D02*
D03*
Y1594999D02*
D03*
X6420000D02*
D03*
X6395000Y5440000D02*
D03*
X6245000Y5440000D02*
D03*
X6395000Y5645000D02*
D03*
X6245000Y5645000D02*
D03*
X6245000Y5844999D02*
D03*
X6395000Y5844999D02*
D03*
X11879999Y2780000D02*
D03*
X12029999D02*
D03*
X11879999Y3050000D02*
D03*
X12029999D02*
D03*
X12659998Y2780000D02*
D03*
X12809998D02*
D03*
X12659998Y3050000D02*
D03*
X12809998D02*
D03*
X11879999Y3450000D02*
D03*
X12029999D02*
D03*
X11879999Y3720000D02*
D03*
X12029999D02*
D03*
X12659998Y3450000D02*
D03*
X12809998D02*
D03*
X12659998Y3720000D02*
D03*
X12809998D02*
D03*
X11879999Y4120000D02*
D03*
X12029999D02*
D03*
X11879999Y4390000D02*
D03*
X12029999D02*
D03*
X12659998Y4120000D02*
D03*
X12809998D02*
D03*
X12659998Y4390000D02*
D03*
X12809998D02*
D03*
X11879999Y4790000D02*
D03*
X12029999D02*
D03*
X11879999Y5060000D02*
D03*
X12029999D02*
D03*
X12659998Y4790000D02*
D03*
X12809998D02*
D03*
X12659998Y5060000D02*
D03*
X12809998D02*
D03*
X11879999Y5459999D02*
D03*
X12029999D02*
D03*
X11879999Y5729999D02*
D03*
X12029999D02*
D03*
X12659998Y5730000D02*
D03*
X12809998D02*
D03*
X12659998Y5460000D02*
D03*
X12809998D02*
D03*
X14230000Y3155001D02*
D03*
X14080003D02*
D03*
X14230000Y2945001D02*
D03*
X14080003D02*
D03*
X15305000Y5835000D02*
D03*
X15455000D02*
D03*
X15305000Y5625000D02*
D03*
X15455000D02*
D03*
X14079999Y4495001D02*
D03*
X14229996D02*
D03*
X14079999Y4285001D02*
D03*
X14229996D02*
D03*
X14079999Y3825001D02*
D03*
X14230000D02*
D03*
X14079999Y3615001D02*
D03*
X14230000D02*
D03*
X14080003Y5165001D02*
D03*
X14230000D02*
D03*
X14080003Y4955001D02*
D03*
X14230000D02*
D03*
X14079999Y5835001D02*
D03*
X14230000D02*
D03*
X14079999Y5625001D02*
D03*
X14230000D02*
D03*
X15305003Y3825001D02*
D03*
X15455000D02*
D03*
X15305003Y3615001D02*
D03*
X15455000D02*
D03*
X15304997Y4495001D02*
D03*
X15455000D02*
D03*
X15304997Y4285001D02*
D03*
X15455000D02*
D03*
X15304997Y3155001D02*
D03*
X15454996D02*
D03*
X15304997Y2945001D02*
D03*
X15454996D02*
D03*
X15304997Y5165001D02*
D03*
X15455000D02*
D03*
X15304997Y4955001D02*
D03*
X15455000D02*
D03*
D26*
X9005000Y4480000D02*
D03*
X9145000D02*
D03*
X9005000Y2825000D02*
D03*
X9145000D02*
D03*
X15455000Y3394998D02*
D03*
X15314999D02*
D03*
X14089999Y2724998D02*
D03*
X14230000D02*
D03*
X15455000Y5405000D02*
D03*
X15314999D02*
D03*
X14230005Y4064998D02*
D03*
X14089999D02*
D03*
X14230000Y3394998D02*
D03*
X14089999D02*
D03*
X14230000Y4734998D02*
D03*
X14089999D02*
D03*
X14230000Y5404998D02*
D03*
X14089999D02*
D03*
X15455000Y4064998D02*
D03*
X15314999D02*
D03*
X15455005Y2724998D02*
D03*
X15314999D02*
D03*
X15455000Y4734998D02*
D03*
X15314999D02*
D03*
D27*
X7630000Y1360991D02*
D03*
Y1500991D02*
D03*
X9535002Y1680001D02*
D03*
Y1540001D02*
D03*
X10180000Y1420000D02*
D03*
Y1280000D02*
D03*
X9135002Y1492502D02*
D03*
Y1352502D02*
D03*
X7970000Y2050000D02*
D03*
Y2190000D02*
D03*
X4170001Y2370000D02*
D03*
Y2230000D02*
D03*
X9600002Y3569999D02*
D03*
Y3429998D02*
D03*
X6100000Y3630000D02*
D03*
Y3770000D02*
D03*
X6400000Y3630000D02*
D03*
Y3770000D02*
D03*
X11080000Y1760000D02*
D03*
Y1620000D02*
D03*
X8307497Y4313751D02*
D03*
Y4173751D02*
D03*
X10300000Y3570002D02*
D03*
Y3430002D02*
D03*
X11100000Y3655000D02*
D03*
Y3515000D02*
D03*
X8140000Y3710000D02*
D03*
Y3570000D02*
D03*
X8455000Y3710000D02*
D03*
Y3570000D02*
D03*
X3150000Y5290000D02*
D03*
Y5150000D02*
D03*
X6395000Y4235000D02*
D03*
Y4375000D02*
D03*
X5650000Y2810000D02*
D03*
Y2670000D02*
D03*
X5605000Y4180000D02*
D03*
Y4320000D02*
D03*
X7090000Y4180000D02*
D03*
Y4320000D02*
D03*
X7050000Y2670000D02*
D03*
Y2810000D02*
D03*
X5800000Y3630000D02*
D03*
Y3770000D02*
D03*
X2895001Y2370000D02*
D03*
Y2230000D02*
D03*
X3150001Y2370000D02*
D03*
Y2230000D02*
D03*
X4425001Y2370000D02*
D03*
Y2230000D02*
D03*
X3660001Y2370000D02*
D03*
Y2230000D02*
D03*
X3405001Y2370000D02*
D03*
Y2230000D02*
D03*
X3915001Y2370000D02*
D03*
Y2230000D02*
D03*
X4680001Y2370000D02*
D03*
Y2230000D02*
D03*
X8579007Y5494999D02*
D03*
Y5634998D02*
D03*
X9139007Y5494999D02*
D03*
Y5634998D02*
D03*
X8019007Y5494999D02*
D03*
Y5634998D02*
D03*
X7459007D02*
D03*
Y5494999D02*
D03*
X10259007D02*
D03*
Y5634998D02*
D03*
X11379006Y5494999D02*
D03*
Y5634998D02*
D03*
X9699007Y5494999D02*
D03*
Y5634998D02*
D03*
X10819007Y5494999D02*
D03*
Y5634998D02*
D03*
D36*
X14670000Y5500000D02*
D03*
X14585001Y5700000D02*
D03*
X13445001Y5500001D02*
D03*
X13359996Y5699998D02*
D03*
X14670001Y4830001D02*
D03*
X14584996Y5029998D02*
D03*
X13445001Y4829996D02*
D03*
X13359996Y5030003D02*
D03*
X14670001Y4160001D02*
D03*
X14584996Y4359998D02*
D03*
X13445001Y4160001D02*
D03*
X13359996Y4359998D02*
D03*
X13445001Y3490001D02*
D03*
X13359996Y3689998D02*
D03*
X14670001Y2820001D02*
D03*
X14584996Y3019998D02*
D03*
X13445001Y2819996D02*
D03*
X13360001Y3020003D02*
D03*
X14670001Y3489996D02*
D03*
X14584996Y3690003D02*
D03*
X8920000Y2205000D02*
D03*
Y2055000D02*
D03*
X8650000Y1225000D02*
D03*
Y1375000D02*
D03*
X9910000Y1315000D02*
D03*
Y1465000D02*
D03*
X8140000Y2465000D02*
D03*
Y2315000D02*
D03*
X6850000Y1475000D02*
D03*
Y1325000D02*
D03*
Y1825000D02*
D03*
Y1675000D02*
D03*
X4285000Y4440000D02*
D03*
Y4590000D02*
D03*
Y4745000D02*
D03*
Y4895000D02*
D03*
X4170001Y2515000D02*
D03*
Y2665000D02*
D03*
Y1935000D02*
D03*
Y2085000D02*
D03*
X6600000Y2825000D02*
D03*
Y2975000D02*
D03*
X6300000Y2975000D02*
D03*
Y2825000D02*
D03*
X10835000Y1615000D02*
D03*
Y1765000D02*
D03*
X7150000Y1675000D02*
D03*
Y1825000D02*
D03*
Y1325000D02*
D03*
Y1475000D02*
D03*
X8140000Y3230000D02*
D03*
Y3380000D02*
D03*
X8455000Y3390000D02*
D03*
Y3240000D02*
D03*
X4495000Y4895000D02*
D03*
Y4745000D02*
D03*
Y4590000D02*
D03*
Y4440000D02*
D03*
X4705000Y4895000D02*
D03*
Y4745000D02*
D03*
Y4590000D02*
D03*
Y4440000D02*
D03*
X4915000Y4590000D02*
D03*
Y4440000D02*
D03*
Y4895000D02*
D03*
Y4745000D02*
D03*
X8030000Y1355000D02*
D03*
Y1205000D02*
D03*
X8030000Y1505000D02*
D03*
Y1655000D02*
D03*
X2895001Y1935000D02*
D03*
Y2085000D02*
D03*
Y2515000D02*
D03*
Y2665000D02*
D03*
X3150001Y1935000D02*
D03*
Y2085000D02*
D03*
Y2515000D02*
D03*
Y2665000D02*
D03*
X4425001Y2515000D02*
D03*
Y2665000D02*
D03*
Y1935000D02*
D03*
Y2085000D02*
D03*
X3660001Y2515000D02*
D03*
Y2665000D02*
D03*
Y1935000D02*
D03*
Y2085000D02*
D03*
X3405001Y2515000D02*
D03*
Y2665000D02*
D03*
Y1935000D02*
D03*
Y2085000D02*
D03*
X3915001Y2515000D02*
D03*
Y2665000D02*
D03*
Y1935000D02*
D03*
Y2085000D02*
D03*
X4680001Y2515000D02*
D03*
Y2665000D02*
D03*
Y1935000D02*
D03*
Y2085000D02*
D03*
X8399007Y5639997D02*
D03*
Y5490000D02*
D03*
X8579007Y5144997D02*
D03*
Y5294999D02*
D03*
X8399007Y5144997D02*
D03*
Y5294999D02*
D03*
X8959007Y5639997D02*
D03*
Y5490000D02*
D03*
X9139007Y5144997D02*
D03*
Y5294999D02*
D03*
X8959007Y5144997D02*
D03*
Y5294999D02*
D03*
X7839007Y5639997D02*
D03*
Y5490000D02*
D03*
X8019007Y5144997D02*
D03*
Y5294999D02*
D03*
X7839007Y5144997D02*
D03*
Y5294999D02*
D03*
X7279008Y5490000D02*
D03*
Y5639997D02*
D03*
X7459007Y5294999D02*
D03*
Y5144997D02*
D03*
X7279008Y5294999D02*
D03*
Y5144997D02*
D03*
X10079007Y5639997D02*
D03*
Y5490000D02*
D03*
X10259007Y5144997D02*
D03*
Y5294999D02*
D03*
X10079007Y5144997D02*
D03*
Y5294999D02*
D03*
X11199007Y5639997D02*
D03*
Y5490000D02*
D03*
X11379006Y5144997D02*
D03*
Y5294999D02*
D03*
X11199007Y5144997D02*
D03*
Y5294999D02*
D03*
X9519007Y5639997D02*
D03*
Y5490000D02*
D03*
X9699007Y5144997D02*
D03*
Y5294999D02*
D03*
X9519007Y5144997D02*
D03*
Y5294999D02*
D03*
X10639007Y5639997D02*
D03*
Y5490000D02*
D03*
X10819007Y5144997D02*
D03*
Y5294999D02*
D03*
X10639007Y5144997D02*
D03*
Y5294999D02*
D03*
X13825002Y3165001D02*
D03*
Y3015003D02*
D03*
X13615001Y2884999D02*
D03*
Y3034996D02*
D03*
X13360001Y3170001D02*
D03*
X13445001Y2669999D02*
D03*
X15050000Y5695000D02*
D03*
Y5844999D02*
D03*
X14839999Y5715000D02*
D03*
Y5565000D02*
D03*
X14585001Y5849999D02*
D03*
X14670000Y5350000D02*
D03*
X13825002Y4354998D02*
D03*
Y4504995D02*
D03*
X13615001Y4375001D02*
D03*
Y4225004D02*
D03*
X13359996Y4509995D02*
D03*
X13445001Y4010004D02*
D03*
X13825002Y3684998D02*
D03*
Y3835000D02*
D03*
X13615001Y3705001D02*
D03*
Y3554999D02*
D03*
X13359996Y3840000D02*
D03*
X13445001Y3339999D02*
D03*
X13825002Y5025003D02*
D03*
Y5175000D02*
D03*
X13615001Y5044996D02*
D03*
Y4894999D02*
D03*
X13359996Y5180000D02*
D03*
X13445001Y4679999D02*
D03*
X13825002Y5694998D02*
D03*
Y5845000D02*
D03*
X13615001Y5715001D02*
D03*
Y5564999D02*
D03*
X13359996Y5850000D02*
D03*
X13445001Y5349999D02*
D03*
X15050002Y3685003D02*
D03*
Y3835000D02*
D03*
X14840001Y3704996D02*
D03*
Y3554999D02*
D03*
X14584996Y3840000D02*
D03*
X14670001Y3339999D02*
D03*
X15050002Y4354998D02*
D03*
Y4505000D02*
D03*
X14840001Y4375001D02*
D03*
Y4224999D02*
D03*
X14584996Y4510000D02*
D03*
X14670001Y4009999D02*
D03*
X15050002Y3014998D02*
D03*
Y3164995D02*
D03*
X14840001Y3035001D02*
D03*
Y2885004D02*
D03*
X14584996Y3169995D02*
D03*
X14670001Y2670004D02*
D03*
X15050002Y5024998D02*
D03*
Y5175000D02*
D03*
X14840001Y5045001D02*
D03*
Y4894999D02*
D03*
X14584996Y5180000D02*
D03*
X14670001Y4679999D02*
D03*
D77*
X14480000Y2300000D02*
D03*
D78*
X15724995Y2210000D02*
D03*
X16225000Y2210000D02*
D03*
D79*
X16700000Y4875000D02*
D03*
X16825000D02*
D03*
X16700000Y4625000D02*
D03*
X16825000D02*
D03*
X16700000Y4375000D02*
D03*
X16825000D02*
D03*
X16700000Y4125000D02*
D03*
X16825000D02*
D03*
X16700000Y3875000D02*
D03*
X16825000D02*
D03*
X16700000Y3625000D02*
D03*
X16825000D02*
D03*
X16700000Y3375000D02*
D03*
X16825000D02*
D03*
X16700000Y3125000D02*
D03*
X16825000D02*
D03*
X16700000Y2875000D02*
D03*
X16825000D02*
D03*
X16700000Y2625000D02*
D03*
X16825000D02*
D03*
X2660000Y1625000D02*
D03*
X4940001Y1625000D02*
D03*
X3050001Y1500001D02*
D03*
X3175000D02*
D03*
X3299998D02*
D03*
X3425002D02*
D03*
X3550001D02*
D03*
X3674999D02*
D03*
X3800003D02*
D03*
X3925001D02*
D03*
X4050000D02*
D03*
X4174998D02*
D03*
X4300002D02*
D03*
X4425000D02*
D03*
X4549998D02*
D03*
X3050002Y1625000D02*
D03*
X3175000D02*
D03*
X3299998D02*
D03*
X3425002D02*
D03*
X3550000D02*
D03*
X3674999D02*
D03*
X3800003D02*
D03*
X3925001D02*
D03*
X4050000D02*
D03*
X4174998D02*
D03*
X4300002D02*
D03*
X4425000D02*
D03*
X4549999D02*
D03*
X16700000Y2500000D02*
D03*
X16825000Y2375000D02*
D03*
Y2500000D02*
D03*
X16700000Y2250000D02*
D03*
X16825000D02*
D03*
X16700000Y2125000D02*
D03*
X16825000D02*
D03*
X16700000Y2375000D02*
D03*
Y2000000D02*
D03*
X16825000D02*
D03*
X16700000Y1610000D02*
D03*
Y5390000D02*
D03*
X16825000Y2750000D02*
D03*
Y3000000D02*
D03*
Y3250000D02*
D03*
Y3500000D02*
D03*
Y3750000D02*
D03*
Y4000000D02*
D03*
Y4250000D02*
D03*
Y4500000D02*
D03*
Y4750000D02*
D03*
Y5000000D02*
D03*
X16700000Y2750000D02*
D03*
Y3000000D02*
D03*
Y3250000D02*
D03*
Y3500000D02*
D03*
Y3750000D02*
D03*
Y4000000D02*
D03*
Y4250000D02*
D03*
Y4500000D02*
D03*
Y4750000D02*
D03*
Y5000000D02*
D03*
D80*
X8949998Y4299999D02*
D03*
X9200000D02*
D03*
X9450002D02*
D03*
X10949999Y2600001D02*
D03*
X10699997D02*
D03*
X10450000D02*
D03*
X10950002Y4300002D02*
D03*
X10700000D02*
D03*
X10449998D02*
D03*
X8949998Y2599999D02*
D03*
X9200000D02*
D03*
X9450002D02*
D03*
D81*
X9699999Y4299999D02*
D03*
X11200001Y2600001D02*
D03*
X11199999Y4300001D02*
D03*
X9699999Y2599999D02*
D03*
D82*
X13972000Y2300000D02*
D03*
X14225999D02*
D03*
X5451000Y1251000D02*
D03*
X5705000Y1505000D02*
D03*
X5451000D02*
D03*
X5705000Y1759000D02*
D03*
X5451000D02*
D03*
D83*
X1450000Y5322500D02*
D03*
Y4877497D02*
D03*
D84*
X1150001Y4682502D02*
D03*
X1150001Y5517501D02*
D03*
D85*
X5705000Y1251000D02*
D03*
D94*
X15927499Y4300000D02*
D03*
X16352499D02*
D03*
X15927499Y4810001D02*
D03*
X16352499Y4810001D02*
D03*
X15927499Y2770000D02*
D03*
X16352499D02*
D03*
X15927499Y3280000D02*
D03*
X16352499D02*
D03*
X15927499Y3790000D02*
D03*
X16352499D02*
D03*
D95*
X5500000Y3622500D02*
D03*
Y3777500D02*
D03*
X6700000D02*
D03*
Y3622500D02*
D03*
D96*
X4719498Y1329497D02*
D03*
X4620503Y1230502D02*
D03*
%TF.MD5,ab8585c63cb6502ca8fcb5aefcea75d0*%
M02*
