%TF.GenerationSoftware,Altium Limited,Altium Designer,22.4.2 (48)*%
G04 Layer_Physical_Order=5*
G04 Layer_Color=16737945*
%FSLAX45Y45*%
%MOMM*%
%TF.SameCoordinates,DD45EC1B-027E-4741-A071-7A00BA1CB46E*%
%TF.FilePolarity,Positive*%
%TF.FileFunction,Copper,L5,Inr,Signal*%
%TF.Part,Single*%
G01*
G75*
%TA.AperFunction,Conductor*%
%ADD11C,0.25400*%
%ADD16C,0.38100*%
%TA.AperFunction,ComponentPad*%
%ADD77R,1.50000X1.50000*%
%ADD78C,4.30000*%
%ADD79C,1.10000*%
%ADD80C,1.59000*%
%ADD81R,1.59000X1.59000*%
%ADD82C,1.50000*%
%ADD83O,1.25000X1.05000*%
%ADD84O,1.90000X1.20000*%
%ADD85R,1.50000X1.50000*%
%TA.AperFunction,ViaPad*%
%ADD86C,0.60000*%
%ADD87C,1.00000*%
%ADD88C,0.80000*%
%ADD89C,0.50000*%
%ADD90C,6.00000*%
%ADD91C,1.40000*%
D11*
X6074497Y2975000D02*
G03*
X5990000Y2940000I0J-119497D01*
G01*
X9739791Y1645001D02*
G03*
X9919396Y1719396I0J254000D01*
G01*
X9779789Y1535002D02*
G03*
X9959394Y1609396I0J254000D01*
G01*
X9764790Y1590000D02*
G03*
X9944395Y1664395I0J254000D01*
G01*
X10375606Y2175606D02*
G03*
X10450000Y2355211I-179605J179605D01*
G01*
X10625603Y2345603D02*
G03*
X10699997Y2525208I-179605J179605D01*
G01*
X9075151Y1520002D02*
G03*
X9220000Y1580000I0J204847D01*
G01*
X9376927Y1645001D02*
G03*
X9220000Y1580000I0J-221929D01*
G01*
X9410000Y1590000D02*
G03*
X9239290Y1519290I0J-241421D01*
G01*
X9111364Y1455001D02*
G03*
X9220000Y1500000I0J153635D01*
G01*
X9390002Y1535002D02*
G03*
X9313181Y1503181I0J-108641D01*
G01*
X9094791Y1390002D02*
G03*
X9274396Y1464396I0J254000D01*
G01*
X7074395Y2158056D02*
G03*
X7000000Y1978450I179605J-179605D01*
G01*
X4310210Y3075000D02*
G03*
X4130605Y3000605I0J-254000D01*
G01*
X3124396Y1994396D02*
G03*
X3050002Y1814791I179605J-179605D01*
G01*
X4280210Y3175000D02*
G03*
X4100605Y3100605I0J-254000D01*
G01*
X3014395Y2014395D02*
G03*
X2940000Y1834790I179605J-179605D01*
G01*
Y1610003D02*
G03*
X3050001Y1500001I110001J0D01*
G01*
X6600000Y4515000D02*
G03*
X6471967Y4461967I0J-181066D01*
G01*
X6353432Y4400000D02*
G03*
X6450000Y4440000I0J136568D01*
G01*
X4585605Y4474395D02*
G03*
X4765210Y4400000I179605J179605D01*
G01*
X7409395Y4440605D02*
G03*
X7229790Y4515000I-179605J-179605D01*
G01*
X6491924Y4570000D02*
G03*
X6335000Y4505000I0J-221924D01*
G01*
X6262574Y4475000D02*
G03*
X6335000Y4505000I0J102426D01*
G01*
X4720605Y4549395D02*
G03*
X4900210Y4475000I179605J179605D01*
G01*
X4860605Y4619395D02*
G03*
X5040210Y4545000I179605J179605D01*
G01*
X6160000D02*
G03*
X6279497Y4594498I0J168995D01*
G01*
X6352426Y4625000D02*
G03*
X6280000Y4595000I0J-102426D01*
G01*
X7454395Y4495605D02*
G03*
X7274790Y4570000I-179605J-179605D01*
G01*
X7499395Y4550605D02*
G03*
X7319790Y4625000I-179605J-179605D01*
G01*
X7278432Y4285000D02*
G03*
X7375000Y4325000I0J136568D01*
G01*
X6560000Y4310000D02*
G03*
X6620355Y4285000I60355J60355D01*
G01*
X6560000Y4310000D02*
G03*
X6511716Y4330000I-48284J-48284D01*
G01*
X4445605Y4404395D02*
G03*
X4625210Y4330000I179605J179605D01*
G01*
X11584395Y3925605D02*
G03*
X11404790Y4000000I-179605J-179605D01*
G01*
X6875000Y2985000D02*
G03*
X6800000Y3060000I-75000J0D01*
G01*
X6009498D02*
G03*
X5925000Y3025000I0J-119497D01*
G01*
X8915211Y3895000D02*
G03*
X8735605Y3820605I0J-254000D01*
G01*
X11469395D02*
G03*
X11289790Y3895000I-179605J-179605D01*
G01*
X8195605Y4074395D02*
G03*
X8375210Y4000000I179605J179605D01*
G01*
X11354789Y3105000D02*
G03*
X11534395Y3179395I0J254000D01*
G01*
X7670605Y2929395D02*
G03*
X7850211Y2855000I179605J179605D01*
G01*
X7620605Y3179395D02*
G03*
X7800210Y3105000I179605J179605D01*
G01*
X11489395Y2675605D02*
G03*
X11309789Y2750000I-179605J-179605D01*
G01*
X11484395Y2780605D02*
G03*
X11304790Y2855000I-179605J-179605D01*
G01*
X11600000Y3584790D02*
G03*
X11525605Y3764395I-254000J0D01*
G01*
X8638432Y3780000D02*
G03*
X8735000Y3820000I0J136568D01*
G01*
X8195605Y3854395D02*
G03*
X8375210Y3780000I179605J179605D01*
G01*
X8074395Y3975605D02*
G03*
X7894790Y4050000I-179605J-179605D01*
G01*
X8180000Y4090000D02*
G03*
X8035147Y4150000I-144853J-144853D01*
G01*
X8240605Y4174395D02*
G03*
X8420210Y4100000I179605J179605D01*
G01*
X11584395Y4025605D02*
G03*
X11404790Y4100000I-179605J-179605D01*
G01*
X8235000Y4180000D02*
G03*
X8066005Y4250000I-168995J-168995D01*
G01*
X8090210Y4585000D02*
G03*
X7910605Y4510605I0J-254000D01*
G01*
X11600000Y4685000D02*
G03*
X11479289Y4735000I-120710J-120710D01*
G01*
X7665210D02*
G03*
X7485605Y4660605I0J-254000D01*
G01*
X11515000Y4835000D02*
G03*
X11600000Y4920000I0J85000D01*
G01*
X7210000Y4835000D02*
G03*
X7125000Y4750000I0J-85000D01*
G01*
X7099395Y4969395D02*
G03*
X7025000Y4789790I179605J-179605D01*
G01*
X7510210Y5275000D02*
G03*
X7330605Y5200605I0J-254000D01*
G01*
X11419790Y5275000D02*
G03*
X11599395Y5349395I0J254000D01*
G01*
X9919396Y1719396D02*
X10375606Y2175606D01*
X9959394Y1609396D02*
X10949999Y2600001D01*
X9944395Y1664395D02*
X10625603Y2345603D01*
X8880002Y1520002D02*
X9075151D01*
X9376927Y1645001D02*
X9739791D01*
X8800002Y1455001D02*
X9111364D01*
X10450000Y2355211D02*
Y2600001D01*
X9410000Y1590000D02*
X9764790D01*
X10699997Y2525208D02*
Y2600001D01*
X9220000Y1500000D02*
X9239290Y1519290D01*
X9274396Y1464396D02*
X9313181Y1503181D01*
X9390002Y1535002D02*
X9779789D01*
X8880002Y1390002D02*
X9094791D01*
X7074395Y2158056D02*
X7195000Y2278661D01*
X4310210Y3075000D02*
X5575000D01*
X3124396Y1994396D02*
X4130605Y3000605D01*
X3050002Y1625000D02*
Y1814791D01*
X3014395Y2014395D02*
X4100605Y3100605D01*
X4280210Y3175000D02*
X5575000D01*
X3050001Y1500000D02*
Y1500001D01*
X2940000Y1610003D02*
Y1834790D01*
X7000000Y1650000D02*
Y1978450D01*
X6600000Y4515000D02*
X7229790D01*
X4765210Y4400000D02*
X6353432D01*
X6450000Y4440000D02*
X6471967Y4461967D01*
X4625210Y4330000D02*
X6511716D01*
X7409395Y4440605D02*
X7450000Y4400000D01*
X6491924Y4570000D02*
X7274790D01*
X4900210Y4475000D02*
X6262574D01*
X4600000Y4670000D02*
X4720605Y4549395D01*
X6352426Y4625000D02*
X7319790D01*
X4390000Y4670000D02*
X4585605Y4474395D01*
X4810000Y4670000D02*
X4860605Y4619395D01*
X5040210Y4545000D02*
X6160000D01*
X6279497Y4594498D02*
X6280000Y4595000D01*
X7454395Y4495605D02*
X7550000Y4400000D01*
X7499395Y4550605D02*
X7650000Y4400000D01*
X6620355Y4285000D02*
X7278432D01*
X4180000Y4670000D02*
X4445605Y4404395D01*
X11584395Y3925605D02*
X11595000Y3915000D01*
X6875000Y2900000D02*
Y2985000D01*
X6009498Y3060000D02*
X6800000D01*
X6074497Y2975000D02*
X6800000D01*
X8915211Y3895000D02*
X11289790D01*
X8375210Y4000000D02*
X11404790D01*
X7800210Y3105000D02*
X11354789D01*
X7750000Y4150000D02*
X8035147D01*
X7750000Y4050000D02*
X7894790D01*
X7750000Y4250000D02*
X8066005D01*
X7075000Y3525000D02*
X7670605Y2929395D01*
X7275000Y3525000D02*
X7620605Y3179395D01*
X11534395D02*
X11600000Y3245000D01*
X7850211Y2855000D02*
X11304790D01*
X11489395Y2675605D02*
X11595000Y2570000D01*
X6800000Y2750000D02*
X11309789D01*
X11484395Y2780605D02*
X11595000Y2670000D01*
X11600000Y3345000D02*
Y3584790D01*
X11469395Y3820605D02*
X11525605Y3764395D01*
X8735000Y3820000D02*
X8735605Y3820605D01*
X8375210Y3780000D02*
X8638432D01*
X8074395Y3975605D02*
X8195605Y3854395D01*
X8180000Y4090000D02*
X8195605Y4074395D01*
X8235000Y4180000D02*
X8240605Y4174395D01*
X11584395Y4025605D02*
X11595000Y4015000D01*
X8420210Y4100000D02*
X11404790D01*
X7210000Y4835000D02*
X11515000D01*
X7665210Y4735000D02*
X11479289D01*
X8090210Y4585000D02*
X11600000D01*
X7750000Y4350000D02*
X7910605Y4510605D01*
X7475000Y4650000D02*
X7485605Y4660605D01*
X7025000Y4750000D02*
Y4789790D01*
X11600000Y4920000D02*
Y5250000D01*
X7099395Y4969395D02*
X7330605Y5200605D01*
X7565000Y5275000D02*
X11419790Y5275000D01*
X7510210Y5275000D02*
X7565000D01*
X11599395Y5349395D02*
X11600000Y5350000D01*
D16*
X16700000Y2375000D02*
G03*
X16605000Y2280000I0J-95000D01*
G01*
X16356528Y1758500D02*
G03*
X16605000Y2006972I0J248472D01*
G01*
X15903500Y1758500D02*
G03*
X15750198Y1695000I0J-216801D01*
G01*
X15632524Y1577327D02*
G03*
X15571500Y1430000I147327J-147326D01*
G01*
X15537206Y1347204D02*
G03*
X15571500Y1430000I-82796J82796D01*
G01*
X15214041Y1129250D02*
G03*
X15393646Y1203645I0J254000D01*
G01*
X10210000Y1600000D02*
G03*
X10180000Y1527574I72426J-72426D01*
G01*
Y1383249D02*
G03*
X10434000Y1129249I254000J0D01*
G01*
X16920000Y2280000D02*
G03*
X16825000Y2375000I-95000J0D01*
G01*
X16810001Y1830000D02*
G03*
X16920000Y1940000I0J110000D01*
G01*
X16755708Y1830000D02*
G03*
X16609395Y1769395I0J-206919D01*
G01*
X16429790Y1695000D02*
G03*
X16609395Y1769395I0J254000D01*
G01*
X15903500Y1695000D02*
G03*
X15795099Y1650099I0J-153301D01*
G01*
X15582106Y1302303D02*
G03*
X15635001Y1430000I-127697J127697D01*
G01*
X15214040Y1065750D02*
G03*
X15438547Y1158744I0J317500D01*
G01*
X10116500Y1383249D02*
G03*
X10434000Y1065749I317500J0D01*
G01*
X10116500Y1536023D02*
G03*
X10090000Y1600000I-90477J0D01*
G01*
X15677426Y1532425D02*
G03*
X15635001Y1430000I102425J-102425D01*
G01*
X16605000Y2006972D02*
Y2280000D01*
X15903500Y1758500D02*
X16356528D01*
X15632524Y1577327D02*
X15632526Y1577327D01*
X15393646Y1203645D02*
X15537206Y1347204D01*
X10740000Y1129249D02*
X15214041Y1129250D01*
X10434000Y1129249D02*
X10740000D01*
X10180000Y1383249D02*
Y1527574D01*
X16920000Y1940000D02*
Y2280000D01*
X16755708Y1830000D02*
X16810001D01*
X15903500Y1695000D02*
X16429790D01*
X15438547Y1158744D02*
X15582106Y1302303D01*
X10740000Y1065749D02*
X15214040Y1065750D01*
X10434000Y1065749D02*
X10740000D01*
X10116500Y1383249D02*
Y1536023D01*
X15632526Y1577327D02*
X15750198Y1695000D01*
X15677426Y1532426D02*
X15795099Y1650099D01*
D77*
X14480000Y2300000D02*
D03*
D78*
X15724995Y2210000D02*
D03*
X16225000Y2210000D02*
D03*
D79*
X16700000Y4875000D02*
D03*
X16825000D02*
D03*
X16700000Y4625000D02*
D03*
X16825000D02*
D03*
X16700000Y4375000D02*
D03*
X16825000D02*
D03*
X16700000Y4125000D02*
D03*
X16825000D02*
D03*
X16700000Y3875000D02*
D03*
X16825000D02*
D03*
X16700000Y3625000D02*
D03*
X16825000D02*
D03*
X16700000Y3375000D02*
D03*
X16825000D02*
D03*
X16700000Y3125000D02*
D03*
X16825000D02*
D03*
X16700000Y2875000D02*
D03*
X16825000D02*
D03*
X16700000Y2625000D02*
D03*
X16825000D02*
D03*
X2660000Y1625000D02*
D03*
X4940001Y1625000D02*
D03*
X3050001Y1500001D02*
D03*
X3175000D02*
D03*
X3299998D02*
D03*
X3425002D02*
D03*
X3550001D02*
D03*
X3674999D02*
D03*
X3800003D02*
D03*
X3925001D02*
D03*
X4050000D02*
D03*
X4174998D02*
D03*
X4300002D02*
D03*
X4425000D02*
D03*
X4549998D02*
D03*
X3050002Y1625000D02*
D03*
X3175000D02*
D03*
X3299998D02*
D03*
X3425002D02*
D03*
X3550000D02*
D03*
X3674999D02*
D03*
X3800003D02*
D03*
X3925001D02*
D03*
X4050000D02*
D03*
X4174998D02*
D03*
X4300002D02*
D03*
X4425000D02*
D03*
X4549999D02*
D03*
X16700000Y2500000D02*
D03*
X16825000Y2375000D02*
D03*
Y2500000D02*
D03*
X16700000Y2250000D02*
D03*
X16825000D02*
D03*
X16700000Y2125000D02*
D03*
X16825000D02*
D03*
X16700000Y2375000D02*
D03*
Y2000000D02*
D03*
X16825000D02*
D03*
X16700000Y1610000D02*
D03*
Y5390000D02*
D03*
X16825000Y2750000D02*
D03*
Y3000000D02*
D03*
Y3250000D02*
D03*
Y3500000D02*
D03*
Y3750000D02*
D03*
Y4000000D02*
D03*
Y4250000D02*
D03*
Y4500000D02*
D03*
Y4750000D02*
D03*
Y5000000D02*
D03*
X16700000Y2750000D02*
D03*
Y3000000D02*
D03*
Y3250000D02*
D03*
Y3500000D02*
D03*
Y3750000D02*
D03*
Y4000000D02*
D03*
Y4250000D02*
D03*
Y4500000D02*
D03*
Y4750000D02*
D03*
Y5000000D02*
D03*
D80*
X8949998Y4299999D02*
D03*
X9200000D02*
D03*
X9450002D02*
D03*
X10949999Y2600001D02*
D03*
X10699997D02*
D03*
X10450000D02*
D03*
X10950002Y4300002D02*
D03*
X10700000D02*
D03*
X10449998D02*
D03*
X8949998Y2599999D02*
D03*
X9200000D02*
D03*
X9450002D02*
D03*
D81*
X9699999Y4299999D02*
D03*
X11200001Y2600001D02*
D03*
X11199999Y4300001D02*
D03*
X9699999Y2599999D02*
D03*
D82*
X13972000Y2300000D02*
D03*
X14225999D02*
D03*
X5451000Y1251000D02*
D03*
X5705000Y1505000D02*
D03*
X5451000D02*
D03*
X5705000Y1759000D02*
D03*
X5451000D02*
D03*
D83*
X1450000Y5322500D02*
D03*
Y4877497D02*
D03*
D84*
X1150001Y4682502D02*
D03*
X1150001Y5517501D02*
D03*
D85*
X5705000Y1251000D02*
D03*
D86*
X7380000Y1240491D02*
D03*
Y1621491D02*
D03*
X5990000Y2940000D02*
D03*
X5925858Y2810000D02*
D03*
X10050000Y2050000D02*
D03*
X10020000Y1440000D02*
D03*
Y1330000D02*
D03*
X9727502Y1822502D02*
D03*
X8620000Y2500000D02*
D03*
X8700000Y2160000D02*
D03*
Y2060000D02*
D03*
X9135002Y1199050D02*
D03*
X9380002Y1205001D02*
D03*
X9385002Y1460001D02*
D03*
Y1380001D02*
D03*
X9395000Y1755000D02*
D03*
X9470002Y1330001D02*
D03*
X9485002Y1410001D02*
D03*
X8800002Y1325001D02*
D03*
X8880002Y1390002D02*
D03*
X8800002Y1455001D02*
D03*
X8880002Y1520002D02*
D03*
X8700000Y1725000D02*
D03*
X8825000D02*
D03*
X7600000Y2150000D02*
D03*
Y2300000D02*
D03*
X7195000Y2278661D02*
D03*
X6700000Y1700000D02*
D03*
X5880000Y2040000D02*
D03*
X5990000D02*
D03*
X6118446Y2485000D02*
D03*
X5800000Y2150000D02*
D03*
X5880000Y2220000D02*
D03*
X8130000Y2050000D02*
D03*
Y2170000D02*
D03*
X5475000Y2525000D02*
D03*
X5575000D02*
D03*
X8050000Y2625000D02*
D03*
X6050000Y2675000D02*
D03*
X8650000Y3000000D02*
D03*
X5950000Y2675000D02*
D03*
X5770000Y2870000D02*
D03*
X4050000Y5775000D02*
D03*
X3975000Y5700000D02*
D03*
X4050000Y5625000D02*
D03*
X7300000Y3650000D02*
D03*
X9920000Y3370000D02*
D03*
X11475000Y3687501D02*
D03*
Y3562498D02*
D03*
Y3437499D02*
D03*
X10580000Y3450000D02*
D03*
X10920000Y3500000D02*
D03*
Y3640000D02*
D03*
X10020000Y3570000D02*
D03*
Y3470000D02*
D03*
X3350000Y5750000D02*
D03*
X9425000Y3350000D02*
D03*
X8150000Y2625000D02*
D03*
X2235000Y1815000D02*
D03*
X2375000D02*
D03*
X7550000Y1950000D02*
D03*
X6925000Y4025000D02*
D03*
Y4150000D02*
D03*
X5575000Y3075000D02*
D03*
Y3175000D02*
D03*
X7000000Y1650000D02*
D03*
X6850000Y1200000D02*
D03*
X7375000Y4325000D02*
D03*
X7450000Y4400000D02*
D03*
X7550000D02*
D03*
X7650000D02*
D03*
X4495000Y5025000D02*
D03*
X4180000Y4670000D02*
D03*
X4390000D02*
D03*
X4600000D02*
D03*
X4810000D02*
D03*
X11595000Y3915000D02*
D03*
X12209999Y5570000D02*
D03*
X5925000Y3025000D02*
D03*
X4715000Y2840000D02*
D03*
X4390000Y2875000D02*
D03*
X4200000Y2890000D02*
D03*
X4110000Y3370000D02*
D03*
X4045000Y3850000D02*
D03*
X5125000Y2875000D02*
D03*
X5220000Y3315000D02*
D03*
X5000000Y3950000D02*
D03*
X5075000Y4025000D02*
D03*
X5300000Y3425000D02*
D03*
X5190000Y3465000D02*
D03*
X5525000Y3275000D02*
D03*
X5425000D02*
D03*
X6800000Y2975000D02*
D03*
X6875000Y2900000D02*
D03*
X7390000Y2830000D02*
D03*
X7085000Y3020000D02*
D03*
X5625000Y4675000D02*
D03*
X5550000Y4750000D02*
D03*
X11600000Y4300001D02*
D03*
X8245000Y3000000D02*
D03*
X8350000D02*
D03*
X8425000Y2650000D02*
D03*
X8525000D02*
D03*
X6570000Y2487300D02*
D03*
X6475000Y2485000D02*
D03*
X6420000Y2275000D02*
D03*
X7750000Y4150000D02*
D03*
Y4050000D02*
D03*
Y4250000D02*
D03*
X7900000Y2955000D02*
D03*
X7800000D02*
D03*
X12839998Y2890000D02*
D03*
X11600000Y3245000D02*
D03*
X7175000Y3525000D02*
D03*
X7075000D02*
D03*
X7275000D02*
D03*
X7375000D02*
D03*
X8475000Y1725000D02*
D03*
X15170000Y3170000D02*
D03*
X7992997Y4930001D02*
D03*
X7865997D02*
D03*
X8119997D02*
D03*
X7475000Y4650000D02*
D03*
X7225000Y4750000D02*
D03*
X7125000D02*
D03*
X7178998Y4930001D02*
D03*
X11960059Y5154931D02*
D03*
X12209999Y5155000D02*
D03*
X11959999Y5825000D02*
D03*
X12209999D02*
D03*
Y5700000D02*
D03*
X6800000Y2750000D02*
D03*
X7750000Y3575000D02*
D03*
Y3475000D02*
D03*
X12209999Y3145000D02*
D03*
Y3020000D02*
D03*
X7700000Y4500000D02*
D03*
X7625000Y4550000D02*
D03*
X7550000Y4600000D02*
D03*
X7400000Y4700000D02*
D03*
X7325000Y4750000D02*
D03*
X7750000Y4350000D02*
D03*
X7025000Y4750000D02*
D03*
X7050000Y5050000D02*
D03*
Y5150000D02*
D03*
X7460000Y5385000D02*
D03*
X9140000D02*
D03*
X7050000Y5250000D02*
D03*
X11600000Y4585000D02*
D03*
X7050000Y5350000D02*
D03*
Y5450000D02*
D03*
X11098997Y4930001D02*
D03*
X7050000Y5550000D02*
D03*
Y5650000D02*
D03*
Y5750000D02*
D03*
X1200000Y3510000D02*
D03*
X7559998Y5854998D02*
D03*
X7305998D02*
D03*
X8030000Y3880000D02*
D03*
X8035000Y3470000D02*
D03*
X8985997Y5854998D02*
D03*
X7050000Y5850000D02*
D03*
X12989998Y5570000D02*
D03*
X12989999Y5460000D02*
D03*
X12739998Y5825000D02*
D03*
X11600000Y3345000D02*
D03*
X12989998Y3145000D02*
D03*
X6025000Y5565000D02*
D03*
Y5645000D02*
D03*
Y5725000D02*
D03*
X5545000Y4960000D02*
D03*
X5485000Y5020000D02*
D03*
X5425000Y5080000D02*
D03*
X7865997Y5854998D02*
D03*
X11225997D02*
D03*
X7992997D02*
D03*
X11352997D02*
D03*
Y4930001D02*
D03*
X9545997Y5854998D02*
D03*
X10919997D02*
D03*
X10105997D02*
D03*
X10665997D02*
D03*
X11595000Y2570000D02*
D03*
Y2670000D02*
D03*
Y4015000D02*
D03*
X11600000Y4685000D02*
D03*
X13935001Y2690000D02*
D03*
X13939999Y3365000D02*
D03*
X13935001Y4035000D02*
D03*
X13939999Y4705000D02*
D03*
X11600000Y5250000D02*
D03*
Y5350000D02*
D03*
X14510001Y5240000D02*
D03*
X13939999Y5370000D02*
D03*
X7124491Y3913275D02*
D03*
X7610000Y3570000D02*
D03*
X7550000Y3630000D02*
D03*
X7580000Y3490000D02*
D03*
X8460000Y4270000D02*
D03*
X7490000Y3690000D02*
D03*
X8440000Y4190000D02*
D03*
X5400000Y2300000D02*
D03*
X10575000Y3350000D02*
D03*
Y3550000D02*
D03*
X10580000Y3650000D02*
D03*
X9780000Y3675000D02*
D03*
X9425000Y3575000D02*
D03*
X9775000Y3525000D02*
D03*
X9425000Y3475000D02*
D03*
X9775000Y3425000D02*
D03*
X8255000Y1621491D02*
D03*
Y1494491D02*
D03*
Y1240491D02*
D03*
Y1367491D02*
D03*
X1650000Y5250000D02*
D03*
X3975000Y5215000D02*
D03*
X4250000Y5220000D02*
D03*
Y5305000D02*
D03*
X6725000Y2825000D02*
D03*
X8300000Y3390000D02*
D03*
X8274998Y3900000D02*
D03*
X3325000Y5111249D02*
D03*
Y5331249D02*
D03*
X3975000Y4896248D02*
D03*
Y5105000D02*
D03*
Y5330000D02*
D03*
Y5550000D02*
D03*
Y5001252D02*
D03*
Y5850000D02*
D03*
X5305000Y3280000D02*
D03*
X5325000Y2575000D02*
D03*
Y2200000D02*
D03*
X5250000Y2100000D02*
D03*
X5100000D02*
D03*
X5250000Y2750000D02*
D03*
X5200000Y2825000D02*
D03*
X5175000Y2675000D02*
D03*
X5100000Y2775000D02*
D03*
X6425000Y2825000D02*
D03*
X4725000Y3325000D02*
D03*
Y3480000D02*
D03*
Y3675000D02*
D03*
X3379998Y4675000D02*
D03*
X3190000D02*
D03*
X2620000D02*
D03*
X1200000Y3650000D02*
D03*
Y3300000D02*
D03*
Y3110000D02*
D03*
Y2925000D02*
D03*
X6600000Y4450000D02*
D03*
X6345000Y3360000D02*
D03*
X6100000Y3475000D02*
D03*
X5250000Y3550000D02*
D03*
X5155000Y3650000D02*
D03*
X6160000Y4620000D02*
D03*
X5740000Y4200000D02*
D03*
X6669950Y4380000D02*
D03*
X5800000Y4260000D02*
D03*
X6220000Y4680000D02*
D03*
X7065000Y3975000D02*
D03*
X14924805Y5835195D02*
D03*
X12989998Y5700000D02*
D03*
X15170000Y5850000D02*
D03*
X15130000Y5455000D02*
D03*
X12989998Y5825000D02*
D03*
X14510001Y5910000D02*
D03*
X14814999Y5350000D02*
D03*
X13700000Y5835000D02*
D03*
X13945000Y5850000D02*
D03*
X12210000Y5460000D02*
D03*
X13905000Y5455000D02*
D03*
X13285001Y5910000D02*
D03*
X13590096Y5350394D02*
D03*
X14925000Y5165000D02*
D03*
X12989998Y5030000D02*
D03*
X15170000Y5180000D02*
D03*
X12989999Y4790000D02*
D03*
X15130000Y4785000D02*
D03*
X12989998Y5155000D02*
D03*
Y4900000D02*
D03*
X14814999Y4680000D02*
D03*
X13700000Y5165000D02*
D03*
X12209999Y5030000D02*
D03*
X13945000Y5180000D02*
D03*
X12210000Y4790000D02*
D03*
X13905000Y4785000D02*
D03*
X13285001Y5240000D02*
D03*
X12209999Y4900000D02*
D03*
X13590096Y4680394D02*
D03*
X14925000Y4495000D02*
D03*
X12989998Y4360000D02*
D03*
X15170000Y4510000D02*
D03*
X12989999Y4120000D02*
D03*
X15130000Y4115000D02*
D03*
X12989998Y4485000D02*
D03*
X14510001Y4570000D02*
D03*
X12989998Y4230000D02*
D03*
X14814999Y4010000D02*
D03*
X13700000Y4495000D02*
D03*
X12209999Y4360000D02*
D03*
X13945000Y4510000D02*
D03*
X12210000Y4120000D02*
D03*
X13905000Y4115000D02*
D03*
X12209999Y4485000D02*
D03*
X13285001Y4570000D02*
D03*
X12209999Y4230000D02*
D03*
X13590096Y4010394D02*
D03*
X14925000Y3825000D02*
D03*
X12989998Y3690000D02*
D03*
X15170000Y3840000D02*
D03*
X12989999Y3450000D02*
D03*
X15130000Y3445000D02*
D03*
X12989998Y3815000D02*
D03*
X14510001Y3900000D02*
D03*
X12989998Y3560000D02*
D03*
X14814999Y3340000D02*
D03*
X13700000Y3825000D02*
D03*
X12209999Y3690000D02*
D03*
X13945000Y3840000D02*
D03*
X12210000Y3450000D02*
D03*
X13905000Y3445000D02*
D03*
X12209999Y3815000D02*
D03*
X13285001Y3900000D02*
D03*
X12209999Y3560000D02*
D03*
X13589999Y3340000D02*
D03*
X6590000Y1395000D02*
D03*
X6590000Y1190000D02*
D03*
X6590000Y1595000D02*
D03*
X6565000Y5844999D02*
D03*
Y5645000D02*
D03*
Y5440000D02*
D03*
Y1835001D02*
D03*
X6340000Y2100000D02*
D03*
X11479997Y4930001D02*
D03*
X8858997D02*
D03*
X8985997D02*
D03*
X8425997D02*
D03*
X8552997D02*
D03*
X8679997D02*
D03*
X10538997D02*
D03*
X9112997Y5854998D02*
D03*
X10232997D02*
D03*
X10359997D02*
D03*
X8679997D02*
D03*
X11225997Y4930001D02*
D03*
X11479997Y5854998D02*
D03*
X11379999Y5385000D02*
D03*
X10665997Y4930001D02*
D03*
X10919997D02*
D03*
X10792997Y5854998D02*
D03*
X10819999Y5385000D02*
D03*
X10792997Y4930001D02*
D03*
X10105997D02*
D03*
X10359997D02*
D03*
X9978997D02*
D03*
X10260000Y5385000D02*
D03*
X10232997Y4930001D02*
D03*
X9545997D02*
D03*
X9799997D02*
D03*
X9672997Y5854998D02*
D03*
X9799997D02*
D03*
X9418997Y4930001D02*
D03*
X9700000Y5385000D02*
D03*
X9672997Y4930001D02*
D03*
X9239997D02*
D03*
Y5854998D02*
D03*
X9112997Y4930001D02*
D03*
X8552997Y5854998D02*
D03*
X8298997Y4930001D02*
D03*
X8580000Y5385000D02*
D03*
X8425997Y5854998D02*
D03*
X8119997D02*
D03*
X7738997Y4930001D02*
D03*
X8020000Y5385000D02*
D03*
X11200001Y3312501D02*
D03*
X7432998Y5854998D02*
D03*
X1650000Y5350000D02*
D03*
X14925000Y3155000D02*
D03*
X7432998Y4930001D02*
D03*
X7559998D02*
D03*
X7305998D02*
D03*
X13589925Y2670135D02*
D03*
X12739998Y3145000D02*
D03*
X12059999Y2890000D02*
D03*
X12209999D02*
D03*
X12210000Y2780000D02*
D03*
X11959999Y2890000D02*
D03*
X12135000Y2830000D02*
D03*
X11959999Y3145000D02*
D03*
X12134999Y2950000D02*
D03*
X12989998Y3020000D02*
D03*
Y2890000D02*
D03*
X12989999Y2780000D02*
D03*
X12739998Y2890000D02*
D03*
X12914999Y2830000D02*
D03*
X12914998Y2950000D02*
D03*
X12059999Y3560000D02*
D03*
X11959999D02*
D03*
X12135000Y3500000D02*
D03*
X11959999Y3815000D02*
D03*
X12134999Y3620000D02*
D03*
X12839998Y3560000D02*
D03*
X12739998D02*
D03*
X12914999Y3500000D02*
D03*
X12739998Y3815000D02*
D03*
X12914998Y3620000D02*
D03*
X12059999Y4230000D02*
D03*
X11959999D02*
D03*
X12135000Y4170000D02*
D03*
X11959999Y4485000D02*
D03*
X12134999Y4290000D02*
D03*
X12839998Y4230000D02*
D03*
X12739998D02*
D03*
X12914999Y4170000D02*
D03*
X12739998Y4485000D02*
D03*
X12914998Y4290000D02*
D03*
X12059999Y4900000D02*
D03*
X11959999D02*
D03*
X12135000Y4840000D02*
D03*
X12134999Y4960000D02*
D03*
X12839998Y4900000D02*
D03*
X12739998D02*
D03*
X12914999Y4840000D02*
D03*
X12739998Y5155000D02*
D03*
X12914998Y4960000D02*
D03*
X12059999Y5570000D02*
D03*
X11959999D02*
D03*
X12135000Y5510000D02*
D03*
X12134999Y5630000D02*
D03*
X12914999Y5510000D02*
D03*
X12914998Y5630000D02*
D03*
X12839998Y5570000D02*
D03*
X12739998D02*
D03*
X13285001Y3230000D02*
D03*
X13905000Y2775000D02*
D03*
X13945000Y3170000D02*
D03*
X13700000Y3155000D02*
D03*
X14814999Y2670000D02*
D03*
X14510001Y3230000D02*
D03*
X15130000Y2775000D02*
D03*
D87*
X14770000Y3155000D02*
D03*
X13544904Y3154606D02*
D03*
X13545000Y3825000D02*
D03*
X14770000D02*
D03*
X13545000Y4495000D02*
D03*
X14770000D02*
D03*
X13545000Y5165000D02*
D03*
X14770000D02*
D03*
X13545000Y5835000D02*
D03*
X14770000D02*
D03*
X6395000Y4100000D02*
D03*
X12900000Y1349999D02*
D03*
X11999999Y1350000D02*
D03*
X15420000Y1410000D02*
D03*
X15600000Y5780000D02*
D03*
X14375000D02*
D03*
X15600000Y5110000D02*
D03*
X14375000D02*
D03*
X15600000Y4440000D02*
D03*
X14375000D02*
D03*
X15600000Y3770000D02*
D03*
X14375000D02*
D03*
X3750000Y5900000D02*
D03*
X2265000Y5250000D02*
D03*
X14375000Y3100000D02*
D03*
X15600000D02*
D03*
D88*
X9400000Y2040000D02*
D03*
Y2140000D02*
D03*
X10210000Y1600000D02*
D03*
X10090000D02*
D03*
X10025002Y1210001D02*
D03*
X8870002Y1235001D02*
D03*
X10345000Y1510000D02*
D03*
X8455000Y3890000D02*
D03*
X10610000Y1765000D02*
D03*
X10600000Y1615000D02*
D03*
X11310000Y1760000D02*
D03*
X8290403Y3525002D02*
D03*
D89*
X9680002Y1385001D02*
D03*
X9780002D02*
D03*
X9680002Y1285001D02*
D03*
X9780002D02*
D03*
D90*
X16000000Y5650000D02*
D03*
X9000000Y3500000D02*
D03*
X16000000Y1350000D02*
D03*
X2000000Y5650000D02*
D03*
Y1350000D02*
D03*
D91*
X13230000Y2050000D02*
D03*
X12230000D02*
D03*
%TF.MD5,b7602588d8937de8d9eb05b8e807a08b*%
M02*
