%TF.GenerationSoftware,Altium Limited,Altium Designer,22.4.2 (48)*%
G04 Layer_Color=2752767*
%FSLAX45Y45*%
%MOMM*%
%TF.SameCoordinates,DD45EC1B-027E-4741-A071-7A00BA1CB46E*%
%TF.FilePolarity,Positive*%
%TF.FileFunction,Drawing*%
%TF.Part,Single*%
G01*
G75*
%TA.AperFunction,NonConductor*%
%ADD122C,0.12700*%
%ADD189C,0.16933*%
%ADD190C,0.10160*%
D122*
X14429201Y2249200D02*
Y2350800D01*
X14530800D01*
Y2249200D01*
X14429201D01*
X16700000Y4824200D02*
X16649200Y4925800D01*
X16750800D01*
X16700000Y4824200D01*
X16825000D02*
X16774200Y4925800D01*
X16875800D01*
X16825000Y4824200D01*
X16700000Y4574200D02*
X16649200Y4675800D01*
X16750800D01*
X16700000Y4574200D01*
X16825000D02*
X16774200Y4675800D01*
X16875800D01*
X16825000Y4574200D01*
X16700000Y4324200D02*
X16649200Y4425800D01*
X16750800D01*
X16700000Y4324200D01*
X16825000D02*
X16774200Y4425800D01*
X16875800D01*
X16825000Y4324200D01*
X16700000Y4074200D02*
X16649200Y4175800D01*
X16750800D01*
X16700000Y4074200D01*
X16825000D02*
X16774200Y4175800D01*
X16875800D01*
X16825000Y4074200D01*
X16700000Y3824200D02*
X16649200Y3925800D01*
X16750800D01*
X16700000Y3824200D01*
X16825000D02*
X16774200Y3925800D01*
X16875800D01*
X16825000Y3824200D01*
X16700000Y3574200D02*
X16649200Y3675800D01*
X16750800D01*
X16700000Y3574200D01*
X16825000D02*
X16774200Y3675800D01*
X16875800D01*
X16825000Y3574200D01*
X16700000Y3324200D02*
X16649200Y3425800D01*
X16750800D01*
X16700000Y3324200D01*
X16825000D02*
X16774200Y3425800D01*
X16875800D01*
X16825000Y3324200D01*
X16700000Y3074200D02*
X16649200Y3175800D01*
X16750800D01*
X16700000Y3074200D01*
X16825000D02*
X16774200Y3175800D01*
X16875800D01*
X16825000Y3074200D01*
X16700000Y2824200D02*
X16649200Y2925800D01*
X16750800D01*
X16700000Y2824200D01*
X16825000D02*
X16774200Y2925800D01*
X16875800D01*
X16825000Y2824200D01*
X16700000Y2574200D02*
X16649200Y2675800D01*
X16750800D01*
X16700000Y2574200D01*
X16825000D02*
X16774200Y2675800D01*
X16875800D01*
X16825000Y2574200D01*
X8949998Y4249199D02*
X8975398Y4274599D01*
X9000798D01*
X8975398Y4299999D01*
X9000798Y4325399D01*
X8975398D01*
X8949998Y4350799D01*
X8924598Y4325399D01*
X8899198D01*
X8924598Y4299999D01*
X8899198Y4274599D01*
X8924598D01*
X8949998Y4249199D01*
X9200000D02*
X9225400Y4274599D01*
X9250800D01*
X9225400Y4299999D01*
X9250800Y4325399D01*
X9225400D01*
X9200000Y4350799D01*
X9174600Y4325399D01*
X9149200D01*
X9174600Y4299999D01*
X9149200Y4274599D01*
X9174600D01*
X9200000Y4249199D01*
X9450002D02*
X9475402Y4274599D01*
X9500802D01*
X9475402Y4299999D01*
X9500802Y4325399D01*
X9475402D01*
X9450002Y4350799D01*
X9424602Y4325399D01*
X9399202D01*
X9424602Y4299999D01*
X9399202Y4274599D01*
X9424602D01*
X9450002Y4249199D01*
X9699999Y4249199D02*
X9725399Y4274599D01*
X9750799D01*
X9725399Y4299999D01*
X9750799Y4325399D01*
X9725399D01*
X9699999Y4350799D01*
X9674599Y4325399D01*
X9649199D01*
X9674599Y4299999D01*
X9649199Y4274599D01*
X9674599D01*
X9699999Y4249199D01*
X2609200Y1574200D02*
X2634600Y1625000D01*
X2609200Y1675800D01*
X2660000Y1650400D01*
X2710800Y1675800D01*
X2685400Y1625000D01*
X2710800Y1574200D01*
X2660000Y1599600D01*
X2609200Y1574200D01*
X4889201Y1574200D02*
X4914601Y1625000D01*
X4889201Y1675800D01*
X4940001Y1650400D01*
X4990801Y1675800D01*
X4965401Y1625000D01*
X4990801Y1574200D01*
X4940001Y1599600D01*
X4889201Y1574200D01*
X3050001Y1449201D02*
X2999201Y1550801D01*
X3100801D01*
X3050001Y1449201D01*
X3175000D02*
X3124200Y1550801D01*
X3225800D01*
X3175000Y1449201D01*
X3299998D02*
X3249198Y1550801D01*
X3350798D01*
X3299998Y1449201D01*
X3425002D02*
X3374202Y1550801D01*
X3475802D01*
X3425002Y1449201D01*
X3550001D02*
X3499201Y1550801D01*
X3600801D01*
X3550001Y1449201D01*
X3674999D02*
X3624199Y1550801D01*
X3725799D01*
X3674999Y1449201D01*
X3800003D02*
X3749203Y1550801D01*
X3850803D01*
X3800003Y1449201D01*
X3925001D02*
X3874201Y1550801D01*
X3975801D01*
X3925001Y1449201D01*
X4050000D02*
X3999200Y1550801D01*
X4100800D01*
X4050000Y1449201D01*
X4174998D02*
X4124198Y1550801D01*
X4225798D01*
X4174998Y1449201D01*
X4300002D02*
X4249202Y1550801D01*
X4350802D01*
X4300002Y1449201D01*
X4425000D02*
X4374200Y1550801D01*
X4475800D01*
X4425000Y1449201D01*
X4549998D02*
X4499198Y1550801D01*
X4600798D01*
X4549998Y1449201D01*
X3050002Y1574200D02*
X2999202Y1675800D01*
X3100802D01*
X3050002Y1574200D01*
X3175000D02*
X3124200Y1675800D01*
X3225800D01*
X3175000Y1574200D01*
X3299998D02*
X3249198Y1675800D01*
X3350798D01*
X3299998Y1574200D01*
X3425002D02*
X3374202Y1675800D01*
X3475802D01*
X3425002Y1574200D01*
X3550000D02*
X3499200Y1675800D01*
X3600800D01*
X3550000Y1574200D01*
X3674999D02*
X3624199Y1675800D01*
X3725799D01*
X3674999Y1574200D01*
X3800003D02*
X3749203Y1675800D01*
X3850803D01*
X3800003Y1574200D01*
X3925001D02*
X3874201Y1675800D01*
X3975801D01*
X3925001Y1574200D01*
X4050000D02*
X3999200Y1675800D01*
X4100800D01*
X4050000Y1574200D01*
X4174998D02*
X4124198Y1675800D01*
X4225798D01*
X4174998Y1574200D01*
X4300002D02*
X4249202Y1675800D01*
X4350802D01*
X4300002Y1574200D01*
X4425000D02*
X4374200Y1675800D01*
X4475800D01*
X4425000Y1574200D01*
X4549999D02*
X4499199Y1675800D01*
X4600799D01*
X4549999Y1574200D01*
X16700000Y2449200D02*
X16649200Y2550800D01*
X16750800D01*
X16700000Y2449200D01*
X16825000Y2324200D02*
X16774200Y2425800D01*
X16875800D01*
X16825000Y2324200D01*
Y2449200D02*
X16774200Y2550800D01*
X16875800D01*
X16825000Y2449200D01*
X16700000Y2199200D02*
X16649200Y2300800D01*
X16750800D01*
X16700000Y2199200D01*
X16825000D02*
X16774200Y2300800D01*
X16875800D01*
X16825000Y2199200D01*
X16700000Y2074200D02*
X16649200Y2175800D01*
X16750800D01*
X16700000Y2074200D01*
X16825000D02*
X16774200Y2175800D01*
X16875800D01*
X16825000Y2074200D01*
X16700000Y2324200D02*
X16649200Y2425800D01*
X16750800D01*
X16700000Y2324200D01*
Y1949200D02*
X16649200Y2050800D01*
X16750800D01*
X16700000Y1949200D01*
X16825000D02*
X16774200Y2050800D01*
X16875800D01*
X16825000Y1949200D01*
X16649200Y1559200D02*
X16674600Y1610000D01*
X16649200Y1660800D01*
X16700000Y1635400D01*
X16750800Y1660800D01*
X16725400Y1610000D01*
X16750800Y1559200D01*
X16700000Y1584600D01*
X16649200Y1559200D01*
Y5339200D02*
X16674600Y5390000D01*
X16649200Y5440800D01*
X16700000Y5415400D01*
X16750800Y5440800D01*
X16725400Y5390000D01*
X16750800Y5339200D01*
X16700000Y5364600D01*
X16649200Y5339200D01*
X16825000Y2699200D02*
X16774200Y2800800D01*
X16875800D01*
X16825000Y2699200D01*
Y2949200D02*
X16774200Y3050800D01*
X16875800D01*
X16825000Y2949200D01*
Y3199200D02*
X16774200Y3300800D01*
X16875800D01*
X16825000Y3199200D01*
Y3449200D02*
X16774200Y3550800D01*
X16875800D01*
X16825000Y3449200D01*
Y3699200D02*
X16774200Y3800800D01*
X16875800D01*
X16825000Y3699200D01*
Y3949200D02*
X16774200Y4050800D01*
X16875800D01*
X16825000Y3949200D01*
Y4199200D02*
X16774200Y4300800D01*
X16875800D01*
X16825000Y4199200D01*
Y4449200D02*
X16774200Y4550800D01*
X16875800D01*
X16825000Y4449200D01*
Y4699200D02*
X16774200Y4800800D01*
X16875800D01*
X16825000Y4699200D01*
Y4949200D02*
X16774200Y5050800D01*
X16875800D01*
X16825000Y4949200D01*
X16700000Y2699200D02*
X16649200Y2800800D01*
X16750800D01*
X16700000Y2699200D01*
Y2949200D02*
X16649200Y3050800D01*
X16750800D01*
X16700000Y2949200D01*
Y3199200D02*
X16649200Y3300800D01*
X16750800D01*
X16700000Y3199200D01*
Y3449200D02*
X16649200Y3550800D01*
X16750800D01*
X16700000Y3449200D01*
Y3699200D02*
X16649200Y3800800D01*
X16750800D01*
X16700000Y3699200D01*
Y3949200D02*
X16649200Y4050800D01*
X16750800D01*
X16700000Y3949200D01*
Y4199200D02*
X16649200Y4300800D01*
X16750800D01*
X16700000Y4199200D01*
Y4449200D02*
X16649200Y4550800D01*
X16750800D01*
X16700000Y4449200D01*
Y4699200D02*
X16649200Y4800800D01*
X16750800D01*
X16700000Y4699200D01*
Y4949200D02*
X16649200Y5050800D01*
X16750800D01*
X16700000Y4949200D01*
X13921201Y2249200D02*
Y2350800D01*
X14022800D01*
Y2249200D01*
X13921201D01*
X14175200D02*
Y2350800D01*
X14276801D01*
Y2249200D01*
X14175200D01*
X11200001Y2549201D02*
X11225401Y2574601D01*
X11250801D01*
X11225401Y2600001D01*
X11250801Y2625401D01*
X11225401D01*
X11200001Y2650801D01*
X11174601Y2625401D01*
X11149201D01*
X11174601Y2600001D01*
X11149201Y2574601D01*
X11174601D01*
X11200001Y2549201D01*
X10949999Y2549201D02*
X10975399Y2574601D01*
X11000799D01*
X10975399Y2600001D01*
X11000799Y2625401D01*
X10975399D01*
X10949999Y2650801D01*
X10924599Y2625401D01*
X10899199D01*
X10924599Y2600001D01*
X10899199Y2574601D01*
X10924599D01*
X10949999Y2549201D01*
X10699997D02*
X10725397Y2574601D01*
X10750797D01*
X10725397Y2600001D01*
X10750797Y2625401D01*
X10725397D01*
X10699997Y2650801D01*
X10674597Y2625401D01*
X10649197D01*
X10674597Y2600001D01*
X10649197Y2574601D01*
X10674597D01*
X10699997Y2549201D01*
X10450000D02*
X10475400Y2574601D01*
X10500800D01*
X10475400Y2600001D01*
X10500800Y2625401D01*
X10475400D01*
X10450000Y2650801D01*
X10424600Y2625401D01*
X10399200D01*
X10424600Y2600001D01*
X10399200Y2574601D01*
X10424600D01*
X10450000Y2549201D01*
X11199999Y4249201D02*
X11225399Y4274601D01*
X11250799D01*
X11225399Y4300001D01*
X11250799Y4325401D01*
X11225399D01*
X11199999Y4350801D01*
X11174599Y4325401D01*
X11149199D01*
X11174599Y4300001D01*
X11149199Y4274601D01*
X11174599D01*
X11199999Y4249201D01*
X10950002Y4249202D02*
X10975402Y4274602D01*
X11000802D01*
X10975402Y4300002D01*
X11000802Y4325402D01*
X10975402D01*
X10950002Y4350802D01*
X10924602Y4325402D01*
X10899202D01*
X10924602Y4300002D01*
X10899202Y4274602D01*
X10924602D01*
X10950002Y4249202D01*
X10700000D02*
X10725400Y4274602D01*
X10750800D01*
X10725400Y4300002D01*
X10750800Y4325402D01*
X10725400D01*
X10700000Y4350802D01*
X10674600Y4325402D01*
X10649200D01*
X10674600Y4300002D01*
X10649200Y4274602D01*
X10674600D01*
X10700000Y4249202D01*
X10449998D02*
X10475398Y4274602D01*
X10500798D01*
X10475398Y4300002D01*
X10500798Y4325402D01*
X10475398D01*
X10449998Y4350802D01*
X10424598Y4325402D01*
X10399198D01*
X10424598Y4300002D01*
X10399198Y4274602D01*
X10424598D01*
X10449998Y4249202D01*
X8949998Y2549199D02*
X8975398Y2574599D01*
X9000798D01*
X8975398Y2599999D01*
X9000798Y2625399D01*
X8975398D01*
X8949998Y2650799D01*
X8924598Y2625399D01*
X8899198D01*
X8924598Y2599999D01*
X8899198Y2574599D01*
X8924598D01*
X8949998Y2549199D01*
X9200000D02*
X9225400Y2574599D01*
X9250800D01*
X9225400Y2599999D01*
X9250800Y2625399D01*
X9225400D01*
X9200000Y2650799D01*
X9174600Y2625399D01*
X9149200D01*
X9174600Y2599999D01*
X9149200Y2574599D01*
X9174600D01*
X9200000Y2549199D01*
X9450002D02*
X9475402Y2574599D01*
X9500802D01*
X9475402Y2599999D01*
X9500802Y2625399D01*
X9475402D01*
X9450002Y2650799D01*
X9424602Y2625399D01*
X9399202D01*
X9424602Y2599999D01*
X9399202Y2574599D01*
X9424602D01*
X9450002Y2549199D01*
X9699999Y2549199D02*
X9725399Y2574599D01*
X9750799D01*
X9725399Y2599999D01*
X9750799Y2625399D01*
X9725399D01*
X9699999Y2650799D01*
X9674599Y2625399D01*
X9649199D01*
X9674599Y2599999D01*
X9649199Y2574599D01*
X9674599D01*
X9699999Y2549199D01*
X1424600Y5297100D02*
Y5271700D01*
X1475400D01*
Y5297100D01*
X1500800D01*
Y5347900D01*
X1475400D01*
Y5373300D01*
X1424600D01*
Y5347900D01*
X1399200D01*
Y5297100D01*
X1424600D01*
Y4852097D02*
Y4826697D01*
X1475400D01*
Y4852097D01*
X1500800D01*
Y4902897D01*
X1475400D01*
Y4928297D01*
X1424600D01*
Y4902897D01*
X1399200D01*
Y4852097D01*
X1424600D01*
X1099201Y4631702D02*
X1124601D01*
X1150001Y4657102D01*
X1175401Y4631702D01*
X1200801D01*
Y4657102D01*
X1175401Y4682502D01*
X1200801Y4707902D01*
Y4733302D01*
X1175401D01*
X1150001Y4707902D01*
X1124601Y4733302D01*
X1099201D01*
Y4707902D01*
X1124601Y4682502D01*
X1099201Y4657102D01*
Y4631702D01*
X1099201Y5466701D02*
X1124601D01*
X1150001Y5492101D01*
X1175401Y5466701D01*
X1200801D01*
Y5492101D01*
X1175401Y5517501D01*
X1200801Y5542901D01*
Y5568301D01*
X1175401D01*
X1150001Y5542901D01*
X1124601Y5568301D01*
X1099201D01*
Y5542901D01*
X1124601Y5517501D01*
X1099201Y5492101D01*
Y5466701D01*
X5654200Y1251000D02*
X5705000Y1301800D01*
X5755800Y1251000D01*
X5705000Y1200200D01*
X5654200Y1251000D01*
X5400200D02*
X5451000Y1301800D01*
X5501800Y1251000D01*
X5451000Y1200200D01*
X5400200Y1251000D01*
X5654200Y1505000D02*
X5705000Y1555800D01*
X5755800Y1505000D01*
X5705000Y1454200D01*
X5654200Y1505000D01*
X5400200D02*
X5451000Y1555800D01*
X5501800Y1505000D01*
X5451000Y1454200D01*
X5400200Y1505000D01*
X5654200Y1759000D02*
X5705000Y1809800D01*
X5755800Y1759000D01*
X5705000Y1708200D01*
X5654200Y1759000D01*
X5400200D02*
X5451000Y1809800D01*
X5501800Y1759000D01*
X5451000Y1708200D01*
X5400200Y1759000D01*
X7329200Y1189691D02*
Y1291291D01*
X7430800D01*
Y1189691D01*
X7329200D01*
X7349520Y1210011D02*
Y1270971D01*
X7410480D01*
Y1210011D01*
X7349520D01*
X7329200Y1570691D02*
Y1672291D01*
X7430800D01*
Y1570691D01*
X7329200D01*
X7349520Y1591011D02*
Y1651971D01*
X7410480D01*
Y1591011D01*
X7349520D01*
X14770000Y3104200D02*
X14719200Y3205800D01*
X14820799D01*
X14770000Y3104200D01*
X5939200Y2889200D02*
Y2990800D01*
X6040800D01*
Y2889200D01*
X5939200D01*
X5959520Y2909520D02*
Y2970480D01*
X6020480D01*
Y2909520D01*
X5959520D01*
X5875058Y2759200D02*
Y2860800D01*
X5976658D01*
Y2759200D01*
X5875058D01*
X5895378Y2779520D02*
Y2840480D01*
X5956338D01*
Y2779520D01*
X5895378D01*
X9400000Y1989200D02*
X9349200Y2090800D01*
X9450800D01*
X9400000Y1989200D01*
Y2009520D02*
X9369520Y2070480D01*
X9430480D01*
X9400000Y2009520D01*
Y2089200D02*
X9349200Y2190800D01*
X9450800D01*
X9400000Y2089200D01*
Y2109520D02*
X9369520Y2170480D01*
X9430480D01*
X9400000Y2109520D01*
X10210000Y1549200D02*
X10159200Y1650800D01*
X10260800D01*
X10210000Y1549200D01*
Y1569520D02*
X10179520Y1630480D01*
X10240480D01*
X10210000Y1569520D01*
X10090000Y1549200D02*
X10039200Y1650800D01*
X10140800D01*
X10090000Y1549200D01*
Y1569520D02*
X10059520Y1630480D01*
X10120480D01*
X10090000Y1569520D01*
X9999200Y1999200D02*
Y2100800D01*
X10100800D01*
Y1999200D01*
X9999200D01*
X10019520Y2019520D02*
Y2080480D01*
X10080480D01*
Y2019520D01*
X10019520D01*
X9969200Y1389200D02*
Y1490800D01*
X10070800D01*
Y1389200D01*
X9969200D01*
X9989520Y1409520D02*
Y1470480D01*
X10050480D01*
Y1409520D01*
X9989520D01*
X9969200Y1279200D02*
Y1380800D01*
X10070800D01*
Y1279200D01*
X9969200D01*
X9989520Y1299520D02*
Y1360480D01*
X10050480D01*
Y1299520D01*
X9989520D01*
X9676702Y1771702D02*
Y1873302D01*
X9778302D01*
Y1771702D01*
X9676702D01*
X9697022Y1792022D02*
Y1852982D01*
X9757982D01*
Y1792022D01*
X9697022D01*
X8569200Y2449200D02*
Y2550800D01*
X8670800D01*
Y2449200D01*
X8569200D01*
X8589520Y2469520D02*
Y2530480D01*
X8650480D01*
Y2469520D01*
X8589520D01*
X10025002Y1159201D02*
X9974202Y1260801D01*
X10075802D01*
X10025002Y1159201D01*
Y1179521D02*
X9994522Y1240481D01*
X10055482D01*
X10025002Y1179521D01*
X8649200Y2109200D02*
Y2210800D01*
X8750800D01*
Y2109200D01*
X8649200D01*
X8669520Y2129520D02*
Y2190480D01*
X8730480D01*
Y2129520D01*
X8669520D01*
X8649200Y2009200D02*
Y2110800D01*
X8750800D01*
Y2009200D01*
X8649200D01*
X8669520Y2029520D02*
Y2090480D01*
X8730480D01*
Y2029520D01*
X8669520D01*
X9629202Y1334201D02*
Y1435801D01*
X9730802D01*
Y1334201D01*
X9629202D01*
X9649522Y1354521D02*
Y1415481D01*
X9710482D01*
Y1354521D01*
X9649522D01*
X9729202Y1334201D02*
Y1435801D01*
X9830802D01*
Y1334201D01*
X9729202D01*
X9749522Y1354521D02*
Y1415481D01*
X9810482D01*
Y1354521D01*
X9749522D01*
X9629202Y1234201D02*
Y1335801D01*
X9730802D01*
Y1234201D01*
X9629202D01*
X9649522Y1254521D02*
Y1315481D01*
X9710482D01*
Y1254521D01*
X9649522D01*
X9729202Y1234201D02*
Y1335801D01*
X9830802D01*
Y1234201D01*
X9729202D01*
X9749522Y1254521D02*
Y1315481D01*
X9810482D01*
Y1254521D01*
X9749522D01*
X9084202Y1148250D02*
Y1249850D01*
X9185802D01*
Y1148250D01*
X9084202D01*
X9104522Y1168570D02*
Y1229530D01*
X9165482D01*
Y1168570D01*
X9104522D01*
X9329202Y1154201D02*
Y1255801D01*
X9430802D01*
Y1154201D01*
X9329202D01*
X9349522Y1174521D02*
Y1235481D01*
X9410482D01*
Y1174521D01*
X9349522D01*
X9334202Y1409201D02*
Y1510801D01*
X9435802D01*
Y1409201D01*
X9334202D01*
X9354522Y1429521D02*
Y1490481D01*
X9415482D01*
Y1429521D01*
X9354522D01*
X9334202Y1329201D02*
Y1430801D01*
X9435802D01*
Y1329201D01*
X9334202D01*
X9354522Y1349521D02*
Y1410481D01*
X9415482D01*
Y1349521D01*
X9354522D01*
X9344200Y1704200D02*
Y1805800D01*
X9445800D01*
Y1704200D01*
X9344200D01*
X9364520Y1724520D02*
Y1785480D01*
X9425480D01*
Y1724520D01*
X9364520D01*
X9419202Y1279201D02*
Y1380801D01*
X9520802D01*
Y1279201D01*
X9419202D01*
X9439522Y1299521D02*
Y1360481D01*
X9500482D01*
Y1299521D01*
X9439522D01*
X9434202Y1359201D02*
Y1460801D01*
X9535802D01*
Y1359201D01*
X9434202D01*
X9454522Y1379521D02*
Y1440481D01*
X9515482D01*
Y1379521D01*
X9454522D01*
X8870002Y1184201D02*
X8819202Y1285801D01*
X8920802D01*
X8870002Y1184201D01*
Y1204521D02*
X8839522Y1265481D01*
X8900482D01*
X8870002Y1204521D01*
X8749202Y1274201D02*
Y1375801D01*
X8850802D01*
Y1274201D01*
X8749202D01*
X8769522Y1294521D02*
Y1355481D01*
X8830482D01*
Y1294521D01*
X8769522D01*
X8829202Y1339202D02*
Y1440802D01*
X8930802D01*
Y1339202D01*
X8829202D01*
X8849522Y1359522D02*
Y1420482D01*
X8910482D01*
Y1359522D01*
X8849522D01*
X8749202Y1404201D02*
Y1505801D01*
X8850802D01*
Y1404201D01*
X8749202D01*
X8769522Y1424521D02*
Y1485481D01*
X8830482D01*
Y1424521D01*
X8769522D01*
X8829202Y1469202D02*
Y1570802D01*
X8930802D01*
Y1469202D01*
X8829202D01*
X8849522Y1489522D02*
Y1550482D01*
X8910482D01*
Y1489522D01*
X8849522D01*
X8649200Y1674200D02*
Y1775800D01*
X8750800D01*
Y1674200D01*
X8649200D01*
X8669520Y1694520D02*
Y1755480D01*
X8730480D01*
Y1694520D01*
X8669520D01*
X8774200Y1674200D02*
Y1775800D01*
X8875800D01*
Y1674200D01*
X8774200D01*
X8794520Y1694520D02*
Y1755480D01*
X8855480D01*
Y1694520D01*
X8794520D01*
X7549200Y2099200D02*
Y2200800D01*
X7650800D01*
Y2099200D01*
X7549200D01*
X7569520Y2119520D02*
Y2180480D01*
X7630480D01*
Y2119520D01*
X7569520D01*
X7549200Y2249200D02*
Y2350800D01*
X7650800D01*
Y2249200D01*
X7549200D01*
X7569520Y2269520D02*
Y2330480D01*
X7630480D01*
Y2269520D01*
X7569520D01*
X7144200Y2227861D02*
Y2329461D01*
X7245800D01*
Y2227861D01*
X7144200D01*
X7164520Y2248181D02*
Y2309141D01*
X7225480D01*
Y2248181D01*
X7164520D01*
X6649200Y1649200D02*
Y1750800D01*
X6750800D01*
Y1649200D01*
X6649200D01*
X6669520Y1669520D02*
Y1730480D01*
X6730480D01*
Y1669520D01*
X6669520D01*
X5829200Y1989200D02*
Y2090800D01*
X5930800D01*
Y1989200D01*
X5829200D01*
X5849520Y2009520D02*
Y2070480D01*
X5910480D01*
Y2009520D01*
X5849520D01*
X5939200Y1989200D02*
Y2090800D01*
X6040800D01*
Y1989200D01*
X5939200D01*
X5959520Y2009520D02*
Y2070480D01*
X6020480D01*
Y2009520D01*
X5959520D01*
X6067646Y2434200D02*
Y2535800D01*
X6169246D01*
Y2434200D01*
X6067646D01*
X6087966Y2454520D02*
Y2515480D01*
X6148926D01*
Y2454520D01*
X6087966D01*
X5749200Y2099200D02*
Y2200800D01*
X5850800D01*
Y2099200D01*
X5749200D01*
X5769520Y2119520D02*
Y2180480D01*
X5830480D01*
Y2119520D01*
X5769520D01*
X5829200Y2169200D02*
Y2270800D01*
X5930800D01*
Y2169200D01*
X5829200D01*
X5849520Y2189520D02*
Y2250480D01*
X5910480D01*
Y2189520D01*
X5849520D01*
X8079200Y1999200D02*
Y2100800D01*
X8180800D01*
Y1999200D01*
X8079200D01*
X8099520Y2019520D02*
Y2080480D01*
X8160480D01*
Y2019520D01*
X8099520D01*
X8079200Y2119200D02*
Y2220800D01*
X8180800D01*
Y2119200D01*
X8079200D01*
X8099520Y2139520D02*
Y2200480D01*
X8160480D01*
Y2139520D01*
X8099520D01*
X5424200Y2474200D02*
Y2575800D01*
X5525800D01*
Y2474200D01*
X5424200D01*
X5444520Y2494520D02*
Y2555480D01*
X5505480D01*
Y2494520D01*
X5444520D01*
X5524200Y2474200D02*
Y2575800D01*
X5625800D01*
Y2474200D01*
X5524200D01*
X5544520Y2494520D02*
Y2555480D01*
X5605480D01*
Y2494520D01*
X5544520D01*
X7999200Y2574200D02*
Y2675800D01*
X8100800D01*
Y2574200D01*
X7999200D01*
X8019520Y2594520D02*
Y2655480D01*
X8080480D01*
Y2594520D01*
X8019520D01*
X5999200Y2624200D02*
Y2725800D01*
X6100800D01*
Y2624200D01*
X5999200D01*
X6019520Y2644520D02*
Y2705480D01*
X6080480D01*
Y2644520D01*
X6019520D01*
X8599200Y2949200D02*
Y3050800D01*
X8700800D01*
Y2949200D01*
X8599200D01*
X8619520Y2969520D02*
Y3030480D01*
X8680480D01*
Y2969520D01*
X8619520D01*
X5899200Y2624200D02*
Y2725800D01*
X6000800D01*
Y2624200D01*
X5899200D01*
X5919520Y2644520D02*
Y2705480D01*
X5980480D01*
Y2644520D01*
X5919520D01*
X5719200Y2819200D02*
Y2920800D01*
X5820800D01*
Y2819200D01*
X5719200D01*
X5739520Y2839520D02*
Y2900480D01*
X5800480D01*
Y2839520D01*
X5739520D01*
X3999200Y5724200D02*
Y5825800D01*
X4100800D01*
Y5724200D01*
X3999200D01*
X4019520Y5744520D02*
Y5805480D01*
X4080480D01*
Y5744520D01*
X4019520D01*
X3924200Y5649200D02*
Y5750800D01*
X4025800D01*
Y5649200D01*
X3924200D01*
X3944520Y5669520D02*
Y5730480D01*
X4005480D01*
Y5669520D01*
X3944520D01*
X3999200Y5574200D02*
Y5675800D01*
X4100800D01*
Y5574200D01*
X3999200D01*
X4019520Y5594520D02*
Y5655480D01*
X4080480D01*
Y5594520D01*
X4019520D01*
X7249200Y3599200D02*
Y3700800D01*
X7350800D01*
Y3599200D01*
X7249200D01*
X7269520Y3619520D02*
Y3680480D01*
X7330480D01*
Y3619520D01*
X7269520D01*
X9869200Y3319200D02*
Y3420800D01*
X9970800D01*
Y3319200D01*
X9869200D01*
X9889520Y3339520D02*
Y3400480D01*
X9950480D01*
Y3339520D01*
X9889520D01*
X11424200Y3636701D02*
Y3738301D01*
X11525800D01*
Y3636701D01*
X11424200D01*
X11444520Y3657021D02*
Y3717981D01*
X11505480D01*
Y3657021D01*
X11444520D01*
X11424200Y3511698D02*
Y3613298D01*
X11525800D01*
Y3511698D01*
X11424200D01*
X11444520Y3532018D02*
Y3592978D01*
X11505480D01*
Y3532018D01*
X11444520D01*
X11424200Y3386699D02*
Y3488299D01*
X11525800D01*
Y3386699D01*
X11424200D01*
X11444520Y3407019D02*
Y3467979D01*
X11505480D01*
Y3407019D01*
X11444520D01*
X10529200Y3399200D02*
Y3500800D01*
X10630800D01*
Y3399200D01*
X10529200D01*
X10549520Y3419520D02*
Y3480480D01*
X10610480D01*
Y3419520D01*
X10549520D01*
X10869200Y3449200D02*
Y3550800D01*
X10970800D01*
Y3449200D01*
X10869200D01*
X10889520Y3469520D02*
Y3530480D01*
X10950480D01*
Y3469520D01*
X10889520D01*
X10869200Y3589200D02*
Y3690800D01*
X10970800D01*
Y3589200D01*
X10869200D01*
X10889520Y3609520D02*
Y3670480D01*
X10950480D01*
Y3609520D01*
X10889520D01*
X9969200Y3519200D02*
Y3620800D01*
X10070800D01*
Y3519200D01*
X9969200D01*
X9989520Y3539520D02*
Y3600480D01*
X10050480D01*
Y3539520D01*
X9989520D01*
X9969200Y3419200D02*
Y3520800D01*
X10070800D01*
Y3419200D01*
X9969200D01*
X9989520Y3439520D02*
Y3500480D01*
X10050480D01*
Y3439520D01*
X9989520D01*
X3299200Y5699200D02*
Y5800800D01*
X3400800D01*
Y5699200D01*
X3299200D01*
X3319520Y5719520D02*
Y5780480D01*
X3380480D01*
Y5719520D01*
X3319520D01*
X9374200Y3299200D02*
Y3400800D01*
X9475800D01*
Y3299200D01*
X9374200D01*
X9394520Y3319520D02*
Y3380480D01*
X9455480D01*
Y3319520D01*
X9394520D01*
X8099200Y2574200D02*
Y2675800D01*
X8200800D01*
Y2574200D01*
X8099200D01*
X8119520Y2594520D02*
Y2655480D01*
X8180480D01*
Y2594520D01*
X8119520D01*
X10345000Y1459200D02*
X10294200Y1560800D01*
X10395800D01*
X10345000Y1459200D01*
Y1479520D02*
X10314520Y1540480D01*
X10375480D01*
X10345000Y1479520D01*
X2184200Y1764200D02*
Y1865800D01*
X2285800D01*
Y1764200D01*
X2184200D01*
X2204520Y1784520D02*
Y1845480D01*
X2265480D01*
Y1784520D01*
X2204520D01*
X2324200Y1764200D02*
Y1865800D01*
X2425800D01*
Y1764200D01*
X2324200D01*
X2344520Y1784520D02*
Y1845480D01*
X2405480D01*
Y1784520D01*
X2344520D01*
X7499200Y1899200D02*
Y2000800D01*
X7600800D01*
Y1899200D01*
X7499200D01*
X7519520Y1919520D02*
Y1980480D01*
X7580480D01*
Y1919520D01*
X7519520D01*
X6874200Y3974200D02*
Y4075800D01*
X6975800D01*
Y3974200D01*
X6874200D01*
X6894520Y3994520D02*
Y4055480D01*
X6955480D01*
Y3994520D01*
X6894520D01*
X6874200Y4099200D02*
Y4200800D01*
X6975800D01*
Y4099200D01*
X6874200D01*
X6894520Y4119520D02*
Y4180480D01*
X6955480D01*
Y4119520D01*
X6894520D01*
X5524200Y3024200D02*
Y3125800D01*
X5625800D01*
Y3024200D01*
X5524200D01*
X5544520Y3044520D02*
Y3105480D01*
X5605480D01*
Y3044520D01*
X5544520D01*
X5524200Y3124200D02*
Y3225800D01*
X5625800D01*
Y3124200D01*
X5524200D01*
X5544520Y3144520D02*
Y3205480D01*
X5605480D01*
Y3144520D01*
X5544520D01*
X6949200Y1599200D02*
Y1700800D01*
X7050800D01*
Y1599200D01*
X6949200D01*
X6969520Y1619520D02*
Y1680480D01*
X7030480D01*
Y1619520D01*
X6969520D01*
X6799200Y1149200D02*
Y1250800D01*
X6900800D01*
Y1149200D01*
X6799200D01*
X6819520Y1169520D02*
Y1230480D01*
X6880480D01*
Y1169520D01*
X6819520D01*
X7324200Y4274200D02*
Y4375800D01*
X7425800D01*
Y4274200D01*
X7324200D01*
X7344520Y4294520D02*
Y4355480D01*
X7405480D01*
Y4294520D01*
X7344520D01*
X7399200Y4349200D02*
Y4450800D01*
X7500800D01*
Y4349200D01*
X7399200D01*
X7419520Y4369520D02*
Y4430480D01*
X7480480D01*
Y4369520D01*
X7419520D01*
X7499200Y4349200D02*
Y4450800D01*
X7600800D01*
Y4349200D01*
X7499200D01*
X7519520Y4369520D02*
Y4430480D01*
X7580480D01*
Y4369520D01*
X7519520D01*
X7599200Y4349200D02*
Y4450800D01*
X7700800D01*
Y4349200D01*
X7599200D01*
X7619520Y4369520D02*
Y4430480D01*
X7680480D01*
Y4369520D01*
X7619520D01*
X4444200Y4974200D02*
Y5075800D01*
X4545800D01*
Y4974200D01*
X4444200D01*
X4464520Y4994520D02*
Y5055480D01*
X4525480D01*
Y4994520D01*
X4464520D01*
X4129200Y4619200D02*
Y4720800D01*
X4230800D01*
Y4619200D01*
X4129200D01*
X4149520Y4639520D02*
Y4700480D01*
X4210480D01*
Y4639520D01*
X4149520D01*
X4339200Y4619200D02*
Y4720800D01*
X4440800D01*
Y4619200D01*
X4339200D01*
X4359520Y4639520D02*
Y4700480D01*
X4420480D01*
Y4639520D01*
X4359520D01*
X4549200Y4619200D02*
Y4720800D01*
X4650800D01*
Y4619200D01*
X4549200D01*
X4569520Y4639520D02*
Y4700480D01*
X4630480D01*
Y4639520D01*
X4569520D01*
X4759200Y4619200D02*
Y4720800D01*
X4860800D01*
Y4619200D01*
X4759200D01*
X4779520Y4639520D02*
Y4700480D01*
X4840480D01*
Y4639520D01*
X4779520D01*
X11544200Y3864200D02*
Y3965800D01*
X11645800D01*
Y3864200D01*
X11544200D01*
X11564520Y3884520D02*
Y3945480D01*
X11625480D01*
Y3884520D01*
X11564520D01*
X12159199Y5519200D02*
Y5620800D01*
X12260799D01*
Y5519200D01*
X12159199D01*
X12179519Y5539520D02*
Y5600480D01*
X12240479D01*
Y5539520D01*
X12179519D01*
X5874200Y2974200D02*
Y3075800D01*
X5975800D01*
Y2974200D01*
X5874200D01*
X5894520Y2994520D02*
Y3055480D01*
X5955480D01*
Y2994520D01*
X5894520D01*
X4664200Y2789200D02*
Y2890800D01*
X4765800D01*
Y2789200D01*
X4664200D01*
X4684520Y2809520D02*
Y2870480D01*
X4745480D01*
Y2809520D01*
X4684520D01*
X4339200Y2824200D02*
Y2925800D01*
X4440800D01*
Y2824200D01*
X4339200D01*
X4359520Y2844520D02*
Y2905480D01*
X4420480D01*
Y2844520D01*
X4359520D01*
X4149200Y2839200D02*
Y2940800D01*
X4250800D01*
Y2839200D01*
X4149200D01*
X4169520Y2859520D02*
Y2920480D01*
X4230480D01*
Y2859520D01*
X4169520D01*
X4059200Y3319200D02*
Y3420800D01*
X4160800D01*
Y3319200D01*
X4059200D01*
X4079520Y3339520D02*
Y3400480D01*
X4140480D01*
Y3339520D01*
X4079520D01*
X3994200Y3799200D02*
Y3900800D01*
X4095800D01*
Y3799200D01*
X3994200D01*
X4014520Y3819520D02*
Y3880480D01*
X4075480D01*
Y3819520D01*
X4014520D01*
X5074200Y2824200D02*
Y2925800D01*
X5175800D01*
Y2824200D01*
X5074200D01*
X5094520Y2844520D02*
Y2905480D01*
X5155480D01*
Y2844520D01*
X5094520D01*
X5169200Y3264200D02*
Y3365800D01*
X5270800D01*
Y3264200D01*
X5169200D01*
X5189520Y3284520D02*
Y3345480D01*
X5250480D01*
Y3284520D01*
X5189520D01*
X4949200Y3899200D02*
Y4000800D01*
X5050800D01*
Y3899200D01*
X4949200D01*
X4969520Y3919520D02*
Y3980480D01*
X5030480D01*
Y3919520D01*
X4969520D01*
X5024200Y3974200D02*
Y4075800D01*
X5125800D01*
Y3974200D01*
X5024200D01*
X5044520Y3994520D02*
Y4055480D01*
X5105480D01*
Y3994520D01*
X5044520D01*
X5249200Y3374200D02*
Y3475800D01*
X5350800D01*
Y3374200D01*
X5249200D01*
X5269520Y3394520D02*
Y3455480D01*
X5330480D01*
Y3394520D01*
X5269520D01*
X5139200Y3414200D02*
Y3515800D01*
X5240800D01*
Y3414200D01*
X5139200D01*
X5159520Y3434520D02*
Y3495480D01*
X5220480D01*
Y3434520D01*
X5159520D01*
X5474200Y3224200D02*
Y3325800D01*
X5575800D01*
Y3224200D01*
X5474200D01*
X5494520Y3244520D02*
Y3305480D01*
X5555480D01*
Y3244520D01*
X5494520D01*
X5374200Y3224200D02*
Y3325800D01*
X5475800D01*
Y3224200D01*
X5374200D01*
X5394520Y3244520D02*
Y3305480D01*
X5455480D01*
Y3244520D01*
X5394520D01*
X6749200Y2924200D02*
Y3025800D01*
X6850800D01*
Y2924200D01*
X6749200D01*
X6769520Y2944520D02*
Y3005480D01*
X6830480D01*
Y2944520D01*
X6769520D01*
X6824200Y2849200D02*
Y2950800D01*
X6925800D01*
Y2849200D01*
X6824200D01*
X6844520Y2869520D02*
Y2930480D01*
X6905480D01*
Y2869520D01*
X6844520D01*
X7339200Y2779200D02*
Y2880800D01*
X7440800D01*
Y2779200D01*
X7339200D01*
X7359520Y2799520D02*
Y2860480D01*
X7420480D01*
Y2799520D01*
X7359520D01*
X7034200Y2969200D02*
Y3070800D01*
X7135800D01*
Y2969200D01*
X7034200D01*
X7054520Y2989520D02*
Y3050480D01*
X7115480D01*
Y2989520D01*
X7054520D01*
X5574200Y4624200D02*
Y4725800D01*
X5675800D01*
Y4624200D01*
X5574200D01*
X5594520Y4644520D02*
Y4705480D01*
X5655480D01*
Y4644520D01*
X5594520D01*
X5499200Y4699200D02*
Y4800800D01*
X5600800D01*
Y4699200D01*
X5499200D01*
X5519520Y4719520D02*
Y4780480D01*
X5580480D01*
Y4719520D01*
X5519520D01*
X11549200Y4249201D02*
Y4350801D01*
X11650800D01*
Y4249201D01*
X11549200D01*
X11569520Y4269521D02*
Y4330481D01*
X11630480D01*
Y4269521D01*
X11569520D01*
X8194200Y2949200D02*
Y3050800D01*
X8295800D01*
Y2949200D01*
X8194200D01*
X8214520Y2969520D02*
Y3030480D01*
X8275480D01*
Y2969520D01*
X8214520D01*
X8299200Y2949200D02*
Y3050800D01*
X8400800D01*
Y2949200D01*
X8299200D01*
X8319520Y2969520D02*
Y3030480D01*
X8380480D01*
Y2969520D01*
X8319520D01*
X8374200Y2599200D02*
Y2700800D01*
X8475800D01*
Y2599200D01*
X8374200D01*
X8394520Y2619520D02*
Y2680480D01*
X8455480D01*
Y2619520D01*
X8394520D01*
X8474200Y2599200D02*
Y2700800D01*
X8575800D01*
Y2599200D01*
X8474200D01*
X8494520Y2619520D02*
Y2680480D01*
X8555480D01*
Y2619520D01*
X8494520D01*
X6519200Y2436500D02*
Y2538100D01*
X6620800D01*
Y2436500D01*
X6519200D01*
X6539520Y2456820D02*
Y2517780D01*
X6600480D01*
Y2456820D01*
X6539520D01*
X6424200Y2434200D02*
Y2535800D01*
X6525800D01*
Y2434200D01*
X6424200D01*
X6444520Y2454520D02*
Y2515480D01*
X6505480D01*
Y2454520D01*
X6444520D01*
X6369200Y2224200D02*
Y2325800D01*
X6470800D01*
Y2224200D01*
X6369200D01*
X6389520Y2244520D02*
Y2305480D01*
X6450480D01*
Y2244520D01*
X6389520D01*
X7699200Y4099200D02*
Y4200800D01*
X7800800D01*
Y4099200D01*
X7699200D01*
X7719520Y4119520D02*
Y4180480D01*
X7780480D01*
Y4119520D01*
X7719520D01*
X7699200Y3999200D02*
Y4100800D01*
X7800800D01*
Y3999200D01*
X7699200D01*
X7719520Y4019520D02*
Y4080480D01*
X7780480D01*
Y4019520D01*
X7719520D01*
X7699200Y4199200D02*
Y4300800D01*
X7800800D01*
Y4199200D01*
X7699200D01*
X7719520Y4219520D02*
Y4280480D01*
X7780480D01*
Y4219520D01*
X7719520D01*
X7849200Y2904200D02*
Y3005800D01*
X7950800D01*
Y2904200D01*
X7849200D01*
X7869520Y2924520D02*
Y2985480D01*
X7930480D01*
Y2924520D01*
X7869520D01*
X7749200Y2904200D02*
Y3005800D01*
X7850800D01*
Y2904200D01*
X7749200D01*
X7769520Y2924520D02*
Y2985480D01*
X7830480D01*
Y2924520D01*
X7769520D01*
X12789198Y2839200D02*
Y2940800D01*
X12890797D01*
Y2839200D01*
X12789198D01*
X12809518Y2859520D02*
Y2920480D01*
X12870477D01*
Y2859520D01*
X12809518D01*
X11549200Y3194200D02*
Y3295800D01*
X11650800D01*
Y3194200D01*
X11549200D01*
X11569520Y3214520D02*
Y3275480D01*
X11630480D01*
Y3214520D01*
X11569520D01*
X7124200Y3474200D02*
Y3575800D01*
X7225800D01*
Y3474200D01*
X7124200D01*
X7144520Y3494520D02*
Y3555480D01*
X7205480D01*
Y3494520D01*
X7144520D01*
X7024200Y3474200D02*
Y3575800D01*
X7125800D01*
Y3474200D01*
X7024200D01*
X7044520Y3494520D02*
Y3555480D01*
X7105480D01*
Y3494520D01*
X7044520D01*
X7224200Y3474200D02*
Y3575800D01*
X7325800D01*
Y3474200D01*
X7224200D01*
X7244520Y3494520D02*
Y3555480D01*
X7305480D01*
Y3494520D01*
X7244520D01*
X7324200Y3474200D02*
Y3575800D01*
X7425800D01*
Y3474200D01*
X7324200D01*
X7344520Y3494520D02*
Y3555480D01*
X7405480D01*
Y3494520D01*
X7344520D01*
X8424200Y1674200D02*
Y1775800D01*
X8525800D01*
Y1674200D01*
X8424200D01*
X8444520Y1694520D02*
Y1755480D01*
X8505480D01*
Y1694520D01*
X8444520D01*
X15119200Y3119200D02*
Y3220800D01*
X15220799D01*
Y3119200D01*
X15119200D01*
X15139520Y3139520D02*
Y3200480D01*
X15200481D01*
Y3139520D01*
X15139520D01*
X7942197Y4879201D02*
Y4980801D01*
X8043797D01*
Y4879201D01*
X7942197D01*
X7962517Y4899521D02*
Y4960481D01*
X8023477D01*
Y4899521D01*
X7962517D01*
X7815197Y4879201D02*
Y4980801D01*
X7916797D01*
Y4879201D01*
X7815197D01*
X7835517Y4899521D02*
Y4960481D01*
X7896477D01*
Y4899521D01*
X7835517D01*
X8069197Y4879201D02*
Y4980801D01*
X8170797D01*
Y4879201D01*
X8069197D01*
X8089517Y4899521D02*
Y4960481D01*
X8150477D01*
Y4899521D01*
X8089517D01*
X7424200Y4599200D02*
Y4700800D01*
X7525800D01*
Y4599200D01*
X7424200D01*
X7444520Y4619520D02*
Y4680480D01*
X7505480D01*
Y4619520D01*
X7444520D01*
X7174200Y4699200D02*
Y4800800D01*
X7275800D01*
Y4699200D01*
X7174200D01*
X7194520Y4719520D02*
Y4780480D01*
X7255480D01*
Y4719520D01*
X7194520D01*
X7074200Y4699200D02*
Y4800800D01*
X7175800D01*
Y4699200D01*
X7074200D01*
X7094520Y4719520D02*
Y4780480D01*
X7155480D01*
Y4719520D01*
X7094520D01*
X7128198Y4879201D02*
Y4980801D01*
X7229798D01*
Y4879201D01*
X7128198D01*
X7148518Y4899521D02*
Y4960481D01*
X7209478D01*
Y4899521D01*
X7148518D01*
X11909259Y5104131D02*
Y5205731D01*
X12010859D01*
Y5104131D01*
X11909259D01*
X11929579Y5124451D02*
Y5185411D01*
X11990539D01*
Y5124451D01*
X11929579D01*
X12159199Y5104200D02*
Y5205800D01*
X12260799D01*
Y5104200D01*
X12159199D01*
X12179519Y5124520D02*
Y5185480D01*
X12240479D01*
Y5124520D01*
X12179519D01*
X11909199Y5774200D02*
Y5875800D01*
X12010799D01*
Y5774200D01*
X11909199D01*
X11929519Y5794520D02*
Y5855480D01*
X11990479D01*
Y5794520D01*
X11929519D01*
X12159199Y5774200D02*
Y5875800D01*
X12260799D01*
Y5774200D01*
X12159199D01*
X12179519Y5794520D02*
Y5855480D01*
X12240479D01*
Y5794520D01*
X12179519D01*
X12159199Y5649200D02*
Y5750800D01*
X12260799D01*
Y5649200D01*
X12159199D01*
X12179519Y5669520D02*
Y5730480D01*
X12240479D01*
Y5669520D01*
X12179519D01*
X6749200Y2699200D02*
Y2800800D01*
X6850800D01*
Y2699200D01*
X6749200D01*
X6769520Y2719520D02*
Y2780480D01*
X6830480D01*
Y2719520D01*
X6769520D01*
X7699200Y3524200D02*
Y3625800D01*
X7800800D01*
Y3524200D01*
X7699200D01*
X7719520Y3544520D02*
Y3605480D01*
X7780480D01*
Y3544520D01*
X7719520D01*
X7699200Y3424200D02*
Y3525800D01*
X7800800D01*
Y3424200D01*
X7699200D01*
X7719520Y3444520D02*
Y3505480D01*
X7780480D01*
Y3444520D01*
X7719520D01*
X12159199Y3094200D02*
Y3195800D01*
X12260799D01*
Y3094200D01*
X12159199D01*
X12179519Y3114520D02*
Y3175480D01*
X12240479D01*
Y3114520D01*
X12179519D01*
X12159199Y2969200D02*
Y3070800D01*
X12260799D01*
Y2969200D01*
X12159199D01*
X12179519Y2989520D02*
Y3050480D01*
X12240479D01*
Y2989520D01*
X12179519D01*
X7649200Y4449200D02*
Y4550800D01*
X7750800D01*
Y4449200D01*
X7649200D01*
X7669520Y4469520D02*
Y4530480D01*
X7730480D01*
Y4469520D01*
X7669520D01*
X7574200Y4499200D02*
Y4600800D01*
X7675800D01*
Y4499200D01*
X7574200D01*
X7594520Y4519520D02*
Y4580480D01*
X7655480D01*
Y4519520D01*
X7594520D01*
X7499200Y4549200D02*
Y4650800D01*
X7600800D01*
Y4549200D01*
X7499200D01*
X7519520Y4569520D02*
Y4630480D01*
X7580480D01*
Y4569520D01*
X7519520D01*
X7349200Y4649200D02*
Y4750800D01*
X7450800D01*
Y4649200D01*
X7349200D01*
X7369520Y4669520D02*
Y4730480D01*
X7430480D01*
Y4669520D01*
X7369520D01*
X7274200Y4699200D02*
Y4800800D01*
X7375800D01*
Y4699200D01*
X7274200D01*
X7294520Y4719520D02*
Y4780480D01*
X7355480D01*
Y4719520D01*
X7294520D01*
X7699200Y4299200D02*
Y4400800D01*
X7800800D01*
Y4299200D01*
X7699200D01*
X7719520Y4319520D02*
Y4380480D01*
X7780480D01*
Y4319520D01*
X7719520D01*
X6974200Y4699200D02*
Y4800800D01*
X7075800D01*
Y4699200D01*
X6974200D01*
X6994520Y4719520D02*
Y4780480D01*
X7055480D01*
Y4719520D01*
X6994520D01*
X6999200Y4999200D02*
Y5100800D01*
X7100800D01*
Y4999200D01*
X6999200D01*
X7019520Y5019520D02*
Y5080480D01*
X7080480D01*
Y5019520D01*
X7019520D01*
X6999200Y5099200D02*
Y5200800D01*
X7100800D01*
Y5099200D01*
X6999200D01*
X7019520Y5119520D02*
Y5180480D01*
X7080480D01*
Y5119520D01*
X7019520D01*
X7409200Y5334200D02*
Y5435800D01*
X7510800D01*
Y5334200D01*
X7409200D01*
X7429520Y5354520D02*
Y5415480D01*
X7490480D01*
Y5354520D01*
X7429520D01*
X9089200Y5334200D02*
Y5435800D01*
X9190800D01*
Y5334200D01*
X9089200D01*
X9109520Y5354520D02*
Y5415480D01*
X9170480D01*
Y5354520D01*
X9109520D01*
X6999200Y5199200D02*
Y5300800D01*
X7100800D01*
Y5199200D01*
X6999200D01*
X7019520Y5219520D02*
Y5280480D01*
X7080480D01*
Y5219520D01*
X7019520D01*
X11549200Y4534200D02*
Y4635800D01*
X11650800D01*
Y4534200D01*
X11549200D01*
X11569520Y4554520D02*
Y4615480D01*
X11630480D01*
Y4554520D01*
X11569520D01*
X6999200Y5299200D02*
Y5400800D01*
X7100800D01*
Y5299200D01*
X6999200D01*
X7019520Y5319520D02*
Y5380480D01*
X7080480D01*
Y5319520D01*
X7019520D01*
X6999200Y5399200D02*
Y5500800D01*
X7100800D01*
Y5399200D01*
X6999200D01*
X7019520Y5419520D02*
Y5480480D01*
X7080480D01*
Y5419520D01*
X7019520D01*
X11048197Y4879201D02*
Y4980801D01*
X11149797D01*
Y4879201D01*
X11048197D01*
X11068517Y4899521D02*
Y4960481D01*
X11129477D01*
Y4899521D01*
X11068517D01*
X6999200Y5499200D02*
Y5600800D01*
X7100800D01*
Y5499200D01*
X6999200D01*
X7019520Y5519520D02*
Y5580480D01*
X7080480D01*
Y5519520D01*
X7019520D01*
X6999200Y5599200D02*
Y5700800D01*
X7100800D01*
Y5599200D01*
X6999200D01*
X7019520Y5619520D02*
Y5680480D01*
X7080480D01*
Y5619520D01*
X7019520D01*
X6999200Y5699200D02*
Y5800800D01*
X7100800D01*
Y5699200D01*
X6999200D01*
X7019520Y5719520D02*
Y5780480D01*
X7080480D01*
Y5719520D01*
X7019520D01*
X8455000Y3839200D02*
X8404200Y3940800D01*
X8505800D01*
X8455000Y3839200D01*
Y3859520D02*
X8424520Y3920480D01*
X8485480D01*
X8455000Y3859520D01*
X1149200Y3459200D02*
Y3560800D01*
X1250800D01*
Y3459200D01*
X1149200D01*
X1169520Y3479520D02*
Y3540480D01*
X1230480D01*
Y3479520D01*
X1169520D01*
X7509198Y5804198D02*
Y5905798D01*
X7610798D01*
Y5804198D01*
X7509198D01*
X7529518Y5824518D02*
Y5885478D01*
X7590478D01*
Y5824518D01*
X7529518D01*
X7255198Y5804198D02*
Y5905798D01*
X7356798D01*
Y5804198D01*
X7255198D01*
X7275518Y5824518D02*
Y5885478D01*
X7336478D01*
Y5824518D01*
X7275518D01*
X7979200Y3829200D02*
Y3930800D01*
X8080800D01*
Y3829200D01*
X7979200D01*
X7999520Y3849520D02*
Y3910480D01*
X8060480D01*
Y3849520D01*
X7999520D01*
X7984200Y3419200D02*
Y3520800D01*
X8085800D01*
Y3419200D01*
X7984200D01*
X8004520Y3439520D02*
Y3500480D01*
X8065480D01*
Y3439520D01*
X8004520D01*
X8935197Y5804198D02*
Y5905798D01*
X9036797D01*
Y5804198D01*
X8935197D01*
X8955517Y5824518D02*
Y5885478D01*
X9016477D01*
Y5824518D01*
X8955517D01*
X6999200Y5799200D02*
Y5900800D01*
X7100800D01*
Y5799200D01*
X6999200D01*
X7019520Y5819520D02*
Y5880480D01*
X7080480D01*
Y5819520D01*
X7019520D01*
X12939198Y5519200D02*
Y5620800D01*
X13040797D01*
Y5519200D01*
X12939198D01*
X12959518Y5539520D02*
Y5600480D01*
X13020477D01*
Y5539520D01*
X12959518D01*
X12939198Y5409200D02*
Y5510800D01*
X13040799D01*
Y5409200D01*
X12939198D01*
X12959518Y5429520D02*
Y5490480D01*
X13020479D01*
Y5429520D01*
X12959518D01*
X12689198Y5774200D02*
Y5875800D01*
X12790798D01*
Y5774200D01*
X12689198D01*
X12709518Y5794520D02*
Y5855480D01*
X12770478D01*
Y5794520D01*
X12709518D01*
X11549200Y3294200D02*
Y3395800D01*
X11650800D01*
Y3294200D01*
X11549200D01*
X11569520Y3314520D02*
Y3375480D01*
X11630480D01*
Y3314520D01*
X11569520D01*
X12939198Y3094200D02*
Y3195800D01*
X13040797D01*
Y3094200D01*
X12939198D01*
X12959518Y3114520D02*
Y3175480D01*
X13020477D01*
Y3114520D01*
X12959518D01*
X5974200Y5514200D02*
Y5615800D01*
X6075800D01*
Y5514200D01*
X5974200D01*
X5994520Y5534520D02*
Y5595480D01*
X6055480D01*
Y5534520D01*
X5994520D01*
X5974200Y5594200D02*
Y5695800D01*
X6075800D01*
Y5594200D01*
X5974200D01*
X5994520Y5614520D02*
Y5675480D01*
X6055480D01*
Y5614520D01*
X5994520D01*
X5974200Y5674200D02*
Y5775800D01*
X6075800D01*
Y5674200D01*
X5974200D01*
X5994520Y5694520D02*
Y5755480D01*
X6055480D01*
Y5694520D01*
X5994520D01*
X5494200Y4909200D02*
Y5010800D01*
X5595800D01*
Y4909200D01*
X5494200D01*
X5514520Y4929520D02*
Y4990480D01*
X5575480D01*
Y4929520D01*
X5514520D01*
X5434200Y4969200D02*
Y5070800D01*
X5535800D01*
Y4969200D01*
X5434200D01*
X5454520Y4989520D02*
Y5050480D01*
X5515480D01*
Y4989520D01*
X5454520D01*
X5374200Y5029200D02*
Y5130800D01*
X5475800D01*
Y5029200D01*
X5374200D01*
X5394520Y5049520D02*
Y5110480D01*
X5455480D01*
Y5049520D01*
X5394520D01*
X7815197Y5804198D02*
Y5905798D01*
X7916797D01*
Y5804198D01*
X7815197D01*
X7835517Y5824518D02*
Y5885478D01*
X7896477D01*
Y5824518D01*
X7835517D01*
X11175197Y5804198D02*
Y5905798D01*
X11276797D01*
Y5804198D01*
X11175197D01*
X11195517Y5824518D02*
Y5885478D01*
X11256477D01*
Y5824518D01*
X11195517D01*
X7942197Y5804198D02*
Y5905798D01*
X8043797D01*
Y5804198D01*
X7942197D01*
X7962517Y5824518D02*
Y5885478D01*
X8023477D01*
Y5824518D01*
X7962517D01*
X11302197Y5804198D02*
Y5905798D01*
X11403797D01*
Y5804198D01*
X11302197D01*
X11322517Y5824518D02*
Y5885478D01*
X11383477D01*
Y5824518D01*
X11322517D01*
X11302197Y4879201D02*
Y4980801D01*
X11403797D01*
Y4879201D01*
X11302197D01*
X11322517Y4899521D02*
Y4960481D01*
X11383477D01*
Y4899521D01*
X11322517D01*
X9495197Y5804198D02*
Y5905798D01*
X9596797D01*
Y5804198D01*
X9495197D01*
X9515517Y5824518D02*
Y5885478D01*
X9576477D01*
Y5824518D01*
X9515517D01*
X10869197Y5804198D02*
Y5905798D01*
X10970797D01*
Y5804198D01*
X10869197D01*
X10889517Y5824518D02*
Y5885478D01*
X10950477D01*
Y5824518D01*
X10889517D01*
X10055197Y5804198D02*
Y5905798D01*
X10156797D01*
Y5804198D01*
X10055197D01*
X10075517Y5824518D02*
Y5885478D01*
X10136477D01*
Y5824518D01*
X10075517D01*
X10615197Y5804198D02*
Y5905798D01*
X10716797D01*
Y5804198D01*
X10615197D01*
X10635517Y5824518D02*
Y5885478D01*
X10696477D01*
Y5824518D01*
X10635517D01*
X11544200Y2519200D02*
Y2620800D01*
X11645800D01*
Y2519200D01*
X11544200D01*
X11564520Y2539520D02*
Y2600480D01*
X11625480D01*
Y2539520D01*
X11564520D01*
X11544200Y2619200D02*
Y2720800D01*
X11645800D01*
Y2619200D01*
X11544200D01*
X11564520Y2639520D02*
Y2700480D01*
X11625480D01*
Y2639520D01*
X11564520D01*
X11544200Y3964200D02*
Y4065800D01*
X11645800D01*
Y3964200D01*
X11544200D01*
X11564520Y3984520D02*
Y4045480D01*
X11625480D01*
Y3984520D01*
X11564520D01*
X11549200Y4634200D02*
Y4735800D01*
X11650800D01*
Y4634200D01*
X11549200D01*
X11569520Y4654520D02*
Y4715480D01*
X11630480D01*
Y4654520D01*
X11569520D01*
X13884200Y2639200D02*
Y2740800D01*
X13985800D01*
Y2639200D01*
X13884200D01*
X13904520Y2659520D02*
Y2720480D01*
X13965480D01*
Y2659520D01*
X13904520D01*
X13889200Y3314200D02*
Y3415800D01*
X13990800D01*
Y3314200D01*
X13889200D01*
X13909520Y3334520D02*
Y3395480D01*
X13970480D01*
Y3334520D01*
X13909520D01*
X13884200Y3984200D02*
Y4085800D01*
X13985800D01*
Y3984200D01*
X13884200D01*
X13904520Y4004520D02*
Y4065480D01*
X13965480D01*
Y4004520D01*
X13904520D01*
X13889200Y4654200D02*
Y4755800D01*
X13990800D01*
Y4654200D01*
X13889200D01*
X13909520Y4674520D02*
Y4735480D01*
X13970480D01*
Y4674520D01*
X13909520D01*
X11549200Y5199200D02*
Y5300800D01*
X11650800D01*
Y5199200D01*
X11549200D01*
X11569520Y5219520D02*
Y5280480D01*
X11630480D01*
Y5219520D01*
X11569520D01*
X11549200Y5299200D02*
Y5400800D01*
X11650800D01*
Y5299200D01*
X11549200D01*
X11569520Y5319520D02*
Y5380480D01*
X11630480D01*
Y5319520D01*
X11569520D01*
X14459200Y5189200D02*
Y5290800D01*
X14560800D01*
Y5189200D01*
X14459200D01*
X14479520Y5209520D02*
Y5270480D01*
X14540480D01*
Y5209520D01*
X14479520D01*
X13889200Y5319200D02*
Y5420800D01*
X13990800D01*
Y5319200D01*
X13889200D01*
X13909520Y5339520D02*
Y5400480D01*
X13970480D01*
Y5339520D01*
X13909520D01*
X7073691Y3862475D02*
Y3964075D01*
X7175291D01*
Y3862475D01*
X7073691D01*
X7094011Y3882795D02*
Y3943755D01*
X7154971D01*
Y3882795D01*
X7094011D01*
X7559200Y3519200D02*
Y3620800D01*
X7660800D01*
Y3519200D01*
X7559200D01*
X7579520Y3539520D02*
Y3600480D01*
X7640480D01*
Y3539520D01*
X7579520D01*
X7499200Y3579200D02*
Y3680800D01*
X7600800D01*
Y3579200D01*
X7499200D01*
X7519520Y3599520D02*
Y3660480D01*
X7580480D01*
Y3599520D01*
X7519520D01*
X7529200Y3439200D02*
Y3540800D01*
X7630800D01*
Y3439200D01*
X7529200D01*
X7549520Y3459520D02*
Y3520480D01*
X7610480D01*
Y3459520D01*
X7549520D01*
X8409200Y4219200D02*
Y4320800D01*
X8510800D01*
Y4219200D01*
X8409200D01*
X8429520Y4239520D02*
Y4300480D01*
X8490480D01*
Y4239520D01*
X8429520D01*
X7439200Y3639200D02*
Y3740800D01*
X7540800D01*
Y3639200D01*
X7439200D01*
X7459520Y3659520D02*
Y3720480D01*
X7520480D01*
Y3659520D01*
X7459520D01*
X8389200Y4139200D02*
Y4240800D01*
X8490800D01*
Y4139200D01*
X8389200D01*
X8409520Y4159520D02*
Y4220480D01*
X8470480D01*
Y4159520D01*
X8409520D01*
X5349200Y2249200D02*
Y2350800D01*
X5450800D01*
Y2249200D01*
X5349200D01*
X5369520Y2269520D02*
Y2330480D01*
X5430480D01*
Y2269520D01*
X5369520D01*
X10610000Y1714200D02*
X10559200Y1815800D01*
X10660800D01*
X10610000Y1714200D01*
Y1734520D02*
X10579520Y1795480D01*
X10640480D01*
X10610000Y1734520D01*
X10600000Y1564200D02*
X10549200Y1665800D01*
X10650800D01*
X10600000Y1564200D01*
Y1584520D02*
X10569520Y1645480D01*
X10630480D01*
X10600000Y1584520D01*
X11310000Y1709200D02*
X11259200Y1810800D01*
X11360800D01*
X11310000Y1709200D01*
Y1729520D02*
X11279520Y1790480D01*
X11340480D01*
X11310000Y1729520D01*
X10524200Y3299200D02*
Y3400800D01*
X10625800D01*
Y3299200D01*
X10524200D01*
X10544520Y3319520D02*
Y3380480D01*
X10605480D01*
Y3319520D01*
X10544520D01*
X10524200Y3499200D02*
Y3600800D01*
X10625800D01*
Y3499200D01*
X10524200D01*
X10544520Y3519520D02*
Y3580480D01*
X10605480D01*
Y3519520D01*
X10544520D01*
X10529200Y3599200D02*
Y3700800D01*
X10630800D01*
Y3599200D01*
X10529200D01*
X10549520Y3619520D02*
Y3680480D01*
X10610480D01*
Y3619520D01*
X10549520D01*
X9729200Y3624200D02*
Y3725800D01*
X9830800D01*
Y3624200D01*
X9729200D01*
X9749520Y3644520D02*
Y3705480D01*
X9810480D01*
Y3644520D01*
X9749520D01*
X9374200Y3524200D02*
Y3625800D01*
X9475800D01*
Y3524200D01*
X9374200D01*
X9394520Y3544520D02*
Y3605480D01*
X9455480D01*
Y3544520D01*
X9394520D01*
X9724200Y3474200D02*
Y3575800D01*
X9825800D01*
Y3474200D01*
X9724200D01*
X9744520Y3494520D02*
Y3555480D01*
X9805480D01*
Y3494520D01*
X9744520D01*
X9374200Y3424200D02*
Y3525800D01*
X9475800D01*
Y3424200D01*
X9374200D01*
X9394520Y3444520D02*
Y3505480D01*
X9455480D01*
Y3444520D01*
X9394520D01*
X9724200Y3374200D02*
Y3475800D01*
X9825800D01*
Y3374200D01*
X9724200D01*
X9744520Y3394520D02*
Y3455480D01*
X9805480D01*
Y3394520D01*
X9744520D01*
X8204200Y1570691D02*
Y1672291D01*
X8305800D01*
Y1570691D01*
X8204200D01*
X8224520Y1591011D02*
Y1651971D01*
X8285480D01*
Y1591011D01*
X8224520D01*
X8204200Y1443691D02*
Y1545291D01*
X8305800D01*
Y1443691D01*
X8204200D01*
X8224520Y1464011D02*
Y1524971D01*
X8285480D01*
Y1464011D01*
X8224520D01*
X8204200Y1189691D02*
Y1291291D01*
X8305800D01*
Y1189691D01*
X8204200D01*
X8224520Y1210011D02*
Y1270971D01*
X8285480D01*
Y1210011D01*
X8224520D01*
X8204200Y1316691D02*
Y1418291D01*
X8305800D01*
Y1316691D01*
X8204200D01*
X8224520Y1337011D02*
Y1397971D01*
X8285480D01*
Y1337011D01*
X8224520D01*
X1599200Y5199200D02*
Y5300800D01*
X1700800D01*
Y5199200D01*
X1599200D01*
X1619520Y5219520D02*
Y5280480D01*
X1680480D01*
Y5219520D01*
X1619520D01*
X3924200Y5164200D02*
Y5265800D01*
X4025800D01*
Y5164200D01*
X3924200D01*
X3944520Y5184520D02*
Y5245480D01*
X4005480D01*
Y5184520D01*
X3944520D01*
X4199200Y5169200D02*
Y5270800D01*
X4300800D01*
Y5169200D01*
X4199200D01*
X4219520Y5189520D02*
Y5250480D01*
X4280480D01*
Y5189520D01*
X4219520D01*
X4199200Y5254200D02*
Y5355800D01*
X4300800D01*
Y5254200D01*
X4199200D01*
X4219520Y5274520D02*
Y5335480D01*
X4280480D01*
Y5274520D01*
X4219520D01*
X6674200Y2774200D02*
Y2875800D01*
X6775800D01*
Y2774200D01*
X6674200D01*
X6694520Y2794520D02*
Y2855480D01*
X6755480D01*
Y2794520D01*
X6694520D01*
X8249200Y3339200D02*
Y3440800D01*
X8350800D01*
Y3339200D01*
X8249200D01*
X8269520Y3359520D02*
Y3420480D01*
X8330480D01*
Y3359520D01*
X8269520D01*
X8290403Y3474202D02*
X8239603Y3575802D01*
X8341203D01*
X8290403Y3474202D01*
Y3494522D02*
X8259923Y3555482D01*
X8320883D01*
X8290403Y3494522D01*
X8224198Y3849200D02*
Y3950800D01*
X8325798D01*
Y3849200D01*
X8224198D01*
X8244518Y3869520D02*
Y3930480D01*
X8305478D01*
Y3869520D01*
X8244518D01*
X3274200Y5060449D02*
Y5162049D01*
X3375800D01*
Y5060449D01*
X3274200D01*
X3294520Y5080769D02*
Y5141729D01*
X3355480D01*
Y5080769D01*
X3294520D01*
X3274200Y5280449D02*
Y5382049D01*
X3375800D01*
Y5280449D01*
X3274200D01*
X3294520Y5300769D02*
Y5361729D01*
X3355480D01*
Y5300769D01*
X3294520D01*
X3924200Y4845448D02*
Y4947048D01*
X4025800D01*
Y4845448D01*
X3924200D01*
X3944520Y4865768D02*
Y4926728D01*
X4005480D01*
Y4865768D01*
X3944520D01*
X3924200Y5054200D02*
Y5155800D01*
X4025800D01*
Y5054200D01*
X3924200D01*
X3944520Y5074520D02*
Y5135480D01*
X4005480D01*
Y5074520D01*
X3944520D01*
X3924200Y5279200D02*
Y5380800D01*
X4025800D01*
Y5279200D01*
X3924200D01*
X3944520Y5299520D02*
Y5360480D01*
X4005480D01*
Y5299520D01*
X3944520D01*
X3924200Y5499200D02*
Y5600800D01*
X4025800D01*
Y5499200D01*
X3924200D01*
X3944520Y5519520D02*
Y5580480D01*
X4005480D01*
Y5519520D01*
X3944520D01*
X3924200Y4950452D02*
Y5052052D01*
X4025800D01*
Y4950452D01*
X3924200D01*
X3944520Y4970772D02*
Y5031732D01*
X4005480D01*
Y4970772D01*
X3944520D01*
X3924200Y5799200D02*
Y5900800D01*
X4025800D01*
Y5799200D01*
X3924200D01*
X3944520Y5819520D02*
Y5880480D01*
X4005480D01*
Y5819520D01*
X3944520D01*
X5254200Y3229200D02*
Y3330800D01*
X5355800D01*
Y3229200D01*
X5254200D01*
X5274520Y3249520D02*
Y3310480D01*
X5335480D01*
Y3249520D01*
X5274520D01*
X5274200Y2524200D02*
Y2625800D01*
X5375800D01*
Y2524200D01*
X5274200D01*
X5294520Y2544520D02*
Y2605480D01*
X5355480D01*
Y2544520D01*
X5294520D01*
X5274200Y2149200D02*
Y2250800D01*
X5375800D01*
Y2149200D01*
X5274200D01*
X5294520Y2169520D02*
Y2230480D01*
X5355480D01*
Y2169520D01*
X5294520D01*
X5199200Y2049200D02*
Y2150800D01*
X5300800D01*
Y2049200D01*
X5199200D01*
X5219520Y2069520D02*
Y2130480D01*
X5280480D01*
Y2069520D01*
X5219520D01*
X5049200Y2049200D02*
Y2150800D01*
X5150800D01*
Y2049200D01*
X5049200D01*
X5069520Y2069520D02*
Y2130480D01*
X5130480D01*
Y2069520D01*
X5069520D01*
X5199200Y2699200D02*
Y2800800D01*
X5300800D01*
Y2699200D01*
X5199200D01*
X5219520Y2719520D02*
Y2780480D01*
X5280480D01*
Y2719520D01*
X5219520D01*
X5149200Y2774200D02*
Y2875800D01*
X5250800D01*
Y2774200D01*
X5149200D01*
X5169520Y2794520D02*
Y2855480D01*
X5230480D01*
Y2794520D01*
X5169520D01*
X5124200Y2624200D02*
Y2725800D01*
X5225800D01*
Y2624200D01*
X5124200D01*
X5144520Y2644520D02*
Y2705480D01*
X5205480D01*
Y2644520D01*
X5144520D01*
X5049200Y2724200D02*
Y2825800D01*
X5150800D01*
Y2724200D01*
X5049200D01*
X5069520Y2744520D02*
Y2805480D01*
X5130480D01*
Y2744520D01*
X5069520D01*
X6374200Y2774200D02*
Y2875800D01*
X6475800D01*
Y2774200D01*
X6374200D01*
X6394520Y2794520D02*
Y2855480D01*
X6455480D01*
Y2794520D01*
X6394520D01*
X4674200Y3274200D02*
Y3375800D01*
X4775800D01*
Y3274200D01*
X4674200D01*
X4694520Y3294520D02*
Y3355480D01*
X4755480D01*
Y3294520D01*
X4694520D01*
X4674200Y3429200D02*
Y3530800D01*
X4775800D01*
Y3429200D01*
X4674200D01*
X4694520Y3449520D02*
Y3510480D01*
X4755480D01*
Y3449520D01*
X4694520D01*
X4674200Y3624200D02*
Y3725800D01*
X4775800D01*
Y3624200D01*
X4674200D01*
X4694520Y3644520D02*
Y3705480D01*
X4755480D01*
Y3644520D01*
X4694520D01*
X3329198Y4624200D02*
Y4725800D01*
X3430798D01*
Y4624200D01*
X3329198D01*
X3349518Y4644520D02*
Y4705480D01*
X3410478D01*
Y4644520D01*
X3349518D01*
X3139200Y4624200D02*
Y4725800D01*
X3240800D01*
Y4624200D01*
X3139200D01*
X3159520Y4644520D02*
Y4705480D01*
X3220480D01*
Y4644520D01*
X3159520D01*
X2569200Y4624200D02*
Y4725800D01*
X2670800D01*
Y4624200D01*
X2569200D01*
X2589520Y4644520D02*
Y4705480D01*
X2650480D01*
Y4644520D01*
X2589520D01*
X1149200Y3599200D02*
Y3700800D01*
X1250800D01*
Y3599200D01*
X1149200D01*
X1169520Y3619520D02*
Y3680480D01*
X1230480D01*
Y3619520D01*
X1169520D01*
X1149200Y3249200D02*
Y3350800D01*
X1250800D01*
Y3249200D01*
X1149200D01*
X1169520Y3269520D02*
Y3330480D01*
X1230480D01*
Y3269520D01*
X1169520D01*
X1149200Y3059200D02*
Y3160800D01*
X1250800D01*
Y3059200D01*
X1149200D01*
X1169520Y3079520D02*
Y3140480D01*
X1230480D01*
Y3079520D01*
X1169520D01*
X1149200Y2874200D02*
Y2975800D01*
X1250800D01*
Y2874200D01*
X1149200D01*
X1169520Y2894520D02*
Y2955480D01*
X1230480D01*
Y2894520D01*
X1169520D01*
X6549200Y4399200D02*
Y4500800D01*
X6650800D01*
Y4399200D01*
X6549200D01*
X6569520Y4419520D02*
Y4480480D01*
X6630480D01*
Y4419520D01*
X6569520D01*
X6294200Y3309200D02*
Y3410800D01*
X6395800D01*
Y3309200D01*
X6294200D01*
X6314520Y3329520D02*
Y3390480D01*
X6375480D01*
Y3329520D01*
X6314520D01*
X6049200Y3424200D02*
Y3525800D01*
X6150800D01*
Y3424200D01*
X6049200D01*
X6069520Y3444520D02*
Y3505480D01*
X6130480D01*
Y3444520D01*
X6069520D01*
X5199200Y3499200D02*
Y3600800D01*
X5300800D01*
Y3499200D01*
X5199200D01*
X5219520Y3519520D02*
Y3580480D01*
X5280480D01*
Y3519520D01*
X5219520D01*
X5104200Y3599200D02*
Y3700800D01*
X5205800D01*
Y3599200D01*
X5104200D01*
X5124520Y3619520D02*
Y3680480D01*
X5185480D01*
Y3619520D01*
X5124520D01*
X6109200Y4569200D02*
Y4670800D01*
X6210800D01*
Y4569200D01*
X6109200D01*
X6129520Y4589520D02*
Y4650480D01*
X6190480D01*
Y4589520D01*
X6129520D01*
X5689200Y4149200D02*
Y4250800D01*
X5790800D01*
Y4149200D01*
X5689200D01*
X5709520Y4169520D02*
Y4230480D01*
X5770480D01*
Y4169520D01*
X5709520D01*
X6619150Y4329200D02*
Y4430800D01*
X6720750D01*
Y4329200D01*
X6619150D01*
X6639470Y4349520D02*
Y4410480D01*
X6700430D01*
Y4349520D01*
X6639470D01*
X5749200Y4209200D02*
Y4310800D01*
X5850800D01*
Y4209200D01*
X5749200D01*
X5769520Y4229520D02*
Y4290480D01*
X5830480D01*
Y4229520D01*
X5769520D01*
X6169200Y4629200D02*
Y4730800D01*
X6270800D01*
Y4629200D01*
X6169200D01*
X6189520Y4649520D02*
Y4710480D01*
X6250480D01*
Y4649520D01*
X6189520D01*
X7014200Y3924200D02*
Y4025800D01*
X7115800D01*
Y3924200D01*
X7014200D01*
X7034520Y3944520D02*
Y4005480D01*
X7095480D01*
Y3944520D01*
X7034520D01*
X14874005Y5784395D02*
Y5885995D01*
X14975604D01*
Y5784395D01*
X14874005D01*
X14894325Y5804715D02*
Y5865675D01*
X14955286D01*
Y5804715D01*
X14894325D01*
X12939198Y5649200D02*
Y5750800D01*
X13040797D01*
Y5649200D01*
X12939198D01*
X12959518Y5669520D02*
Y5730480D01*
X13020477D01*
Y5669520D01*
X12959518D01*
X15119200Y5799200D02*
Y5900800D01*
X15220799D01*
Y5799200D01*
X15119200D01*
X15139520Y5819520D02*
Y5880480D01*
X15200481D01*
Y5819520D01*
X15139520D01*
X15079201Y5404200D02*
Y5505800D01*
X15180800D01*
Y5404200D01*
X15079201D01*
X15099519Y5424520D02*
Y5485480D01*
X15160480D01*
Y5424520D01*
X15099519D01*
X12939198Y5774200D02*
Y5875800D01*
X13040797D01*
Y5774200D01*
X12939198D01*
X12959518Y5794520D02*
Y5855480D01*
X13020477D01*
Y5794520D01*
X12959518D01*
X14459200Y5859200D02*
Y5960800D01*
X14560800D01*
Y5859200D01*
X14459200D01*
X14479520Y5879520D02*
Y5940480D01*
X14540480D01*
Y5879520D01*
X14479520D01*
X14764200Y5299200D02*
Y5400800D01*
X14865800D01*
Y5299200D01*
X14764200D01*
X14784520Y5319520D02*
Y5380480D01*
X14845480D01*
Y5319520D01*
X14784520D01*
X13649200Y5784200D02*
Y5885800D01*
X13750800D01*
Y5784200D01*
X13649200D01*
X13669521Y5804520D02*
Y5865480D01*
X13730479D01*
Y5804520D01*
X13669521D01*
X13894200Y5799200D02*
Y5900800D01*
X13995799D01*
Y5799200D01*
X13894200D01*
X13914520Y5819520D02*
Y5880480D01*
X13975481D01*
Y5819520D01*
X13914520D01*
X12159200Y5409200D02*
Y5510800D01*
X12260800D01*
Y5409200D01*
X12159200D01*
X12179520Y5429520D02*
Y5490480D01*
X12240480D01*
Y5429520D01*
X12179520D01*
X13854201Y5404200D02*
Y5505800D01*
X13955800D01*
Y5404200D01*
X13854201D01*
X13874519Y5424520D02*
Y5485480D01*
X13935480D01*
Y5424520D01*
X13874519D01*
X13234200Y5859200D02*
Y5960800D01*
X13335800D01*
Y5859200D01*
X13234200D01*
X13254520Y5879520D02*
Y5940480D01*
X13315480D01*
Y5879520D01*
X13254520D01*
X13539296Y5299594D02*
Y5401194D01*
X13640897D01*
Y5299594D01*
X13539296D01*
X13559616Y5319914D02*
Y5380874D01*
X13620576D01*
Y5319914D01*
X13559616D01*
X14874200Y5114200D02*
Y5215800D01*
X14975800D01*
Y5114200D01*
X14874200D01*
X14894521Y5134520D02*
Y5195480D01*
X14955479D01*
Y5134520D01*
X14894521D01*
X12939198Y4979200D02*
Y5080800D01*
X13040797D01*
Y4979200D01*
X12939198D01*
X12959518Y4999520D02*
Y5060480D01*
X13020477D01*
Y4999520D01*
X12959518D01*
X15119200Y5129200D02*
Y5230800D01*
X15220799D01*
Y5129200D01*
X15119200D01*
X15139520Y5149520D02*
Y5210480D01*
X15200481D01*
Y5149520D01*
X15139520D01*
X12939198Y4739200D02*
Y4840800D01*
X13040799D01*
Y4739200D01*
X12939198D01*
X12959518Y4759520D02*
Y4820480D01*
X13020479D01*
Y4759520D01*
X12959518D01*
X15079201Y4734200D02*
Y4835800D01*
X15180800D01*
Y4734200D01*
X15079201D01*
X15099519Y4754520D02*
Y4815480D01*
X15160480D01*
Y4754520D01*
X15099519D01*
X12939198Y5104200D02*
Y5205800D01*
X13040797D01*
Y5104200D01*
X12939198D01*
X12959518Y5124520D02*
Y5185480D01*
X13020477D01*
Y5124520D01*
X12959518D01*
X12939198Y4849200D02*
Y4950800D01*
X13040797D01*
Y4849200D01*
X12939198D01*
X12959518Y4869520D02*
Y4930480D01*
X13020477D01*
Y4869520D01*
X12959518D01*
X14764200Y4629200D02*
Y4730800D01*
X14865800D01*
Y4629200D01*
X14764200D01*
X14784520Y4649520D02*
Y4710480D01*
X14845480D01*
Y4649520D01*
X14784520D01*
X13649200Y5114200D02*
Y5215800D01*
X13750800D01*
Y5114200D01*
X13649200D01*
X13669521Y5134520D02*
Y5195480D01*
X13730479D01*
Y5134520D01*
X13669521D01*
X12159199Y4979200D02*
Y5080800D01*
X12260799D01*
Y4979200D01*
X12159199D01*
X12179519Y4999520D02*
Y5060480D01*
X12240479D01*
Y4999520D01*
X12179519D01*
X13894200Y5129200D02*
Y5230800D01*
X13995799D01*
Y5129200D01*
X13894200D01*
X13914520Y5149520D02*
Y5210480D01*
X13975481D01*
Y5149520D01*
X13914520D01*
X12159200Y4739200D02*
Y4840800D01*
X12260800D01*
Y4739200D01*
X12159200D01*
X12179520Y4759520D02*
Y4820480D01*
X12240480D01*
Y4759520D01*
X12179520D01*
X13854201Y4734200D02*
Y4835800D01*
X13955800D01*
Y4734200D01*
X13854201D01*
X13874519Y4754520D02*
Y4815480D01*
X13935480D01*
Y4754520D01*
X13874519D01*
X13234200Y5189200D02*
Y5290800D01*
X13335800D01*
Y5189200D01*
X13234200D01*
X13254520Y5209520D02*
Y5270480D01*
X13315480D01*
Y5209520D01*
X13254520D01*
X12159199Y4849200D02*
Y4950800D01*
X12260799D01*
Y4849200D01*
X12159199D01*
X12179519Y4869520D02*
Y4930480D01*
X12240479D01*
Y4869520D01*
X12179519D01*
X13539296Y4629594D02*
Y4731194D01*
X13640897D01*
Y4629594D01*
X13539296D01*
X13559616Y4649914D02*
Y4710874D01*
X13620576D01*
Y4649914D01*
X13559616D01*
X14874200Y4444200D02*
Y4545800D01*
X14975800D01*
Y4444200D01*
X14874200D01*
X14894521Y4464520D02*
Y4525480D01*
X14955479D01*
Y4464520D01*
X14894521D01*
X12939198Y4309200D02*
Y4410800D01*
X13040797D01*
Y4309200D01*
X12939198D01*
X12959518Y4329520D02*
Y4390480D01*
X13020477D01*
Y4329520D01*
X12959518D01*
X15119200Y4459200D02*
Y4560800D01*
X15220799D01*
Y4459200D01*
X15119200D01*
X15139520Y4479520D02*
Y4540480D01*
X15200481D01*
Y4479520D01*
X15139520D01*
X12939198Y4069200D02*
Y4170800D01*
X13040799D01*
Y4069200D01*
X12939198D01*
X12959518Y4089520D02*
Y4150480D01*
X13020479D01*
Y4089520D01*
X12959518D01*
X15079201Y4064200D02*
Y4165800D01*
X15180800D01*
Y4064200D01*
X15079201D01*
X15099519Y4084520D02*
Y4145480D01*
X15160480D01*
Y4084520D01*
X15099519D01*
X12939198Y4434200D02*
Y4535800D01*
X13040797D01*
Y4434200D01*
X12939198D01*
X12959518Y4454520D02*
Y4515480D01*
X13020477D01*
Y4454520D01*
X12959518D01*
X14459200Y4519200D02*
Y4620800D01*
X14560800D01*
Y4519200D01*
X14459200D01*
X14479520Y4539520D02*
Y4600480D01*
X14540480D01*
Y4539520D01*
X14479520D01*
X12939198Y4179200D02*
Y4280800D01*
X13040797D01*
Y4179200D01*
X12939198D01*
X12959518Y4199520D02*
Y4260480D01*
X13020477D01*
Y4199520D01*
X12959518D01*
X14764200Y3959200D02*
Y4060800D01*
X14865800D01*
Y3959200D01*
X14764200D01*
X14784520Y3979520D02*
Y4040480D01*
X14845480D01*
Y3979520D01*
X14784520D01*
X13649200Y4444200D02*
Y4545800D01*
X13750800D01*
Y4444200D01*
X13649200D01*
X13669521Y4464520D02*
Y4525480D01*
X13730479D01*
Y4464520D01*
X13669521D01*
X12159199Y4309200D02*
Y4410800D01*
X12260799D01*
Y4309200D01*
X12159199D01*
X12179519Y4329520D02*
Y4390480D01*
X12240479D01*
Y4329520D01*
X12179519D01*
X13894200Y4459200D02*
Y4560800D01*
X13995799D01*
Y4459200D01*
X13894200D01*
X13914520Y4479520D02*
Y4540480D01*
X13975481D01*
Y4479520D01*
X13914520D01*
X12159200Y4069200D02*
Y4170800D01*
X12260800D01*
Y4069200D01*
X12159200D01*
X12179520Y4089520D02*
Y4150480D01*
X12240480D01*
Y4089520D01*
X12179520D01*
X13854201Y4064200D02*
Y4165800D01*
X13955800D01*
Y4064200D01*
X13854201D01*
X13874519Y4084520D02*
Y4145480D01*
X13935480D01*
Y4084520D01*
X13874519D01*
X12159199Y4434200D02*
Y4535800D01*
X12260799D01*
Y4434200D01*
X12159199D01*
X12179519Y4454520D02*
Y4515480D01*
X12240479D01*
Y4454520D01*
X12179519D01*
X13234200Y4519200D02*
Y4620800D01*
X13335800D01*
Y4519200D01*
X13234200D01*
X13254520Y4539520D02*
Y4600480D01*
X13315480D01*
Y4539520D01*
X13254520D01*
X12159199Y4179200D02*
Y4280800D01*
X12260799D01*
Y4179200D01*
X12159199D01*
X12179519Y4199520D02*
Y4260480D01*
X12240479D01*
Y4199520D01*
X12179519D01*
X13539296Y3959594D02*
Y4061194D01*
X13640897D01*
Y3959594D01*
X13539296D01*
X13559616Y3979914D02*
Y4040874D01*
X13620576D01*
Y3979914D01*
X13559616D01*
X14874200Y3774200D02*
Y3875800D01*
X14975800D01*
Y3774200D01*
X14874200D01*
X14894521Y3794520D02*
Y3855480D01*
X14955479D01*
Y3794520D01*
X14894521D01*
X12939198Y3639200D02*
Y3740800D01*
X13040797D01*
Y3639200D01*
X12939198D01*
X12959518Y3659520D02*
Y3720480D01*
X13020477D01*
Y3659520D01*
X12959518D01*
X15119200Y3789200D02*
Y3890800D01*
X15220799D01*
Y3789200D01*
X15119200D01*
X15139520Y3809520D02*
Y3870480D01*
X15200481D01*
Y3809520D01*
X15139520D01*
X12939198Y3399200D02*
Y3500800D01*
X13040799D01*
Y3399200D01*
X12939198D01*
X12959518Y3419520D02*
Y3480480D01*
X13020479D01*
Y3419520D01*
X12959518D01*
X15079201Y3394200D02*
Y3495800D01*
X15180800D01*
Y3394200D01*
X15079201D01*
X15099519Y3414520D02*
Y3475480D01*
X15160480D01*
Y3414520D01*
X15099519D01*
X12939198Y3764200D02*
Y3865800D01*
X13040797D01*
Y3764200D01*
X12939198D01*
X12959518Y3784520D02*
Y3845480D01*
X13020477D01*
Y3784520D01*
X12959518D01*
X14459200Y3849200D02*
Y3950800D01*
X14560800D01*
Y3849200D01*
X14459200D01*
X14479520Y3869520D02*
Y3930480D01*
X14540480D01*
Y3869520D01*
X14479520D01*
X12939198Y3509200D02*
Y3610800D01*
X13040797D01*
Y3509200D01*
X12939198D01*
X12959518Y3529520D02*
Y3590480D01*
X13020477D01*
Y3529520D01*
X12959518D01*
X14764200Y3289200D02*
Y3390800D01*
X14865800D01*
Y3289200D01*
X14764200D01*
X14784520Y3309520D02*
Y3370480D01*
X14845480D01*
Y3309520D01*
X14784520D01*
X13649200Y3774200D02*
Y3875800D01*
X13750800D01*
Y3774200D01*
X13649200D01*
X13669521Y3794520D02*
Y3855480D01*
X13730479D01*
Y3794520D01*
X13669521D01*
X12159199Y3639200D02*
Y3740800D01*
X12260799D01*
Y3639200D01*
X12159199D01*
X12179519Y3659520D02*
Y3720480D01*
X12240479D01*
Y3659520D01*
X12179519D01*
X13894200Y3789200D02*
Y3890800D01*
X13995799D01*
Y3789200D01*
X13894200D01*
X13914520Y3809520D02*
Y3870480D01*
X13975481D01*
Y3809520D01*
X13914520D01*
X12159200Y3399200D02*
Y3500800D01*
X12260800D01*
Y3399200D01*
X12159200D01*
X12179520Y3419520D02*
Y3480480D01*
X12240480D01*
Y3419520D01*
X12179520D01*
X13854201Y3394200D02*
Y3495800D01*
X13955800D01*
Y3394200D01*
X13854201D01*
X13874519Y3414520D02*
Y3475480D01*
X13935480D01*
Y3414520D01*
X13874519D01*
X12159199Y3764200D02*
Y3865800D01*
X12260799D01*
Y3764200D01*
X12159199D01*
X12179519Y3784520D02*
Y3845480D01*
X12240479D01*
Y3784520D01*
X12179519D01*
X13234200Y3849200D02*
Y3950800D01*
X13335800D01*
Y3849200D01*
X13234200D01*
X13254520Y3869520D02*
Y3930480D01*
X13315480D01*
Y3869520D01*
X13254520D01*
X12159199Y3509200D02*
Y3610800D01*
X12260799D01*
Y3509200D01*
X12159199D01*
X12179519Y3529520D02*
Y3590480D01*
X12240479D01*
Y3529520D01*
X12179519D01*
X13539200Y3289200D02*
Y3390800D01*
X13640800D01*
Y3289200D01*
X13539200D01*
X13559520Y3309520D02*
Y3370480D01*
X13620480D01*
Y3309520D01*
X13559520D01*
X6539200Y1344200D02*
Y1445800D01*
X6640800D01*
Y1344200D01*
X6539200D01*
X6559520Y1364520D02*
Y1425480D01*
X6620480D01*
Y1364520D01*
X6559520D01*
X6539200Y1139200D02*
Y1240800D01*
X6640800D01*
Y1139200D01*
X6539200D01*
X6559520Y1159520D02*
Y1220480D01*
X6620480D01*
Y1159520D01*
X6559520D01*
X6539200Y1544200D02*
Y1645800D01*
X6640800D01*
Y1544200D01*
X6539200D01*
X6559520Y1564520D02*
Y1625480D01*
X6620480D01*
Y1564520D01*
X6559520D01*
X6514200Y5794199D02*
Y5895799D01*
X6615800D01*
Y5794199D01*
X6514200D01*
X6534520Y5814519D02*
Y5875479D01*
X6595480D01*
Y5814519D01*
X6534520D01*
X6514200Y5594200D02*
Y5695800D01*
X6615800D01*
Y5594200D01*
X6514200D01*
X6534520Y5614520D02*
Y5675480D01*
X6595480D01*
Y5614520D01*
X6534520D01*
X6514200Y5389200D02*
Y5490800D01*
X6615800D01*
Y5389200D01*
X6514200D01*
X6534520Y5409520D02*
Y5470480D01*
X6595480D01*
Y5409520D01*
X6534520D01*
X6514200Y1784201D02*
Y1885801D01*
X6615800D01*
Y1784201D01*
X6514200D01*
X6534520Y1804521D02*
Y1865481D01*
X6595480D01*
Y1804521D01*
X6534520D01*
X6289200Y2049200D02*
Y2150800D01*
X6390800D01*
Y2049200D01*
X6289200D01*
X6309520Y2069520D02*
Y2130480D01*
X6370480D01*
Y2069520D01*
X6309520D01*
X16000000Y5599200D02*
X16025400Y5624600D01*
X16050800D01*
X16025400Y5650000D01*
X16050800Y5675400D01*
X16025400D01*
X16000000Y5700800D01*
X15974600Y5675400D01*
X15949200D01*
X15974600Y5650000D01*
X15949200Y5624600D01*
X15974600D01*
X16000000Y5599200D01*
Y5619520D02*
X16015240Y5634760D01*
X16030479D01*
X16015240Y5650000D01*
X16030479Y5665240D01*
X16015240D01*
X16000000Y5680480D01*
X15984760Y5665240D01*
X15969521D01*
X15984760Y5650000D01*
X15969521Y5634760D01*
X15984760D01*
X16000000Y5619520D01*
X13179201Y1999200D02*
X13204601Y2050000D01*
X13179201Y2100800D01*
X13230000Y2075400D01*
X13280800Y2100800D01*
X13255400Y2050000D01*
X13280800Y1999200D01*
X13230000Y2024600D01*
X13179201Y1999200D01*
X13199519Y2019520D02*
X13214760Y2050000D01*
X13199519Y2080480D01*
X13230000Y2065240D01*
X13260480Y2080480D01*
X13245239Y2050000D01*
X13260480Y2019520D01*
X13230000Y2034760D01*
X13199519Y2019520D01*
X12179200Y1999200D02*
X12204600Y2050000D01*
X12179200Y2100800D01*
X12230000Y2075400D01*
X12280800Y2100800D01*
X12255400Y2050000D01*
X12280800Y1999200D01*
X12230000Y2024600D01*
X12179200Y1999200D01*
X12199520Y2019520D02*
X12214760Y2050000D01*
X12199520Y2080480D01*
X12230000Y2065240D01*
X12260480Y2080480D01*
X12245240Y2050000D01*
X12260480Y2019520D01*
X12230000Y2034760D01*
X12199520Y2019520D01*
X9000000Y3449200D02*
X9025400Y3474600D01*
X9050800D01*
X9025400Y3500000D01*
X9050800Y3525400D01*
X9025400D01*
X9000000Y3550800D01*
X8974600Y3525400D01*
X8949200D01*
X8974600Y3500000D01*
X8949200Y3474600D01*
X8974600D01*
X9000000Y3449200D01*
Y3469520D02*
X9015240Y3484760D01*
X9030480D01*
X9015240Y3500000D01*
X9030480Y3515240D01*
X9015240D01*
X9000000Y3530480D01*
X8984760Y3515240D01*
X8969520D01*
X8984760Y3500000D01*
X8969520Y3484760D01*
X8984760D01*
X9000000Y3469520D01*
X11429197Y4879201D02*
Y4980801D01*
X11530797D01*
Y4879201D01*
X11429197D01*
X11449517Y4899521D02*
Y4960481D01*
X11510477D01*
Y4899521D01*
X11449517D01*
X8808197Y4879201D02*
Y4980801D01*
X8909797D01*
Y4879201D01*
X8808197D01*
X8828517Y4899521D02*
Y4960481D01*
X8889477D01*
Y4899521D01*
X8828517D01*
X8935197Y4879201D02*
Y4980801D01*
X9036797D01*
Y4879201D01*
X8935197D01*
X8955517Y4899521D02*
Y4960481D01*
X9016477D01*
Y4899521D01*
X8955517D01*
X8375197Y4879201D02*
Y4980801D01*
X8476797D01*
Y4879201D01*
X8375197D01*
X8395517Y4899521D02*
Y4960481D01*
X8456477D01*
Y4899521D01*
X8395517D01*
X8502197Y4879201D02*
Y4980801D01*
X8603797D01*
Y4879201D01*
X8502197D01*
X8522517Y4899521D02*
Y4960481D01*
X8583477D01*
Y4899521D01*
X8522517D01*
X8629197Y4879201D02*
Y4980801D01*
X8730797D01*
Y4879201D01*
X8629197D01*
X8649517Y4899521D02*
Y4960481D01*
X8710477D01*
Y4899521D01*
X8649517D01*
X10488197Y4879201D02*
Y4980801D01*
X10589797D01*
Y4879201D01*
X10488197D01*
X10508517Y4899521D02*
Y4960481D01*
X10569477D01*
Y4899521D01*
X10508517D01*
X9062197Y5804198D02*
Y5905798D01*
X9163797D01*
Y5804198D01*
X9062197D01*
X9082517Y5824518D02*
Y5885478D01*
X9143477D01*
Y5824518D01*
X9082517D01*
X10182197Y5804198D02*
Y5905798D01*
X10283797D01*
Y5804198D01*
X10182197D01*
X10202517Y5824518D02*
Y5885478D01*
X10263477D01*
Y5824518D01*
X10202517D01*
X10309197Y5804198D02*
Y5905798D01*
X10410797D01*
Y5804198D01*
X10309197D01*
X10329517Y5824518D02*
Y5885478D01*
X10390477D01*
Y5824518D01*
X10329517D01*
X8629197Y5804198D02*
Y5905798D01*
X8730797D01*
Y5804198D01*
X8629197D01*
X8649517Y5824518D02*
Y5885478D01*
X8710477D01*
Y5824518D01*
X8649517D01*
X11175197Y4879201D02*
Y4980801D01*
X11276797D01*
Y4879201D01*
X11175197D01*
X11195517Y4899521D02*
Y4960481D01*
X11256477D01*
Y4899521D01*
X11195517D01*
X11429197Y5804198D02*
Y5905798D01*
X11530797D01*
Y5804198D01*
X11429197D01*
X11449517Y5824518D02*
Y5885478D01*
X11510477D01*
Y5824518D01*
X11449517D01*
X11329199Y5334200D02*
Y5435800D01*
X11430799D01*
Y5334200D01*
X11329199D01*
X11349519Y5354520D02*
Y5415480D01*
X11410479D01*
Y5354520D01*
X11349519D01*
X10615197Y4879201D02*
Y4980801D01*
X10716797D01*
Y4879201D01*
X10615197D01*
X10635517Y4899521D02*
Y4960481D01*
X10696477D01*
Y4899521D01*
X10635517D01*
X10869197Y4879201D02*
Y4980801D01*
X10970797D01*
Y4879201D01*
X10869197D01*
X10889517Y4899521D02*
Y4960481D01*
X10950477D01*
Y4899521D01*
X10889517D01*
X10742197Y5804198D02*
Y5905798D01*
X10843797D01*
Y5804198D01*
X10742197D01*
X10762517Y5824518D02*
Y5885478D01*
X10823477D01*
Y5824518D01*
X10762517D01*
X10769199Y5334200D02*
Y5435800D01*
X10870799D01*
Y5334200D01*
X10769199D01*
X10789519Y5354520D02*
Y5415480D01*
X10850479D01*
Y5354520D01*
X10789519D01*
X10742197Y4879201D02*
Y4980801D01*
X10843797D01*
Y4879201D01*
X10742197D01*
X10762517Y4899521D02*
Y4960481D01*
X10823477D01*
Y4899521D01*
X10762517D01*
X10055197Y4879201D02*
Y4980801D01*
X10156797D01*
Y4879201D01*
X10055197D01*
X10075517Y4899521D02*
Y4960481D01*
X10136477D01*
Y4899521D01*
X10075517D01*
X10309197Y4879201D02*
Y4980801D01*
X10410797D01*
Y4879201D01*
X10309197D01*
X10329517Y4899521D02*
Y4960481D01*
X10390477D01*
Y4899521D01*
X10329517D01*
X9928197Y4879201D02*
Y4980801D01*
X10029797D01*
Y4879201D01*
X9928197D01*
X9948517Y4899521D02*
Y4960481D01*
X10009477D01*
Y4899521D01*
X9948517D01*
X10209200Y5334200D02*
Y5435800D01*
X10310800D01*
Y5334200D01*
X10209200D01*
X10229520Y5354520D02*
Y5415480D01*
X10290480D01*
Y5354520D01*
X10229520D01*
X10182197Y4879201D02*
Y4980801D01*
X10283797D01*
Y4879201D01*
X10182197D01*
X10202517Y4899521D02*
Y4960481D01*
X10263477D01*
Y4899521D01*
X10202517D01*
X9495197Y4879201D02*
Y4980801D01*
X9596797D01*
Y4879201D01*
X9495197D01*
X9515517Y4899521D02*
Y4960481D01*
X9576477D01*
Y4899521D01*
X9515517D01*
X9749197Y4879201D02*
Y4980801D01*
X9850797D01*
Y4879201D01*
X9749197D01*
X9769517Y4899521D02*
Y4960481D01*
X9830477D01*
Y4899521D01*
X9769517D01*
X9622197Y5804198D02*
Y5905798D01*
X9723797D01*
Y5804198D01*
X9622197D01*
X9642517Y5824518D02*
Y5885478D01*
X9703477D01*
Y5824518D01*
X9642517D01*
X9749197Y5804198D02*
Y5905798D01*
X9850797D01*
Y5804198D01*
X9749197D01*
X9769517Y5824518D02*
Y5885478D01*
X9830477D01*
Y5824518D01*
X9769517D01*
X9368197Y4879201D02*
Y4980801D01*
X9469797D01*
Y4879201D01*
X9368197D01*
X9388517Y4899521D02*
Y4960481D01*
X9449477D01*
Y4899521D01*
X9388517D01*
X9649200Y5334200D02*
Y5435800D01*
X9750800D01*
Y5334200D01*
X9649200D01*
X9669520Y5354520D02*
Y5415480D01*
X9730480D01*
Y5354520D01*
X9669520D01*
X9622197Y4879201D02*
Y4980801D01*
X9723797D01*
Y4879201D01*
X9622197D01*
X9642517Y4899521D02*
Y4960481D01*
X9703477D01*
Y4899521D01*
X9642517D01*
X9189197Y4879201D02*
Y4980801D01*
X9290797D01*
Y4879201D01*
X9189197D01*
X9209517Y4899521D02*
Y4960481D01*
X9270477D01*
Y4899521D01*
X9209517D01*
X9189197Y5804198D02*
Y5905798D01*
X9290797D01*
Y5804198D01*
X9189197D01*
X9209517Y5824518D02*
Y5885478D01*
X9270477D01*
Y5824518D01*
X9209517D01*
X9062197Y4879201D02*
Y4980801D01*
X9163797D01*
Y4879201D01*
X9062197D01*
X9082517Y4899521D02*
Y4960481D01*
X9143477D01*
Y4899521D01*
X9082517D01*
X8502197Y5804198D02*
Y5905798D01*
X8603797D01*
Y5804198D01*
X8502197D01*
X8522517Y5824518D02*
Y5885478D01*
X8583477D01*
Y5824518D01*
X8522517D01*
X8248197Y4879201D02*
Y4980801D01*
X8349797D01*
Y4879201D01*
X8248197D01*
X8268517Y4899521D02*
Y4960481D01*
X8329477D01*
Y4899521D01*
X8268517D01*
X8529200Y5334200D02*
Y5435800D01*
X8630800D01*
Y5334200D01*
X8529200D01*
X8549520Y5354520D02*
Y5415480D01*
X8610480D01*
Y5354520D01*
X8549520D01*
X8375197Y5804198D02*
Y5905798D01*
X8476797D01*
Y5804198D01*
X8375197D01*
X8395517Y5824518D02*
Y5885478D01*
X8456477D01*
Y5824518D01*
X8395517D01*
X8069197Y5804198D02*
Y5905798D01*
X8170797D01*
Y5804198D01*
X8069197D01*
X8089517Y5824518D02*
Y5885478D01*
X8150477D01*
Y5824518D01*
X8089517D01*
X7688197Y4879201D02*
Y4980801D01*
X7789797D01*
Y4879201D01*
X7688197D01*
X7708517Y4899521D02*
Y4960481D01*
X7769477D01*
Y4899521D01*
X7708517D01*
X7969200Y5334200D02*
Y5435800D01*
X8070800D01*
Y5334200D01*
X7969200D01*
X7989520Y5354520D02*
Y5415480D01*
X8050480D01*
Y5354520D01*
X7989520D01*
X11149201Y3261701D02*
Y3363301D01*
X11250801D01*
Y3261701D01*
X11149201D01*
X11169521Y3282021D02*
Y3342981D01*
X11230481D01*
Y3282021D01*
X11169521D01*
X7382198Y5804198D02*
Y5905798D01*
X7483798D01*
Y5804198D01*
X7382198D01*
X7402518Y5824518D02*
Y5885478D01*
X7463478D01*
Y5824518D01*
X7402518D01*
X1599200Y5299200D02*
Y5400800D01*
X1700800D01*
Y5299200D01*
X1599200D01*
X1619520Y5319520D02*
Y5380480D01*
X1680480D01*
Y5319520D01*
X1619520D01*
X14874200Y3104200D02*
Y3205800D01*
X14975800D01*
Y3104200D01*
X14874200D01*
X14894521Y3124520D02*
Y3185480D01*
X14955479D01*
Y3124520D01*
X14894521D01*
X7382198Y4879201D02*
Y4980801D01*
X7483798D01*
Y4879201D01*
X7382198D01*
X7402518Y4899521D02*
Y4960481D01*
X7463478D01*
Y4899521D01*
X7402518D01*
X7509198Y4879201D02*
Y4980801D01*
X7610798D01*
Y4879201D01*
X7509198D01*
X7529518Y4899521D02*
Y4960481D01*
X7590478D01*
Y4899521D01*
X7529518D01*
X7255198Y4879201D02*
Y4980801D01*
X7356798D01*
Y4879201D01*
X7255198D01*
X7275518Y4899521D02*
Y4960481D01*
X7336478D01*
Y4899521D01*
X7275518D01*
X13539125Y2619335D02*
Y2720935D01*
X13640726D01*
Y2619335D01*
X13539125D01*
X13559445Y2639655D02*
Y2700615D01*
X13620406D01*
Y2639655D01*
X13559445D01*
X12689198Y3094200D02*
Y3195800D01*
X12790798D01*
Y3094200D01*
X12689198D01*
X12709518Y3114520D02*
Y3175480D01*
X12770478D01*
Y3114520D01*
X12709518D01*
X12009199Y2839200D02*
Y2940800D01*
X12110799D01*
Y2839200D01*
X12009199D01*
X12029519Y2859520D02*
Y2920480D01*
X12090479D01*
Y2859520D01*
X12029519D01*
X12159199Y2839200D02*
Y2940800D01*
X12260799D01*
Y2839200D01*
X12159199D01*
X12179519Y2859520D02*
Y2920480D01*
X12240479D01*
Y2859520D01*
X12179519D01*
X12159200Y2729200D02*
Y2830800D01*
X12260800D01*
Y2729200D01*
X12159200D01*
X12179520Y2749520D02*
Y2810480D01*
X12240480D01*
Y2749520D01*
X12179520D01*
X11909199Y2839200D02*
Y2940800D01*
X12010799D01*
Y2839200D01*
X11909199D01*
X11929519Y2859520D02*
Y2920480D01*
X11990479D01*
Y2859520D01*
X11929519D01*
X12084200Y2779200D02*
Y2880800D01*
X12185800D01*
Y2779200D01*
X12084200D01*
X12104520Y2799520D02*
Y2860480D01*
X12165480D01*
Y2799520D01*
X12104520D01*
X11909199Y3094200D02*
Y3195800D01*
X12010799D01*
Y3094200D01*
X11909199D01*
X11929519Y3114520D02*
Y3175480D01*
X11990479D01*
Y3114520D01*
X11929519D01*
X12084199Y2899200D02*
Y3000800D01*
X12185799D01*
Y2899200D01*
X12084199D01*
X12104519Y2919520D02*
Y2980480D01*
X12165479D01*
Y2919520D01*
X12104519D01*
X12939198Y2969200D02*
Y3070800D01*
X13040797D01*
Y2969200D01*
X12939198D01*
X12959518Y2989520D02*
Y3050480D01*
X13020477D01*
Y2989520D01*
X12959518D01*
X12939198Y2839200D02*
Y2940800D01*
X13040797D01*
Y2839200D01*
X12939198D01*
X12959518Y2859520D02*
Y2920480D01*
X13020477D01*
Y2859520D01*
X12959518D01*
X12939198Y2729200D02*
Y2830800D01*
X13040799D01*
Y2729200D01*
X12939198D01*
X12959518Y2749520D02*
Y2810480D01*
X13020479D01*
Y2749520D01*
X12959518D01*
X12689198Y2839200D02*
Y2940800D01*
X12790798D01*
Y2839200D01*
X12689198D01*
X12709518Y2859520D02*
Y2920480D01*
X12770478D01*
Y2859520D01*
X12709518D01*
X12864198Y2779200D02*
Y2880800D01*
X12965799D01*
Y2779200D01*
X12864198D01*
X12884518Y2799520D02*
Y2860480D01*
X12945479D01*
Y2799520D01*
X12884518D01*
X12864198Y2899200D02*
Y3000800D01*
X12965797D01*
Y2899200D01*
X12864198D01*
X12884518Y2919520D02*
Y2980480D01*
X12945477D01*
Y2919520D01*
X12884518D01*
X12009199Y3509200D02*
Y3610800D01*
X12110799D01*
Y3509200D01*
X12009199D01*
X12029519Y3529520D02*
Y3590480D01*
X12090479D01*
Y3529520D01*
X12029519D01*
X11909199Y3509200D02*
Y3610800D01*
X12010799D01*
Y3509200D01*
X11909199D01*
X11929519Y3529520D02*
Y3590480D01*
X11990479D01*
Y3529520D01*
X11929519D01*
X12084200Y3449200D02*
Y3550800D01*
X12185800D01*
Y3449200D01*
X12084200D01*
X12104520Y3469520D02*
Y3530480D01*
X12165480D01*
Y3469520D01*
X12104520D01*
X11909199Y3764200D02*
Y3865800D01*
X12010799D01*
Y3764200D01*
X11909199D01*
X11929519Y3784520D02*
Y3845480D01*
X11990479D01*
Y3784520D01*
X11929519D01*
X12084199Y3569200D02*
Y3670800D01*
X12185799D01*
Y3569200D01*
X12084199D01*
X12104519Y3589520D02*
Y3650480D01*
X12165479D01*
Y3589520D01*
X12104519D01*
X12789198Y3509200D02*
Y3610800D01*
X12890797D01*
Y3509200D01*
X12789198D01*
X12809518Y3529520D02*
Y3590480D01*
X12870477D01*
Y3529520D01*
X12809518D01*
X12689198Y3509200D02*
Y3610800D01*
X12790798D01*
Y3509200D01*
X12689198D01*
X12709518Y3529520D02*
Y3590480D01*
X12770478D01*
Y3529520D01*
X12709518D01*
X12864198Y3449200D02*
Y3550800D01*
X12965799D01*
Y3449200D01*
X12864198D01*
X12884518Y3469520D02*
Y3530480D01*
X12945479D01*
Y3469520D01*
X12884518D01*
X12689198Y3764200D02*
Y3865800D01*
X12790798D01*
Y3764200D01*
X12689198D01*
X12709518Y3784520D02*
Y3845480D01*
X12770478D01*
Y3784520D01*
X12709518D01*
X12864198Y3569200D02*
Y3670800D01*
X12965797D01*
Y3569200D01*
X12864198D01*
X12884518Y3589520D02*
Y3650480D01*
X12945477D01*
Y3589520D01*
X12884518D01*
X12009199Y4179200D02*
Y4280800D01*
X12110799D01*
Y4179200D01*
X12009199D01*
X12029519Y4199520D02*
Y4260480D01*
X12090479D01*
Y4199520D01*
X12029519D01*
X11909199Y4179200D02*
Y4280800D01*
X12010799D01*
Y4179200D01*
X11909199D01*
X11929519Y4199520D02*
Y4260480D01*
X11990479D01*
Y4199520D01*
X11929519D01*
X12084200Y4119200D02*
Y4220800D01*
X12185800D01*
Y4119200D01*
X12084200D01*
X12104520Y4139520D02*
Y4200480D01*
X12165480D01*
Y4139520D01*
X12104520D01*
X11909199Y4434200D02*
Y4535800D01*
X12010799D01*
Y4434200D01*
X11909199D01*
X11929519Y4454520D02*
Y4515480D01*
X11990479D01*
Y4454520D01*
X11929519D01*
X12084199Y4239200D02*
Y4340800D01*
X12185799D01*
Y4239200D01*
X12084199D01*
X12104519Y4259520D02*
Y4320480D01*
X12165479D01*
Y4259520D01*
X12104519D01*
X12789198Y4179200D02*
Y4280800D01*
X12890797D01*
Y4179200D01*
X12789198D01*
X12809518Y4199520D02*
Y4260480D01*
X12870477D01*
Y4199520D01*
X12809518D01*
X12689198Y4179200D02*
Y4280800D01*
X12790798D01*
Y4179200D01*
X12689198D01*
X12709518Y4199520D02*
Y4260480D01*
X12770478D01*
Y4199520D01*
X12709518D01*
X12864198Y4119200D02*
Y4220800D01*
X12965799D01*
Y4119200D01*
X12864198D01*
X12884518Y4139520D02*
Y4200480D01*
X12945479D01*
Y4139520D01*
X12884518D01*
X12689198Y4434200D02*
Y4535800D01*
X12790798D01*
Y4434200D01*
X12689198D01*
X12709518Y4454520D02*
Y4515480D01*
X12770478D01*
Y4454520D01*
X12709518D01*
X12864198Y4239200D02*
Y4340800D01*
X12965797D01*
Y4239200D01*
X12864198D01*
X12884518Y4259520D02*
Y4320480D01*
X12945477D01*
Y4259520D01*
X12884518D01*
X12009199Y4849200D02*
Y4950800D01*
X12110799D01*
Y4849200D01*
X12009199D01*
X12029519Y4869520D02*
Y4930480D01*
X12090479D01*
Y4869520D01*
X12029519D01*
X11909199Y4849200D02*
Y4950800D01*
X12010799D01*
Y4849200D01*
X11909199D01*
X11929519Y4869520D02*
Y4930480D01*
X11990479D01*
Y4869520D01*
X11929519D01*
X12084200Y4789200D02*
Y4890800D01*
X12185800D01*
Y4789200D01*
X12084200D01*
X12104520Y4809520D02*
Y4870480D01*
X12165480D01*
Y4809520D01*
X12104520D01*
X12084199Y4909200D02*
Y5010800D01*
X12185799D01*
Y4909200D01*
X12084199D01*
X12104519Y4929520D02*
Y4990480D01*
X12165479D01*
Y4929520D01*
X12104519D01*
X12789198Y4849200D02*
Y4950800D01*
X12890797D01*
Y4849200D01*
X12789198D01*
X12809518Y4869520D02*
Y4930480D01*
X12870477D01*
Y4869520D01*
X12809518D01*
X12689198Y4849200D02*
Y4950800D01*
X12790798D01*
Y4849200D01*
X12689198D01*
X12709518Y4869520D02*
Y4930480D01*
X12770478D01*
Y4869520D01*
X12709518D01*
X12864198Y4789200D02*
Y4890800D01*
X12965799D01*
Y4789200D01*
X12864198D01*
X12884518Y4809520D02*
Y4870480D01*
X12945479D01*
Y4809520D01*
X12884518D01*
X12689198Y5104200D02*
Y5205800D01*
X12790798D01*
Y5104200D01*
X12689198D01*
X12709518Y5124520D02*
Y5185480D01*
X12770478D01*
Y5124520D01*
X12709518D01*
X12864198Y4909200D02*
Y5010800D01*
X12965797D01*
Y4909200D01*
X12864198D01*
X12884518Y4929520D02*
Y4990480D01*
X12945477D01*
Y4929520D01*
X12884518D01*
X12009199Y5519200D02*
Y5620800D01*
X12110799D01*
Y5519200D01*
X12009199D01*
X12029519Y5539520D02*
Y5600480D01*
X12090479D01*
Y5539520D01*
X12029519D01*
X11909199Y5519200D02*
Y5620800D01*
X12010799D01*
Y5519200D01*
X11909199D01*
X11929519Y5539520D02*
Y5600480D01*
X11990479D01*
Y5539520D01*
X11929519D01*
X12084200Y5459200D02*
Y5560800D01*
X12185800D01*
Y5459200D01*
X12084200D01*
X12104520Y5479520D02*
Y5540480D01*
X12165480D01*
Y5479520D01*
X12104520D01*
X12084199Y5579200D02*
Y5680800D01*
X12185799D01*
Y5579200D01*
X12084199D01*
X12104519Y5599520D02*
Y5660480D01*
X12165479D01*
Y5599520D01*
X12104519D01*
X12864198Y5459200D02*
Y5560800D01*
X12965799D01*
Y5459200D01*
X12864198D01*
X12884518Y5479520D02*
Y5540480D01*
X12945479D01*
Y5479520D01*
X12884518D01*
X12864198Y5579200D02*
Y5680800D01*
X12965797D01*
Y5579200D01*
X12864198D01*
X12884518Y5599520D02*
Y5660480D01*
X12945477D01*
Y5599520D01*
X12884518D01*
X12789198Y5519200D02*
Y5620800D01*
X12890797D01*
Y5519200D01*
X12789198D01*
X12809518Y5539520D02*
Y5600480D01*
X12870477D01*
Y5539520D01*
X12809518D01*
X12689198Y5519200D02*
Y5620800D01*
X12790798D01*
Y5519200D01*
X12689198D01*
X12709518Y5539520D02*
Y5600480D01*
X12770478D01*
Y5539520D01*
X12709518D01*
X13234200Y3179200D02*
Y3280800D01*
X13335800D01*
Y3179200D01*
X13234200D01*
X13254520Y3199520D02*
Y3260480D01*
X13315480D01*
Y3199520D01*
X13254520D01*
X13854201Y2724200D02*
Y2825800D01*
X13955800D01*
Y2724200D01*
X13854201D01*
X13874519Y2744520D02*
Y2805480D01*
X13935480D01*
Y2744520D01*
X13874519D01*
X13894200Y3119200D02*
Y3220800D01*
X13995799D01*
Y3119200D01*
X13894200D01*
X13914520Y3139520D02*
Y3200480D01*
X13975481D01*
Y3139520D01*
X13914520D01*
X13649200Y3104200D02*
Y3205800D01*
X13750800D01*
Y3104200D01*
X13649200D01*
X13669521Y3124520D02*
Y3185480D01*
X13730479D01*
Y3124520D01*
X13669521D01*
X14764200Y2619200D02*
Y2720800D01*
X14865800D01*
Y2619200D01*
X14764200D01*
X14784520Y2639520D02*
Y2700480D01*
X14845480D01*
Y2639520D01*
X14784520D01*
X14459200Y3179200D02*
Y3280800D01*
X14560800D01*
Y3179200D01*
X14459200D01*
X14479520Y3199520D02*
Y3260480D01*
X14540480D01*
Y3199520D01*
X14479520D01*
X15079201Y2724200D02*
Y2825800D01*
X15180800D01*
Y2724200D01*
X15079201D01*
X15099519Y2744520D02*
Y2805480D01*
X15160480D01*
Y2744520D01*
X15099519D01*
X16000000Y1299200D02*
X16025400Y1324600D01*
X16050800D01*
X16025400Y1350000D01*
X16050800Y1375400D01*
X16025400D01*
X16000000Y1400800D01*
X15974600Y1375400D01*
X15949200D01*
X15974600Y1350000D01*
X15949200Y1324600D01*
X15974600D01*
X16000000Y1299200D01*
Y1319520D02*
X16015240Y1334760D01*
X16030479D01*
X16015240Y1350000D01*
X16030479Y1365240D01*
X16015240D01*
X16000000Y1380480D01*
X15984760Y1365240D01*
X15969521D01*
X15984760Y1350000D01*
X15969521Y1334760D01*
X15984760D01*
X16000000Y1319520D01*
X2000000Y5599200D02*
X2025400Y5624600D01*
X2050800D01*
X2025400Y5650000D01*
X2050800Y5675400D01*
X2025400D01*
X2000000Y5700800D01*
X1974600Y5675400D01*
X1949200D01*
X1974600Y5650000D01*
X1949200Y5624600D01*
X1974600D01*
X2000000Y5599200D01*
Y5619520D02*
X2015240Y5634760D01*
X2030480D01*
X2015240Y5650000D01*
X2030480Y5665240D01*
X2015240D01*
X2000000Y5680480D01*
X1984760Y5665240D01*
X1969520D01*
X1984760Y5650000D01*
X1969520Y5634760D01*
X1984760D01*
X2000000Y5619520D01*
Y1299200D02*
X2025400Y1324600D01*
X2050800D01*
X2025400Y1350000D01*
X2050800Y1375400D01*
X2025400D01*
X2000000Y1400800D01*
X1974600Y1375400D01*
X1949200D01*
X1974600Y1350000D01*
X1949200Y1324600D01*
X1974600D01*
X2000000Y1299200D01*
Y1319520D02*
X2015240Y1334760D01*
X2030480D01*
X2015240Y1350000D01*
X2030480Y1365240D01*
X2015240D01*
X2000000Y1380480D01*
X1984760Y1365240D01*
X1969520D01*
X1984760Y1350000D01*
X1969520Y1334760D01*
X1984760D01*
X2000000Y1319520D01*
D189*
X15775797Y2210000D02*
G03*
X15775797Y2210000I-50800J0D01*
G01*
X16275800Y2210000D02*
G03*
X16275800Y2210000I-50800J0D01*
G01*
X13595705Y3154606D02*
G03*
X13595705Y3154606I-50800J0D01*
G01*
X13595799Y3825000D02*
G03*
X13595799Y3825000I-50800J0D01*
G01*
X14820799D02*
G03*
X14820799Y3825000I-50800J0D01*
G01*
X13595799Y4495000D02*
G03*
X13595799Y4495000I-50800J0D01*
G01*
X14820799D02*
G03*
X14820799Y4495000I-50800J0D01*
G01*
X13595799Y5165000D02*
G03*
X13595799Y5165000I-50800J0D01*
G01*
X14820799D02*
G03*
X14820799Y5165000I-50800J0D01*
G01*
X13595799Y5835000D02*
G03*
X13595799Y5835000I-50800J0D01*
G01*
X14820799D02*
G03*
X14820799Y5835000I-50800J0D01*
G01*
X6445800Y4100000D02*
G03*
X6445800Y4100000I-50800J0D01*
G01*
X12950800Y1349999D02*
G03*
X12950800Y1349999I-50800J0D01*
G01*
X12050799Y1350000D02*
G03*
X12050799Y1350000I-50800J0D01*
G01*
X15470799Y1410000D02*
G03*
X15470799Y1410000I-50800J0D01*
G01*
X15650800Y5780000D02*
G03*
X15650800Y5780000I-50800J0D01*
G01*
X14425800D02*
G03*
X14425800Y5780000I-50800J0D01*
G01*
X15650800Y5110000D02*
G03*
X15650800Y5110000I-50800J0D01*
G01*
X14425800D02*
G03*
X14425800Y5110000I-50800J0D01*
G01*
X15650800Y4440000D02*
G03*
X15650800Y4440000I-50800J0D01*
G01*
X14425800D02*
G03*
X14425800Y4440000I-50800J0D01*
G01*
X15650800Y3770000D02*
G03*
X15650800Y3770000I-50800J0D01*
G01*
X14425800D02*
G03*
X14425800Y3770000I-50800J0D01*
G01*
X3800800Y5900000D02*
G03*
X3800800Y5900000I-50800J0D01*
G01*
X2315800Y5250000D02*
G03*
X2315800Y5250000I-50800J0D01*
G01*
X14425800Y3100000D02*
G03*
X14425800Y3100000I-50800J0D01*
G01*
X15650800D02*
G03*
X15650800Y3100000I-50800J0D01*
G01*
D190*
X13575385Y3154606D02*
G03*
X13575385Y3154606I-30480J0D01*
G01*
X13575481Y3825000D02*
G03*
X13575481Y3825000I-30480J0D01*
G01*
X14800481D02*
G03*
X14800481Y3825000I-30480J0D01*
G01*
X13575481Y4495000D02*
G03*
X13575481Y4495000I-30480J0D01*
G01*
X14800481D02*
G03*
X14800481Y4495000I-30480J0D01*
G01*
X13575481Y5165000D02*
G03*
X13575481Y5165000I-30480J0D01*
G01*
X14800481D02*
G03*
X14800481Y5165000I-30480J0D01*
G01*
X13575481Y5835000D02*
G03*
X13575481Y5835000I-30480J0D01*
G01*
X14800481D02*
G03*
X14800481Y5835000I-30480J0D01*
G01*
X6425480Y4100000D02*
G03*
X6425480Y4100000I-30480J0D01*
G01*
X12930479Y1349999D02*
G03*
X12930479Y1349999I-30480J0D01*
G01*
X12030479Y1350000D02*
G03*
X12030479Y1350000I-30480J0D01*
G01*
X15450481Y1410000D02*
G03*
X15450481Y1410000I-30480J0D01*
G01*
X15630479Y5780000D02*
G03*
X15630479Y5780000I-30480J0D01*
G01*
X14405479D02*
G03*
X14405479Y5780000I-30480J0D01*
G01*
X15630479Y5110000D02*
G03*
X15630479Y5110000I-30480J0D01*
G01*
X14405479D02*
G03*
X14405479Y5110000I-30480J0D01*
G01*
X15630479Y4440000D02*
G03*
X15630479Y4440000I-30480J0D01*
G01*
X14405479D02*
G03*
X14405479Y4440000I-30480J0D01*
G01*
X15630479Y3770000D02*
G03*
X15630479Y3770000I-30480J0D01*
G01*
X14405479D02*
G03*
X14405479Y3770000I-30480J0D01*
G01*
X3780480Y5900000D02*
G03*
X3780480Y5900000I-30480J0D01*
G01*
X2295480Y5250000D02*
G03*
X2295480Y5250000I-30480J0D01*
G01*
X14405479Y3100000D02*
G03*
X14405479Y3100000I-30480J0D01*
G01*
X15630479D02*
G03*
X15630479Y3100000I-30480J0D01*
G01*
%TF.MD5,b8ec95771aa33ce842f02d46de9a934a*%
M02*
